<?xml version="1.0" encoding="utf-8" standalone="no"?>
<!DOCTYPE svg PUBLIC "-//W3C//DTD SVG 1.1//EN"
  "http://www.w3.org/Graphics/SVG/1.1/DTD/svg11.dtd">
<!-- Created with matplotlib (https://matplotlib.org/) -->
<svg height="773.3781pt" version="1.1" viewBox="0 0 816.4188 773.3781" width="816.4188pt" xmlns="http://www.w3.org/2000/svg" xmlns:xlink="http://www.w3.org/1999/xlink">
 <metadata>
  <rdf:RDF xmlns:cc="http://creativecommons.org/ns#" xmlns:dc="http://purl.org/dc/elements/1.1/" xmlns:rdf="http://www.w3.org/1999/02/22-rdf-syntax-ns#">
   <cc:Work>
    <dc:type rdf:resource="http://purl.org/dc/dcmitype/StillImage"/>
    <dc:date>2021-11-24T00:08:25.573239</dc:date>
    <dc:format>image/svg+xml</dc:format>
    <dc:creator>
     <cc:Agent>
      <dc:title>Matplotlib v3.3.1, https://matplotlib.org/</dc:title>
     </cc:Agent>
    </dc:creator>
   </cc:Work>
  </rdf:RDF>
 </metadata>
 <defs>
  <style type="text/css">*{stroke-linecap:butt;stroke-linejoin:round;}</style>
 </defs>
 <g id="figure_1">
  <g id="patch_1">
   <path d="M 0 773.3781 
L 816.4188 773.3781 
L 816.4188 -0 
L 0 -0 
z
" style="fill:#ffffff;"/>
  </g>
  <g id="axes_1">
   <g id="patch_2">
    <path d="M 78.8853 366.568735 
L 403.749825 366.568735 
L 403.749825 64.66342 
L 78.8853 64.66342 
z
" style="fill:#ffffff;"/>
   </g>
   <g id="matplotlib.axis_1">
    <g id="xtick_1">
     <g id="line2d_1">
      <defs>
       <path d="M 0 0 
L 0 8 
" id="m053b43f9ac" style="stroke:#000000;stroke-width:4;"/>
      </defs>
      <g>
       <use style="stroke:#000000;stroke-width:4;" x="78.8853" xlink:href="#m053b43f9ac" y="366.568735"/>
      </g>
     </g>
     <g id="text_1">
      <!-- -0.5 -->
      <g transform="translate(63.99885 390.437435)scale(0.1728 -0.1728)">
       <defs>
        <path d="M 5.609375 19.09375 
L 5.609375 32.8125 
L 32.5625 32.8125 
L 32.5625 19.09375 
z
" id="Arial-BoldMT-45"/>
        <path d="M 27.4375 71.875 
Q 37.84375 71.875 43.703125 64.453125 
Q 50.6875 55.671875 50.6875 35.296875 
Q 50.6875 14.984375 43.65625 6.109375 
Q 37.84375 -1.21875 27.4375 -1.21875 
Q 17 -1.21875 10.59375 6.8125 
Q 4.203125 14.84375 4.203125 35.453125 
Q 4.203125 55.671875 11.234375 64.546875 
Q 17.046875 71.875 27.4375 71.875 
z
M 27.4375 60.5 
Q 24.953125 60.5 23 58.90625 
Q 21.046875 57.328125 19.96875 53.21875 
Q 18.5625 47.90625 18.5625 35.296875 
Q 18.5625 22.703125 19.828125 17.984375 
Q 21.09375 13.28125 23.015625 11.71875 
Q 24.953125 10.15625 27.4375 10.15625 
Q 29.9375 10.15625 31.890625 11.734375 
Q 33.84375 13.328125 34.90625 17.4375 
Q 36.328125 22.703125 36.328125 35.296875 
Q 36.328125 47.90625 35.0625 52.609375 
Q 33.796875 57.328125 31.859375 58.90625 
Q 29.9375 60.5 27.4375 60.5 
z
" id="Arial-BoldMT-48"/>
        <path d="M 7.171875 0 
L 7.171875 13.71875 
L 20.90625 13.71875 
L 20.90625 0 
z
" id="Arial-BoldMT-46"/>
        <path d="M 4.4375 18.40625 
L 18.109375 19.828125 
Q 18.703125 15.1875 21.578125 12.46875 
Q 24.46875 9.765625 28.21875 9.765625 
Q 32.515625 9.765625 35.5 13.25 
Q 38.484375 16.75 38.484375 23.78125 
Q 38.484375 30.375 35.515625 33.671875 
Q 32.5625 36.96875 27.828125 36.96875 
Q 21.921875 36.96875 17.234375 31.734375 
L 6.109375 33.34375 
L 13.140625 70.609375 
L 49.421875 70.609375 
L 49.421875 57.765625 
L 23.53125 57.765625 
L 21.390625 45.609375 
Q 25.984375 47.90625 30.765625 47.90625 
Q 39.890625 47.90625 46.234375 41.265625 
Q 52.59375 34.625 52.59375 24.03125 
Q 52.59375 15.1875 47.46875 8.25 
Q 40.484375 -1.21875 28.078125 -1.21875 
Q 18.171875 -1.21875 11.921875 4.09375 
Q 5.671875 9.421875 4.4375 18.40625 
z
" id="Arial-BoldMT-53"/>
       </defs>
       <use xlink:href="#Arial-BoldMT-45"/>
       <use x="33.300781" xlink:href="#Arial-BoldMT-48"/>
       <use x="88.916016" xlink:href="#Arial-BoldMT-46"/>
       <use x="116.699219" xlink:href="#Arial-BoldMT-53"/>
      </g>
     </g>
    </g>
    <g id="xtick_2">
     <g id="line2d_2">
      <g>
       <use style="stroke:#000000;stroke-width:4;" x="241.317562" xlink:href="#m053b43f9ac" y="366.568735"/>
      </g>
     </g>
     <g id="text_2">
      <!-- 0 -->
      <g transform="translate(236.512912 390.437435)scale(0.1728 -0.1728)">
       <use xlink:href="#Arial-BoldMT-48"/>
      </g>
     </g>
    </g>
    <g id="xtick_3">
     <g id="line2d_3">
      <g>
       <use style="stroke:#000000;stroke-width:4;" x="403.749825" xlink:href="#m053b43f9ac" y="366.568735"/>
      </g>
     </g>
     <g id="text_3">
      <!-- 0.5 -->
      <g transform="translate(391.740225 390.437435)scale(0.1728 -0.1728)">
       <use xlink:href="#Arial-BoldMT-48"/>
       <use x="55.615234" xlink:href="#Arial-BoldMT-46"/>
       <use x="83.398438" xlink:href="#Arial-BoldMT-53"/>
      </g>
     </g>
    </g>
   </g>
   <g id="matplotlib.axis_2">
    <g id="ytick_1">
     <g id="line2d_4">
      <defs>
       <path d="M 0 0 
L -8 0 
" id="mb8f219fb6f" style="stroke:#000000;stroke-width:4;"/>
      </defs>
      <g>
       <use style="stroke:#000000;stroke-width:4;" x="78.8853" xlink:href="#mb8f219fb6f" y="366.568735"/>
      </g>
     </g>
    </g>
    <g id="ytick_2">
     <g id="line2d_5">
      <g>
       <use style="stroke:#000000;stroke-width:4;" x="78.8853" xlink:href="#mb8f219fb6f" y="316.251182"/>
      </g>
     </g>
     <g id="text_4">
      <!-- -0.04 -->
      <g transform="translate(28.0031 322.435532)scale(0.1728 -0.1728)">
       <defs>
        <path d="M 31.15625 0 
L 31.15625 14.40625 
L 1.859375 14.40625 
L 1.859375 26.421875 
L 32.90625 71.875 
L 44.4375 71.875 
L 44.4375 26.46875 
L 53.328125 26.46875 
L 53.328125 14.40625 
L 44.4375 14.40625 
L 44.4375 0 
z
M 31.15625 26.46875 
L 31.15625 50.921875 
L 14.703125 26.46875 
z
" id="Arial-BoldMT-52"/>
       </defs>
       <use xlink:href="#Arial-BoldMT-45"/>
       <use x="33.300781" xlink:href="#Arial-BoldMT-48"/>
       <use x="88.916016" xlink:href="#Arial-BoldMT-46"/>
       <use x="116.699219" xlink:href="#Arial-BoldMT-48"/>
       <use x="172.314453" xlink:href="#Arial-BoldMT-52"/>
      </g>
     </g>
    </g>
    <g id="ytick_3">
     <g id="line2d_6">
      <g>
       <use style="stroke:#000000;stroke-width:4;" x="78.8853" xlink:href="#mb8f219fb6f" y="265.93363"/>
      </g>
     </g>
    </g>
    <g id="ytick_4">
     <g id="line2d_7">
      <g>
       <use style="stroke:#000000;stroke-width:4;" x="78.8853" xlink:href="#mb8f219fb6f" y="215.616077"/>
      </g>
     </g>
     <g id="text_5">
      <!-- 0 -->
      <g transform="translate(57.776 221.800427)scale(0.1728 -0.1728)">
       <use xlink:href="#Arial-BoldMT-48"/>
      </g>
     </g>
    </g>
    <g id="ytick_5">
     <g id="line2d_8">
      <g>
       <use style="stroke:#000000;stroke-width:4;" x="78.8853" xlink:href="#mb8f219fb6f" y="165.298525"/>
      </g>
     </g>
    </g>
    <g id="ytick_6">
     <g id="line2d_9">
      <g>
       <use style="stroke:#000000;stroke-width:4;" x="78.8853" xlink:href="#mb8f219fb6f" y="114.980972"/>
      </g>
     </g>
     <g id="text_6">
      <!-- 0.04 -->
      <g transform="translate(33.7568 121.165322)scale(0.1728 -0.1728)">
       <use xlink:href="#Arial-BoldMT-48"/>
       <use x="55.615234" xlink:href="#Arial-BoldMT-46"/>
       <use x="83.398438" xlink:href="#Arial-BoldMT-48"/>
       <use x="139.013672" xlink:href="#Arial-BoldMT-52"/>
      </g>
     </g>
    </g>
    <g id="ytick_7">
     <g id="line2d_10">
      <g>
       <use style="stroke:#000000;stroke-width:4;" x="78.8853" xlink:href="#mb8f219fb6f" y="64.66342"/>
      </g>
     </g>
    </g>
    <g id="text_7">
     <!-- . -->
     <g style="fill:#ffffff;" transform="translate(19.5687 218.016377)rotate(-90)scale(0.1728 -0.1728)">
      <defs>
       <path d="M 9.078125 0 
L 9.078125 10.015625 
L 19.09375 10.015625 
L 19.09375 0 
z
" id="ArialMT-46"/>
      </defs>
      <use xlink:href="#ArialMT-46"/>
     </g>
    </g>
   </g>
   <g id="patch_3">
    <path d="M 78.8853 366.568735 
L 78.8853 64.66342 
" style="fill:none;stroke:#000000;stroke-linecap:square;stroke-linejoin:miter;stroke-width:4;"/>
   </g>
   <g id="patch_4">
    <path d="M 78.8853 366.568735 
L 403.749825 366.568735 
" style="fill:none;stroke:#000000;stroke-linecap:square;stroke-linejoin:miter;stroke-width:4;"/>
   </g>
   <g id="text_8">
    <!-- L2/3 Pyr -->
    <g transform="translate(207.699862 46.587207)scale(0.1728 -0.1728)">
     <defs>
      <path d="M 7.671875 0 
L 7.671875 71 
L 22.125 71 
L 22.125 12.0625 
L 58.0625 12.0625 
L 58.0625 0 
z
" id="Arial-BoldMT-76"/>
      <path d="M 50.59375 12.75 
L 50.59375 0 
L 2.484375 0 
Q 3.265625 7.234375 7.171875 13.703125 
Q 11.078125 20.171875 22.609375 30.859375 
Q 31.890625 39.5 33.984375 42.578125 
Q 36.8125 46.828125 36.8125 50.984375 
Q 36.8125 55.5625 34.34375 58.03125 
Q 31.890625 60.5 27.546875 60.5 
Q 23.25 60.5 20.703125 57.90625 
Q 18.171875 55.328125 17.78125 49.3125 
L 4.109375 50.6875 
Q 5.328125 62.015625 11.765625 66.9375 
Q 18.21875 71.875 27.875 71.875 
Q 38.484375 71.875 44.53125 66.15625 
Q 50.59375 60.453125 50.59375 51.953125 
Q 50.59375 47.125 48.859375 42.75 
Q 47.125 38.375 43.359375 33.59375 
Q 40.875 30.421875 34.375 24.453125 
Q 27.875 18.5 26.140625 16.546875 
Q 24.421875 14.59375 23.34375 12.75 
z
" id="Arial-BoldMT-50"/>
      <path d="M -0.140625 -1.21875 
L 17.578125 72.796875 
L 27.875 72.796875 
L 9.96875 -1.21875 
z
" id="Arial-BoldMT-47"/>
      <path d="M 3.765625 19 
L 17.046875 20.609375 
Q 17.671875 15.53125 20.453125 12.84375 
Q 23.25 10.15625 27.203125 10.15625 
Q 31.453125 10.15625 34.34375 13.375 
Q 37.25 16.609375 37.25 22.078125 
Q 37.25 27.25 34.46875 30.265625 
Q 31.6875 33.296875 27.6875 33.296875 
Q 25.046875 33.296875 21.390625 32.28125 
L 22.90625 43.453125 
Q 28.46875 43.3125 31.390625 45.875 
Q 34.328125 48.4375 34.328125 52.6875 
Q 34.328125 56.296875 32.171875 58.4375 
Q 30.03125 60.59375 26.46875 60.59375 
Q 22.953125 60.59375 20.453125 58.15625 
Q 17.96875 55.71875 17.4375 51.03125 
L 4.78125 53.171875 
Q 6.109375 59.671875 8.765625 63.546875 
Q 11.421875 67.4375 16.1875 69.65625 
Q 20.953125 71.875 26.859375 71.875 
Q 36.96875 71.875 43.0625 65.4375 
Q 48.09375 60.15625 48.09375 53.515625 
Q 48.09375 44.09375 37.796875 38.484375 
Q 43.953125 37.15625 47.625 32.5625 
Q 51.3125 27.984375 51.3125 21.484375 
Q 51.3125 12.0625 44.421875 5.421875 
Q 37.546875 -1.21875 27.296875 -1.21875 
Q 17.578125 -1.21875 11.171875 4.375 
Q 4.78125 9.96875 3.765625 19 
z
" id="Arial-BoldMT-51"/>
      <path id="Arial-BoldMT-32"/>
      <path d="M 7.28125 0 
L 7.28125 71.578125 
L 30.46875 71.578125 
Q 43.65625 71.578125 47.65625 70.515625 
Q 53.8125 68.890625 57.953125 63.5 
Q 62.109375 58.109375 62.109375 49.5625 
Q 62.109375 42.96875 59.71875 38.46875 
Q 57.328125 33.984375 53.640625 31.421875 
Q 49.953125 28.859375 46.140625 28.03125 
Q 40.96875 27 31.15625 27 
L 21.734375 27 
L 21.734375 0 
z
M 21.734375 59.46875 
L 21.734375 39.15625 
L 29.640625 39.15625 
Q 38.1875 39.15625 41.0625 40.28125 
Q 43.953125 41.40625 45.578125 43.796875 
Q 47.21875 46.1875 47.21875 49.359375 
Q 47.21875 53.265625 44.921875 55.796875 
Q 42.625 58.34375 39.109375 58.984375 
Q 36.53125 59.46875 28.71875 59.46875 
z
" id="Arial-BoldMT-80"/>
      <path d="M 0.6875 51.859375 
L 15.28125 51.859375 
L 27.6875 15.046875 
L 39.796875 51.859375 
L 54 51.859375 
L 35.6875 1.953125 
L 32.421875 -7.078125 
Q 30.609375 -11.625 28.96875 -14.015625 
Q 27.34375 -16.40625 25.21875 -17.890625 
Q 23.09375 -19.390625 19.984375 -20.21875 
Q 16.890625 -21.046875 12.984375 -21.046875 
Q 9.03125 -21.046875 5.21875 -20.21875 
L 4 -9.46875 
Q 7.234375 -10.109375 9.8125 -10.109375 
Q 14.59375 -10.109375 16.890625 -7.296875 
Q 19.1875 -4.5 20.40625 -0.140625 
z
" id="Arial-BoldMT-121"/>
      <path d="M 20.3125 0 
L 6.59375 0 
L 6.59375 51.859375 
L 19.34375 51.859375 
L 19.34375 44.484375 
Q 22.609375 49.703125 25.21875 51.359375 
Q 27.828125 53.03125 31.15625 53.03125 
Q 35.84375 53.03125 40.1875 50.4375 
L 35.9375 38.484375 
Q 32.46875 40.71875 29.5 40.71875 
Q 26.609375 40.71875 24.609375 39.125 
Q 22.609375 37.546875 21.453125 33.390625 
Q 20.3125 29.25 20.3125 16.015625 
z
" id="Arial-BoldMT-114"/>
     </defs>
     <use xlink:href="#Arial-BoldMT-76"/>
     <use x="61.083984" xlink:href="#Arial-BoldMT-50"/>
     <use x="116.699219" xlink:href="#Arial-BoldMT-47"/>
     <use x="144.482422" xlink:href="#Arial-BoldMT-51"/>
     <use x="200.097656" xlink:href="#Arial-BoldMT-32"/>
     <use x="227.880859" xlink:href="#Arial-BoldMT-80"/>
     <use x="294.580078" xlink:href="#Arial-BoldMT-121"/>
     <use x="350.195312" xlink:href="#Arial-BoldMT-114"/>
    </g>
   </g>
  </g>
  <g id="axes_2">
   <g id="patch_5">
    <path d="M 443.605875 366.568735 
L 768.4704 366.568735 
L 768.4704 64.66342 
L 443.605875 64.66342 
z
" style="fill:#ffffff;"/>
   </g>
   <g id="matplotlib.axis_3">
    <g id="xtick_4">
     <g id="line2d_11">
      <g>
       <use style="stroke:#000000;stroke-width:4;" x="443.605875" xlink:href="#m053b43f9ac" y="366.568735"/>
      </g>
     </g>
     <g id="text_9">
      <!-- -0.5 -->
      <g transform="translate(428.719425 390.437435)scale(0.1728 -0.1728)">
       <use xlink:href="#Arial-BoldMT-45"/>
       <use x="33.300781" xlink:href="#Arial-BoldMT-48"/>
       <use x="88.916016" xlink:href="#Arial-BoldMT-46"/>
       <use x="116.699219" xlink:href="#Arial-BoldMT-53"/>
      </g>
     </g>
    </g>
    <g id="xtick_5">
     <g id="line2d_12">
      <g>
       <use style="stroke:#000000;stroke-width:4;" x="606.038137" xlink:href="#m053b43f9ac" y="366.568735"/>
      </g>
     </g>
     <g id="text_10">
      <!-- 0 -->
      <g transform="translate(601.233487 390.437435)scale(0.1728 -0.1728)">
       <use xlink:href="#Arial-BoldMT-48"/>
      </g>
     </g>
    </g>
    <g id="xtick_6">
     <g id="line2d_13">
      <g>
       <use style="stroke:#000000;stroke-width:4;" x="768.4704" xlink:href="#m053b43f9ac" y="366.568735"/>
      </g>
     </g>
     <g id="text_11">
      <!-- 0.5 -->
      <g transform="translate(756.4608 390.437435)scale(0.1728 -0.1728)">
       <use xlink:href="#Arial-BoldMT-48"/>
       <use x="55.615234" xlink:href="#Arial-BoldMT-46"/>
       <use x="83.398438" xlink:href="#Arial-BoldMT-53"/>
      </g>
     </g>
    </g>
   </g>
   <g id="matplotlib.axis_4">
    <g id="ytick_8">
     <g id="line2d_14">
      <g>
       <use style="stroke:#000000;stroke-width:4;" x="443.605875" xlink:href="#mb8f219fb6f" y="366.568735"/>
      </g>
     </g>
    </g>
    <g id="ytick_9">
     <g id="line2d_15">
      <g>
       <use style="stroke:#000000;stroke-width:4;" x="443.605875" xlink:href="#mb8f219fb6f" y="316.251182"/>
      </g>
     </g>
    </g>
    <g id="ytick_10">
     <g id="line2d_16">
      <g>
       <use style="stroke:#000000;stroke-width:4;" x="443.605875" xlink:href="#mb8f219fb6f" y="265.93363"/>
      </g>
     </g>
    </g>
    <g id="ytick_11">
     <g id="line2d_17">
      <g>
       <use style="stroke:#000000;stroke-width:4;" x="443.605875" xlink:href="#mb8f219fb6f" y="215.616077"/>
      </g>
     </g>
    </g>
    <g id="ytick_12">
     <g id="line2d_18">
      <g>
       <use style="stroke:#000000;stroke-width:4;" x="443.605875" xlink:href="#mb8f219fb6f" y="165.298525"/>
      </g>
     </g>
    </g>
    <g id="ytick_13">
     <g id="line2d_19">
      <g>
       <use style="stroke:#000000;stroke-width:4;" x="443.605875" xlink:href="#mb8f219fb6f" y="114.980972"/>
      </g>
     </g>
    </g>
    <g id="ytick_14">
     <g id="line2d_20">
      <g>
       <use style="stroke:#000000;stroke-width:4;" x="443.605875" xlink:href="#mb8f219fb6f" y="64.66342"/>
      </g>
     </g>
    </g>
   </g>
   <g id="patch_6">
    <path d="M 443.605875 366.568735 
L 443.605875 64.66342 
" style="fill:none;stroke:#000000;stroke-linecap:square;stroke-linejoin:miter;stroke-width:4;"/>
   </g>
   <g id="patch_7">
    <path d="M 443.605875 366.568735 
L 768.4704 366.568735 
" style="fill:none;stroke:#000000;stroke-linecap:square;stroke-linejoin:miter;stroke-width:4;"/>
   </g>
   <g id="text_12">
    <!-- L5 Pyr -->
    <g transform="translate(579.625387 46.587207)scale(0.1728 -0.1728)">
     <use xlink:href="#Arial-BoldMT-76"/>
     <use x="61.083984" xlink:href="#Arial-BoldMT-53"/>
     <use x="116.699219" xlink:href="#Arial-BoldMT-32"/>
     <use x="144.482422" xlink:href="#Arial-BoldMT-80"/>
     <use x="211.181641" xlink:href="#Arial-BoldMT-121"/>
     <use x="266.796875" xlink:href="#Arial-BoldMT-114"/>
    </g>
   </g>
  </g>
  <g id="axes_3">
   <g id="patch_8">
    <path d="M 78.8853 714.8972 
L 403.749825 714.8972 
L 403.749825 412.991885 
L 78.8853 412.991885 
z
" style="fill:#ffffff;"/>
   </g>
   <g id="patch_9">
    <path clip-path="url(#p6355108988)" d="M 183.556748 714.8972 
L 183.556748 412.991885 
L 78.8853 412.991885 
L 78.8853 714.8972 
z
" style="fill:#871719;opacity:0.1;"/>
   </g>
   <g id="patch_10">
    <path clip-path="url(#p6355108988)" d="M 296.008806 714.8972 
L 296.008806 412.991885 
L 403.749825 412.991885 
L 403.749825 714.8972 
z
" style="fill:#871719;opacity:0.1;"/>
   </g>
   <g id="patch_11">
    <path clip-path="url(#p6355108988)" d="M 117.511145 714.8972 
L 123.139657 714.8972 
L 123.139657 714.171147 
L 117.511145 714.171147 
z
" style="fill:#808080;opacity:0.45;"/>
   </g>
   <g id="patch_12">
    <path clip-path="url(#p6355108988)" d="M 123.139657 714.8972 
L 128.768168 714.8972 
L 128.768168 714.8972 
L 123.139657 714.8972 
z
" style="fill:#808080;opacity:0.45;"/>
   </g>
   <g id="patch_13">
    <path clip-path="url(#p6355108988)" d="M 128.768168 714.8972 
L 134.39668 714.8972 
L 134.39668 714.8972 
L 128.768168 714.8972 
z
" style="fill:#808080;opacity:0.45;"/>
   </g>
   <g id="patch_14">
    <path clip-path="url(#p6355108988)" d="M 134.39668 714.8972 
L 140.025191 714.8972 
L 140.025191 714.171147 
L 134.39668 714.171147 
z
" style="fill:#808080;opacity:0.45;"/>
   </g>
   <g id="patch_15">
    <path clip-path="url(#p6355108988)" d="M 140.025191 714.8972 
L 145.653703 714.8972 
L 145.653703 712.719041 
L 140.025191 712.719041 
z
" style="fill:#808080;opacity:0.45;"/>
   </g>
   <g id="patch_16">
    <path clip-path="url(#p6355108988)" d="M 145.653703 714.8972 
L 151.282214 714.8972 
L 151.282214 713.445094 
L 145.653703 713.445094 
z
" style="fill:#808080;opacity:0.45;"/>
   </g>
   <g id="patch_17">
    <path clip-path="url(#p6355108988)" d="M 151.282214 714.8972 
L 156.910726 714.8972 
L 156.910726 711.266936 
L 151.282214 711.266936 
z
" style="fill:#808080;opacity:0.45;"/>
   </g>
   <g id="patch_18">
    <path clip-path="url(#p6355108988)" d="M 156.910726 714.8972 
L 162.539237 714.8972 
L 162.539237 707.636671 
L 156.910726 707.636671 
z
" style="fill:#808080;opacity:0.45;"/>
   </g>
   <g id="patch_19">
    <path clip-path="url(#p6355108988)" d="M 162.539237 714.8972 
L 168.167749 714.8972 
L 168.167749 705.458513 
L 162.539237 705.458513 
z
" style="fill:#808080;opacity:0.45;"/>
   </g>
   <g id="patch_20">
    <path clip-path="url(#p6355108988)" d="M 168.167749 714.8972 
L 173.79626 714.8972 
L 173.79626 698.924037 
L 168.167749 698.924037 
z
" style="fill:#808080;opacity:0.45;"/>
   </g>
   <g id="patch_21">
    <path clip-path="url(#p6355108988)" d="M 173.79626 714.8972 
L 179.424772 714.8972 
L 179.424772 692.389561 
L 173.79626 692.389561 
z
" style="fill:#808080;opacity:0.45;"/>
   </g>
   <g id="patch_22">
    <path clip-path="url(#p6355108988)" d="M 179.424772 714.8972 
L 185.053284 714.8972 
L 185.053284 680.772715 
L 179.424772 680.772715 
z
" style="fill:#808080;opacity:0.45;"/>
   </g>
   <g id="patch_23">
    <path clip-path="url(#p6355108988)" d="M 185.053284 714.8972 
L 190.681795 714.8972 
L 190.681795 651.7306 
L 185.053284 651.7306 
z
" style="fill:#808080;opacity:0.45;"/>
   </g>
   <g id="patch_24">
    <path clip-path="url(#p6355108988)" d="M 190.681795 714.8972 
L 196.310307 714.8972 
L 196.310307 627.770855 
L 190.681795 627.770855 
z
" style="fill:#808080;opacity:0.45;"/>
   </g>
   <g id="patch_25">
    <path clip-path="url(#p6355108988)" d="M 196.310307 714.8972 
L 201.938818 714.8972 
L 201.938818 605.263216 
L 196.310307 605.263216 
z
" style="fill:#808080;opacity:0.45;"/>
   </g>
   <g id="patch_26">
    <path clip-path="url(#p6355108988)" d="M 201.938818 714.8972 
L 207.56733 714.8972 
L 207.56733 592.920318 
L 201.938818 592.920318 
z
" style="fill:#808080;opacity:0.45;"/>
   </g>
   <g id="patch_27">
    <path clip-path="url(#p6355108988)" d="M 207.56733 714.8972 
L 213.195841 714.8972 
L 213.195841 566.056361 
L 207.56733 566.056361 
z
" style="fill:#808080;opacity:0.45;"/>
   </g>
   <g id="patch_28">
    <path clip-path="url(#p6355108988)" d="M 213.195841 714.8972 
L 218.824353 714.8972 
L 218.824353 516.684766 
L 213.195841 516.684766 
z
" style="fill:#808080;opacity:0.45;"/>
   </g>
   <g id="patch_29">
    <path clip-path="url(#p6355108988)" d="M 218.824353 714.8972 
L 224.452864 714.8972 
L 224.452864 499.98555 
L 218.824353 499.98555 
z
" style="fill:#808080;opacity:0.45;"/>
   </g>
   <g id="patch_30">
    <path clip-path="url(#p6355108988)" d="M 224.452864 714.8972 
L 230.081376 714.8972 
L 230.081376 443.353426 
L 224.452864 443.353426 
z
" style="fill:#808080;opacity:0.45;"/>
   </g>
   <g id="patch_31">
    <path clip-path="url(#p6355108988)" d="M 230.081376 714.8972 
L 235.709887 714.8972 
L 235.709887 438.997109 
L 230.081376 438.997109 
z
" style="fill:#808080;opacity:0.45;"/>
   </g>
   <g id="patch_32">
    <path clip-path="url(#p6355108988)" d="M 235.709887 714.8972 
L 241.338399 714.8972 
L 241.338399 431.73658 
L 235.709887 431.73658 
z
" style="fill:#808080;opacity:0.45;"/>
   </g>
   <g id="patch_33">
    <path clip-path="url(#p6355108988)" d="M 241.338399 714.8972 
L 246.96691 714.8972 
L 246.96691 444.079479 
L 241.338399 444.079479 
z
" style="fill:#808080;opacity:0.45;"/>
   </g>
   <g id="patch_34">
    <path clip-path="url(#p6355108988)" d="M 246.96691 714.8972 
L 252.595422 714.8972 
L 252.595422 467.313171 
L 246.96691 467.313171 
z
" style="fill:#808080;opacity:0.45;"/>
   </g>
   <g id="patch_35">
    <path clip-path="url(#p6355108988)" d="M 252.595422 714.8972 
L 258.223933 714.8972 
L 258.223933 472.395541 
L 252.595422 472.395541 
z
" style="fill:#808080;opacity:0.45;"/>
   </g>
   <g id="patch_36">
    <path clip-path="url(#p6355108988)" d="M 258.223933 714.8972 
L 263.852445 714.8972 
L 263.852445 484.73844 
L 258.223933 484.73844 
z
" style="fill:#808080;opacity:0.45;"/>
   </g>
   <g id="patch_37">
    <path clip-path="url(#p6355108988)" d="M 263.852445 714.8972 
L 269.480956 714.8972 
L 269.480956 515.958713 
L 263.852445 515.958713 
z
" style="fill:#808080;opacity:0.45;"/>
   </g>
   <g id="patch_38">
    <path clip-path="url(#p6355108988)" d="M 269.480956 714.8972 
L 275.109468 714.8972 
L 275.109468 547.90504 
L 269.480956 547.90504 
z
" style="fill:#808080;opacity:0.45;"/>
   </g>
   <g id="patch_39">
    <path clip-path="url(#p6355108988)" d="M 275.109468 714.8972 
L 280.737979 714.8972 
L 280.737979 592.920318 
L 275.109468 592.920318 
z
" style="fill:#808080;opacity:0.45;"/>
   </g>
   <g id="patch_40">
    <path clip-path="url(#p6355108988)" d="M 280.737979 714.8972 
L 286.366491 714.8972 
L 286.366491 636.48349 
L 280.737979 636.48349 
z
" style="fill:#808080;opacity:0.45;"/>
   </g>
   <g id="patch_41">
    <path clip-path="url(#p6355108988)" d="M 286.366491 714.8972 
L 291.995002 714.8972 
L 291.995002 640.839807 
L 286.366491 640.839807 
z
" style="fill:#808080;opacity:0.45;"/>
   </g>
   <g id="patch_42">
    <path clip-path="url(#p6355108988)" d="M 291.995002 714.8972 
L 297.623514 714.8972 
L 297.623514 668.429816 
L 291.995002 668.429816 
z
" style="fill:#808080;opacity:0.45;"/>
   </g>
   <g id="patch_43">
    <path clip-path="url(#p6355108988)" d="M 297.623514 714.8972 
L 303.252025 714.8972 
L 303.252025 682.224821 
L 297.623514 682.224821 
z
" style="fill:#808080;opacity:0.45;"/>
   </g>
   <g id="patch_44">
    <path clip-path="url(#p6355108988)" d="M 303.252025 714.8972 
L 308.880537 714.8972 
L 308.880537 692.389561 
L 303.252025 692.389561 
z
" style="fill:#808080;opacity:0.45;"/>
   </g>
   <g id="patch_45">
    <path clip-path="url(#p6355108988)" d="M 308.880537 714.8972 
L 314.509048 714.8972 
L 314.509048 704.73246 
L 308.880537 704.73246 
z
" style="fill:#808080;opacity:0.45;"/>
   </g>
   <g id="patch_46">
    <path clip-path="url(#p6355108988)" d="M 314.509048 714.8972 
L 320.13756 714.8972 
L 320.13756 706.910618 
L 314.509048 706.910618 
z
" style="fill:#808080;opacity:0.45;"/>
   </g>
   <g id="patch_47">
    <path clip-path="url(#p6355108988)" d="M 320.13756 714.8972 
L 325.766071 714.8972 
L 325.766071 711.992989 
L 320.13756 711.992989 
z
" style="fill:#808080;opacity:0.45;"/>
   </g>
   <g id="patch_48">
    <path clip-path="url(#p6355108988)" d="M 325.766071 714.8972 
L 331.394583 714.8972 
L 331.394583 713.445094 
L 325.766071 713.445094 
z
" style="fill:#808080;opacity:0.45;"/>
   </g>
   <g id="patch_49">
    <path clip-path="url(#p6355108988)" d="M 331.394583 714.8972 
L 337.023095 714.8972 
L 337.023095 714.171147 
L 331.394583 714.171147 
z
" style="fill:#808080;opacity:0.45;"/>
   </g>
   <g id="patch_50">
    <path clip-path="url(#p6355108988)" d="M 337.023095 714.8972 
L 342.651606 714.8972 
L 342.651606 713.445094 
L 337.023095 713.445094 
z
" style="fill:#808080;opacity:0.45;"/>
   </g>
   <g id="patch_51">
    <path clip-path="url(#p6355108988)" d="M 0 0 
z
" style="fill:#50a2d5;opacity:0.6;"/>
   </g>
   <g id="patch_52">
    <path clip-path="url(#p6355108988)" d="M 0 0 
z
" style="fill:#50a2d5;opacity:0.6;"/>
   </g>
   <g id="patch_53">
    <path clip-path="url(#p6355108988)" d="M 0 0 
z
" style="fill:#50a2d5;opacity:0.6;"/>
   </g>
   <g id="patch_54">
    <path clip-path="url(#p6355108988)" d="M 0 0 
z
" style="fill:#50a2d5;opacity:0.6;"/>
   </g>
   <g id="patch_55">
    <path clip-path="url(#p6355108988)" d="M 0 0 
z
" style="fill:#50a2d5;opacity:0.6;"/>
   </g>
   <g id="patch_56">
    <path clip-path="url(#p6355108988)" d="M 0 0 
z
" style="fill:#50a2d5;opacity:0.6;"/>
   </g>
   <g id="patch_57">
    <path clip-path="url(#p6355108988)" d="M 0 0 
z
" style="fill:#50a2d5;opacity:0.6;"/>
   </g>
   <g id="patch_58">
    <path clip-path="url(#p6355108988)" d="M 0 0 
z
" style="fill:#50a2d5;opacity:0.6;"/>
   </g>
   <g id="patch_59">
    <path clip-path="url(#p6355108988)" d="M 0 0 
z
" style="fill:#50a2d5;opacity:0.6;"/>
   </g>
   <g id="patch_60">
    <path clip-path="url(#p6355108988)" d="M 0 0 
z
" style="fill:#50a2d5;opacity:0.6;"/>
   </g>
   <g id="patch_61">
    <path clip-path="url(#p6355108988)" d="M 0 0 
z
" style="fill:#50a2d5;opacity:0.6;"/>
   </g>
   <g id="patch_62">
    <path clip-path="url(#p6355108988)" d="M 0 0 
z
" style="fill:#50a2d5;opacity:0.6;"/>
   </g>
   <g id="patch_63">
    <path clip-path="url(#p6355108988)" d="M 0 0 
z
" style="fill:#50a2d5;opacity:0.6;"/>
   </g>
   <g id="patch_64">
    <path clip-path="url(#p6355108988)" d="M 0 0 
z
" style="fill:#50a2d5;opacity:0.6;"/>
   </g>
   <g id="patch_65">
    <path clip-path="url(#p6355108988)" d="M 0 0 
z
" style="fill:#50a2d5;opacity:0.6;"/>
   </g>
   <g id="patch_66">
    <path clip-path="url(#p6355108988)" d="M 0 0 
z
" style="fill:#50a2d5;opacity:0.6;"/>
   </g>
   <g id="patch_67">
    <path clip-path="url(#p6355108988)" d="M 0 0 
z
" style="fill:#50a2d5;opacity:0.6;"/>
   </g>
   <g id="patch_68">
    <path clip-path="url(#p6355108988)" d="M 0 0 
z
" style="fill:#50a2d5;opacity:0.6;"/>
   </g>
   <g id="patch_69">
    <path clip-path="url(#p6355108988)" d="M 0 0 
z
" style="fill:#50a2d5;opacity:0.6;"/>
   </g>
   <g id="patch_70">
    <path clip-path="url(#p6355108988)" d="M 0 0 
z
" style="fill:#50a2d5;opacity:0.6;"/>
   </g>
   <g id="patch_71">
    <path clip-path="url(#p6355108988)" d="M 0 0 
z
" style="fill:#50a2d5;opacity:0.6;"/>
   </g>
   <g id="patch_72">
    <path clip-path="url(#p6355108988)" d="M 0 0 
z
" style="fill:#50a2d5;opacity:0.6;"/>
   </g>
   <g id="patch_73">
    <path clip-path="url(#p6355108988)" d="M 0 0 
z
" style="fill:#50a2d5;opacity:0.6;"/>
   </g>
   <g id="patch_74">
    <path clip-path="url(#p6355108988)" d="M 0 0 
z
" style="fill:#50a2d5;opacity:0.6;"/>
   </g>
   <g id="patch_75">
    <path clip-path="url(#p6355108988)" d="M 0 0 
z
" style="fill:#50a2d5;opacity:0.6;"/>
   </g>
   <g id="patch_76">
    <path clip-path="url(#p6355108988)" d="M 0 0 
z
" style="fill:#50a2d5;opacity:0.6;"/>
   </g>
   <g id="patch_77">
    <path clip-path="url(#p6355108988)" d="M 0 0 
z
" style="fill:#50a2d5;opacity:0.6;"/>
   </g>
   <g id="patch_78">
    <path clip-path="url(#p6355108988)" d="M 0 0 
z
" style="fill:#50a2d5;opacity:0.6;"/>
   </g>
   <g id="patch_79">
    <path clip-path="url(#p6355108988)" d="M 0 0 
z
" style="fill:#50a2d5;opacity:0.6;"/>
   </g>
   <g id="patch_80">
    <path clip-path="url(#p6355108988)" d="M 0 0 
z
" style="fill:#50a2d5;opacity:0.6;"/>
   </g>
   <g id="patch_81">
    <path clip-path="url(#p6355108988)" d="M 0 0 
z
" style="fill:#50a2d5;opacity:0.6;"/>
   </g>
   <g id="patch_82">
    <path clip-path="url(#p6355108988)" d="M 0 0 
z
" style="fill:#50a2d5;opacity:0.6;"/>
   </g>
   <g id="patch_83">
    <path clip-path="url(#p6355108988)" d="M 0 0 
z
" style="fill:#50a2d5;opacity:0.6;"/>
   </g>
   <g id="patch_84">
    <path clip-path="url(#p6355108988)" d="M 0 0 
z
" style="fill:#50a2d5;opacity:0.6;"/>
   </g>
   <g id="patch_85">
    <path clip-path="url(#p6355108988)" d="M 0 0 
z
" style="fill:#50a2d5;opacity:0.6;"/>
   </g>
   <g id="patch_86">
    <path clip-path="url(#p6355108988)" d="M 0 0 
z
" style="fill:#50a2d5;opacity:0.6;"/>
   </g>
   <g id="patch_87">
    <path clip-path="url(#p6355108988)" d="M 0 0 
z
" style="fill:#50a2d5;opacity:0.6;"/>
   </g>
   <g id="patch_88">
    <path clip-path="url(#p6355108988)" d="M 0 0 
z
" style="fill:#50a2d5;opacity:0.6;"/>
   </g>
   <g id="patch_89">
    <path clip-path="url(#p6355108988)" d="M 0 0 
z
" style="fill:#50a2d5;opacity:0.6;"/>
   </g>
   <g id="patch_90">
    <path clip-path="url(#p6355108988)" d="M 0 0 
z
" style="fill:#50a2d5;opacity:0.6;"/>
   </g>
   <g id="matplotlib.axis_5">
    <g id="xtick_7">
     <g id="line2d_21">
      <g>
       <use style="stroke:#000000;stroke-width:4;" x="105.957344" xlink:href="#m053b43f9ac" y="714.8972"/>
      </g>
     </g>
     <g id="text_13">
      <!-- -0.5 -->
      <g transform="translate(91.070894 738.7659)scale(0.1728 -0.1728)">
       <use xlink:href="#Arial-BoldMT-45"/>
       <use x="33.300781" xlink:href="#Arial-BoldMT-48"/>
       <use x="88.916016" xlink:href="#Arial-BoldMT-46"/>
       <use x="116.699219" xlink:href="#Arial-BoldMT-53"/>
      </g>
     </g>
    </g>
    <g id="xtick_8">
     <g id="line2d_22">
      <g>
       <use style="stroke:#000000;stroke-width:4;" x="241.317562" xlink:href="#m053b43f9ac" y="714.8972"/>
      </g>
     </g>
     <g id="text_14">
      <!-- 0 -->
      <g transform="translate(236.512912 738.7659)scale(0.1728 -0.1728)">
       <use xlink:href="#Arial-BoldMT-48"/>
      </g>
     </g>
    </g>
    <g id="xtick_9">
     <g id="line2d_23">
      <g>
       <use style="stroke:#000000;stroke-width:4;" x="376.677781" xlink:href="#m053b43f9ac" y="714.8972"/>
      </g>
     </g>
     <g id="text_15">
      <!-- 0.5 -->
      <g transform="translate(364.668181 738.7659)scale(0.1728 -0.1728)">
       <use xlink:href="#Arial-BoldMT-48"/>
       <use x="55.615234" xlink:href="#Arial-BoldMT-46"/>
       <use x="83.398438" xlink:href="#Arial-BoldMT-53"/>
      </g>
     </g>
    </g>
   </g>
   <g id="matplotlib.axis_6">
    <g id="ytick_15">
     <g id="line2d_24">
      <g>
       <use style="stroke:#000000;stroke-width:4;" x="78.8853" xlink:href="#mb8f219fb6f" y="714.8972"/>
      </g>
     </g>
     <g id="text_16">
      <!-- 0 -->
      <g transform="translate(57.776 721.08155)scale(0.1728 -0.1728)">
       <use xlink:href="#Arial-BoldMT-48"/>
      </g>
     </g>
    </g>
    <g id="ytick_16">
     <g id="line2d_25">
      <g>
       <use style="stroke:#000000;stroke-width:4;" x="78.8853" xlink:href="#mb8f219fb6f" y="639.420871"/>
      </g>
     </g>
    </g>
    <g id="ytick_17">
     <g id="line2d_26">
      <g>
       <use style="stroke:#000000;stroke-width:4;" x="78.8853" xlink:href="#mb8f219fb6f" y="563.944542"/>
      </g>
     </g>
     <g id="text_17">
      <!-- 2 -->
      <g transform="translate(57.776 570.128892)scale(0.1728 -0.1728)">
       <use xlink:href="#Arial-BoldMT-50"/>
      </g>
     </g>
    </g>
    <g id="ytick_18">
     <g id="line2d_27">
      <g>
       <use style="stroke:#000000;stroke-width:4;" x="78.8853" xlink:href="#mb8f219fb6f" y="488.468214"/>
      </g>
     </g>
    </g>
    <g id="ytick_19">
     <g id="line2d_28">
      <g>
       <use style="stroke:#000000;stroke-width:4;" x="78.8853" xlink:href="#mb8f219fb6f" y="412.991885"/>
      </g>
     </g>
     <g id="text_18">
      <!-- 4 -->
      <g transform="translate(57.776 419.176235)scale(0.1728 -0.1728)">
       <use xlink:href="#Arial-BoldMT-52"/>
      </g>
     </g>
    </g>
   </g>
   <g id="line2d_29">
    <path clip-path="url(#p6355108988)" d="M 183.556748 714.8972 
L 183.556748 412.991885 
" style="fill:none;stroke:#ff0000;stroke-dasharray:9,6;stroke-dashoffset:0;stroke-width:3;"/>
   </g>
   <g id="line2d_30">
    <path clip-path="url(#p6355108988)" d="M 296.008806 714.8972 
L 296.008806 412.991885 
" style="fill:none;stroke:#ff0000;stroke-dasharray:9,6;stroke-dashoffset:0;stroke-width:3;"/>
   </g>
   <g id="line2d_31">
    <path clip-path="url(#p6355108988)" d="M 318.067167 714.8972 
L 318.067167 412.991885 
" style="fill:none;stroke:#50a2d5;stroke-dasharray:9,6;stroke-dashoffset:0;stroke-opacity:0.8;stroke-width:3;"/>
   </g>
   <g id="line2d_32">
    <path clip-path="url(#p6355108988)" d="M 241.317562 714.8972 
L 241.317562 412.991885 
" style="fill:none;stroke:#000000;stroke-dasharray:9,6;stroke-dashoffset:0;stroke-opacity:0.5;stroke-width:3;"/>
   </g>
   <g id="patch_91">
    <path d="M 78.8853 714.8972 
L 78.8853 412.991885 
" style="fill:none;stroke:#000000;stroke-linecap:square;stroke-linejoin:miter;stroke-width:4;"/>
   </g>
   <g id="patch_92">
    <path d="M 78.8853 714.8972 
L 403.749825 714.8972 
" style="fill:none;stroke:#000000;stroke-linecap:square;stroke-linejoin:miter;stroke-width:4;"/>
   </g>
   <g id="legend_1">
    <g id="patch_93">
     <path d="M 292.341075 485.880635 
L 393.669825 485.880635 
Q 396.549825 485.880635 396.549825 483.000635 
L 396.549825 423.071885 
Q 396.549825 420.191885 393.669825 420.191885 
L 292.341075 420.191885 
Q 289.461075 420.191885 289.461075 423.071885 
L 289.461075 483.000635 
Q 289.461075 485.880635 292.341075 485.880635 
z
" style="fill:#ffffff;opacity:0.8;stroke:#cccccc;stroke-linejoin:miter;stroke-width:5;"/>
    </g>
    <g id="line2d_33">
     <path d="M 295.221075 431.261885 
L 324.021075 431.261885 
" style="fill:none;stroke:#ff0000;stroke-dasharray:9,6;stroke-dashoffset:0;stroke-width:3;"/>
    </g>
    <g id="line2d_34"/>
    <g id="text_19">
     <!-- p2.50 -->
     <g transform="translate(335.541075 436.301885)scale(0.144 -0.144)">
      <defs>
       <path d="M 6.59375 -19.875 
L 6.59375 51.859375 
L 14.59375 51.859375 
L 14.59375 45.125 
Q 17.4375 49.078125 21 51.046875 
Q 24.5625 53.03125 29.640625 53.03125 
Q 36.28125 53.03125 41.359375 49.609375 
Q 46.4375 46.1875 49.015625 39.953125 
Q 51.609375 33.734375 51.609375 26.3125 
Q 51.609375 18.359375 48.75 11.984375 
Q 45.90625 5.609375 40.453125 2.21875 
Q 35.015625 -1.171875 29 -1.171875 
Q 24.609375 -1.171875 21.109375 0.6875 
Q 17.625 2.546875 15.375 5.375 
L 15.375 -19.875 
z
M 14.546875 25.640625 
Q 14.546875 15.625 18.59375 10.84375 
Q 22.65625 6.0625 28.421875 6.0625 
Q 34.28125 6.0625 38.453125 11.015625 
Q 42.625 15.96875 42.625 26.375 
Q 42.625 36.28125 38.546875 41.203125 
Q 34.46875 46.140625 28.8125 46.140625 
Q 23.1875 46.140625 18.859375 40.890625 
Q 14.546875 35.640625 14.546875 25.640625 
z
" id="ArialMT-112"/>
       <path d="M 50.34375 8.453125 
L 50.34375 0 
L 3.03125 0 
Q 2.9375 3.171875 4.046875 6.109375 
Q 5.859375 10.9375 9.828125 15.625 
Q 13.8125 20.3125 21.34375 26.46875 
Q 33.015625 36.03125 37.109375 41.625 
Q 41.21875 47.21875 41.21875 52.203125 
Q 41.21875 57.421875 37.46875 61 
Q 33.734375 64.59375 27.734375 64.59375 
Q 21.390625 64.59375 17.578125 60.78125 
Q 13.765625 56.984375 13.71875 50.25 
L 4.6875 51.171875 
Q 5.609375 61.28125 11.65625 66.578125 
Q 17.71875 71.875 27.9375 71.875 
Q 38.234375 71.875 44.234375 66.15625 
Q 50.25 60.453125 50.25 52 
Q 50.25 47.703125 48.484375 43.546875 
Q 46.734375 39.40625 42.65625 34.8125 
Q 38.578125 30.21875 29.109375 22.21875 
Q 21.1875 15.578125 18.9375 13.203125 
Q 16.703125 10.84375 15.234375 8.453125 
z
" id="ArialMT-50"/>
       <path d="M 4.15625 18.75 
L 13.375 19.53125 
Q 14.40625 12.796875 18.140625 9.390625 
Q 21.875 6 27.15625 6 
Q 33.5 6 37.890625 10.78125 
Q 42.28125 15.578125 42.28125 23.484375 
Q 42.28125 31 38.0625 35.34375 
Q 33.84375 39.703125 27 39.703125 
Q 22.75 39.703125 19.328125 37.765625 
Q 15.921875 35.84375 13.96875 32.765625 
L 5.71875 33.84375 
L 12.640625 70.609375 
L 48.25 70.609375 
L 48.25 62.203125 
L 19.671875 62.203125 
L 15.828125 42.96875 
Q 22.265625 47.46875 29.34375 47.46875 
Q 38.71875 47.46875 45.15625 40.96875 
Q 51.609375 34.46875 51.609375 24.265625 
Q 51.609375 14.546875 45.953125 7.46875 
Q 39.0625 -1.21875 27.15625 -1.21875 
Q 17.390625 -1.21875 11.203125 4.25 
Q 5.03125 9.71875 4.15625 18.75 
z
" id="ArialMT-53"/>
       <path d="M 4.15625 35.296875 
Q 4.15625 48 6.765625 55.734375 
Q 9.375 63.484375 14.515625 67.671875 
Q 19.671875 71.875 27.484375 71.875 
Q 33.25 71.875 37.59375 69.546875 
Q 41.9375 67.234375 44.765625 62.859375 
Q 47.609375 58.5 49.21875 52.21875 
Q 50.828125 45.953125 50.828125 35.296875 
Q 50.828125 22.703125 48.234375 14.96875 
Q 45.65625 7.234375 40.5 3 
Q 35.359375 -1.21875 27.484375 -1.21875 
Q 17.140625 -1.21875 11.234375 6.203125 
Q 4.15625 15.140625 4.15625 35.296875 
z
M 13.1875 35.296875 
Q 13.1875 17.671875 17.3125 11.828125 
Q 21.4375 6 27.484375 6 
Q 33.546875 6 37.671875 11.859375 
Q 41.796875 17.71875 41.796875 35.296875 
Q 41.796875 52.984375 37.671875 58.78125 
Q 33.546875 64.59375 27.390625 64.59375 
Q 21.34375 64.59375 17.71875 59.46875 
Q 13.1875 52.9375 13.1875 35.296875 
z
" id="ArialMT-48"/>
      </defs>
      <use xlink:href="#ArialMT-112"/>
      <use x="55.615234" xlink:href="#ArialMT-50"/>
      <use x="111.230469" xlink:href="#ArialMT-46"/>
      <use x="139.013672" xlink:href="#ArialMT-53"/>
      <use x="194.628906" xlink:href="#ArialMT-48"/>
     </g>
    </g>
    <g id="line2d_35">
     <path d="M 295.221075 451.673885 
L 324.021075 451.673885 
" style="fill:none;stroke:#ff0000;stroke-dasharray:9,6;stroke-dashoffset:0;stroke-width:3;"/>
    </g>
    <g id="line2d_36"/>
    <g id="text_20">
     <!-- p97.50 -->
     <g transform="translate(335.541075 456.713885)scale(0.144 -0.144)">
      <defs>
       <path d="M 5.46875 16.546875 
L 13.921875 17.328125 
Q 14.984375 11.375 18.015625 8.6875 
Q 21.046875 6 25.78125 6 
Q 29.828125 6 32.875 7.859375 
Q 35.9375 9.71875 37.890625 12.8125 
Q 39.84375 15.921875 41.15625 21.1875 
Q 42.484375 26.46875 42.484375 31.9375 
Q 42.484375 32.515625 42.4375 33.6875 
Q 39.796875 29.5 35.234375 26.875 
Q 30.671875 24.265625 25.34375 24.265625 
Q 16.453125 24.265625 10.296875 30.703125 
Q 4.15625 37.15625 4.15625 47.703125 
Q 4.15625 58.59375 10.578125 65.234375 
Q 17 71.875 26.65625 71.875 
Q 33.640625 71.875 39.421875 68.109375 
Q 45.21875 64.359375 48.21875 57.390625 
Q 51.21875 50.4375 51.21875 37.25 
Q 51.21875 23.53125 48.234375 15.40625 
Q 45.265625 7.28125 39.375 3.03125 
Q 33.5 -1.21875 25.59375 -1.21875 
Q 17.1875 -1.21875 11.859375 3.4375 
Q 6.546875 8.109375 5.46875 16.546875 
z
M 41.453125 48.140625 
Q 41.453125 55.71875 37.421875 60.15625 
Q 33.40625 64.59375 27.734375 64.59375 
Q 21.875 64.59375 17.53125 59.8125 
Q 13.1875 55.03125 13.1875 47.40625 
Q 13.1875 40.578125 17.3125 36.296875 
Q 21.4375 32.03125 27.484375 32.03125 
Q 33.59375 32.03125 37.515625 36.296875 
Q 41.453125 40.578125 41.453125 48.140625 
z
" id="ArialMT-57"/>
       <path d="M 4.734375 62.203125 
L 4.734375 70.65625 
L 51.078125 70.65625 
L 51.078125 63.8125 
Q 44.234375 56.546875 37.515625 44.484375 
Q 30.8125 32.421875 27.15625 19.671875 
Q 24.515625 10.6875 23.78125 0 
L 14.75 0 
Q 14.890625 8.453125 18.0625 20.40625 
Q 21.234375 32.375 27.171875 43.484375 
Q 33.109375 54.59375 39.796875 62.203125 
z
" id="ArialMT-55"/>
      </defs>
      <use xlink:href="#ArialMT-112"/>
      <use x="55.615234" xlink:href="#ArialMT-57"/>
      <use x="111.230469" xlink:href="#ArialMT-55"/>
      <use x="166.845703" xlink:href="#ArialMT-46"/>
      <use x="194.628906" xlink:href="#ArialMT-53"/>
      <use x="250.244141" xlink:href="#ArialMT-48"/>
     </g>
    </g>
    <g id="line2d_37">
     <path d="M 295.221075 472.218635 
L 324.021075 472.218635 
" style="fill:none;stroke:#50a2d5;stroke-dasharray:9,6;stroke-dashoffset:0;stroke-opacity:0.8;stroke-width:3;"/>
    </g>
    <g id="line2d_38"/>
    <g id="text_21">
     <!-- p99.80** -->
     <g transform="translate(335.541075 477.258635)scale(0.144 -0.144)">
      <defs>
       <path d="M 17.671875 38.8125 
Q 12.203125 40.828125 9.5625 44.53125 
Q 6.9375 48.25 6.9375 53.421875 
Q 6.9375 61.234375 12.546875 66.546875 
Q 18.171875 71.875 27.484375 71.875 
Q 36.859375 71.875 42.578125 66.421875 
Q 48.296875 60.984375 48.296875 53.171875 
Q 48.296875 48.1875 45.671875 44.5 
Q 43.0625 40.828125 37.75 38.8125 
Q 44.34375 36.671875 47.78125 31.875 
Q 51.21875 27.09375 51.21875 20.453125 
Q 51.21875 11.28125 44.71875 5.03125 
Q 38.234375 -1.21875 27.640625 -1.21875 
Q 17.046875 -1.21875 10.546875 5.046875 
Q 4.046875 11.328125 4.046875 20.703125 
Q 4.046875 27.6875 7.59375 32.390625 
Q 11.140625 37.109375 17.671875 38.8125 
z
M 15.921875 53.71875 
Q 15.921875 48.640625 19.1875 45.40625 
Q 22.46875 42.1875 27.6875 42.1875 
Q 32.765625 42.1875 36.015625 45.375 
Q 39.265625 48.578125 39.265625 53.21875 
Q 39.265625 58.0625 35.90625 61.359375 
Q 32.5625 64.65625 27.59375 64.65625 
Q 22.5625 64.65625 19.234375 61.421875 
Q 15.921875 58.203125 15.921875 53.71875 
z
M 13.09375 20.65625 
Q 13.09375 16.890625 14.875 13.375 
Q 16.65625 9.859375 20.171875 7.921875 
Q 23.6875 6 27.734375 6 
Q 34.03125 6 38.125 10.046875 
Q 42.234375 14.109375 42.234375 20.359375 
Q 42.234375 26.703125 38.015625 30.859375 
Q 33.796875 35.015625 27.4375 35.015625 
Q 21.234375 35.015625 17.15625 30.90625 
Q 13.09375 26.8125 13.09375 20.65625 
z
" id="ArialMT-56"/>
       <path d="M 3.125 58.453125 
L 5.375 65.375 
Q 13.140625 62.640625 16.65625 60.640625 
Q 15.71875 69.484375 15.671875 72.796875 
L 22.75 72.796875 
Q 22.609375 67.96875 21.625 60.6875 
Q 26.65625 63.234375 33.15625 65.375 
L 35.40625 58.453125 
Q 29.203125 56.390625 23.25 55.71875 
Q 26.21875 53.125 31.640625 46.484375 
L 25.78125 42.328125 
Q 22.953125 46.1875 19.09375 52.828125 
Q 15.484375 45.953125 12.75 42.328125 
L 6.984375 46.484375 
Q 12.640625 53.46875 15.09375 55.71875 
Q 8.796875 56.9375 3.125 58.453125 
z
" id="ArialMT-42"/>
      </defs>
      <use xlink:href="#ArialMT-112"/>
      <use x="55.615234" xlink:href="#ArialMT-57"/>
      <use x="111.230469" xlink:href="#ArialMT-57"/>
      <use x="166.845703" xlink:href="#ArialMT-46"/>
      <use x="194.628906" xlink:href="#ArialMT-56"/>
      <use x="250.244141" xlink:href="#ArialMT-48"/>
      <use x="305.859375" xlink:href="#ArialMT-42"/>
      <use x="344.775391" xlink:href="#ArialMT-42"/>
     </g>
    </g>
   </g>
  </g>
  <g id="axes_4">
   <g id="patch_94">
    <path d="M 443.605875 714.8972 
L 768.4704 714.8972 
L 768.4704 412.991885 
L 443.605875 412.991885 
z
" style="fill:#ffffff;"/>
   </g>
   <g id="matplotlib.axis_7">
    <g id="xtick_10">
     <g id="line2d_39">
      <g>
       <use style="stroke:#000000;stroke-width:4;" x="443.605875" xlink:href="#m053b43f9ac" y="714.8972"/>
      </g>
     </g>
     <g id="text_22">
      <!-- -0.5 -->
      <g transform="translate(428.719425 738.7659)scale(0.1728 -0.1728)">
       <use xlink:href="#Arial-BoldMT-45"/>
       <use x="33.300781" xlink:href="#Arial-BoldMT-48"/>
       <use x="88.916016" xlink:href="#Arial-BoldMT-46"/>
       <use x="116.699219" xlink:href="#Arial-BoldMT-53"/>
      </g>
     </g>
    </g>
    <g id="xtick_11">
     <g id="line2d_40">
      <g>
       <use style="stroke:#000000;stroke-width:4;" x="606.038137" xlink:href="#m053b43f9ac" y="714.8972"/>
      </g>
     </g>
     <g id="text_23">
      <!-- 0 -->
      <g transform="translate(601.233487 738.7659)scale(0.1728 -0.1728)">
       <use xlink:href="#Arial-BoldMT-48"/>
      </g>
     </g>
    </g>
    <g id="xtick_12">
     <g id="line2d_41">
      <g>
       <use style="stroke:#000000;stroke-width:4;" x="768.4704" xlink:href="#m053b43f9ac" y="714.8972"/>
      </g>
     </g>
     <g id="text_24">
      <!-- 0.5 -->
      <g transform="translate(756.4608 738.7659)scale(0.1728 -0.1728)">
       <use xlink:href="#Arial-BoldMT-48"/>
       <use x="55.615234" xlink:href="#Arial-BoldMT-46"/>
       <use x="83.398438" xlink:href="#Arial-BoldMT-53"/>
      </g>
     </g>
    </g>
   </g>
   <g id="matplotlib.axis_8">
    <g id="ytick_20">
     <g id="line2d_42">
      <g>
       <use style="stroke:#000000;stroke-width:4;" x="443.605875" xlink:href="#mb8f219fb6f" y="714.8972"/>
      </g>
     </g>
    </g>
    <g id="ytick_21">
     <g id="line2d_43">
      <g>
       <use style="stroke:#000000;stroke-width:4;" x="443.605875" xlink:href="#mb8f219fb6f" y="639.420871"/>
      </g>
     </g>
    </g>
    <g id="ytick_22">
     <g id="line2d_44">
      <g>
       <use style="stroke:#000000;stroke-width:4;" x="443.605875" xlink:href="#mb8f219fb6f" y="563.944542"/>
      </g>
     </g>
    </g>
    <g id="ytick_23">
     <g id="line2d_45">
      <g>
       <use style="stroke:#000000;stroke-width:4;" x="443.605875" xlink:href="#mb8f219fb6f" y="488.468214"/>
      </g>
     </g>
    </g>
    <g id="ytick_24">
     <g id="line2d_46">
      <g>
       <use style="stroke:#000000;stroke-width:4;" x="443.605875" xlink:href="#mb8f219fb6f" y="412.991885"/>
      </g>
     </g>
    </g>
   </g>
   <g id="patch_95">
    <path d="M 443.605875 714.8972 
L 443.605875 412.991885 
" style="fill:none;stroke:#000000;stroke-linecap:square;stroke-linejoin:miter;stroke-width:4;"/>
   </g>
   <g id="patch_96">
    <path d="M 443.605875 714.8972 
L 768.4704 714.8972 
" style="fill:none;stroke:#000000;stroke-linecap:square;stroke-linejoin:miter;stroke-width:4;"/>
   </g>
  </g>
  <g id="text_25">
   <!-- Gabor sequences: example sig. ROI -->
   <g transform="translate(246.4389 19.7793)scale(0.1728 -0.1728)">
    <defs>
     <path d="M 40.578125 26.3125 
L 40.578125 38.375 
L 71.734375 38.375 
L 71.734375 9.859375 
Q 67.1875 5.46875 58.5625 2.125 
Q 49.953125 -1.21875 41.109375 -1.21875 
Q 29.890625 -1.21875 21.53125 3.484375 
Q 13.1875 8.203125 8.984375 16.96875 
Q 4.78125 25.734375 4.78125 36.03125 
Q 4.78125 47.21875 9.46875 55.90625 
Q 14.15625 64.59375 23.1875 69.234375 
Q 30.078125 72.796875 40.328125 72.796875 
Q 53.65625 72.796875 61.15625 67.203125 
Q 68.65625 61.625 70.796875 51.765625 
L 56.453125 49.078125 
Q 54.9375 54.34375 50.75 57.390625 
Q 46.578125 60.453125 40.328125 60.453125 
Q 30.859375 60.453125 25.265625 54.4375 
Q 19.671875 48.4375 19.671875 36.625 
Q 19.671875 23.875 25.328125 17.5 
Q 31 11.140625 40.1875 11.140625 
Q 44.734375 11.140625 49.296875 12.921875 
Q 53.859375 14.703125 57.125 17.234375 
L 57.125 26.3125 
z
" id="Arial-BoldMT-71"/>
     <path d="M 17.4375 36.03125 
L 4.984375 38.28125 
Q 7.078125 45.796875 12.203125 49.40625 
Q 17.328125 53.03125 27.4375 53.03125 
Q 36.625 53.03125 41.109375 50.859375 
Q 45.609375 48.6875 47.4375 45.34375 
Q 49.265625 42 49.265625 33.0625 
L 49.125 17.046875 
Q 49.125 10.203125 49.78125 6.953125 
Q 50.4375 3.71875 52.25 0 
L 38.671875 0 
Q 38.140625 1.375 37.359375 4.046875 
Q 37.015625 5.28125 36.859375 5.671875 
Q 33.34375 2.25 29.34375 0.53125 
Q 25.34375 -1.171875 20.796875 -1.171875 
Q 12.796875 -1.171875 8.171875 3.171875 
Q 3.5625 7.515625 3.5625 14.15625 
Q 3.5625 18.5625 5.65625 22 
Q 7.765625 25.4375 11.546875 27.265625 
Q 15.328125 29.109375 22.46875 30.46875 
Q 32.078125 32.28125 35.796875 33.84375 
L 35.796875 35.203125 
Q 35.796875 39.15625 33.84375 40.84375 
Q 31.890625 42.53125 26.46875 42.53125 
Q 22.796875 42.53125 20.75 41.09375 
Q 18.703125 39.65625 17.4375 36.03125 
z
M 35.796875 24.90625 
Q 33.15625 24.03125 27.4375 22.796875 
Q 21.734375 21.578125 19.96875 20.40625 
Q 17.28125 18.5 17.28125 15.578125 
Q 17.28125 12.703125 19.421875 10.59375 
Q 21.578125 8.5 24.90625 8.5 
Q 28.609375 8.5 31.984375 10.9375 
Q 34.46875 12.796875 35.25 15.484375 
Q 35.796875 17.234375 35.796875 22.171875 
z
" id="Arial-BoldMT-97"/>
     <path d="M 6.59375 0 
L 6.59375 71.578125 
L 20.3125 71.578125 
L 20.3125 45.796875 
Q 26.65625 53.03125 35.359375 53.03125 
Q 44.828125 53.03125 51.03125 46.171875 
Q 57.234375 39.3125 57.234375 26.46875 
Q 57.234375 13.1875 50.90625 6 
Q 44.578125 -1.171875 35.546875 -1.171875 
Q 31.109375 -1.171875 26.78125 1.046875 
Q 22.46875 3.265625 19.34375 7.625 
L 19.34375 0 
z
M 20.21875 27.046875 
Q 20.21875 19 22.75 15.140625 
Q 26.3125 9.671875 32.234375 9.671875 
Q 36.765625 9.671875 39.96875 13.546875 
Q 43.171875 17.4375 43.171875 25.78125 
Q 43.171875 34.671875 39.9375 38.59375 
Q 36.71875 42.53125 31.6875 42.53125 
Q 26.765625 42.53125 23.484375 38.6875 
Q 20.21875 34.859375 20.21875 27.046875 
z
" id="Arial-BoldMT-98"/>
     <path d="M 4 26.65625 
Q 4 33.5 7.375 39.890625 
Q 10.75 46.296875 16.921875 49.65625 
Q 23.09375 53.03125 30.71875 53.03125 
Q 42.484375 53.03125 50 45.390625 
Q 57.515625 37.75 57.515625 26.078125 
Q 57.515625 14.3125 49.921875 6.5625 
Q 42.328125 -1.171875 30.8125 -1.171875 
Q 23.6875 -1.171875 17.21875 2.046875 
Q 10.75 5.28125 7.375 11.5 
Q 4 17.71875 4 26.65625 
z
M 18.0625 25.921875 
Q 18.0625 18.21875 21.71875 14.109375 
Q 25.390625 10.015625 30.765625 10.015625 
Q 36.140625 10.015625 39.765625 14.109375 
Q 43.40625 18.21875 43.40625 26.03125 
Q 43.40625 33.640625 39.765625 37.734375 
Q 36.140625 41.84375 30.765625 41.84375 
Q 25.390625 41.84375 21.71875 37.734375 
Q 18.0625 33.640625 18.0625 25.921875 
z
" id="Arial-BoldMT-111"/>
     <path d="M 2.34375 14.796875 
L 16.109375 16.890625 
Q 17 12.890625 19.671875 10.8125 
Q 22.359375 8.734375 27.203125 8.734375 
Q 32.515625 8.734375 35.203125 10.6875 
Q 37.015625 12.0625 37.015625 14.359375 
Q 37.015625 15.921875 36.03125 16.9375 
Q 35.015625 17.921875 31.453125 18.75 
Q 14.84375 22.40625 10.40625 25.4375 
Q 4.25 29.640625 4.25 37.109375 
Q 4.25 43.84375 9.5625 48.4375 
Q 14.890625 53.03125 26.078125 53.03125 
Q 36.71875 53.03125 41.890625 49.5625 
Q 47.078125 46.09375 49.03125 39.3125 
L 36.078125 36.921875 
Q 35.25 39.9375 32.921875 41.546875 
Q 30.609375 43.171875 26.3125 43.171875 
Q 20.90625 43.171875 18.5625 41.65625 
Q 17 40.578125 17 38.875 
Q 17 37.40625 18.359375 36.375 
Q 20.21875 35.015625 31.171875 32.515625 
Q 42.140625 30.03125 46.484375 26.421875 
Q 50.78125 22.75 50.78125 16.21875 
Q 50.78125 9.078125 44.828125 3.953125 
Q 38.875 -1.171875 27.203125 -1.171875 
Q 16.609375 -1.171875 10.421875 3.125 
Q 4.25 7.421875 2.34375 14.796875 
z
" id="Arial-BoldMT-115"/>
     <path d="M 37.203125 16.5 
L 50.875 14.203125 
Q 48.25 6.6875 42.546875 2.75 
Q 36.859375 -1.171875 28.328125 -1.171875 
Q 14.796875 -1.171875 8.296875 7.671875 
Q 3.171875 14.75 3.171875 25.53125 
Q 3.171875 38.421875 9.90625 45.71875 
Q 16.65625 53.03125 26.953125 53.03125 
Q 38.53125 53.03125 45.21875 45.390625 
Q 51.90625 37.75 51.609375 21.96875 
L 17.234375 21.96875 
Q 17.390625 15.875 20.5625 12.46875 
Q 23.734375 9.078125 28.46875 9.078125 
Q 31.6875 9.078125 33.875 10.828125 
Q 36.078125 12.59375 37.203125 16.5 
z
M 37.984375 30.375 
Q 37.84375 36.328125 34.90625 39.421875 
Q 31.984375 42.53125 27.78125 42.53125 
Q 23.296875 42.53125 20.359375 39.265625 
Q 17.4375 35.984375 17.484375 30.375 
z
" id="Arial-BoldMT-101"/>
     <path d="M 41.0625 -19.734375 
L 41.0625 6.34375 
Q 38.375 2.875 34.375 0.84375 
Q 30.375 -1.171875 25.734375 -1.171875 
Q 16.890625 -1.171875 11.1875 5.46875 
Q 4.4375 13.234375 4.4375 26.515625 
Q 4.4375 39.015625 10.765625 46.015625 
Q 17.09375 53.03125 26.46875 53.03125 
Q 31.640625 53.03125 35.421875 50.828125 
Q 39.203125 48.640625 42.140625 44.1875 
L 42.140625 51.859375 
L 54.78125 51.859375 
L 54.78125 -19.734375 
z
M 41.5 26.5625 
Q 41.5 34.515625 38.25 38.390625 
Q 35.015625 42.28125 30.125 42.28125 
Q 25.140625 42.28125 21.796875 38.328125 
Q 18.453125 34.375 18.453125 25.78125 
Q 18.453125 17.234375 21.671875 13.453125 
Q 24.90625 9.671875 29.640625 9.671875 
Q 34.375 9.671875 37.9375 13.921875 
Q 41.5 18.171875 41.5 26.5625 
z
" id="Arial-BoldMT-113"/>
     <path d="M 41.3125 0 
L 41.3125 7.765625 
Q 38.484375 3.609375 33.859375 1.21875 
Q 29.25 -1.171875 24.125 -1.171875 
Q 18.890625 -1.171875 14.734375 1.125 
Q 10.59375 3.421875 8.734375 7.5625 
Q 6.890625 11.71875 6.890625 19.046875 
L 6.890625 51.859375 
L 20.609375 51.859375 
L 20.609375 28.03125 
Q 20.609375 17.09375 21.359375 14.625 
Q 22.125 12.15625 24.125 10.71875 
Q 26.125 9.28125 29.203125 9.28125 
Q 32.71875 9.28125 35.5 11.203125 
Q 38.28125 13.140625 39.296875 15.984375 
Q 40.328125 18.84375 40.328125 29.984375 
L 40.328125 51.859375 
L 54.046875 51.859375 
L 54.046875 0 
z
" id="Arial-BoldMT-117"/>
     <path d="M 54.34375 0 
L 40.625 0 
L 40.625 26.46875 
Q 40.625 34.859375 39.75 37.328125 
Q 38.875 39.796875 36.890625 41.15625 
Q 34.90625 42.53125 32.125 42.53125 
Q 28.5625 42.53125 25.734375 40.578125 
Q 22.90625 38.625 21.84375 35.390625 
Q 20.796875 32.171875 20.796875 23.484375 
L 20.796875 0 
L 7.078125 0 
L 7.078125 51.859375 
L 19.828125 51.859375 
L 19.828125 44.234375 
Q 26.609375 53.03125 36.921875 53.03125 
Q 41.453125 53.03125 45.203125 51.390625 
Q 48.96875 49.75 50.890625 47.203125 
Q 52.828125 44.671875 53.578125 41.453125 
Q 54.34375 38.234375 54.34375 32.234375 
z
" id="Arial-BoldMT-110"/>
     <path d="M 52.390625 36.53125 
L 38.875 34.078125 
Q 38.1875 38.140625 35.765625 40.1875 
Q 33.34375 42.234375 29.5 42.234375 
Q 24.359375 42.234375 21.3125 38.6875 
Q 18.265625 35.15625 18.265625 26.859375 
Q 18.265625 17.625 21.359375 13.8125 
Q 24.46875 10.015625 29.6875 10.015625 
Q 33.59375 10.015625 36.078125 12.234375 
Q 38.578125 14.453125 39.59375 19.875 
L 53.078125 17.578125 
Q 50.984375 8.296875 45.015625 3.5625 
Q 39.0625 -1.171875 29.046875 -1.171875 
Q 17.671875 -1.171875 10.90625 6 
Q 4.15625 13.1875 4.15625 25.875 
Q 4.15625 38.71875 10.9375 45.875 
Q 17.71875 53.03125 29.296875 53.03125 
Q 38.765625 53.03125 44.359375 48.953125 
Q 49.953125 44.875 52.390625 36.53125 
z
" id="Arial-BoldMT-99"/>
     <path d="M 9.8125 38.140625 
L 9.8125 51.859375 
L 23.53125 51.859375 
L 23.53125 38.140625 
z
M 9.8125 0 
L 9.8125 13.71875 
L 23.53125 13.71875 
L 23.53125 0 
z
" id="Arial-BoldMT-58"/>
     <path d="M 0.59375 0 
L 19.28125 26.703125 
L 1.375 51.859375 
L 18.109375 51.859375 
L 27.296875 37.59375 
L 36.96875 51.859375 
L 53.078125 51.859375 
L 35.5 27.296875 
L 54.6875 0 
L 37.84375 0 
L 27.296875 16.0625 
L 16.65625 0 
z
" id="Arial-BoldMT-120"/>
     <path d="M 6.15625 51.859375 
L 18.796875 51.859375 
L 18.796875 44.78125 
Q 25.59375 53.03125 34.96875 53.03125 
Q 39.9375 53.03125 43.59375 50.96875 
Q 47.265625 48.921875 49.609375 44.78125 
Q 53.03125 48.921875 56.984375 50.96875 
Q 60.9375 53.03125 65.4375 53.03125 
Q 71.140625 53.03125 75.09375 50.703125 
Q 79.046875 48.390625 81 43.890625 
Q 82.421875 40.578125 82.421875 33.15625 
L 82.421875 0 
L 68.703125 0 
L 68.703125 29.640625 
Q 68.703125 37.359375 67.28125 39.59375 
Q 65.375 42.53125 61.421875 42.53125 
Q 58.546875 42.53125 56 40.765625 
Q 53.46875 39.015625 52.34375 35.625 
Q 51.21875 32.234375 51.21875 24.90625 
L 51.21875 0 
L 37.5 0 
L 37.5 28.421875 
Q 37.5 35.984375 36.765625 38.171875 
Q 36.03125 40.375 34.484375 41.453125 
Q 32.953125 42.53125 30.328125 42.53125 
Q 27.15625 42.53125 24.609375 40.8125 
Q 22.078125 39.109375 20.96875 35.890625 
Q 19.875 32.671875 19.875 25.203125 
L 19.875 0 
L 6.15625 0 
z
" id="Arial-BoldMT-109"/>
     <path d="M 6.78125 51.859375 
L 19.578125 51.859375 
L 19.578125 44.234375 
Q 22.078125 48.140625 26.3125 50.578125 
Q 30.5625 53.03125 35.75 53.03125 
Q 44.78125 53.03125 51.078125 45.953125 
Q 57.375 38.875 57.375 26.21875 
Q 57.375 13.234375 51.015625 6.03125 
Q 44.671875 -1.171875 35.640625 -1.171875 
Q 31.34375 -1.171875 27.84375 0.53125 
Q 24.359375 2.25 20.515625 6.390625 
L 20.515625 -19.734375 
L 6.78125 -19.734375 
z
M 20.359375 26.8125 
Q 20.359375 18.0625 23.828125 13.890625 
Q 27.296875 9.71875 32.28125 9.71875 
Q 37.0625 9.71875 40.234375 13.546875 
Q 43.40625 17.390625 43.40625 26.125 
Q 43.40625 34.28125 40.125 38.234375 
Q 36.859375 42.1875 32.03125 42.1875 
Q 27 42.1875 23.671875 38.296875 
Q 20.359375 34.421875 20.359375 26.8125 
z
" id="Arial-BoldMT-112"/>
     <path d="M 7.171875 0 
L 7.171875 71.578125 
L 20.90625 71.578125 
L 20.90625 0 
z
" id="Arial-BoldMT-108"/>
     <path d="M 7.171875 58.890625 
L 7.171875 71.578125 
L 20.90625 71.578125 
L 20.90625 58.890625 
z
M 7.171875 0 
L 7.171875 51.859375 
L 20.90625 51.859375 
L 20.90625 0 
z
" id="Arial-BoldMT-105"/>
     <path d="M 5.90625 -3.421875 
L 21.578125 -5.328125 
Q 21.96875 -8.0625 23.390625 -9.078125 
Q 25.34375 -10.546875 29.546875 -10.546875 
Q 34.90625 -10.546875 37.59375 -8.9375 
Q 39.40625 -7.859375 40.328125 -5.46875 
Q 40.96875 -3.765625 40.96875 0.828125 
L 40.96875 8.40625 
Q 34.8125 0 25.4375 0 
Q 14.984375 0 8.890625 8.84375 
Q 4.109375 15.828125 4.109375 26.21875 
Q 4.109375 39.265625 10.375 46.140625 
Q 16.65625 53.03125 25.984375 53.03125 
Q 35.59375 53.03125 41.84375 44.578125 
L 41.84375 51.859375 
L 54.6875 51.859375 
L 54.6875 5.328125 
Q 54.6875 -3.859375 53.171875 -8.390625 
Q 51.65625 -12.9375 48.921875 -15.515625 
Q 46.1875 -18.109375 41.625 -19.578125 
Q 37.0625 -21.046875 30.078125 -21.046875 
Q 16.890625 -21.046875 11.375 -16.53125 
Q 5.859375 -12.015625 5.859375 -5.078125 
Q 5.859375 -4.390625 5.90625 -3.421875 
z
M 18.171875 27 
Q 18.171875 18.75 21.359375 14.90625 
Q 24.5625 11.078125 29.25 11.078125 
Q 34.28125 11.078125 37.75 15.015625 
Q 41.21875 18.953125 41.21875 26.65625 
Q 41.21875 34.71875 37.890625 38.625 
Q 34.578125 42.53125 29.5 42.53125 
Q 24.5625 42.53125 21.359375 38.6875 
Q 18.171875 34.859375 18.171875 27 
z
" id="Arial-BoldMT-103"/>
     <path d="M 7.328125 0 
L 7.328125 71.578125 
L 37.75 71.578125 
Q 49.21875 71.578125 54.421875 69.640625 
Q 59.625 67.71875 62.75 62.78125 
Q 65.875 57.859375 65.875 51.515625 
Q 65.875 43.453125 61.125 38.203125 
Q 56.390625 32.953125 46.96875 31.59375 
Q 51.65625 28.859375 54.703125 25.578125 
Q 57.765625 22.3125 62.9375 13.96875 
L 71.6875 0 
L 54.390625 0 
L 43.953125 15.578125 
Q 38.375 23.921875 36.328125 26.09375 
Q 34.28125 28.265625 31.984375 29.078125 
Q 29.6875 29.890625 24.703125 29.890625 
L 21.78125 29.890625 
L 21.78125 0 
z
M 21.78125 41.3125 
L 32.46875 41.3125 
Q 42.875 41.3125 45.453125 42.1875 
Q 48.046875 43.0625 49.515625 45.203125 
Q 50.984375 47.359375 50.984375 50.59375 
Q 50.984375 54.203125 49.046875 56.421875 
Q 47.125 58.640625 43.609375 59.234375 
Q 41.84375 59.46875 33.0625 59.46875 
L 21.78125 59.46875 
z
" id="Arial-BoldMT-82"/>
     <path d="M 4.34375 35.359375 
Q 4.34375 46.296875 7.625 53.71875 
Q 10.0625 59.1875 14.28125 63.53125 
Q 18.5 67.875 23.53125 69.96875 
Q 30.21875 72.796875 38.96875 72.796875 
Q 54.78125 72.796875 64.28125 62.984375 
Q 73.78125 53.171875 73.78125 35.6875 
Q 73.78125 18.359375 64.359375 8.5625 
Q 54.9375 -1.21875 39.15625 -1.21875 
Q 23.1875 -1.21875 13.765625 8.515625 
Q 4.34375 18.265625 4.34375 35.359375 
z
M 19.234375 35.84375 
Q 19.234375 23.6875 24.84375 17.40625 
Q 30.46875 11.140625 39.109375 11.140625 
Q 47.75 11.140625 53.296875 17.359375 
Q 58.84375 23.578125 58.84375 36.03125 
Q 58.84375 48.34375 53.4375 54.390625 
Q 48.046875 60.453125 39.109375 60.453125 
Q 30.171875 60.453125 24.703125 54.3125 
Q 19.234375 48.1875 19.234375 35.84375 
z
" id="Arial-BoldMT-79"/>
     <path d="M 6.84375 0 
L 6.84375 71.578125 
L 21.296875 71.578125 
L 21.296875 0 
z
" id="Arial-BoldMT-73"/>
    </defs>
    <use xlink:href="#Arial-BoldMT-71"/>
    <use x="77.783203" xlink:href="#Arial-BoldMT-97"/>
    <use x="133.398438" xlink:href="#Arial-BoldMT-98"/>
    <use x="194.482422" xlink:href="#Arial-BoldMT-111"/>
    <use x="255.566406" xlink:href="#Arial-BoldMT-114"/>
    <use x="294.482422" xlink:href="#Arial-BoldMT-32"/>
    <use x="322.265625" xlink:href="#Arial-BoldMT-115"/>
    <use x="377.880859" xlink:href="#Arial-BoldMT-101"/>
    <use x="433.496094" xlink:href="#Arial-BoldMT-113"/>
    <use x="494.580078" xlink:href="#Arial-BoldMT-117"/>
    <use x="555.664062" xlink:href="#Arial-BoldMT-101"/>
    <use x="611.279297" xlink:href="#Arial-BoldMT-110"/>
    <use x="672.363281" xlink:href="#Arial-BoldMT-99"/>
    <use x="727.978516" xlink:href="#Arial-BoldMT-101"/>
    <use x="783.59375" xlink:href="#Arial-BoldMT-115"/>
    <use x="839.208984" xlink:href="#Arial-BoldMT-58"/>
    <use x="872.509766" xlink:href="#Arial-BoldMT-32"/>
    <use x="900.292969" xlink:href="#Arial-BoldMT-101"/>
    <use x="955.908203" xlink:href="#Arial-BoldMT-120"/>
    <use x="1011.523438" xlink:href="#Arial-BoldMT-97"/>
    <use x="1067.138672" xlink:href="#Arial-BoldMT-109"/>
    <use x="1156.054688" xlink:href="#Arial-BoldMT-112"/>
    <use x="1217.138672" xlink:href="#Arial-BoldMT-108"/>
    <use x="1244.921875" xlink:href="#Arial-BoldMT-101"/>
    <use x="1300.537109" xlink:href="#Arial-BoldMT-32"/>
    <use x="1328.320312" xlink:href="#Arial-BoldMT-115"/>
    <use x="1383.935547" xlink:href="#Arial-BoldMT-105"/>
    <use x="1411.71875" xlink:href="#Arial-BoldMT-103"/>
    <use x="1472.802734" xlink:href="#Arial-BoldMT-46"/>
    <use x="1500.585938" xlink:href="#Arial-BoldMT-32"/>
    <use x="1528.369141" xlink:href="#Arial-BoldMT-82"/>
    <use x="1600.585938" xlink:href="#Arial-BoldMT-79"/>
    <use x="1678.369141" xlink:href="#Arial-BoldMT-73"/>
   </g>
  </g>
  <g id="text_26">
   <!-- dendrites -->
   <g transform="translate(805.8087 231.3514)rotate(-90)scale(0.1728 -0.1728)">
    <defs>
     <path d="M 54.734375 0 
L 42 0 
L 42 7.625 
Q 38.8125 3.171875 34.484375 1 
Q 30.171875 -1.171875 25.78125 -1.171875 
Q 16.84375 -1.171875 10.46875 6.03125 
Q 4.109375 13.234375 4.109375 26.125 
Q 4.109375 39.3125 10.296875 46.171875 
Q 16.5 53.03125 25.984375 53.03125 
Q 34.671875 53.03125 41.015625 45.796875 
L 41.015625 71.578125 
L 54.734375 71.578125 
z
M 18.109375 27.046875 
Q 18.109375 18.75 20.40625 15.046875 
Q 23.734375 9.671875 29.6875 9.671875 
Q 34.421875 9.671875 37.734375 13.6875 
Q 41.0625 17.71875 41.0625 25.734375 
Q 41.0625 34.671875 37.84375 38.59375 
Q 34.625 42.53125 29.59375 42.53125 
Q 24.703125 42.53125 21.40625 38.640625 
Q 18.109375 34.765625 18.109375 27.046875 
z
" id="Arial-BoldMT-100"/>
     <path d="M 30.953125 51.859375 
L 30.953125 40.921875 
L 21.578125 40.921875 
L 21.578125 20.015625 
Q 21.578125 13.671875 21.84375 12.625 
Q 22.125 11.578125 23.078125 10.890625 
Q 24.03125 10.203125 25.390625 10.203125 
Q 27.296875 10.203125 30.90625 11.53125 
L 32.078125 0.875 
Q 27.296875 -1.171875 21.234375 -1.171875 
Q 17.53125 -1.171875 14.546875 0.0625 
Q 11.578125 1.3125 10.1875 3.296875 
Q 8.796875 5.28125 8.25 8.640625 
Q 7.8125 11.03125 7.8125 18.3125 
L 7.8125 40.921875 
L 1.515625 40.921875 
L 1.515625 51.859375 
L 7.8125 51.859375 
L 7.8125 62.15625 
L 21.578125 70.171875 
L 21.578125 51.859375 
z
" id="Arial-BoldMT-116"/>
    </defs>
    <use xlink:href="#Arial-BoldMT-100"/>
    <use x="61.083984" xlink:href="#Arial-BoldMT-101"/>
    <use x="116.699219" xlink:href="#Arial-BoldMT-110"/>
    <use x="177.783203" xlink:href="#Arial-BoldMT-100"/>
    <use x="238.867188" xlink:href="#Arial-BoldMT-114"/>
    <use x="277.783203" xlink:href="#Arial-BoldMT-105"/>
    <use x="305.566406" xlink:href="#Arial-BoldMT-116"/>
    <use x="338.867188" xlink:href="#Arial-BoldMT-101"/>
    <use x="394.482422" xlink:href="#Arial-BoldMT-115"/>
   </g>
  </g>
  <g id="text_27">
   <!-- somata -->
   <g transform="translate(805.8087 586.3168)rotate(-90)scale(0.1728 -0.1728)">
    <use xlink:href="#Arial-BoldMT-115"/>
    <use x="55.615234" xlink:href="#Arial-BoldMT-111"/>
    <use x="116.699219" xlink:href="#Arial-BoldMT-109"/>
    <use x="205.615234" xlink:href="#Arial-BoldMT-97"/>
    <use x="261.230469" xlink:href="#Arial-BoldMT-116"/>
    <use x="294.53125" xlink:href="#Arial-BoldMT-97"/>
   </g>
  </g>
  <g id="text_28">
   <!-- Index -->
   <g transform="translate(371.2761 762.768)scale(0.1728 -0.1728)">
    <use xlink:href="#Arial-BoldMT-73"/>
    <use x="27.783203" xlink:href="#Arial-BoldMT-110"/>
    <use x="88.867188" xlink:href="#Arial-BoldMT-100"/>
    <use x="149.951172" xlink:href="#Arial-BoldMT-101"/>
    <use x="205.566406" xlink:href="#Arial-BoldMT-120"/>
   </g>
  </g>
  <g id="text_29">
   <!-- Density -->
   <g transform="translate(19.5687 223.67395)rotate(-90)scale(0.1728 -0.1728)">
    <defs>
     <path d="M 7.234375 71.578125 
L 33.640625 71.578125 
Q 42.578125 71.578125 47.265625 70.21875 
Q 53.5625 68.359375 58.046875 63.625 
Q 62.546875 58.890625 64.890625 52.03125 
Q 67.234375 45.171875 67.234375 35.109375 
Q 67.234375 26.265625 65.046875 19.875 
Q 62.359375 12.0625 57.375 7.234375 
Q 53.609375 3.5625 47.21875 1.515625 
Q 42.4375 0 34.421875 0 
L 7.234375 0 
z
M 21.6875 59.46875 
L 21.6875 12.0625 
L 32.46875 12.0625 
Q 38.53125 12.0625 41.21875 12.75 
Q 44.734375 13.625 47.046875 15.71875 
Q 49.359375 17.828125 50.828125 22.625 
Q 52.296875 27.4375 52.296875 35.75 
Q 52.296875 44.046875 50.828125 48.484375 
Q 49.359375 52.9375 46.71875 55.421875 
Q 44.09375 57.90625 40.046875 58.796875 
Q 37.015625 59.46875 28.171875 59.46875 
z
" id="Arial-BoldMT-68"/>
    </defs>
    <use xlink:href="#Arial-BoldMT-68"/>
    <use x="72.216797" xlink:href="#Arial-BoldMT-101"/>
    <use x="127.832031" xlink:href="#Arial-BoldMT-110"/>
    <use x="188.916016" xlink:href="#Arial-BoldMT-115"/>
    <use x="244.53125" xlink:href="#Arial-BoldMT-105"/>
    <use x="272.314453" xlink:href="#Arial-BoldMT-116"/>
    <use x="305.615234" xlink:href="#Arial-BoldMT-121"/>
   </g>
  </g>
 </g>
 <defs>
  <clipPath id="p6355108988">
   <rect height="301.905315" width="324.864525" x="78.8853" y="412.991885"/>
  </clipPath>
 </defs>
</svg>
