<?xml version="1.0" encoding="utf-8" standalone="no"?>
<!DOCTYPE svg PUBLIC "-//W3C//DTD SVG 1.1//EN"
  "http://www.w3.org/Graphics/SVG/1.1/DTD/svg11.dtd">
<svg xmlns:xlink="http://www.w3.org/1999/xlink" width="569.2188pt" height="380.6901pt" viewBox="0 0 569.2188 380.6901" xmlns="http://www.w3.org/2000/svg" version="1.1">
 <metadata>
  <rdf:RDF xmlns:dc="http://purl.org/dc/elements/1.1/" xmlns:cc="http://creativecommons.org/ns#" xmlns:rdf="http://www.w3.org/1999/02/22-rdf-syntax-ns#">
   <cc:Work>
    <dc:type rdf:resource="http://purl.org/dc/dcmitype/StillImage"/>
    <dc:date>2023-08-24T13:39:23.399400</dc:date>
    <dc:format>image/svg+xml</dc:format>
    <dc:creator>
     <cc:Agent>
      <dc:title>Matplotlib v3.6.3, https://matplotlib.org/</dc:title>
     </cc:Agent>
    </dc:creator>
   </cc:Work>
  </rdf:RDF>
 </metadata>
 <defs>
  <style type="text/css">*{stroke-linejoin: round; stroke-linecap: butt}</style>
 </defs>
 <g id="figure_1">
  <g id="patch_1">
   <path d="M 0 380.6901 
L 569.2188 380.6901 
L 569.2188 0 
L 0 0 
z
" style="fill: #ffffff"/>
  </g>
  <g id="axes_1">
   <g id="patch_2">
    <path d="M 73.74 180.768 
L 255.696522 180.768 
L 255.696522 62.496 
L 73.74 62.496 
z
" style="fill: #ffffff"/>
   </g>
   <g id="patch_3">
    <path d="M 82.010751 180.768 
L 82.010751 62.496 
L 86.146126 62.496 
L 86.146126 180.768 
z
" clip-path="url(#p71451a793e)" style="fill: #871719; opacity: 0.15; stroke: #871719; stroke-width: 2; stroke-linejoin: miter"/>
   </g>
   <g id="patch_4">
    <path d="M 243.290395 180.768 
L 243.290395 62.496 
L 247.425771 62.496 
L 247.425771 180.768 
z
" clip-path="url(#p71451a793e)" style="fill: #871719; opacity: 0.15; stroke: #871719; stroke-width: 2; stroke-linejoin: miter"/>
   </g>
   <g id="patch_5">
    <path d="M 82.010751 180.768 
L 86.146126 180.768 
L 86.146126 95.228103 
L 82.010751 95.228103 
z
" clip-path="url(#p71451a793e)" style="fill: #76bb4b; opacity: 0.7"/>
   </g>
   <g id="patch_6">
    <path d="M 86.146126 180.768 
L 90.281502 180.768 
L 90.281502 153.709461 
L 86.146126 153.709461 
z
" clip-path="url(#p71451a793e)" style="fill: #76bb4b; opacity: 0.7"/>
   </g>
   <g id="patch_7">
    <path d="M 90.281502 180.768 
L 94.416877 180.768 
L 94.416877 158.946598 
L 90.281502 158.946598 
z
" clip-path="url(#p71451a793e)" style="fill: #76bb4b; opacity: 0.7"/>
   </g>
   <g id="patch_8">
    <path d="M 94.416877 180.768 
L 98.552253 180.768 
L 98.552253 164.183734 
L 94.416877 164.183734 
z
" clip-path="url(#p71451a793e)" style="fill: #76bb4b; opacity: 0.7"/>
   </g>
   <g id="patch_9">
    <path d="M 98.552253 180.768 
L 102.687628 180.768 
L 102.687628 155.018745 
L 98.552253 155.018745 
z
" clip-path="url(#p71451a793e)" style="fill: #76bb4b; opacity: 0.7"/>
   </g>
   <g id="patch_10">
    <path d="M 102.687628 180.768 
L 106.823004 180.768 
L 106.823004 160.255882 
L 102.687628 160.255882 
z
" clip-path="url(#p71451a793e)" style="fill: #76bb4b; opacity: 0.7"/>
   </g>
   <g id="patch_11">
    <path d="M 106.823004 180.768 
L 110.958379 180.768 
L 110.958379 166.802303 
L 106.823004 166.802303 
z
" clip-path="url(#p71451a793e)" style="fill: #76bb4b; opacity: 0.7"/>
   </g>
   <g id="patch_12">
    <path d="M 110.958379 180.768 
L 115.093755 180.768 
L 115.093755 168.984443 
L 110.958379 168.984443 
z
" clip-path="url(#p71451a793e)" style="fill: #76bb4b; opacity: 0.7"/>
   </g>
   <g id="patch_13">
    <path d="M 115.093755 180.768 
L 119.22913 180.768 
L 119.22913 170.293727 
L 115.093755 170.293727 
z
" clip-path="url(#p71451a793e)" style="fill: #76bb4b; opacity: 0.7"/>
   </g>
   <g id="patch_14">
    <path d="M 119.22913 180.768 
L 123.364506 180.768 
L 123.364506 170.293727 
L 119.22913 170.293727 
z
" clip-path="url(#p71451a793e)" style="fill: #76bb4b; opacity: 0.7"/>
   </g>
   <g id="patch_15">
    <path d="M 123.364506 180.768 
L 127.499881 180.768 
L 127.499881 166.802303 
L 123.364506 166.802303 
z
" clip-path="url(#p71451a793e)" style="fill: #76bb4b; opacity: 0.7"/>
   </g>
   <g id="patch_16">
    <path d="M 127.499881 180.768 
L 131.635257 180.768 
L 131.635257 172.912295 
L 127.499881 172.912295 
z
" clip-path="url(#p71451a793e)" style="fill: #76bb4b; opacity: 0.7"/>
   </g>
   <g id="patch_17">
    <path d="M 131.635257 180.768 
L 135.770632 180.768 
L 135.770632 168.984443 
L 131.635257 168.984443 
z
" clip-path="url(#p71451a793e)" style="fill: #76bb4b; opacity: 0.7"/>
   </g>
   <g id="patch_18">
    <path d="M 135.770632 180.768 
L 139.906008 180.768 
L 139.906008 169.420871 
L 135.770632 169.420871 
z
" clip-path="url(#p71451a793e)" style="fill: #76bb4b; opacity: 0.7"/>
   </g>
   <g id="patch_19">
    <path d="M 139.906008 180.768 
L 144.041383 180.768 
L 144.041383 169.857299 
L 139.906008 169.857299 
z
" clip-path="url(#p71451a793e)" style="fill: #76bb4b; opacity: 0.7"/>
   </g>
   <g id="patch_20">
    <path d="M 144.041383 180.768 
L 148.176759 180.768 
L 148.176759 170.730155 
L 144.041383 170.730155 
z
" clip-path="url(#p71451a793e)" style="fill: #76bb4b; opacity: 0.7"/>
   </g>
   <g id="patch_21">
    <path d="M 148.176759 180.768 
L 152.312134 180.768 
L 152.312134 165.929446 
L 148.176759 165.929446 
z
" clip-path="url(#p71451a793e)" style="fill: #76bb4b; opacity: 0.7"/>
   </g>
   <g id="patch_22">
    <path d="M 152.312134 180.768 
L 156.44751 180.768 
L 156.44751 169.857299 
L 152.312134 169.857299 
z
" clip-path="url(#p71451a793e)" style="fill: #76bb4b; opacity: 0.7"/>
   </g>
   <g id="patch_23">
    <path d="M 156.44751 180.768 
L 160.582885 180.768 
L 160.582885 174.221579 
L 156.44751 174.221579 
z
" clip-path="url(#p71451a793e)" style="fill: #76bb4b; opacity: 0.7"/>
   </g>
   <g id="patch_24">
    <path d="M 160.582885 180.768 
L 164.718261 180.768 
L 164.718261 166.365875 
L 160.582885 166.365875 
z
" clip-path="url(#p71451a793e)" style="fill: #76bb4b; opacity: 0.7"/>
   </g>
   <g id="patch_25">
    <path d="M 164.718261 180.768 
L 168.853636 180.768 
L 168.853636 167.675159 
L 164.718261 167.675159 
z
" clip-path="url(#p71451a793e)" style="fill: #76bb4b; opacity: 0.7"/>
   </g>
   <g id="patch_26">
    <path d="M 168.853636 180.768 
L 172.989012 180.768 
L 172.989012 170.730155 
L 168.853636 170.730155 
z
" clip-path="url(#p71451a793e)" style="fill: #76bb4b; opacity: 0.7"/>
   </g>
   <g id="patch_27">
    <path d="M 172.989012 180.768 
L 177.124387 180.768 
L 177.124387 169.420871 
L 172.989012 169.420871 
z
" clip-path="url(#p71451a793e)" style="fill: #76bb4b; opacity: 0.7"/>
   </g>
   <g id="patch_28">
    <path d="M 177.124387 180.768 
L 181.259763 180.768 
L 181.259763 174.658007 
L 177.124387 174.658007 
z
" clip-path="url(#p71451a793e)" style="fill: #76bb4b; opacity: 0.7"/>
   </g>
   <g id="patch_29">
    <path d="M 181.259763 180.768 
L 185.395138 180.768 
L 185.395138 173.785151 
L 181.259763 173.785151 
z
" clip-path="url(#p71451a793e)" style="fill: #76bb4b; opacity: 0.7"/>
   </g>
   <g id="patch_30">
    <path d="M 185.395138 180.768 
L 189.530514 180.768 
L 189.530514 170.730155 
L 185.395138 170.730155 
z
" clip-path="url(#p71451a793e)" style="fill: #76bb4b; opacity: 0.7"/>
   </g>
   <g id="patch_31">
    <path d="M 189.530514 180.768 
L 193.665889 180.768 
L 193.665889 174.658007 
L 189.530514 174.658007 
z
" clip-path="url(#p71451a793e)" style="fill: #76bb4b; opacity: 0.7"/>
   </g>
   <g id="patch_32">
    <path d="M 193.665889 180.768 
L 197.801265 180.768 
L 197.801265 168.984443 
L 193.665889 168.984443 
z
" clip-path="url(#p71451a793e)" style="fill: #76bb4b; opacity: 0.7"/>
   </g>
   <g id="patch_33">
    <path d="M 197.801265 180.768 
L 201.93664 180.768 
L 201.93664 168.111587 
L 197.801265 168.111587 
z
" clip-path="url(#p71451a793e)" style="fill: #76bb4b; opacity: 0.7"/>
   </g>
   <g id="patch_34">
    <path d="M 201.93664 180.768 
L 206.072016 180.768 
L 206.072016 169.857299 
L 201.93664 169.857299 
z
" clip-path="url(#p71451a793e)" style="fill: #76bb4b; opacity: 0.7"/>
   </g>
   <g id="patch_35">
    <path d="M 206.072016 180.768 
L 210.207391 180.768 
L 210.207391 174.221579 
L 206.072016 174.221579 
z
" clip-path="url(#p71451a793e)" style="fill: #76bb4b; opacity: 0.7"/>
   </g>
   <g id="patch_36">
    <path d="M 210.207391 180.768 
L 214.342767 180.768 
L 214.342767 173.348723 
L 210.207391 173.348723 
z
" clip-path="url(#p71451a793e)" style="fill: #76bb4b; opacity: 0.7"/>
   </g>
   <g id="patch_37">
    <path d="M 214.342767 180.768 
L 218.478142 180.768 
L 218.478142 170.730155 
L 214.342767 170.730155 
z
" clip-path="url(#p71451a793e)" style="fill: #76bb4b; opacity: 0.7"/>
   </g>
   <g id="patch_38">
    <path d="M 218.478142 180.768 
L 222.613518 180.768 
L 222.613518 169.857299 
L 218.478142 169.857299 
z
" clip-path="url(#p71451a793e)" style="fill: #76bb4b; opacity: 0.7"/>
   </g>
   <g id="patch_39">
    <path d="M 222.613518 180.768 
L 226.748893 180.768 
L 226.748893 168.548015 
L 222.613518 168.548015 
z
" clip-path="url(#p71451a793e)" style="fill: #76bb4b; opacity: 0.7"/>
   </g>
   <g id="patch_40">
    <path d="M 226.748893 180.768 
L 230.884269 180.768 
L 230.884269 167.675159 
L 226.748893 167.675159 
z
" clip-path="url(#p71451a793e)" style="fill: #76bb4b; opacity: 0.7"/>
   </g>
   <g id="patch_41">
    <path d="M 230.884269 180.768 
L 235.019644 180.768 
L 235.019644 168.111587 
L 230.884269 168.111587 
z
" clip-path="url(#p71451a793e)" style="fill: #76bb4b; opacity: 0.7"/>
   </g>
   <g id="patch_42">
    <path d="M 235.019644 180.768 
L 239.15502 180.768 
L 239.15502 170.730155 
L 235.019644 170.730155 
z
" clip-path="url(#p71451a793e)" style="fill: #76bb4b; opacity: 0.7"/>
   </g>
   <g id="patch_43">
    <path d="M 239.15502 180.768 
L 243.290395 180.768 
L 243.290395 164.183734 
L 239.15502 164.183734 
z
" clip-path="url(#p71451a793e)" style="fill: #76bb4b; opacity: 0.7"/>
   </g>
   <g id="patch_44">
    <path d="M 243.290395 180.768 
L 247.425771 180.768 
L 247.425771 144.544472 
L 243.290395 144.544472 
z
" clip-path="url(#p71451a793e)" style="fill: #76bb4b; opacity: 0.7"/>
   </g>
   <g id="matplotlib.axis_1">
    <g id="xtick_1">
     <g id="line2d_1">
      <defs>
       <path id="m21e5b5e566" d="M 0 0 
L 0 8 
" style="stroke: #000000; stroke-width: 4"/>
      </defs>
      <g>
       <use xlink:href="#m21e5b5e566" x="82.010751" y="180.768" style="stroke: #000000; stroke-width: 4"/>
      </g>
     </g>
    </g>
    <g id="xtick_2">
     <g id="line2d_2">
      <g>
       <use xlink:href="#m21e5b5e566" x="123.364506" y="180.768" style="stroke: #000000; stroke-width: 4"/>
      </g>
     </g>
    </g>
    <g id="xtick_3">
     <g id="line2d_3">
      <g>
       <use xlink:href="#m21e5b5e566" x="164.718261" y="180.768" style="stroke: #000000; stroke-width: 4"/>
      </g>
     </g>
    </g>
    <g id="xtick_4">
     <g id="line2d_4">
      <g>
       <use xlink:href="#m21e5b5e566" x="206.072016" y="180.768" style="stroke: #000000; stroke-width: 4"/>
      </g>
     </g>
    </g>
    <g id="xtick_5">
     <g id="line2d_5">
      <g>
       <use xlink:href="#m21e5b5e566" x="247.425771" y="180.768" style="stroke: #000000; stroke-width: 4"/>
      </g>
     </g>
    </g>
   </g>
   <g id="matplotlib.axis_2">
    <g id="ytick_1">
     <g id="line2d_6">
      <defs>
       <path id="m5905644921" d="M 0 0 
L -8 0 
" style="stroke: #000000; stroke-width: 4"/>
      </defs>
      <g>
       <use xlink:href="#m5905644921" x="73.74" y="180.768" style="stroke: #000000; stroke-width: 4"/>
      </g>
     </g>
     <g id="text_1">
      <!-- 0 -->
      <g transform="translate(52.6307 186.95235) scale(0.1728 -0.1728)">
       <defs>
        <path id="Arial-BoldMT-30" d="M 1756 4600 
Q 2422 4600 2797 4125 
Q 3244 3563 3244 2259 
Q 3244 959 2794 391 
Q 2422 -78 1756 -78 
Q 1088 -78 678 436 
Q 269 950 269 2269 
Q 269 3563 719 4131 
Q 1091 4600 1756 4600 
z
M 1756 3872 
Q 1597 3872 1472 3770 
Q 1347 3669 1278 3406 
Q 1188 3066 1188 2259 
Q 1188 1453 1269 1151 
Q 1350 850 1473 750 
Q 1597 650 1756 650 
Q 1916 650 2041 751 
Q 2166 853 2234 1116 
Q 2325 1453 2325 2259 
Q 2325 3066 2244 3367 
Q 2163 3669 2039 3770 
Q 1916 3872 1756 3872 
z
" transform="scale(0.015625)"/>
       </defs>
       <use xlink:href="#Arial-BoldMT-30"/>
      </g>
     </g>
    </g>
    <g id="ytick_2">
     <g id="line2d_7">
      <g>
       <use xlink:href="#m5905644921" x="73.74" y="151.2" style="stroke: #000000; stroke-width: 4"/>
      </g>
     </g>
    </g>
    <g id="ytick_3">
     <g id="line2d_8">
      <g>
       <use xlink:href="#m5905644921" x="73.74" y="121.632" style="stroke: #000000; stroke-width: 4"/>
      </g>
     </g>
     <g id="text_2">
      <!-- 0.04 -->
      <g transform="translate(28.6115 127.81635) scale(0.1728 -0.1728)">
       <defs>
        <path id="Arial-BoldMT-2e" d="M 459 0 
L 459 878 
L 1338 878 
L 1338 0 
L 459 0 
z
" transform="scale(0.015625)"/>
        <path id="Arial-BoldMT-34" d="M 1994 0 
L 1994 922 
L 119 922 
L 119 1691 
L 2106 4600 
L 2844 4600 
L 2844 1694 
L 3413 1694 
L 3413 922 
L 2844 922 
L 2844 0 
L 1994 0 
z
M 1994 1694 
L 1994 3259 
L 941 1694 
L 1994 1694 
z
" transform="scale(0.015625)"/>
       </defs>
       <use xlink:href="#Arial-BoldMT-30"/>
       <use xlink:href="#Arial-BoldMT-2e" x="55.615234"/>
       <use xlink:href="#Arial-BoldMT-30" x="83.398438"/>
       <use xlink:href="#Arial-BoldMT-34" x="139.013672"/>
      </g>
     </g>
    </g>
    <g id="ytick_4">
     <g id="line2d_9">
      <g>
       <use xlink:href="#m5905644921" x="73.74" y="92.064" style="stroke: #000000; stroke-width: 4"/>
      </g>
     </g>
    </g>
    <g id="ytick_5">
     <g id="line2d_10">
      <g>
       <use xlink:href="#m5905644921" x="73.74" y="62.496" style="stroke: #000000; stroke-width: 4"/>
      </g>
     </g>
     <g id="text_3">
      <!-- 0.08 -->
      <g transform="translate(28.6115 68.68035) scale(0.1728 -0.1728)">
       <defs>
        <path id="Arial-BoldMT-38" d="M 1025 2472 
Q 684 2616 529 2867 
Q 375 3119 375 3419 
Q 375 3931 733 4265 
Q 1091 4600 1750 4600 
Q 2403 4600 2764 4265 
Q 3125 3931 3125 3419 
Q 3125 3100 2959 2851 
Q 2794 2603 2494 2472 
Q 2875 2319 3073 2025 
Q 3272 1731 3272 1347 
Q 3272 713 2867 316 
Q 2463 -81 1791 -81 
Q 1166 -81 750 247 
Q 259 634 259 1309 
Q 259 1681 443 1992 
Q 628 2303 1025 2472 
z
M 1206 3356 
Q 1206 3094 1354 2947 
Q 1503 2800 1750 2800 
Q 2000 2800 2150 2948 
Q 2300 3097 2300 3359 
Q 2300 3606 2151 3754 
Q 2003 3903 1759 3903 
Q 1506 3903 1356 3753 
Q 1206 3603 1206 3356 
z
M 1125 1394 
Q 1125 1031 1311 828 
Q 1497 625 1775 625 
Q 2047 625 2225 820 
Q 2403 1016 2403 1384 
Q 2403 1706 2222 1901 
Q 2041 2097 1763 2097 
Q 1441 2097 1283 1875 
Q 1125 1653 1125 1394 
z
" transform="scale(0.015625)"/>
       </defs>
       <use xlink:href="#Arial-BoldMT-30"/>
       <use xlink:href="#Arial-BoldMT-2e" x="55.615234"/>
       <use xlink:href="#Arial-BoldMT-30" x="83.398438"/>
       <use xlink:href="#Arial-BoldMT-38" x="139.013672"/>
      </g>
     </g>
    </g>
    <g id="text_4">
     <!-- . -->
     <g style="fill: #ffffff" transform="translate(20.1771 124.0323) rotate(-90) scale(0.1728 -0.1728)">
      <defs>
       <path id="ArialMT-2e" d="M 581 0 
L 581 641 
L 1222 641 
L 1222 0 
L 581 0 
z
" transform="scale(0.015625)"/>
      </defs>
      <use xlink:href="#ArialMT-2e"/>
     </g>
    </g>
   </g>
   <g id="line2d_11">
    <path d="M 73.74 143.808 
L 255.696522 143.808 
" clip-path="url(#p71451a793e)" style="fill: none; stroke-dasharray: 12,6; stroke-dashoffset: 0; stroke: #000000; stroke-opacity: 0.5; stroke-width: 3"/>
   </g>
   <g id="line2d_12"/>
   <g id="patch_45">
    <path d="M 73.74 180.768 
L 73.74 62.496 
" style="fill: none; stroke: #000000; stroke-width: 4; stroke-linejoin: miter; stroke-linecap: square"/>
   </g>
   <g id="patch_46">
    <path d="M 73.74 180.768 
L 255.696522 180.768 
" style="fill: none; stroke: #000000; stroke-width: 4; stroke-linejoin: miter; stroke-linecap: square"/>
   </g>
   <g id="text_5">
    <!-- L2/3 Pyr -->
    <g transform="translate(131.100561 51.76512) scale(0.1728 -0.1728)">
     <defs>
      <path id="Arial-BoldMT-4c" d="M 491 0 
L 491 4544 
L 1416 4544 
L 1416 772 
L 3716 772 
L 3716 0 
L 491 0 
z
" transform="scale(0.015625)"/>
      <path id="Arial-BoldMT-32" d="M 3238 816 
L 3238 0 
L 159 0 
Q 209 463 459 877 
Q 709 1291 1447 1975 
Q 2041 2528 2175 2725 
Q 2356 2997 2356 3263 
Q 2356 3556 2198 3714 
Q 2041 3872 1763 3872 
Q 1488 3872 1325 3706 
Q 1163 3541 1138 3156 
L 263 3244 
Q 341 3969 753 4284 
Q 1166 4600 1784 4600 
Q 2463 4600 2850 4234 
Q 3238 3869 3238 3325 
Q 3238 3016 3127 2736 
Q 3016 2456 2775 2150 
Q 2616 1947 2200 1565 
Q 1784 1184 1673 1059 
Q 1563 934 1494 816 
L 3238 816 
z
" transform="scale(0.015625)"/>
      <path id="Arial-BoldMT-2f" d="M -9 -78 
L 1125 4659 
L 1784 4659 
L 638 -78 
L -9 -78 
z
" transform="scale(0.015625)"/>
      <path id="Arial-BoldMT-33" d="M 241 1216 
L 1091 1319 
Q 1131 994 1309 822 
Q 1488 650 1741 650 
Q 2013 650 2198 856 
Q 2384 1063 2384 1413 
Q 2384 1744 2206 1937 
Q 2028 2131 1772 2131 
Q 1603 2131 1369 2066 
L 1466 2781 
Q 1822 2772 2009 2936 
Q 2197 3100 2197 3372 
Q 2197 3603 2059 3740 
Q 1922 3878 1694 3878 
Q 1469 3878 1309 3722 
Q 1150 3566 1116 3266 
L 306 3403 
Q 391 3819 561 4067 
Q 731 4316 1036 4458 
Q 1341 4600 1719 4600 
Q 2366 4600 2756 4188 
Q 3078 3850 3078 3425 
Q 3078 2822 2419 2463 
Q 2813 2378 3048 2084 
Q 3284 1791 3284 1375 
Q 3284 772 2843 347 
Q 2403 -78 1747 -78 
Q 1125 -78 715 280 
Q 306 638 241 1216 
z
" transform="scale(0.015625)"/>
      <path id="Arial-BoldMT-20" transform="scale(0.015625)"/>
      <path id="Arial-BoldMT-50" d="M 466 0 
L 466 4581 
L 1950 4581 
Q 2794 4581 3050 4513 
Q 3444 4409 3709 4064 
Q 3975 3719 3975 3172 
Q 3975 2750 3822 2462 
Q 3669 2175 3433 2011 
Q 3197 1847 2953 1794 
Q 2622 1728 1994 1728 
L 1391 1728 
L 1391 0 
L 466 0 
z
M 1391 3806 
L 1391 2506 
L 1897 2506 
Q 2444 2506 2628 2578 
Q 2813 2650 2917 2803 
Q 3022 2956 3022 3159 
Q 3022 3409 2875 3571 
Q 2728 3734 2503 3775 
Q 2338 3806 1838 3806 
L 1391 3806 
z
" transform="scale(0.015625)"/>
      <path id="Arial-BoldMT-79" d="M 44 3319 
L 978 3319 
L 1772 963 
L 2547 3319 
L 3456 3319 
L 2284 125 
L 2075 -453 
Q 1959 -744 1854 -897 
Q 1750 -1050 1614 -1145 
Q 1478 -1241 1279 -1294 
Q 1081 -1347 831 -1347 
Q 578 -1347 334 -1294 
L 256 -606 
Q 463 -647 628 -647 
Q 934 -647 1081 -467 
Q 1228 -288 1306 -9 
L 44 3319 
z
" transform="scale(0.015625)"/>
      <path id="Arial-BoldMT-72" d="M 1300 0 
L 422 0 
L 422 3319 
L 1238 3319 
L 1238 2847 
Q 1447 3181 1614 3287 
Q 1781 3394 1994 3394 
Q 2294 3394 2572 3228 
L 2300 2463 
Q 2078 2606 1888 2606 
Q 1703 2606 1575 2504 
Q 1447 2403 1373 2137 
Q 1300 1872 1300 1025 
L 1300 0 
z
" transform="scale(0.015625)"/>
     </defs>
     <use xlink:href="#Arial-BoldMT-4c"/>
     <use xlink:href="#Arial-BoldMT-32" x="61.083984"/>
     <use xlink:href="#Arial-BoldMT-2f" x="116.699219"/>
     <use xlink:href="#Arial-BoldMT-33" x="144.482422"/>
     <use xlink:href="#Arial-BoldMT-20" x="200.097656"/>
     <use xlink:href="#Arial-BoldMT-50" x="227.880859"/>
     <use xlink:href="#Arial-BoldMT-79" x="294.580078"/>
     <use xlink:href="#Arial-BoldMT-72" x="350.195312"/>
    </g>
   </g>
   <g id="legend_1">
    <g id="patch_47">
     <path d="M 107.46539 95.707398 
L 221.971132 95.707398 
Q 223.970332 95.707398 223.970332 93.708198 
L 223.970332 69.4932 
Q 223.970332 67.494 221.971132 67.494 
L 107.46539 67.494 
Q 105.46619 67.494 105.46619 69.4932 
L 105.46619 93.708198 
Q 105.46619 95.707398 107.46539 95.707398 
z
" style="fill: #ffffff; opacity: 0.8; stroke: #cccccc; stroke-width: 5; stroke-linejoin: miter"/>
    </g>
    <g id="line2d_13">
     <path d="M 109.46459 81.679573 
L 119.46059 81.679573 
L 129.45659 81.679573 
" style="fill: none; stroke: #76bb4b; stroke-width: 5; stroke-linecap: square"/>
    </g>
    <g id="text_6">
     <!-- 20.59% sig -->
     <g transform="translate(137.45339 78.769176) scale(0.09996 -0.09996)">
      <defs>
       <path id="ArialMT-32" d="M 3222 541 
L 3222 0 
L 194 0 
Q 188 203 259 391 
Q 375 700 629 1000 
Q 884 1300 1366 1694 
Q 2113 2306 2375 2664 
Q 2638 3022 2638 3341 
Q 2638 3675 2398 3904 
Q 2159 4134 1775 4134 
Q 1369 4134 1125 3890 
Q 881 3647 878 3216 
L 300 3275 
Q 359 3922 746 4261 
Q 1134 4600 1788 4600 
Q 2447 4600 2831 4234 
Q 3216 3869 3216 3328 
Q 3216 3053 3103 2787 
Q 2991 2522 2730 2228 
Q 2469 1934 1863 1422 
Q 1356 997 1212 845 
Q 1069 694 975 541 
L 3222 541 
z
" transform="scale(0.015625)"/>
       <path id="ArialMT-30" d="M 266 2259 
Q 266 3072 433 3567 
Q 600 4063 929 4331 
Q 1259 4600 1759 4600 
Q 2128 4600 2406 4451 
Q 2684 4303 2865 4023 
Q 3047 3744 3150 3342 
Q 3253 2941 3253 2259 
Q 3253 1453 3087 958 
Q 2922 463 2592 192 
Q 2263 -78 1759 -78 
Q 1097 -78 719 397 
Q 266 969 266 2259 
z
M 844 2259 
Q 844 1131 1108 757 
Q 1372 384 1759 384 
Q 2147 384 2411 759 
Q 2675 1134 2675 2259 
Q 2675 3391 2411 3762 
Q 2147 4134 1753 4134 
Q 1366 4134 1134 3806 
Q 844 3388 844 2259 
z
" transform="scale(0.015625)"/>
       <path id="ArialMT-35" d="M 266 1200 
L 856 1250 
Q 922 819 1161 601 
Q 1400 384 1738 384 
Q 2144 384 2425 690 
Q 2706 997 2706 1503 
Q 2706 1984 2436 2262 
Q 2166 2541 1728 2541 
Q 1456 2541 1237 2417 
Q 1019 2294 894 2097 
L 366 2166 
L 809 4519 
L 3088 4519 
L 3088 3981 
L 1259 3981 
L 1013 2750 
Q 1425 3038 1878 3038 
Q 2478 3038 2890 2622 
Q 3303 2206 3303 1553 
Q 3303 931 2941 478 
Q 2500 -78 1738 -78 
Q 1113 -78 717 272 
Q 322 622 266 1200 
z
" transform="scale(0.015625)"/>
       <path id="ArialMT-39" d="M 350 1059 
L 891 1109 
Q 959 728 1153 556 
Q 1347 384 1650 384 
Q 1909 384 2104 503 
Q 2300 622 2425 820 
Q 2550 1019 2634 1356 
Q 2719 1694 2719 2044 
Q 2719 2081 2716 2156 
Q 2547 1888 2255 1720 
Q 1963 1553 1622 1553 
Q 1053 1553 659 1965 
Q 266 2378 266 3053 
Q 266 3750 677 4175 
Q 1088 4600 1706 4600 
Q 2153 4600 2523 4359 
Q 2894 4119 3086 3673 
Q 3278 3228 3278 2384 
Q 3278 1506 3087 986 
Q 2897 466 2520 194 
Q 2144 -78 1638 -78 
Q 1100 -78 759 220 
Q 419 519 350 1059 
z
M 2653 3081 
Q 2653 3566 2395 3850 
Q 2138 4134 1775 4134 
Q 1400 4134 1122 3828 
Q 844 3522 844 3034 
Q 844 2597 1108 2323 
Q 1372 2050 1759 2050 
Q 2150 2050 2401 2323 
Q 2653 2597 2653 3081 
z
" transform="scale(0.015625)"/>
       <path id="ArialMT-25" d="M 372 3481 
Q 372 3972 619 4315 
Q 866 4659 1334 4659 
Q 1766 4659 2048 4351 
Q 2331 4044 2331 3447 
Q 2331 2866 2045 2552 
Q 1759 2238 1341 2238 
Q 925 2238 648 2547 
Q 372 2856 372 3481 
z
M 1350 4272 
Q 1141 4272 1002 4090 
Q 863 3909 863 3425 
Q 863 2984 1003 2804 
Q 1144 2625 1350 2625 
Q 1563 2625 1702 2806 
Q 1841 2988 1841 3469 
Q 1841 3913 1700 4092 
Q 1559 4272 1350 4272 
z
M 1353 -169 
L 3859 4659 
L 4316 4659 
L 1819 -169 
L 1353 -169 
z
M 3334 1075 
Q 3334 1569 3581 1911 
Q 3828 2253 4300 2253 
Q 4731 2253 5014 1945 
Q 5297 1638 5297 1041 
Q 5297 459 5011 145 
Q 4725 -169 4303 -169 
Q 3888 -169 3611 142 
Q 3334 453 3334 1075 
z
M 4316 1866 
Q 4103 1866 3964 1684 
Q 3825 1503 3825 1019 
Q 3825 581 3965 400 
Q 4106 219 4313 219 
Q 4528 219 4667 400 
Q 4806 581 4806 1063 
Q 4806 1506 4665 1686 
Q 4525 1866 4316 1866 
z
" transform="scale(0.015625)"/>
       <path id="ArialMT-20" transform="scale(0.015625)"/>
       <path id="ArialMT-73" d="M 197 991 
L 753 1078 
Q 800 744 1014 566 
Q 1228 388 1613 388 
Q 2000 388 2187 545 
Q 2375 703 2375 916 
Q 2375 1106 2209 1216 
Q 2094 1291 1634 1406 
Q 1016 1563 777 1677 
Q 538 1791 414 1992 
Q 291 2194 291 2438 
Q 291 2659 392 2848 
Q 494 3038 669 3163 
Q 800 3259 1026 3326 
Q 1253 3394 1513 3394 
Q 1903 3394 2198 3281 
Q 2494 3169 2634 2976 
Q 2775 2784 2828 2463 
L 2278 2388 
Q 2241 2644 2061 2787 
Q 1881 2931 1553 2931 
Q 1166 2931 1000 2803 
Q 834 2675 834 2503 
Q 834 2394 903 2306 
Q 972 2216 1119 2156 
Q 1203 2125 1616 2013 
Q 2213 1853 2448 1751 
Q 2684 1650 2818 1456 
Q 2953 1263 2953 975 
Q 2953 694 2789 445 
Q 2625 197 2315 61 
Q 2006 -75 1616 -75 
Q 969 -75 630 194 
Q 291 463 197 991 
z
" transform="scale(0.015625)"/>
       <path id="ArialMT-69" d="M 425 3934 
L 425 4581 
L 988 4581 
L 988 3934 
L 425 3934 
z
M 425 0 
L 425 3319 
L 988 3319 
L 988 0 
L 425 0 
z
" transform="scale(0.015625)"/>
       <path id="ArialMT-67" d="M 319 -275 
L 866 -356 
Q 900 -609 1056 -725 
Q 1266 -881 1628 -881 
Q 2019 -881 2231 -725 
Q 2444 -569 2519 -288 
Q 2563 -116 2559 434 
Q 2191 0 1641 0 
Q 956 0 581 494 
Q 206 988 206 1678 
Q 206 2153 378 2554 
Q 550 2956 876 3175 
Q 1203 3394 1644 3394 
Q 2231 3394 2613 2919 
L 2613 3319 
L 3131 3319 
L 3131 450 
Q 3131 -325 2973 -648 
Q 2816 -972 2473 -1159 
Q 2131 -1347 1631 -1347 
Q 1038 -1347 672 -1080 
Q 306 -813 319 -275 
z
M 784 1719 
Q 784 1066 1043 766 
Q 1303 466 1694 466 
Q 2081 466 2343 764 
Q 2606 1063 2606 1700 
Q 2606 2309 2336 2618 
Q 2066 2928 1684 2928 
Q 1309 2928 1046 2623 
Q 784 2319 784 1719 
z
" transform="scale(0.015625)"/>
      </defs>
      <use xlink:href="#ArialMT-32"/>
      <use xlink:href="#ArialMT-30" x="55.615234"/>
      <use xlink:href="#ArialMT-2e" x="111.230469"/>
      <use xlink:href="#ArialMT-35" x="139.013672"/>
      <use xlink:href="#ArialMT-39" x="194.628906"/>
      <use xlink:href="#ArialMT-25" x="250.244141"/>
      <use xlink:href="#ArialMT-20" x="339.160156"/>
      <use xlink:href="#ArialMT-73" x="366.943359"/>
      <use xlink:href="#ArialMT-69" x="416.943359"/>
      <use xlink:href="#ArialMT-67" x="439.160156"/>
     </g>
     <!-- (196-/83+ of 1355) -->
     <g transform="translate(137.45339 89.605152) scale(0.09996 -0.09996)">
      <defs>
       <path id="ArialMT-28" d="M 1497 -1347 
Q 1031 -759 709 28 
Q 388 816 388 1659 
Q 388 2403 628 3084 
Q 909 3875 1497 4659 
L 1900 4659 
Q 1522 4009 1400 3731 
Q 1209 3300 1100 2831 
Q 966 2247 966 1656 
Q 966 153 1900 -1347 
L 1497 -1347 
z
" transform="scale(0.015625)"/>
       <path id="ArialMT-31" d="M 2384 0 
L 1822 0 
L 1822 3584 
Q 1619 3391 1289 3197 
Q 959 3003 697 2906 
L 697 3450 
Q 1169 3672 1522 3987 
Q 1875 4303 2022 4600 
L 2384 4600 
L 2384 0 
z
" transform="scale(0.015625)"/>
       <path id="ArialMT-36" d="M 3184 3459 
L 2625 3416 
Q 2550 3747 2413 3897 
Q 2184 4138 1850 4138 
Q 1581 4138 1378 3988 
Q 1113 3794 959 3422 
Q 806 3050 800 2363 
Q 1003 2672 1297 2822 
Q 1591 2972 1913 2972 
Q 2475 2972 2870 2558 
Q 3266 2144 3266 1488 
Q 3266 1056 3080 686 
Q 2894 316 2569 119 
Q 2244 -78 1831 -78 
Q 1128 -78 684 439 
Q 241 956 241 2144 
Q 241 3472 731 4075 
Q 1159 4600 1884 4600 
Q 2425 4600 2770 4297 
Q 3116 3994 3184 3459 
z
M 888 1484 
Q 888 1194 1011 928 
Q 1134 663 1356 523 
Q 1578 384 1822 384 
Q 2178 384 2434 671 
Q 2691 959 2691 1453 
Q 2691 1928 2437 2201 
Q 2184 2475 1800 2475 
Q 1419 2475 1153 2201 
Q 888 1928 888 1484 
z
" transform="scale(0.015625)"/>
       <path id="ArialMT-2d" d="M 203 1375 
L 203 1941 
L 1931 1941 
L 1931 1375 
L 203 1375 
z
" transform="scale(0.015625)"/>
       <path id="ArialMT-2f" d="M 0 -78 
L 1328 4659 
L 1778 4659 
L 453 -78 
L 0 -78 
z
" transform="scale(0.015625)"/>
       <path id="ArialMT-38" d="M 1131 2484 
Q 781 2613 612 2850 
Q 444 3088 444 3419 
Q 444 3919 803 4259 
Q 1163 4600 1759 4600 
Q 2359 4600 2725 4251 
Q 3091 3903 3091 3403 
Q 3091 3084 2923 2848 
Q 2756 2613 2416 2484 
Q 2838 2347 3058 2040 
Q 3278 1734 3278 1309 
Q 3278 722 2862 322 
Q 2447 -78 1769 -78 
Q 1091 -78 675 323 
Q 259 725 259 1325 
Q 259 1772 486 2073 
Q 713 2375 1131 2484 
z
M 1019 3438 
Q 1019 3113 1228 2906 
Q 1438 2700 1772 2700 
Q 2097 2700 2305 2904 
Q 2513 3109 2513 3406 
Q 2513 3716 2298 3927 
Q 2084 4138 1766 4138 
Q 1444 4138 1231 3931 
Q 1019 3725 1019 3438 
z
M 838 1322 
Q 838 1081 952 856 
Q 1066 631 1291 507 
Q 1516 384 1775 384 
Q 2178 384 2440 643 
Q 2703 903 2703 1303 
Q 2703 1709 2433 1975 
Q 2163 2241 1756 2241 
Q 1359 2241 1098 1978 
Q 838 1716 838 1322 
z
" transform="scale(0.015625)"/>
       <path id="ArialMT-33" d="M 269 1209 
L 831 1284 
Q 928 806 1161 595 
Q 1394 384 1728 384 
Q 2125 384 2398 659 
Q 2672 934 2672 1341 
Q 2672 1728 2419 1979 
Q 2166 2231 1775 2231 
Q 1616 2231 1378 2169 
L 1441 2663 
Q 1497 2656 1531 2656 
Q 1891 2656 2178 2843 
Q 2466 3031 2466 3422 
Q 2466 3731 2256 3934 
Q 2047 4138 1716 4138 
Q 1388 4138 1169 3931 
Q 950 3725 888 3313 
L 325 3413 
Q 428 3978 793 4289 
Q 1159 4600 1703 4600 
Q 2078 4600 2393 4439 
Q 2709 4278 2876 4000 
Q 3044 3722 3044 3409 
Q 3044 3113 2884 2869 
Q 2725 2625 2413 2481 
Q 2819 2388 3044 2092 
Q 3269 1797 3269 1353 
Q 3269 753 2831 336 
Q 2394 -81 1725 -81 
Q 1122 -81 723 278 
Q 325 638 269 1209 
z
" transform="scale(0.015625)"/>
       <path id="ArialMT-2b" d="M 1603 741 
L 1603 1997 
L 356 1997 
L 356 2522 
L 1603 2522 
L 1603 3769 
L 2134 3769 
L 2134 2522 
L 3381 2522 
L 3381 1997 
L 2134 1997 
L 2134 741 
L 1603 741 
z
" transform="scale(0.015625)"/>
       <path id="ArialMT-6f" d="M 213 1659 
Q 213 2581 725 3025 
Q 1153 3394 1769 3394 
Q 2453 3394 2887 2945 
Q 3322 2497 3322 1706 
Q 3322 1066 3130 698 
Q 2938 331 2570 128 
Q 2203 -75 1769 -75 
Q 1072 -75 642 372 
Q 213 819 213 1659 
z
M 791 1659 
Q 791 1022 1069 705 
Q 1347 388 1769 388 
Q 2188 388 2466 706 
Q 2744 1025 2744 1678 
Q 2744 2294 2464 2611 
Q 2184 2928 1769 2928 
Q 1347 2928 1069 2612 
Q 791 2297 791 1659 
z
" transform="scale(0.015625)"/>
       <path id="ArialMT-66" d="M 556 0 
L 556 2881 
L 59 2881 
L 59 3319 
L 556 3319 
L 556 3672 
Q 556 4006 616 4169 
Q 697 4388 901 4523 
Q 1106 4659 1475 4659 
Q 1713 4659 2000 4603 
L 1916 4113 
Q 1741 4144 1584 4144 
Q 1328 4144 1222 4034 
Q 1116 3925 1116 3625 
L 1116 3319 
L 1763 3319 
L 1763 2881 
L 1116 2881 
L 1116 0 
L 556 0 
z
" transform="scale(0.015625)"/>
       <path id="ArialMT-29" d="M 791 -1347 
L 388 -1347 
Q 1322 153 1322 1656 
Q 1322 2244 1188 2822 
Q 1081 3291 891 3722 
Q 769 4003 388 4659 
L 791 4659 
Q 1378 3875 1659 3084 
Q 1900 2403 1900 1659 
Q 1900 816 1576 28 
Q 1253 -759 791 -1347 
z
" transform="scale(0.015625)"/>
      </defs>
      <use xlink:href="#ArialMT-28"/>
      <use xlink:href="#ArialMT-31" x="33.300781"/>
      <use xlink:href="#ArialMT-39" x="88.916016"/>
      <use xlink:href="#ArialMT-36" x="144.53125"/>
      <use xlink:href="#ArialMT-2d" x="200.146484"/>
      <use xlink:href="#ArialMT-2f" x="233.447266"/>
      <use xlink:href="#ArialMT-38" x="261.230469"/>
      <use xlink:href="#ArialMT-33" x="316.845703"/>
      <use xlink:href="#ArialMT-2b" x="372.460938"/>
      <use xlink:href="#ArialMT-20" x="430.859375"/>
      <use xlink:href="#ArialMT-6f" x="458.642578"/>
      <use xlink:href="#ArialMT-66" x="514.257812"/>
      <use xlink:href="#ArialMT-20" x="542.041016"/>
      <use xlink:href="#ArialMT-31" x="569.824219"/>
      <use xlink:href="#ArialMT-33" x="625.439453"/>
      <use xlink:href="#ArialMT-35" x="681.054688"/>
      <use xlink:href="#ArialMT-35" x="736.669922"/>
      <use xlink:href="#ArialMT-29" x="792.285156"/>
     </g>
    </g>
   </g>
  </g>
  <g id="axes_2">
   <g id="patch_48">
    <path d="M 310.283478 180.768 
L 492.24 180.768 
L 492.24 62.496 
L 310.283478 62.496 
z
" style="fill: #ffffff"/>
   </g>
   <g id="patch_49">
    <path d="M 318.554229 180.768 
L 318.554229 62.496 
L 322.689605 62.496 
L 322.689605 180.768 
z
" clip-path="url(#pd9f80a4438)" style="fill: #871719; opacity: 0.15; stroke: #871719; stroke-width: 2; stroke-linejoin: miter"/>
   </g>
   <g id="patch_50">
    <path d="M 479.833874 180.768 
L 479.833874 62.496 
L 483.969249 62.496 
L 483.969249 180.768 
z
" clip-path="url(#pd9f80a4438)" style="fill: #871719; opacity: 0.15; stroke: #871719; stroke-width: 2; stroke-linejoin: miter"/>
   </g>
   <g id="patch_51">
    <path d="M 318.554229 180.768 
L 322.689605 180.768 
L 322.689605 127.046304 
L 318.554229 127.046304 
z
" clip-path="url(#pd9f80a4438)" style="fill: #488a21; opacity: 0.7"/>
   </g>
   <g id="patch_52">
    <path d="M 322.689605 180.768 
L 326.82498 180.768 
L 326.82498 165.810195 
L 322.689605 165.810195 
z
" clip-path="url(#pd9f80a4438)" style="fill: #488a21; opacity: 0.7"/>
   </g>
   <g id="patch_53">
    <path d="M 326.82498 180.768 
L 330.960356 180.768 
L 330.960356 168.127601 
L 326.82498 168.127601 
z
" clip-path="url(#pd9f80a4438)" style="fill: #488a21; opacity: 0.7"/>
   </g>
   <g id="patch_54">
    <path d="M 330.960356 180.768 
L 335.095731 180.768 
L 335.095731 169.602314 
L 330.960356 169.602314 
z
" clip-path="url(#pd9f80a4438)" style="fill: #488a21; opacity: 0.7"/>
   </g>
   <g id="patch_55">
    <path d="M 335.095731 180.768 
L 339.231107 180.768 
L 339.231107 165.810195 
L 335.095731 165.810195 
z
" clip-path="url(#pd9f80a4438)" style="fill: #488a21; opacity: 0.7"/>
   </g>
   <g id="patch_56">
    <path d="M 339.231107 180.768 
L 343.366482 180.768 
L 343.366482 167.495581 
L 339.231107 167.495581 
z
" clip-path="url(#pd9f80a4438)" style="fill: #488a21; opacity: 0.7"/>
   </g>
   <g id="patch_57">
    <path d="M 343.366482 180.768 
L 347.501858 180.768 
L 347.501858 169.180968 
L 343.366482 169.180968 
z
" clip-path="url(#pd9f80a4438)" style="fill: #488a21; opacity: 0.7"/>
   </g>
   <g id="patch_58">
    <path d="M 347.501858 180.768 
L 351.637233 180.768 
L 351.637233 170.866354 
L 347.501858 170.866354 
z
" clip-path="url(#pd9f80a4438)" style="fill: #488a21; opacity: 0.7"/>
   </g>
   <g id="patch_59">
    <path d="M 351.637233 180.768 
L 355.772609 180.768 
L 355.772609 169.391641 
L 351.637233 169.391641 
z
" clip-path="url(#pd9f80a4438)" style="fill: #488a21; opacity: 0.7"/>
   </g>
   <g id="patch_60">
    <path d="M 355.772609 180.768 
L 359.907984 180.768 
L 359.907984 171.919721 
L 355.772609 171.919721 
z
" clip-path="url(#pd9f80a4438)" style="fill: #488a21; opacity: 0.7"/>
   </g>
   <g id="patch_61">
    <path d="M 359.907984 180.768 
L 364.04336 180.768 
L 364.04336 170.023661 
L 359.907984 170.023661 
z
" clip-path="url(#pd9f80a4438)" style="fill: #488a21; opacity: 0.7"/>
   </g>
   <g id="patch_62">
    <path d="M 364.04336 180.768 
L 368.178735 180.768 
L 368.178735 168.759621 
L 364.04336 168.759621 
z
" clip-path="url(#pd9f80a4438)" style="fill: #488a21; opacity: 0.7"/>
   </g>
   <g id="patch_63">
    <path d="M 368.178735 180.768 
L 372.314111 180.768 
L 372.314111 167.074234 
L 368.178735 167.074234 
z
" clip-path="url(#pd9f80a4438)" style="fill: #488a21; opacity: 0.7"/>
   </g>
   <g id="patch_64">
    <path d="M 372.314111 180.768 
L 376.449486 180.768 
L 376.449486 173.183761 
L 372.314111 173.183761 
z
" clip-path="url(#pd9f80a4438)" style="fill: #488a21; opacity: 0.7"/>
   </g>
   <g id="patch_65">
    <path d="M 376.449486 180.768 
L 380.584862 180.768 
L 380.584862 171.287701 
L 376.449486 171.287701 
z
" clip-path="url(#pd9f80a4438)" style="fill: #488a21; opacity: 0.7"/>
   </g>
   <g id="patch_66">
    <path d="M 380.584862 180.768 
L 384.720237 180.768 
L 384.720237 170.655681 
L 380.584862 170.655681 
z
" clip-path="url(#pd9f80a4438)" style="fill: #488a21; opacity: 0.7"/>
   </g>
   <g id="patch_67">
    <path d="M 384.720237 180.768 
L 388.855613 180.768 
L 388.855613 169.602314 
L 384.720237 169.602314 
z
" clip-path="url(#pd9f80a4438)" style="fill: #488a21; opacity: 0.7"/>
   </g>
   <g id="patch_68">
    <path d="M 388.855613 180.768 
L 392.990988 180.768 
L 392.990988 170.866354 
L 388.855613 170.866354 
z
" clip-path="url(#pd9f80a4438)" style="fill: #488a21; opacity: 0.7"/>
   </g>
   <g id="patch_69">
    <path d="M 392.990988 180.768 
L 397.126364 180.768 
L 397.126364 170.655681 
L 392.990988 170.655681 
z
" clip-path="url(#pd9f80a4438)" style="fill: #488a21; opacity: 0.7"/>
   </g>
   <g id="patch_70">
    <path d="M 397.126364 180.768 
L 401.261739 180.768 
L 401.261739 168.548948 
L 397.126364 168.548948 
z
" clip-path="url(#pd9f80a4438)" style="fill: #488a21; opacity: 0.7"/>
   </g>
   <g id="patch_71">
    <path d="M 401.261739 180.768 
L 405.397115 180.768 
L 405.397115 168.548948 
L 401.261739 168.548948 
z
" clip-path="url(#pd9f80a4438)" style="fill: #488a21; opacity: 0.7"/>
   </g>
   <g id="patch_72">
    <path d="M 405.397115 180.768 
L 409.53249 180.768 
L 409.53249 168.127601 
L 405.397115 168.127601 
z
" clip-path="url(#pd9f80a4438)" style="fill: #488a21; opacity: 0.7"/>
   </g>
   <g id="patch_73">
    <path d="M 409.53249 180.768 
L 413.667866 180.768 
L 413.667866 168.338274 
L 409.53249 168.338274 
z
" clip-path="url(#pd9f80a4438)" style="fill: #488a21; opacity: 0.7"/>
   </g>
   <g id="patch_74">
    <path d="M 413.667866 180.768 
L 417.803241 180.768 
L 417.803241 165.178175 
L 413.667866 165.178175 
z
" clip-path="url(#pd9f80a4438)" style="fill: #488a21; opacity: 0.7"/>
   </g>
   <g id="patch_75">
    <path d="M 417.803241 180.768 
L 421.938617 180.768 
L 421.938617 168.548948 
L 417.803241 168.548948 
z
" clip-path="url(#pd9f80a4438)" style="fill: #488a21; opacity: 0.7"/>
   </g>
   <g id="patch_76">
    <path d="M 421.938617 180.768 
L 426.073992 180.768 
L 426.073992 165.810195 
L 421.938617 165.810195 
z
" clip-path="url(#pd9f80a4438)" style="fill: #488a21; opacity: 0.7"/>
   </g>
   <g id="patch_77">
    <path d="M 426.073992 180.768 
L 430.209368 180.768 
L 430.209368 167.706254 
L 426.073992 167.706254 
z
" clip-path="url(#pd9f80a4438)" style="fill: #488a21; opacity: 0.7"/>
   </g>
   <g id="patch_78">
    <path d="M 430.209368 180.768 
L 434.344743 180.768 
L 434.344743 169.602314 
L 430.209368 169.602314 
z
" clip-path="url(#pd9f80a4438)" style="fill: #488a21; opacity: 0.7"/>
   </g>
   <g id="patch_79">
    <path d="M 434.344743 180.768 
L 438.480119 180.768 
L 438.480119 169.812988 
L 434.344743 169.812988 
z
" clip-path="url(#pd9f80a4438)" style="fill: #488a21; opacity: 0.7"/>
   </g>
   <g id="patch_80">
    <path d="M 438.480119 180.768 
L 442.615494 180.768 
L 442.615494 166.652888 
L 438.480119 166.652888 
z
" clip-path="url(#pd9f80a4438)" style="fill: #488a21; opacity: 0.7"/>
   </g>
   <g id="patch_81">
    <path d="M 442.615494 180.768 
L 446.75087 180.768 
L 446.75087 165.178175 
L 442.615494 165.178175 
z
" clip-path="url(#pd9f80a4438)" style="fill: #488a21; opacity: 0.7"/>
   </g>
   <g id="patch_82">
    <path d="M 446.75087 180.768 
L 450.886245 180.768 
L 450.886245 162.860768 
L 446.75087 162.860768 
z
" clip-path="url(#pd9f80a4438)" style="fill: #488a21; opacity: 0.7"/>
   </g>
   <g id="patch_83">
    <path d="M 450.886245 180.768 
L 455.021621 180.768 
L 455.021621 167.284908 
L 450.886245 167.284908 
z
" clip-path="url(#pd9f80a4438)" style="fill: #488a21; opacity: 0.7"/>
   </g>
   <g id="patch_84">
    <path d="M 455.021621 180.768 
L 459.156996 180.768 
L 459.156996 162.860768 
L 455.021621 162.860768 
z
" clip-path="url(#pd9f80a4438)" style="fill: #488a21; opacity: 0.7"/>
   </g>
   <g id="patch_85">
    <path d="M 459.156996 180.768 
L 463.292372 180.768 
L 463.292372 165.178175 
L 459.156996 165.178175 
z
" clip-path="url(#pd9f80a4438)" style="fill: #488a21; opacity: 0.7"/>
   </g>
   <g id="patch_86">
    <path d="M 463.292372 180.768 
L 467.427747 180.768 
L 467.427747 163.071441 
L 463.292372 163.071441 
z
" clip-path="url(#pd9f80a4438)" style="fill: #488a21; opacity: 0.7"/>
   </g>
   <g id="patch_87">
    <path d="M 467.427747 180.768 
L 471.563123 180.768 
L 471.563123 166.652888 
L 467.427747 166.652888 
z
" clip-path="url(#pd9f80a4438)" style="fill: #488a21; opacity: 0.7"/>
   </g>
   <g id="patch_88">
    <path d="M 471.563123 180.768 
L 475.698498 180.768 
L 475.698498 162.228748 
L 471.563123 162.228748 
z
" clip-path="url(#pd9f80a4438)" style="fill: #488a21; opacity: 0.7"/>
   </g>
   <g id="patch_89">
    <path d="M 475.698498 180.768 
L 479.833874 180.768 
L 479.833874 159.700668 
L 475.698498 159.700668 
z
" clip-path="url(#pd9f80a4438)" style="fill: #488a21; opacity: 0.7"/>
   </g>
   <g id="patch_90">
    <path d="M 479.833874 180.768 
L 483.969249 180.768 
L 483.969249 140.10805 
L 479.833874 140.10805 
z
" clip-path="url(#pd9f80a4438)" style="fill: #488a21; opacity: 0.7"/>
   </g>
   <g id="matplotlib.axis_3">
    <g id="xtick_6">
     <g id="line2d_14">
      <g>
       <use xlink:href="#m21e5b5e566" x="318.554229" y="180.768" style="stroke: #000000; stroke-width: 4"/>
      </g>
     </g>
    </g>
    <g id="xtick_7">
     <g id="line2d_15">
      <g>
       <use xlink:href="#m21e5b5e566" x="359.907984" y="180.768" style="stroke: #000000; stroke-width: 4"/>
      </g>
     </g>
    </g>
    <g id="xtick_8">
     <g id="line2d_16">
      <g>
       <use xlink:href="#m21e5b5e566" x="401.261739" y="180.768" style="stroke: #000000; stroke-width: 4"/>
      </g>
     </g>
    </g>
    <g id="xtick_9">
     <g id="line2d_17">
      <g>
       <use xlink:href="#m21e5b5e566" x="442.615494" y="180.768" style="stroke: #000000; stroke-width: 4"/>
      </g>
     </g>
    </g>
    <g id="xtick_10">
     <g id="line2d_18">
      <g>
       <use xlink:href="#m21e5b5e566" x="483.969249" y="180.768" style="stroke: #000000; stroke-width: 4"/>
      </g>
     </g>
    </g>
   </g>
   <g id="matplotlib.axis_4">
    <g id="ytick_6">
     <g id="line2d_19">
      <g>
       <use xlink:href="#m5905644921" x="310.283478" y="180.768" style="stroke: #000000; stroke-width: 4"/>
      </g>
     </g>
    </g>
    <g id="ytick_7">
     <g id="line2d_20">
      <g>
       <use xlink:href="#m5905644921" x="310.283478" y="151.2" style="stroke: #000000; stroke-width: 4"/>
      </g>
     </g>
    </g>
    <g id="ytick_8">
     <g id="line2d_21">
      <g>
       <use xlink:href="#m5905644921" x="310.283478" y="121.632" style="stroke: #000000; stroke-width: 4"/>
      </g>
     </g>
    </g>
    <g id="ytick_9">
     <g id="line2d_22">
      <g>
       <use xlink:href="#m5905644921" x="310.283478" y="92.064" style="stroke: #000000; stroke-width: 4"/>
      </g>
     </g>
    </g>
    <g id="ytick_10">
     <g id="line2d_23">
      <g>
       <use xlink:href="#m5905644921" x="310.283478" y="62.496" style="stroke: #000000; stroke-width: 4"/>
      </g>
     </g>
    </g>
   </g>
   <g id="line2d_24">
    <path d="M 310.283478 143.808 
L 492.24 143.808 
" clip-path="url(#pd9f80a4438)" style="fill: none; stroke-dasharray: 12,6; stroke-dashoffset: 0; stroke: #000000; stroke-opacity: 0.5; stroke-width: 3"/>
   </g>
   <g id="line2d_25"/>
   <g id="patch_91">
    <path d="M 310.283478 180.768 
L 310.283478 62.496 
" style="fill: none; stroke: #000000; stroke-width: 4; stroke-linejoin: miter; stroke-linecap: square"/>
   </g>
   <g id="patch_92">
    <path d="M 310.283478 180.768 
L 492.24 180.768 
" style="fill: none; stroke: #000000; stroke-width: 4; stroke-linejoin: miter; stroke-linecap: square"/>
   </g>
   <g id="text_7">
    <!-- L5 Pyr -->
    <g transform="translate(374.848989 51.76512) scale(0.1728 -0.1728)">
     <defs>
      <path id="Arial-BoldMT-35" d="M 284 1178 
L 1159 1269 
Q 1197 972 1381 798 
Q 1566 625 1806 625 
Q 2081 625 2272 848 
Q 2463 1072 2463 1522 
Q 2463 1944 2273 2155 
Q 2084 2366 1781 2366 
Q 1403 2366 1103 2031 
L 391 2134 
L 841 4519 
L 3163 4519 
L 3163 3697 
L 1506 3697 
L 1369 2919 
Q 1663 3066 1969 3066 
Q 2553 3066 2959 2641 
Q 3366 2216 3366 1538 
Q 3366 972 3038 528 
Q 2591 -78 1797 -78 
Q 1163 -78 763 262 
Q 363 603 284 1178 
z
" transform="scale(0.015625)"/>
     </defs>
     <use xlink:href="#Arial-BoldMT-4c"/>
     <use xlink:href="#Arial-BoldMT-35" x="61.083984"/>
     <use xlink:href="#Arial-BoldMT-20" x="116.699219"/>
     <use xlink:href="#Arial-BoldMT-50" x="144.482422"/>
     <use xlink:href="#Arial-BoldMT-79" x="211.181641"/>
     <use xlink:href="#Arial-BoldMT-72" x="266.796875"/>
    </g>
   </g>
   <g id="legend_2">
    <g id="patch_93">
     <path d="M 341.229512 95.707398 
L 461.293967 95.707398 
Q 463.293167 95.707398 463.293167 93.708198 
L 463.293167 69.4932 
Q 463.293167 67.494 461.293967 67.494 
L 341.229512 67.494 
Q 339.230312 67.494 339.230312 69.4932 
L 339.230312 93.708198 
Q 339.230312 95.707398 341.229512 95.707398 
z
" style="fill: #ffffff; opacity: 0.8; stroke: #cccccc; stroke-width: 5; stroke-linejoin: miter"/>
    </g>
    <g id="line2d_26">
     <path d="M 343.228712 81.679573 
L 353.224712 81.679573 
L 363.220712 81.679573 
" style="fill: none; stroke: #488a21; stroke-width: 5; stroke-linecap: square"/>
    </g>
    <g id="text_8">
     <!-- 15.92% sig -->
     <g transform="translate(371.217512 78.769176) scale(0.09996 -0.09996)">
      <use xlink:href="#ArialMT-31"/>
      <use xlink:href="#ArialMT-35" x="55.615234"/>
      <use xlink:href="#ArialMT-2e" x="111.230469"/>
      <use xlink:href="#ArialMT-39" x="139.013672"/>
      <use xlink:href="#ArialMT-32" x="194.628906"/>
      <use xlink:href="#ArialMT-25" x="250.244141"/>
      <use xlink:href="#ArialMT-20" x="339.160156"/>
      <use xlink:href="#ArialMT-73" x="366.943359"/>
      <use xlink:href="#ArialMT-69" x="416.943359"/>
      <use xlink:href="#ArialMT-67" x="439.160156"/>
     </g>
     <!-- (255-/192+ of 2807) -->
     <g transform="translate(371.217512 89.605152) scale(0.09996 -0.09996)">
      <defs>
       <path id="ArialMT-37" d="M 303 3981 
L 303 4522 
L 3269 4522 
L 3269 4084 
Q 2831 3619 2401 2847 
Q 1972 2075 1738 1259 
Q 1569 684 1522 0 
L 944 0 
Q 953 541 1156 1306 
Q 1359 2072 1739 2783 
Q 2119 3494 2547 3981 
L 303 3981 
z
" transform="scale(0.015625)"/>
      </defs>
      <use xlink:href="#ArialMT-28"/>
      <use xlink:href="#ArialMT-32" x="33.300781"/>
      <use xlink:href="#ArialMT-35" x="88.916016"/>
      <use xlink:href="#ArialMT-35" x="144.53125"/>
      <use xlink:href="#ArialMT-2d" x="200.146484"/>
      <use xlink:href="#ArialMT-2f" x="233.447266"/>
      <use xlink:href="#ArialMT-31" x="261.230469"/>
      <use xlink:href="#ArialMT-39" x="316.845703"/>
      <use xlink:href="#ArialMT-32" x="372.460938"/>
      <use xlink:href="#ArialMT-2b" x="428.076172"/>
      <use xlink:href="#ArialMT-20" x="486.474609"/>
      <use xlink:href="#ArialMT-6f" x="514.257812"/>
      <use xlink:href="#ArialMT-66" x="569.873047"/>
      <use xlink:href="#ArialMT-20" x="597.65625"/>
      <use xlink:href="#ArialMT-32" x="625.439453"/>
      <use xlink:href="#ArialMT-38" x="681.054688"/>
      <use xlink:href="#ArialMT-30" x="736.669922"/>
      <use xlink:href="#ArialMT-37" x="792.285156"/>
      <use xlink:href="#ArialMT-29" x="847.900391"/>
     </g>
    </g>
   </g>
  </g>
  <g id="axes_3">
   <g id="patch_94">
    <path d="M 73.74 328.608 
L 255.696522 328.608 
L 255.696522 210.336 
L 73.74 210.336 
z
" style="fill: #ffffff"/>
   </g>
   <g id="patch_95">
    <path d="M 82.010751 328.608 
L 82.010751 210.336 
L 86.146126 210.336 
L 86.146126 328.608 
z
" clip-path="url(#p75f7af5558)" style="fill: #871719; opacity: 0.15; stroke: #871719; stroke-width: 2; stroke-linejoin: miter"/>
   </g>
   <g id="patch_96">
    <path d="M 243.290395 328.608 
L 243.290395 210.336 
L 247.425771 210.336 
L 247.425771 328.608 
z
" clip-path="url(#p75f7af5558)" style="fill: #871719; opacity: 0.15; stroke: #871719; stroke-width: 2; stroke-linejoin: miter"/>
   </g>
   <g id="patch_97">
    <path d="M 82.010751 328.608 
L 86.146126 328.608 
L 86.146126 287.19827 
L 82.010751 287.19827 
z
" clip-path="url(#p75f7af5558)" style="fill: #50a2d5; opacity: 0.7"/>
   </g>
   <g id="patch_98">
    <path d="M 86.146126 328.608 
L 90.281502 328.608 
L 90.281502 315.531243 
L 86.146126 315.531243 
z
" clip-path="url(#p75f7af5558)" style="fill: #50a2d5; opacity: 0.7"/>
   </g>
   <g id="patch_99">
    <path d="M 90.281502 328.608 
L 94.416877 328.608 
L 94.416877 320.616649 
L 90.281502 320.616649 
z
" clip-path="url(#p75f7af5558)" style="fill: #50a2d5; opacity: 0.7"/>
   </g>
   <g id="patch_100">
    <path d="M 94.416877 328.608 
L 98.552253 328.608 
L 98.552253 324.249081 
L 94.416877 324.249081 
z
" clip-path="url(#p75f7af5558)" style="fill: #50a2d5; opacity: 0.7"/>
   </g>
   <g id="patch_101">
    <path d="M 98.552253 328.608 
L 102.687628 328.608 
L 102.687628 319.163676 
L 98.552253 319.163676 
z
" clip-path="url(#p75f7af5558)" style="fill: #50a2d5; opacity: 0.7"/>
   </g>
   <g id="patch_102">
    <path d="M 102.687628 328.608 
L 106.823004 328.608 
L 106.823004 323.522595 
L 102.687628 323.522595 
z
" clip-path="url(#p75f7af5558)" style="fill: #50a2d5; opacity: 0.7"/>
   </g>
   <g id="patch_103">
    <path d="M 106.823004 328.608 
L 110.958379 328.608 
L 110.958379 321.343135 
L 106.823004 321.343135 
z
" clip-path="url(#p75f7af5558)" style="fill: #50a2d5; opacity: 0.7"/>
   </g>
   <g id="patch_104">
    <path d="M 110.958379 328.608 
L 115.093755 328.608 
L 115.093755 322.069622 
L 110.958379 322.069622 
z
" clip-path="url(#p75f7af5558)" style="fill: #50a2d5; opacity: 0.7"/>
   </g>
   <g id="patch_105">
    <path d="M 115.093755 328.608 
L 119.22913 328.608 
L 119.22913 322.069622 
L 115.093755 322.069622 
z
" clip-path="url(#p75f7af5558)" style="fill: #50a2d5; opacity: 0.7"/>
   </g>
   <g id="patch_106">
    <path d="M 119.22913 328.608 
L 123.364506 328.608 
L 123.364506 322.796108 
L 119.22913 322.796108 
z
" clip-path="url(#p75f7af5558)" style="fill: #50a2d5; opacity: 0.7"/>
   </g>
   <g id="patch_107">
    <path d="M 123.364506 328.608 
L 127.499881 328.608 
L 127.499881 325.702054 
L 123.364506 325.702054 
z
" clip-path="url(#p75f7af5558)" style="fill: #50a2d5; opacity: 0.7"/>
   </g>
   <g id="patch_108">
    <path d="M 127.499881 328.608 
L 131.635257 328.608 
L 131.635257 323.522595 
L 127.499881 323.522595 
z
" clip-path="url(#p75f7af5558)" style="fill: #50a2d5; opacity: 0.7"/>
   </g>
   <g id="patch_109">
    <path d="M 131.635257 328.608 
L 135.770632 328.608 
L 135.770632 324.975568 
L 131.635257 324.975568 
z
" clip-path="url(#p75f7af5558)" style="fill: #50a2d5; opacity: 0.7"/>
   </g>
   <g id="patch_110">
    <path d="M 135.770632 328.608 
L 139.906008 328.608 
L 139.906008 324.975568 
L 135.770632 324.975568 
z
" clip-path="url(#p75f7af5558)" style="fill: #50a2d5; opacity: 0.7"/>
   </g>
   <g id="patch_111">
    <path d="M 139.906008 328.608 
L 144.041383 328.608 
L 144.041383 324.249081 
L 139.906008 324.249081 
z
" clip-path="url(#p75f7af5558)" style="fill: #50a2d5; opacity: 0.7"/>
   </g>
   <g id="patch_112">
    <path d="M 144.041383 328.608 
L 148.176759 328.608 
L 148.176759 320.616649 
L 144.041383 320.616649 
z
" clip-path="url(#p75f7af5558)" style="fill: #50a2d5; opacity: 0.7"/>
   </g>
   <g id="patch_113">
    <path d="M 148.176759 328.608 
L 152.312134 328.608 
L 152.312134 324.249081 
L 148.176759 324.249081 
z
" clip-path="url(#p75f7af5558)" style="fill: #50a2d5; opacity: 0.7"/>
   </g>
   <g id="patch_114">
    <path d="M 152.312134 328.608 
L 156.44751 328.608 
L 156.44751 325.702054 
L 152.312134 325.702054 
z
" clip-path="url(#p75f7af5558)" style="fill: #50a2d5; opacity: 0.7"/>
   </g>
   <g id="patch_115">
    <path d="M 156.44751 328.608 
L 160.582885 328.608 
L 160.582885 324.249081 
L 156.44751 324.249081 
z
" clip-path="url(#p75f7af5558)" style="fill: #50a2d5; opacity: 0.7"/>
   </g>
   <g id="patch_116">
    <path d="M 160.582885 328.608 
L 164.718261 328.608 
L 164.718261 324.249081 
L 160.582885 324.249081 
z
" clip-path="url(#p75f7af5558)" style="fill: #50a2d5; opacity: 0.7"/>
   </g>
   <g id="patch_117">
    <path d="M 164.718261 328.608 
L 168.853636 328.608 
L 168.853636 324.975568 
L 164.718261 324.975568 
z
" clip-path="url(#p75f7af5558)" style="fill: #50a2d5; opacity: 0.7"/>
   </g>
   <g id="patch_118">
    <path d="M 168.853636 328.608 
L 172.989012 328.608 
L 172.989012 324.249081 
L 168.853636 324.249081 
z
" clip-path="url(#p75f7af5558)" style="fill: #50a2d5; opacity: 0.7"/>
   </g>
   <g id="patch_119">
    <path d="M 172.989012 328.608 
L 177.124387 328.608 
L 177.124387 321.343135 
L 172.989012 321.343135 
z
" clip-path="url(#p75f7af5558)" style="fill: #50a2d5; opacity: 0.7"/>
   </g>
   <g id="patch_120">
    <path d="M 177.124387 328.608 
L 181.259763 328.608 
L 181.259763 325.702054 
L 177.124387 325.702054 
z
" clip-path="url(#p75f7af5558)" style="fill: #50a2d5; opacity: 0.7"/>
   </g>
   <g id="patch_121">
    <path d="M 181.259763 328.608 
L 185.395138 328.608 
L 185.395138 323.522595 
L 181.259763 323.522595 
z
" clip-path="url(#p75f7af5558)" style="fill: #50a2d5; opacity: 0.7"/>
   </g>
   <g id="patch_122">
    <path d="M 185.395138 328.608 
L 189.530514 328.608 
L 189.530514 325.702054 
L 185.395138 325.702054 
z
" clip-path="url(#p75f7af5558)" style="fill: #50a2d5; opacity: 0.7"/>
   </g>
   <g id="patch_123">
    <path d="M 189.530514 328.608 
L 193.665889 328.608 
L 193.665889 322.796108 
L 189.530514 322.796108 
z
" clip-path="url(#p75f7af5558)" style="fill: #50a2d5; opacity: 0.7"/>
   </g>
   <g id="patch_124">
    <path d="M 193.665889 328.608 
L 197.801265 328.608 
L 197.801265 328.608 
L 193.665889 328.608 
z
" clip-path="url(#p75f7af5558)" style="fill: #50a2d5; opacity: 0.7"/>
   </g>
   <g id="patch_125">
    <path d="M 197.801265 328.608 
L 201.93664 328.608 
L 201.93664 324.975568 
L 197.801265 324.975568 
z
" clip-path="url(#p75f7af5558)" style="fill: #50a2d5; opacity: 0.7"/>
   </g>
   <g id="patch_126">
    <path d="M 201.93664 328.608 
L 206.072016 328.608 
L 206.072016 324.975568 
L 201.93664 324.975568 
z
" clip-path="url(#p75f7af5558)" style="fill: #50a2d5; opacity: 0.7"/>
   </g>
   <g id="patch_127">
    <path d="M 206.072016 328.608 
L 210.207391 328.608 
L 210.207391 322.796108 
L 206.072016 322.796108 
z
" clip-path="url(#p75f7af5558)" style="fill: #50a2d5; opacity: 0.7"/>
   </g>
   <g id="patch_128">
    <path d="M 210.207391 328.608 
L 214.342767 328.608 
L 214.342767 322.069622 
L 210.207391 322.069622 
z
" clip-path="url(#p75f7af5558)" style="fill: #50a2d5; opacity: 0.7"/>
   </g>
   <g id="patch_129">
    <path d="M 214.342767 328.608 
L 218.478142 328.608 
L 218.478142 322.796108 
L 214.342767 322.796108 
z
" clip-path="url(#p75f7af5558)" style="fill: #50a2d5; opacity: 0.7"/>
   </g>
   <g id="patch_130">
    <path d="M 218.478142 328.608 
L 222.613518 328.608 
L 222.613518 326.428541 
L 218.478142 326.428541 
z
" clip-path="url(#p75f7af5558)" style="fill: #50a2d5; opacity: 0.7"/>
   </g>
   <g id="patch_131">
    <path d="M 222.613518 328.608 
L 226.748893 328.608 
L 226.748893 324.975568 
L 222.613518 324.975568 
z
" clip-path="url(#p75f7af5558)" style="fill: #50a2d5; opacity: 0.7"/>
   </g>
   <g id="patch_132">
    <path d="M 226.748893 328.608 
L 230.884269 328.608 
L 230.884269 323.522595 
L 226.748893 323.522595 
z
" clip-path="url(#p75f7af5558)" style="fill: #50a2d5; opacity: 0.7"/>
   </g>
   <g id="patch_133">
    <path d="M 230.884269 328.608 
L 235.019644 328.608 
L 235.019644 320.616649 
L 230.884269 320.616649 
z
" clip-path="url(#p75f7af5558)" style="fill: #50a2d5; opacity: 0.7"/>
   </g>
   <g id="patch_134">
    <path d="M 235.019644 328.608 
L 239.15502 328.608 
L 239.15502 319.890162 
L 235.019644 319.890162 
z
" clip-path="url(#p75f7af5558)" style="fill: #50a2d5; opacity: 0.7"/>
   </g>
   <g id="patch_135">
    <path d="M 239.15502 328.608 
L 243.290395 328.608 
L 243.290395 320.616649 
L 239.15502 320.616649 
z
" clip-path="url(#p75f7af5558)" style="fill: #50a2d5; opacity: 0.7"/>
   </g>
   <g id="patch_136">
    <path d="M 243.290395 328.608 
L 247.425771 328.608 
L 247.425771 277.027459 
L 243.290395 277.027459 
z
" clip-path="url(#p75f7af5558)" style="fill: #50a2d5; opacity: 0.7"/>
   </g>
   <g id="matplotlib.axis_5">
    <g id="xtick_11">
     <g id="line2d_27">
      <g>
       <use xlink:href="#m21e5b5e566" x="82.010751" y="328.608" style="stroke: #000000; stroke-width: 4"/>
      </g>
     </g>
     <g id="text_9">
      <!-- 0 -->
      <g transform="translate(77.206101 352.4767) scale(0.1728 -0.1728)">
       <use xlink:href="#Arial-BoldMT-30"/>
      </g>
     </g>
    </g>
    <g id="xtick_12">
     <g id="line2d_28">
      <g>
       <use xlink:href="#m21e5b5e566" x="123.364506" y="328.608" style="stroke: #000000; stroke-width: 4"/>
      </g>
     </g>
     <g id="text_10">
      <!-- 25 -->
      <g transform="translate(113.755206 352.4767) scale(0.1728 -0.1728)">
       <use xlink:href="#Arial-BoldMT-32"/>
       <use xlink:href="#Arial-BoldMT-35" x="55.615234"/>
      </g>
     </g>
    </g>
    <g id="xtick_13">
     <g id="line2d_29">
      <g>
       <use xlink:href="#m21e5b5e566" x="164.718261" y="328.608" style="stroke: #000000; stroke-width: 4"/>
      </g>
     </g>
     <g id="text_11">
      <!-- 50 -->
      <g transform="translate(155.108961 352.4767) scale(0.1728 -0.1728)">
       <use xlink:href="#Arial-BoldMT-35"/>
       <use xlink:href="#Arial-BoldMT-30" x="55.615234"/>
      </g>
     </g>
    </g>
    <g id="xtick_14">
     <g id="line2d_30">
      <g>
       <use xlink:href="#m21e5b5e566" x="206.072016" y="328.608" style="stroke: #000000; stroke-width: 4"/>
      </g>
     </g>
     <g id="text_12">
      <!-- 75 -->
      <g transform="translate(196.462716 352.4767) scale(0.1728 -0.1728)">
       <defs>
        <path id="Arial-BoldMT-37" d="M 272 3703 
L 272 4519 
L 3275 4519 
L 3275 3881 
Q 2903 3516 2518 2831 
Q 2134 2147 1932 1376 
Q 1731 606 1734 0 
L 888 0 
Q 909 950 1279 1937 
Q 1650 2925 2269 3703 
L 272 3703 
z
" transform="scale(0.015625)"/>
       </defs>
       <use xlink:href="#Arial-BoldMT-37"/>
       <use xlink:href="#Arial-BoldMT-35" x="55.615234"/>
      </g>
     </g>
    </g>
    <g id="xtick_15">
     <g id="line2d_31">
      <g>
       <use xlink:href="#m21e5b5e566" x="247.425771" y="328.608" style="stroke: #000000; stroke-width: 4"/>
      </g>
     </g>
     <g id="text_13">
      <!-- 100 -->
      <g transform="translate(233.011821 352.4767) scale(0.1728 -0.1728)">
       <defs>
        <path id="Arial-BoldMT-31" d="M 2519 0 
L 1641 0 
L 1641 3309 
Q 1159 2859 506 2644 
L 506 3441 
Q 850 3553 1253 3867 
Q 1656 4181 1806 4600 
L 2519 4600 
L 2519 0 
z
" transform="scale(0.015625)"/>
       </defs>
       <use xlink:href="#Arial-BoldMT-31"/>
       <use xlink:href="#Arial-BoldMT-30" x="55.615234"/>
       <use xlink:href="#Arial-BoldMT-30" x="111.230469"/>
      </g>
     </g>
    </g>
   </g>
   <g id="matplotlib.axis_6">
    <g id="ytick_11">
     <g id="line2d_32">
      <g>
       <use xlink:href="#m5905644921" x="73.74" y="328.608" style="stroke: #000000; stroke-width: 4"/>
      </g>
     </g>
     <g id="text_14">
      <!-- 0 -->
      <g transform="translate(52.6307 334.79235) scale(0.1728 -0.1728)">
       <use xlink:href="#Arial-BoldMT-30"/>
      </g>
     </g>
    </g>
    <g id="ytick_12">
     <g id="line2d_33">
      <g>
       <use xlink:href="#m5905644921" x="73.74" y="299.04" style="stroke: #000000; stroke-width: 4"/>
      </g>
     </g>
    </g>
    <g id="ytick_13">
     <g id="line2d_34">
      <g>
       <use xlink:href="#m5905644921" x="73.74" y="269.472" style="stroke: #000000; stroke-width: 4"/>
      </g>
     </g>
     <g id="text_15">
      <!-- 0.08 -->
      <g transform="translate(28.6115 275.65635) scale(0.1728 -0.1728)">
       <use xlink:href="#Arial-BoldMT-30"/>
       <use xlink:href="#Arial-BoldMT-2e" x="55.615234"/>
       <use xlink:href="#Arial-BoldMT-30" x="83.398438"/>
       <use xlink:href="#Arial-BoldMT-38" x="139.013672"/>
      </g>
     </g>
    </g>
    <g id="ytick_14">
     <g id="line2d_35">
      <g>
       <use xlink:href="#m5905644921" x="73.74" y="239.904" style="stroke: #000000; stroke-width: 4"/>
      </g>
     </g>
    </g>
    <g id="ytick_15">
     <g id="line2d_36">
      <g>
       <use xlink:href="#m5905644921" x="73.74" y="210.336" style="stroke: #000000; stroke-width: 4"/>
      </g>
     </g>
     <g id="text_16">
      <!-- 0.16 -->
      <g transform="translate(28.6115 216.52035) scale(0.1728 -0.1728)">
       <defs>
        <path id="Arial-BoldMT-36" d="M 3247 3459 
L 2397 3366 
Q 2366 3628 2234 3753 
Q 2103 3878 1894 3878 
Q 1616 3878 1423 3628 
Q 1231 3378 1181 2588 
Q 1509 2975 1997 2975 
Q 2547 2975 2939 2556 
Q 3331 2138 3331 1475 
Q 3331 772 2918 347 
Q 2506 -78 1859 -78 
Q 1166 -78 719 461 
Q 272 1000 272 2228 
Q 272 3488 737 4044 
Q 1203 4600 1947 4600 
Q 2469 4600 2811 4308 
Q 3153 4016 3247 3459 
z
M 1256 1544 
Q 1256 1116 1453 883 
Q 1650 650 1903 650 
Q 2147 650 2309 840 
Q 2472 1031 2472 1466 
Q 2472 1913 2297 2120 
Q 2122 2328 1859 2328 
Q 1606 2328 1431 2129 
Q 1256 1931 1256 1544 
z
" transform="scale(0.015625)"/>
       </defs>
       <use xlink:href="#Arial-BoldMT-30"/>
       <use xlink:href="#Arial-BoldMT-2e" x="55.615234"/>
       <use xlink:href="#Arial-BoldMT-31" x="83.398438"/>
       <use xlink:href="#Arial-BoldMT-36" x="139.013672"/>
      </g>
     </g>
    </g>
   </g>
   <g id="line2d_37">
    <path d="M 73.74 310.128 
L 255.696522 310.128 
" clip-path="url(#p75f7af5558)" style="fill: none; stroke-dasharray: 12,6; stroke-dashoffset: 0; stroke: #000000; stroke-opacity: 0.5; stroke-width: 3"/>
   </g>
   <g id="line2d_38"/>
   <g id="patch_137">
    <path d="M 73.74 328.608 
L 73.74 210.336 
" style="fill: none; stroke: #000000; stroke-width: 4; stroke-linejoin: miter; stroke-linecap: square"/>
   </g>
   <g id="patch_138">
    <path d="M 73.74 328.608 
L 255.696522 328.608 
" style="fill: none; stroke: #000000; stroke-width: 4; stroke-linejoin: miter; stroke-linecap: square"/>
   </g>
   <g id="legend_3">
    <g id="patch_139">
     <path d="M 113.024103 243.547398 
L 216.412419 243.547398 
Q 218.411619 243.547398 218.411619 241.548198 
L 218.411619 217.3332 
Q 218.411619 215.334 216.412419 215.334 
L 113.024103 215.334 
Q 111.024903 215.334 111.024903 217.3332 
L 111.024903 241.548198 
Q 111.024903 243.547398 113.024103 243.547398 
z
" style="fill: #ffffff; opacity: 0.8; stroke: #cccccc; stroke-width: 5; stroke-linejoin: miter"/>
    </g>
    <g id="line2d_39">
     <path d="M 115.023303 229.519573 
L 125.019303 229.519573 
L 135.015303 229.519573 
" style="fill: none; stroke: #50a2d5; stroke-width: 5; stroke-linecap: square"/>
    </g>
    <g id="text_17">
     <!-- 31.45% sig -->
     <g transform="translate(143.012103 226.609176) scale(0.09996 -0.09996)">
      <defs>
       <path id="ArialMT-34" d="M 2069 0 
L 2069 1097 
L 81 1097 
L 81 1613 
L 2172 4581 
L 2631 4581 
L 2631 1613 
L 3250 1613 
L 3250 1097 
L 2631 1097 
L 2631 0 
L 2069 0 
z
M 2069 1613 
L 2069 3678 
L 634 1613 
L 2069 1613 
z
" transform="scale(0.015625)"/>
      </defs>
      <use xlink:href="#ArialMT-33"/>
      <use xlink:href="#ArialMT-31" x="55.615234"/>
      <use xlink:href="#ArialMT-2e" x="111.230469"/>
      <use xlink:href="#ArialMT-34" x="139.013672"/>
      <use xlink:href="#ArialMT-35" x="194.628906"/>
      <use xlink:href="#ArialMT-25" x="250.244141"/>
      <use xlink:href="#ArialMT-20" x="339.160156"/>
      <use xlink:href="#ArialMT-73" x="366.943359"/>
      <use xlink:href="#ArialMT-69" x="416.943359"/>
      <use xlink:href="#ArialMT-67" x="439.160156"/>
     </g>
     <!-- (57-/71+ of 407) -->
     <g transform="translate(143.012103 237.445152) scale(0.09996 -0.09996)">
      <use xlink:href="#ArialMT-28"/>
      <use xlink:href="#ArialMT-35" x="33.300781"/>
      <use xlink:href="#ArialMT-37" x="88.916016"/>
      <use xlink:href="#ArialMT-2d" x="144.53125"/>
      <use xlink:href="#ArialMT-2f" x="177.832031"/>
      <use xlink:href="#ArialMT-37" x="205.615234"/>
      <use xlink:href="#ArialMT-31" x="261.230469"/>
      <use xlink:href="#ArialMT-2b" x="316.845703"/>
      <use xlink:href="#ArialMT-20" x="375.244141"/>
      <use xlink:href="#ArialMT-6f" x="403.027344"/>
      <use xlink:href="#ArialMT-66" x="458.642578"/>
      <use xlink:href="#ArialMT-20" x="486.425781"/>
      <use xlink:href="#ArialMT-34" x="514.208984"/>
      <use xlink:href="#ArialMT-30" x="569.824219"/>
      <use xlink:href="#ArialMT-37" x="625.439453"/>
      <use xlink:href="#ArialMT-29" x="681.054688"/>
     </g>
    </g>
   </g>
  </g>
  <g id="axes_4">
   <g id="patch_140">
    <path d="M 310.283478 328.608 
L 492.24 328.608 
L 492.24 210.336 
L 310.283478 210.336 
z
" style="fill: #ffffff"/>
   </g>
   <g id="patch_141">
    <path d="M 318.554229 328.608 
L 318.554229 210.336 
L 322.689605 210.336 
L 322.689605 328.608 
z
" clip-path="url(#p8f78b35b9e)" style="fill: #871719; opacity: 0.15; stroke: #871719; stroke-width: 2; stroke-linejoin: miter"/>
   </g>
   <g id="patch_142">
    <path d="M 479.833874 328.608 
L 479.833874 210.336 
L 483.969249 210.336 
L 483.969249 328.608 
z
" clip-path="url(#p8f78b35b9e)" style="fill: #871719; opacity: 0.15; stroke: #871719; stroke-width: 2; stroke-linejoin: miter"/>
   </g>
   <g id="patch_143">
    <path d="M 318.554229 328.608 
L 322.689605 328.608 
L 322.689605 308.316235 
L 318.554229 308.316235 
z
" clip-path="url(#p8f78b35b9e)" style="fill: #22567a; opacity: 0.7"/>
   </g>
   <g id="patch_144">
    <path d="M 322.689605 328.608 
L 326.82498 328.608 
L 326.82498 322.810353 
L 322.689605 322.810353 
z
" clip-path="url(#p8f78b35b9e)" style="fill: #22567a; opacity: 0.7"/>
   </g>
   <g id="patch_145">
    <path d="M 326.82498 328.608 
L 330.960356 328.608 
L 330.960356 324.259765 
L 326.82498 324.259765 
z
" clip-path="url(#p8f78b35b9e)" style="fill: #22567a; opacity: 0.7"/>
   </g>
   <g id="patch_146">
    <path d="M 330.960356 328.608 
L 335.095731 328.608 
L 335.095731 325.709176 
L 330.960356 325.709176 
z
" clip-path="url(#p8f78b35b9e)" style="fill: #22567a; opacity: 0.7"/>
   </g>
   <g id="patch_147">
    <path d="M 335.095731 328.608 
L 339.231107 328.608 
L 339.231107 324.259765 
L 335.095731 324.259765 
z
" clip-path="url(#p8f78b35b9e)" style="fill: #22567a; opacity: 0.7"/>
   </g>
   <g id="patch_148">
    <path d="M 339.231107 328.608 
L 343.366482 328.608 
L 343.366482 325.709176 
L 339.231107 325.709176 
z
" clip-path="url(#p8f78b35b9e)" style="fill: #22567a; opacity: 0.7"/>
   </g>
   <g id="patch_149">
    <path d="M 343.366482 328.608 
L 347.501858 328.608 
L 347.501858 321.360941 
L 343.366482 321.360941 
z
" clip-path="url(#p8f78b35b9e)" style="fill: #22567a; opacity: 0.7"/>
   </g>
   <g id="patch_150">
    <path d="M 347.501858 328.608 
L 351.637233 328.608 
L 351.637233 319.911529 
L 347.501858 319.911529 
z
" clip-path="url(#p8f78b35b9e)" style="fill: #22567a; opacity: 0.7"/>
   </g>
   <g id="patch_151">
    <path d="M 351.637233 328.608 
L 355.772609 328.608 
L 355.772609 327.158588 
L 351.637233 327.158588 
z
" clip-path="url(#p8f78b35b9e)" style="fill: #22567a; opacity: 0.7"/>
   </g>
   <g id="patch_152">
    <path d="M 355.772609 328.608 
L 359.907984 328.608 
L 359.907984 325.709176 
L 355.772609 325.709176 
z
" clip-path="url(#p8f78b35b9e)" style="fill: #22567a; opacity: 0.7"/>
   </g>
   <g id="patch_153">
    <path d="M 359.907984 328.608 
L 364.04336 328.608 
L 364.04336 319.911529 
L 359.907984 319.911529 
z
" clip-path="url(#p8f78b35b9e)" style="fill: #22567a; opacity: 0.7"/>
   </g>
   <g id="patch_154">
    <path d="M 364.04336 328.608 
L 368.178735 328.608 
L 368.178735 324.259765 
L 364.04336 324.259765 
z
" clip-path="url(#p8f78b35b9e)" style="fill: #22567a; opacity: 0.7"/>
   </g>
   <g id="patch_155">
    <path d="M 368.178735 328.608 
L 372.314111 328.608 
L 372.314111 322.810353 
L 368.178735 322.810353 
z
" clip-path="url(#p8f78b35b9e)" style="fill: #22567a; opacity: 0.7"/>
   </g>
   <g id="patch_156">
    <path d="M 372.314111 328.608 
L 376.449486 328.608 
L 376.449486 322.810353 
L 372.314111 322.810353 
z
" clip-path="url(#p8f78b35b9e)" style="fill: #22567a; opacity: 0.7"/>
   </g>
   <g id="patch_157">
    <path d="M 376.449486 328.608 
L 380.584862 328.608 
L 380.584862 322.810353 
L 376.449486 322.810353 
z
" clip-path="url(#p8f78b35b9e)" style="fill: #22567a; opacity: 0.7"/>
   </g>
   <g id="patch_158">
    <path d="M 380.584862 328.608 
L 384.720237 328.608 
L 384.720237 324.259765 
L 380.584862 324.259765 
z
" clip-path="url(#p8f78b35b9e)" style="fill: #22567a; opacity: 0.7"/>
   </g>
   <g id="patch_159">
    <path d="M 384.720237 328.608 
L 388.855613 328.608 
L 388.855613 324.259765 
L 384.720237 324.259765 
z
" clip-path="url(#p8f78b35b9e)" style="fill: #22567a; opacity: 0.7"/>
   </g>
   <g id="patch_160">
    <path d="M 388.855613 328.608 
L 392.990988 328.608 
L 392.990988 321.360941 
L 388.855613 321.360941 
z
" clip-path="url(#p8f78b35b9e)" style="fill: #22567a; opacity: 0.7"/>
   </g>
   <g id="patch_161">
    <path d="M 392.990988 328.608 
L 397.126364 328.608 
L 397.126364 324.259765 
L 392.990988 324.259765 
z
" clip-path="url(#p8f78b35b9e)" style="fill: #22567a; opacity: 0.7"/>
   </g>
   <g id="patch_162">
    <path d="M 397.126364 328.608 
L 401.261739 328.608 
L 401.261739 324.259765 
L 397.126364 324.259765 
z
" clip-path="url(#p8f78b35b9e)" style="fill: #22567a; opacity: 0.7"/>
   </g>
   <g id="patch_163">
    <path d="M 401.261739 328.608 
L 405.397115 328.608 
L 405.397115 324.259765 
L 401.261739 324.259765 
z
" clip-path="url(#p8f78b35b9e)" style="fill: #22567a; opacity: 0.7"/>
   </g>
   <g id="patch_164">
    <path d="M 405.397115 328.608 
L 409.53249 328.608 
L 409.53249 328.608 
L 405.397115 328.608 
z
" clip-path="url(#p8f78b35b9e)" style="fill: #22567a; opacity: 0.7"/>
   </g>
   <g id="patch_165">
    <path d="M 409.53249 328.608 
L 413.667866 328.608 
L 413.667866 327.158588 
L 409.53249 327.158588 
z
" clip-path="url(#p8f78b35b9e)" style="fill: #22567a; opacity: 0.7"/>
   </g>
   <g id="patch_166">
    <path d="M 413.667866 328.608 
L 417.803241 328.608 
L 417.803241 318.462118 
L 413.667866 318.462118 
z
" clip-path="url(#p8f78b35b9e)" style="fill: #22567a; opacity: 0.7"/>
   </g>
   <g id="patch_167">
    <path d="M 417.803241 328.608 
L 421.938617 328.608 
L 421.938617 321.360941 
L 417.803241 321.360941 
z
" clip-path="url(#p8f78b35b9e)" style="fill: #22567a; opacity: 0.7"/>
   </g>
   <g id="patch_168">
    <path d="M 421.938617 328.608 
L 426.073992 328.608 
L 426.073992 324.259765 
L 421.938617 324.259765 
z
" clip-path="url(#p8f78b35b9e)" style="fill: #22567a; opacity: 0.7"/>
   </g>
   <g id="patch_169">
    <path d="M 426.073992 328.608 
L 430.209368 328.608 
L 430.209368 324.259765 
L 426.073992 324.259765 
z
" clip-path="url(#p8f78b35b9e)" style="fill: #22567a; opacity: 0.7"/>
   </g>
   <g id="patch_170">
    <path d="M 430.209368 328.608 
L 434.344743 328.608 
L 434.344743 325.709176 
L 430.209368 325.709176 
z
" clip-path="url(#p8f78b35b9e)" style="fill: #22567a; opacity: 0.7"/>
   </g>
   <g id="patch_171">
    <path d="M 434.344743 328.608 
L 438.480119 328.608 
L 438.480119 324.259765 
L 434.344743 324.259765 
z
" clip-path="url(#p8f78b35b9e)" style="fill: #22567a; opacity: 0.7"/>
   </g>
   <g id="patch_172">
    <path d="M 438.480119 328.608 
L 442.615494 328.608 
L 442.615494 318.462118 
L 438.480119 318.462118 
z
" clip-path="url(#p8f78b35b9e)" style="fill: #22567a; opacity: 0.7"/>
   </g>
   <g id="patch_173">
    <path d="M 442.615494 328.608 
L 446.75087 328.608 
L 446.75087 325.709176 
L 442.615494 325.709176 
z
" clip-path="url(#p8f78b35b9e)" style="fill: #22567a; opacity: 0.7"/>
   </g>
   <g id="patch_174">
    <path d="M 446.75087 328.608 
L 450.886245 328.608 
L 450.886245 327.158588 
L 446.75087 327.158588 
z
" clip-path="url(#p8f78b35b9e)" style="fill: #22567a; opacity: 0.7"/>
   </g>
   <g id="patch_175">
    <path d="M 450.886245 328.608 
L 455.021621 328.608 
L 455.021621 328.608 
L 450.886245 328.608 
z
" clip-path="url(#p8f78b35b9e)" style="fill: #22567a; opacity: 0.7"/>
   </g>
   <g id="patch_176">
    <path d="M 455.021621 328.608 
L 459.156996 328.608 
L 459.156996 327.158588 
L 455.021621 327.158588 
z
" clip-path="url(#p8f78b35b9e)" style="fill: #22567a; opacity: 0.7"/>
   </g>
   <g id="patch_177">
    <path d="M 459.156996 328.608 
L 463.292372 328.608 
L 463.292372 327.158588 
L 459.156996 327.158588 
z
" clip-path="url(#p8f78b35b9e)" style="fill: #22567a; opacity: 0.7"/>
   </g>
   <g id="patch_178">
    <path d="M 463.292372 328.608 
L 467.427747 328.608 
L 467.427747 319.911529 
L 463.292372 319.911529 
z
" clip-path="url(#p8f78b35b9e)" style="fill: #22567a; opacity: 0.7"/>
   </g>
   <g id="patch_179">
    <path d="M 467.427747 328.608 
L 471.563123 328.608 
L 471.563123 327.158588 
L 467.427747 327.158588 
z
" clip-path="url(#p8f78b35b9e)" style="fill: #22567a; opacity: 0.7"/>
   </g>
   <g id="patch_180">
    <path d="M 471.563123 328.608 
L 475.698498 328.608 
L 475.698498 318.462118 
L 471.563123 318.462118 
z
" clip-path="url(#p8f78b35b9e)" style="fill: #22567a; opacity: 0.7"/>
   </g>
   <g id="patch_181">
    <path d="M 475.698498 328.608 
L 479.833874 328.608 
L 479.833874 318.462118 
L 475.698498 318.462118 
z
" clip-path="url(#p8f78b35b9e)" style="fill: #22567a; opacity: 0.7"/>
   </g>
   <g id="patch_182">
    <path d="M 479.833874 328.608 
L 483.969249 328.608 
L 483.969249 235.845647 
L 479.833874 235.845647 
z
" clip-path="url(#p8f78b35b9e)" style="fill: #22567a; opacity: 0.7"/>
   </g>
   <g id="matplotlib.axis_7">
    <g id="xtick_16">
     <g id="line2d_40">
      <g>
       <use xlink:href="#m21e5b5e566" x="318.554229" y="328.608" style="stroke: #000000; stroke-width: 4"/>
      </g>
     </g>
    </g>
    <g id="xtick_17">
     <g id="line2d_41">
      <g>
       <use xlink:href="#m21e5b5e566" x="359.907984" y="328.608" style="stroke: #000000; stroke-width: 4"/>
      </g>
     </g>
    </g>
    <g id="xtick_18">
     <g id="line2d_42">
      <g>
       <use xlink:href="#m21e5b5e566" x="401.261739" y="328.608" style="stroke: #000000; stroke-width: 4"/>
      </g>
     </g>
    </g>
    <g id="xtick_19">
     <g id="line2d_43">
      <g>
       <use xlink:href="#m21e5b5e566" x="442.615494" y="328.608" style="stroke: #000000; stroke-width: 4"/>
      </g>
     </g>
    </g>
    <g id="xtick_20">
     <g id="line2d_44">
      <g>
       <use xlink:href="#m21e5b5e566" x="483.969249" y="328.608" style="stroke: #000000; stroke-width: 4"/>
      </g>
     </g>
    </g>
   </g>
   <g id="matplotlib.axis_8">
    <g id="ytick_16">
     <g id="line2d_45">
      <g>
       <use xlink:href="#m5905644921" x="310.283478" y="328.608" style="stroke: #000000; stroke-width: 4"/>
      </g>
     </g>
    </g>
    <g id="ytick_17">
     <g id="line2d_46">
      <g>
       <use xlink:href="#m5905644921" x="310.283478" y="299.04" style="stroke: #000000; stroke-width: 4"/>
      </g>
     </g>
    </g>
    <g id="ytick_18">
     <g id="line2d_47">
      <g>
       <use xlink:href="#m5905644921" x="310.283478" y="269.472" style="stroke: #000000; stroke-width: 4"/>
      </g>
     </g>
    </g>
    <g id="ytick_19">
     <g id="line2d_48">
      <g>
       <use xlink:href="#m5905644921" x="310.283478" y="239.904" style="stroke: #000000; stroke-width: 4"/>
      </g>
     </g>
    </g>
    <g id="ytick_20">
     <g id="line2d_49">
      <g>
       <use xlink:href="#m5905644921" x="310.283478" y="210.336" style="stroke: #000000; stroke-width: 4"/>
      </g>
     </g>
    </g>
   </g>
   <g id="line2d_50">
    <path d="M 310.283478 310.128 
L 492.24 310.128 
" clip-path="url(#p8f78b35b9e)" style="fill: none; stroke-dasharray: 12,6; stroke-dashoffset: 0; stroke: #000000; stroke-opacity: 0.5; stroke-width: 3"/>
   </g>
   <g id="line2d_51"/>
   <g id="patch_183">
    <path d="M 310.283478 328.608 
L 310.283478 210.336 
" style="fill: none; stroke: #000000; stroke-width: 4; stroke-linejoin: miter; stroke-linecap: square"/>
   </g>
   <g id="patch_184">
    <path d="M 310.283478 328.608 
L 492.24 328.608 
" style="fill: none; stroke: #000000; stroke-width: 4; stroke-linejoin: miter; stroke-linecap: square"/>
   </g>
   <g id="legend_4">
    <g id="patch_185">
     <path d="M 349.567581 243.547398 
L 452.955897 243.547398 
Q 454.955097 243.547398 454.955097 241.548198 
L 454.955097 217.3332 
Q 454.955097 215.334 452.955897 215.334 
L 349.567581 215.334 
Q 347.568381 215.334 347.568381 217.3332 
L 347.568381 241.548198 
Q 347.568381 243.547398 349.567581 243.547398 
z
" style="fill: #ffffff; opacity: 0.8; stroke: #cccccc; stroke-width: 5; stroke-linejoin: miter"/>
    </g>
    <g id="line2d_52">
     <path d="M 351.566781 229.519573 
L 361.562781 229.519573 
L 371.558781 229.519573 
" style="fill: none; stroke: #22567a; stroke-width: 5; stroke-linecap: square"/>
    </g>
    <g id="text_18">
     <!-- 38.24% sig -->
     <g transform="translate(379.555581 226.609176) scale(0.09996 -0.09996)">
      <use xlink:href="#ArialMT-33"/>
      <use xlink:href="#ArialMT-38" x="55.615234"/>
      <use xlink:href="#ArialMT-2e" x="111.230469"/>
      <use xlink:href="#ArialMT-32" x="139.013672"/>
      <use xlink:href="#ArialMT-34" x="194.628906"/>
      <use xlink:href="#ArialMT-25" x="250.244141"/>
      <use xlink:href="#ArialMT-20" x="339.160156"/>
      <use xlink:href="#ArialMT-73" x="366.943359"/>
      <use xlink:href="#ArialMT-69" x="416.943359"/>
      <use xlink:href="#ArialMT-67" x="439.160156"/>
     </g>
     <!-- (14-/64+ of 204) -->
     <g transform="translate(379.555581 237.445152) scale(0.09996 -0.09996)">
      <use xlink:href="#ArialMT-28"/>
      <use xlink:href="#ArialMT-31" x="33.300781"/>
      <use xlink:href="#ArialMT-34" x="88.916016"/>
      <use xlink:href="#ArialMT-2d" x="144.53125"/>
      <use xlink:href="#ArialMT-2f" x="177.832031"/>
      <use xlink:href="#ArialMT-36" x="205.615234"/>
      <use xlink:href="#ArialMT-34" x="261.230469"/>
      <use xlink:href="#ArialMT-2b" x="316.845703"/>
      <use xlink:href="#ArialMT-20" x="375.244141"/>
      <use xlink:href="#ArialMT-6f" x="403.027344"/>
      <use xlink:href="#ArialMT-66" x="458.642578"/>
      <use xlink:href="#ArialMT-20" x="486.425781"/>
      <use xlink:href="#ArialMT-32" x="514.208984"/>
      <use xlink:href="#ArialMT-30" x="569.824219"/>
      <use xlink:href="#ArialMT-34" x="625.439453"/>
      <use xlink:href="#ArialMT-29" x="681.054688"/>
     </g>
    </g>
   </g>
  </g>
  <g id="text_19">
   <!-- Gabor sequence percentiles -->
   <g transform="translate(160.52475 19.7793) scale(0.1728 -0.1728)">
    <defs>
     <path id="Arial-BoldMT-47" d="M 2597 1684 
L 2597 2456 
L 4591 2456 
L 4591 631 
Q 4300 350 3748 136 
Q 3197 -78 2631 -78 
Q 1913 -78 1378 223 
Q 844 525 575 1086 
Q 306 1647 306 2306 
Q 306 3022 606 3578 
Q 906 4134 1484 4431 
Q 1925 4659 2581 4659 
Q 3434 4659 3914 4301 
Q 4394 3944 4531 3313 
L 3613 3141 
Q 3516 3478 3248 3673 
Q 2981 3869 2581 3869 
Q 1975 3869 1617 3484 
Q 1259 3100 1259 2344 
Q 1259 1528 1621 1120 
Q 1984 713 2572 713 
Q 2863 713 3155 827 
Q 3447 941 3656 1103 
L 3656 1684 
L 2597 1684 
z
" transform="scale(0.015625)"/>
     <path id="Arial-BoldMT-61" d="M 1116 2306 
L 319 2450 
Q 453 2931 781 3162 
Q 1109 3394 1756 3394 
Q 2344 3394 2631 3255 
Q 2919 3116 3036 2902 
Q 3153 2688 3153 2116 
L 3144 1091 
Q 3144 653 3186 445 
Q 3228 238 3344 0 
L 2475 0 
Q 2441 88 2391 259 
Q 2369 338 2359 363 
Q 2134 144 1878 34 
Q 1622 -75 1331 -75 
Q 819 -75 523 203 
Q 228 481 228 906 
Q 228 1188 362 1408 
Q 497 1628 739 1745 
Q 981 1863 1438 1950 
Q 2053 2066 2291 2166 
L 2291 2253 
Q 2291 2506 2166 2614 
Q 2041 2722 1694 2722 
Q 1459 2722 1328 2630 
Q 1197 2538 1116 2306 
z
M 2291 1594 
Q 2122 1538 1756 1459 
Q 1391 1381 1278 1306 
Q 1106 1184 1106 997 
Q 1106 813 1243 678 
Q 1381 544 1594 544 
Q 1831 544 2047 700 
Q 2206 819 2256 991 
Q 2291 1103 2291 1419 
L 2291 1594 
z
" transform="scale(0.015625)"/>
     <path id="Arial-BoldMT-62" d="M 422 0 
L 422 4581 
L 1300 4581 
L 1300 2931 
Q 1706 3394 2263 3394 
Q 2869 3394 3266 2955 
Q 3663 2516 3663 1694 
Q 3663 844 3258 384 
Q 2853 -75 2275 -75 
Q 1991 -75 1714 67 
Q 1438 209 1238 488 
L 1238 0 
L 422 0 
z
M 1294 1731 
Q 1294 1216 1456 969 
Q 1684 619 2063 619 
Q 2353 619 2558 867 
Q 2763 1116 2763 1650 
Q 2763 2219 2556 2470 
Q 2350 2722 2028 2722 
Q 1713 2722 1503 2476 
Q 1294 2231 1294 1731 
z
" transform="scale(0.015625)"/>
     <path id="Arial-BoldMT-6f" d="M 256 1706 
Q 256 2144 472 2553 
Q 688 2963 1083 3178 
Q 1478 3394 1966 3394 
Q 2719 3394 3200 2905 
Q 3681 2416 3681 1669 
Q 3681 916 3195 420 
Q 2709 -75 1972 -75 
Q 1516 -75 1102 131 
Q 688 338 472 736 
Q 256 1134 256 1706 
z
M 1156 1659 
Q 1156 1166 1390 903 
Q 1625 641 1969 641 
Q 2313 641 2545 903 
Q 2778 1166 2778 1666 
Q 2778 2153 2545 2415 
Q 2313 2678 1969 2678 
Q 1625 2678 1390 2415 
Q 1156 2153 1156 1659 
z
" transform="scale(0.015625)"/>
     <path id="Arial-BoldMT-73" d="M 150 947 
L 1031 1081 
Q 1088 825 1259 692 
Q 1431 559 1741 559 
Q 2081 559 2253 684 
Q 2369 772 2369 919 
Q 2369 1019 2306 1084 
Q 2241 1147 2013 1200 
Q 950 1434 666 1628 
Q 272 1897 272 2375 
Q 272 2806 612 3100 
Q 953 3394 1669 3394 
Q 2350 3394 2681 3172 
Q 3013 2950 3138 2516 
L 2309 2363 
Q 2256 2556 2107 2659 
Q 1959 2763 1684 2763 
Q 1338 2763 1188 2666 
Q 1088 2597 1088 2488 
Q 1088 2394 1175 2328 
Q 1294 2241 1995 2081 
Q 2697 1922 2975 1691 
Q 3250 1456 3250 1038 
Q 3250 581 2869 253 
Q 2488 -75 1741 -75 
Q 1063 -75 667 200 
Q 272 475 150 947 
z
" transform="scale(0.015625)"/>
     <path id="Arial-BoldMT-65" d="M 2381 1056 
L 3256 909 
Q 3088 428 2723 176 
Q 2359 -75 1813 -75 
Q 947 -75 531 491 
Q 203 944 203 1634 
Q 203 2459 634 2926 
Q 1066 3394 1725 3394 
Q 2466 3394 2894 2905 
Q 3322 2416 3303 1406 
L 1103 1406 
Q 1113 1016 1316 798 
Q 1519 581 1822 581 
Q 2028 581 2168 693 
Q 2309 806 2381 1056 
z
M 2431 1944 
Q 2422 2325 2234 2523 
Q 2047 2722 1778 2722 
Q 1491 2722 1303 2513 
Q 1116 2303 1119 1944 
L 2431 1944 
z
" transform="scale(0.015625)"/>
     <path id="Arial-BoldMT-71" d="M 2628 -1263 
L 2628 406 
Q 2456 184 2200 54 
Q 1944 -75 1647 -75 
Q 1081 -75 716 350 
Q 284 847 284 1697 
Q 284 2497 689 2945 
Q 1094 3394 1694 3394 
Q 2025 3394 2267 3253 
Q 2509 3113 2697 2828 
L 2697 3319 
L 3506 3319 
L 3506 -1263 
L 2628 -1263 
z
M 2656 1700 
Q 2656 2209 2448 2457 
Q 2241 2706 1928 2706 
Q 1609 2706 1395 2453 
Q 1181 2200 1181 1650 
Q 1181 1103 1387 861 
Q 1594 619 1897 619 
Q 2200 619 2428 891 
Q 2656 1163 2656 1700 
z
" transform="scale(0.015625)"/>
     <path id="Arial-BoldMT-75" d="M 2644 0 
L 2644 497 
Q 2463 231 2167 78 
Q 1872 -75 1544 -75 
Q 1209 -75 943 72 
Q 678 219 559 484 
Q 441 750 441 1219 
L 441 3319 
L 1319 3319 
L 1319 1794 
Q 1319 1094 1367 936 
Q 1416 778 1544 686 
Q 1672 594 1869 594 
Q 2094 594 2272 717 
Q 2450 841 2515 1023 
Q 2581 1206 2581 1919 
L 2581 3319 
L 3459 3319 
L 3459 0 
L 2644 0 
z
" transform="scale(0.015625)"/>
     <path id="Arial-BoldMT-6e" d="M 3478 0 
L 2600 0 
L 2600 1694 
Q 2600 2231 2544 2389 
Q 2488 2547 2361 2634 
Q 2234 2722 2056 2722 
Q 1828 2722 1647 2597 
Q 1466 2472 1398 2265 
Q 1331 2059 1331 1503 
L 1331 0 
L 453 0 
L 453 3319 
L 1269 3319 
L 1269 2831 
Q 1703 3394 2363 3394 
Q 2653 3394 2893 3289 
Q 3134 3184 3257 3021 
Q 3381 2859 3429 2653 
Q 3478 2447 3478 2063 
L 3478 0 
z
" transform="scale(0.015625)"/>
     <path id="Arial-BoldMT-63" d="M 3353 2338 
L 2488 2181 
Q 2444 2441 2289 2572 
Q 2134 2703 1888 2703 
Q 1559 2703 1364 2476 
Q 1169 2250 1169 1719 
Q 1169 1128 1367 884 
Q 1566 641 1900 641 
Q 2150 641 2309 783 
Q 2469 925 2534 1272 
L 3397 1125 
Q 3263 531 2881 228 
Q 2500 -75 1859 -75 
Q 1131 -75 698 384 
Q 266 844 266 1656 
Q 266 2478 700 2936 
Q 1134 3394 1875 3394 
Q 2481 3394 2839 3133 
Q 3197 2872 3353 2338 
z
" transform="scale(0.015625)"/>
     <path id="Arial-BoldMT-70" d="M 434 3319 
L 1253 3319 
L 1253 2831 
Q 1413 3081 1684 3237 
Q 1956 3394 2288 3394 
Q 2866 3394 3269 2941 
Q 3672 2488 3672 1678 
Q 3672 847 3265 386 
Q 2859 -75 2281 -75 
Q 2006 -75 1782 34 
Q 1559 144 1313 409 
L 1313 -1263 
L 434 -1263 
L 434 3319 
z
M 1303 1716 
Q 1303 1156 1525 889 
Q 1747 622 2066 622 
Q 2372 622 2575 867 
Q 2778 1113 2778 1672 
Q 2778 2194 2568 2447 
Q 2359 2700 2050 2700 
Q 1728 2700 1515 2451 
Q 1303 2203 1303 1716 
z
" transform="scale(0.015625)"/>
     <path id="Arial-BoldMT-74" d="M 1981 3319 
L 1981 2619 
L 1381 2619 
L 1381 1281 
Q 1381 875 1398 808 
Q 1416 741 1477 697 
Q 1538 653 1625 653 
Q 1747 653 1978 738 
L 2053 56 
Q 1747 -75 1359 -75 
Q 1122 -75 931 4 
Q 741 84 652 211 
Q 563 338 528 553 
Q 500 706 500 1172 
L 500 2619 
L 97 2619 
L 97 3319 
L 500 3319 
L 500 3978 
L 1381 4491 
L 1381 3319 
L 1981 3319 
z
" transform="scale(0.015625)"/>
     <path id="Arial-BoldMT-69" d="M 459 3769 
L 459 4581 
L 1338 4581 
L 1338 3769 
L 459 3769 
z
M 459 0 
L 459 3319 
L 1338 3319 
L 1338 0 
L 459 0 
z
" transform="scale(0.015625)"/>
     <path id="Arial-BoldMT-6c" d="M 459 0 
L 459 4581 
L 1338 4581 
L 1338 0 
L 459 0 
z
" transform="scale(0.015625)"/>
    </defs>
    <use xlink:href="#Arial-BoldMT-47"/>
    <use xlink:href="#Arial-BoldMT-61" x="77.783203"/>
    <use xlink:href="#Arial-BoldMT-62" x="133.398438"/>
    <use xlink:href="#Arial-BoldMT-6f" x="194.482422"/>
    <use xlink:href="#Arial-BoldMT-72" x="255.566406"/>
    <use xlink:href="#Arial-BoldMT-20" x="294.482422"/>
    <use xlink:href="#Arial-BoldMT-73" x="322.265625"/>
    <use xlink:href="#Arial-BoldMT-65" x="377.880859"/>
    <use xlink:href="#Arial-BoldMT-71" x="433.496094"/>
    <use xlink:href="#Arial-BoldMT-75" x="494.580078"/>
    <use xlink:href="#Arial-BoldMT-65" x="555.664062"/>
    <use xlink:href="#Arial-BoldMT-6e" x="611.279297"/>
    <use xlink:href="#Arial-BoldMT-63" x="672.363281"/>
    <use xlink:href="#Arial-BoldMT-65" x="727.978516"/>
    <use xlink:href="#Arial-BoldMT-20" x="783.59375"/>
    <use xlink:href="#Arial-BoldMT-70" x="811.376953"/>
    <use xlink:href="#Arial-BoldMT-65" x="872.460938"/>
    <use xlink:href="#Arial-BoldMT-72" x="928.076172"/>
    <use xlink:href="#Arial-BoldMT-63" x="966.992188"/>
    <use xlink:href="#Arial-BoldMT-65" x="1022.607422"/>
    <use xlink:href="#Arial-BoldMT-6e" x="1078.222656"/>
    <use xlink:href="#Arial-BoldMT-74" x="1139.306641"/>
    <use xlink:href="#Arial-BoldMT-69" x="1172.607422"/>
    <use xlink:href="#Arial-BoldMT-6c" x="1200.390625"/>
    <use xlink:href="#Arial-BoldMT-65" x="1228.173828"/>
    <use xlink:href="#Arial-BoldMT-73" x="1283.789062"/>
   </g>
  </g>
  <g id="text_20">
   <!-- dendrites -->
   <g transform="translate(558.6087 160.5174) rotate(-90) scale(0.1728 -0.1728)">
    <defs>
     <path id="Arial-BoldMT-64" d="M 3503 0 
L 2688 0 
L 2688 488 
Q 2484 203 2207 64 
Q 1931 -75 1650 -75 
Q 1078 -75 670 386 
Q 263 847 263 1672 
Q 263 2516 659 2955 
Q 1056 3394 1663 3394 
Q 2219 3394 2625 2931 
L 2625 4581 
L 3503 4581 
L 3503 0 
z
M 1159 1731 
Q 1159 1200 1306 963 
Q 1519 619 1900 619 
Q 2203 619 2415 876 
Q 2628 1134 2628 1647 
Q 2628 2219 2422 2470 
Q 2216 2722 1894 2722 
Q 1581 2722 1370 2473 
Q 1159 2225 1159 1731 
z
" transform="scale(0.015625)"/>
    </defs>
    <use xlink:href="#Arial-BoldMT-64"/>
    <use xlink:href="#Arial-BoldMT-65" x="61.083984"/>
    <use xlink:href="#Arial-BoldMT-6e" x="116.699219"/>
    <use xlink:href="#Arial-BoldMT-64" x="177.783203"/>
    <use xlink:href="#Arial-BoldMT-72" x="238.867188"/>
    <use xlink:href="#Arial-BoldMT-69" x="277.783203"/>
    <use xlink:href="#Arial-BoldMT-74" x="305.566406"/>
    <use xlink:href="#Arial-BoldMT-65" x="338.867188"/>
    <use xlink:href="#Arial-BoldMT-73" x="394.482422"/>
   </g>
  </g>
  <g id="text_21">
   <!-- somata -->
   <g transform="translate(558.6087 299.7228) rotate(-90) scale(0.1728 -0.1728)">
    <defs>
     <path id="Arial-BoldMT-6d" d="M 394 3319 
L 1203 3319 
L 1203 2866 
Q 1638 3394 2238 3394 
Q 2556 3394 2790 3262 
Q 3025 3131 3175 2866 
Q 3394 3131 3647 3262 
Q 3900 3394 4188 3394 
Q 4553 3394 4806 3245 
Q 5059 3097 5184 2809 
Q 5275 2597 5275 2122 
L 5275 0 
L 4397 0 
L 4397 1897 
Q 4397 2391 4306 2534 
Q 4184 2722 3931 2722 
Q 3747 2722 3584 2609 
Q 3422 2497 3350 2280 
Q 3278 2063 3278 1594 
L 3278 0 
L 2400 0 
L 2400 1819 
Q 2400 2303 2353 2443 
Q 2306 2584 2207 2653 
Q 2109 2722 1941 2722 
Q 1738 2722 1575 2612 
Q 1413 2503 1342 2297 
Q 1272 2091 1272 1613 
L 1272 0 
L 394 0 
L 394 3319 
z
" transform="scale(0.015625)"/>
    </defs>
    <use xlink:href="#Arial-BoldMT-73"/>
    <use xlink:href="#Arial-BoldMT-6f" x="55.615234"/>
    <use xlink:href="#Arial-BoldMT-6d" x="116.699219"/>
    <use xlink:href="#Arial-BoldMT-61" x="205.615234"/>
    <use xlink:href="#Arial-BoldMT-74" x="261.230469"/>
    <use xlink:href="#Arial-BoldMT-61" x="294.53125"/>
   </g>
  </g>
  <g id="text_22">
   <!-- Index -->
   <g transform="translate(253.6761 370.08) scale(0.1728 -0.1728)">
    <defs>
     <path id="Arial-BoldMT-49" d="M 438 0 
L 438 4581 
L 1363 4581 
L 1363 0 
L 438 0 
z
" transform="scale(0.015625)"/>
     <path id="Arial-BoldMT-78" d="M 38 0 
L 1234 1709 
L 88 3319 
L 1159 3319 
L 1747 2406 
L 2366 3319 
L 3397 3319 
L 2272 1747 
L 3500 0 
L 2422 0 
L 1747 1028 
L 1066 0 
L 38 0 
z
" transform="scale(0.015625)"/>
    </defs>
    <use xlink:href="#Arial-BoldMT-49"/>
    <use xlink:href="#Arial-BoldMT-6e" x="27.783203"/>
    <use xlink:href="#Arial-BoldMT-64" x="88.867188"/>
    <use xlink:href="#Arial-BoldMT-65" x="149.951172"/>
    <use xlink:href="#Arial-BoldMT-78" x="205.566406"/>
   </g>
  </g>
  <g id="text_23">
   <!-- Density -->
   <g transform="translate(19.5687 152.83995) rotate(-90) scale(0.1728 -0.1728)">
    <defs>
     <path id="Arial-BoldMT-44" d="M 463 4581 
L 2153 4581 
Q 2725 4581 3025 4494 
Q 3428 4375 3715 4072 
Q 4003 3769 4153 3330 
Q 4303 2891 4303 2247 
Q 4303 1681 4163 1272 
Q 3991 772 3672 463 
Q 3431 228 3022 97 
Q 2716 0 2203 0 
L 463 0 
L 463 4581 
z
M 1388 3806 
L 1388 772 
L 2078 772 
Q 2466 772 2638 816 
Q 2863 872 3011 1006 
Q 3159 1141 3253 1448 
Q 3347 1756 3347 2288 
Q 3347 2819 3253 3103 
Q 3159 3388 2990 3547 
Q 2822 3706 2563 3763 
Q 2369 3806 1803 3806 
L 1388 3806 
z
" transform="scale(0.015625)"/>
    </defs>
    <use xlink:href="#Arial-BoldMT-44"/>
    <use xlink:href="#Arial-BoldMT-65" x="72.216797"/>
    <use xlink:href="#Arial-BoldMT-6e" x="127.832031"/>
    <use xlink:href="#Arial-BoldMT-73" x="188.916016"/>
    <use xlink:href="#Arial-BoldMT-69" x="244.53125"/>
    <use xlink:href="#Arial-BoldMT-74" x="272.314453"/>
    <use xlink:href="#Arial-BoldMT-79" x="305.615234"/>
   </g>
  </g>
 </g>
 <defs>
  <clipPath id="p71451a793e">
   <rect x="73.74" y="62.496" width="181.956522" height="118.272"/>
  </clipPath>
  <clipPath id="pd9f80a4438">
   <rect x="310.283478" y="62.496" width="181.956522" height="118.272"/>
  </clipPath>
  <clipPath id="p75f7af5558">
   <rect x="73.74" y="210.336" width="181.956522" height="118.272"/>
  </clipPath>
  <clipPath id="p8f78b35b9e">
   <rect x="310.283478" y="210.336" width="181.956522" height="118.272"/>
  </clipPath>
 </defs>
</svg>
