<?xml version="1.0" encoding="utf-8" standalone="no"?>
<!DOCTYPE svg PUBLIC "-//W3C//DTD SVG 1.1//EN"
  "http://www.w3.org/Graphics/SVG/1.1/DTD/svg11.dtd">
<!-- Created with matplotlib (https://matplotlib.org/) -->
<svg height="344.0684pt" version="1.1" viewBox="0 0 363.23174 344.0684" width="363.23174pt" xmlns="http://www.w3.org/2000/svg" xmlns:xlink="http://www.w3.org/1999/xlink">
 <metadata>
  <rdf:RDF xmlns:cc="http://creativecommons.org/ns#" xmlns:dc="http://purl.org/dc/elements/1.1/" xmlns:rdf="http://www.w3.org/1999/02/22-rdf-syntax-ns#">
   <cc:Work>
    <dc:type rdf:resource="http://purl.org/dc/dcmitype/StillImage"/>
    <dc:date>2023-02-19T02:57:58.653327</dc:date>
    <dc:format>image/svg+xml</dc:format>
    <dc:creator>
     <cc:Agent>
      <dc:title>Matplotlib v3.3.4, https://matplotlib.org/</dc:title>
     </cc:Agent>
    </dc:creator>
   </cc:Work>
  </rdf:RDF>
 </metadata>
 <defs>
  <style type="text/css">*{stroke-linecap:butt;stroke-linejoin:round;}</style>
 </defs>
 <g id="figure_1">
  <g id="patch_1">
   <path d="M 0 344.0684 
L 363.23174 344.0684 
L 363.23174 0 
L 0 0 
z
" style="fill:#ffffff;"/>
  </g>
  <g id="axes_1">
   <g id="patch_2">
    <path d="M 109.66214 151.27513 
L 344.02214 151.27513 
L 344.02214 45.216 
L 109.66214 45.216 
z
" style="fill:#ffffff;"/>
   </g>
   <g id="line2d_1">
    <path clip-path="url(#pea6f97367c)" d="M 250.27814 151.27513 
L 250.27814 45.216 
" style="fill:none;stroke:#000000;stroke-dasharray:9,6;stroke-dashoffset:0;stroke-opacity:0.5;stroke-width:3;"/>
   </g>
   <g id="PolyCollection_1">
    <path clip-path="url(#pea6f97367c)" d="M 109.66214 93.86132 
L 109.66214 106.177289 
L 112.295398 106.253602 
L 114.928657 104.879113 
L 117.561915 106.317499 
L 120.195174 105.9437 
L 122.828432 106.23561 
L 125.461691 106.002381 
L 128.094949 106.191476 
L 130.728207 105.670239 
L 133.361466 106.064692 
L 135.994724 106.323664 
L 138.627983 105.991144 
L 141.261241 105.678011 
L 143.8945 106.081803 
L 146.527758 106.568734 
L 149.161016 107.721296 
L 151.794275 106.763439 
L 154.427533 107.561474 
L 157.060792 107.076603 
L 159.69405 107.391641 
L 162.327309 106.775464 
L 164.960567 107.843112 
L 167.593825 107.472982 
L 170.227084 107.98135 
L 172.860342 108.324058 
L 175.493601 108.639662 
L 178.126859 109.236089 
L 180.760118 109.312956 
L 183.393376 109.475654 
L 186.026634 109.496496 
L 188.659893 109.533204 
L 191.293151 109.965956 
L 193.92641 109.68753 
L 196.559668 111.134776 
L 199.192927 110.575056 
L 201.826185 111.170087 
L 204.459443 110.157525 
L 207.092702 110.243591 
L 209.72596 109.06973 
L 212.359219 109.751296 
L 214.992477 109.797968 
L 217.625736 110.092822 
L 220.258994 110.399223 
L 222.892252 109.952079 
L 225.525511 110.537295 
L 228.158769 110.459249 
L 230.792028 110.497304 
L 233.425286 110.457055 
L 236.058544 110.392912 
L 238.691803 110.629688 
L 241.325061 110.54546 
L 243.95832 111.445955 
L 246.591578 110.201795 
L 249.224837 111.093837 
L 251.858095 110.206578 
L 254.491353 109.85356 
L 257.124612 108.856386 
L 259.75787 110.383339 
L 262.391129 109.909718 
L 265.024387 109.877164 
L 267.657646 109.695342 
L 270.290904 109.414497 
L 272.924162 108.427784 
L 275.557421 109.207052 
L 278.190679 109.585019 
L 280.823938 109.576421 
L 283.457196 109.537692 
L 286.090455 109.221564 
L 288.723713 109.519571 
L 291.356971 109.493074 
L 293.99023 109.376542 
L 296.623488 109.104094 
L 299.256747 108.877852 
L 301.890005 108.998177 
L 304.523264 108.819001 
L 307.156522 108.856312 
L 309.78978 108.689501 
L 312.423039 107.767665 
L 315.056297 108.04483 
L 317.689556 107.982552 
L 320.322814 107.42549 
L 322.956073 107.325696 
L 325.589331 106.803217 
L 328.222589 106.805473 
L 330.855848 106.507087 
L 333.489106 106.825134 
L 336.122365 107.114476 
L 338.755623 107.828212 
L 341.388882 106.754792 
L 344.02214 107.219177 
L 344.02214 94.920647 
L 344.02214 94.920647 
L 341.388882 94.442823 
L 338.755623 95.554747 
L 336.122365 94.811014 
L 333.489106 94.519518 
L 330.855848 94.199115 
L 328.222589 94.499483 
L 325.589331 94.501741 
L 322.956073 95.027884 
L 320.322814 95.13799 
L 317.689556 95.695855 
L 315.056297 95.769439 
L 312.423039 95.496773 
L 309.78978 96.434392 
L 307.156522 96.591309 
L 304.523264 96.566222 
L 301.890005 96.742127 
L 299.256747 96.6135 
L 296.623488 96.851875 
L 293.99023 97.124862 
L 291.356971 97.2481 
L 288.723713 97.280333 
L 286.090455 96.986917 
L 283.457196 97.301356 
L 280.823938 97.338445 
L 278.190679 97.35061 
L 275.557421 96.967166 
L 272.924162 96.165175 
L 270.290904 97.160324 
L 267.657646 97.451542 
L 265.024387 97.628329 
L 262.391129 97.665768 
L 259.75787 98.16814 
L 257.124612 96.584513 
L 254.491353 97.623056 
L 251.858095 97.992562 
L 249.224837 98.899969 
L 246.591578 97.986426 
L 243.95832 99.284742 
L 241.325061 98.344484 
L 238.691803 98.433956 
L 236.058544 98.196766 
L 233.425286 98.276372 
L 230.792028 98.306531 
L 228.158769 98.26894 
L 225.525511 98.336966 
L 222.892252 97.749336 
L 220.258994 98.19338 
L 217.625736 97.890026 
L 214.992477 97.597301 
L 212.359219 97.557896 
L 209.72596 96.826598 
L 207.092702 98.043906 
L 204.459443 97.958446 
L 201.826185 98.979946 
L 199.192927 98.377326 
L 196.559668 98.971553 
L 193.92641 97.471039 
L 191.293151 97.756517 
L 188.659893 97.315511 
L 186.026634 97.280854 
L 183.393376 97.252651 
L 180.760118 97.101553 
L 178.126859 97.015715 
L 175.493601 96.411837 
L 172.860342 96.094127 
L 170.227084 95.760749 
L 167.593825 95.235056 
L 164.960567 95.615261 
L 162.327309 94.507198 
L 159.69405 95.158828 
L 157.060792 94.842041 
L 154.427533 95.343674 
L 151.794275 94.522766 
L 149.161016 95.511883 
L 146.527758 94.32271 
L 143.8945 93.827662 
L 141.261241 93.411126 
L 138.627983 93.722893 
L 135.994724 94.047898 
L 133.361466 93.78721 
L 130.728207 93.385794 
L 128.094949 93.909724 
L 125.461691 93.714485 
L 122.828432 93.951074 
L 120.195174 93.64624 
L 117.561915 94.014915 
L 114.928657 92.536877 
L 112.295398 93.948091 
L 109.66214 93.86132 
z
" style="fill:#969696;fill-opacity:0.5;"/>
   </g>
   <g id="PolyCollection_2">
    <path clip-path="url(#pea6f97367c)" d="M 109.66214 76.155187 
L 109.66214 120.674874 
L 112.295398 120.040648 
L 114.928657 119.664098 
L 117.561915 120.823979 
L 120.195174 122.456745 
L 122.828432 124.867056 
L 125.461691 123.329026 
L 128.094949 126.579084 
L 130.728207 125.328197 
L 133.361466 127.776824 
L 135.994724 127.866759 
L 138.627983 129.718347 
L 141.261241 129.35627 
L 143.8945 128.881295 
L 146.527758 129.785007 
L 149.161016 130.848203 
L 151.794275 129.984652 
L 154.427533 130.907708 
L 157.060792 130.698767 
L 159.69405 131.285045 
L 162.327309 131.050135 
L 164.960567 132.952427 
L 167.593825 131.835311 
L 170.227084 133.316031 
L 172.860342 132.70604 
L 175.493601 130.982477 
L 178.126859 131.613069 
L 180.760118 131.382657 
L 183.393376 129.752619 
L 186.026634 130.413827 
L 188.659893 129.680886 
L 191.293151 129.215647 
L 193.92641 131.090095 
L 196.559668 132.48946 
L 199.192927 131.477925 
L 201.826185 130.05274 
L 204.459443 130.355924 
L 207.092702 130.177444 
L 209.72596 128.618803 
L 212.359219 129.046951 
L 214.992477 128.017343 
L 217.625736 128.348616 
L 220.258994 129.368549 
L 222.892252 129.069085 
L 225.525511 129.770164 
L 228.158769 129.705534 
L 230.792028 129.028227 
L 233.425286 128.227208 
L 236.058544 129.089931 
L 238.691803 126.70359 
L 241.325061 127.455017 
L 243.95832 128.254144 
L 246.591578 125.846878 
L 249.224837 125.946698 
L 251.858095 123.636427 
L 254.491353 124.070224 
L 257.124612 120.013552 
L 259.75787 121.954423 
L 262.391129 121.660479 
L 265.024387 122.922431 
L 267.657646 122.40317 
L 270.290904 122.728347 
L 272.924162 122.413762 
L 275.557421 121.922667 
L 278.190679 121.970947 
L 280.823938 123.192835 
L 283.457196 121.6249 
L 286.090455 121.494908 
L 288.723713 122.968752 
L 291.356971 120.560282 
L 293.99023 121.336118 
L 296.623488 123.043568 
L 299.256747 121.843833 
L 301.890005 119.69541 
L 304.523264 121.479672 
L 307.156522 121.368921 
L 309.78978 120.324311 
L 312.423039 120.374257 
L 315.056297 123.203688 
L 317.689556 120.96447 
L 320.322814 121.381143 
L 322.956073 120.368856 
L 325.589331 120.221703 
L 328.222589 119.561704 
L 330.855848 118.124368 
L 333.489106 119.059584 
L 336.122365 118.914144 
L 338.755623 119.619469 
L 341.388882 117.948566 
L 344.02214 119.278429 
L 344.02214 74.674155 
L 344.02214 74.674155 
L 341.388882 73.24001 
L 338.755623 75.057694 
L 336.122365 74.284856 
L 333.489106 74.494243 
L 330.855848 73.557192 
L 328.222589 75.070395 
L 325.589331 75.796813 
L 322.956073 75.972796 
L 320.322814 77.163782 
L 317.689556 76.68483 
L 315.056297 78.982597 
L 312.423039 76.088005 
L 309.78978 76.051944 
L 307.156522 76.998351 
L 304.523264 77.240041 
L 301.890005 75.375613 
L 299.256747 77.53401 
L 296.623488 78.747786 
L 293.99023 76.896458 
L 291.356971 76.124089 
L 288.723713 78.637382 
L 286.090455 77.117173 
L 283.457196 77.330211 
L 280.823938 78.890489 
L 278.190679 77.528372 
L 275.557421 77.51525 
L 272.924162 77.944261 
L 270.290904 78.345858 
L 267.657646 78.111577 
L 265.024387 78.69674 
L 262.391129 77.359457 
L 259.75787 77.766865 
L 257.124612 75.56233 
L 254.491353 79.873479 
L 251.858095 79.263305 
L 249.224837 81.667037 
L 246.591578 81.498597 
L 243.95832 84.207617 
L 241.325061 83.307479 
L 238.691803 82.636579 
L 236.058544 84.887625 
L 233.425286 84.048452 
L 230.792028 84.867066 
L 228.158769 85.582323 
L 225.525511 85.5345 
L 222.892252 84.852126 
L 220.258994 85.136292 
L 217.625736 83.987113 
L 214.992477 83.630585 
L 212.359219 84.728264 
L 209.72596 84.213421 
L 207.092702 85.932353 
L 204.459443 86.15278 
L 201.826185 85.809005 
L 199.192927 87.120711 
L 196.559668 88.377443 
L 193.92641 86.747142 
L 191.293151 84.831447 
L 188.659893 85.228082 
L 186.026634 86.039274 
L 183.393376 85.271781 
L 180.760118 87.126495 
L 178.126859 87.210547 
L 175.493601 86.714116 
L 172.860342 88.429214 
L 170.227084 89.021176 
L 167.593825 87.490489 
L 164.960567 88.601696 
L 162.327309 86.460312 
L 159.69405 87.001577 
L 157.060792 86.429588 
L 154.427533 86.534337 
L 151.794275 85.716867 
L 149.161016 86.741778 
L 146.527758 85.612156 
L 143.8945 84.647841 
L 141.261241 85.145126 
L 138.627983 85.373048 
L 135.994724 83.472454 
L 133.361466 83.372282 
L 130.728207 80.884579 
L 128.094949 82.176974 
L 125.461691 78.930232 
L 122.828432 80.378281 
L 120.195174 77.975888 
L 117.561915 76.297955 
L 114.928657 74.989231 
L 112.295398 75.444695 
L 109.66214 76.155187 
z
" style="fill:#eb3920;fill-opacity:0.2;"/>
   </g>
   <g id="matplotlib.axis_1">
    <g id="xtick_1">
     <g id="line2d_2">
      <defs>
       <path d="M 0 0 
L 0 8 
" id="m2350ef4031" style="stroke:#000000;stroke-width:4;"/>
      </defs>
      <g>
       <use style="stroke:#000000;stroke-width:4;" x="109.66214" xlink:href="#m2350ef4031" y="151.27513"/>
      </g>
     </g>
    </g>
    <g id="xtick_2">
     <g id="line2d_3">
      <g>
       <use style="stroke:#000000;stroke-width:4;" x="156.53414" xlink:href="#m2350ef4031" y="151.27513"/>
      </g>
     </g>
    </g>
    <g id="xtick_3">
     <g id="line2d_4">
      <g>
       <use style="stroke:#000000;stroke-width:4;" x="203.40614" xlink:href="#m2350ef4031" y="151.27513"/>
      </g>
     </g>
    </g>
    <g id="xtick_4">
     <g id="line2d_5">
      <g>
       <use style="stroke:#000000;stroke-width:4;" x="250.27814" xlink:href="#m2350ef4031" y="151.27513"/>
      </g>
     </g>
    </g>
    <g id="xtick_5">
     <g id="line2d_6">
      <g>
       <use style="stroke:#000000;stroke-width:4;" x="297.15014" xlink:href="#m2350ef4031" y="151.27513"/>
      </g>
     </g>
    </g>
    <g id="xtick_6">
     <g id="line2d_7">
      <g>
       <use style="stroke:#000000;stroke-width:4;" x="344.02214" xlink:href="#m2350ef4031" y="151.27513"/>
      </g>
     </g>
    </g>
   </g>
   <g id="matplotlib.axis_2">
    <g id="ytick_1">
     <g id="line2d_8">
      <defs>
       <path d="M 0 0 
L -8 0 
" id="m0d9ad19f6e" style="stroke:#000000;stroke-width:4;"/>
      </defs>
      <g>
       <use style="stroke:#000000;stroke-width:4;" x="109.66214" xlink:href="#m0d9ad19f6e" y="151.27513"/>
      </g>
     </g>
     <g id="text_1">
      <!-- 8 -->
      <g transform="translate(88.55284 157.53643)scale(0.1728 -0.1728)">
       <defs>
        <path d="M 52.546875 19.390625 
Q 52.546875 9.71875 46.140625 4.359375 
Q 39.75 -0.984375 27.875 -0.984375 
Q 16.109375 -0.984375 9.640625 4.34375 
Q 3.171875 9.671875 3.171875 19.28125 
Q 3.171875 25.875 6.984375 30.390625 
Q 10.796875 34.90625 17.1875 35.984375 
L 17.1875 36.1875 
Q 11.625 37.40625 8.203125 41.703125 
Q 4.78125 46 4.78125 51.609375 
Q 4.78125 60.0625 10.765625 64.9375 
Q 16.75 69.828125 27.6875 69.828125 
Q 38.875 69.828125 44.84375 65.0625 
Q 50.828125 60.296875 50.828125 51.515625 
Q 50.828125 45.90625 47.4375 41.65625 
Q 44.046875 37.40625 38.328125 36.28125 
L 38.328125 36.078125 
Q 44.96875 35.015625 48.75 30.640625 
Q 52.546875 26.265625 52.546875 19.390625 
z
M 36.71875 50.78125 
Q 36.71875 55.671875 34.46875 57.9375 
Q 32.234375 60.203125 27.6875 60.203125 
Q 18.796875 60.203125 18.796875 50.78125 
Q 18.796875 40.921875 27.78125 40.921875 
Q 32.28125 40.921875 34.5 43.21875 
Q 36.71875 45.515625 36.71875 50.78125 
z
M 38.328125 20.515625 
Q 38.328125 31.296875 27.59375 31.296875 
Q 22.609375 31.296875 19.9375 28.46875 
Q 17.28125 25.640625 17.28125 20.3125 
Q 17.28125 14.265625 19.921875 11.46875 
Q 22.5625 8.6875 27.984375 8.6875 
Q 33.296875 8.6875 35.8125 11.46875 
Q 38.328125 14.265625 38.328125 20.515625 
z
" id="LiberationSans-Bold-56"/>
       </defs>
       <use xlink:href="#LiberationSans-Bold-56"/>
      </g>
     </g>
    </g>
    <g id="ytick_2">
     <g id="line2d_9">
      <g>
       <use style="stroke:#000000;stroke-width:4;" x="109.66214" xlink:href="#m0d9ad19f6e" y="98.245565"/>
      </g>
     </g>
    </g>
    <g id="ytick_3">
     <g id="line2d_10">
      <g>
       <use style="stroke:#000000;stroke-width:4;" x="109.66214" xlink:href="#m0d9ad19f6e" y="45.216"/>
      </g>
     </g>
     <g id="text_2">
      <!-- 10 -->
      <g transform="translate(78.94354 51.4773)scale(0.1728 -0.1728)">
       <defs>
        <path d="M 6.296875 0 
L 6.296875 10.203125 
L 23.34375 10.203125 
L 23.34375 57.125 
L 6.84375 46.828125 
L 6.84375 57.625 
L 24.078125 68.796875 
L 37.0625 68.796875 
L 37.0625 10.203125 
L 52.828125 10.203125 
L 52.828125 0 
z
" id="LiberationSans-Bold-49"/>
        <path d="M 51.515625 34.421875 
Q 51.515625 17 45.53125 8 
Q 39.546875 -0.984375 27.59375 -0.984375 
Q 3.953125 -0.984375 3.953125 34.421875 
Q 3.953125 46.78125 6.53125 54.59375 
Q 9.125 62.40625 14.296875 66.109375 
Q 19.484375 69.828125 27.984375 69.828125 
Q 40.1875 69.828125 45.84375 60.984375 
Q 51.515625 52.15625 51.515625 34.421875 
z
M 37.75 34.421875 
Q 37.75 43.953125 36.8125 49.21875 
Q 35.890625 54.5 33.828125 56.78125 
Q 31.78125 59.078125 27.875 59.078125 
Q 23.734375 59.078125 21.609375 56.75 
Q 19.484375 54.4375 18.578125 49.1875 
Q 17.671875 43.953125 17.671875 34.421875 
Q 17.671875 25 18.625 19.703125 
Q 19.578125 14.40625 21.65625 12.109375 
Q 23.734375 9.8125 27.6875 9.8125 
Q 31.59375 9.8125 33.71875 12.234375 
Q 35.84375 14.65625 36.796875 19.96875 
Q 37.75 25.296875 37.75 34.421875 
z
" id="LiberationSans-Bold-48"/>
       </defs>
       <use xlink:href="#LiberationSans-Bold-49"/>
       <use x="55.615234" xlink:href="#LiberationSans-Bold-48"/>
      </g>
     </g>
    </g>
    <g id="text_3">
     <!-- Running -->
     <g transform="translate(34.0569 133.271315)rotate(-90)scale(0.1728 -0.1728)">
      <defs>
       <path d="M 53.953125 0 
L 37.984375 26.125 
L 21.09375 26.125 
L 21.09375 0 
L 6.6875 0 
L 6.6875 68.796875 
L 41.0625 68.796875 
Q 53.375 68.796875 60.0625 63.5 
Q 66.75 58.203125 66.75 48.296875 
Q 66.75 41.0625 62.640625 35.8125 
Q 58.546875 30.5625 51.5625 28.90625 
L 70.171875 0 
z
M 52.25 47.703125 
Q 52.25 57.625 39.546875 57.625 
L 21.09375 57.625 
L 21.09375 37.3125 
L 39.9375 37.3125 
Q 46 37.3125 49.125 40.046875 
Q 52.25 42.78125 52.25 47.703125 
z
" id="LiberationSans-Bold-82"/>
       <path d="M 19.921875 52.828125 
L 19.921875 23.1875 
Q 19.921875 9.28125 29.296875 9.28125 
Q 34.28125 9.28125 37.328125 13.546875 
Q 40.375 17.828125 40.375 24.515625 
L 40.375 52.828125 
L 54.109375 52.828125 
L 54.109375 11.8125 
Q 54.109375 5.078125 54.5 0 
L 41.40625 0 
Q 40.828125 7.03125 40.828125 10.5 
L 40.578125 10.5 
Q 37.84375 4.5 33.609375 1.75 
Q 29.390625 -0.984375 23.578125 -0.984375 
Q 15.1875 -0.984375 10.6875 4.171875 
Q 6.203125 9.328125 6.203125 19.28125 
L 6.203125 52.828125 
z
" id="LiberationSans-Bold-117"/>
       <path d="M 41.21875 0 
L 41.21875 29.640625 
Q 41.21875 43.5625 31.78125 43.5625 
Q 26.8125 43.5625 23.75 39.28125 
Q 20.703125 35.015625 20.703125 28.328125 
L 20.703125 0 
L 6.984375 0 
L 6.984375 41.015625 
Q 6.984375 45.265625 6.859375 47.96875 
Q 6.734375 50.6875 6.59375 52.828125 
L 19.671875 52.828125 
Q 19.828125 51.90625 20.0625 47.875 
Q 20.3125 43.84375 20.3125 42.328125 
L 20.515625 42.328125 
Q 23.296875 48.390625 27.484375 51.125 
Q 31.6875 53.859375 37.5 53.859375 
Q 45.90625 53.859375 50.390625 48.671875 
Q 54.890625 43.5 54.890625 33.546875 
L 54.890625 0 
z
" id="LiberationSans-Bold-110"/>
       <path d="M 6.984375 62.359375 
L 6.984375 72.46875 
L 20.703125 72.46875 
L 20.703125 62.359375 
z
M 6.984375 0 
L 6.984375 52.828125 
L 20.703125 52.828125 
L 20.703125 0 
z
" id="LiberationSans-Bold-105"/>
       <path d="M 29.109375 -21.1875 
Q 19.4375 -21.1875 13.546875 -17.5 
Q 7.671875 -13.8125 6.296875 -6.984375 
L 20.015625 -5.375 
Q 20.75 -8.546875 23.171875 -10.34375 
Q 25.59375 -12.15625 29.5 -12.15625 
Q 35.203125 -12.15625 37.84375 -8.640625 
Q 40.484375 -5.125 40.484375 1.8125 
L 40.484375 4.59375 
L 40.578125 9.8125 
L 40.484375 9.8125 
Q 35.9375 0.09375 23.484375 0.09375 
Q 14.265625 0.09375 9.1875 7.03125 
Q 4.109375 13.96875 4.109375 26.859375 
Q 4.109375 39.796875 9.328125 46.828125 
Q 14.546875 53.859375 24.515625 53.859375 
Q 36.03125 53.859375 40.484375 44.34375 
L 40.71875 44.34375 
Q 40.71875 46.046875 40.9375 48.96875 
Q 41.15625 51.90625 41.40625 52.828125 
L 54.390625 52.828125 
Q 54.109375 47.5625 54.109375 40.625 
L 54.109375 1.609375 
Q 54.109375 -9.671875 47.703125 -15.421875 
Q 41.3125 -21.1875 29.109375 -21.1875 
z
M 40.578125 27.15625 
Q 40.578125 35.296875 37.671875 39.859375 
Q 34.765625 44.4375 29.390625 44.4375 
Q 18.40625 44.4375 18.40625 26.859375 
Q 18.40625 9.625 29.296875 9.625 
Q 34.765625 9.625 37.671875 14.1875 
Q 40.578125 18.75 40.578125 27.15625 
z
" id="LiberationSans-Bold-103"/>
      </defs>
      <use xlink:href="#LiberationSans-Bold-82"/>
      <use x="72.216797" xlink:href="#LiberationSans-Bold-117"/>
      <use x="133.300781" xlink:href="#LiberationSans-Bold-110"/>
      <use x="194.384766" xlink:href="#LiberationSans-Bold-110"/>
      <use x="255.46875" xlink:href="#LiberationSans-Bold-105"/>
      <use x="283.251953" xlink:href="#LiberationSans-Bold-110"/>
      <use x="344.335938" xlink:href="#LiberationSans-Bold-103"/>
     </g>
     <!-- velocity -->
     <g transform="translate(52.74522 130.418765)rotate(-90)scale(0.1728 -0.1728)">
      <defs>
       <path d="M 35.6875 0 
L 19.28125 0 
L 0.390625 52.828125 
L 14.890625 52.828125 
L 24.125 23.296875 
Q 24.859375 20.84375 27.59375 11.078125 
Q 28.078125 13.09375 29.59375 18.109375 
Q 31.109375 23.140625 40.828125 52.828125 
L 55.171875 52.828125 
z
" id="LiberationSans-Bold-118"/>
       <path d="M 28.609375 -0.984375 
Q 16.703125 -0.984375 10.296875 6.078125 
Q 3.90625 13.140625 3.90625 26.65625 
Q 3.90625 39.75 10.390625 46.78125 
Q 16.890625 53.8125 28.8125 53.8125 
Q 40.1875 53.8125 46.1875 46.265625 
Q 52.203125 38.71875 52.203125 24.171875 
L 52.203125 23.78125 
L 18.3125 23.78125 
Q 18.3125 16.0625 21.171875 12.125 
Q 24.03125 8.203125 29.296875 8.203125 
Q 36.578125 8.203125 38.484375 14.5 
L 51.421875 13.375 
Q 45.796875 -0.984375 28.609375 -0.984375 
z
M 28.609375 45.171875 
Q 23.78125 45.171875 21.171875 41.796875 
Q 18.5625 38.421875 18.40625 32.375 
L 38.921875 32.375 
Q 38.53125 38.765625 35.84375 41.96875 
Q 33.15625 45.171875 28.609375 45.171875 
z
" id="LiberationSans-Bold-101"/>
       <path d="M 6.984375 0 
L 6.984375 72.46875 
L 20.703125 72.46875 
L 20.703125 0 
z
" id="LiberationSans-Bold-108"/>
       <path d="M 57.171875 26.46875 
Q 57.171875 13.625 50.046875 6.3125 
Q 42.921875 -0.984375 30.328125 -0.984375 
Q 17.96875 -0.984375 10.9375 6.34375 
Q 3.90625 13.671875 3.90625 26.46875 
Q 3.90625 39.203125 10.9375 46.5 
Q 17.96875 53.8125 30.609375 53.8125 
Q 43.5625 53.8125 50.359375 46.75 
Q 57.171875 39.703125 57.171875 26.46875 
z
M 42.828125 26.46875 
Q 42.828125 35.890625 39.75 40.140625 
Q 36.671875 44.390625 30.8125 44.390625 
Q 18.3125 44.390625 18.3125 26.46875 
Q 18.3125 17.625 21.359375 13.015625 
Q 24.421875 8.40625 30.171875 8.40625 
Q 42.828125 8.40625 42.828125 26.46875 
z
" id="LiberationSans-Bold-111"/>
       <path d="M 29 -0.984375 
Q 17 -0.984375 10.453125 6.171875 
Q 3.90625 13.328125 3.90625 26.125 
Q 3.90625 39.203125 10.5 46.5 
Q 17.09375 53.8125 29.203125 53.8125 
Q 38.53125 53.8125 44.625 49.125 
Q 50.734375 44.4375 52.296875 36.1875 
L 38.484375 35.5 
Q 37.890625 39.546875 35.546875 41.96875 
Q 33.203125 44.390625 28.90625 44.390625 
Q 18.3125 44.390625 18.3125 26.65625 
Q 18.3125 8.40625 29.109375 8.40625 
Q 33.015625 8.40625 35.640625 10.859375 
Q 38.28125 13.328125 38.921875 18.21875 
L 52.6875 17.578125 
Q 51.953125 12.15625 48.796875 7.90625 
Q 45.65625 3.65625 40.53125 1.328125 
Q 35.40625 -0.984375 29 -0.984375 
z
" id="LiberationSans-Bold-99"/>
       <path d="M 20.515625 -0.875 
Q 14.453125 -0.875 11.171875 2.421875 
Q 7.90625 5.71875 7.90625 12.40625 
L 7.90625 43.5625 
L 1.21875 43.5625 
L 1.21875 52.828125 
L 8.59375 52.828125 
L 12.890625 65.234375 
L 21.484375 65.234375 
L 21.484375 52.828125 
L 31.5 52.828125 
L 31.5 43.5625 
L 21.484375 43.5625 
L 21.484375 16.109375 
Q 21.484375 12.25 22.953125 10.421875 
Q 24.421875 8.59375 27.484375 8.59375 
Q 29.109375 8.59375 32.078125 9.28125 
L 32.078125 0.78125 
Q 27 -0.875 20.515625 -0.875 
z
" id="LiberationSans-Bold-116"/>
       <path d="M 13.8125 -20.75 
Q 8.890625 -20.75 5.171875 -20.125 
L 5.171875 -10.359375 
Q 7.765625 -10.75 9.90625 -10.75 
Q 12.84375 -10.75 14.765625 -9.8125 
Q 16.703125 -8.890625 18.234375 -6.734375 
Q 19.78125 -4.59375 21.6875 0.53125 
L 0.78125 52.828125 
L 15.28125 52.828125 
L 23.578125 28.078125 
Q 25.53125 22.75 28.515625 11.765625 
L 29.734375 16.40625 
L 32.90625 27.875 
L 40.71875 52.828125 
L 55.078125 52.828125 
L 34.1875 -2.78125 
Q 29.984375 -12.9375 25.46875 -16.84375 
Q 20.953125 -20.75 13.8125 -20.75 
z
" id="LiberationSans-Bold-121"/>
      </defs>
      <use xlink:href="#LiberationSans-Bold-118"/>
      <use x="55.615234" xlink:href="#LiberationSans-Bold-101"/>
      <use x="111.230469" xlink:href="#LiberationSans-Bold-108"/>
      <use x="139.013672" xlink:href="#LiberationSans-Bold-111"/>
      <use x="200.097656" xlink:href="#LiberationSans-Bold-99"/>
      <use x="255.712891" xlink:href="#LiberationSans-Bold-105"/>
      <use x="283.496094" xlink:href="#LiberationSans-Bold-116"/>
      <use x="316.796875" xlink:href="#LiberationSans-Bold-121"/>
     </g>
     <!-- (cm/s) -->
     <g transform="translate(71.35794 123.691715)rotate(-90)scale(0.1728 -0.1728)">
      <defs>
       <path d="M 19.484375 -20.75 
Q 11.8125 -9.71875 8.390625 1.265625 
Q 4.984375 12.25 4.984375 25.921875 
Q 4.984375 39.546875 8.390625 50.5 
Q 11.8125 61.46875 19.484375 72.46875 
L 33.203125 72.46875 
Q 25.484375 61.328125 21.984375 50.296875 
Q 18.5 39.265625 18.5 25.875 
Q 18.5 12.546875 21.96875 1.578125 
Q 25.4375 -9.375 33.203125 -20.75 
z
" id="LiberationSans-Bold-40"/>
       <path d="M 38.09375 0 
L 38.09375 29.640625 
Q 38.09375 43.5625 30.078125 43.5625 
Q 25.921875 43.5625 23.3125 39.3125 
Q 20.703125 35.0625 20.703125 28.328125 
L 20.703125 0 
L 6.984375 0 
L 6.984375 41.015625 
Q 6.984375 45.265625 6.859375 47.96875 
Q 6.734375 50.6875 6.59375 52.828125 
L 19.671875 52.828125 
Q 19.828125 51.90625 20.0625 47.875 
Q 20.3125 43.84375 20.3125 42.328125 
L 20.515625 42.328125 
Q 23.046875 48.390625 26.828125 51.125 
Q 30.609375 53.859375 35.890625 53.859375 
Q 48 53.859375 50.59375 42.328125 
L 50.875 42.328125 
Q 53.5625 48.484375 57.3125 51.171875 
Q 61.078125 53.859375 66.890625 53.859375 
Q 74.609375 53.859375 78.65625 48.609375 
Q 82.71875 43.359375 82.71875 33.546875 
L 82.71875 0 
L 69.09375 0 
L 69.09375 29.640625 
Q 69.09375 43.5625 61.078125 43.5625 
Q 57.078125 43.5625 54.515625 39.671875 
Q 51.953125 35.796875 51.703125 28.953125 
L 51.703125 0 
z
" id="LiberationSans-Bold-109"/>
       <path d="M 0.984375 -2 
L 15.1875 72.46875 
L 26.8125 72.46875 
L 12.84375 -2 
z
" id="LiberationSans-Bold-47"/>
       <path d="M 51.515625 15.4375 
Q 51.515625 7.765625 45.234375 3.390625 
Q 38.96875 -0.984375 27.875 -0.984375 
Q 17 -0.984375 11.203125 2.453125 
Q 5.421875 5.90625 3.515625 13.1875 
L 15.578125 14.984375 
Q 16.609375 11.234375 19.109375 9.671875 
Q 21.625 8.109375 27.875 8.109375 
Q 33.640625 8.109375 36.28125 9.5625 
Q 38.921875 11.03125 38.921875 14.15625 
Q 38.921875 16.703125 36.796875 18.1875 
Q 34.671875 19.671875 29.59375 20.703125 
Q 17.96875 23 13.90625 24.96875 
Q 9.859375 26.953125 7.734375 30.09375 
Q 5.609375 33.25 5.609375 37.84375 
Q 5.609375 45.40625 11.4375 49.625 
Q 17.28125 53.859375 27.984375 53.859375 
Q 37.40625 53.859375 43.140625 50.1875 
Q 48.875 46.53125 50.296875 39.59375 
L 38.140625 38.328125 
Q 37.546875 41.546875 35.25 43.140625 
Q 32.953125 44.734375 27.984375 44.734375 
Q 23.09375 44.734375 20.65625 43.484375 
Q 18.21875 42.234375 18.21875 39.3125 
Q 18.21875 37.015625 20.09375 35.671875 
Q 21.96875 34.328125 26.421875 33.453125 
Q 32.625 32.171875 37.421875 30.828125 
Q 42.234375 29.5 45.140625 27.640625 
Q 48.046875 25.78125 49.78125 22.875 
Q 51.515625 19.96875 51.515625 15.4375 
z
" id="LiberationSans-Bold-115"/>
       <path d="M 0.09375 -20.75 
Q 7.90625 -9.328125 11.34375 1.578125 
Q 14.796875 12.5 14.796875 25.875 
Q 14.796875 39.3125 11.28125 50.359375 
Q 7.765625 61.421875 0.09375 72.46875 
L 13.8125 72.46875 
Q 21.53125 61.375 24.921875 50.390625 
Q 28.328125 39.40625 28.328125 25.921875 
Q 28.328125 12.359375 24.921875 1.359375 
Q 21.53125 -9.625 13.8125 -20.75 
z
" id="LiberationSans-Bold-41"/>
      </defs>
      <use xlink:href="#LiberationSans-Bold-40"/>
      <use x="33.300781" xlink:href="#LiberationSans-Bold-99"/>
      <use x="88.916016" xlink:href="#LiberationSans-Bold-109"/>
      <use x="177.832031" xlink:href="#LiberationSans-Bold-47"/>
      <use x="205.615234" xlink:href="#LiberationSans-Bold-115"/>
      <use x="261.230469" xlink:href="#LiberationSans-Bold-41"/>
     </g>
    </g>
   </g>
   <g id="line2d_11">
    <path clip-path="url(#pea6f97367c)" d="M 109.66214 100.019304 
L 112.295398 100.100846 
L 114.928657 98.707995 
L 117.561915 100.166207 
L 120.195174 99.79497 
L 122.828432 100.093342 
L 125.461691 99.858433 
L 128.094949 100.0506 
L 130.728207 99.528017 
L 133.361466 99.925951 
L 135.994724 100.185781 
L 138.627983 99.857018 
L 141.261241 99.544568 
L 143.8945 99.954732 
L 146.527758 100.445722 
L 149.161016 101.61659 
L 151.794275 100.643102 
L 154.427533 101.452574 
L 157.060792 100.959322 
L 159.69405 101.275235 
L 162.327309 100.641331 
L 164.960567 101.729187 
L 167.593825 101.354019 
L 170.227084 101.87105 
L 172.860342 102.209092 
L 175.493601 102.52575 
L 178.126859 103.125902 
L 180.760118 103.207254 
L 183.393376 103.364152 
L 186.026634 103.388675 
L 188.659893 103.424358 
L 191.293151 103.861236 
L 193.92641 103.579284 
L 196.559668 105.053164 
L 199.192927 104.476191 
L 201.826185 105.075016 
L 204.459443 104.057986 
L 207.092702 104.143748 
L 209.72596 102.948164 
L 212.359219 103.654596 
L 214.992477 103.697634 
L 217.625736 103.991424 
L 220.258994 104.296301 
L 222.892252 103.850708 
L 225.525511 104.437131 
L 228.158769 104.364094 
L 230.792028 104.401918 
L 233.425286 104.366714 
L 236.058544 104.294839 
L 238.691803 104.531822 
L 241.325061 104.444972 
L 243.95832 105.365348 
L 246.591578 104.09411 
L 249.224837 104.996903 
L 251.858095 104.09957 
L 254.491353 103.738308 
L 257.124612 102.720449 
L 259.75787 104.275739 
L 262.391129 103.787743 
L 265.024387 103.752747 
L 267.657646 103.573442 
L 270.290904 103.28741 
L 272.924162 102.296479 
L 275.557421 103.087109 
L 278.190679 103.467815 
L 280.823938 103.457433 
L 283.457196 103.419524 
L 286.090455 103.10424 
L 288.723713 103.399952 
L 291.356971 103.370587 
L 293.99023 103.250702 
L 296.623488 102.977984 
L 299.256747 102.745676 
L 301.890005 102.870152 
L 304.523264 102.692612 
L 307.156522 102.72381 
L 309.78978 102.561947 
L 312.423039 101.632219 
L 315.056297 101.907134 
L 317.689556 101.839204 
L 320.322814 101.28174 
L 322.956073 101.17679 
L 325.589331 100.652479 
L 328.222589 100.652478 
L 330.855848 100.353101 
L 333.489106 100.672326 
L 336.122365 100.962745 
L 338.755623 101.691479 
L 341.388882 100.598807 
L 344.02214 101.069912 
" style="fill:none;stroke:#969696;stroke-linecap:square;stroke-opacity:0.8;stroke-width:5;"/>
   </g>
   <g id="line2d_12">
    <path clip-path="url(#pea6f97367c)" d="M 109.66214 98.415031 
L 112.295398 97.742671 
L 114.928657 97.326665 
L 117.561915 98.560967 
L 120.195174 100.216317 
L 122.828432 102.622669 
L 125.461691 101.129629 
L 128.094949 104.378029 
L 130.728207 103.106388 
L 133.361466 105.574553 
L 135.994724 105.669607 
L 138.627983 107.545698 
L 141.261241 107.250698 
L 143.8945 106.764568 
L 146.527758 107.698582 
L 149.161016 108.79499 
L 151.794275 107.85076 
L 154.427533 108.721022 
L 157.060792 108.564177 
L 159.69405 109.143311 
L 162.327309 108.755223 
L 164.960567 110.777062 
L 167.593825 109.6629 
L 170.227084 111.168603 
L 172.860342 110.567627 
L 175.493601 108.848297 
L 178.126859 109.411808 
L 180.760118 109.254576 
L 183.393376 107.5122 
L 186.026634 108.226551 
L 188.659893 107.454484 
L 191.293151 107.023547 
L 193.92641 108.918619 
L 196.559668 110.433452 
L 199.192927 109.299318 
L 201.826185 107.930873 
L 204.459443 108.254352 
L 207.092702 108.054898 
L 209.72596 106.416112 
L 212.359219 106.887608 
L 214.992477 105.823964 
L 217.625736 106.167865 
L 220.258994 107.25242 
L 222.892252 106.960605 
L 225.525511 107.652332 
L 228.158769 107.643928 
L 230.792028 106.947646 
L 233.425286 106.13783 
L 236.058544 106.988778 
L 238.691803 104.670084 
L 241.325061 105.381248 
L 243.95832 106.230881 
L 246.591578 103.672738 
L 249.224837 103.806868 
L 251.858095 101.449866 
L 254.491353 101.971852 
L 257.124612 97.787941 
L 259.75787 99.860644 
L 262.391129 99.509968 
L 265.024387 100.809585 
L 267.657646 100.257374 
L 270.290904 100.537103 
L 272.924162 100.179012 
L 275.557421 99.718958 
L 278.190679 99.749659 
L 280.823938 101.041662 
L 283.457196 99.477556 
L 286.090455 99.30604 
L 288.723713 100.803067 
L 291.356971 98.342185 
L 293.99023 99.116288 
L 296.623488 100.895677 
L 299.256747 99.688922 
L 301.890005 97.535511 
L 304.523264 99.359856 
L 307.156522 99.183636 
L 309.78978 98.188128 
L 312.423039 98.231131 
L 315.056297 101.093143 
L 317.689556 98.82465 
L 320.322814 99.272463 
L 322.956073 98.170826 
L 325.589331 98.009258 
L 328.222589 97.31605 
L 330.855848 95.84078 
L 333.489106 96.776914 
L 336.122365 96.5995 
L 338.755623 97.338582 
L 341.388882 95.594288 
L 344.02214 96.976292 
" style="fill:none;stroke:#eb3920;stroke-linecap:square;stroke-opacity:0.75;stroke-width:5;"/>
   </g>
   <g id="patch_3">
    <path d="M 109.66214 151.27513 
L 109.66214 45.216 
" style="fill:none;stroke:#000000;stroke-linecap:square;stroke-linejoin:miter;stroke-width:4;"/>
   </g>
   <g id="patch_4">
    <path d="M 109.66214 151.27513 
L 344.02214 151.27513 
" style="fill:none;stroke:#000000;stroke-linecap:square;stroke-linejoin:miter;stroke-width:4;"/>
   </g>
  </g>
  <g id="axes_2">
   <g id="patch_5">
    <path d="M 109.66214 289.152 
L 344.02214 289.152 
L 344.02214 183.09287 
L 109.66214 183.09287 
z
" style="fill:#ffffff;"/>
   </g>
   <g id="line2d_13">
    <path clip-path="url(#p773d9dd5c5)" d="M 250.27814 289.152 
L 250.27814 183.09287 
" style="fill:none;stroke:#000000;stroke-dasharray:9,6;stroke-dashoffset:0;stroke-opacity:0.5;stroke-width:3;"/>
   </g>
   <g id="PolyCollection_3">
    <path clip-path="url(#p773d9dd5c5)" d="M 109.66214 233.818127 
L 109.66214 251.070463 
L 114.988504 251.151855 
L 120.314867 251.79945 
L 125.641231 252.008509 
L 130.967595 252.650205 
L 136.293958 251.842056 
L 141.620322 252.227741 
L 146.946685 251.828809 
L 152.273049 251.21177 
L 157.599413 250.335315 
L 162.925776 250.18522 
L 168.25214 249.568107 
L 173.578504 249.434509 
L 178.904867 249.286362 
L 184.231231 248.207515 
L 189.557595 249.154302 
L 194.883958 249.06281 
L 200.210322 249.794883 
L 205.536685 250.437648 
L 210.863049 250.441073 
L 216.189413 252.282597 
L 221.515776 252.125495 
L 226.84214 252.831863 
L 232.168504 252.233611 
L 237.494867 252.870482 
L 242.821231 253.146942 
L 248.147595 254.737299 
L 253.473958 254.682449 
L 258.800322 254.814611 
L 264.126685 253.249807 
L 269.453049 253.411826 
L 274.779413 254.391374 
L 280.105776 256.148059 
L 285.43214 254.634535 
L 290.758504 254.609492 
L 296.084867 252.79781 
L 301.411231 252.04887 
L 306.737595 251.102721 
L 312.063958 249.783082 
L 317.390322 248.934969 
L 322.716685 248.55786 
L 328.043049 246.673724 
L 333.369413 247.883271 
L 338.695776 248.484141 
L 344.02214 250.148583 
L 344.02214 232.891404 
L 344.02214 232.891404 
L 338.695776 231.222468 
L 333.369413 230.636375 
L 328.043049 229.442523 
L 322.716685 231.326902 
L 317.390322 231.730306 
L 312.063958 232.585658 
L 306.737595 233.907731 
L 301.411231 234.879588 
L 296.084867 235.635054 
L 290.758504 237.444605 
L 285.43214 237.470826 
L 280.105776 238.972615 
L 274.779413 237.203425 
L 269.453049 236.220851 
L 264.126685 236.058119 
L 258.800322 237.59807 
L 253.473958 237.467019 
L 248.147595 237.514128 
L 242.821231 235.928107 
L 237.494867 235.631184 
L 232.168504 234.99525 
L 226.84214 235.586483 
L 221.515776 234.895182 
L 216.189413 235.046061 
L 210.863049 233.225012 
L 205.536685 233.215034 
L 200.210322 232.593933 
L 194.883958 231.876709 
L 189.557595 231.971604 
L 184.231231 231.046414 
L 178.904867 232.116661 
L 173.578504 232.275205 
L 168.25214 232.411398 
L 162.925776 233.024161 
L 157.599413 233.178333 
L 152.273049 234.055581 
L 146.946685 234.677887 
L 141.620322 235.070858 
L 136.293958 234.669433 
L 130.967595 235.44433 
L 125.641231 234.80568 
L 120.314867 234.591253 
L 114.988504 233.931654 
L 109.66214 233.818127 
z
" style="fill:#969696;fill-opacity:0.5;"/>
   </g>
   <g id="PolyCollection_4">
    <path clip-path="url(#p773d9dd5c5)" d="M 109.66214 196.840243 
L 109.66214 258.745377 
L 114.988504 258.881337 
L 120.314867 257.43076 
L 125.641231 259.445853 
L 130.967595 262.784384 
L 136.293958 265.934603 
L 141.620322 264.126117 
L 146.946685 264.951087 
L 152.273049 264.679562 
L 157.599413 264.600886 
L 162.925776 260.579243 
L 168.25214 259.62055 
L 173.578504 259.664318 
L 178.904867 261.42724 
L 184.231231 258.806123 
L 189.557595 260.506174 
L 194.883958 261.179537 
L 200.210322 262.18038 
L 205.536685 261.646018 
L 210.863049 261.028773 
L 216.189413 259.703678 
L 221.515776 261.292491 
L 226.84214 259.151639 
L 232.168504 257.595809 
L 237.494867 259.263715 
L 242.821231 260.429427 
L 248.147595 260.984265 
L 253.473958 262.26517 
L 258.800322 264.931661 
L 264.126685 264.624372 
L 269.453049 264.687296 
L 274.779413 264.326105 
L 280.105776 268.17326 
L 285.43214 267.626209 
L 290.758504 263.964995 
L 296.084867 267.014142 
L 301.411231 266.336971 
L 306.737595 263.706159 
L 312.063958 262.80175 
L 317.390322 258.999315 
L 322.716685 259.888577 
L 328.043049 260.878734 
L 333.369413 259.471128 
L 338.695776 259.775535 
L 344.02214 259.224052 
L 344.02214 197.684145 
L 344.02214 197.684145 
L 338.695776 198.095838 
L 333.369413 197.947852 
L 328.043049 199.435235 
L 322.716685 198.177336 
L 317.390322 197.280868 
L 312.063958 201.024488 
L 306.737595 201.848752 
L 301.411231 204.390104 
L 296.084867 205.205506 
L 290.758504 202.235257 
L 285.43214 205.806784 
L 280.105776 206.352925 
L 274.779413 202.29389 
L 269.453049 202.686045 
L 264.126685 202.443735 
L 258.800322 202.577645 
L 253.473958 200.038582 
L 248.147595 198.777239 
L 242.821231 198.121092 
L 237.494867 196.986524 
L 232.168504 195.174212 
L 226.84214 196.858388 
L 221.515776 199.22759 
L 216.189413 197.779119 
L 210.863049 199.098057 
L 205.536685 199.753997 
L 200.210322 200.378502 
L 194.883958 199.29811 
L 189.557595 198.532047 
L 184.231231 196.926257 
L 178.904867 199.485866 
L 173.578504 197.695886 
L 168.25214 197.69449 
L 162.925776 198.81665 
L 157.599413 202.757364 
L 152.273049 202.760551 
L 146.946685 203.000553 
L 141.620322 202.290192 
L 136.293958 203.943851 
L 130.967595 200.672778 
L 125.641231 197.398001 
L 120.314867 195.351816 
L 114.988504 196.966017 
L 109.66214 196.840243 
z
" style="fill:#eb3920;fill-opacity:0.2;"/>
   </g>
   <g id="matplotlib.axis_3">
    <g id="xtick_7">
     <g id="line2d_14">
      <g>
       <use style="stroke:#000000;stroke-width:4;" x="109.66214" xlink:href="#m2350ef4031" y="289.152"/>
      </g>
     </g>
    </g>
    <g id="xtick_8">
     <g id="line2d_15">
      <g>
       <use style="stroke:#000000;stroke-width:4;" x="156.53414" xlink:href="#m2350ef4031" y="289.152"/>
      </g>
     </g>
     <g id="text_4">
      <!-- -0.6 -->
      <g transform="translate(141.64769 313.1746)scale(0.1728 -0.1728)">
       <defs>
        <path d="M 3.90625 19.96875 
L 3.90625 31.890625 
L 29.296875 31.890625 
L 29.296875 19.96875 
z
" id="LiberationSans-Bold-45"/>
        <path d="M 6.78125 0 
L 6.78125 14.890625 
L 20.90625 14.890625 
L 20.90625 0 
z
" id="LiberationSans-Bold-46"/>
        <path d="M 52 22.515625 
Q 52 11.53125 45.84375 5.265625 
Q 39.703125 -0.984375 28.859375 -0.984375 
Q 16.703125 -0.984375 10.171875 7.53125 
Q 3.65625 16.0625 3.65625 32.8125 
Q 3.65625 51.21875 10.265625 60.515625 
Q 16.890625 69.828125 29.203125 69.828125 
Q 37.9375 69.828125 42.984375 65.96875 
Q 48.046875 62.109375 50.140625 54 
L 37.203125 52.203125 
Q 35.359375 58.984375 28.90625 58.984375 
Q 23.390625 58.984375 20.234375 53.46875 
Q 17.09375 47.953125 17.09375 36.71875 
Q 19.28125 40.375 23.1875 42.328125 
Q 27.09375 44.28125 32.03125 44.28125 
Q 41.265625 44.28125 46.625 38.421875 
Q 52 32.5625 52 22.515625 
z
M 38.234375 22.125 
Q 38.234375 27.984375 35.515625 31.078125 
Q 32.8125 34.1875 28.078125 34.1875 
Q 23.53125 34.1875 20.796875 31.28125 
Q 18.0625 28.375 18.0625 23.578125 
Q 18.0625 17.578125 20.921875 13.640625 
Q 23.78125 9.71875 28.421875 9.71875 
Q 33.0625 9.71875 35.640625 13.015625 
Q 38.234375 16.3125 38.234375 22.125 
z
" id="LiberationSans-Bold-54"/>
       </defs>
       <use xlink:href="#LiberationSans-Bold-45"/>
       <use x="33.300781" xlink:href="#LiberationSans-Bold-48"/>
       <use x="88.916016" xlink:href="#LiberationSans-Bold-46"/>
       <use x="116.699219" xlink:href="#LiberationSans-Bold-54"/>
      </g>
     </g>
    </g>
    <g id="xtick_9">
     <g id="line2d_16">
      <g>
       <use style="stroke:#000000;stroke-width:4;" x="203.40614" xlink:href="#m2350ef4031" y="289.152"/>
      </g>
     </g>
    </g>
    <g id="xtick_10">
     <g id="line2d_17">
      <g>
       <use style="stroke:#000000;stroke-width:4;" x="250.27814" xlink:href="#m2350ef4031" y="289.152"/>
      </g>
     </g>
     <g id="text_5">
      <!-- 0 -->
      <g transform="translate(245.47349 313.1746)scale(0.1728 -0.1728)">
       <use xlink:href="#LiberationSans-Bold-48"/>
      </g>
     </g>
    </g>
    <g id="xtick_11">
     <g id="line2d_18">
      <g>
       <use style="stroke:#000000;stroke-width:4;" x="297.15014" xlink:href="#m2350ef4031" y="289.152"/>
      </g>
     </g>
    </g>
    <g id="xtick_12">
     <g id="line2d_19">
      <g>
       <use style="stroke:#000000;stroke-width:4;" x="344.02214" xlink:href="#m2350ef4031" y="289.152"/>
      </g>
     </g>
     <g id="text_6">
      <!-- 0.6 -->
      <g transform="translate(332.01254 313.1746)scale(0.1728 -0.1728)">
       <use xlink:href="#LiberationSans-Bold-48"/>
       <use x="55.615234" xlink:href="#LiberationSans-Bold-46"/>
       <use x="83.398438" xlink:href="#LiberationSans-Bold-54"/>
      </g>
     </g>
    </g>
    <g id="text_7">
     <!-- Time (s) -->
     <g transform="translate(193.86974 333.2828)scale(0.1728 -0.1728)">
      <defs>
       <path d="M 37.75 57.671875 
L 37.75 0 
L 23.34375 0 
L 23.34375 57.671875 
L 1.125 57.671875 
L 1.125 68.796875 
L 60.015625 68.796875 
L 60.015625 57.671875 
z
" id="LiberationSans-Bold-84"/>
       <path id="LiberationSans-Bold-32"/>
      </defs>
      <use xlink:href="#LiberationSans-Bold-84"/>
      <use x="59.333984" xlink:href="#LiberationSans-Bold-105"/>
      <use x="87.117188" xlink:href="#LiberationSans-Bold-109"/>
      <use x="176.033203" xlink:href="#LiberationSans-Bold-101"/>
      <use x="231.648438" xlink:href="#LiberationSans-Bold-32"/>
      <use x="259.431641" xlink:href="#LiberationSans-Bold-40"/>
      <use x="292.732422" xlink:href="#LiberationSans-Bold-115"/>
      <use x="348.347656" xlink:href="#LiberationSans-Bold-41"/>
     </g>
    </g>
   </g>
   <g id="matplotlib.axis_4">
    <g id="ytick_4">
     <g id="line2d_20">
      <g>
       <use style="stroke:#000000;stroke-width:4;" x="109.66214" xlink:href="#m0d9ad19f6e" y="289.152"/>
      </g>
     </g>
     <g id="text_8">
      <!-- 0.55 -->
      <g transform="translate(64.53364 295.4133)scale(0.1728 -0.1728)">
       <defs>
        <path d="M 52.828125 22.90625 
Q 52.828125 11.96875 46.015625 5.484375 
Q 39.203125 -0.984375 27.34375 -0.984375 
Q 17 -0.984375 10.765625 3.671875 
Q 4.546875 8.34375 3.078125 17.1875 
L 16.796875 18.3125 
Q 17.875 13.921875 20.609375 11.90625 
Q 23.34375 9.90625 27.484375 9.90625 
Q 32.625 9.90625 35.671875 13.171875 
Q 38.71875 16.453125 38.71875 22.609375 
Q 38.71875 28.03125 35.828125 31.265625 
Q 32.953125 34.515625 27.78125 34.515625 
Q 22.078125 34.515625 18.453125 30.078125 
L 5.078125 30.078125 
L 7.46875 68.796875 
L 48.828125 68.796875 
L 48.828125 58.59375 
L 19.921875 58.59375 
L 18.796875 41.21875 
Q 23.78125 45.609375 31.25 45.609375 
Q 41.0625 45.609375 46.9375 39.5 
Q 52.828125 33.40625 52.828125 22.90625 
z
" id="LiberationSans-Bold-53"/>
       </defs>
       <use xlink:href="#LiberationSans-Bold-48"/>
       <use x="55.615234" xlink:href="#LiberationSans-Bold-46"/>
       <use x="83.398438" xlink:href="#LiberationSans-Bold-53"/>
       <use x="139.013672" xlink:href="#LiberationSans-Bold-53"/>
      </g>
     </g>
    </g>
    <g id="ytick_5">
     <g id="line2d_21">
      <g>
       <use style="stroke:#000000;stroke-width:4;" x="109.66214" xlink:href="#m0d9ad19f6e" y="255.571962"/>
      </g>
     </g>
    </g>
    <g id="ytick_6">
     <g id="line2d_22">
      <g>
       <use style="stroke:#000000;stroke-width:4;" x="109.66214" xlink:href="#m0d9ad19f6e" y="221.991925"/>
      </g>
     </g>
     <g id="text_9">
      <!-- 0.56 -->
      <g transform="translate(64.53364 228.253225)scale(0.1728 -0.1728)">
       <use xlink:href="#LiberationSans-Bold-48"/>
       <use x="55.615234" xlink:href="#LiberationSans-Bold-46"/>
       <use x="83.398438" xlink:href="#LiberationSans-Bold-53"/>
       <use x="139.013672" xlink:href="#LiberationSans-Bold-54"/>
      </g>
     </g>
    </g>
    <g id="ytick_7">
     <g id="line2d_23">
      <g>
       <use style="stroke:#000000;stroke-width:4;" x="109.66214" xlink:href="#m0d9ad19f6e" y="188.411887"/>
      </g>
     </g>
    </g>
    <g id="text_10">
     <!-- Pupil -->
     <g transform="translate(19.7226 257.240485)rotate(-90)scale(0.1728 -0.1728)">
      <defs>
       <path d="M 63.28125 47.015625 
Q 63.28125 40.375 60.25 35.15625 
Q 57.234375 29.9375 51.59375 27.078125 
Q 45.953125 24.21875 38.1875 24.21875 
L 21.09375 24.21875 
L 21.09375 0 
L 6.6875 0 
L 6.6875 68.796875 
L 37.59375 68.796875 
Q 49.953125 68.796875 56.609375 63.109375 
Q 63.28125 57.421875 63.28125 47.015625 
z
M 48.78125 46.78125 
Q 48.78125 57.625 35.984375 57.625 
L 21.09375 57.625 
L 21.09375 35.296875 
L 36.375 35.296875 
Q 42.328125 35.296875 45.546875 38.25 
Q 48.78125 41.21875 48.78125 46.78125 
z
" id="LiberationSans-Bold-80"/>
       <path d="M 56.984375 26.65625 
Q 56.984375 13.421875 51.6875 6.21875 
Q 46.390625 -0.984375 36.71875 -0.984375 
Q 31.15625 -0.984375 27.03125 1.4375 
Q 22.90625 3.859375 20.703125 8.40625 
L 20.40625 8.40625 
Q 20.703125 6.9375 20.703125 -0.484375 
L 20.703125 -20.75 
L 6.984375 -20.75 
L 6.984375 40.671875 
Q 6.984375 48.140625 6.59375 52.828125 
L 19.921875 52.828125 
Q 20.171875 51.953125 20.34375 49.359375 
Q 20.515625 46.78125 20.515625 44.234375 
L 20.703125 44.234375 
Q 25.34375 53.953125 37.59375 53.953125 
Q 46.828125 53.953125 51.90625 46.84375 
Q 56.984375 39.75 56.984375 26.65625 
z
M 42.671875 26.65625 
Q 42.671875 44.4375 31.78125 44.4375 
Q 26.3125 44.4375 23.40625 39.640625 
Q 20.515625 34.859375 20.515625 26.265625 
Q 20.515625 17.71875 23.40625 13.0625 
Q 26.3125 8.40625 31.6875 8.40625 
Q 42.671875 8.40625 42.671875 26.65625 
z
" id="LiberationSans-Bold-112"/>
      </defs>
      <use xlink:href="#LiberationSans-Bold-80"/>
      <use x="66.699219" xlink:href="#LiberationSans-Bold-117"/>
      <use x="127.783203" xlink:href="#LiberationSans-Bold-112"/>
      <use x="188.867188" xlink:href="#LiberationSans-Bold-105"/>
      <use x="216.650391" xlink:href="#LiberationSans-Bold-108"/>
     </g>
     <!-- diameter -->
     <g transform="translate(38.33532 272.136385)rotate(-90)scale(0.1728 -0.1728)">
      <defs>
       <path d="M 41.21875 0 
Q 41.015625 0.734375 40.75 3.6875 
Q 40.484375 6.640625 40.484375 8.59375 
L 40.28125 8.59375 
Q 35.84375 -0.984375 23.390625 -0.984375 
Q 14.15625 -0.984375 9.125 6.21875 
Q 4.109375 13.421875 4.109375 26.375 
Q 4.109375 39.5 9.40625 46.65625 
Q 14.703125 53.8125 24.421875 53.8125 
Q 30.03125 53.8125 34.109375 51.46875 
Q 38.1875 49.125 40.375 44.484375 
L 40.484375 44.484375 
L 40.375 53.171875 
L 40.375 72.46875 
L 54.109375 72.46875 
L 54.109375 11.53125 
Q 54.109375 6.640625 54.5 0 
z
M 40.578125 26.703125 
Q 40.578125 35.25 37.71875 39.859375 
Q 34.859375 44.484375 29.296875 44.484375 
Q 23.78125 44.484375 21.09375 40.015625 
Q 18.40625 35.546875 18.40625 26.375 
Q 18.40625 8.40625 29.203125 8.40625 
Q 34.625 8.40625 37.59375 13.15625 
Q 40.578125 17.921875 40.578125 26.703125 
z
" id="LiberationSans-Bold-100"/>
       <path d="M 19.1875 -0.984375 
Q 11.53125 -0.984375 7.234375 3.1875 
Q 2.9375 7.375 2.9375 14.9375 
Q 2.9375 23.140625 8.28125 27.4375 
Q 13.625 31.734375 23.78125 31.84375 
L 35.15625 32.03125 
L 35.15625 34.71875 
Q 35.15625 39.890625 33.34375 42.40625 
Q 31.546875 44.921875 27.4375 44.921875 
Q 23.640625 44.921875 21.84375 43.1875 
Q 20.0625 41.453125 19.625 37.453125 
L 5.328125 38.140625 
Q 6.640625 45.84375 12.375 49.828125 
Q 18.109375 53.8125 28.03125 53.8125 
Q 38.03125 53.8125 43.453125 48.875 
Q 48.875 43.953125 48.875 34.859375 
L 48.875 15.625 
Q 48.875 11.1875 49.875 9.5 
Q 50.875 7.8125 53.21875 7.8125 
Q 54.78125 7.8125 56.25 8.109375 
L 56.25 0.6875 
Q 55.03125 0.390625 54.046875 0.140625 
Q 53.078125 -0.09375 52.09375 -0.234375 
Q 51.125 -0.390625 50.015625 -0.484375 
Q 48.921875 -0.59375 47.46875 -0.59375 
Q 42.28125 -0.59375 39.8125 1.953125 
Q 37.359375 4.5 36.859375 9.421875 
L 36.578125 9.421875 
Q 30.8125 -0.984375 19.1875 -0.984375 
z
M 35.15625 24.46875 
L 28.125 24.359375 
Q 23.34375 24.171875 21.34375 23.3125 
Q 19.34375 22.46875 18.28125 20.703125 
Q 17.234375 18.953125 17.234375 16.015625 
Q 17.234375 12.25 18.96875 10.421875 
Q 20.703125 8.59375 23.578125 8.59375 
Q 26.8125 8.59375 29.46875 10.34375 
Q 32.125 12.109375 33.640625 15.203125 
Q 35.15625 18.3125 35.15625 21.78125 
z
" id="LiberationSans-Bold-97"/>
       <path d="M 6.984375 0 
L 6.984375 40.4375 
Q 6.984375 44.78125 6.859375 47.6875 
Q 6.734375 50.59375 6.59375 52.828125 
L 19.671875 52.828125 
Q 19.828125 51.953125 20.0625 47.484375 
Q 20.3125 43.015625 20.3125 41.546875 
L 20.515625 41.546875 
Q 22.515625 47.125 24.078125 49.390625 
Q 25.640625 51.65625 27.78125 52.75 
Q 29.9375 53.859375 33.15625 53.859375 
Q 35.796875 53.859375 37.40625 53.125 
L 37.40625 41.65625 
Q 34.078125 42.390625 31.546875 42.390625 
Q 26.421875 42.390625 23.5625 38.234375 
Q 20.703125 34.078125 20.703125 25.921875 
L 20.703125 0 
z
" id="LiberationSans-Bold-114"/>
      </defs>
      <use xlink:href="#LiberationSans-Bold-100"/>
      <use x="61.083984" xlink:href="#LiberationSans-Bold-105"/>
      <use x="88.867188" xlink:href="#LiberationSans-Bold-97"/>
      <use x="144.482422" xlink:href="#LiberationSans-Bold-109"/>
      <use x="233.398438" xlink:href="#LiberationSans-Bold-101"/>
      <use x="289.013672" xlink:href="#LiberationSans-Bold-116"/>
      <use x="322.314453" xlink:href="#LiberationSans-Bold-101"/>
      <use x="377.929688" xlink:href="#LiberationSans-Bold-114"/>
     </g>
     <!-- (mm) -->
     <g transform="translate(56.94804 257.241835)rotate(-90)scale(0.1728 -0.1728)">
      <use xlink:href="#LiberationSans-Bold-40"/>
      <use x="33.300781" xlink:href="#LiberationSans-Bold-109"/>
      <use x="122.216797" xlink:href="#LiberationSans-Bold-109"/>
      <use x="211.132812" xlink:href="#LiberationSans-Bold-41"/>
     </g>
    </g>
   </g>
   <g id="line2d_24">
    <path clip-path="url(#p773d9dd5c5)" d="M 109.66214 242.444295 
L 114.988504 242.541754 
L 120.314867 243.195351 
L 125.641231 243.407095 
L 130.967595 244.047267 
L 136.293958 243.255745 
L 141.620322 243.6493 
L 146.946685 243.253348 
L 152.273049 242.633675 
L 157.599413 241.756824 
L 162.925776 241.604691 
L 168.25214 240.989752 
L 173.578504 240.854857 
L 178.904867 240.701511 
L 184.231231 239.626965 
L 189.557595 240.562953 
L 194.883958 240.46976 
L 200.210322 241.194408 
L 205.536685 241.826341 
L 210.863049 241.833042 
L 216.189413 243.664329 
L 221.515776 243.510339 
L 226.84214 244.209173 
L 232.168504 243.61443 
L 237.494867 244.250833 
L 242.821231 244.537525 
L 248.147595 246.125713 
L 253.473958 246.074734 
L 258.800322 246.206341 
L 264.126685 244.653963 
L 269.453049 244.816338 
L 274.779413 245.7974 
L 280.105776 247.560337 
L 285.43214 246.05268 
L 290.758504 246.027048 
L 296.084867 244.216432 
L 301.411231 243.464229 
L 306.737595 242.505226 
L 312.063958 241.18437 
L 317.390322 240.332637 
L 322.716685 239.942381 
L 328.043049 238.058124 
L 333.369413 239.259823 
L 338.695776 239.853304 
L 344.02214 241.519993 
" style="fill:none;stroke:#969696;stroke-linecap:square;stroke-opacity:0.8;stroke-width:5;"/>
   </g>
   <g id="line2d_25">
    <path clip-path="url(#p773d9dd5c5)" d="M 109.66214 227.79281 
L 114.988504 227.923677 
L 120.314867 226.391288 
L 125.641231 228.421927 
L 130.967595 231.728581 
L 136.293958 234.939227 
L 141.620322 233.208155 
L 146.946685 233.97582 
L 152.273049 233.720056 
L 157.599413 233.679125 
L 162.925776 229.697946 
L 168.25214 228.65752 
L 173.578504 228.680102 
L 178.904867 230.456553 
L 184.231231 227.86619 
L 189.557595 229.519111 
L 194.883958 230.238823 
L 200.210322 231.279441 
L 205.536685 230.700007 
L 210.863049 230.063415 
L 216.189413 228.741398 
L 221.515776 230.260041 
L 226.84214 228.005013 
L 232.168504 226.385011 
L 237.494867 228.125119 
L 242.821231 229.27526 
L 248.147595 229.880752 
L 253.473958 231.151876 
L 258.800322 233.754653 
L 264.126685 233.534053 
L 269.453049 233.686671 
L 274.779413 233.309998 
L 280.105776 237.263093 
L 285.43214 236.716497 
L 290.758504 233.100126 
L 296.084867 236.109824 
L 301.411231 235.363537 
L 306.737595 232.777456 
L 312.063958 231.913119 
L 317.390322 228.140091 
L 322.716685 229.032956 
L 328.043049 230.156984 
L 333.369413 228.70949 
L 338.695776 228.935687 
L 344.02214 228.454099 
" style="fill:none;stroke:#eb3920;stroke-linecap:square;stroke-opacity:0.75;stroke-width:5;"/>
   </g>
   <g id="patch_6">
    <path d="M 109.66214 289.152 
L 109.66214 183.09287 
" style="fill:none;stroke:#000000;stroke-linecap:square;stroke-linejoin:miter;stroke-width:4;"/>
   </g>
   <g id="patch_7">
    <path d="M 109.66214 289.152 
L 344.02214 289.152 
" style="fill:none;stroke:#000000;stroke-linecap:square;stroke-linejoin:miter;stroke-width:4;"/>
   </g>
  </g>
  <g id="text_11">
   <!-- Running and pupil responses -->
   <g transform="translate(101.62694 19.7226)scale(0.1728 -0.1728)">
    <use xlink:href="#LiberationSans-Bold-82"/>
    <use x="72.216797" xlink:href="#LiberationSans-Bold-117"/>
    <use x="133.300781" xlink:href="#LiberationSans-Bold-110"/>
    <use x="194.384766" xlink:href="#LiberationSans-Bold-110"/>
    <use x="255.46875" xlink:href="#LiberationSans-Bold-105"/>
    <use x="283.251953" xlink:href="#LiberationSans-Bold-110"/>
    <use x="344.335938" xlink:href="#LiberationSans-Bold-103"/>
    <use x="405.419922" xlink:href="#LiberationSans-Bold-32"/>
    <use x="433.203125" xlink:href="#LiberationSans-Bold-97"/>
    <use x="488.818359" xlink:href="#LiberationSans-Bold-110"/>
    <use x="549.902344" xlink:href="#LiberationSans-Bold-100"/>
    <use x="610.986328" xlink:href="#LiberationSans-Bold-32"/>
    <use x="638.769531" xlink:href="#LiberationSans-Bold-112"/>
    <use x="699.853516" xlink:href="#LiberationSans-Bold-117"/>
    <use x="760.9375" xlink:href="#LiberationSans-Bold-112"/>
    <use x="822.021484" xlink:href="#LiberationSans-Bold-105"/>
    <use x="849.804688" xlink:href="#LiberationSans-Bold-108"/>
    <use x="877.587891" xlink:href="#LiberationSans-Bold-32"/>
    <use x="905.371094" xlink:href="#LiberationSans-Bold-114"/>
    <use x="944.287109" xlink:href="#LiberationSans-Bold-101"/>
    <use x="999.902344" xlink:href="#LiberationSans-Bold-115"/>
    <use x="1055.517578" xlink:href="#LiberationSans-Bold-112"/>
    <use x="1116.601562" xlink:href="#LiberationSans-Bold-111"/>
    <use x="1177.685547" xlink:href="#LiberationSans-Bold-110"/>
    <use x="1238.769531" xlink:href="#LiberationSans-Bold-115"/>
    <use x="1294.384766" xlink:href="#LiberationSans-Bold-101"/>
    <use x="1350" xlink:href="#LiberationSans-Bold-115"/>
   </g>
  </g>
 </g>
 <defs>
  <clipPath id="pea6f97367c">
   <rect height="106.05913" width="234.36" x="109.66214" y="45.216"/>
  </clipPath>
  <clipPath id="p773d9dd5c5">
   <rect height="106.05913" width="234.36" x="109.66214" y="183.09287"/>
  </clipPath>
 </defs>
</svg>
