<?xml version="1.0" encoding="utf-8" standalone="no"?>
<!DOCTYPE svg PUBLIC "-//W3C//DTD SVG 1.1//EN"
  "http://www.w3.org/Graphics/SVG/1.1/DTD/svg11.dtd">
<svg xmlns:xlink="http://www.w3.org/1999/xlink" width="816.4188pt" height="773.3781pt" viewBox="0 0 816.4188 773.3781" xmlns="http://www.w3.org/2000/svg" version="1.1">
 <metadata>
  <rdf:RDF xmlns:dc="http://purl.org/dc/elements/1.1/" xmlns:cc="http://creativecommons.org/ns#" xmlns:rdf="http://www.w3.org/1999/02/22-rdf-syntax-ns#">
   <cc:Work>
    <dc:type rdf:resource="http://purl.org/dc/dcmitype/StillImage"/>
    <dc:date>2023-04-04T17:11:29.585959</dc:date>
    <dc:format>image/svg+xml</dc:format>
    <dc:creator>
     <cc:Agent>
      <dc:title>Matplotlib v3.6.3, https://matplotlib.org/</dc:title>
     </cc:Agent>
    </dc:creator>
   </cc:Work>
  </rdf:RDF>
 </metadata>
 <defs>
  <style type="text/css">*{stroke-linejoin: round; stroke-linecap: butt}</style>
 </defs>
 <g id="figure_1">
  <g id="patch_1">
   <path d="M 0 773.3781 
L 816.4188 773.3781 
L 816.4188 -0 
L 0 -0 
z
" style="fill: #ffffff"/>
  </g>
  <g id="axes_1">
   <g id="patch_2">
    <path d="M 78.8853 366.568735 
L 403.749825 366.568735 
L 403.749825 64.66342 
L 78.8853 64.66342 
z
" style="fill: #ffffff"/>
   </g>
   <g id="matplotlib.axis_1">
    <g id="xtick_1">
     <g id="line2d_1">
      <defs>
       <path id="mcbe866d8ca" d="M 0 0 
L 0 8 
" style="stroke: #000000; stroke-width: 4"/>
      </defs>
      <g>
       <use xlink:href="#mcbe866d8ca" x="78.8853" y="366.568735" style="stroke: #000000; stroke-width: 4"/>
      </g>
     </g>
     <g id="text_1">
      <!-- -0.5 -->
      <g transform="translate(63.99885 390.437435) scale(0.1728 -0.1728)">
       <defs>
        <path id="Arial-BoldMT-2d" d="M 359 1222 
L 359 2100 
L 2084 2100 
L 2084 1222 
L 359 1222 
z
" transform="scale(0.015625)"/>
        <path id="Arial-BoldMT-30" d="M 1756 4600 
Q 2422 4600 2797 4125 
Q 3244 3563 3244 2259 
Q 3244 959 2794 391 
Q 2422 -78 1756 -78 
Q 1088 -78 678 436 
Q 269 950 269 2269 
Q 269 3563 719 4131 
Q 1091 4600 1756 4600 
z
M 1756 3872 
Q 1597 3872 1472 3770 
Q 1347 3669 1278 3406 
Q 1188 3066 1188 2259 
Q 1188 1453 1269 1151 
Q 1350 850 1473 750 
Q 1597 650 1756 650 
Q 1916 650 2041 751 
Q 2166 853 2234 1116 
Q 2325 1453 2325 2259 
Q 2325 3066 2244 3367 
Q 2163 3669 2039 3770 
Q 1916 3872 1756 3872 
z
" transform="scale(0.015625)"/>
        <path id="Arial-BoldMT-2e" d="M 459 0 
L 459 878 
L 1338 878 
L 1338 0 
L 459 0 
z
" transform="scale(0.015625)"/>
        <path id="Arial-BoldMT-35" d="M 284 1178 
L 1159 1269 
Q 1197 972 1381 798 
Q 1566 625 1806 625 
Q 2081 625 2272 848 
Q 2463 1072 2463 1522 
Q 2463 1944 2273 2155 
Q 2084 2366 1781 2366 
Q 1403 2366 1103 2031 
L 391 2134 
L 841 4519 
L 3163 4519 
L 3163 3697 
L 1506 3697 
L 1369 2919 
Q 1663 3066 1969 3066 
Q 2553 3066 2959 2641 
Q 3366 2216 3366 1538 
Q 3366 972 3038 528 
Q 2591 -78 1797 -78 
Q 1163 -78 763 262 
Q 363 603 284 1178 
z
" transform="scale(0.015625)"/>
       </defs>
       <use xlink:href="#Arial-BoldMT-2d"/>
       <use xlink:href="#Arial-BoldMT-30" x="33.300781"/>
       <use xlink:href="#Arial-BoldMT-2e" x="88.916016"/>
       <use xlink:href="#Arial-BoldMT-35" x="116.699219"/>
      </g>
     </g>
    </g>
    <g id="xtick_2">
     <g id="line2d_2">
      <g>
       <use xlink:href="#mcbe866d8ca" x="241.317562" y="366.568735" style="stroke: #000000; stroke-width: 4"/>
      </g>
     </g>
     <g id="text_2">
      <!-- 0 -->
      <g transform="translate(236.512912 390.437435) scale(0.1728 -0.1728)">
       <use xlink:href="#Arial-BoldMT-30"/>
      </g>
     </g>
    </g>
    <g id="xtick_3">
     <g id="line2d_3">
      <g>
       <use xlink:href="#mcbe866d8ca" x="403.749825" y="366.568735" style="stroke: #000000; stroke-width: 4"/>
      </g>
     </g>
     <g id="text_3">
      <!-- 0.5 -->
      <g transform="translate(391.740225 390.437435) scale(0.1728 -0.1728)">
       <use xlink:href="#Arial-BoldMT-30"/>
       <use xlink:href="#Arial-BoldMT-2e" x="55.615234"/>
       <use xlink:href="#Arial-BoldMT-35" x="83.398438"/>
      </g>
     </g>
    </g>
   </g>
   <g id="matplotlib.axis_2">
    <g id="ytick_1">
     <g id="line2d_4">
      <defs>
       <path id="m1b1cc7a491" d="M 0 0 
L -8 0 
" style="stroke: #000000; stroke-width: 4"/>
      </defs>
      <g>
       <use xlink:href="#m1b1cc7a491" x="78.8853" y="366.568735" style="stroke: #000000; stroke-width: 4"/>
      </g>
     </g>
    </g>
    <g id="ytick_2">
     <g id="line2d_5">
      <g>
       <use xlink:href="#m1b1cc7a491" x="78.8853" y="316.251182" style="stroke: #000000; stroke-width: 4"/>
      </g>
     </g>
     <g id="text_4">
      <!-- -0.04 -->
      <g transform="translate(28.0031 322.435532) scale(0.1728 -0.1728)">
       <defs>
        <path id="Arial-BoldMT-34" d="M 1994 0 
L 1994 922 
L 119 922 
L 119 1691 
L 2106 4600 
L 2844 4600 
L 2844 1694 
L 3413 1694 
L 3413 922 
L 2844 922 
L 2844 0 
L 1994 0 
z
M 1994 1694 
L 1994 3259 
L 941 1694 
L 1994 1694 
z
" transform="scale(0.015625)"/>
       </defs>
       <use xlink:href="#Arial-BoldMT-2d"/>
       <use xlink:href="#Arial-BoldMT-30" x="33.300781"/>
       <use xlink:href="#Arial-BoldMT-2e" x="88.916016"/>
       <use xlink:href="#Arial-BoldMT-30" x="116.699219"/>
       <use xlink:href="#Arial-BoldMT-34" x="172.314453"/>
      </g>
     </g>
    </g>
    <g id="ytick_3">
     <g id="line2d_6">
      <g>
       <use xlink:href="#m1b1cc7a491" x="78.8853" y="265.93363" style="stroke: #000000; stroke-width: 4"/>
      </g>
     </g>
    </g>
    <g id="ytick_4">
     <g id="line2d_7">
      <g>
       <use xlink:href="#m1b1cc7a491" x="78.8853" y="215.616077" style="stroke: #000000; stroke-width: 4"/>
      </g>
     </g>
     <g id="text_5">
      <!-- 0 -->
      <g transform="translate(57.776 221.800427) scale(0.1728 -0.1728)">
       <use xlink:href="#Arial-BoldMT-30"/>
      </g>
     </g>
    </g>
    <g id="ytick_5">
     <g id="line2d_8">
      <g>
       <use xlink:href="#m1b1cc7a491" x="78.8853" y="165.298525" style="stroke: #000000; stroke-width: 4"/>
      </g>
     </g>
    </g>
    <g id="ytick_6">
     <g id="line2d_9">
      <g>
       <use xlink:href="#m1b1cc7a491" x="78.8853" y="114.980972" style="stroke: #000000; stroke-width: 4"/>
      </g>
     </g>
     <g id="text_6">
      <!-- 0.04 -->
      <g transform="translate(33.7568 121.165322) scale(0.1728 -0.1728)">
       <use xlink:href="#Arial-BoldMT-30"/>
       <use xlink:href="#Arial-BoldMT-2e" x="55.615234"/>
       <use xlink:href="#Arial-BoldMT-30" x="83.398438"/>
       <use xlink:href="#Arial-BoldMT-34" x="139.013672"/>
      </g>
     </g>
    </g>
    <g id="ytick_7">
     <g id="line2d_10">
      <g>
       <use xlink:href="#m1b1cc7a491" x="78.8853" y="64.66342" style="stroke: #000000; stroke-width: 4"/>
      </g>
     </g>
    </g>
    <g id="text_7">
     <!-- . -->
     <g style="fill: #ffffff" transform="translate(19.5687 218.016377) rotate(-90) scale(0.1728 -0.1728)">
      <defs>
       <path id="ArialMT-2e" d="M 581 0 
L 581 641 
L 1222 641 
L 1222 0 
L 581 0 
z
" transform="scale(0.015625)"/>
      </defs>
      <use xlink:href="#ArialMT-2e"/>
     </g>
    </g>
   </g>
   <g id="patch_3">
    <path d="M 78.8853 366.568735 
L 78.8853 64.66342 
" style="fill: none; stroke: #000000; stroke-width: 4; stroke-linejoin: miter; stroke-linecap: square"/>
   </g>
   <g id="patch_4">
    <path d="M 78.8853 366.568735 
L 403.749825 366.568735 
" style="fill: none; stroke: #000000; stroke-width: 4; stroke-linejoin: miter; stroke-linecap: square"/>
   </g>
   <g id="text_8">
    <!-- L2/3 Pyr -->
    <g transform="translate(207.699862 46.587207) scale(0.1728 -0.1728)">
     <defs>
      <path id="Arial-BoldMT-4c" d="M 491 0 
L 491 4544 
L 1416 4544 
L 1416 772 
L 3716 772 
L 3716 0 
L 491 0 
z
" transform="scale(0.015625)"/>
      <path id="Arial-BoldMT-32" d="M 3238 816 
L 3238 0 
L 159 0 
Q 209 463 459 877 
Q 709 1291 1447 1975 
Q 2041 2528 2175 2725 
Q 2356 2997 2356 3263 
Q 2356 3556 2198 3714 
Q 2041 3872 1763 3872 
Q 1488 3872 1325 3706 
Q 1163 3541 1138 3156 
L 263 3244 
Q 341 3969 753 4284 
Q 1166 4600 1784 4600 
Q 2463 4600 2850 4234 
Q 3238 3869 3238 3325 
Q 3238 3016 3127 2736 
Q 3016 2456 2775 2150 
Q 2616 1947 2200 1565 
Q 1784 1184 1673 1059 
Q 1563 934 1494 816 
L 3238 816 
z
" transform="scale(0.015625)"/>
      <path id="Arial-BoldMT-2f" d="M -9 -78 
L 1125 4659 
L 1784 4659 
L 638 -78 
L -9 -78 
z
" transform="scale(0.015625)"/>
      <path id="Arial-BoldMT-33" d="M 241 1216 
L 1091 1319 
Q 1131 994 1309 822 
Q 1488 650 1741 650 
Q 2013 650 2198 856 
Q 2384 1063 2384 1413 
Q 2384 1744 2206 1937 
Q 2028 2131 1772 2131 
Q 1603 2131 1369 2066 
L 1466 2781 
Q 1822 2772 2009 2936 
Q 2197 3100 2197 3372 
Q 2197 3603 2059 3740 
Q 1922 3878 1694 3878 
Q 1469 3878 1309 3722 
Q 1150 3566 1116 3266 
L 306 3403 
Q 391 3819 561 4067 
Q 731 4316 1036 4458 
Q 1341 4600 1719 4600 
Q 2366 4600 2756 4188 
Q 3078 3850 3078 3425 
Q 3078 2822 2419 2463 
Q 2813 2378 3048 2084 
Q 3284 1791 3284 1375 
Q 3284 772 2843 347 
Q 2403 -78 1747 -78 
Q 1125 -78 715 280 
Q 306 638 241 1216 
z
" transform="scale(0.015625)"/>
      <path id="Arial-BoldMT-20" transform="scale(0.015625)"/>
      <path id="Arial-BoldMT-50" d="M 466 0 
L 466 4581 
L 1950 4581 
Q 2794 4581 3050 4513 
Q 3444 4409 3709 4064 
Q 3975 3719 3975 3172 
Q 3975 2750 3822 2462 
Q 3669 2175 3433 2011 
Q 3197 1847 2953 1794 
Q 2622 1728 1994 1728 
L 1391 1728 
L 1391 0 
L 466 0 
z
M 1391 3806 
L 1391 2506 
L 1897 2506 
Q 2444 2506 2628 2578 
Q 2813 2650 2917 2803 
Q 3022 2956 3022 3159 
Q 3022 3409 2875 3571 
Q 2728 3734 2503 3775 
Q 2338 3806 1838 3806 
L 1391 3806 
z
" transform="scale(0.015625)"/>
      <path id="Arial-BoldMT-79" d="M 44 3319 
L 978 3319 
L 1772 963 
L 2547 3319 
L 3456 3319 
L 2284 125 
L 2075 -453 
Q 1959 -744 1854 -897 
Q 1750 -1050 1614 -1145 
Q 1478 -1241 1279 -1294 
Q 1081 -1347 831 -1347 
Q 578 -1347 334 -1294 
L 256 -606 
Q 463 -647 628 -647 
Q 934 -647 1081 -467 
Q 1228 -288 1306 -9 
L 44 3319 
z
" transform="scale(0.015625)"/>
      <path id="Arial-BoldMT-72" d="M 1300 0 
L 422 0 
L 422 3319 
L 1238 3319 
L 1238 2847 
Q 1447 3181 1614 3287 
Q 1781 3394 1994 3394 
Q 2294 3394 2572 3228 
L 2300 2463 
Q 2078 2606 1888 2606 
Q 1703 2606 1575 2504 
Q 1447 2403 1373 2137 
Q 1300 1872 1300 1025 
L 1300 0 
z
" transform="scale(0.015625)"/>
     </defs>
     <use xlink:href="#Arial-BoldMT-4c"/>
     <use xlink:href="#Arial-BoldMT-32" x="61.083984"/>
     <use xlink:href="#Arial-BoldMT-2f" x="116.699219"/>
     <use xlink:href="#Arial-BoldMT-33" x="144.482422"/>
     <use xlink:href="#Arial-BoldMT-20" x="200.097656"/>
     <use xlink:href="#Arial-BoldMT-50" x="227.880859"/>
     <use xlink:href="#Arial-BoldMT-79" x="294.580078"/>
     <use xlink:href="#Arial-BoldMT-72" x="350.195312"/>
    </g>
   </g>
  </g>
  <g id="axes_2">
   <g id="patch_5">
    <path d="M 443.605875 366.568735 
L 768.4704 366.568735 
L 768.4704 64.66342 
L 443.605875 64.66342 
z
" style="fill: #ffffff"/>
   </g>
   <g id="matplotlib.axis_3">
    <g id="xtick_4">
     <g id="line2d_11">
      <g>
       <use xlink:href="#mcbe866d8ca" x="443.605875" y="366.568735" style="stroke: #000000; stroke-width: 4"/>
      </g>
     </g>
     <g id="text_9">
      <!-- -0.5 -->
      <g transform="translate(428.719425 390.437435) scale(0.1728 -0.1728)">
       <use xlink:href="#Arial-BoldMT-2d"/>
       <use xlink:href="#Arial-BoldMT-30" x="33.300781"/>
       <use xlink:href="#Arial-BoldMT-2e" x="88.916016"/>
       <use xlink:href="#Arial-BoldMT-35" x="116.699219"/>
      </g>
     </g>
    </g>
    <g id="xtick_5">
     <g id="line2d_12">
      <g>
       <use xlink:href="#mcbe866d8ca" x="606.038137" y="366.568735" style="stroke: #000000; stroke-width: 4"/>
      </g>
     </g>
     <g id="text_10">
      <!-- 0 -->
      <g transform="translate(601.233487 390.437435) scale(0.1728 -0.1728)">
       <use xlink:href="#Arial-BoldMT-30"/>
      </g>
     </g>
    </g>
    <g id="xtick_6">
     <g id="line2d_13">
      <g>
       <use xlink:href="#mcbe866d8ca" x="768.4704" y="366.568735" style="stroke: #000000; stroke-width: 4"/>
      </g>
     </g>
     <g id="text_11">
      <!-- 0.5 -->
      <g transform="translate(756.4608 390.437435) scale(0.1728 -0.1728)">
       <use xlink:href="#Arial-BoldMT-30"/>
       <use xlink:href="#Arial-BoldMT-2e" x="55.615234"/>
       <use xlink:href="#Arial-BoldMT-35" x="83.398438"/>
      </g>
     </g>
    </g>
   </g>
   <g id="matplotlib.axis_4">
    <g id="ytick_8">
     <g id="line2d_14">
      <g>
       <use xlink:href="#m1b1cc7a491" x="443.605875" y="366.568735" style="stroke: #000000; stroke-width: 4"/>
      </g>
     </g>
    </g>
    <g id="ytick_9">
     <g id="line2d_15">
      <g>
       <use xlink:href="#m1b1cc7a491" x="443.605875" y="316.251182" style="stroke: #000000; stroke-width: 4"/>
      </g>
     </g>
    </g>
    <g id="ytick_10">
     <g id="line2d_16">
      <g>
       <use xlink:href="#m1b1cc7a491" x="443.605875" y="265.93363" style="stroke: #000000; stroke-width: 4"/>
      </g>
     </g>
    </g>
    <g id="ytick_11">
     <g id="line2d_17">
      <g>
       <use xlink:href="#m1b1cc7a491" x="443.605875" y="215.616077" style="stroke: #000000; stroke-width: 4"/>
      </g>
     </g>
    </g>
    <g id="ytick_12">
     <g id="line2d_18">
      <g>
       <use xlink:href="#m1b1cc7a491" x="443.605875" y="165.298525" style="stroke: #000000; stroke-width: 4"/>
      </g>
     </g>
    </g>
    <g id="ytick_13">
     <g id="line2d_19">
      <g>
       <use xlink:href="#m1b1cc7a491" x="443.605875" y="114.980972" style="stroke: #000000; stroke-width: 4"/>
      </g>
     </g>
    </g>
    <g id="ytick_14">
     <g id="line2d_20">
      <g>
       <use xlink:href="#m1b1cc7a491" x="443.605875" y="64.66342" style="stroke: #000000; stroke-width: 4"/>
      </g>
     </g>
    </g>
   </g>
   <g id="patch_6">
    <path d="M 443.605875 366.568735 
L 443.605875 64.66342 
" style="fill: none; stroke: #000000; stroke-width: 4; stroke-linejoin: miter; stroke-linecap: square"/>
   </g>
   <g id="patch_7">
    <path d="M 443.605875 366.568735 
L 768.4704 366.568735 
" style="fill: none; stroke: #000000; stroke-width: 4; stroke-linejoin: miter; stroke-linecap: square"/>
   </g>
   <g id="text_12">
    <!-- L5 Pyr -->
    <g transform="translate(579.625387 46.587207) scale(0.1728 -0.1728)">
     <use xlink:href="#Arial-BoldMT-4c"/>
     <use xlink:href="#Arial-BoldMT-35" x="61.083984"/>
     <use xlink:href="#Arial-BoldMT-20" x="116.699219"/>
     <use xlink:href="#Arial-BoldMT-50" x="144.482422"/>
     <use xlink:href="#Arial-BoldMT-79" x="211.181641"/>
     <use xlink:href="#Arial-BoldMT-72" x="266.796875"/>
    </g>
   </g>
  </g>
  <g id="axes_3">
   <g id="patch_8">
    <path d="M 78.8853 714.8972 
L 403.749825 714.8972 
L 403.749825 412.991885 
L 78.8853 412.991885 
z
" style="fill: #ffffff"/>
   </g>
   <g id="patch_9">
    <path d="M 182.698483 714.8972 
L 182.698483 412.991885 
L 78.8853 412.991885 
L 78.8853 714.8972 
z
" clip-path="url(#pd62d78b11d)" style="fill: #871719; opacity: 0.1"/>
   </g>
   <g id="patch_10">
    <path d="M 294.024328 714.8972 
L 294.024328 412.991885 
L 403.749825 412.991885 
L 403.749825 714.8972 
z
" clip-path="url(#pd62d78b11d)" style="fill: #871719; opacity: 0.1"/>
   </g>
   <g id="patch_11">
    <path d="M 117.511145 714.8972 
L 123.139657 714.8972 
L 123.139657 714.534174 
L 117.511145 714.534174 
z
" clip-path="url(#pd62d78b11d)" style="fill: #808080; opacity: 0.45"/>
   </g>
   <g id="patch_12">
    <path d="M 123.139657 714.8972 
L 128.768168 714.8972 
L 128.768168 714.8972 
L 123.139657 714.8972 
z
" clip-path="url(#pd62d78b11d)" style="fill: #808080; opacity: 0.45"/>
   </g>
   <g id="patch_13">
    <path d="M 128.768168 714.8972 
L 134.39668 714.8972 
L 134.39668 714.534174 
L 128.768168 714.534174 
z
" clip-path="url(#pd62d78b11d)" style="fill: #808080; opacity: 0.45"/>
   </g>
   <g id="patch_14">
    <path d="M 134.39668 714.8972 
L 140.025191 714.8972 
L 140.025191 714.534174 
L 134.39668 714.534174 
z
" clip-path="url(#pd62d78b11d)" style="fill: #808080; opacity: 0.45"/>
   </g>
   <g id="patch_15">
    <path d="M 140.025191 714.8972 
L 145.653703 714.8972 
L 145.653703 712.356015 
L 140.025191 712.356015 
z
" clip-path="url(#pd62d78b11d)" style="fill: #808080; opacity: 0.45"/>
   </g>
   <g id="patch_16">
    <path d="M 145.653703 714.8972 
L 151.282214 714.8972 
L 151.282214 713.445094 
L 145.653703 713.445094 
z
" clip-path="url(#pd62d78b11d)" style="fill: #808080; opacity: 0.45"/>
   </g>
   <g id="patch_17">
    <path d="M 151.282214 714.8972 
L 156.910726 714.8972 
L 156.910726 710.177856 
L 151.282214 710.177856 
z
" clip-path="url(#pd62d78b11d)" style="fill: #808080; opacity: 0.45"/>
   </g>
   <g id="patch_18">
    <path d="M 156.910726 714.8972 
L 162.539237 714.8972 
L 162.539237 706.910618 
L 156.910726 706.910618 
z
" clip-path="url(#pd62d78b11d)" style="fill: #808080; opacity: 0.45"/>
   </g>
   <g id="patch_19">
    <path d="M 162.539237 714.8972 
L 168.167749 714.8972 
L 168.167749 705.821539 
L 162.539237 705.821539 
z
" clip-path="url(#pd62d78b11d)" style="fill: #808080; opacity: 0.45"/>
   </g>
   <g id="patch_20">
    <path d="M 168.167749 714.8972 
L 173.79626 714.8972 
L 173.79626 701.465222 
L 168.167749 701.465222 
z
" clip-path="url(#pd62d78b11d)" style="fill: #808080; opacity: 0.45"/>
   </g>
   <g id="patch_21">
    <path d="M 173.79626 714.8972 
L 179.424772 714.8972 
L 179.424772 689.122323 
L 173.79626 689.122323 
z
" clip-path="url(#pd62d78b11d)" style="fill: #808080; opacity: 0.45"/>
   </g>
   <g id="patch_22">
    <path d="M 179.424772 714.8972 
L 185.053284 714.8972 
L 185.053284 676.416398 
L 179.424772 676.416398 
z
" clip-path="url(#pd62d78b11d)" style="fill: #808080; opacity: 0.45"/>
   </g>
   <g id="patch_23">
    <path d="M 185.053284 714.8972 
L 190.681795 714.8972 
L 190.681795 657.539023 
L 185.053284 657.539023 
z
" clip-path="url(#pd62d78b11d)" style="fill: #808080; opacity: 0.45"/>
   </g>
   <g id="patch_24">
    <path d="M 190.681795 714.8972 
L 196.310307 714.8972 
L 196.310307 622.688485 
L 190.681795 622.688485 
z
" clip-path="url(#pd62d78b11d)" style="fill: #808080; opacity: 0.45"/>
   </g>
   <g id="patch_25">
    <path d="M 196.310307 714.8972 
L 201.938818 714.8972 
L 201.938818 610.345587 
L 196.310307 610.345587 
z
" clip-path="url(#pd62d78b11d)" style="fill: #808080; opacity: 0.45"/>
   </g>
   <g id="patch_26">
    <path d="M 201.938818 714.8972 
L 207.56733 714.8972 
L 207.56733 588.200974 
L 201.938818 588.200974 
z
" clip-path="url(#pd62d78b11d)" style="fill: #808080; opacity: 0.45"/>
   </g>
   <g id="patch_27">
    <path d="M 207.56733 714.8972 
L 213.195841 714.8972 
L 213.195841 557.343727 
L 207.56733 557.343727 
z
" clip-path="url(#pd62d78b11d)" style="fill: #808080; opacity: 0.45"/>
   </g>
   <g id="patch_28">
    <path d="M 213.195841 714.8972 
L 218.824353 714.8972 
L 218.824353 523.219242 
L 213.195841 523.219242 
z
" clip-path="url(#pd62d78b11d)" style="fill: #808080; opacity: 0.45"/>
   </g>
   <g id="patch_29">
    <path d="M 218.824353 714.8972 
L 224.452864 714.8972 
L 224.452864 481.834228 
L 218.824353 481.834228 
z
" clip-path="url(#pd62d78b11d)" style="fill: #808080; opacity: 0.45"/>
   </g>
   <g id="patch_30">
    <path d="M 224.452864 714.8972 
L 230.081376 714.8972 
L 230.081376 442.264347 
L 224.452864 442.264347 
z
" clip-path="url(#pd62d78b11d)" style="fill: #808080; opacity: 0.45"/>
   </g>
   <g id="patch_31">
    <path d="M 230.081376 714.8972 
L 235.709887 714.8972 
L 235.709887 434.277765 
L 230.081376 434.277765 
z
" clip-path="url(#pd62d78b11d)" style="fill: #808080; opacity: 0.45"/>
   </g>
   <g id="patch_32">
    <path d="M 235.709887 714.8972 
L 241.338399 714.8972 
L 241.338399 430.647501 
L 235.709887 430.647501 
z
" clip-path="url(#pd62d78b11d)" style="fill: #808080; opacity: 0.45"/>
   </g>
   <g id="patch_33">
    <path d="M 241.338399 714.8972 
L 246.96691 714.8972 
L 246.96691 431.73658 
L 241.338399 431.73658 
z
" clip-path="url(#pd62d78b11d)" style="fill: #808080; opacity: 0.45"/>
   </g>
   <g id="patch_34">
    <path d="M 246.96691 714.8972 
L 252.595422 714.8972 
L 252.595422 469.128303 
L 246.96691 469.128303 
z
" clip-path="url(#pd62d78b11d)" style="fill: #808080; opacity: 0.45"/>
   </g>
   <g id="patch_35">
    <path d="M 252.595422 714.8972 
L 258.223933 714.8972 
L 258.223933 478.930017 
L 252.595422 478.930017 
z
" clip-path="url(#pd62d78b11d)" style="fill: #808080; opacity: 0.45"/>
   </g>
   <g id="patch_36">
    <path d="M 258.223933 714.8972 
L 263.852445 714.8972 
L 263.852445 484.012387 
L 258.223933 484.012387 
z
" clip-path="url(#pd62d78b11d)" style="fill: #808080; opacity: 0.45"/>
   </g>
   <g id="patch_37">
    <path d="M 263.852445 714.8972 
L 269.480956 714.8972 
L 269.480956 526.849506 
L 263.852445 526.849506 
z
" clip-path="url(#pd62d78b11d)" style="fill: #808080; opacity: 0.45"/>
   </g>
   <g id="patch_38">
    <path d="M 269.480956 714.8972 
L 275.109468 714.8972 
L 275.109468 560.247938 
L 269.480956 560.247938 
z
" clip-path="url(#pd62d78b11d)" style="fill: #808080; opacity: 0.45"/>
   </g>
   <g id="patch_39">
    <path d="M 275.109468 714.8972 
L 280.737979 714.8972 
L 280.737979 588.200974 
L 275.109468 588.200974 
z
" clip-path="url(#pd62d78b11d)" style="fill: #808080; opacity: 0.45"/>
   </g>
   <g id="patch_40">
    <path d="M 280.737979 714.8972 
L 286.366491 714.8972 
L 286.366491 633.942305 
L 280.737979 633.942305 
z
" clip-path="url(#pd62d78b11d)" style="fill: #808080; opacity: 0.45"/>
   </g>
   <g id="patch_41">
    <path d="M 286.366491 714.8972 
L 291.995002 714.8972 
L 291.995002 647.374283 
L 286.366491 647.374283 
z
" clip-path="url(#pd62d78b11d)" style="fill: #808080; opacity: 0.45"/>
   </g>
   <g id="patch_42">
    <path d="M 291.995002 714.8972 
L 297.623514 714.8972 
L 297.623514 670.971001 
L 291.995002 670.971001 
z
" clip-path="url(#pd62d78b11d)" style="fill: #808080; opacity: 0.45"/>
   </g>
   <g id="patch_43">
    <path d="M 297.623514 714.8972 
L 303.252025 714.8972 
L 303.252025 686.581138 
L 297.623514 686.581138 
z
" clip-path="url(#pd62d78b11d)" style="fill: #808080; opacity: 0.45"/>
   </g>
   <g id="patch_44">
    <path d="M 303.252025 714.8972 
L 308.880537 714.8972 
L 308.880537 697.471931 
L 303.252025 697.471931 
z
" clip-path="url(#pd62d78b11d)" style="fill: #808080; opacity: 0.45"/>
   </g>
   <g id="patch_45">
    <path d="M 308.880537 714.8972 
L 314.509048 714.8972 
L 314.509048 706.547592 
L 308.880537 706.547592 
z
" clip-path="url(#pd62d78b11d)" style="fill: #808080; opacity: 0.45"/>
   </g>
   <g id="patch_46">
    <path d="M 314.509048 714.8972 
L 320.13756 714.8972 
L 320.13756 708.362724 
L 314.509048 708.362724 
z
" clip-path="url(#pd62d78b11d)" style="fill: #808080; opacity: 0.45"/>
   </g>
   <g id="patch_47">
    <path d="M 320.13756 714.8972 
L 325.766071 714.8972 
L 325.766071 711.629962 
L 320.13756 711.629962 
z
" clip-path="url(#pd62d78b11d)" style="fill: #808080; opacity: 0.45"/>
   </g>
   <g id="patch_48">
    <path d="M 325.766071 714.8972 
L 331.394583 714.8972 
L 331.394583 713.082068 
L 325.766071 713.082068 
z
" clip-path="url(#pd62d78b11d)" style="fill: #808080; opacity: 0.45"/>
   </g>
   <g id="patch_49">
    <path d="M 331.394583 714.8972 
L 337.023095 714.8972 
L 337.023095 713.808121 
L 331.394583 713.808121 
z
" clip-path="url(#pd62d78b11d)" style="fill: #808080; opacity: 0.45"/>
   </g>
   <g id="patch_50">
    <path d="M 337.023095 714.8972 
L 342.651606 714.8972 
L 342.651606 714.171147 
L 337.023095 714.171147 
z
" clip-path="url(#pd62d78b11d)" style="fill: #808080; opacity: 0.45"/>
   </g>
   <g id="patch_51">
    <path d="M 0 0 
z
" clip-path="url(#pd62d78b11d)" style="fill: #50a2d5; opacity: 0.6"/>
   </g>
   <g id="patch_52">
    <path d="M 0 0 
z
" clip-path="url(#pd62d78b11d)" style="fill: #50a2d5; opacity: 0.6"/>
   </g>
   <g id="patch_53">
    <path d="M 0 0 
z
" clip-path="url(#pd62d78b11d)" style="fill: #50a2d5; opacity: 0.6"/>
   </g>
   <g id="patch_54">
    <path d="M 0 0 
z
" clip-path="url(#pd62d78b11d)" style="fill: #50a2d5; opacity: 0.6"/>
   </g>
   <g id="patch_55">
    <path d="M 0 0 
z
" clip-path="url(#pd62d78b11d)" style="fill: #50a2d5; opacity: 0.6"/>
   </g>
   <g id="patch_56">
    <path d="M 0 0 
z
" clip-path="url(#pd62d78b11d)" style="fill: #50a2d5; opacity: 0.6"/>
   </g>
   <g id="patch_57">
    <path d="M 0 0 
z
" clip-path="url(#pd62d78b11d)" style="fill: #50a2d5; opacity: 0.6"/>
   </g>
   <g id="patch_58">
    <path d="M 0 0 
z
" clip-path="url(#pd62d78b11d)" style="fill: #50a2d5; opacity: 0.6"/>
   </g>
   <g id="patch_59">
    <path d="M 0 0 
z
" clip-path="url(#pd62d78b11d)" style="fill: #50a2d5; opacity: 0.6"/>
   </g>
   <g id="patch_60">
    <path d="M 0 0 
z
" clip-path="url(#pd62d78b11d)" style="fill: #50a2d5; opacity: 0.6"/>
   </g>
   <g id="patch_61">
    <path d="M 0 0 
z
" clip-path="url(#pd62d78b11d)" style="fill: #50a2d5; opacity: 0.6"/>
   </g>
   <g id="patch_62">
    <path d="M 0 0 
z
" clip-path="url(#pd62d78b11d)" style="fill: #50a2d5; opacity: 0.6"/>
   </g>
   <g id="patch_63">
    <path d="M 0 0 
z
" clip-path="url(#pd62d78b11d)" style="fill: #50a2d5; opacity: 0.6"/>
   </g>
   <g id="patch_64">
    <path d="M 0 0 
z
" clip-path="url(#pd62d78b11d)" style="fill: #50a2d5; opacity: 0.6"/>
   </g>
   <g id="patch_65">
    <path d="M 0 0 
z
" clip-path="url(#pd62d78b11d)" style="fill: #50a2d5; opacity: 0.6"/>
   </g>
   <g id="patch_66">
    <path d="M 0 0 
z
" clip-path="url(#pd62d78b11d)" style="fill: #50a2d5; opacity: 0.6"/>
   </g>
   <g id="patch_67">
    <path d="M 0 0 
z
" clip-path="url(#pd62d78b11d)" style="fill: #50a2d5; opacity: 0.6"/>
   </g>
   <g id="patch_68">
    <path d="M 0 0 
z
" clip-path="url(#pd62d78b11d)" style="fill: #50a2d5; opacity: 0.6"/>
   </g>
   <g id="patch_69">
    <path d="M 0 0 
z
" clip-path="url(#pd62d78b11d)" style="fill: #50a2d5; opacity: 0.6"/>
   </g>
   <g id="patch_70">
    <path d="M 0 0 
z
" clip-path="url(#pd62d78b11d)" style="fill: #50a2d5; opacity: 0.6"/>
   </g>
   <g id="patch_71">
    <path d="M 0 0 
z
" clip-path="url(#pd62d78b11d)" style="fill: #50a2d5; opacity: 0.6"/>
   </g>
   <g id="patch_72">
    <path d="M 0 0 
z
" clip-path="url(#pd62d78b11d)" style="fill: #50a2d5; opacity: 0.6"/>
   </g>
   <g id="patch_73">
    <path d="M 0 0 
z
" clip-path="url(#pd62d78b11d)" style="fill: #50a2d5; opacity: 0.6"/>
   </g>
   <g id="patch_74">
    <path d="M 0 0 
z
" clip-path="url(#pd62d78b11d)" style="fill: #50a2d5; opacity: 0.6"/>
   </g>
   <g id="patch_75">
    <path d="M 0 0 
z
" clip-path="url(#pd62d78b11d)" style="fill: #50a2d5; opacity: 0.6"/>
   </g>
   <g id="patch_76">
    <path d="M 0 0 
z
" clip-path="url(#pd62d78b11d)" style="fill: #50a2d5; opacity: 0.6"/>
   </g>
   <g id="patch_77">
    <path d="M 0 0 
z
" clip-path="url(#pd62d78b11d)" style="fill: #50a2d5; opacity: 0.6"/>
   </g>
   <g id="patch_78">
    <path d="M 0 0 
z
" clip-path="url(#pd62d78b11d)" style="fill: #50a2d5; opacity: 0.6"/>
   </g>
   <g id="patch_79">
    <path d="M 0 0 
z
" clip-path="url(#pd62d78b11d)" style="fill: #50a2d5; opacity: 0.6"/>
   </g>
   <g id="patch_80">
    <path d="M 0 0 
z
" clip-path="url(#pd62d78b11d)" style="fill: #50a2d5; opacity: 0.6"/>
   </g>
   <g id="patch_81">
    <path d="M 0 0 
z
" clip-path="url(#pd62d78b11d)" style="fill: #50a2d5; opacity: 0.6"/>
   </g>
   <g id="patch_82">
    <path d="M 0 0 
z
" clip-path="url(#pd62d78b11d)" style="fill: #50a2d5; opacity: 0.6"/>
   </g>
   <g id="patch_83">
    <path d="M 0 0 
z
" clip-path="url(#pd62d78b11d)" style="fill: #50a2d5; opacity: 0.6"/>
   </g>
   <g id="patch_84">
    <path d="M 0 0 
z
" clip-path="url(#pd62d78b11d)" style="fill: #50a2d5; opacity: 0.6"/>
   </g>
   <g id="patch_85">
    <path d="M 0 0 
z
" clip-path="url(#pd62d78b11d)" style="fill: #50a2d5; opacity: 0.6"/>
   </g>
   <g id="patch_86">
    <path d="M 0 0 
z
" clip-path="url(#pd62d78b11d)" style="fill: #50a2d5; opacity: 0.6"/>
   </g>
   <g id="patch_87">
    <path d="M 0 0 
z
" clip-path="url(#pd62d78b11d)" style="fill: #50a2d5; opacity: 0.6"/>
   </g>
   <g id="patch_88">
    <path d="M 0 0 
z
" clip-path="url(#pd62d78b11d)" style="fill: #50a2d5; opacity: 0.6"/>
   </g>
   <g id="patch_89">
    <path d="M 0 0 
z
" clip-path="url(#pd62d78b11d)" style="fill: #50a2d5; opacity: 0.6"/>
   </g>
   <g id="patch_90">
    <path d="M 0 0 
z
" clip-path="url(#pd62d78b11d)" style="fill: #50a2d5; opacity: 0.6"/>
   </g>
   <g id="matplotlib.axis_5">
    <g id="xtick_7">
     <g id="line2d_21">
      <g>
       <use xlink:href="#mcbe866d8ca" x="105.957344" y="714.8972" style="stroke: #000000; stroke-width: 4"/>
      </g>
     </g>
     <g id="text_13">
      <!-- -0.5 -->
      <g transform="translate(91.070894 738.7659) scale(0.1728 -0.1728)">
       <use xlink:href="#Arial-BoldMT-2d"/>
       <use xlink:href="#Arial-BoldMT-30" x="33.300781"/>
       <use xlink:href="#Arial-BoldMT-2e" x="88.916016"/>
       <use xlink:href="#Arial-BoldMT-35" x="116.699219"/>
      </g>
     </g>
    </g>
    <g id="xtick_8">
     <g id="line2d_22">
      <g>
       <use xlink:href="#mcbe866d8ca" x="241.317562" y="714.8972" style="stroke: #000000; stroke-width: 4"/>
      </g>
     </g>
     <g id="text_14">
      <!-- 0 -->
      <g transform="translate(236.512912 738.7659) scale(0.1728 -0.1728)">
       <use xlink:href="#Arial-BoldMT-30"/>
      </g>
     </g>
    </g>
    <g id="xtick_9">
     <g id="line2d_23">
      <g>
       <use xlink:href="#mcbe866d8ca" x="376.677781" y="714.8972" style="stroke: #000000; stroke-width: 4"/>
      </g>
     </g>
     <g id="text_15">
      <!-- 0.5 -->
      <g transform="translate(364.668181 738.7659) scale(0.1728 -0.1728)">
       <use xlink:href="#Arial-BoldMT-30"/>
       <use xlink:href="#Arial-BoldMT-2e" x="55.615234"/>
       <use xlink:href="#Arial-BoldMT-35" x="83.398438"/>
      </g>
     </g>
    </g>
   </g>
   <g id="matplotlib.axis_6">
    <g id="ytick_15">
     <g id="line2d_24">
      <g>
       <use xlink:href="#m1b1cc7a491" x="78.8853" y="714.8972" style="stroke: #000000; stroke-width: 4"/>
      </g>
     </g>
     <g id="text_16">
      <!-- 0 -->
      <g transform="translate(57.776 721.08155) scale(0.1728 -0.1728)">
       <use xlink:href="#Arial-BoldMT-30"/>
      </g>
     </g>
    </g>
    <g id="ytick_16">
     <g id="line2d_25">
      <g>
       <use xlink:href="#m1b1cc7a491" x="78.8853" y="639.420871" style="stroke: #000000; stroke-width: 4"/>
      </g>
     </g>
    </g>
    <g id="ytick_17">
     <g id="line2d_26">
      <g>
       <use xlink:href="#m1b1cc7a491" x="78.8853" y="563.944542" style="stroke: #000000; stroke-width: 4"/>
      </g>
     </g>
     <g id="text_17">
      <!-- 2 -->
      <g transform="translate(57.776 570.128892) scale(0.1728 -0.1728)">
       <use xlink:href="#Arial-BoldMT-32"/>
      </g>
     </g>
    </g>
    <g id="ytick_18">
     <g id="line2d_27">
      <g>
       <use xlink:href="#m1b1cc7a491" x="78.8853" y="488.468214" style="stroke: #000000; stroke-width: 4"/>
      </g>
     </g>
    </g>
    <g id="ytick_19">
     <g id="line2d_28">
      <g>
       <use xlink:href="#m1b1cc7a491" x="78.8853" y="412.991885" style="stroke: #000000; stroke-width: 4"/>
      </g>
     </g>
     <g id="text_18">
      <!-- 4 -->
      <g transform="translate(57.776 419.176235) scale(0.1728 -0.1728)">
       <use xlink:href="#Arial-BoldMT-34"/>
      </g>
     </g>
    </g>
   </g>
   <g id="line2d_29">
    <path d="M 182.698483 714.8972 
L 182.698483 412.991885 
" clip-path="url(#pd62d78b11d)" style="fill: none; stroke-dasharray: 9,6; stroke-dashoffset: 0; stroke: #ff0000; stroke-width: 3"/>
   </g>
   <g id="line2d_30">
    <path d="M 294.024328 714.8972 
L 294.024328 412.991885 
" clip-path="url(#pd62d78b11d)" style="fill: none; stroke-dasharray: 9,6; stroke-dashoffset: 0; stroke: #ff0000; stroke-width: 3"/>
   </g>
   <g id="line2d_31">
    <path d="M 318.067167 714.8972 
L 318.067167 412.991885 
" clip-path="url(#pd62d78b11d)" style="fill: none; stroke-dasharray: 9,6; stroke-dashoffset: 0; stroke: #50a2d5; stroke-opacity: 0.8; stroke-width: 3"/>
   </g>
   <g id="line2d_32">
    <path d="M 241.317562 714.8972 
L 241.317562 412.991885 
" clip-path="url(#pd62d78b11d)" style="fill: none; stroke-dasharray: 9,6; stroke-dashoffset: 0; stroke: #000000; stroke-opacity: 0.5; stroke-width: 3"/>
   </g>
   <g id="patch_91">
    <path d="M 78.8853 714.8972 
L 78.8853 412.991885 
" style="fill: none; stroke: #000000; stroke-width: 4; stroke-linejoin: miter; stroke-linecap: square"/>
   </g>
   <g id="patch_92">
    <path d="M 78.8853 714.8972 
L 403.749825 714.8972 
" style="fill: none; stroke: #000000; stroke-width: 4; stroke-linejoin: miter; stroke-linecap: square"/>
   </g>
   <g id="legend_1">
    <g id="patch_93">
     <path d="M 292.341075 485.880635 
L 393.669825 485.880635 
Q 396.549825 485.880635 396.549825 483.000635 
L 396.549825 423.071885 
Q 396.549825 420.191885 393.669825 420.191885 
L 292.341075 420.191885 
Q 289.461075 420.191885 289.461075 423.071885 
L 289.461075 483.000635 
Q 289.461075 485.880635 292.341075 485.880635 
z
" style="fill: #ffffff; opacity: 0.8; stroke: #cccccc; stroke-width: 5; stroke-linejoin: miter"/>
    </g>
    <g id="line2d_33">
     <path d="M 295.221075 431.261885 
L 309.621075 431.261885 
L 324.021075 431.261885 
" style="fill: none; stroke-dasharray: 9,6; stroke-dashoffset: 0; stroke: #ff0000; stroke-width: 3"/>
    </g>
    <g id="text_19">
     <!-- p2.50 -->
     <g transform="translate(335.541075 436.301885) scale(0.144 -0.144)">
      <defs>
       <path id="ArialMT-70" d="M 422 -1272 
L 422 3319 
L 934 3319 
L 934 2888 
Q 1116 3141 1344 3267 
Q 1572 3394 1897 3394 
Q 2322 3394 2647 3175 
Q 2972 2956 3137 2557 
Q 3303 2159 3303 1684 
Q 3303 1175 3120 767 
Q 2938 359 2589 142 
Q 2241 -75 1856 -75 
Q 1575 -75 1351 44 
Q 1128 163 984 344 
L 984 -1272 
L 422 -1272 
z
M 931 1641 
Q 931 1000 1190 694 
Q 1450 388 1819 388 
Q 2194 388 2461 705 
Q 2728 1022 2728 1688 
Q 2728 2322 2467 2637 
Q 2206 2953 1844 2953 
Q 1484 2953 1207 2617 
Q 931 2281 931 1641 
z
" transform="scale(0.015625)"/>
       <path id="ArialMT-32" d="M 3222 541 
L 3222 0 
L 194 0 
Q 188 203 259 391 
Q 375 700 629 1000 
Q 884 1300 1366 1694 
Q 2113 2306 2375 2664 
Q 2638 3022 2638 3341 
Q 2638 3675 2398 3904 
Q 2159 4134 1775 4134 
Q 1369 4134 1125 3890 
Q 881 3647 878 3216 
L 300 3275 
Q 359 3922 746 4261 
Q 1134 4600 1788 4600 
Q 2447 4600 2831 4234 
Q 3216 3869 3216 3328 
Q 3216 3053 3103 2787 
Q 2991 2522 2730 2228 
Q 2469 1934 1863 1422 
Q 1356 997 1212 845 
Q 1069 694 975 541 
L 3222 541 
z
" transform="scale(0.015625)"/>
       <path id="ArialMT-35" d="M 266 1200 
L 856 1250 
Q 922 819 1161 601 
Q 1400 384 1738 384 
Q 2144 384 2425 690 
Q 2706 997 2706 1503 
Q 2706 1984 2436 2262 
Q 2166 2541 1728 2541 
Q 1456 2541 1237 2417 
Q 1019 2294 894 2097 
L 366 2166 
L 809 4519 
L 3088 4519 
L 3088 3981 
L 1259 3981 
L 1013 2750 
Q 1425 3038 1878 3038 
Q 2478 3038 2890 2622 
Q 3303 2206 3303 1553 
Q 3303 931 2941 478 
Q 2500 -78 1738 -78 
Q 1113 -78 717 272 
Q 322 622 266 1200 
z
" transform="scale(0.015625)"/>
       <path id="ArialMT-30" d="M 266 2259 
Q 266 3072 433 3567 
Q 600 4063 929 4331 
Q 1259 4600 1759 4600 
Q 2128 4600 2406 4451 
Q 2684 4303 2865 4023 
Q 3047 3744 3150 3342 
Q 3253 2941 3253 2259 
Q 3253 1453 3087 958 
Q 2922 463 2592 192 
Q 2263 -78 1759 -78 
Q 1097 -78 719 397 
Q 266 969 266 2259 
z
M 844 2259 
Q 844 1131 1108 757 
Q 1372 384 1759 384 
Q 2147 384 2411 759 
Q 2675 1134 2675 2259 
Q 2675 3391 2411 3762 
Q 2147 4134 1753 4134 
Q 1366 4134 1134 3806 
Q 844 3388 844 2259 
z
" transform="scale(0.015625)"/>
      </defs>
      <use xlink:href="#ArialMT-70"/>
      <use xlink:href="#ArialMT-32" x="55.615234"/>
      <use xlink:href="#ArialMT-2e" x="111.230469"/>
      <use xlink:href="#ArialMT-35" x="139.013672"/>
      <use xlink:href="#ArialMT-30" x="194.628906"/>
     </g>
    </g>
    <g id="line2d_34">
     <path d="M 295.221075 451.673885 
L 309.621075 451.673885 
L 324.021075 451.673885 
" style="fill: none; stroke-dasharray: 9,6; stroke-dashoffset: 0; stroke: #ff0000; stroke-width: 3"/>
    </g>
    <g id="text_20">
     <!-- p97.50 -->
     <g transform="translate(335.541075 456.713885) scale(0.144 -0.144)">
      <defs>
       <path id="ArialMT-39" d="M 350 1059 
L 891 1109 
Q 959 728 1153 556 
Q 1347 384 1650 384 
Q 1909 384 2104 503 
Q 2300 622 2425 820 
Q 2550 1019 2634 1356 
Q 2719 1694 2719 2044 
Q 2719 2081 2716 2156 
Q 2547 1888 2255 1720 
Q 1963 1553 1622 1553 
Q 1053 1553 659 1965 
Q 266 2378 266 3053 
Q 266 3750 677 4175 
Q 1088 4600 1706 4600 
Q 2153 4600 2523 4359 
Q 2894 4119 3086 3673 
Q 3278 3228 3278 2384 
Q 3278 1506 3087 986 
Q 2897 466 2520 194 
Q 2144 -78 1638 -78 
Q 1100 -78 759 220 
Q 419 519 350 1059 
z
M 2653 3081 
Q 2653 3566 2395 3850 
Q 2138 4134 1775 4134 
Q 1400 4134 1122 3828 
Q 844 3522 844 3034 
Q 844 2597 1108 2323 
Q 1372 2050 1759 2050 
Q 2150 2050 2401 2323 
Q 2653 2597 2653 3081 
z
" transform="scale(0.015625)"/>
       <path id="ArialMT-37" d="M 303 3981 
L 303 4522 
L 3269 4522 
L 3269 4084 
Q 2831 3619 2401 2847 
Q 1972 2075 1738 1259 
Q 1569 684 1522 0 
L 944 0 
Q 953 541 1156 1306 
Q 1359 2072 1739 2783 
Q 2119 3494 2547 3981 
L 303 3981 
z
" transform="scale(0.015625)"/>
      </defs>
      <use xlink:href="#ArialMT-70"/>
      <use xlink:href="#ArialMT-39" x="55.615234"/>
      <use xlink:href="#ArialMT-37" x="111.230469"/>
      <use xlink:href="#ArialMT-2e" x="166.845703"/>
      <use xlink:href="#ArialMT-35" x="194.628906"/>
      <use xlink:href="#ArialMT-30" x="250.244141"/>
     </g>
    </g>
    <g id="line2d_35">
     <path d="M 295.221075 472.218635 
L 309.621075 472.218635 
L 324.021075 472.218635 
" style="fill: none; stroke-dasharray: 9,6; stroke-dashoffset: 0; stroke: #50a2d5; stroke-opacity: 0.8; stroke-width: 3"/>
    </g>
    <g id="text_21">
     <!-- p99.79** -->
     <g transform="translate(335.541075 477.258635) scale(0.144 -0.144)">
      <defs>
       <path id="ArialMT-2a" d="M 200 3741 
L 344 4184 
Q 841 4009 1066 3881 
Q 1006 4447 1003 4659 
L 1456 4659 
Q 1447 4350 1384 3884 
Q 1706 4047 2122 4184 
L 2266 3741 
Q 1869 3609 1488 3566 
Q 1678 3400 2025 2975 
L 1650 2709 
Q 1469 2956 1222 3381 
Q 991 2941 816 2709 
L 447 2975 
Q 809 3422 966 3566 
Q 563 3644 200 3741 
z
" transform="scale(0.015625)"/>
      </defs>
      <use xlink:href="#ArialMT-70"/>
      <use xlink:href="#ArialMT-39" x="55.615234"/>
      <use xlink:href="#ArialMT-39" x="111.230469"/>
      <use xlink:href="#ArialMT-2e" x="166.845703"/>
      <use xlink:href="#ArialMT-37" x="194.628906"/>
      <use xlink:href="#ArialMT-39" x="250.244141"/>
      <use xlink:href="#ArialMT-2a" x="305.859375"/>
      <use xlink:href="#ArialMT-2a" x="344.775391"/>
     </g>
    </g>
   </g>
  </g>
  <g id="axes_4">
   <g id="patch_94">
    <path d="M 443.605875 714.8972 
L 768.4704 714.8972 
L 768.4704 412.991885 
L 443.605875 412.991885 
z
" style="fill: #ffffff"/>
   </g>
   <g id="matplotlib.axis_7">
    <g id="xtick_10">
     <g id="line2d_36">
      <g>
       <use xlink:href="#mcbe866d8ca" x="443.605875" y="714.8972" style="stroke: #000000; stroke-width: 4"/>
      </g>
     </g>
     <g id="text_22">
      <!-- -0.5 -->
      <g transform="translate(428.719425 738.7659) scale(0.1728 -0.1728)">
       <use xlink:href="#Arial-BoldMT-2d"/>
       <use xlink:href="#Arial-BoldMT-30" x="33.300781"/>
       <use xlink:href="#Arial-BoldMT-2e" x="88.916016"/>
       <use xlink:href="#Arial-BoldMT-35" x="116.699219"/>
      </g>
     </g>
    </g>
    <g id="xtick_11">
     <g id="line2d_37">
      <g>
       <use xlink:href="#mcbe866d8ca" x="606.038137" y="714.8972" style="stroke: #000000; stroke-width: 4"/>
      </g>
     </g>
     <g id="text_23">
      <!-- 0 -->
      <g transform="translate(601.233487 738.7659) scale(0.1728 -0.1728)">
       <use xlink:href="#Arial-BoldMT-30"/>
      </g>
     </g>
    </g>
    <g id="xtick_12">
     <g id="line2d_38">
      <g>
       <use xlink:href="#mcbe866d8ca" x="768.4704" y="714.8972" style="stroke: #000000; stroke-width: 4"/>
      </g>
     </g>
     <g id="text_24">
      <!-- 0.5 -->
      <g transform="translate(756.4608 738.7659) scale(0.1728 -0.1728)">
       <use xlink:href="#Arial-BoldMT-30"/>
       <use xlink:href="#Arial-BoldMT-2e" x="55.615234"/>
       <use xlink:href="#Arial-BoldMT-35" x="83.398438"/>
      </g>
     </g>
    </g>
   </g>
   <g id="matplotlib.axis_8">
    <g id="ytick_20">
     <g id="line2d_39">
      <g>
       <use xlink:href="#m1b1cc7a491" x="443.605875" y="714.8972" style="stroke: #000000; stroke-width: 4"/>
      </g>
     </g>
    </g>
    <g id="ytick_21">
     <g id="line2d_40">
      <g>
       <use xlink:href="#m1b1cc7a491" x="443.605875" y="639.420871" style="stroke: #000000; stroke-width: 4"/>
      </g>
     </g>
    </g>
    <g id="ytick_22">
     <g id="line2d_41">
      <g>
       <use xlink:href="#m1b1cc7a491" x="443.605875" y="563.944542" style="stroke: #000000; stroke-width: 4"/>
      </g>
     </g>
    </g>
    <g id="ytick_23">
     <g id="line2d_42">
      <g>
       <use xlink:href="#m1b1cc7a491" x="443.605875" y="488.468214" style="stroke: #000000; stroke-width: 4"/>
      </g>
     </g>
    </g>
    <g id="ytick_24">
     <g id="line2d_43">
      <g>
       <use xlink:href="#m1b1cc7a491" x="443.605875" y="412.991885" style="stroke: #000000; stroke-width: 4"/>
      </g>
     </g>
    </g>
   </g>
   <g id="patch_95">
    <path d="M 443.605875 714.8972 
L 443.605875 412.991885 
" style="fill: none; stroke: #000000; stroke-width: 4; stroke-linejoin: miter; stroke-linecap: square"/>
   </g>
   <g id="patch_96">
    <path d="M 443.605875 714.8972 
L 768.4704 714.8972 
" style="fill: none; stroke: #000000; stroke-width: 4; stroke-linejoin: miter; stroke-linecap: square"/>
   </g>
  </g>
  <g id="text_25">
   <!-- Gabor sequences: example sig. ROI -->
   <g transform="translate(246.4389 19.7793) scale(0.1728 -0.1728)">
    <defs>
     <path id="Arial-BoldMT-47" d="M 2597 1684 
L 2597 2456 
L 4591 2456 
L 4591 631 
Q 4300 350 3748 136 
Q 3197 -78 2631 -78 
Q 1913 -78 1378 223 
Q 844 525 575 1086 
Q 306 1647 306 2306 
Q 306 3022 606 3578 
Q 906 4134 1484 4431 
Q 1925 4659 2581 4659 
Q 3434 4659 3914 4301 
Q 4394 3944 4531 3313 
L 3613 3141 
Q 3516 3478 3248 3673 
Q 2981 3869 2581 3869 
Q 1975 3869 1617 3484 
Q 1259 3100 1259 2344 
Q 1259 1528 1621 1120 
Q 1984 713 2572 713 
Q 2863 713 3155 827 
Q 3447 941 3656 1103 
L 3656 1684 
L 2597 1684 
z
" transform="scale(0.015625)"/>
     <path id="Arial-BoldMT-61" d="M 1116 2306 
L 319 2450 
Q 453 2931 781 3162 
Q 1109 3394 1756 3394 
Q 2344 3394 2631 3255 
Q 2919 3116 3036 2902 
Q 3153 2688 3153 2116 
L 3144 1091 
Q 3144 653 3186 445 
Q 3228 238 3344 0 
L 2475 0 
Q 2441 88 2391 259 
Q 2369 338 2359 363 
Q 2134 144 1878 34 
Q 1622 -75 1331 -75 
Q 819 -75 523 203 
Q 228 481 228 906 
Q 228 1188 362 1408 
Q 497 1628 739 1745 
Q 981 1863 1438 1950 
Q 2053 2066 2291 2166 
L 2291 2253 
Q 2291 2506 2166 2614 
Q 2041 2722 1694 2722 
Q 1459 2722 1328 2630 
Q 1197 2538 1116 2306 
z
M 2291 1594 
Q 2122 1538 1756 1459 
Q 1391 1381 1278 1306 
Q 1106 1184 1106 997 
Q 1106 813 1243 678 
Q 1381 544 1594 544 
Q 1831 544 2047 700 
Q 2206 819 2256 991 
Q 2291 1103 2291 1419 
L 2291 1594 
z
" transform="scale(0.015625)"/>
     <path id="Arial-BoldMT-62" d="M 422 0 
L 422 4581 
L 1300 4581 
L 1300 2931 
Q 1706 3394 2263 3394 
Q 2869 3394 3266 2955 
Q 3663 2516 3663 1694 
Q 3663 844 3258 384 
Q 2853 -75 2275 -75 
Q 1991 -75 1714 67 
Q 1438 209 1238 488 
L 1238 0 
L 422 0 
z
M 1294 1731 
Q 1294 1216 1456 969 
Q 1684 619 2063 619 
Q 2353 619 2558 867 
Q 2763 1116 2763 1650 
Q 2763 2219 2556 2470 
Q 2350 2722 2028 2722 
Q 1713 2722 1503 2476 
Q 1294 2231 1294 1731 
z
" transform="scale(0.015625)"/>
     <path id="Arial-BoldMT-6f" d="M 256 1706 
Q 256 2144 472 2553 
Q 688 2963 1083 3178 
Q 1478 3394 1966 3394 
Q 2719 3394 3200 2905 
Q 3681 2416 3681 1669 
Q 3681 916 3195 420 
Q 2709 -75 1972 -75 
Q 1516 -75 1102 131 
Q 688 338 472 736 
Q 256 1134 256 1706 
z
M 1156 1659 
Q 1156 1166 1390 903 
Q 1625 641 1969 641 
Q 2313 641 2545 903 
Q 2778 1166 2778 1666 
Q 2778 2153 2545 2415 
Q 2313 2678 1969 2678 
Q 1625 2678 1390 2415 
Q 1156 2153 1156 1659 
z
" transform="scale(0.015625)"/>
     <path id="Arial-BoldMT-73" d="M 150 947 
L 1031 1081 
Q 1088 825 1259 692 
Q 1431 559 1741 559 
Q 2081 559 2253 684 
Q 2369 772 2369 919 
Q 2369 1019 2306 1084 
Q 2241 1147 2013 1200 
Q 950 1434 666 1628 
Q 272 1897 272 2375 
Q 272 2806 612 3100 
Q 953 3394 1669 3394 
Q 2350 3394 2681 3172 
Q 3013 2950 3138 2516 
L 2309 2363 
Q 2256 2556 2107 2659 
Q 1959 2763 1684 2763 
Q 1338 2763 1188 2666 
Q 1088 2597 1088 2488 
Q 1088 2394 1175 2328 
Q 1294 2241 1995 2081 
Q 2697 1922 2975 1691 
Q 3250 1456 3250 1038 
Q 3250 581 2869 253 
Q 2488 -75 1741 -75 
Q 1063 -75 667 200 
Q 272 475 150 947 
z
" transform="scale(0.015625)"/>
     <path id="Arial-BoldMT-65" d="M 2381 1056 
L 3256 909 
Q 3088 428 2723 176 
Q 2359 -75 1813 -75 
Q 947 -75 531 491 
Q 203 944 203 1634 
Q 203 2459 634 2926 
Q 1066 3394 1725 3394 
Q 2466 3394 2894 2905 
Q 3322 2416 3303 1406 
L 1103 1406 
Q 1113 1016 1316 798 
Q 1519 581 1822 581 
Q 2028 581 2168 693 
Q 2309 806 2381 1056 
z
M 2431 1944 
Q 2422 2325 2234 2523 
Q 2047 2722 1778 2722 
Q 1491 2722 1303 2513 
Q 1116 2303 1119 1944 
L 2431 1944 
z
" transform="scale(0.015625)"/>
     <path id="Arial-BoldMT-71" d="M 2628 -1263 
L 2628 406 
Q 2456 184 2200 54 
Q 1944 -75 1647 -75 
Q 1081 -75 716 350 
Q 284 847 284 1697 
Q 284 2497 689 2945 
Q 1094 3394 1694 3394 
Q 2025 3394 2267 3253 
Q 2509 3113 2697 2828 
L 2697 3319 
L 3506 3319 
L 3506 -1263 
L 2628 -1263 
z
M 2656 1700 
Q 2656 2209 2448 2457 
Q 2241 2706 1928 2706 
Q 1609 2706 1395 2453 
Q 1181 2200 1181 1650 
Q 1181 1103 1387 861 
Q 1594 619 1897 619 
Q 2200 619 2428 891 
Q 2656 1163 2656 1700 
z
" transform="scale(0.015625)"/>
     <path id="Arial-BoldMT-75" d="M 2644 0 
L 2644 497 
Q 2463 231 2167 78 
Q 1872 -75 1544 -75 
Q 1209 -75 943 72 
Q 678 219 559 484 
Q 441 750 441 1219 
L 441 3319 
L 1319 3319 
L 1319 1794 
Q 1319 1094 1367 936 
Q 1416 778 1544 686 
Q 1672 594 1869 594 
Q 2094 594 2272 717 
Q 2450 841 2515 1023 
Q 2581 1206 2581 1919 
L 2581 3319 
L 3459 3319 
L 3459 0 
L 2644 0 
z
" transform="scale(0.015625)"/>
     <path id="Arial-BoldMT-6e" d="M 3478 0 
L 2600 0 
L 2600 1694 
Q 2600 2231 2544 2389 
Q 2488 2547 2361 2634 
Q 2234 2722 2056 2722 
Q 1828 2722 1647 2597 
Q 1466 2472 1398 2265 
Q 1331 2059 1331 1503 
L 1331 0 
L 453 0 
L 453 3319 
L 1269 3319 
L 1269 2831 
Q 1703 3394 2363 3394 
Q 2653 3394 2893 3289 
Q 3134 3184 3257 3021 
Q 3381 2859 3429 2653 
Q 3478 2447 3478 2063 
L 3478 0 
z
" transform="scale(0.015625)"/>
     <path id="Arial-BoldMT-63" d="M 3353 2338 
L 2488 2181 
Q 2444 2441 2289 2572 
Q 2134 2703 1888 2703 
Q 1559 2703 1364 2476 
Q 1169 2250 1169 1719 
Q 1169 1128 1367 884 
Q 1566 641 1900 641 
Q 2150 641 2309 783 
Q 2469 925 2534 1272 
L 3397 1125 
Q 3263 531 2881 228 
Q 2500 -75 1859 -75 
Q 1131 -75 698 384 
Q 266 844 266 1656 
Q 266 2478 700 2936 
Q 1134 3394 1875 3394 
Q 2481 3394 2839 3133 
Q 3197 2872 3353 2338 
z
" transform="scale(0.015625)"/>
     <path id="Arial-BoldMT-3a" d="M 628 2441 
L 628 3319 
L 1506 3319 
L 1506 2441 
L 628 2441 
z
M 628 0 
L 628 878 
L 1506 878 
L 1506 0 
L 628 0 
z
" transform="scale(0.015625)"/>
     <path id="Arial-BoldMT-78" d="M 38 0 
L 1234 1709 
L 88 3319 
L 1159 3319 
L 1747 2406 
L 2366 3319 
L 3397 3319 
L 2272 1747 
L 3500 0 
L 2422 0 
L 1747 1028 
L 1066 0 
L 38 0 
z
" transform="scale(0.015625)"/>
     <path id="Arial-BoldMT-6d" d="M 394 3319 
L 1203 3319 
L 1203 2866 
Q 1638 3394 2238 3394 
Q 2556 3394 2790 3262 
Q 3025 3131 3175 2866 
Q 3394 3131 3647 3262 
Q 3900 3394 4188 3394 
Q 4553 3394 4806 3245 
Q 5059 3097 5184 2809 
Q 5275 2597 5275 2122 
L 5275 0 
L 4397 0 
L 4397 1897 
Q 4397 2391 4306 2534 
Q 4184 2722 3931 2722 
Q 3747 2722 3584 2609 
Q 3422 2497 3350 2280 
Q 3278 2063 3278 1594 
L 3278 0 
L 2400 0 
L 2400 1819 
Q 2400 2303 2353 2443 
Q 2306 2584 2207 2653 
Q 2109 2722 1941 2722 
Q 1738 2722 1575 2612 
Q 1413 2503 1342 2297 
Q 1272 2091 1272 1613 
L 1272 0 
L 394 0 
L 394 3319 
z
" transform="scale(0.015625)"/>
     <path id="Arial-BoldMT-70" d="M 434 3319 
L 1253 3319 
L 1253 2831 
Q 1413 3081 1684 3237 
Q 1956 3394 2288 3394 
Q 2866 3394 3269 2941 
Q 3672 2488 3672 1678 
Q 3672 847 3265 386 
Q 2859 -75 2281 -75 
Q 2006 -75 1782 34 
Q 1559 144 1313 409 
L 1313 -1263 
L 434 -1263 
L 434 3319 
z
M 1303 1716 
Q 1303 1156 1525 889 
Q 1747 622 2066 622 
Q 2372 622 2575 867 
Q 2778 1113 2778 1672 
Q 2778 2194 2568 2447 
Q 2359 2700 2050 2700 
Q 1728 2700 1515 2451 
Q 1303 2203 1303 1716 
z
" transform="scale(0.015625)"/>
     <path id="Arial-BoldMT-6c" d="M 459 0 
L 459 4581 
L 1338 4581 
L 1338 0 
L 459 0 
z
" transform="scale(0.015625)"/>
     <path id="Arial-BoldMT-69" d="M 459 3769 
L 459 4581 
L 1338 4581 
L 1338 3769 
L 459 3769 
z
M 459 0 
L 459 3319 
L 1338 3319 
L 1338 0 
L 459 0 
z
" transform="scale(0.015625)"/>
     <path id="Arial-BoldMT-67" d="M 378 -219 
L 1381 -341 
Q 1406 -516 1497 -581 
Q 1622 -675 1891 -675 
Q 2234 -675 2406 -572 
Q 2522 -503 2581 -350 
Q 2622 -241 2622 53 
L 2622 538 
Q 2228 0 1628 0 
Q 959 0 569 566 
Q 263 1013 263 1678 
Q 263 2513 664 2953 
Q 1066 3394 1663 3394 
Q 2278 3394 2678 2853 
L 2678 3319 
L 3500 3319 
L 3500 341 
Q 3500 -247 3403 -537 
Q 3306 -828 3131 -993 
Q 2956 -1159 2664 -1253 
Q 2372 -1347 1925 -1347 
Q 1081 -1347 728 -1058 
Q 375 -769 375 -325 
Q 375 -281 378 -219 
z
M 1163 1728 
Q 1163 1200 1367 954 
Q 1572 709 1872 709 
Q 2194 709 2416 961 
Q 2638 1213 2638 1706 
Q 2638 2222 2425 2472 
Q 2213 2722 1888 2722 
Q 1572 2722 1367 2476 
Q 1163 2231 1163 1728 
z
" transform="scale(0.015625)"/>
     <path id="Arial-BoldMT-52" d="M 469 0 
L 469 4581 
L 2416 4581 
Q 3150 4581 3483 4457 
Q 3816 4334 4016 4018 
Q 4216 3703 4216 3297 
Q 4216 2781 3912 2445 
Q 3609 2109 3006 2022 
Q 3306 1847 3501 1637 
Q 3697 1428 4028 894 
L 4588 0 
L 3481 0 
L 2813 997 
Q 2456 1531 2325 1670 
Q 2194 1809 2047 1861 
Q 1900 1913 1581 1913 
L 1394 1913 
L 1394 0 
L 469 0 
z
M 1394 2644 
L 2078 2644 
Q 2744 2644 2909 2700 
Q 3075 2756 3169 2893 
Q 3263 3031 3263 3238 
Q 3263 3469 3139 3611 
Q 3016 3753 2791 3791 
Q 2678 3806 2116 3806 
L 1394 3806 
L 1394 2644 
z
" transform="scale(0.015625)"/>
     <path id="Arial-BoldMT-4f" d="M 278 2263 
Q 278 2963 488 3438 
Q 644 3788 914 4066 
Q 1184 4344 1506 4478 
Q 1934 4659 2494 4659 
Q 3506 4659 4114 4031 
Q 4722 3403 4722 2284 
Q 4722 1175 4119 548 
Q 3516 -78 2506 -78 
Q 1484 -78 881 545 
Q 278 1169 278 2263 
z
M 1231 2294 
Q 1231 1516 1590 1114 
Q 1950 713 2503 713 
Q 3056 713 3411 1111 
Q 3766 1509 3766 2306 
Q 3766 3094 3420 3481 
Q 3075 3869 2503 3869 
Q 1931 3869 1581 3476 
Q 1231 3084 1231 2294 
z
" transform="scale(0.015625)"/>
     <path id="Arial-BoldMT-49" d="M 438 0 
L 438 4581 
L 1363 4581 
L 1363 0 
L 438 0 
z
" transform="scale(0.015625)"/>
    </defs>
    <use xlink:href="#Arial-BoldMT-47"/>
    <use xlink:href="#Arial-BoldMT-61" x="77.783203"/>
    <use xlink:href="#Arial-BoldMT-62" x="133.398438"/>
    <use xlink:href="#Arial-BoldMT-6f" x="194.482422"/>
    <use xlink:href="#Arial-BoldMT-72" x="255.566406"/>
    <use xlink:href="#Arial-BoldMT-20" x="294.482422"/>
    <use xlink:href="#Arial-BoldMT-73" x="322.265625"/>
    <use xlink:href="#Arial-BoldMT-65" x="377.880859"/>
    <use xlink:href="#Arial-BoldMT-71" x="433.496094"/>
    <use xlink:href="#Arial-BoldMT-75" x="494.580078"/>
    <use xlink:href="#Arial-BoldMT-65" x="555.664062"/>
    <use xlink:href="#Arial-BoldMT-6e" x="611.279297"/>
    <use xlink:href="#Arial-BoldMT-63" x="672.363281"/>
    <use xlink:href="#Arial-BoldMT-65" x="727.978516"/>
    <use xlink:href="#Arial-BoldMT-73" x="783.59375"/>
    <use xlink:href="#Arial-BoldMT-3a" x="839.208984"/>
    <use xlink:href="#Arial-BoldMT-20" x="872.509766"/>
    <use xlink:href="#Arial-BoldMT-65" x="900.292969"/>
    <use xlink:href="#Arial-BoldMT-78" x="955.908203"/>
    <use xlink:href="#Arial-BoldMT-61" x="1011.523438"/>
    <use xlink:href="#Arial-BoldMT-6d" x="1067.138672"/>
    <use xlink:href="#Arial-BoldMT-70" x="1156.054688"/>
    <use xlink:href="#Arial-BoldMT-6c" x="1217.138672"/>
    <use xlink:href="#Arial-BoldMT-65" x="1244.921875"/>
    <use xlink:href="#Arial-BoldMT-20" x="1300.537109"/>
    <use xlink:href="#Arial-BoldMT-73" x="1328.320312"/>
    <use xlink:href="#Arial-BoldMT-69" x="1383.935547"/>
    <use xlink:href="#Arial-BoldMT-67" x="1411.71875"/>
    <use xlink:href="#Arial-BoldMT-2e" x="1472.802734"/>
    <use xlink:href="#Arial-BoldMT-20" x="1500.585938"/>
    <use xlink:href="#Arial-BoldMT-52" x="1528.369141"/>
    <use xlink:href="#Arial-BoldMT-4f" x="1600.585938"/>
    <use xlink:href="#Arial-BoldMT-49" x="1678.369141"/>
   </g>
  </g>
  <g id="text_26">
   <!-- dendrites -->
   <g transform="translate(805.8087 231.3514) rotate(-90) scale(0.1728 -0.1728)">
    <defs>
     <path id="Arial-BoldMT-64" d="M 3503 0 
L 2688 0 
L 2688 488 
Q 2484 203 2207 64 
Q 1931 -75 1650 -75 
Q 1078 -75 670 386 
Q 263 847 263 1672 
Q 263 2516 659 2955 
Q 1056 3394 1663 3394 
Q 2219 3394 2625 2931 
L 2625 4581 
L 3503 4581 
L 3503 0 
z
M 1159 1731 
Q 1159 1200 1306 963 
Q 1519 619 1900 619 
Q 2203 619 2415 876 
Q 2628 1134 2628 1647 
Q 2628 2219 2422 2470 
Q 2216 2722 1894 2722 
Q 1581 2722 1370 2473 
Q 1159 2225 1159 1731 
z
" transform="scale(0.015625)"/>
     <path id="Arial-BoldMT-74" d="M 1981 3319 
L 1981 2619 
L 1381 2619 
L 1381 1281 
Q 1381 875 1398 808 
Q 1416 741 1477 697 
Q 1538 653 1625 653 
Q 1747 653 1978 738 
L 2053 56 
Q 1747 -75 1359 -75 
Q 1122 -75 931 4 
Q 741 84 652 211 
Q 563 338 528 553 
Q 500 706 500 1172 
L 500 2619 
L 97 2619 
L 97 3319 
L 500 3319 
L 500 3978 
L 1381 4491 
L 1381 3319 
L 1981 3319 
z
" transform="scale(0.015625)"/>
    </defs>
    <use xlink:href="#Arial-BoldMT-64"/>
    <use xlink:href="#Arial-BoldMT-65" x="61.083984"/>
    <use xlink:href="#Arial-BoldMT-6e" x="116.699219"/>
    <use xlink:href="#Arial-BoldMT-64" x="177.783203"/>
    <use xlink:href="#Arial-BoldMT-72" x="238.867188"/>
    <use xlink:href="#Arial-BoldMT-69" x="277.783203"/>
    <use xlink:href="#Arial-BoldMT-74" x="305.566406"/>
    <use xlink:href="#Arial-BoldMT-65" x="338.867188"/>
    <use xlink:href="#Arial-BoldMT-73" x="394.482422"/>
   </g>
  </g>
  <g id="text_27">
   <!-- somata -->
   <g transform="translate(805.8087 586.3168) rotate(-90) scale(0.1728 -0.1728)">
    <use xlink:href="#Arial-BoldMT-73"/>
    <use xlink:href="#Arial-BoldMT-6f" x="55.615234"/>
    <use xlink:href="#Arial-BoldMT-6d" x="116.699219"/>
    <use xlink:href="#Arial-BoldMT-61" x="205.615234"/>
    <use xlink:href="#Arial-BoldMT-74" x="261.230469"/>
    <use xlink:href="#Arial-BoldMT-61" x="294.53125"/>
   </g>
  </g>
  <g id="text_28">
   <!-- Index -->
   <g transform="translate(371.2761 762.768) scale(0.1728 -0.1728)">
    <use xlink:href="#Arial-BoldMT-49"/>
    <use xlink:href="#Arial-BoldMT-6e" x="27.783203"/>
    <use xlink:href="#Arial-BoldMT-64" x="88.867188"/>
    <use xlink:href="#Arial-BoldMT-65" x="149.951172"/>
    <use xlink:href="#Arial-BoldMT-78" x="205.566406"/>
   </g>
  </g>
  <g id="text_29">
   <!-- Density -->
   <g transform="translate(19.5687 223.67395) rotate(-90) scale(0.1728 -0.1728)">
    <defs>
     <path id="Arial-BoldMT-44" d="M 463 4581 
L 2153 4581 
Q 2725 4581 3025 4494 
Q 3428 4375 3715 4072 
Q 4003 3769 4153 3330 
Q 4303 2891 4303 2247 
Q 4303 1681 4163 1272 
Q 3991 772 3672 463 
Q 3431 228 3022 97 
Q 2716 0 2203 0 
L 463 0 
L 463 4581 
z
M 1388 3806 
L 1388 772 
L 2078 772 
Q 2466 772 2638 816 
Q 2863 872 3011 1006 
Q 3159 1141 3253 1448 
Q 3347 1756 3347 2288 
Q 3347 2819 3253 3103 
Q 3159 3388 2990 3547 
Q 2822 3706 2563 3763 
Q 2369 3806 1803 3806 
L 1388 3806 
z
" transform="scale(0.015625)"/>
    </defs>
    <use xlink:href="#Arial-BoldMT-44"/>
    <use xlink:href="#Arial-BoldMT-65" x="72.216797"/>
    <use xlink:href="#Arial-BoldMT-6e" x="127.832031"/>
    <use xlink:href="#Arial-BoldMT-73" x="188.916016"/>
    <use xlink:href="#Arial-BoldMT-69" x="244.53125"/>
    <use xlink:href="#Arial-BoldMT-74" x="272.314453"/>
    <use xlink:href="#Arial-BoldMT-79" x="305.615234"/>
   </g>
  </g>
 </g>
 <defs>
  <clipPath id="pd62d78b11d">
   <rect x="78.8853" y="412.991885" width="324.864525" height="301.905315"/>
  </clipPath>
 </defs>
</svg>
