<?xml version="1.0" encoding="utf-8" standalone="no"?>
<!DOCTYPE svg PUBLIC "-//W3C//DTD SVG 1.1//EN"
  "http://www.w3.org/Graphics/SVG/1.1/DTD/svg11.dtd">
<svg xmlns:xlink="http://www.w3.org/1999/xlink" width="362.6615pt" height="343.847pt" viewBox="0 0 362.6615 343.847" xmlns="http://www.w3.org/2000/svg" version="1.1">
 <metadata>
  <rdf:RDF xmlns:dc="http://purl.org/dc/elements/1.1/" xmlns:cc="http://creativecommons.org/ns#" xmlns:rdf="http://www.w3.org/1999/02/22-rdf-syntax-ns#">
   <cc:Work>
    <dc:type rdf:resource="http://purl.org/dc/dcmitype/StillImage"/>
    <dc:date>2023-02-23T00:42:05.195993</dc:date>
    <dc:format>image/svg+xml</dc:format>
    <dc:creator>
     <cc:Agent>
      <dc:title>Matplotlib v3.6.3, https://matplotlib.org/</dc:title>
     </cc:Agent>
    </dc:creator>
   </cc:Work>
  </rdf:RDF>
 </metadata>
 <defs>
  <style type="text/css">*{stroke-linejoin: round; stroke-linecap: butt}</style>
 </defs>
 <g id="figure_1">
  <g id="patch_1">
   <path d="M 0 343.847 
L 362.6615 343.847 
L 362.6615 0 
L 0 0 
z
" style="fill: #ffffff"/>
  </g>
  <g id="axes_1">
   <g id="patch_2">
    <path d="M 109.0919 151.27513 
L 343.4519 151.27513 
L 343.4519 45.216 
L 109.0919 45.216 
z
" style="fill: #ffffff"/>
   </g>
   <g id="line2d_1">
    <path d="M 249.7079 151.27513 
L 249.7079 45.216 
" clip-path="url(#p98dccec9d5)" style="fill: none; stroke-dasharray: 9,6; stroke-dashoffset: 0; stroke: #000000; stroke-opacity: 0.5; stroke-width: 3"/>
   </g>
   <g id="PolyCollection_1">
    <path d="M 109.0919 93.861304 
L 109.0919 106.177272 
L 111.725158 106.253585 
L 114.358417 104.879096 
L 116.991675 106.317482 
L 119.624934 105.943684 
L 122.258192 106.235593 
L 124.891451 106.002364 
L 127.524709 106.191459 
L 130.157967 105.670223 
L 132.791226 106.064675 
L 135.424484 106.323647 
L 138.057743 105.991128 
L 140.691001 105.677994 
L 143.32426 106.081786 
L 145.957518 106.568716 
L 148.590776 107.721279 
L 151.224035 106.763422 
L 153.857293 107.561457 
L 156.490552 107.076587 
L 159.12381 107.391624 
L 161.757069 106.775447 
L 164.390327 107.843095 
L 167.023585 107.472965 
L 169.656844 107.981332 
L 172.290102 108.324041 
L 174.923361 108.639646 
L 177.556619 109.236073 
L 180.189878 109.31294 
L 182.823136 109.475637 
L 185.456394 109.496479 
L 188.089653 109.533188 
L 190.722911 109.965938 
L 193.35617 109.687513 
L 195.989428 111.134759 
L 198.622687 110.575039 
L 201.255945 111.17007 
L 203.889203 110.157509 
L 206.522462 110.243574 
L 209.15572 109.069713 
L 211.788979 109.751279 
L 214.422237 109.797952 
L 217.055496 110.092805 
L 219.688754 110.399206 
L 222.322012 109.952062 
L 224.955271 110.537279 
L 227.588529 110.459233 
L 230.221788 110.497287 
L 232.855046 110.457038 
L 235.488304 110.392896 
L 238.121563 110.629672 
L 240.754821 110.545443 
L 243.38808 111.445938 
L 246.021338 110.201778 
L 248.654597 111.09382 
L 251.287855 110.206561 
L 253.921113 109.853544 
L 256.554372 108.85637 
L 259.18763 110.383322 
L 261.820889 109.909702 
L 264.454147 109.877147 
L 267.087406 109.695325 
L 269.720664 109.41448 
L 272.353922 108.427767 
L 274.987181 109.207035 
L 277.620439 109.585003 
L 280.253698 109.576404 
L 282.886956 109.537675 
L 285.520215 109.221547 
L 288.153473 109.519554 
L 290.786731 109.493057 
L 293.41999 109.376525 
L 296.053248 109.104078 
L 298.686507 108.877836 
L 301.319765 108.99816 
L 303.953024 108.818984 
L 306.586282 108.856295 
L 309.21954 108.689485 
L 311.852799 107.767648 
L 314.486057 108.044813 
L 317.119316 107.982535 
L 319.752574 107.425473 
L 322.385833 107.325679 
L 325.019091 106.8032 
L 327.652349 106.805456 
L 330.285608 106.50707 
L 332.918866 106.825117 
L 335.552125 107.11446 
L 338.185383 107.828195 
L 340.818642 106.754776 
L 343.4519 107.21916 
L 343.4519 94.92063 
L 343.4519 94.92063 
L 340.818642 94.442806 
L 338.185383 95.55473 
L 335.552125 94.810997 
L 332.918866 94.519501 
L 330.285608 94.199098 
L 327.652349 94.499466 
L 325.019091 94.501724 
L 322.385833 95.027867 
L 319.752574 95.137972 
L 317.119316 95.695838 
L 314.486057 95.769421 
L 311.852799 95.496756 
L 309.21954 96.434376 
L 306.586282 96.591292 
L 303.953024 96.566205 
L 301.319765 96.74211 
L 298.686507 96.613483 
L 296.053248 96.851858 
L 293.41999 97.124845 
L 290.786731 97.248083 
L 288.153473 97.280316 
L 285.520215 96.9869 
L 282.886956 97.301339 
L 280.253698 97.338427 
L 277.620439 97.350594 
L 274.987181 96.967149 
L 272.353922 96.165157 
L 269.720664 97.160307 
L 267.087406 97.451525 
L 264.454147 97.628312 
L 261.820889 97.665751 
L 259.18763 98.168122 
L 256.554372 96.584496 
L 253.921113 97.623039 
L 251.287855 97.992544 
L 248.654597 98.899952 
L 246.021338 97.986408 
L 243.38808 99.284725 
L 240.754821 98.344467 
L 238.121563 98.43394 
L 235.488304 98.196749 
L 232.855046 98.276355 
L 230.221788 98.306514 
L 227.588529 98.268923 
L 224.955271 98.336948 
L 222.322012 97.749318 
L 219.688754 98.193363 
L 217.055496 97.890009 
L 214.422237 97.597284 
L 211.788979 97.557879 
L 209.15572 96.826581 
L 206.522462 98.043889 
L 203.889203 97.95843 
L 201.255945 98.979929 
L 198.622687 98.377309 
L 195.989428 98.971536 
L 193.35617 97.471021 
L 190.722911 97.756499 
L 188.089653 97.315494 
L 185.456394 97.280837 
L 182.823136 97.252634 
L 180.189878 97.101537 
L 177.556619 97.015698 
L 174.923361 96.41182 
L 172.290102 96.094109 
L 169.656844 95.760731 
L 167.023585 95.235039 
L 164.390327 95.615244 
L 161.757069 94.50718 
L 159.12381 95.15881 
L 156.490552 94.842024 
L 153.857293 95.343657 
L 151.224035 94.522749 
L 148.590776 95.511865 
L 145.957518 94.322693 
L 143.32426 93.827645 
L 140.691001 93.411109 
L 138.057743 93.722876 
L 135.424484 94.047881 
L 132.791226 93.787193 
L 130.157967 93.385777 
L 127.524709 93.909707 
L 124.891451 93.714467 
L 122.258192 93.951056 
L 119.624934 93.646223 
L 116.991675 94.014897 
L 114.358417 92.53686 
L 111.725158 93.948074 
L 109.0919 93.861304 
z
" clip-path="url(#p98dccec9d5)" style="fill: #969696; fill-opacity: 0.5"/>
   </g>
   <g id="PolyCollection_2">
    <path d="M 109.0919 76.155172 
L 109.0919 120.67486 
L 111.725158 120.040633 
L 114.358417 119.664081 
L 116.991675 120.823963 
L 119.624934 122.456729 
L 122.258192 124.86704 
L 124.891451 123.329009 
L 127.524709 126.579069 
L 130.157967 125.328182 
L 132.791226 127.77681 
L 135.424484 127.866746 
L 138.057743 129.718334 
L 140.691001 129.356255 
L 143.32426 128.881282 
L 145.957518 129.784993 
L 148.590776 130.848188 
L 151.224035 129.984636 
L 153.857293 130.907692 
L 156.490552 130.698751 
L 159.12381 131.285029 
L 161.757069 131.050119 
L 164.390327 132.952414 
L 167.023585 131.835296 
L 169.656844 133.316015 
L 172.290102 132.706026 
L 174.923361 130.982461 
L 177.556619 131.613052 
L 180.189878 131.382641 
L 182.823136 129.752604 
L 185.456394 130.413811 
L 188.089653 129.680869 
L 190.722911 129.215631 
L 193.35617 131.090078 
L 195.989428 132.489445 
L 198.622687 131.477908 
L 201.255945 130.052724 
L 203.889203 130.355906 
L 206.522462 130.17743 
L 209.15572 128.618789 
L 211.788979 129.046935 
L 214.422237 128.017328 
L 217.055496 128.348599 
L 219.688754 129.368531 
L 222.322012 129.069068 
L 224.955271 129.77015 
L 227.588529 129.705517 
L 230.221788 129.028213 
L 232.855046 128.227194 
L 235.488304 129.089915 
L 238.121563 126.703575 
L 240.754821 127.455001 
L 243.38808 128.254128 
L 246.021338 125.846861 
L 248.654597 125.946683 
L 251.287855 123.636412 
L 253.921113 124.07021 
L 256.554372 120.013538 
L 259.18763 121.954407 
L 261.820889 121.660464 
L 264.454147 122.922416 
L 267.087406 122.403155 
L 269.720664 122.72833 
L 272.353922 122.413745 
L 274.987181 121.92265 
L 277.620439 121.97093 
L 280.253698 123.192819 
L 282.886956 121.624883 
L 285.520215 121.49489 
L 288.153473 122.968734 
L 290.786731 120.560266 
L 293.41999 121.336102 
L 296.053248 123.043553 
L 298.686507 121.843817 
L 301.319765 119.695393 
L 303.953024 121.479655 
L 306.586282 121.368906 
L 309.21954 120.324297 
L 311.852799 120.374242 
L 314.486057 123.203674 
L 317.119316 120.964454 
L 319.752574 121.381128 
L 322.385833 120.368839 
L 325.019091 120.221687 
L 327.652349 119.561687 
L 330.285608 118.124351 
L 332.918866 119.059568 
L 335.552125 118.914128 
L 338.185383 119.619454 
L 340.818642 117.94855 
L 343.4519 119.278412 
L 343.4519 74.674137 
L 343.4519 74.674137 
L 340.818642 73.239993 
L 338.185383 75.057677 
L 335.552125 74.284839 
L 332.918866 74.494225 
L 330.285608 73.557173 
L 327.652349 75.070377 
L 325.019091 75.796795 
L 322.385833 75.972777 
L 319.752574 77.163764 
L 317.119316 76.684812 
L 314.486057 78.982581 
L 311.852799 76.087988 
L 309.21954 76.051928 
L 306.586282 76.998333 
L 303.953024 77.240022 
L 301.319765 75.375594 
L 298.686507 77.533992 
L 296.053248 78.747769 
L 293.41999 76.89644 
L 290.786731 76.124072 
L 288.153473 78.637362 
L 285.520215 77.117153 
L 282.886956 77.330192 
L 280.253698 78.890471 
L 277.620439 77.528353 
L 274.987181 77.515231 
L 272.353922 77.944242 
L 269.720664 78.34584 
L 267.087406 78.111561 
L 264.454147 78.696724 
L 261.820889 77.35944 
L 259.18763 77.766847 
L 256.554372 75.562314 
L 253.921113 79.873464 
L 251.287855 79.263288 
L 248.654597 81.66702 
L 246.021338 81.498579 
L 243.38808 84.2076 
L 240.754821 83.307461 
L 238.121563 82.636563 
L 235.488304 84.887607 
L 232.855046 84.048437 
L 230.221788 84.86705 
L 227.588529 85.582304 
L 224.955271 85.534484 
L 222.322012 84.852107 
L 219.688754 85.136273 
L 217.055496 83.987095 
L 214.422237 83.630568 
L 211.788979 84.728247 
L 209.15572 84.213405 
L 206.522462 85.932338 
L 203.889203 86.152761 
L 201.255945 85.808988 
L 198.622687 87.120693 
L 195.989428 88.377427 
L 193.35617 86.747124 
L 190.722911 84.831429 
L 188.089653 85.228063 
L 185.456394 86.039256 
L 182.823136 85.271764 
L 180.189878 87.126478 
L 177.556619 87.210529 
L 174.923361 86.714099 
L 172.290102 88.429198 
L 169.656844 89.021159 
L 167.023585 87.490473 
L 164.390327 88.601682 
L 161.757069 86.460294 
L 159.12381 87.001559 
L 156.490552 86.42957 
L 153.857293 86.534319 
L 151.224035 85.71685 
L 148.590776 86.741762 
L 145.957518 85.61214 
L 143.32426 84.647827 
L 140.691001 85.14511 
L 138.057743 85.373034 
L 135.424484 83.472439 
L 132.791226 83.372267 
L 130.157967 80.884563 
L 127.524709 82.176958 
L 124.891451 78.930213 
L 122.258192 80.378263 
L 119.624934 77.975869 
L 116.991675 76.297937 
L 114.358417 74.989213 
L 111.725158 75.444678 
L 109.0919 76.155172 
z
" clip-path="url(#p98dccec9d5)" style="fill: #eb3920; fill-opacity: 0.2"/>
   </g>
   <g id="matplotlib.axis_1">
    <g id="xtick_1">
     <g id="line2d_2">
      <defs>
       <path id="mba97661355" d="M 0 0 
L 0 8 
" style="stroke: #000000; stroke-width: 4"/>
      </defs>
      <g>
       <use xlink:href="#mba97661355" x="109.0919" y="151.27513" style="stroke: #000000; stroke-width: 4"/>
      </g>
     </g>
    </g>
    <g id="xtick_2">
     <g id="line2d_3">
      <g>
       <use xlink:href="#mba97661355" x="155.9639" y="151.27513" style="stroke: #000000; stroke-width: 4"/>
      </g>
     </g>
    </g>
    <g id="xtick_3">
     <g id="line2d_4">
      <g>
       <use xlink:href="#mba97661355" x="202.8359" y="151.27513" style="stroke: #000000; stroke-width: 4"/>
      </g>
     </g>
    </g>
    <g id="xtick_4">
     <g id="line2d_5">
      <g>
       <use xlink:href="#mba97661355" x="249.7079" y="151.27513" style="stroke: #000000; stroke-width: 4"/>
      </g>
     </g>
    </g>
    <g id="xtick_5">
     <g id="line2d_6">
      <g>
       <use xlink:href="#mba97661355" x="296.5799" y="151.27513" style="stroke: #000000; stroke-width: 4"/>
      </g>
     </g>
    </g>
    <g id="xtick_6">
     <g id="line2d_7">
      <g>
       <use xlink:href="#mba97661355" x="343.4519" y="151.27513" style="stroke: #000000; stroke-width: 4"/>
      </g>
     </g>
    </g>
   </g>
   <g id="matplotlib.axis_2">
    <g id="ytick_1">
     <g id="line2d_8">
      <defs>
       <path id="meee9428617" d="M 0 0 
L -8 0 
" style="stroke: #000000; stroke-width: 4"/>
      </defs>
      <g>
       <use xlink:href="#meee9428617" x="109.0919" y="151.27513" style="stroke: #000000; stroke-width: 4"/>
      </g>
     </g>
     <g id="text_1">
      <!-- 8 -->
      <g transform="translate(87.9826 157.45948) scale(0.1728 -0.1728)">
       <defs>
        <path id="Arial-BoldMT-38" d="M 1025 2472 
Q 684 2616 529 2867 
Q 375 3119 375 3419 
Q 375 3931 733 4265 
Q 1091 4600 1750 4600 
Q 2403 4600 2764 4265 
Q 3125 3931 3125 3419 
Q 3125 3100 2959 2851 
Q 2794 2603 2494 2472 
Q 2875 2319 3073 2025 
Q 3272 1731 3272 1347 
Q 3272 713 2867 316 
Q 2463 -81 1791 -81 
Q 1166 -81 750 247 
Q 259 634 259 1309 
Q 259 1681 443 1992 
Q 628 2303 1025 2472 
z
M 1206 3356 
Q 1206 3094 1354 2947 
Q 1503 2800 1750 2800 
Q 2000 2800 2150 2948 
Q 2300 3097 2300 3359 
Q 2300 3606 2151 3754 
Q 2003 3903 1759 3903 
Q 1506 3903 1356 3753 
Q 1206 3603 1206 3356 
z
M 1125 1394 
Q 1125 1031 1311 828 
Q 1497 625 1775 625 
Q 2047 625 2225 820 
Q 2403 1016 2403 1384 
Q 2403 1706 2222 1901 
Q 2041 2097 1763 2097 
Q 1441 2097 1283 1875 
Q 1125 1653 1125 1394 
z
" transform="scale(0.015625)"/>
       </defs>
       <use xlink:href="#Arial-BoldMT-38"/>
      </g>
     </g>
    </g>
    <g id="ytick_2">
     <g id="line2d_9">
      <g>
       <use xlink:href="#meee9428617" x="109.0919" y="98.245565" style="stroke: #000000; stroke-width: 4"/>
      </g>
     </g>
    </g>
    <g id="ytick_3">
     <g id="line2d_10">
      <g>
       <use xlink:href="#meee9428617" x="109.0919" y="45.216" style="stroke: #000000; stroke-width: 4"/>
      </g>
     </g>
     <g id="text_2">
      <!-- 10 -->
      <g transform="translate(78.3733 51.40035) scale(0.1728 -0.1728)">
       <defs>
        <path id="Arial-BoldMT-31" d="M 2519 0 
L 1641 0 
L 1641 3309 
Q 1159 2859 506 2644 
L 506 3441 
Q 850 3553 1253 3867 
Q 1656 4181 1806 4600 
L 2519 4600 
L 2519 0 
z
" transform="scale(0.015625)"/>
        <path id="Arial-BoldMT-30" d="M 1756 4600 
Q 2422 4600 2797 4125 
Q 3244 3563 3244 2259 
Q 3244 959 2794 391 
Q 2422 -78 1756 -78 
Q 1088 -78 678 436 
Q 269 950 269 2269 
Q 269 3563 719 4131 
Q 1091 4600 1756 4600 
z
M 1756 3872 
Q 1597 3872 1472 3770 
Q 1347 3669 1278 3406 
Q 1188 3066 1188 2259 
Q 1188 1453 1269 1151 
Q 1350 850 1473 750 
Q 1597 650 1756 650 
Q 1916 650 2041 751 
Q 2166 853 2234 1116 
Q 2325 1453 2325 2259 
Q 2325 3066 2244 3367 
Q 2163 3669 2039 3770 
Q 1916 3872 1756 3872 
z
" transform="scale(0.015625)"/>
       </defs>
       <use xlink:href="#Arial-BoldMT-31"/>
       <use xlink:href="#Arial-BoldMT-30" x="55.615234"/>
      </g>
     </g>
    </g>
    <g id="text_3">
     <!-- Running -->
     <g transform="translate(33.525 133.271315) rotate(-90) scale(0.1728 -0.1728)">
      <defs>
       <path id="Arial-BoldMT-52" d="M 469 0 
L 469 4581 
L 2416 4581 
Q 3150 4581 3483 4457 
Q 3816 4334 4016 4018 
Q 4216 3703 4216 3297 
Q 4216 2781 3912 2445 
Q 3609 2109 3006 2022 
Q 3306 1847 3501 1637 
Q 3697 1428 4028 894 
L 4588 0 
L 3481 0 
L 2813 997 
Q 2456 1531 2325 1670 
Q 2194 1809 2047 1861 
Q 1900 1913 1581 1913 
L 1394 1913 
L 1394 0 
L 469 0 
z
M 1394 2644 
L 2078 2644 
Q 2744 2644 2909 2700 
Q 3075 2756 3169 2893 
Q 3263 3031 3263 3238 
Q 3263 3469 3139 3611 
Q 3016 3753 2791 3791 
Q 2678 3806 2116 3806 
L 1394 3806 
L 1394 2644 
z
" transform="scale(0.015625)"/>
       <path id="Arial-BoldMT-75" d="M 2644 0 
L 2644 497 
Q 2463 231 2167 78 
Q 1872 -75 1544 -75 
Q 1209 -75 943 72 
Q 678 219 559 484 
Q 441 750 441 1219 
L 441 3319 
L 1319 3319 
L 1319 1794 
Q 1319 1094 1367 936 
Q 1416 778 1544 686 
Q 1672 594 1869 594 
Q 2094 594 2272 717 
Q 2450 841 2515 1023 
Q 2581 1206 2581 1919 
L 2581 3319 
L 3459 3319 
L 3459 0 
L 2644 0 
z
" transform="scale(0.015625)"/>
       <path id="Arial-BoldMT-6e" d="M 3478 0 
L 2600 0 
L 2600 1694 
Q 2600 2231 2544 2389 
Q 2488 2547 2361 2634 
Q 2234 2722 2056 2722 
Q 1828 2722 1647 2597 
Q 1466 2472 1398 2265 
Q 1331 2059 1331 1503 
L 1331 0 
L 453 0 
L 453 3319 
L 1269 3319 
L 1269 2831 
Q 1703 3394 2363 3394 
Q 2653 3394 2893 3289 
Q 3134 3184 3257 3021 
Q 3381 2859 3429 2653 
Q 3478 2447 3478 2063 
L 3478 0 
z
" transform="scale(0.015625)"/>
       <path id="Arial-BoldMT-69" d="M 459 3769 
L 459 4581 
L 1338 4581 
L 1338 3769 
L 459 3769 
z
M 459 0 
L 459 3319 
L 1338 3319 
L 1338 0 
L 459 0 
z
" transform="scale(0.015625)"/>
       <path id="Arial-BoldMT-67" d="M 378 -219 
L 1381 -341 
Q 1406 -516 1497 -581 
Q 1622 -675 1891 -675 
Q 2234 -675 2406 -572 
Q 2522 -503 2581 -350 
Q 2622 -241 2622 53 
L 2622 538 
Q 2228 0 1628 0 
Q 959 0 569 566 
Q 263 1013 263 1678 
Q 263 2513 664 2953 
Q 1066 3394 1663 3394 
Q 2278 3394 2678 2853 
L 2678 3319 
L 3500 3319 
L 3500 341 
Q 3500 -247 3403 -537 
Q 3306 -828 3131 -993 
Q 2956 -1159 2664 -1253 
Q 2372 -1347 1925 -1347 
Q 1081 -1347 728 -1058 
Q 375 -769 375 -325 
Q 375 -281 378 -219 
z
M 1163 1728 
Q 1163 1200 1367 954 
Q 1572 709 1872 709 
Q 2194 709 2416 961 
Q 2638 1213 2638 1706 
Q 2638 2222 2425 2472 
Q 2213 2722 1888 2722 
Q 1572 2722 1367 2476 
Q 1163 2231 1163 1728 
z
" transform="scale(0.015625)"/>
      </defs>
      <use xlink:href="#Arial-BoldMT-52"/>
      <use xlink:href="#Arial-BoldMT-75" x="72.216797"/>
      <use xlink:href="#Arial-BoldMT-6e" x="133.300781"/>
      <use xlink:href="#Arial-BoldMT-6e" x="194.384766"/>
      <use xlink:href="#Arial-BoldMT-69" x="255.46875"/>
      <use xlink:href="#Arial-BoldMT-6e" x="283.251953"/>
      <use xlink:href="#Arial-BoldMT-67" x="344.335938"/>
     </g>
     <!-- velocity -->
     <g transform="translate(52.00434 130.418765) rotate(-90) scale(0.1728 -0.1728)">
      <defs>
       <path id="Arial-BoldMT-76" d="M 1372 0 
L 34 3319 
L 956 3319 
L 1581 1625 
L 1763 1059 
Q 1834 1275 1853 1344 
Q 1897 1484 1947 1625 
L 2578 3319 
L 3481 3319 
L 2163 0 
L 1372 0 
z
" transform="scale(0.015625)"/>
       <path id="Arial-BoldMT-65" d="M 2381 1056 
L 3256 909 
Q 3088 428 2723 176 
Q 2359 -75 1813 -75 
Q 947 -75 531 491 
Q 203 944 203 1634 
Q 203 2459 634 2926 
Q 1066 3394 1725 3394 
Q 2466 3394 2894 2905 
Q 3322 2416 3303 1406 
L 1103 1406 
Q 1113 1016 1316 798 
Q 1519 581 1822 581 
Q 2028 581 2168 693 
Q 2309 806 2381 1056 
z
M 2431 1944 
Q 2422 2325 2234 2523 
Q 2047 2722 1778 2722 
Q 1491 2722 1303 2513 
Q 1116 2303 1119 1944 
L 2431 1944 
z
" transform="scale(0.015625)"/>
       <path id="Arial-BoldMT-6c" d="M 459 0 
L 459 4581 
L 1338 4581 
L 1338 0 
L 459 0 
z
" transform="scale(0.015625)"/>
       <path id="Arial-BoldMT-6f" d="M 256 1706 
Q 256 2144 472 2553 
Q 688 2963 1083 3178 
Q 1478 3394 1966 3394 
Q 2719 3394 3200 2905 
Q 3681 2416 3681 1669 
Q 3681 916 3195 420 
Q 2709 -75 1972 -75 
Q 1516 -75 1102 131 
Q 688 338 472 736 
Q 256 1134 256 1706 
z
M 1156 1659 
Q 1156 1166 1390 903 
Q 1625 641 1969 641 
Q 2313 641 2545 903 
Q 2778 1166 2778 1666 
Q 2778 2153 2545 2415 
Q 2313 2678 1969 2678 
Q 1625 2678 1390 2415 
Q 1156 2153 1156 1659 
z
" transform="scale(0.015625)"/>
       <path id="Arial-BoldMT-63" d="M 3353 2338 
L 2488 2181 
Q 2444 2441 2289 2572 
Q 2134 2703 1888 2703 
Q 1559 2703 1364 2476 
Q 1169 2250 1169 1719 
Q 1169 1128 1367 884 
Q 1566 641 1900 641 
Q 2150 641 2309 783 
Q 2469 925 2534 1272 
L 3397 1125 
Q 3263 531 2881 228 
Q 2500 -75 1859 -75 
Q 1131 -75 698 384 
Q 266 844 266 1656 
Q 266 2478 700 2936 
Q 1134 3394 1875 3394 
Q 2481 3394 2839 3133 
Q 3197 2872 3353 2338 
z
" transform="scale(0.015625)"/>
       <path id="Arial-BoldMT-74" d="M 1981 3319 
L 1981 2619 
L 1381 2619 
L 1381 1281 
Q 1381 875 1398 808 
Q 1416 741 1477 697 
Q 1538 653 1625 653 
Q 1747 653 1978 738 
L 2053 56 
Q 1747 -75 1359 -75 
Q 1122 -75 931 4 
Q 741 84 652 211 
Q 563 338 528 553 
Q 500 706 500 1172 
L 500 2619 
L 97 2619 
L 97 3319 
L 500 3319 
L 500 3978 
L 1381 4491 
L 1381 3319 
L 1981 3319 
z
" transform="scale(0.015625)"/>
       <path id="Arial-BoldMT-79" d="M 44 3319 
L 978 3319 
L 1772 963 
L 2547 3319 
L 3456 3319 
L 2284 125 
L 2075 -453 
Q 1959 -744 1854 -897 
Q 1750 -1050 1614 -1145 
Q 1478 -1241 1279 -1294 
Q 1081 -1347 831 -1347 
Q 578 -1347 334 -1294 
L 256 -606 
Q 463 -647 628 -647 
Q 934 -647 1081 -467 
Q 1228 -288 1306 -9 
L 44 3319 
z
" transform="scale(0.015625)"/>
      </defs>
      <use xlink:href="#Arial-BoldMT-76"/>
      <use xlink:href="#Arial-BoldMT-65" x="55.615234"/>
      <use xlink:href="#Arial-BoldMT-6c" x="111.230469"/>
      <use xlink:href="#Arial-BoldMT-6f" x="139.013672"/>
      <use xlink:href="#Arial-BoldMT-63" x="200.097656"/>
      <use xlink:href="#Arial-BoldMT-69" x="255.712891"/>
      <use xlink:href="#Arial-BoldMT-74" x="283.496094"/>
      <use xlink:href="#Arial-BoldMT-79" x="316.796875"/>
     </g>
     <!-- (cm/s) -->
     <g transform="translate(70.7364 123.691715) rotate(-90) scale(0.1728 -0.1728)">
      <defs>
       <path id="Arial-BoldMT-28" d="M 1916 -1347 
L 1313 -1347 
Q 834 -625 584 153 
Q 334 931 334 1659 
Q 334 2563 644 3369 
Q 913 4069 1325 4659 
L 1925 4659 
Q 1497 3713 1336 3048 
Q 1175 2384 1175 1641 
Q 1175 1128 1270 590 
Q 1366 53 1531 -431 
Q 1641 -750 1916 -1347 
z
" transform="scale(0.015625)"/>
       <path id="Arial-BoldMT-6d" d="M 394 3319 
L 1203 3319 
L 1203 2866 
Q 1638 3394 2238 3394 
Q 2556 3394 2790 3262 
Q 3025 3131 3175 2866 
Q 3394 3131 3647 3262 
Q 3900 3394 4188 3394 
Q 4553 3394 4806 3245 
Q 5059 3097 5184 2809 
Q 5275 2597 5275 2122 
L 5275 0 
L 4397 0 
L 4397 1897 
Q 4397 2391 4306 2534 
Q 4184 2722 3931 2722 
Q 3747 2722 3584 2609 
Q 3422 2497 3350 2280 
Q 3278 2063 3278 1594 
L 3278 0 
L 2400 0 
L 2400 1819 
Q 2400 2303 2353 2443 
Q 2306 2584 2207 2653 
Q 2109 2722 1941 2722 
Q 1738 2722 1575 2612 
Q 1413 2503 1342 2297 
Q 1272 2091 1272 1613 
L 1272 0 
L 394 0 
L 394 3319 
z
" transform="scale(0.015625)"/>
       <path id="Arial-BoldMT-2f" d="M -9 -78 
L 1125 4659 
L 1784 4659 
L 638 -78 
L -9 -78 
z
" transform="scale(0.015625)"/>
       <path id="Arial-BoldMT-73" d="M 150 947 
L 1031 1081 
Q 1088 825 1259 692 
Q 1431 559 1741 559 
Q 2081 559 2253 684 
Q 2369 772 2369 919 
Q 2369 1019 2306 1084 
Q 2241 1147 2013 1200 
Q 950 1434 666 1628 
Q 272 1897 272 2375 
Q 272 2806 612 3100 
Q 953 3394 1669 3394 
Q 2350 3394 2681 3172 
Q 3013 2950 3138 2516 
L 2309 2363 
Q 2256 2556 2107 2659 
Q 1959 2763 1684 2763 
Q 1338 2763 1188 2666 
Q 1088 2597 1088 2488 
Q 1088 2394 1175 2328 
Q 1294 2241 1995 2081 
Q 2697 1922 2975 1691 
Q 3250 1456 3250 1038 
Q 3250 581 2869 253 
Q 2488 -75 1741 -75 
Q 1063 -75 667 200 
Q 272 475 150 947 
z
" transform="scale(0.015625)"/>
       <path id="Arial-BoldMT-29" d="M 216 -1347 
Q 475 -791 581 -494 
Q 688 -197 778 190 
Q 869 578 912 926 
Q 956 1275 956 1641 
Q 956 2384 797 3048 
Q 638 3713 209 4659 
L 806 4659 
Q 1278 3988 1539 3234 
Q 1800 2481 1800 1706 
Q 1800 1053 1594 306 
Q 1359 -531 822 -1347 
L 216 -1347 
z
" transform="scale(0.015625)"/>
      </defs>
      <use xlink:href="#Arial-BoldMT-28"/>
      <use xlink:href="#Arial-BoldMT-63" x="33.300781"/>
      <use xlink:href="#Arial-BoldMT-6d" x="88.916016"/>
      <use xlink:href="#Arial-BoldMT-2f" x="177.832031"/>
      <use xlink:href="#Arial-BoldMT-73" x="205.615234"/>
      <use xlink:href="#Arial-BoldMT-29" x="261.230469"/>
     </g>
    </g>
   </g>
   <g id="line2d_11">
    <path d="M 109.0919 100.019288 
L 111.725158 100.100829 
L 114.358417 98.707978 
L 116.991675 100.16619 
L 119.624934 99.794953 
L 122.258192 100.093324 
L 124.891451 99.858416 
L 127.524709 100.050583 
L 130.157967 99.528 
L 132.791226 99.925934 
L 135.424484 100.185764 
L 138.057743 99.857002 
L 140.691001 99.544551 
L 143.32426 99.954716 
L 145.957518 100.445704 
L 148.590776 101.616572 
L 151.224035 100.643085 
L 153.857293 101.452557 
L 156.490552 100.959305 
L 159.12381 101.275217 
L 161.757069 100.641314 
L 164.390327 101.729169 
L 167.023585 101.354002 
L 169.656844 101.871032 
L 172.290102 102.209075 
L 174.923361 102.525733 
L 177.556619 103.125886 
L 180.189878 103.207239 
L 182.823136 103.364135 
L 185.456394 103.388658 
L 188.089653 103.424341 
L 190.722911 103.861219 
L 193.35617 103.579267 
L 195.989428 105.053147 
L 198.622687 104.476174 
L 201.255945 105.075 
L 203.889203 104.057969 
L 206.522462 104.143731 
L 209.15572 102.948147 
L 211.788979 103.654579 
L 214.422237 103.697618 
L 217.055496 103.991407 
L 219.688754 104.296284 
L 222.322012 103.85069 
L 224.955271 104.437113 
L 227.588529 104.364078 
L 230.221788 104.401901 
L 232.855046 104.366697 
L 235.488304 104.294822 
L 238.121563 104.531806 
L 240.754821 104.444955 
L 243.38808 105.365332 
L 246.021338 104.094093 
L 248.654597 104.996886 
L 251.287855 104.099553 
L 253.921113 103.738291 
L 256.554372 102.720433 
L 259.18763 104.275722 
L 261.820889 103.787726 
L 264.454147 103.75273 
L 267.087406 103.573425 
L 269.720664 103.287393 
L 272.353922 102.296462 
L 274.987181 103.087092 
L 277.620439 103.467798 
L 280.253698 103.457416 
L 282.886956 103.419507 
L 285.520215 103.104224 
L 288.153473 103.399935 
L 290.786731 103.37057 
L 293.41999 103.250685 
L 296.053248 102.977968 
L 298.686507 102.74566 
L 301.319765 102.870135 
L 303.953024 102.692595 
L 306.586282 102.723794 
L 309.21954 102.56193 
L 311.852799 101.632202 
L 314.486057 101.907117 
L 317.119316 101.839187 
L 319.752574 101.281723 
L 322.385833 101.176773 
L 325.019091 100.652462 
L 327.652349 100.652461 
L 330.285608 100.353084 
L 332.918866 100.672309 
L 335.552125 100.962728 
L 338.185383 101.691463 
L 340.818642 100.598791 
L 343.4519 101.069895 
" clip-path="url(#p98dccec9d5)" style="fill: none; stroke: #969696; stroke-opacity: 0.8; stroke-width: 5; stroke-linecap: square"/>
   </g>
   <g id="line2d_12">
    <path d="M 109.0919 98.415016 
L 111.725158 97.742655 
L 114.358417 97.326647 
L 116.991675 98.56095 
L 119.624934 100.216299 
L 122.258192 102.622651 
L 124.891451 101.129611 
L 127.524709 104.378013 
L 130.157967 103.106372 
L 132.791226 105.574539 
L 135.424484 105.669593 
L 138.057743 107.545684 
L 140.691001 107.250683 
L 143.32426 106.764554 
L 145.957518 107.698566 
L 148.590776 108.794975 
L 151.224035 107.850743 
L 153.857293 108.721006 
L 156.490552 108.56416 
L 159.12381 109.143294 
L 161.757069 108.755206 
L 164.390327 110.777048 
L 167.023585 109.662884 
L 169.656844 111.168587 
L 172.290102 110.567612 
L 174.923361 108.84828 
L 177.556619 109.411791 
L 180.189878 109.254559 
L 182.823136 107.512184 
L 185.456394 108.226533 
L 188.089653 107.454466 
L 190.722911 107.02353 
L 193.35617 108.918601 
L 195.989428 110.433436 
L 198.622687 109.2993 
L 201.255945 107.930856 
L 203.889203 108.254334 
L 206.522462 108.054884 
L 209.15572 106.416097 
L 211.788979 106.887591 
L 214.422237 105.823948 
L 217.055496 106.167847 
L 219.688754 107.252402 
L 222.322012 106.960587 
L 224.955271 107.652317 
L 227.588529 107.643911 
L 230.221788 106.947632 
L 232.855046 106.137815 
L 235.488304 106.988761 
L 238.121563 104.670069 
L 240.754821 105.381231 
L 243.38808 106.230864 
L 246.021338 103.67272 
L 248.654597 103.806851 
L 251.287855 101.44985 
L 253.921113 101.971837 
L 256.554372 97.787926 
L 259.18763 99.860627 
L 261.820889 99.509952 
L 264.454147 100.80957 
L 267.087406 100.257358 
L 269.720664 100.537085 
L 272.353922 100.178994 
L 274.987181 99.718941 
L 277.620439 99.749642 
L 280.253698 101.041645 
L 282.886956 99.477538 
L 285.520215 99.306022 
L 288.153473 100.803048 
L 290.786731 98.342169 
L 293.41999 99.116271 
L 296.053248 100.895661 
L 298.686507 99.688905 
L 301.319765 97.535493 
L 303.953024 99.359839 
L 306.586282 99.183619 
L 309.21954 98.188112 
L 311.852799 98.231115 
L 314.486057 101.093127 
L 317.119316 98.824633 
L 319.752574 99.272446 
L 322.385833 98.170808 
L 325.019091 98.009241 
L 327.652349 97.316032 
L 330.285608 95.840762 
L 332.918866 96.776897 
L 335.552125 96.599483 
L 338.185383 97.338566 
L 340.818642 95.594271 
L 343.4519 96.976275 
" clip-path="url(#p98dccec9d5)" style="fill: none; stroke: #eb3920; stroke-opacity: 0.75; stroke-width: 5; stroke-linecap: square"/>
   </g>
   <g id="patch_3">
    <path d="M 109.0919 151.27513 
L 109.0919 45.216 
" style="fill: none; stroke: #000000; stroke-width: 4; stroke-linejoin: miter; stroke-linecap: square"/>
   </g>
   <g id="patch_4">
    <path d="M 109.0919 151.27513 
L 343.4519 151.27513 
" style="fill: none; stroke: #000000; stroke-width: 4; stroke-linejoin: miter; stroke-linecap: square"/>
   </g>
  </g>
  <g id="axes_2">
   <g id="patch_5">
    <path d="M 109.0919 289.152 
L 343.4519 289.152 
L 343.4519 183.09287 
L 109.0919 183.09287 
z
" style="fill: #ffffff"/>
   </g>
   <g id="line2d_13">
    <path d="M 249.7079 289.152 
L 249.7079 183.09287 
" clip-path="url(#p4e651b23c1)" style="fill: none; stroke-dasharray: 9,6; stroke-dashoffset: 0; stroke: #000000; stroke-opacity: 0.5; stroke-width: 3"/>
   </g>
   <g id="PolyCollection_3">
    <path d="M 109.0919 233.818127 
L 109.0919 251.070463 
L 114.418264 251.151855 
L 119.744627 251.79945 
L 125.070991 252.008509 
L 130.397355 252.650205 
L 135.723718 251.842056 
L 141.050082 252.227741 
L 146.376445 251.828809 
L 151.702809 251.21177 
L 157.029173 250.335315 
L 162.355536 250.18522 
L 167.6819 249.568107 
L 173.008264 249.434509 
L 178.334627 249.286362 
L 183.660991 248.207515 
L 188.987355 249.154302 
L 194.313718 249.06281 
L 199.640082 249.794883 
L 204.966445 250.437648 
L 210.292809 250.441073 
L 215.619173 252.282597 
L 220.945536 252.125495 
L 226.2719 252.831863 
L 231.598264 252.233611 
L 236.924627 252.870482 
L 242.250991 253.146942 
L 247.577355 254.737299 
L 252.903718 254.682449 
L 258.230082 254.814611 
L 263.556445 253.249807 
L 268.882809 253.411826 
L 274.209173 254.391374 
L 279.535536 256.148059 
L 284.8619 254.634535 
L 290.188264 254.609492 
L 295.514627 252.79781 
L 300.840991 252.04887 
L 306.167355 251.102721 
L 311.493718 249.783082 
L 316.820082 248.934969 
L 322.146445 248.55786 
L 327.472809 246.673724 
L 332.799173 247.883271 
L 338.125536 248.484141 
L 343.4519 250.148583 
L 343.4519 232.891404 
L 343.4519 232.891404 
L 338.125536 231.222468 
L 332.799173 230.636375 
L 327.472809 229.442523 
L 322.146445 231.326902 
L 316.820082 231.730306 
L 311.493718 232.585658 
L 306.167355 233.907731 
L 300.840991 234.879588 
L 295.514627 235.635054 
L 290.188264 237.444605 
L 284.8619 237.470826 
L 279.535536 238.972615 
L 274.209173 237.203425 
L 268.882809 236.220851 
L 263.556445 236.058119 
L 258.230082 237.59807 
L 252.903718 237.467019 
L 247.577355 237.514128 
L 242.250991 235.928107 
L 236.924627 235.631184 
L 231.598264 234.99525 
L 226.2719 235.586483 
L 220.945536 234.895182 
L 215.619173 235.046061 
L 210.292809 233.225012 
L 204.966445 233.215034 
L 199.640082 232.593933 
L 194.313718 231.876709 
L 188.987355 231.971604 
L 183.660991 231.046414 
L 178.334627 232.116661 
L 173.008264 232.275205 
L 167.6819 232.411398 
L 162.355536 233.024161 
L 157.029173 233.178333 
L 151.702809 234.055581 
L 146.376445 234.677887 
L 141.050082 235.070858 
L 135.723718 234.669433 
L 130.397355 235.44433 
L 125.070991 234.80568 
L 119.744627 234.591253 
L 114.418264 233.931654 
L 109.0919 233.818127 
z
" clip-path="url(#p4e651b23c1)" style="fill: #969696; fill-opacity: 0.5"/>
   </g>
   <g id="PolyCollection_4">
    <path d="M 109.0919 196.840243 
L 109.0919 258.745377 
L 114.418264 258.881337 
L 119.744627 257.43076 
L 125.070991 259.445853 
L 130.397355 262.784384 
L 135.723718 265.934603 
L 141.050082 264.126117 
L 146.376445 264.951087 
L 151.702809 264.679562 
L 157.029173 264.600886 
L 162.355536 260.579243 
L 167.6819 259.62055 
L 173.008264 259.664318 
L 178.334627 261.42724 
L 183.660991 258.806123 
L 188.987355 260.506174 
L 194.313718 261.179537 
L 199.640082 262.18038 
L 204.966445 261.646018 
L 210.292809 261.028773 
L 215.619173 259.703678 
L 220.945536 261.292491 
L 226.2719 259.151639 
L 231.598264 257.595809 
L 236.924627 259.263715 
L 242.250991 260.429427 
L 247.577355 260.984265 
L 252.903718 262.26517 
L 258.230082 264.931661 
L 263.556445 264.624372 
L 268.882809 264.687296 
L 274.209173 264.326105 
L 279.535536 268.17326 
L 284.8619 267.626209 
L 290.188264 263.964995 
L 295.514627 267.014142 
L 300.840991 266.336971 
L 306.167355 263.706159 
L 311.493718 262.80175 
L 316.820082 258.999315 
L 322.146445 259.888577 
L 327.472809 260.878734 
L 332.799173 259.471128 
L 338.125536 259.775535 
L 343.4519 259.224052 
L 343.4519 197.684145 
L 343.4519 197.684145 
L 338.125536 198.095838 
L 332.799173 197.947852 
L 327.472809 199.435235 
L 322.146445 198.177336 
L 316.820082 197.280868 
L 311.493718 201.024488 
L 306.167355 201.848752 
L 300.840991 204.390104 
L 295.514627 205.205506 
L 290.188264 202.235257 
L 284.8619 205.806784 
L 279.535536 206.352925 
L 274.209173 202.29389 
L 268.882809 202.686045 
L 263.556445 202.443735 
L 258.230082 202.577645 
L 252.903718 200.038582 
L 247.577355 198.777239 
L 242.250991 198.121092 
L 236.924627 196.986524 
L 231.598264 195.174212 
L 226.2719 196.858388 
L 220.945536 199.22759 
L 215.619173 197.779119 
L 210.292809 199.098057 
L 204.966445 199.753997 
L 199.640082 200.378502 
L 194.313718 199.29811 
L 188.987355 198.532047 
L 183.660991 196.926257 
L 178.334627 199.485866 
L 173.008264 197.695886 
L 167.6819 197.69449 
L 162.355536 198.81665 
L 157.029173 202.757364 
L 151.702809 202.760551 
L 146.376445 203.000553 
L 141.050082 202.290192 
L 135.723718 203.943851 
L 130.397355 200.672778 
L 125.070991 197.398001 
L 119.744627 195.351816 
L 114.418264 196.966017 
L 109.0919 196.840243 
z
" clip-path="url(#p4e651b23c1)" style="fill: #eb3920; fill-opacity: 0.2"/>
   </g>
   <g id="matplotlib.axis_3">
    <g id="xtick_7">
     <g id="line2d_14">
      <g>
       <use xlink:href="#mba97661355" x="109.0919" y="289.152" style="stroke: #000000; stroke-width: 4"/>
      </g>
     </g>
    </g>
    <g id="xtick_8">
     <g id="line2d_15">
      <g>
       <use xlink:href="#mba97661355" x="155.9639" y="289.152" style="stroke: #000000; stroke-width: 4"/>
      </g>
     </g>
     <g id="text_4">
      <!-- -0.6 -->
      <g transform="translate(141.07745 313.0207) scale(0.1728 -0.1728)">
       <defs>
        <path id="Arial-BoldMT-2d" d="M 359 1222 
L 359 2100 
L 2084 2100 
L 2084 1222 
L 359 1222 
z
" transform="scale(0.015625)"/>
        <path id="Arial-BoldMT-2e" d="M 459 0 
L 459 878 
L 1338 878 
L 1338 0 
L 459 0 
z
" transform="scale(0.015625)"/>
        <path id="Arial-BoldMT-36" d="M 3247 3459 
L 2397 3366 
Q 2366 3628 2234 3753 
Q 2103 3878 1894 3878 
Q 1616 3878 1423 3628 
Q 1231 3378 1181 2588 
Q 1509 2975 1997 2975 
Q 2547 2975 2939 2556 
Q 3331 2138 3331 1475 
Q 3331 772 2918 347 
Q 2506 -78 1859 -78 
Q 1166 -78 719 461 
Q 272 1000 272 2228 
Q 272 3488 737 4044 
Q 1203 4600 1947 4600 
Q 2469 4600 2811 4308 
Q 3153 4016 3247 3459 
z
M 1256 1544 
Q 1256 1116 1453 883 
Q 1650 650 1903 650 
Q 2147 650 2309 840 
Q 2472 1031 2472 1466 
Q 2472 1913 2297 2120 
Q 2122 2328 1859 2328 
Q 1606 2328 1431 2129 
Q 1256 1931 1256 1544 
z
" transform="scale(0.015625)"/>
       </defs>
       <use xlink:href="#Arial-BoldMT-2d"/>
       <use xlink:href="#Arial-BoldMT-30" x="33.300781"/>
       <use xlink:href="#Arial-BoldMT-2e" x="88.916016"/>
       <use xlink:href="#Arial-BoldMT-36" x="116.699219"/>
      </g>
     </g>
    </g>
    <g id="xtick_9">
     <g id="line2d_16">
      <g>
       <use xlink:href="#mba97661355" x="202.8359" y="289.152" style="stroke: #000000; stroke-width: 4"/>
      </g>
     </g>
    </g>
    <g id="xtick_10">
     <g id="line2d_17">
      <g>
       <use xlink:href="#mba97661355" x="249.7079" y="289.152" style="stroke: #000000; stroke-width: 4"/>
      </g>
     </g>
     <g id="text_5">
      <!-- 0 -->
      <g transform="translate(244.90325 313.0207) scale(0.1728 -0.1728)">
       <use xlink:href="#Arial-BoldMT-30"/>
      </g>
     </g>
    </g>
    <g id="xtick_11">
     <g id="line2d_18">
      <g>
       <use xlink:href="#mba97661355" x="296.5799" y="289.152" style="stroke: #000000; stroke-width: 4"/>
      </g>
     </g>
    </g>
    <g id="xtick_12">
     <g id="line2d_19">
      <g>
       <use xlink:href="#mba97661355" x="343.4519" y="289.152" style="stroke: #000000; stroke-width: 4"/>
      </g>
     </g>
     <g id="text_6">
      <!-- 0.6 -->
      <g transform="translate(331.4423 313.0207) scale(0.1728 -0.1728)">
       <use xlink:href="#Arial-BoldMT-30"/>
       <use xlink:href="#Arial-BoldMT-2e" x="55.615234"/>
       <use xlink:href="#Arial-BoldMT-36" x="83.398438"/>
      </g>
     </g>
    </g>
    <g id="text_7">
     <!-- Time (s) -->
     <g transform="translate(193.2995 333.0101) scale(0.1728 -0.1728)">
      <defs>
       <path id="Arial-BoldMT-54" d="M 1497 0 
L 1497 3806 
L 138 3806 
L 138 4581 
L 3778 4581 
L 3778 3806 
L 2422 3806 
L 2422 0 
L 1497 0 
z
" transform="scale(0.015625)"/>
       <path id="Arial-BoldMT-20" transform="scale(0.015625)"/>
      </defs>
      <use xlink:href="#Arial-BoldMT-54"/>
      <use xlink:href="#Arial-BoldMT-69" x="59.333984"/>
      <use xlink:href="#Arial-BoldMT-6d" x="87.117188"/>
      <use xlink:href="#Arial-BoldMT-65" x="176.033203"/>
      <use xlink:href="#Arial-BoldMT-20" x="231.648438"/>
      <use xlink:href="#Arial-BoldMT-28" x="259.431641"/>
      <use xlink:href="#Arial-BoldMT-73" x="292.732422"/>
      <use xlink:href="#Arial-BoldMT-29" x="348.347656"/>
     </g>
    </g>
   </g>
   <g id="matplotlib.axis_4">
    <g id="ytick_4">
     <g id="line2d_20">
      <g>
       <use xlink:href="#meee9428617" x="109.0919" y="289.152" style="stroke: #000000; stroke-width: 4"/>
      </g>
     </g>
     <g id="text_8">
      <!-- 0.55 -->
      <g transform="translate(63.9634 295.33635) scale(0.1728 -0.1728)">
       <defs>
        <path id="Arial-BoldMT-35" d="M 284 1178 
L 1159 1269 
Q 1197 972 1381 798 
Q 1566 625 1806 625 
Q 2081 625 2272 848 
Q 2463 1072 2463 1522 
Q 2463 1944 2273 2155 
Q 2084 2366 1781 2366 
Q 1403 2366 1103 2031 
L 391 2134 
L 841 4519 
L 3163 4519 
L 3163 3697 
L 1506 3697 
L 1369 2919 
Q 1663 3066 1969 3066 
Q 2553 3066 2959 2641 
Q 3366 2216 3366 1538 
Q 3366 972 3038 528 
Q 2591 -78 1797 -78 
Q 1163 -78 763 262 
Q 363 603 284 1178 
z
" transform="scale(0.015625)"/>
       </defs>
       <use xlink:href="#Arial-BoldMT-30"/>
       <use xlink:href="#Arial-BoldMT-2e" x="55.615234"/>
       <use xlink:href="#Arial-BoldMT-35" x="83.398438"/>
       <use xlink:href="#Arial-BoldMT-35" x="139.013672"/>
      </g>
     </g>
    </g>
    <g id="ytick_5">
     <g id="line2d_21">
      <g>
       <use xlink:href="#meee9428617" x="109.0919" y="255.571962" style="stroke: #000000; stroke-width: 4"/>
      </g>
     </g>
    </g>
    <g id="ytick_6">
     <g id="line2d_22">
      <g>
       <use xlink:href="#meee9428617" x="109.0919" y="221.991925" style="stroke: #000000; stroke-width: 4"/>
      </g>
     </g>
     <g id="text_9">
      <!-- 0.56 -->
      <g transform="translate(63.9634 228.176275) scale(0.1728 -0.1728)">
       <use xlink:href="#Arial-BoldMT-30"/>
       <use xlink:href="#Arial-BoldMT-2e" x="55.615234"/>
       <use xlink:href="#Arial-BoldMT-35" x="83.398438"/>
       <use xlink:href="#Arial-BoldMT-36" x="139.013672"/>
      </g>
     </g>
    </g>
    <g id="ytick_7">
     <g id="line2d_23">
      <g>
       <use xlink:href="#meee9428617" x="109.0919" y="188.411887" style="stroke: #000000; stroke-width: 4"/>
      </g>
     </g>
    </g>
    <g id="text_10">
     <!-- Pupil -->
     <g transform="translate(19.5687 257.240485) rotate(-90) scale(0.1728 -0.1728)">
      <defs>
       <path id="Arial-BoldMT-50" d="M 466 0 
L 466 4581 
L 1950 4581 
Q 2794 4581 3050 4513 
Q 3444 4409 3709 4064 
Q 3975 3719 3975 3172 
Q 3975 2750 3822 2462 
Q 3669 2175 3433 2011 
Q 3197 1847 2953 1794 
Q 2622 1728 1994 1728 
L 1391 1728 
L 1391 0 
L 466 0 
z
M 1391 3806 
L 1391 2506 
L 1897 2506 
Q 2444 2506 2628 2578 
Q 2813 2650 2917 2803 
Q 3022 2956 3022 3159 
Q 3022 3409 2875 3571 
Q 2728 3734 2503 3775 
Q 2338 3806 1838 3806 
L 1391 3806 
z
" transform="scale(0.015625)"/>
       <path id="Arial-BoldMT-70" d="M 434 3319 
L 1253 3319 
L 1253 2831 
Q 1413 3081 1684 3237 
Q 1956 3394 2288 3394 
Q 2866 3394 3269 2941 
Q 3672 2488 3672 1678 
Q 3672 847 3265 386 
Q 2859 -75 2281 -75 
Q 2006 -75 1782 34 
Q 1559 144 1313 409 
L 1313 -1263 
L 434 -1263 
L 434 3319 
z
M 1303 1716 
Q 1303 1156 1525 889 
Q 1747 622 2066 622 
Q 2372 622 2575 867 
Q 2778 1113 2778 1672 
Q 2778 2194 2568 2447 
Q 2359 2700 2050 2700 
Q 1728 2700 1515 2451 
Q 1303 2203 1303 1716 
z
" transform="scale(0.015625)"/>
      </defs>
      <use xlink:href="#Arial-BoldMT-50"/>
      <use xlink:href="#Arial-BoldMT-75" x="66.699219"/>
      <use xlink:href="#Arial-BoldMT-70" x="127.783203"/>
      <use xlink:href="#Arial-BoldMT-69" x="188.867188"/>
      <use xlink:href="#Arial-BoldMT-6c" x="216.650391"/>
     </g>
     <!-- diameter -->
     <g transform="translate(37.82124 272.136385) rotate(-90) scale(0.1728 -0.1728)">
      <defs>
       <path id="Arial-BoldMT-64" d="M 3503 0 
L 2688 0 
L 2688 488 
Q 2484 203 2207 64 
Q 1931 -75 1650 -75 
Q 1078 -75 670 386 
Q 263 847 263 1672 
Q 263 2516 659 2955 
Q 1056 3394 1663 3394 
Q 2219 3394 2625 2931 
L 2625 4581 
L 3503 4581 
L 3503 0 
z
M 1159 1731 
Q 1159 1200 1306 963 
Q 1519 619 1900 619 
Q 2203 619 2415 876 
Q 2628 1134 2628 1647 
Q 2628 2219 2422 2470 
Q 2216 2722 1894 2722 
Q 1581 2722 1370 2473 
Q 1159 2225 1159 1731 
z
" transform="scale(0.015625)"/>
       <path id="Arial-BoldMT-61" d="M 1116 2306 
L 319 2450 
Q 453 2931 781 3162 
Q 1109 3394 1756 3394 
Q 2344 3394 2631 3255 
Q 2919 3116 3036 2902 
Q 3153 2688 3153 2116 
L 3144 1091 
Q 3144 653 3186 445 
Q 3228 238 3344 0 
L 2475 0 
Q 2441 88 2391 259 
Q 2369 338 2359 363 
Q 2134 144 1878 34 
Q 1622 -75 1331 -75 
Q 819 -75 523 203 
Q 228 481 228 906 
Q 228 1188 362 1408 
Q 497 1628 739 1745 
Q 981 1863 1438 1950 
Q 2053 2066 2291 2166 
L 2291 2253 
Q 2291 2506 2166 2614 
Q 2041 2722 1694 2722 
Q 1459 2722 1328 2630 
Q 1197 2538 1116 2306 
z
M 2291 1594 
Q 2122 1538 1756 1459 
Q 1391 1381 1278 1306 
Q 1106 1184 1106 997 
Q 1106 813 1243 678 
Q 1381 544 1594 544 
Q 1831 544 2047 700 
Q 2206 819 2256 991 
Q 2291 1103 2291 1419 
L 2291 1594 
z
" transform="scale(0.015625)"/>
       <path id="Arial-BoldMT-72" d="M 1300 0 
L 422 0 
L 422 3319 
L 1238 3319 
L 1238 2847 
Q 1447 3181 1614 3287 
Q 1781 3394 1994 3394 
Q 2294 3394 2572 3228 
L 2300 2463 
Q 2078 2606 1888 2606 
Q 1703 2606 1575 2504 
Q 1447 2403 1373 2137 
Q 1300 1872 1300 1025 
L 1300 0 
z
" transform="scale(0.015625)"/>
      </defs>
      <use xlink:href="#Arial-BoldMT-64"/>
      <use xlink:href="#Arial-BoldMT-69" x="61.083984"/>
      <use xlink:href="#Arial-BoldMT-61" x="88.867188"/>
      <use xlink:href="#Arial-BoldMT-6d" x="144.482422"/>
      <use xlink:href="#Arial-BoldMT-65" x="233.398438"/>
      <use xlink:href="#Arial-BoldMT-74" x="289.013672"/>
      <use xlink:href="#Arial-BoldMT-65" x="322.314453"/>
      <use xlink:href="#Arial-BoldMT-72" x="377.929688"/>
     </g>
     <!-- (mm) -->
     <g transform="translate(56.3265 257.241835) rotate(-90) scale(0.1728 -0.1728)">
      <use xlink:href="#Arial-BoldMT-28"/>
      <use xlink:href="#Arial-BoldMT-6d" x="33.300781"/>
      <use xlink:href="#Arial-BoldMT-6d" x="122.216797"/>
      <use xlink:href="#Arial-BoldMT-29" x="211.132812"/>
     </g>
    </g>
   </g>
   <g id="line2d_24">
    <path d="M 109.0919 242.444295 
L 114.418264 242.541754 
L 119.744627 243.195351 
L 125.070991 243.407095 
L 130.397355 244.047267 
L 135.723718 243.255745 
L 141.050082 243.6493 
L 146.376445 243.253348 
L 151.702809 242.633675 
L 157.029173 241.756824 
L 162.355536 241.604691 
L 167.6819 240.989752 
L 173.008264 240.854857 
L 178.334627 240.701511 
L 183.660991 239.626965 
L 188.987355 240.562953 
L 194.313718 240.46976 
L 199.640082 241.194408 
L 204.966445 241.826341 
L 210.292809 241.833042 
L 215.619173 243.664329 
L 220.945536 243.510339 
L 226.2719 244.209173 
L 231.598264 243.61443 
L 236.924627 244.250833 
L 242.250991 244.537525 
L 247.577355 246.125713 
L 252.903718 246.074734 
L 258.230082 246.206341 
L 263.556445 244.653963 
L 268.882809 244.816338 
L 274.209173 245.7974 
L 279.535536 247.560337 
L 284.8619 246.05268 
L 290.188264 246.027048 
L 295.514627 244.216432 
L 300.840991 243.464229 
L 306.167355 242.505226 
L 311.493718 241.18437 
L 316.820082 240.332637 
L 322.146445 239.942381 
L 327.472809 238.058124 
L 332.799173 239.259823 
L 338.125536 239.853304 
L 343.4519 241.519993 
" clip-path="url(#p4e651b23c1)" style="fill: none; stroke: #969696; stroke-opacity: 0.8; stroke-width: 5; stroke-linecap: square"/>
   </g>
   <g id="line2d_25">
    <path d="M 109.0919 227.79281 
L 114.418264 227.923677 
L 119.744627 226.391288 
L 125.070991 228.421927 
L 130.397355 231.728581 
L 135.723718 234.939227 
L 141.050082 233.208155 
L 146.376445 233.97582 
L 151.702809 233.720056 
L 157.029173 233.679125 
L 162.355536 229.697946 
L 167.6819 228.65752 
L 173.008264 228.680102 
L 178.334627 230.456553 
L 183.660991 227.86619 
L 188.987355 229.519111 
L 194.313718 230.238823 
L 199.640082 231.279441 
L 204.966445 230.700007 
L 210.292809 230.063415 
L 215.619173 228.741398 
L 220.945536 230.260041 
L 226.2719 228.005013 
L 231.598264 226.385011 
L 236.924627 228.125119 
L 242.250991 229.27526 
L 247.577355 229.880752 
L 252.903718 231.151876 
L 258.230082 233.754653 
L 263.556445 233.534053 
L 268.882809 233.686671 
L 274.209173 233.309998 
L 279.535536 237.263093 
L 284.8619 236.716497 
L 290.188264 233.100126 
L 295.514627 236.109824 
L 300.840991 235.363537 
L 306.167355 232.777456 
L 311.493718 231.913119 
L 316.820082 228.140091 
L 322.146445 229.032956 
L 327.472809 230.156984 
L 332.799173 228.70949 
L 338.125536 228.935687 
L 343.4519 228.454099 
" clip-path="url(#p4e651b23c1)" style="fill: none; stroke: #eb3920; stroke-opacity: 0.75; stroke-width: 5; stroke-linecap: square"/>
   </g>
   <g id="patch_6">
    <path d="M 109.0919 289.152 
L 109.0919 183.09287 
" style="fill: none; stroke: #000000; stroke-width: 4; stroke-linejoin: miter; stroke-linecap: square"/>
   </g>
   <g id="patch_7">
    <path d="M 109.0919 289.152 
L 343.4519 289.152 
" style="fill: none; stroke: #000000; stroke-width: 4; stroke-linejoin: miter; stroke-linecap: square"/>
   </g>
  </g>
  <g id="text_11">
   <!-- Running and pupil responses -->
   <g transform="translate(101.0567 19.5687) scale(0.1728 -0.1728)">
    <use xlink:href="#Arial-BoldMT-52"/>
    <use xlink:href="#Arial-BoldMT-75" x="72.216797"/>
    <use xlink:href="#Arial-BoldMT-6e" x="133.300781"/>
    <use xlink:href="#Arial-BoldMT-6e" x="194.384766"/>
    <use xlink:href="#Arial-BoldMT-69" x="255.46875"/>
    <use xlink:href="#Arial-BoldMT-6e" x="283.251953"/>
    <use xlink:href="#Arial-BoldMT-67" x="344.335938"/>
    <use xlink:href="#Arial-BoldMT-20" x="405.419922"/>
    <use xlink:href="#Arial-BoldMT-61" x="433.203125"/>
    <use xlink:href="#Arial-BoldMT-6e" x="488.818359"/>
    <use xlink:href="#Arial-BoldMT-64" x="549.902344"/>
    <use xlink:href="#Arial-BoldMT-20" x="610.986328"/>
    <use xlink:href="#Arial-BoldMT-70" x="638.769531"/>
    <use xlink:href="#Arial-BoldMT-75" x="699.853516"/>
    <use xlink:href="#Arial-BoldMT-70" x="760.9375"/>
    <use xlink:href="#Arial-BoldMT-69" x="822.021484"/>
    <use xlink:href="#Arial-BoldMT-6c" x="849.804688"/>
    <use xlink:href="#Arial-BoldMT-20" x="877.587891"/>
    <use xlink:href="#Arial-BoldMT-72" x="905.371094"/>
    <use xlink:href="#Arial-BoldMT-65" x="944.287109"/>
    <use xlink:href="#Arial-BoldMT-73" x="999.902344"/>
    <use xlink:href="#Arial-BoldMT-70" x="1055.517578"/>
    <use xlink:href="#Arial-BoldMT-6f" x="1116.601562"/>
    <use xlink:href="#Arial-BoldMT-6e" x="1177.685547"/>
    <use xlink:href="#Arial-BoldMT-73" x="1238.769531"/>
    <use xlink:href="#Arial-BoldMT-65" x="1294.384766"/>
    <use xlink:href="#Arial-BoldMT-73" x="1350"/>
   </g>
  </g>
 </g>
 <defs>
  <clipPath id="p98dccec9d5">
   <rect x="109.0919" y="45.216" width="234.36" height="106.05913"/>
  </clipPath>
  <clipPath id="p4e651b23c1">
   <rect x="109.0919" y="183.09287" width="234.36" height="106.05913"/>
  </clipPath>
 </defs>
</svg>
