<?xml version="1.0" encoding="utf-8" standalone="no"?>
<!DOCTYPE svg PUBLIC "-//W3C//DTD SVG 1.1//EN"
  "http://www.w3.org/Graphics/SVG/1.1/DTD/svg11.dtd">
<svg xmlns:xlink="http://www.w3.org/1999/xlink" width="478.6464pt" height="578.6901pt" viewBox="0 0 478.6464 578.6901" xmlns="http://www.w3.org/2000/svg" version="1.1">
 <metadata>
  <rdf:RDF xmlns:dc="http://purl.org/dc/elements/1.1/" xmlns:cc="http://creativecommons.org/ns#" xmlns:rdf="http://www.w3.org/1999/02/22-rdf-syntax-ns#">
   <cc:Work>
    <dc:type rdf:resource="http://purl.org/dc/dcmitype/StillImage"/>
    <dc:date>2023-04-04T17:12:03.659214</dc:date>
    <dc:format>image/svg+xml</dc:format>
    <dc:creator>
     <cc:Agent>
      <dc:title>Matplotlib v3.6.3, https://matplotlib.org/</dc:title>
     </cc:Agent>
    </dc:creator>
   </cc:Work>
  </rdf:RDF>
 </metadata>
 <defs>
  <style type="text/css">*{stroke-linejoin: round; stroke-linecap: butt}</style>
 </defs>
 <g id="figure_1">
  <g id="patch_1">
   <path d="M 0 578.6901 
L 478.6464 578.6901 
L 478.6464 0 
L 0 0 
z
" style="fill: #ffffff"/>
  </g>
  <g id="axes_1">
   <g id="patch_2">
    <path d="M 73.1316 272.88 
L 236.8116 272.88 
L 236.8116 66.24 
L 73.1316 66.24 
z
" style="fill: #ffffff"/>
   </g>
   <g id="line2d_1">
    <path d="M 73.1316 221.22 
L 236.8116 221.22 
" clip-path="url(#pc6341d09a5)" style="fill: none; stroke-dasharray: 12,6; stroke-dashoffset: 0; stroke: #000000; stroke-opacity: 0.5; stroke-width: 3"/>
   </g>
   <g id="matplotlib.axis_1">
    <g id="xtick_1"/>
    <g id="xtick_2"/>
    <g id="xtick_3"/>
   </g>
   <g id="matplotlib.axis_2">
    <g id="ytick_1">
     <g id="line2d_2">
      <defs>
       <path id="m0fd830cb79" d="M 0 0 
L -8 0 
" style="stroke: #000000; stroke-width: 4"/>
      </defs>
      <g>
       <use xlink:href="#m0fd830cb79" x="73.1316" y="272.88" style="stroke: #000000; stroke-width: 4"/>
      </g>
     </g>
    </g>
    <g id="ytick_2">
     <g id="line2d_3">
      <g>
       <use xlink:href="#m0fd830cb79" x="73.1316" y="221.22" style="stroke: #000000; stroke-width: 4"/>
      </g>
     </g>
     <g id="text_1">
      <!-- 0 -->
      <g transform="translate(52.0223 227.40435) scale(0.1728 -0.1728)">
       <defs>
        <path id="Arial-BoldMT-30" d="M 1756 4600 
Q 2422 4600 2797 4125 
Q 3244 3563 3244 2259 
Q 3244 959 2794 391 
Q 2422 -78 1756 -78 
Q 1088 -78 678 436 
Q 269 950 269 2269 
Q 269 3563 719 4131 
Q 1091 4600 1756 4600 
z
M 1756 3872 
Q 1597 3872 1472 3770 
Q 1347 3669 1278 3406 
Q 1188 3066 1188 2259 
Q 1188 1453 1269 1151 
Q 1350 850 1473 750 
Q 1597 650 1756 650 
Q 1916 650 2041 751 
Q 2166 853 2234 1116 
Q 2325 1453 2325 2259 
Q 2325 3066 2244 3367 
Q 2163 3669 2039 3770 
Q 1916 3872 1756 3872 
z
" transform="scale(0.015625)"/>
       </defs>
       <use xlink:href="#Arial-BoldMT-30"/>
      </g>
     </g>
    </g>
    <g id="ytick_3">
     <g id="line2d_4">
      <g>
       <use xlink:href="#m0fd830cb79" x="73.1316" y="169.56" style="stroke: #000000; stroke-width: 4"/>
      </g>
     </g>
    </g>
    <g id="ytick_4">
     <g id="line2d_5">
      <g>
       <use xlink:href="#m0fd830cb79" x="73.1316" y="117.9" style="stroke: #000000; stroke-width: 4"/>
      </g>
     </g>
     <g id="text_2">
      <!-- 0.04 -->
      <g transform="translate(28.0031 124.08435) scale(0.1728 -0.1728)">
       <defs>
        <path id="Arial-BoldMT-2e" d="M 459 0 
L 459 878 
L 1338 878 
L 1338 0 
L 459 0 
z
" transform="scale(0.015625)"/>
        <path id="Arial-BoldMT-34" d="M 1994 0 
L 1994 922 
L 119 922 
L 119 1691 
L 2106 4600 
L 2844 4600 
L 2844 1694 
L 3413 1694 
L 3413 922 
L 2844 922 
L 2844 0 
L 1994 0 
z
M 1994 1694 
L 1994 3259 
L 941 1694 
L 1994 1694 
z
" transform="scale(0.015625)"/>
       </defs>
       <use xlink:href="#Arial-BoldMT-30"/>
       <use xlink:href="#Arial-BoldMT-2e" x="55.615234"/>
       <use xlink:href="#Arial-BoldMT-30" x="83.398438"/>
       <use xlink:href="#Arial-BoldMT-34" x="139.013672"/>
      </g>
     </g>
    </g>
    <g id="ytick_5">
     <g id="line2d_6">
      <g>
       <use xlink:href="#m0fd830cb79" x="73.1316" y="66.24" style="stroke: #000000; stroke-width: 4"/>
      </g>
     </g>
    </g>
    <g id="text_3">
     <!-- . -->
     <g style="fill: #ffffff" transform="translate(19.5687 171.9603) rotate(-90) scale(0.1728 -0.1728)">
      <defs>
       <path id="ArialMT-2e" d="M 581 0 
L 581 641 
L 1222 641 
L 1222 0 
L 581 0 
z
" transform="scale(0.015625)"/>
      </defs>
      <use xlink:href="#ArialMT-2e"/>
     </g>
    </g>
   </g>
   <g id="LineCollection_1">
    <path d="M 105.8676 165.773583 
L 105.8676 151.661049 
" clip-path="url(#pc6341d09a5)" style="fill: none; stroke: #76bb4b; stroke-opacity: 0.8; stroke-width: 5"/>
    <path d="M 154.9716 176.179241 
L 154.9716 166.988965 
" clip-path="url(#pc6341d09a5)" style="fill: none; stroke: #76bb4b; stroke-opacity: 0.8; stroke-width: 5"/>
    <path d="M 204.0756 159.483595 
L 204.0756 146.344467 
" clip-path="url(#pc6341d09a5)" style="fill: none; stroke: #76bb4b; stroke-opacity: 0.8; stroke-width: 5"/>
   </g>
   <g id="line2d_7">
    <defs>
     <path id="m51e8fbd8f0" d="M 8 0 
L -8 -0 
" style="stroke: #76bb4b; stroke-opacity: 0.8; stroke-width: 4"/>
    </defs>
    <g clip-path="url(#pc6341d09a5)">
     <use xlink:href="#m51e8fbd8f0" x="105.8676" y="165.773583" style="fill: #76bb4b; fill-opacity: 0.8; stroke: #76bb4b; stroke-opacity: 0.8; stroke-width: 4"/>
     <use xlink:href="#m51e8fbd8f0" x="154.9716" y="176.179241" style="fill: #76bb4b; fill-opacity: 0.8; stroke: #76bb4b; stroke-opacity: 0.8; stroke-width: 4"/>
     <use xlink:href="#m51e8fbd8f0" x="204.0756" y="159.483595" style="fill: #76bb4b; fill-opacity: 0.8; stroke: #76bb4b; stroke-opacity: 0.8; stroke-width: 4"/>
    </g>
   </g>
   <g id="line2d_8">
    <g clip-path="url(#pc6341d09a5)">
     <use xlink:href="#m51e8fbd8f0" x="105.8676" y="151.661049" style="fill: #76bb4b; fill-opacity: 0.8; stroke: #76bb4b; stroke-opacity: 0.8; stroke-width: 4"/>
     <use xlink:href="#m51e8fbd8f0" x="154.9716" y="166.988965" style="fill: #76bb4b; fill-opacity: 0.8; stroke: #76bb4b; stroke-opacity: 0.8; stroke-width: 4"/>
     <use xlink:href="#m51e8fbd8f0" x="204.0756" y="146.344467" style="fill: #76bb4b; fill-opacity: 0.8; stroke: #76bb4b; stroke-opacity: 0.8; stroke-width: 4"/>
    </g>
   </g>
   <g id="line2d_9">
    <path d="M 105.8676 158.717316 
L 154.9716 171.584103 
L 204.0756 152.914031 
" clip-path="url(#pc6341d09a5)" style="fill: none; stroke: #76bb4b; stroke-opacity: 0.8; stroke-width: 5; stroke-linecap: square"/>
    <defs>
     <path id="m943dfbf364" d="M 0 5 
C 1.326016 5 2.597899 4.473168 3.535534 3.535534 
C 4.473168 2.597899 5 1.326016 5 0 
C 5 -1.326016 4.473168 -2.597899 3.535534 -3.535534 
C 2.597899 -4.473168 1.326016 -5 0 -5 
C -1.326016 -5 -2.597899 -4.473168 -3.535534 -3.535534 
C -4.473168 -2.597899 -5 -1.326016 -5 0 
C -5 1.326016 -4.473168 2.597899 -3.535534 3.535534 
C -2.597899 4.473168 -1.326016 5 0 5 
z
" style="stroke: #76bb4b; stroke-opacity: 0.8; stroke-width: 4"/>
    </defs>
    <g clip-path="url(#pc6341d09a5)">
     <use xlink:href="#m943dfbf364" x="105.8676" y="158.717316" style="fill: #76bb4b; fill-opacity: 0.8; stroke: #76bb4b; stroke-opacity: 0.8; stroke-width: 4"/>
     <use xlink:href="#m943dfbf364" x="154.9716" y="171.584103" style="fill: #76bb4b; fill-opacity: 0.8; stroke: #76bb4b; stroke-opacity: 0.8; stroke-width: 4"/>
     <use xlink:href="#m943dfbf364" x="204.0756" y="152.914031" style="fill: #76bb4b; fill-opacity: 0.8; stroke: #76bb4b; stroke-opacity: 0.8; stroke-width: 4"/>
    </g>
   </g>
   <g id="patch_3">
    <path d="M 73.1316 272.88 
L 73.1316 66.24 
" style="fill: none; stroke: #000000; stroke-width: 4; stroke-linejoin: miter; stroke-linecap: square"/>
   </g>
   <g id="text_4">
    <!-- L2/3 Pyr -->
    <g transform="translate(121.3539 60.24) scale(0.1728 -0.1728)">
     <defs>
      <path id="Arial-BoldMT-4c" d="M 491 0 
L 491 4544 
L 1416 4544 
L 1416 772 
L 3716 772 
L 3716 0 
L 491 0 
z
" transform="scale(0.015625)"/>
      <path id="Arial-BoldMT-32" d="M 3238 816 
L 3238 0 
L 159 0 
Q 209 463 459 877 
Q 709 1291 1447 1975 
Q 2041 2528 2175 2725 
Q 2356 2997 2356 3263 
Q 2356 3556 2198 3714 
Q 2041 3872 1763 3872 
Q 1488 3872 1325 3706 
Q 1163 3541 1138 3156 
L 263 3244 
Q 341 3969 753 4284 
Q 1166 4600 1784 4600 
Q 2463 4600 2850 4234 
Q 3238 3869 3238 3325 
Q 3238 3016 3127 2736 
Q 3016 2456 2775 2150 
Q 2616 1947 2200 1565 
Q 1784 1184 1673 1059 
Q 1563 934 1494 816 
L 3238 816 
z
" transform="scale(0.015625)"/>
      <path id="Arial-BoldMT-2f" d="M -9 -78 
L 1125 4659 
L 1784 4659 
L 638 -78 
L -9 -78 
z
" transform="scale(0.015625)"/>
      <path id="Arial-BoldMT-33" d="M 241 1216 
L 1091 1319 
Q 1131 994 1309 822 
Q 1488 650 1741 650 
Q 2013 650 2198 856 
Q 2384 1063 2384 1413 
Q 2384 1744 2206 1937 
Q 2028 2131 1772 2131 
Q 1603 2131 1369 2066 
L 1466 2781 
Q 1822 2772 2009 2936 
Q 2197 3100 2197 3372 
Q 2197 3603 2059 3740 
Q 1922 3878 1694 3878 
Q 1469 3878 1309 3722 
Q 1150 3566 1116 3266 
L 306 3403 
Q 391 3819 561 4067 
Q 731 4316 1036 4458 
Q 1341 4600 1719 4600 
Q 2366 4600 2756 4188 
Q 3078 3850 3078 3425 
Q 3078 2822 2419 2463 
Q 2813 2378 3048 2084 
Q 3284 1791 3284 1375 
Q 3284 772 2843 347 
Q 2403 -78 1747 -78 
Q 1125 -78 715 280 
Q 306 638 241 1216 
z
" transform="scale(0.015625)"/>
      <path id="Arial-BoldMT-20" transform="scale(0.015625)"/>
      <path id="Arial-BoldMT-50" d="M 466 0 
L 466 4581 
L 1950 4581 
Q 2794 4581 3050 4513 
Q 3444 4409 3709 4064 
Q 3975 3719 3975 3172 
Q 3975 2750 3822 2462 
Q 3669 2175 3433 2011 
Q 3197 1847 2953 1794 
Q 2622 1728 1994 1728 
L 1391 1728 
L 1391 0 
L 466 0 
z
M 1391 3806 
L 1391 2506 
L 1897 2506 
Q 2444 2506 2628 2578 
Q 2813 2650 2917 2803 
Q 3022 2956 3022 3159 
Q 3022 3409 2875 3571 
Q 2728 3734 2503 3775 
Q 2338 3806 1838 3806 
L 1391 3806 
z
" transform="scale(0.015625)"/>
      <path id="Arial-BoldMT-79" d="M 44 3319 
L 978 3319 
L 1772 963 
L 2547 3319 
L 3456 3319 
L 2284 125 
L 2075 -453 
Q 1959 -744 1854 -897 
Q 1750 -1050 1614 -1145 
Q 1478 -1241 1279 -1294 
Q 1081 -1347 831 -1347 
Q 578 -1347 334 -1294 
L 256 -606 
Q 463 -647 628 -647 
Q 934 -647 1081 -467 
Q 1228 -288 1306 -9 
L 44 3319 
z
" transform="scale(0.015625)"/>
      <path id="Arial-BoldMT-72" d="M 1300 0 
L 422 0 
L 422 3319 
L 1238 3319 
L 1238 2847 
Q 1447 3181 1614 3287 
Q 1781 3394 1994 3394 
Q 2294 3394 2572 3228 
L 2300 2463 
Q 2078 2606 1888 2606 
Q 1703 2606 1575 2504 
Q 1447 2403 1373 2137 
Q 1300 1872 1300 1025 
L 1300 0 
z
" transform="scale(0.015625)"/>
     </defs>
     <use xlink:href="#Arial-BoldMT-4c"/>
     <use xlink:href="#Arial-BoldMT-32" x="61.083984"/>
     <use xlink:href="#Arial-BoldMT-2f" x="116.699219"/>
     <use xlink:href="#Arial-BoldMT-33" x="144.482422"/>
     <use xlink:href="#Arial-BoldMT-20" x="200.097656"/>
     <use xlink:href="#Arial-BoldMT-50" x="227.880859"/>
     <use xlink:href="#Arial-BoldMT-79" x="294.580078"/>
     <use xlink:href="#Arial-BoldMT-72" x="350.195312"/>
    </g>
   </g>
  </g>
  <g id="axes_2">
   <g id="patch_4">
    <path d="M 277.7316 272.88 
L 441.4116 272.88 
L 441.4116 66.24 
L 277.7316 66.24 
z
" style="fill: #ffffff"/>
   </g>
   <g id="line2d_10">
    <path d="M 277.7316 221.22 
L 441.4116 221.22 
" clip-path="url(#pb60117ed05)" style="fill: none; stroke-dasharray: 12,6; stroke-dashoffset: 0; stroke: #000000; stroke-opacity: 0.5; stroke-width: 3"/>
   </g>
   <g id="matplotlib.axis_3">
    <g id="xtick_4"/>
    <g id="xtick_5"/>
    <g id="xtick_6"/>
   </g>
   <g id="matplotlib.axis_4">
    <g id="ytick_6">
     <g id="line2d_11">
      <g>
       <use xlink:href="#m0fd830cb79" x="277.7316" y="272.88" style="stroke: #000000; stroke-width: 4"/>
      </g>
     </g>
    </g>
    <g id="ytick_7">
     <g id="line2d_12">
      <g>
       <use xlink:href="#m0fd830cb79" x="277.7316" y="221.22" style="stroke: #000000; stroke-width: 4"/>
      </g>
     </g>
    </g>
    <g id="ytick_8">
     <g id="line2d_13">
      <g>
       <use xlink:href="#m0fd830cb79" x="277.7316" y="169.56" style="stroke: #000000; stroke-width: 4"/>
      </g>
     </g>
    </g>
    <g id="ytick_9">
     <g id="line2d_14">
      <g>
       <use xlink:href="#m0fd830cb79" x="277.7316" y="117.9" style="stroke: #000000; stroke-width: 4"/>
      </g>
     </g>
    </g>
    <g id="ytick_10">
     <g id="line2d_15">
      <g>
       <use xlink:href="#m0fd830cb79" x="277.7316" y="66.24" style="stroke: #000000; stroke-width: 4"/>
      </g>
     </g>
    </g>
   </g>
   <g id="LineCollection_2">
    <path d="M 310.4676 168.367515 
L 310.4676 157.750169 
" clip-path="url(#pb60117ed05)" style="fill: none; stroke: #488a21; stroke-opacity: 0.8; stroke-width: 5"/>
    <path d="M 359.5716 136.403268 
L 359.5716 114.430559 
" clip-path="url(#pb60117ed05)" style="fill: none; stroke: #488a21; stroke-opacity: 0.8; stroke-width: 5"/>
    <path d="M 408.6756 136.404057 
L 408.6756 118.850356 
" clip-path="url(#pb60117ed05)" style="fill: none; stroke: #488a21; stroke-opacity: 0.8; stroke-width: 5"/>
   </g>
   <g id="line2d_16">
    <defs>
     <path id="m12f45c47e6" d="M 8 0 
L -8 -0 
" style="stroke: #488a21; stroke-opacity: 0.8; stroke-width: 4"/>
    </defs>
    <g clip-path="url(#pb60117ed05)">
     <use xlink:href="#m12f45c47e6" x="310.4676" y="168.367515" style="fill: #488a21; fill-opacity: 0.8; stroke: #488a21; stroke-opacity: 0.8; stroke-width: 4"/>
     <use xlink:href="#m12f45c47e6" x="359.5716" y="136.403268" style="fill: #488a21; fill-opacity: 0.8; stroke: #488a21; stroke-opacity: 0.8; stroke-width: 4"/>
     <use xlink:href="#m12f45c47e6" x="408.6756" y="136.404057" style="fill: #488a21; fill-opacity: 0.8; stroke: #488a21; stroke-opacity: 0.8; stroke-width: 4"/>
    </g>
   </g>
   <g id="line2d_17">
    <g clip-path="url(#pb60117ed05)">
     <use xlink:href="#m12f45c47e6" x="310.4676" y="157.750169" style="fill: #488a21; fill-opacity: 0.8; stroke: #488a21; stroke-opacity: 0.8; stroke-width: 4"/>
     <use xlink:href="#m12f45c47e6" x="359.5716" y="114.430559" style="fill: #488a21; fill-opacity: 0.8; stroke: #488a21; stroke-opacity: 0.8; stroke-width: 4"/>
     <use xlink:href="#m12f45c47e6" x="408.6756" y="118.850356" style="fill: #488a21; fill-opacity: 0.8; stroke: #488a21; stroke-opacity: 0.8; stroke-width: 4"/>
    </g>
   </g>
   <g id="line2d_18">
    <path d="M 310.4676 81.178997 
L 408.6756 81.178997 
" clip-path="url(#pb60117ed05)" style="fill: none; stroke: #488a21; stroke-width: 3; stroke-linecap: square"/>
   </g>
   <g id="line2d_19">
    <path d="M 310.4676 163.058842 
L 359.5716 125.416913 
L 408.6756 127.627207 
" clip-path="url(#pb60117ed05)" style="fill: none; stroke-dasharray: 15,10; stroke-dashoffset: 0; stroke: #488a21; stroke-opacity: 0.8; stroke-width: 5"/>
    <defs>
     <path id="mee06dc054b" d="M 0 5 
C 1.326016 5 2.597899 4.473168 3.535534 3.535534 
C 4.473168 2.597899 5 1.326016 5 0 
C 5 -1.326016 4.473168 -2.597899 3.535534 -3.535534 
C 2.597899 -4.473168 1.326016 -5 0 -5 
C -1.326016 -5 -2.597899 -4.473168 -3.535534 -3.535534 
C -4.473168 -2.597899 -5 -1.326016 -5 0 
C -5 1.326016 -4.473168 2.597899 -3.535534 3.535534 
C -2.597899 4.473168 -1.326016 5 0 5 
z
" style="stroke: #488a21; stroke-opacity: 0.8; stroke-width: 4"/>
    </defs>
    <g clip-path="url(#pb60117ed05)">
     <use xlink:href="#mee06dc054b" x="310.4676" y="163.058842" style="fill: #488a21; fill-opacity: 0.8; stroke: #488a21; stroke-opacity: 0.8; stroke-width: 4"/>
     <use xlink:href="#mee06dc054b" x="359.5716" y="125.416913" style="fill: #488a21; fill-opacity: 0.8; stroke: #488a21; stroke-opacity: 0.8; stroke-width: 4"/>
     <use xlink:href="#mee06dc054b" x="408.6756" y="127.627207" style="fill: #488a21; fill-opacity: 0.8; stroke: #488a21; stroke-opacity: 0.8; stroke-width: 4"/>
    </g>
   </g>
   <g id="patch_5">
    <path d="M 277.7316 272.88 
L 277.7316 66.24 
" style="fill: none; stroke: #000000; stroke-width: 4; stroke-linejoin: miter; stroke-linecap: square"/>
   </g>
   <g id="text_5">
    <!-- ** -->
    <g style="fill: #488a21" transform="translate(351.787225 85.589901) scale(0.2 -0.2)">
     <defs>
      <path id="Arial-BoldMT-2a" d="M 766 2475 
L 294 2841 
Q 519 3094 763 3325 
Q 859 3419 884 3444 
Q 806 3456 438 3547 
Q 172 3613 88 3644 
L 272 4194 
Q 681 4028 1003 3828 
Q 928 4338 928 4659 
L 1484 4659 
Q 1484 4431 1400 3822 
Q 1463 3847 1669 3944 
Q 1950 4072 2188 4163 
L 2353 3597 
Q 2006 3519 1550 3444 
L 1925 3022 
Q 2038 2894 2103 2813 
L 1625 2497 
L 1203 3194 
Q 1013 2856 766 2475 
z
" transform="scale(0.015625)"/>
     </defs>
     <use xlink:href="#Arial-BoldMT-2a"/>
     <use xlink:href="#Arial-BoldMT-2a" x="38.916016"/>
    </g>
   </g>
   <g id="text_6">
    <!-- L5 Pyr -->
    <g transform="translate(333.15885 60.24) scale(0.1728 -0.1728)">
     <defs>
      <path id="Arial-BoldMT-35" d="M 284 1178 
L 1159 1269 
Q 1197 972 1381 798 
Q 1566 625 1806 625 
Q 2081 625 2272 848 
Q 2463 1072 2463 1522 
Q 2463 1944 2273 2155 
Q 2084 2366 1781 2366 
Q 1403 2366 1103 2031 
L 391 2134 
L 841 4519 
L 3163 4519 
L 3163 3697 
L 1506 3697 
L 1369 2919 
Q 1663 3066 1969 3066 
Q 2553 3066 2959 2641 
Q 3366 2216 3366 1538 
Q 3366 972 3038 528 
Q 2591 -78 1797 -78 
Q 1163 -78 763 262 
Q 363 603 284 1178 
z
" transform="scale(0.015625)"/>
     </defs>
     <use xlink:href="#Arial-BoldMT-4c"/>
     <use xlink:href="#Arial-BoldMT-35" x="61.083984"/>
     <use xlink:href="#Arial-BoldMT-20" x="116.699219"/>
     <use xlink:href="#Arial-BoldMT-50" x="144.482422"/>
     <use xlink:href="#Arial-BoldMT-79" x="211.181641"/>
     <use xlink:href="#Arial-BoldMT-72" x="266.796875"/>
    </g>
   </g>
  </g>
  <g id="axes_3">
   <g id="patch_6">
    <path d="M 73.1316 520.848 
L 236.8116 520.848 
L 236.8116 314.208 
L 73.1316 314.208 
z
" style="fill: #ffffff"/>
   </g>
   <g id="line2d_20">
    <path d="M 73.1316 486.408 
L 236.8116 486.408 
" clip-path="url(#pfb51d513e9)" style="fill: none; stroke-dasharray: 12,6; stroke-dashoffset: 0; stroke: #000000; stroke-opacity: 0.5; stroke-width: 3"/>
   </g>
   <g id="matplotlib.axis_5">
    <g id="xtick_7">
     <g id="line2d_21">
      <defs>
       <path id="m4725d40d80" d="M 0 0 
L 0 8 
" style="stroke: #000000; stroke-width: 4"/>
      </defs>
      <g>
       <use xlink:href="#m4725d40d80" x="105.8676" y="520.848" style="stroke: #000000; stroke-width: 4"/>
      </g>
     </g>
     <g id="text_7">
      <!-- 1 -->
      <g transform="translate(101.06295 544.7167) scale(0.1728 -0.1728)">
       <defs>
        <path id="Arial-BoldMT-31" d="M 2519 0 
L 1641 0 
L 1641 3309 
Q 1159 2859 506 2644 
L 506 3441 
Q 850 3553 1253 3867 
Q 1656 4181 1806 4600 
L 2519 4600 
L 2519 0 
z
" transform="scale(0.015625)"/>
       </defs>
       <use xlink:href="#Arial-BoldMT-31"/>
      </g>
     </g>
    </g>
    <g id="xtick_8">
     <g id="line2d_22">
      <g>
       <use xlink:href="#m4725d40d80" x="154.9716" y="520.848" style="stroke: #000000; stroke-width: 4"/>
      </g>
     </g>
     <g id="text_8">
      <!-- 2 -->
      <g transform="translate(150.16695 544.7167) scale(0.1728 -0.1728)">
       <use xlink:href="#Arial-BoldMT-32"/>
      </g>
     </g>
    </g>
    <g id="xtick_9">
     <g id="line2d_23">
      <g>
       <use xlink:href="#m4725d40d80" x="204.0756" y="520.848" style="stroke: #000000; stroke-width: 4"/>
      </g>
     </g>
     <g id="text_9">
      <!-- 3 -->
      <g transform="translate(199.27095 544.7167) scale(0.1728 -0.1728)">
       <use xlink:href="#Arial-BoldMT-33"/>
      </g>
     </g>
    </g>
   </g>
   <g id="matplotlib.axis_6">
    <g id="ytick_11">
     <g id="line2d_24">
      <g>
       <use xlink:href="#m0fd830cb79" x="73.1316" y="520.848" style="stroke: #000000; stroke-width: 4"/>
      </g>
     </g>
     <g id="text_10">
      <!-- -0.05 -->
      <g transform="translate(22.2494 527.03235) scale(0.1728 -0.1728)">
       <defs>
        <path id="Arial-BoldMT-2d" d="M 359 1222 
L 359 2100 
L 2084 2100 
L 2084 1222 
L 359 1222 
z
" transform="scale(0.015625)"/>
       </defs>
       <use xlink:href="#Arial-BoldMT-2d"/>
       <use xlink:href="#Arial-BoldMT-30" x="33.300781"/>
       <use xlink:href="#Arial-BoldMT-2e" x="88.916016"/>
       <use xlink:href="#Arial-BoldMT-30" x="116.699219"/>
       <use xlink:href="#Arial-BoldMT-35" x="172.314453"/>
      </g>
     </g>
    </g>
    <g id="ytick_12">
     <g id="line2d_25">
      <g>
       <use xlink:href="#m0fd830cb79" x="73.1316" y="486.408" style="stroke: #000000; stroke-width: 4"/>
      </g>
     </g>
    </g>
    <g id="ytick_13">
     <g id="line2d_26">
      <g>
       <use xlink:href="#m0fd830cb79" x="73.1316" y="451.968" style="stroke: #000000; stroke-width: 4"/>
      </g>
     </g>
     <g id="text_11">
      <!-- 0.05 -->
      <g transform="translate(28.0031 458.15235) scale(0.1728 -0.1728)">
       <use xlink:href="#Arial-BoldMT-30"/>
       <use xlink:href="#Arial-BoldMT-2e" x="55.615234"/>
       <use xlink:href="#Arial-BoldMT-30" x="83.398438"/>
       <use xlink:href="#Arial-BoldMT-35" x="139.013672"/>
      </g>
     </g>
    </g>
    <g id="ytick_14">
     <g id="line2d_27">
      <g>
       <use xlink:href="#m0fd830cb79" x="73.1316" y="417.528" style="stroke: #000000; stroke-width: 4"/>
      </g>
     </g>
    </g>
    <g id="ytick_15">
     <g id="line2d_28">
      <g>
       <use xlink:href="#m0fd830cb79" x="73.1316" y="383.088" style="stroke: #000000; stroke-width: 4"/>
      </g>
     </g>
     <g id="text_12">
      <!-- 0.15 -->
      <g transform="translate(28.0031 389.27235) scale(0.1728 -0.1728)">
       <use xlink:href="#Arial-BoldMT-30"/>
       <use xlink:href="#Arial-BoldMT-2e" x="55.615234"/>
       <use xlink:href="#Arial-BoldMT-31" x="83.398438"/>
       <use xlink:href="#Arial-BoldMT-35" x="139.013672"/>
      </g>
     </g>
    </g>
    <g id="ytick_16">
     <g id="line2d_29">
      <g>
       <use xlink:href="#m0fd830cb79" x="73.1316" y="348.648" style="stroke: #000000; stroke-width: 4"/>
      </g>
     </g>
    </g>
    <g id="ytick_17">
     <g id="line2d_30">
      <g>
       <use xlink:href="#m0fd830cb79" x="73.1316" y="314.208" style="stroke: #000000; stroke-width: 4"/>
      </g>
     </g>
     <g id="text_13">
      <!-- 0.25 -->
      <g transform="translate(28.0031 320.39235) scale(0.1728 -0.1728)">
       <use xlink:href="#Arial-BoldMT-30"/>
       <use xlink:href="#Arial-BoldMT-2e" x="55.615234"/>
       <use xlink:href="#Arial-BoldMT-32" x="83.398438"/>
       <use xlink:href="#Arial-BoldMT-35" x="139.013672"/>
      </g>
     </g>
    </g>
   </g>
   <g id="LineCollection_3">
    <path d="M 105.8676 452.958126 
L 105.8676 444.118621 
" clip-path="url(#pfb51d513e9)" style="fill: none; stroke: #50a2d5; stroke-opacity: 0.8; stroke-width: 5"/>
    <path d="M 154.9716 458.858736 
L 154.9716 454.239614 
" clip-path="url(#pfb51d513e9)" style="fill: none; stroke: #50a2d5; stroke-opacity: 0.8; stroke-width: 5"/>
    <path d="M 204.0756 473.646433 
L 204.0756 471.184525 
" clip-path="url(#pfb51d513e9)" style="fill: none; stroke: #50a2d5; stroke-opacity: 0.8; stroke-width: 5"/>
   </g>
   <g id="line2d_31">
    <defs>
     <path id="m661507a7fa" d="M 8 0 
L -8 -0 
" style="stroke: #50a2d5; stroke-opacity: 0.8; stroke-width: 4"/>
    </defs>
    <g clip-path="url(#pfb51d513e9)">
     <use xlink:href="#m661507a7fa" x="105.8676" y="452.958126" style="fill: #50a2d5; fill-opacity: 0.8; stroke: #50a2d5; stroke-opacity: 0.8; stroke-width: 4"/>
     <use xlink:href="#m661507a7fa" x="154.9716" y="458.858736" style="fill: #50a2d5; fill-opacity: 0.8; stroke: #50a2d5; stroke-opacity: 0.8; stroke-width: 4"/>
     <use xlink:href="#m661507a7fa" x="204.0756" y="473.646433" style="fill: #50a2d5; fill-opacity: 0.8; stroke: #50a2d5; stroke-opacity: 0.8; stroke-width: 4"/>
    </g>
   </g>
   <g id="line2d_32">
    <g clip-path="url(#pfb51d513e9)">
     <use xlink:href="#m661507a7fa" x="105.8676" y="444.118621" style="fill: #50a2d5; fill-opacity: 0.8; stroke: #50a2d5; stroke-opacity: 0.8; stroke-width: 4"/>
     <use xlink:href="#m661507a7fa" x="154.9716" y="454.239614" style="fill: #50a2d5; fill-opacity: 0.8; stroke: #50a2d5; stroke-opacity: 0.8; stroke-width: 4"/>
     <use xlink:href="#m661507a7fa" x="204.0756" y="471.184525" style="fill: #50a2d5; fill-opacity: 0.8; stroke: #50a2d5; stroke-opacity: 0.8; stroke-width: 4"/>
    </g>
   </g>
   <g id="line2d_33">
    <path d="M 105.8676 411.21137 
L 204.0756 411.21137 
" clip-path="url(#pfb51d513e9)" style="fill: none; stroke: #50a2d5; stroke-width: 3; stroke-linecap: square"/>
   </g>
   <g id="line2d_34">
    <path d="M 154.9716 393.707514 
L 204.0756 393.707514 
" clip-path="url(#pfb51d513e9)" style="fill: none; stroke: #50a2d5; stroke-width: 3; stroke-linecap: square"/>
   </g>
   <g id="line2d_35">
    <path d="M 105.8676 448.538373 
L 154.9716 456.549175 
L 204.0756 472.415479 
" clip-path="url(#pfb51d513e9)" style="fill: none; stroke: #50a2d5; stroke-opacity: 0.8; stroke-width: 5; stroke-linecap: square"/>
    <defs>
     <path id="m66ff517122" d="M 0 5 
C 1.326016 5 2.597899 4.473168 3.535534 3.535534 
C 4.473168 2.597899 5 1.326016 5 0 
C 5 -1.326016 4.473168 -2.597899 3.535534 -3.535534 
C 2.597899 -4.473168 1.326016 -5 0 -5 
C -1.326016 -5 -2.597899 -4.473168 -3.535534 -3.535534 
C -4.473168 -2.597899 -5 -1.326016 -5 0 
C -5 1.326016 -4.473168 2.597899 -3.535534 3.535534 
C -2.597899 4.473168 -1.326016 5 0 5 
z
" style="stroke: #50a2d5; stroke-opacity: 0.8; stroke-width: 4"/>
    </defs>
    <g clip-path="url(#pfb51d513e9)">
     <use xlink:href="#m66ff517122" x="105.8676" y="448.538373" style="fill: #50a2d5; fill-opacity: 0.8; stroke: #50a2d5; stroke-opacity: 0.8; stroke-width: 4"/>
     <use xlink:href="#m66ff517122" x="154.9716" y="456.549175" style="fill: #50a2d5; fill-opacity: 0.8; stroke: #50a2d5; stroke-opacity: 0.8; stroke-width: 4"/>
     <use xlink:href="#m66ff517122" x="204.0756" y="472.415479" style="fill: #50a2d5; fill-opacity: 0.8; stroke: #50a2d5; stroke-opacity: 0.8; stroke-width: 4"/>
    </g>
   </g>
   <g id="patch_7">
    <path d="M 73.1316 520.848 
L 73.1316 314.208 
" style="fill: none; stroke: #000000; stroke-width: 4; stroke-linejoin: miter; stroke-linecap: square"/>
   </g>
   <g id="patch_8">
    <path d="M 73.1316 520.848 
L 236.8116 520.848 
" style="fill: none; stroke: #000000; stroke-width: 4; stroke-linejoin: miter; stroke-linecap: square"/>
   </g>
   <g id="text_14">
    <!-- *** -->
    <g style="fill: #50a2d5" transform="translate(143.295038 415.724836) scale(0.2 -0.2)">
     <use xlink:href="#Arial-BoldMT-2a"/>
     <use xlink:href="#Arial-BoldMT-2a" x="38.916016"/>
     <use xlink:href="#Arial-BoldMT-2a" x="77.832031"/>
    </g>
   </g>
   <g id="text_15">
    <!-- *** -->
    <g style="fill: #50a2d5" transform="translate(167.847038 398.220979) scale(0.2 -0.2)">
     <use xlink:href="#Arial-BoldMT-2a"/>
     <use xlink:href="#Arial-BoldMT-2a" x="38.916016"/>
     <use xlink:href="#Arial-BoldMT-2a" x="77.832031"/>
    </g>
   </g>
  </g>
  <g id="axes_4">
   <g id="patch_9">
    <path d="M 277.7316 520.848 
L 441.4116 520.848 
L 441.4116 314.208 
L 277.7316 314.208 
z
" style="fill: #ffffff"/>
   </g>
   <g id="line2d_36">
    <path d="M 277.7316 486.408 
L 441.4116 486.408 
" clip-path="url(#pb8ac86d897)" style="fill: none; stroke-dasharray: 12,6; stroke-dashoffset: 0; stroke: #000000; stroke-opacity: 0.5; stroke-width: 3"/>
   </g>
   <g id="matplotlib.axis_7">
    <g id="xtick_10">
     <g id="line2d_37">
      <g>
       <use xlink:href="#m4725d40d80" x="310.4676" y="520.848" style="stroke: #000000; stroke-width: 4"/>
      </g>
     </g>
     <g id="text_16">
      <!-- 1 -->
      <g transform="translate(305.66295 544.7167) scale(0.1728 -0.1728)">
       <use xlink:href="#Arial-BoldMT-31"/>
      </g>
     </g>
    </g>
    <g id="xtick_11">
     <g id="line2d_38">
      <g>
       <use xlink:href="#m4725d40d80" x="359.5716" y="520.848" style="stroke: #000000; stroke-width: 4"/>
      </g>
     </g>
     <g id="text_17">
      <!-- 2 -->
      <g transform="translate(354.76695 544.7167) scale(0.1728 -0.1728)">
       <use xlink:href="#Arial-BoldMT-32"/>
      </g>
     </g>
    </g>
    <g id="xtick_12">
     <g id="line2d_39">
      <g>
       <use xlink:href="#m4725d40d80" x="408.6756" y="520.848" style="stroke: #000000; stroke-width: 4"/>
      </g>
     </g>
     <g id="text_18">
      <!-- 3 -->
      <g transform="translate(403.87095 544.7167) scale(0.1728 -0.1728)">
       <use xlink:href="#Arial-BoldMT-33"/>
      </g>
     </g>
    </g>
   </g>
   <g id="matplotlib.axis_8">
    <g id="ytick_18">
     <g id="line2d_40">
      <g>
       <use xlink:href="#m0fd830cb79" x="277.7316" y="520.848" style="stroke: #000000; stroke-width: 4"/>
      </g>
     </g>
    </g>
    <g id="ytick_19">
     <g id="line2d_41">
      <g>
       <use xlink:href="#m0fd830cb79" x="277.7316" y="486.408" style="stroke: #000000; stroke-width: 4"/>
      </g>
     </g>
    </g>
    <g id="ytick_20">
     <g id="line2d_42">
      <g>
       <use xlink:href="#m0fd830cb79" x="277.7316" y="451.968" style="stroke: #000000; stroke-width: 4"/>
      </g>
     </g>
    </g>
    <g id="ytick_21">
     <g id="line2d_43">
      <g>
       <use xlink:href="#m0fd830cb79" x="277.7316" y="417.528" style="stroke: #000000; stroke-width: 4"/>
      </g>
     </g>
    </g>
    <g id="ytick_22">
     <g id="line2d_44">
      <g>
       <use xlink:href="#m0fd830cb79" x="277.7316" y="383.088" style="stroke: #000000; stroke-width: 4"/>
      </g>
     </g>
    </g>
    <g id="ytick_23">
     <g id="line2d_45">
      <g>
       <use xlink:href="#m0fd830cb79" x="277.7316" y="348.648" style="stroke: #000000; stroke-width: 4"/>
      </g>
     </g>
    </g>
    <g id="ytick_24">
     <g id="line2d_46">
      <g>
       <use xlink:href="#m0fd830cb79" x="277.7316" y="314.208" style="stroke: #000000; stroke-width: 4"/>
      </g>
     </g>
    </g>
   </g>
   <g id="LineCollection_4">
    <path d="M 310.4676 425.560167 
L 310.4676 390.660409 
" clip-path="url(#pb8ac86d897)" style="fill: none; stroke: #22567a; stroke-opacity: 0.8; stroke-width: 5"/>
    <path d="M 359.5716 475.35472 
L 359.5716 471.326765 
" clip-path="url(#pb8ac86d897)" style="fill: none; stroke: #22567a; stroke-opacity: 0.8; stroke-width: 5"/>
    <path d="M 408.6756 468.616811 
L 408.6756 464.01771 
" clip-path="url(#pb8ac86d897)" style="fill: none; stroke: #22567a; stroke-opacity: 0.8; stroke-width: 5"/>
   </g>
   <g id="line2d_47">
    <defs>
     <path id="mca3fbe63fc" d="M 8 0 
L -8 -0 
" style="stroke: #22567a; stroke-opacity: 0.8; stroke-width: 4"/>
    </defs>
    <g clip-path="url(#pb8ac86d897)">
     <use xlink:href="#mca3fbe63fc" x="310.4676" y="425.560167" style="fill: #22567a; fill-opacity: 0.8; stroke: #22567a; stroke-opacity: 0.8; stroke-width: 4"/>
     <use xlink:href="#mca3fbe63fc" x="359.5716" y="475.35472" style="fill: #22567a; fill-opacity: 0.8; stroke: #22567a; stroke-opacity: 0.8; stroke-width: 4"/>
     <use xlink:href="#mca3fbe63fc" x="408.6756" y="468.616811" style="fill: #22567a; fill-opacity: 0.8; stroke: #22567a; stroke-opacity: 0.8; stroke-width: 4"/>
    </g>
   </g>
   <g id="line2d_48">
    <g clip-path="url(#pb8ac86d897)">
     <use xlink:href="#mca3fbe63fc" x="310.4676" y="390.660409" style="fill: #22567a; fill-opacity: 0.8; stroke: #22567a; stroke-opacity: 0.8; stroke-width: 4"/>
     <use xlink:href="#mca3fbe63fc" x="359.5716" y="471.326765" style="fill: #22567a; fill-opacity: 0.8; stroke: #22567a; stroke-opacity: 0.8; stroke-width: 4"/>
     <use xlink:href="#mca3fbe63fc" x="408.6756" y="464.01771" style="fill: #22567a; fill-opacity: 0.8; stroke: #22567a; stroke-opacity: 0.8; stroke-width: 4"/>
    </g>
   </g>
   <g id="line2d_49">
    <path d="M 310.4676 357.753158 
L 359.5716 357.753158 
" clip-path="url(#pb8ac86d897)" style="fill: none; stroke: #22567a; stroke-width: 3; stroke-linecap: square"/>
   </g>
   <g id="line2d_50">
    <path d="M 310.4676 340.249302 
L 408.6756 340.249302 
" clip-path="url(#pb8ac86d897)" style="fill: none; stroke: #22567a; stroke-width: 3; stroke-linecap: square"/>
   </g>
   <g id="line2d_51">
    <path d="M 310.4676 408.110288 
L 359.5716 473.340742 
L 408.6756 466.317261 
" clip-path="url(#pb8ac86d897)" style="fill: none; stroke-dasharray: 15,10; stroke-dashoffset: 0; stroke: #22567a; stroke-opacity: 0.8; stroke-width: 5"/>
    <defs>
     <path id="m3c91a7c210" d="M 0 5 
C 1.326016 5 2.597899 4.473168 3.535534 3.535534 
C 4.473168 2.597899 5 1.326016 5 0 
C 5 -1.326016 4.473168 -2.597899 3.535534 -3.535534 
C 2.597899 -4.473168 1.326016 -5 0 -5 
C -1.326016 -5 -2.597899 -4.473168 -3.535534 -3.535534 
C -4.473168 -2.597899 -5 -1.326016 -5 0 
C -5 1.326016 -4.473168 2.597899 -3.535534 3.535534 
C -2.597899 4.473168 -1.326016 5 0 5 
z
" style="stroke: #22567a; stroke-opacity: 0.8; stroke-width: 4"/>
    </defs>
    <g clip-path="url(#pb8ac86d897)">
     <use xlink:href="#m3c91a7c210" x="310.4676" y="408.110288" style="fill: #22567a; fill-opacity: 0.8; stroke: #22567a; stroke-opacity: 0.8; stroke-width: 4"/>
     <use xlink:href="#m3c91a7c210" x="359.5716" y="473.340742" style="fill: #22567a; fill-opacity: 0.8; stroke: #22567a; stroke-opacity: 0.8; stroke-width: 4"/>
     <use xlink:href="#m3c91a7c210" x="408.6756" y="466.317261" style="fill: #22567a; fill-opacity: 0.8; stroke: #22567a; stroke-opacity: 0.8; stroke-width: 4"/>
    </g>
   </g>
   <g id="patch_10">
    <path d="M 277.7316 520.848 
L 277.7316 314.208 
" style="fill: none; stroke: #000000; stroke-width: 4; stroke-linejoin: miter; stroke-linecap: square"/>
   </g>
   <g id="patch_11">
    <path d="M 277.7316 520.848 
L 441.4116 520.848 
" style="fill: none; stroke: #000000; stroke-width: 4; stroke-linejoin: miter; stroke-linecap: square"/>
   </g>
   <g id="text_19">
    <!-- *** -->
    <g style="fill: #22567a" transform="translate(323.343038 362.266624) scale(0.2 -0.2)">
     <use xlink:href="#Arial-BoldMT-2a"/>
     <use xlink:href="#Arial-BoldMT-2a" x="38.916016"/>
     <use xlink:href="#Arial-BoldMT-2a" x="77.832031"/>
    </g>
   </g>
   <g id="text_20">
    <!-- ** -->
    <g style="fill: #22567a" transform="translate(351.787225 344.762767) scale(0.2 -0.2)">
     <use xlink:href="#Arial-BoldMT-2a"/>
     <use xlink:href="#Arial-BoldMT-2a" x="38.916016"/>
    </g>
   </g>
  </g>
  <g id="text_21">
   <!-- Variances of tracked Gabor USIs -->
   <g transform="translate(117.83955 19.5687) scale(0.1728 -0.1728)">
    <defs>
     <path id="Arial-BoldMT-56" d="M 1634 0 
L -3 4581 
L 1000 4581 
L 2159 1191 
L 3281 4581 
L 4263 4581 
L 2622 0 
L 1634 0 
z
" transform="scale(0.015625)"/>
     <path id="Arial-BoldMT-61" d="M 1116 2306 
L 319 2450 
Q 453 2931 781 3162 
Q 1109 3394 1756 3394 
Q 2344 3394 2631 3255 
Q 2919 3116 3036 2902 
Q 3153 2688 3153 2116 
L 3144 1091 
Q 3144 653 3186 445 
Q 3228 238 3344 0 
L 2475 0 
Q 2441 88 2391 259 
Q 2369 338 2359 363 
Q 2134 144 1878 34 
Q 1622 -75 1331 -75 
Q 819 -75 523 203 
Q 228 481 228 906 
Q 228 1188 362 1408 
Q 497 1628 739 1745 
Q 981 1863 1438 1950 
Q 2053 2066 2291 2166 
L 2291 2253 
Q 2291 2506 2166 2614 
Q 2041 2722 1694 2722 
Q 1459 2722 1328 2630 
Q 1197 2538 1116 2306 
z
M 2291 1594 
Q 2122 1538 1756 1459 
Q 1391 1381 1278 1306 
Q 1106 1184 1106 997 
Q 1106 813 1243 678 
Q 1381 544 1594 544 
Q 1831 544 2047 700 
Q 2206 819 2256 991 
Q 2291 1103 2291 1419 
L 2291 1594 
z
" transform="scale(0.015625)"/>
     <path id="Arial-BoldMT-69" d="M 459 3769 
L 459 4581 
L 1338 4581 
L 1338 3769 
L 459 3769 
z
M 459 0 
L 459 3319 
L 1338 3319 
L 1338 0 
L 459 0 
z
" transform="scale(0.015625)"/>
     <path id="Arial-BoldMT-6e" d="M 3478 0 
L 2600 0 
L 2600 1694 
Q 2600 2231 2544 2389 
Q 2488 2547 2361 2634 
Q 2234 2722 2056 2722 
Q 1828 2722 1647 2597 
Q 1466 2472 1398 2265 
Q 1331 2059 1331 1503 
L 1331 0 
L 453 0 
L 453 3319 
L 1269 3319 
L 1269 2831 
Q 1703 3394 2363 3394 
Q 2653 3394 2893 3289 
Q 3134 3184 3257 3021 
Q 3381 2859 3429 2653 
Q 3478 2447 3478 2063 
L 3478 0 
z
" transform="scale(0.015625)"/>
     <path id="Arial-BoldMT-63" d="M 3353 2338 
L 2488 2181 
Q 2444 2441 2289 2572 
Q 2134 2703 1888 2703 
Q 1559 2703 1364 2476 
Q 1169 2250 1169 1719 
Q 1169 1128 1367 884 
Q 1566 641 1900 641 
Q 2150 641 2309 783 
Q 2469 925 2534 1272 
L 3397 1125 
Q 3263 531 2881 228 
Q 2500 -75 1859 -75 
Q 1131 -75 698 384 
Q 266 844 266 1656 
Q 266 2478 700 2936 
Q 1134 3394 1875 3394 
Q 2481 3394 2839 3133 
Q 3197 2872 3353 2338 
z
" transform="scale(0.015625)"/>
     <path id="Arial-BoldMT-65" d="M 2381 1056 
L 3256 909 
Q 3088 428 2723 176 
Q 2359 -75 1813 -75 
Q 947 -75 531 491 
Q 203 944 203 1634 
Q 203 2459 634 2926 
Q 1066 3394 1725 3394 
Q 2466 3394 2894 2905 
Q 3322 2416 3303 1406 
L 1103 1406 
Q 1113 1016 1316 798 
Q 1519 581 1822 581 
Q 2028 581 2168 693 
Q 2309 806 2381 1056 
z
M 2431 1944 
Q 2422 2325 2234 2523 
Q 2047 2722 1778 2722 
Q 1491 2722 1303 2513 
Q 1116 2303 1119 1944 
L 2431 1944 
z
" transform="scale(0.015625)"/>
     <path id="Arial-BoldMT-73" d="M 150 947 
L 1031 1081 
Q 1088 825 1259 692 
Q 1431 559 1741 559 
Q 2081 559 2253 684 
Q 2369 772 2369 919 
Q 2369 1019 2306 1084 
Q 2241 1147 2013 1200 
Q 950 1434 666 1628 
Q 272 1897 272 2375 
Q 272 2806 612 3100 
Q 953 3394 1669 3394 
Q 2350 3394 2681 3172 
Q 3013 2950 3138 2516 
L 2309 2363 
Q 2256 2556 2107 2659 
Q 1959 2763 1684 2763 
Q 1338 2763 1188 2666 
Q 1088 2597 1088 2488 
Q 1088 2394 1175 2328 
Q 1294 2241 1995 2081 
Q 2697 1922 2975 1691 
Q 3250 1456 3250 1038 
Q 3250 581 2869 253 
Q 2488 -75 1741 -75 
Q 1063 -75 667 200 
Q 272 475 150 947 
z
" transform="scale(0.015625)"/>
     <path id="Arial-BoldMT-6f" d="M 256 1706 
Q 256 2144 472 2553 
Q 688 2963 1083 3178 
Q 1478 3394 1966 3394 
Q 2719 3394 3200 2905 
Q 3681 2416 3681 1669 
Q 3681 916 3195 420 
Q 2709 -75 1972 -75 
Q 1516 -75 1102 131 
Q 688 338 472 736 
Q 256 1134 256 1706 
z
M 1156 1659 
Q 1156 1166 1390 903 
Q 1625 641 1969 641 
Q 2313 641 2545 903 
Q 2778 1166 2778 1666 
Q 2778 2153 2545 2415 
Q 2313 2678 1969 2678 
Q 1625 2678 1390 2415 
Q 1156 2153 1156 1659 
z
" transform="scale(0.015625)"/>
     <path id="Arial-BoldMT-66" d="M 75 3319 
L 563 3319 
L 563 3569 
Q 563 3988 652 4194 
Q 741 4400 980 4529 
Q 1219 4659 1584 4659 
Q 1959 4659 2319 4547 
L 2200 3934 
Q 1991 3984 1797 3984 
Q 1606 3984 1523 3895 
Q 1441 3806 1441 3553 
L 1441 3319 
L 2097 3319 
L 2097 2628 
L 1441 2628 
L 1441 0 
L 563 0 
L 563 2628 
L 75 2628 
L 75 3319 
z
" transform="scale(0.015625)"/>
     <path id="Arial-BoldMT-74" d="M 1981 3319 
L 1981 2619 
L 1381 2619 
L 1381 1281 
Q 1381 875 1398 808 
Q 1416 741 1477 697 
Q 1538 653 1625 653 
Q 1747 653 1978 738 
L 2053 56 
Q 1747 -75 1359 -75 
Q 1122 -75 931 4 
Q 741 84 652 211 
Q 563 338 528 553 
Q 500 706 500 1172 
L 500 2619 
L 97 2619 
L 97 3319 
L 500 3319 
L 500 3978 
L 1381 4491 
L 1381 3319 
L 1981 3319 
z
" transform="scale(0.015625)"/>
     <path id="Arial-BoldMT-6b" d="M 428 0 
L 428 4581 
L 1306 4581 
L 1306 2150 
L 2334 3319 
L 3416 3319 
L 2281 2106 
L 3497 0 
L 2550 0 
L 1716 1491 
L 1306 1063 
L 1306 0 
L 428 0 
z
" transform="scale(0.015625)"/>
     <path id="Arial-BoldMT-64" d="M 3503 0 
L 2688 0 
L 2688 488 
Q 2484 203 2207 64 
Q 1931 -75 1650 -75 
Q 1078 -75 670 386 
Q 263 847 263 1672 
Q 263 2516 659 2955 
Q 1056 3394 1663 3394 
Q 2219 3394 2625 2931 
L 2625 4581 
L 3503 4581 
L 3503 0 
z
M 1159 1731 
Q 1159 1200 1306 963 
Q 1519 619 1900 619 
Q 2203 619 2415 876 
Q 2628 1134 2628 1647 
Q 2628 2219 2422 2470 
Q 2216 2722 1894 2722 
Q 1581 2722 1370 2473 
Q 1159 2225 1159 1731 
z
" transform="scale(0.015625)"/>
     <path id="Arial-BoldMT-47" d="M 2597 1684 
L 2597 2456 
L 4591 2456 
L 4591 631 
Q 4300 350 3748 136 
Q 3197 -78 2631 -78 
Q 1913 -78 1378 223 
Q 844 525 575 1086 
Q 306 1647 306 2306 
Q 306 3022 606 3578 
Q 906 4134 1484 4431 
Q 1925 4659 2581 4659 
Q 3434 4659 3914 4301 
Q 4394 3944 4531 3313 
L 3613 3141 
Q 3516 3478 3248 3673 
Q 2981 3869 2581 3869 
Q 1975 3869 1617 3484 
Q 1259 3100 1259 2344 
Q 1259 1528 1621 1120 
Q 1984 713 2572 713 
Q 2863 713 3155 827 
Q 3447 941 3656 1103 
L 3656 1684 
L 2597 1684 
z
" transform="scale(0.015625)"/>
     <path id="Arial-BoldMT-62" d="M 422 0 
L 422 4581 
L 1300 4581 
L 1300 2931 
Q 1706 3394 2263 3394 
Q 2869 3394 3266 2955 
Q 3663 2516 3663 1694 
Q 3663 844 3258 384 
Q 2853 -75 2275 -75 
Q 1991 -75 1714 67 
Q 1438 209 1238 488 
L 1238 0 
L 422 0 
z
M 1294 1731 
Q 1294 1216 1456 969 
Q 1684 619 2063 619 
Q 2353 619 2558 867 
Q 2763 1116 2763 1650 
Q 2763 2219 2556 2470 
Q 2350 2722 2028 2722 
Q 1713 2722 1503 2476 
Q 1294 2231 1294 1731 
z
" transform="scale(0.015625)"/>
     <path id="Arial-BoldMT-55" d="M 459 4581 
L 1384 4581 
L 1384 2100 
Q 1384 1509 1419 1334 
Q 1478 1053 1701 883 
Q 1925 713 2313 713 
Q 2706 713 2906 873 
Q 3106 1034 3147 1268 
Q 3188 1503 3188 2047 
L 3188 4581 
L 4113 4581 
L 4113 2175 
Q 4113 1350 4038 1009 
Q 3963 669 3761 434 
Q 3559 200 3221 61 
Q 2884 -78 2341 -78 
Q 1684 -78 1345 73 
Q 1006 225 809 467 
Q 613 709 550 975 
Q 459 1369 459 2138 
L 459 4581 
z
" transform="scale(0.015625)"/>
     <path id="Arial-BoldMT-53" d="M 231 1491 
L 1131 1578 
Q 1213 1125 1461 912 
Q 1709 700 2131 700 
Q 2578 700 2804 889 
Q 3031 1078 3031 1331 
Q 3031 1494 2936 1608 
Q 2841 1722 2603 1806 
Q 2441 1863 1863 2006 
Q 1119 2191 819 2459 
Q 397 2838 397 3381 
Q 397 3731 595 4036 
Q 794 4341 1167 4500 
Q 1541 4659 2069 4659 
Q 2931 4659 3367 4281 
Q 3803 3903 3825 3272 
L 2900 3231 
Q 2841 3584 2645 3739 
Q 2450 3894 2059 3894 
Q 1656 3894 1428 3728 
Q 1281 3622 1281 3444 
Q 1281 3281 1419 3166 
Q 1594 3019 2269 2859 
Q 2944 2700 3267 2529 
Q 3591 2359 3773 2064 
Q 3956 1769 3956 1334 
Q 3956 941 3737 597 
Q 3519 253 3119 86 
Q 2719 -81 2122 -81 
Q 1253 -81 787 320 
Q 322 722 231 1491 
z
" transform="scale(0.015625)"/>
     <path id="Arial-BoldMT-49" d="M 438 0 
L 438 4581 
L 1363 4581 
L 1363 0 
L 438 0 
z
" transform="scale(0.015625)"/>
    </defs>
    <use xlink:href="#Arial-BoldMT-56"/>
    <use xlink:href="#Arial-BoldMT-61" x="61.199219"/>
    <use xlink:href="#Arial-BoldMT-72" x="116.814453"/>
    <use xlink:href="#Arial-BoldMT-69" x="155.730469"/>
    <use xlink:href="#Arial-BoldMT-61" x="183.513672"/>
    <use xlink:href="#Arial-BoldMT-6e" x="239.128906"/>
    <use xlink:href="#Arial-BoldMT-63" x="300.212891"/>
    <use xlink:href="#Arial-BoldMT-65" x="355.828125"/>
    <use xlink:href="#Arial-BoldMT-73" x="411.443359"/>
    <use xlink:href="#Arial-BoldMT-20" x="467.058594"/>
    <use xlink:href="#Arial-BoldMT-6f" x="494.841797"/>
    <use xlink:href="#Arial-BoldMT-66" x="555.925781"/>
    <use xlink:href="#Arial-BoldMT-20" x="589.226562"/>
    <use xlink:href="#Arial-BoldMT-74" x="617.009766"/>
    <use xlink:href="#Arial-BoldMT-72" x="650.310547"/>
    <use xlink:href="#Arial-BoldMT-61" x="689.226562"/>
    <use xlink:href="#Arial-BoldMT-63" x="744.841797"/>
    <use xlink:href="#Arial-BoldMT-6b" x="800.457031"/>
    <use xlink:href="#Arial-BoldMT-65" x="856.072266"/>
    <use xlink:href="#Arial-BoldMT-64" x="911.6875"/>
    <use xlink:href="#Arial-BoldMT-20" x="972.771484"/>
    <use xlink:href="#Arial-BoldMT-47" x="1000.554688"/>
    <use xlink:href="#Arial-BoldMT-61" x="1078.337891"/>
    <use xlink:href="#Arial-BoldMT-62" x="1133.953125"/>
    <use xlink:href="#Arial-BoldMT-6f" x="1195.037109"/>
    <use xlink:href="#Arial-BoldMT-72" x="1256.121094"/>
    <use xlink:href="#Arial-BoldMT-20" x="1295.037109"/>
    <use xlink:href="#Arial-BoldMT-55" x="1322.820312"/>
    <use xlink:href="#Arial-BoldMT-53" x="1395.037109"/>
    <use xlink:href="#Arial-BoldMT-49" x="1461.736328"/>
    <use xlink:href="#Arial-BoldMT-73" x="1489.519531"/>
   </g>
  </g>
  <g id="text_22">
   <!-- dendrites -->
   <g transform="translate(468.0363 208.4454) rotate(-90) scale(0.1728 -0.1728)">
    <use xlink:href="#Arial-BoldMT-64"/>
    <use xlink:href="#Arial-BoldMT-65" x="61.083984"/>
    <use xlink:href="#Arial-BoldMT-6e" x="116.699219"/>
    <use xlink:href="#Arial-BoldMT-64" x="177.783203"/>
    <use xlink:href="#Arial-BoldMT-72" x="238.867188"/>
    <use xlink:href="#Arial-BoldMT-69" x="277.783203"/>
    <use xlink:href="#Arial-BoldMT-74" x="305.566406"/>
    <use xlink:href="#Arial-BoldMT-65" x="338.867188"/>
    <use xlink:href="#Arial-BoldMT-73" x="394.482422"/>
   </g>
  </g>
  <g id="text_23">
   <!-- somata -->
   <g transform="translate(468.0363 447.7788) rotate(-90) scale(0.1728 -0.1728)">
    <defs>
     <path id="Arial-BoldMT-6d" d="M 394 3319 
L 1203 3319 
L 1203 2866 
Q 1638 3394 2238 3394 
Q 2556 3394 2790 3262 
Q 3025 3131 3175 2866 
Q 3394 3131 3647 3262 
Q 3900 3394 4188 3394 
Q 4553 3394 4806 3245 
Q 5059 3097 5184 2809 
Q 5275 2597 5275 2122 
L 5275 0 
L 4397 0 
L 4397 1897 
Q 4397 2391 4306 2534 
Q 4184 2722 3931 2722 
Q 3747 2722 3584 2609 
Q 3422 2497 3350 2280 
Q 3278 2063 3278 1594 
L 3278 0 
L 2400 0 
L 2400 1819 
Q 2400 2303 2353 2443 
Q 2306 2584 2207 2653 
Q 2109 2722 1941 2722 
Q 1738 2722 1575 2612 
Q 1413 2503 1342 2297 
Q 1272 2091 1272 1613 
L 1272 0 
L 394 0 
L 394 3319 
z
" transform="scale(0.015625)"/>
    </defs>
    <use xlink:href="#Arial-BoldMT-73"/>
    <use xlink:href="#Arial-BoldMT-6f" x="55.615234"/>
    <use xlink:href="#Arial-BoldMT-6d" x="116.699219"/>
    <use xlink:href="#Arial-BoldMT-61" x="205.615234"/>
    <use xlink:href="#Arial-BoldMT-74" x="261.230469"/>
    <use xlink:href="#Arial-BoldMT-61" x="294.53125"/>
   </g>
  </g>
  <g id="text_24">
   <!-- Session -->
   <g transform="translate(218.1999 568.08) scale(0.1728 -0.1728)">
    <use xlink:href="#Arial-BoldMT-53"/>
    <use xlink:href="#Arial-BoldMT-65" x="66.699219"/>
    <use xlink:href="#Arial-BoldMT-73" x="122.314453"/>
    <use xlink:href="#Arial-BoldMT-73" x="177.929688"/>
    <use xlink:href="#Arial-BoldMT-69" x="233.544922"/>
    <use xlink:href="#Arial-BoldMT-6f" x="261.328125"/>
    <use xlink:href="#Arial-BoldMT-6e" x="322.412109"/>
   </g>
  </g>
 </g>
 <defs>
  <clipPath id="pc6341d09a5">
   <rect x="73.1316" y="66.24" width="163.68" height="206.64"/>
  </clipPath>
  <clipPath id="pb60117ed05">
   <rect x="277.7316" y="66.24" width="163.68" height="206.64"/>
  </clipPath>
  <clipPath id="pfb51d513e9">
   <rect x="73.1316" y="314.208" width="163.68" height="206.64"/>
  </clipPath>
  <clipPath id="pb8ac86d897">
   <rect x="277.7316" y="314.208" width="163.68" height="206.64"/>
  </clipPath>
 </defs>
</svg>
