<?xml version="1.0" encoding="utf-8" standalone="no"?>
<!DOCTYPE svg PUBLIC "-//W3C//DTD SVG 1.1//EN"
  "http://www.w3.org/Graphics/SVG/1.1/DTD/svg11.dtd">
<!-- Created with matplotlib (https://matplotlib.org/) -->
<svg height="604.647409pt" version="1.1" viewBox="0 0 441.84 604.647409" width="441.84pt" xmlns="http://www.w3.org/2000/svg" xmlns:xlink="http://www.w3.org/1999/xlink">
 <metadata>
  <rdf:RDF xmlns:cc="http://creativecommons.org/ns#" xmlns:dc="http://purl.org/dc/elements/1.1/" xmlns:rdf="http://www.w3.org/1999/02/22-rdf-syntax-ns#">
   <cc:Work>
    <dc:type rdf:resource="http://purl.org/dc/dcmitype/StillImage"/>
    <dc:date>2022-01-26T18:59:09.738389</dc:date>
    <dc:format>image/svg+xml</dc:format>
    <dc:creator>
     <cc:Agent>
      <dc:title>Matplotlib v3.3.4, https://matplotlib.org/</dc:title>
     </cc:Agent>
    </dc:creator>
   </cc:Work>
  </rdf:RDF>
 </metadata>
 <defs>
  <style type="text/css">*{stroke-linecap:butt;stroke-linejoin:round;}</style>
 </defs>
 <g id="figure_1">
  <g id="patch_1">
   <path d="M 0 604.647409 
L 441.84 604.647409 
L 441.84 0 
L 0 0 
z
" style="fill:#ffffff;"/>
  </g>
  <g id="axes_1">
   <g id="patch_2">
    <path d="M 64.2 279.36 
L 166.095652 279.36 
L 166.095652 67.68 
L 64.2 67.68 
z
" style="fill:#ffffff;"/>
   </g>
   <g id="patch_3">
    <path clip-path="url(#p0f63de4033)" d="M 76.936957 279.36 
L 102.41087 279.36 
L 102.41087 120.790925 
L 76.936957 120.790925 
z
" style="fill:#76bb4b;fill-opacity:0.5;stroke:#76bb4b;stroke-linejoin:miter;stroke-width:5;"/>
   </g>
   <g id="patch_4">
    <path clip-path="url(#p0f63de4033)" d="M 127.884783 279.36 
L 153.358696 279.36 
L 153.358696 194.229301 
L 127.884783 194.229301 
z
" style="fill:#76bb4b;fill-opacity:0.5;stroke:#76bb4b;stroke-linejoin:miter;stroke-width:5;"/>
   </g>
   <g id="matplotlib.axis_1">
    <g id="xtick_1"/>
    <g id="xtick_2"/>
   </g>
   <g id="matplotlib.axis_2">
    <g id="ytick_1">
     <g id="line2d_1">
      <defs>
       <path d="M 0 0 
L -8 0 
" id="m14dd77024f" style="stroke:#000000;stroke-width:4;"/>
      </defs>
      <g>
       <use style="stroke:#000000;stroke-width:4;" x="64.2" xlink:href="#m14dd77024f" y="279.36"/>
      </g>
     </g>
     <g id="text_1">
      <!-- 0 -->
      <g transform="translate(43.0907 285.54435)scale(0.1728 -0.1728)">
       <defs>
        <path d="M 27.4375 71.875 
Q 37.84375 71.875 43.703125 64.453125 
Q 50.6875 55.671875 50.6875 35.296875 
Q 50.6875 14.984375 43.65625 6.109375 
Q 37.84375 -1.21875 27.4375 -1.21875 
Q 17 -1.21875 10.59375 6.8125 
Q 4.203125 14.84375 4.203125 35.453125 
Q 4.203125 55.671875 11.234375 64.546875 
Q 17.046875 71.875 27.4375 71.875 
z
M 27.4375 60.5 
Q 24.953125 60.5 23 58.90625 
Q 21.046875 57.328125 19.96875 53.21875 
Q 18.5625 47.90625 18.5625 35.296875 
Q 18.5625 22.703125 19.828125 17.984375 
Q 21.09375 13.28125 23.015625 11.71875 
Q 24.953125 10.15625 27.4375 10.15625 
Q 29.9375 10.15625 31.890625 11.734375 
Q 33.84375 13.328125 34.90625 17.4375 
Q 36.328125 22.703125 36.328125 35.296875 
Q 36.328125 47.90625 35.0625 52.609375 
Q 33.796875 57.328125 31.859375 58.90625 
Q 29.9375 60.5 27.4375 60.5 
z
" id="Arial-BoldMT-48"/>
       </defs>
       <use xlink:href="#Arial-BoldMT-48"/>
      </g>
     </g>
    </g>
    <g id="ytick_2">
     <g id="line2d_2">
      <g>
       <use style="stroke:#000000;stroke-width:4;" x="64.2" xlink:href="#m14dd77024f" y="237.024"/>
      </g>
     </g>
    </g>
    <g id="ytick_3">
     <g id="line2d_3">
      <g>
       <use style="stroke:#000000;stroke-width:4;" x="64.2" xlink:href="#m14dd77024f" y="194.688"/>
      </g>
     </g>
     <g id="text_2">
      <!-- 0.2 -->
      <g transform="translate(28.6808 200.87235)scale(0.1728 -0.1728)">
       <defs>
        <path d="M 7.171875 0 
L 7.171875 13.71875 
L 20.90625 13.71875 
L 20.90625 0 
z
" id="Arial-BoldMT-46"/>
        <path d="M 50.59375 12.75 
L 50.59375 0 
L 2.484375 0 
Q 3.265625 7.234375 7.171875 13.703125 
Q 11.078125 20.171875 22.609375 30.859375 
Q 31.890625 39.5 33.984375 42.578125 
Q 36.8125 46.828125 36.8125 50.984375 
Q 36.8125 55.5625 34.34375 58.03125 
Q 31.890625 60.5 27.546875 60.5 
Q 23.25 60.5 20.703125 57.90625 
Q 18.171875 55.328125 17.78125 49.3125 
L 4.109375 50.6875 
Q 5.328125 62.015625 11.765625 66.9375 
Q 18.21875 71.875 27.875 71.875 
Q 38.484375 71.875 44.53125 66.15625 
Q 50.59375 60.453125 50.59375 51.953125 
Q 50.59375 47.125 48.859375 42.75 
Q 47.125 38.375 43.359375 33.59375 
Q 40.875 30.421875 34.375 24.453125 
Q 27.875 18.5 26.140625 16.546875 
Q 24.421875 14.59375 23.34375 12.75 
z
" id="Arial-BoldMT-50"/>
       </defs>
       <use xlink:href="#Arial-BoldMT-48"/>
       <use x="55.615234" xlink:href="#Arial-BoldMT-46"/>
       <use x="83.398438" xlink:href="#Arial-BoldMT-50"/>
      </g>
     </g>
    </g>
    <g id="ytick_4">
     <g id="line2d_4">
      <g>
       <use style="stroke:#000000;stroke-width:4;" x="64.2" xlink:href="#m14dd77024f" y="152.352"/>
      </g>
     </g>
    </g>
    <g id="ytick_5">
     <g id="line2d_5">
      <g>
       <use style="stroke:#000000;stroke-width:4;" x="64.2" xlink:href="#m14dd77024f" y="110.016"/>
      </g>
     </g>
     <g id="text_3">
      <!-- 0.4 -->
      <g transform="translate(28.6808 116.20035)scale(0.1728 -0.1728)">
       <defs>
        <path d="M 31.15625 0 
L 31.15625 14.40625 
L 1.859375 14.40625 
L 1.859375 26.421875 
L 32.90625 71.875 
L 44.4375 71.875 
L 44.4375 26.46875 
L 53.328125 26.46875 
L 53.328125 14.40625 
L 44.4375 14.40625 
L 44.4375 0 
z
M 31.15625 26.46875 
L 31.15625 50.921875 
L 14.703125 26.46875 
z
" id="Arial-BoldMT-52"/>
       </defs>
       <use xlink:href="#Arial-BoldMT-48"/>
       <use x="55.615234" xlink:href="#Arial-BoldMT-46"/>
       <use x="83.398438" xlink:href="#Arial-BoldMT-52"/>
      </g>
     </g>
    </g>
    <g id="ytick_6">
     <g id="line2d_6">
      <g>
       <use style="stroke:#000000;stroke-width:4;" x="64.2" xlink:href="#m14dd77024f" y="67.68"/>
      </g>
     </g>
    </g>
    <g id="text_4">
     <!-- . -->
     <g style="fill:#ffffff;" transform="translate(20.2464 175.9203)rotate(-90)scale(0.1728 -0.1728)">
      <defs>
       <path d="M 9.078125 0 
L 9.078125 10.015625 
L 19.09375 10.015625 
L 19.09375 0 
z
" id="ArialMT-46"/>
      </defs>
      <use xlink:href="#ArialMT-46"/>
     </g>
    </g>
   </g>
   <g id="LineCollection_1">
    <path clip-path="url(#p0f63de4033)" d="M 89.673913 161.789083 
L 89.673913 79.792767 
" style="fill:none;stroke:#76bb4b;stroke-opacity:0.8;stroke-width:5;"/>
    <path clip-path="url(#p0f63de4033)" d="M 140.621739 224.189484 
L 140.621739 164.269119 
" style="fill:none;stroke:#76bb4b;stroke-opacity:0.8;stroke-width:5;"/>
   </g>
   <g id="line2d_7">
    <defs>
     <path d="M 8 0 
L -8 -0 
" id="m04f1afc11c" style="stroke:#76bb4b;stroke-opacity:0.8;stroke-width:4;"/>
    </defs>
    <g clip-path="url(#p0f63de4033)">
     <use style="fill:#76bb4b;fill-opacity:0.8;stroke:#76bb4b;stroke-opacity:0.8;stroke-width:4;" x="89.673913" xlink:href="#m04f1afc11c" y="161.789083"/>
     <use style="fill:#76bb4b;fill-opacity:0.8;stroke:#76bb4b;stroke-opacity:0.8;stroke-width:4;" x="140.621739" xlink:href="#m04f1afc11c" y="224.189484"/>
    </g>
   </g>
   <g id="line2d_8">
    <g clip-path="url(#p0f63de4033)">
     <use style="fill:#76bb4b;fill-opacity:0.8;stroke:#76bb4b;stroke-opacity:0.8;stroke-width:4;" x="89.673913" xlink:href="#m04f1afc11c" y="79.792767"/>
     <use style="fill:#76bb4b;fill-opacity:0.8;stroke:#76bb4b;stroke-opacity:0.8;stroke-width:4;" x="140.621739" xlink:href="#m04f1afc11c" y="164.269119"/>
    </g>
   </g>
   <g id="patch_5">
    <path d="M 64.2 279.36 
L 64.2 67.68 
" style="fill:none;stroke:#000000;stroke-linecap:square;stroke-linejoin:miter;stroke-width:4;"/>
   </g>
   <g id="text_5">
    <!-- L2/3 Pyr -->
    <g transform="translate(81.530126 61.68)scale(0.1728 -0.1728)">
     <defs>
      <path d="M 7.671875 0 
L 7.671875 71 
L 22.125 71 
L 22.125 12.0625 
L 58.0625 12.0625 
L 58.0625 0 
z
" id="Arial-BoldMT-76"/>
      <path d="M -0.140625 -1.21875 
L 17.578125 72.796875 
L 27.875 72.796875 
L 9.96875 -1.21875 
z
" id="Arial-BoldMT-47"/>
      <path d="M 3.765625 19 
L 17.046875 20.609375 
Q 17.671875 15.53125 20.453125 12.84375 
Q 23.25 10.15625 27.203125 10.15625 
Q 31.453125 10.15625 34.34375 13.375 
Q 37.25 16.609375 37.25 22.078125 
Q 37.25 27.25 34.46875 30.265625 
Q 31.6875 33.296875 27.6875 33.296875 
Q 25.046875 33.296875 21.390625 32.28125 
L 22.90625 43.453125 
Q 28.46875 43.3125 31.390625 45.875 
Q 34.328125 48.4375 34.328125 52.6875 
Q 34.328125 56.296875 32.171875 58.4375 
Q 30.03125 60.59375 26.46875 60.59375 
Q 22.953125 60.59375 20.453125 58.15625 
Q 17.96875 55.71875 17.4375 51.03125 
L 4.78125 53.171875 
Q 6.109375 59.671875 8.765625 63.546875 
Q 11.421875 67.4375 16.1875 69.65625 
Q 20.953125 71.875 26.859375 71.875 
Q 36.96875 71.875 43.0625 65.4375 
Q 48.09375 60.15625 48.09375 53.515625 
Q 48.09375 44.09375 37.796875 38.484375 
Q 43.953125 37.15625 47.625 32.5625 
Q 51.3125 27.984375 51.3125 21.484375 
Q 51.3125 12.0625 44.421875 5.421875 
Q 37.546875 -1.21875 27.296875 -1.21875 
Q 17.578125 -1.21875 11.171875 4.375 
Q 4.78125 9.96875 3.765625 19 
z
" id="Arial-BoldMT-51"/>
      <path id="Arial-BoldMT-32"/>
      <path d="M 7.28125 0 
L 7.28125 71.578125 
L 30.46875 71.578125 
Q 43.65625 71.578125 47.65625 70.515625 
Q 53.8125 68.890625 57.953125 63.5 
Q 62.109375 58.109375 62.109375 49.5625 
Q 62.109375 42.96875 59.71875 38.46875 
Q 57.328125 33.984375 53.640625 31.421875 
Q 49.953125 28.859375 46.140625 28.03125 
Q 40.96875 27 31.15625 27 
L 21.734375 27 
L 21.734375 0 
z
M 21.734375 59.46875 
L 21.734375 39.15625 
L 29.640625 39.15625 
Q 38.1875 39.15625 41.0625 40.28125 
Q 43.953125 41.40625 45.578125 43.796875 
Q 47.21875 46.1875 47.21875 49.359375 
Q 47.21875 53.265625 44.921875 55.796875 
Q 42.625 58.34375 39.109375 58.984375 
Q 36.53125 59.46875 28.71875 59.46875 
z
" id="Arial-BoldMT-80"/>
      <path d="M 0.6875 51.859375 
L 15.28125 51.859375 
L 27.6875 15.046875 
L 39.796875 51.859375 
L 54 51.859375 
L 35.6875 1.953125 
L 32.421875 -7.078125 
Q 30.609375 -11.625 28.96875 -14.015625 
Q 27.34375 -16.40625 25.21875 -17.890625 
Q 23.09375 -19.390625 19.984375 -20.21875 
Q 16.890625 -21.046875 12.984375 -21.046875 
Q 9.03125 -21.046875 5.21875 -20.21875 
L 4 -9.46875 
Q 7.234375 -10.109375 9.8125 -10.109375 
Q 14.59375 -10.109375 16.890625 -7.296875 
Q 19.1875 -4.5 20.40625 -0.140625 
z
" id="Arial-BoldMT-121"/>
      <path d="M 20.3125 0 
L 6.59375 0 
L 6.59375 51.859375 
L 19.34375 51.859375 
L 19.34375 44.484375 
Q 22.609375 49.703125 25.21875 51.359375 
Q 27.828125 53.03125 31.15625 53.03125 
Q 35.84375 53.03125 40.1875 50.4375 
L 35.9375 38.484375 
Q 32.46875 40.71875 29.5 40.71875 
Q 26.609375 40.71875 24.609375 39.125 
Q 22.609375 37.546875 21.453125 33.390625 
Q 20.3125 29.25 20.3125 16.015625 
z
" id="Arial-BoldMT-114"/>
     </defs>
     <use xlink:href="#Arial-BoldMT-76"/>
     <use x="61.083984" xlink:href="#Arial-BoldMT-50"/>
     <use x="116.699219" xlink:href="#Arial-BoldMT-47"/>
     <use x="144.482422" xlink:href="#Arial-BoldMT-51"/>
     <use x="200.097656" xlink:href="#Arial-BoldMT-32"/>
     <use x="227.880859" xlink:href="#Arial-BoldMT-80"/>
     <use x="294.580078" xlink:href="#Arial-BoldMT-121"/>
     <use x="350.195312" xlink:href="#Arial-BoldMT-114"/>
    </g>
   </g>
  </g>
  <g id="axes_2">
   <g id="patch_6">
    <path d="M 196.664348 279.36 
L 298.56 279.36 
L 298.56 67.68 
L 196.664348 67.68 
z
" style="fill:#ffffff;"/>
   </g>
   <g id="patch_7">
    <path clip-path="url(#pc5e35264cd)" d="M 209.401304 279.36 
L 234.875217 279.36 
L 234.875217 156.685821 
L 209.401304 156.685821 
z
" style="fill:#488a21;fill-opacity:0.5;stroke:#488a21;stroke-dasharray:15,10;stroke-dashoffset:0;stroke-linejoin:miter;stroke-width:5;"/>
   </g>
   <g id="patch_8">
    <path clip-path="url(#pc5e35264cd)" d="M 260.34913 279.36 
L 285.823043 279.36 
L 285.823043 264.253321 
L 260.34913 264.253321 
z
" style="fill:#488a21;fill-opacity:0.5;stroke:#488a21;stroke-dasharray:15,10;stroke-dashoffset:0;stroke-linejoin:miter;stroke-width:5;"/>
   </g>
   <g id="matplotlib.axis_3">
    <g id="xtick_3"/>
    <g id="xtick_4"/>
   </g>
   <g id="matplotlib.axis_4">
    <g id="ytick_7">
     <g id="line2d_9">
      <g>
       <use style="stroke:#000000;stroke-width:4;" x="196.664348" xlink:href="#m14dd77024f" y="279.36"/>
      </g>
     </g>
    </g>
    <g id="ytick_8">
     <g id="line2d_10">
      <g>
       <use style="stroke:#000000;stroke-width:4;" x="196.664348" xlink:href="#m14dd77024f" y="237.024"/>
      </g>
     </g>
    </g>
    <g id="ytick_9">
     <g id="line2d_11">
      <g>
       <use style="stroke:#000000;stroke-width:4;" x="196.664348" xlink:href="#m14dd77024f" y="194.688"/>
      </g>
     </g>
    </g>
    <g id="ytick_10">
     <g id="line2d_12">
      <g>
       <use style="stroke:#000000;stroke-width:4;" x="196.664348" xlink:href="#m14dd77024f" y="152.352"/>
      </g>
     </g>
    </g>
    <g id="ytick_11">
     <g id="line2d_13">
      <g>
       <use style="stroke:#000000;stroke-width:4;" x="196.664348" xlink:href="#m14dd77024f" y="110.016"/>
      </g>
     </g>
    </g>
    <g id="ytick_12">
     <g id="line2d_14">
      <g>
       <use style="stroke:#000000;stroke-width:4;" x="196.664348" xlink:href="#m14dd77024f" y="67.68"/>
      </g>
     </g>
    </g>
   </g>
   <g id="LineCollection_2">
    <path clip-path="url(#pc5e35264cd)" d="M 222.138261 184.675631 
L 222.138261 128.696011 
" style="fill:none;stroke:#488a21;stroke-opacity:0.8;stroke-width:5;"/>
    <path clip-path="url(#pc5e35264cd)" d="M 273.086087 279.297441 
L 273.086087 249.2092 
" style="fill:none;stroke:#488a21;stroke-opacity:0.8;stroke-width:5;"/>
   </g>
   <g id="line2d_15">
    <defs>
     <path d="M 8 0 
L -8 -0 
" id="m03d104b972" style="stroke:#488a21;stroke-opacity:0.8;stroke-width:4;"/>
    </defs>
    <g clip-path="url(#pc5e35264cd)">
     <use style="fill:#488a21;fill-opacity:0.8;stroke:#488a21;stroke-opacity:0.8;stroke-width:4;" x="222.138261" xlink:href="#m03d104b972" y="184.675631"/>
     <use style="fill:#488a21;fill-opacity:0.8;stroke:#488a21;stroke-opacity:0.8;stroke-width:4;" x="273.086087" xlink:href="#m03d104b972" y="279.297441"/>
    </g>
   </g>
   <g id="line2d_16">
    <g clip-path="url(#pc5e35264cd)">
     <use style="fill:#488a21;fill-opacity:0.8;stroke:#488a21;stroke-opacity:0.8;stroke-width:4;" x="222.138261" xlink:href="#m03d104b972" y="128.696011"/>
     <use style="fill:#488a21;fill-opacity:0.8;stroke:#488a21;stroke-opacity:0.8;stroke-width:4;" x="273.086087" xlink:href="#m03d104b972" y="249.2092"/>
    </g>
   </g>
   <g id="line2d_17">
    <path clip-path="url(#pc5e35264cd)" d="M 222.138261 105.645996 
L 273.086087 105.645996 
" style="fill:none;stroke:#488a21;stroke-linecap:square;stroke-width:3;"/>
   </g>
   <g id="patch_9">
    <path d="M 196.664348 279.36 
L 196.664348 67.68 
" style="fill:none;stroke:#000000;stroke-linecap:square;stroke-linejoin:miter;stroke-width:4;"/>
   </g>
   <g id="text_6">
    <!-- ** -->
    <g style="fill:#488a21;" transform="translate(239.541334 105.820244)scale(0.20736 -0.20736)">
     <defs>
      <path d="M 11.96875 38.671875 
L 4.59375 44.390625 
Q 8.109375 48.34375 11.921875 51.953125 
Q 13.421875 53.421875 13.8125 53.8125 
Q 12.59375 54 6.84375 55.421875 
Q 2.6875 56.453125 1.375 56.9375 
L 4.25 65.53125 
Q 10.640625 62.9375 15.671875 59.8125 
Q 14.5 67.78125 14.5 72.796875 
L 23.1875 72.796875 
Q 23.1875 69.234375 21.875 59.71875 
Q 22.859375 60.109375 26.078125 61.625 
Q 30.46875 63.625 34.1875 65.046875 
L 36.765625 56.203125 
Q 31.34375 54.984375 24.21875 53.8125 
L 30.078125 47.21875 
Q 31.84375 45.21875 32.859375 43.953125 
L 25.390625 39.015625 
L 18.796875 49.90625 
Q 15.828125 44.625 11.96875 38.671875 
z
" id="Arial-BoldMT-42"/>
     </defs>
     <use xlink:href="#Arial-BoldMT-42"/>
     <use x="38.916016" xlink:href="#Arial-BoldMT-42"/>
    </g>
   </g>
   <g id="text_7">
    <!-- L5 Pyr -->
    <g transform="translate(221.199424 61.68)scale(0.1728 -0.1728)">
     <defs>
      <path d="M 4.4375 18.40625 
L 18.109375 19.828125 
Q 18.703125 15.1875 21.578125 12.46875 
Q 24.46875 9.765625 28.21875 9.765625 
Q 32.515625 9.765625 35.5 13.25 
Q 38.484375 16.75 38.484375 23.78125 
Q 38.484375 30.375 35.515625 33.671875 
Q 32.5625 36.96875 27.828125 36.96875 
Q 21.921875 36.96875 17.234375 31.734375 
L 6.109375 33.34375 
L 13.140625 70.609375 
L 49.421875 70.609375 
L 49.421875 57.765625 
L 23.53125 57.765625 
L 21.390625 45.609375 
Q 25.984375 47.90625 30.765625 47.90625 
Q 39.890625 47.90625 46.234375 41.265625 
Q 52.59375 34.625 52.59375 24.03125 
Q 52.59375 15.1875 47.46875 8.25 
Q 40.484375 -1.21875 28.078125 -1.21875 
Q 18.171875 -1.21875 11.921875 4.09375 
Q 5.671875 9.421875 4.4375 18.40625 
z
" id="Arial-BoldMT-53"/>
     </defs>
     <use xlink:href="#Arial-BoldMT-76"/>
     <use x="61.083984" xlink:href="#Arial-BoldMT-53"/>
     <use x="116.699219" xlink:href="#Arial-BoldMT-32"/>
     <use x="144.482422" xlink:href="#Arial-BoldMT-80"/>
     <use x="211.181641" xlink:href="#Arial-BoldMT-121"/>
     <use x="266.796875" xlink:href="#Arial-BoldMT-114"/>
    </g>
   </g>
  </g>
  <g id="axes_3">
   <g id="patch_10">
    <path d="M 64.2 533.376 
L 166.095652 533.376 
L 166.095652 321.696 
L 64.2 321.696 
z
" style="fill:#ffffff;"/>
   </g>
   <g id="patch_11">
    <path clip-path="url(#p09e9ad2e9e)" d="M 76.936957 533.376 
L 102.41087 533.376 
L 102.41087 383.601167 
L 76.936957 383.601167 
z
" style="fill:#50a2d5;fill-opacity:0.5;stroke:#50a2d5;stroke-linejoin:miter;stroke-width:5;"/>
   </g>
   <g id="patch_12">
    <path clip-path="url(#p09e9ad2e9e)" d="M 127.884783 533.376 
L 153.358696 533.376 
L 153.358696 411.592341 
L 127.884783 411.592341 
z
" style="fill:#50a2d5;fill-opacity:0.5;stroke:#50a2d5;stroke-linejoin:miter;stroke-width:5;"/>
   </g>
   <g id="matplotlib.axis_5">
    <g id="xtick_5">
     <g id="text_8">
      <!-- gabors -->
      <g transform="translate(46.367795 594.356433)rotate(-45)scale(0.1728 -0.1728)">
       <defs>
        <path d="M 5.90625 -3.421875 
L 21.578125 -5.328125 
Q 21.96875 -8.0625 23.390625 -9.078125 
Q 25.34375 -10.546875 29.546875 -10.546875 
Q 34.90625 -10.546875 37.59375 -8.9375 
Q 39.40625 -7.859375 40.328125 -5.46875 
Q 40.96875 -3.765625 40.96875 0.828125 
L 40.96875 8.40625 
Q 34.8125 0 25.4375 0 
Q 14.984375 0 8.890625 8.84375 
Q 4.109375 15.828125 4.109375 26.21875 
Q 4.109375 39.265625 10.375 46.140625 
Q 16.65625 53.03125 25.984375 53.03125 
Q 35.59375 53.03125 41.84375 44.578125 
L 41.84375 51.859375 
L 54.6875 51.859375 
L 54.6875 5.328125 
Q 54.6875 -3.859375 53.171875 -8.390625 
Q 51.65625 -12.9375 48.921875 -15.515625 
Q 46.1875 -18.109375 41.625 -19.578125 
Q 37.0625 -21.046875 30.078125 -21.046875 
Q 16.890625 -21.046875 11.375 -16.53125 
Q 5.859375 -12.015625 5.859375 -5.078125 
Q 5.859375 -4.390625 5.90625 -3.421875 
z
M 18.171875 27 
Q 18.171875 18.75 21.359375 14.90625 
Q 24.5625 11.078125 29.25 11.078125 
Q 34.28125 11.078125 37.75 15.015625 
Q 41.21875 18.953125 41.21875 26.65625 
Q 41.21875 34.71875 37.890625 38.625 
Q 34.578125 42.53125 29.5 42.53125 
Q 24.5625 42.53125 21.359375 38.6875 
Q 18.171875 34.859375 18.171875 27 
z
" id="Arial-BoldMT-103"/>
        <path d="M 17.4375 36.03125 
L 4.984375 38.28125 
Q 7.078125 45.796875 12.203125 49.40625 
Q 17.328125 53.03125 27.4375 53.03125 
Q 36.625 53.03125 41.109375 50.859375 
Q 45.609375 48.6875 47.4375 45.34375 
Q 49.265625 42 49.265625 33.0625 
L 49.125 17.046875 
Q 49.125 10.203125 49.78125 6.953125 
Q 50.4375 3.71875 52.25 0 
L 38.671875 0 
Q 38.140625 1.375 37.359375 4.046875 
Q 37.015625 5.28125 36.859375 5.671875 
Q 33.34375 2.25 29.34375 0.53125 
Q 25.34375 -1.171875 20.796875 -1.171875 
Q 12.796875 -1.171875 8.171875 3.171875 
Q 3.5625 7.515625 3.5625 14.15625 
Q 3.5625 18.5625 5.65625 22 
Q 7.765625 25.4375 11.546875 27.265625 
Q 15.328125 29.109375 22.46875 30.46875 
Q 32.078125 32.28125 35.796875 33.84375 
L 35.796875 35.203125 
Q 35.796875 39.15625 33.84375 40.84375 
Q 31.890625 42.53125 26.46875 42.53125 
Q 22.796875 42.53125 20.75 41.09375 
Q 18.703125 39.65625 17.4375 36.03125 
z
M 35.796875 24.90625 
Q 33.15625 24.03125 27.4375 22.796875 
Q 21.734375 21.578125 19.96875 20.40625 
Q 17.28125 18.5 17.28125 15.578125 
Q 17.28125 12.703125 19.421875 10.59375 
Q 21.578125 8.5 24.90625 8.5 
Q 28.609375 8.5 31.984375 10.9375 
Q 34.46875 12.796875 35.25 15.484375 
Q 35.796875 17.234375 35.796875 22.171875 
z
" id="Arial-BoldMT-97"/>
        <path d="M 6.59375 0 
L 6.59375 71.578125 
L 20.3125 71.578125 
L 20.3125 45.796875 
Q 26.65625 53.03125 35.359375 53.03125 
Q 44.828125 53.03125 51.03125 46.171875 
Q 57.234375 39.3125 57.234375 26.46875 
Q 57.234375 13.1875 50.90625 6 
Q 44.578125 -1.171875 35.546875 -1.171875 
Q 31.109375 -1.171875 26.78125 1.046875 
Q 22.46875 3.265625 19.34375 7.625 
L 19.34375 0 
z
M 20.21875 27.046875 
Q 20.21875 19 22.75 15.140625 
Q 26.3125 9.671875 32.234375 9.671875 
Q 36.765625 9.671875 39.96875 13.546875 
Q 43.171875 17.4375 43.171875 25.78125 
Q 43.171875 34.671875 39.9375 38.59375 
Q 36.71875 42.53125 31.6875 42.53125 
Q 26.765625 42.53125 23.484375 38.6875 
Q 20.21875 34.859375 20.21875 27.046875 
z
" id="Arial-BoldMT-98"/>
        <path d="M 4 26.65625 
Q 4 33.5 7.375 39.890625 
Q 10.75 46.296875 16.921875 49.65625 
Q 23.09375 53.03125 30.71875 53.03125 
Q 42.484375 53.03125 50 45.390625 
Q 57.515625 37.75 57.515625 26.078125 
Q 57.515625 14.3125 49.921875 6.5625 
Q 42.328125 -1.171875 30.8125 -1.171875 
Q 23.6875 -1.171875 17.21875 2.046875 
Q 10.75 5.28125 7.375 11.5 
Q 4 17.71875 4 26.65625 
z
M 18.0625 25.921875 
Q 18.0625 18.21875 21.71875 14.109375 
Q 25.390625 10.015625 30.765625 10.015625 
Q 36.140625 10.015625 39.765625 14.109375 
Q 43.40625 18.21875 43.40625 26.03125 
Q 43.40625 33.640625 39.765625 37.734375 
Q 36.140625 41.84375 30.765625 41.84375 
Q 25.390625 41.84375 21.71875 37.734375 
Q 18.0625 33.640625 18.0625 25.921875 
z
" id="Arial-BoldMT-111"/>
        <path d="M 2.34375 14.796875 
L 16.109375 16.890625 
Q 17 12.890625 19.671875 10.8125 
Q 22.359375 8.734375 27.203125 8.734375 
Q 32.515625 8.734375 35.203125 10.6875 
Q 37.015625 12.0625 37.015625 14.359375 
Q 37.015625 15.921875 36.03125 16.9375 
Q 35.015625 17.921875 31.453125 18.75 
Q 14.84375 22.40625 10.40625 25.4375 
Q 4.25 29.640625 4.25 37.109375 
Q 4.25 43.84375 9.5625 48.4375 
Q 14.890625 53.03125 26.078125 53.03125 
Q 36.71875 53.03125 41.890625 49.5625 
Q 47.078125 46.09375 49.03125 39.3125 
L 36.078125 36.921875 
Q 35.25 39.9375 32.921875 41.546875 
Q 30.609375 43.171875 26.3125 43.171875 
Q 20.90625 43.171875 18.5625 41.65625 
Q 17 40.578125 17 38.875 
Q 17 37.40625 18.359375 36.375 
Q 20.21875 35.015625 31.171875 32.515625 
Q 42.140625 30.03125 46.484375 26.421875 
Q 50.78125 22.75 50.78125 16.21875 
Q 50.78125 9.078125 44.828125 3.953125 
Q 38.875 -1.171875 27.203125 -1.171875 
Q 16.609375 -1.171875 10.421875 3.125 
Q 4.25 7.421875 2.34375 14.796875 
z
" id="Arial-BoldMT-115"/>
       </defs>
       <use xlink:href="#Arial-BoldMT-103"/>
       <use x="61.083984" xlink:href="#Arial-BoldMT-97"/>
       <use x="116.699219" xlink:href="#Arial-BoldMT-98"/>
       <use x="177.783203" xlink:href="#Arial-BoldMT-111"/>
       <use x="238.867188" xlink:href="#Arial-BoldMT-114"/>
       <use x="277.783203" xlink:href="#Arial-BoldMT-115"/>
      </g>
     </g>
    </g>
    <g id="xtick_6">
     <g id="text_9">
      <!-- visflow -->
      <g transform="translate(96.796321 595.036104)rotate(-45)scale(0.1728 -0.1728)">
       <defs>
        <path d="M 21.4375 0 
L 0.53125 51.859375 
L 14.9375 51.859375 
L 24.703125 25.390625 
L 27.546875 16.546875 
Q 28.65625 19.921875 28.953125 21 
Q 29.640625 23.1875 30.421875 25.390625 
L 40.28125 51.859375 
L 54.390625 51.859375 
L 33.796875 0 
z
" id="Arial-BoldMT-118"/>
        <path d="M 7.171875 58.890625 
L 7.171875 71.578125 
L 20.90625 71.578125 
L 20.90625 58.890625 
z
M 7.171875 0 
L 7.171875 51.859375 
L 20.90625 51.859375 
L 20.90625 0 
z
" id="Arial-BoldMT-105"/>
        <path d="M 1.171875 51.859375 
L 8.796875 51.859375 
L 8.796875 55.765625 
Q 8.796875 62.3125 10.1875 65.53125 
Q 11.578125 68.75 15.3125 70.765625 
Q 19.046875 72.796875 24.75 72.796875 
Q 30.609375 72.796875 36.234375 71.046875 
L 34.375 61.46875 
Q 31.109375 62.25 28.078125 62.25 
Q 25.09375 62.25 23.796875 60.859375 
Q 22.515625 59.46875 22.515625 55.515625 
L 22.515625 51.859375 
L 32.765625 51.859375 
L 32.765625 41.0625 
L 22.515625 41.0625 
L 22.515625 0 
L 8.796875 0 
L 8.796875 41.0625 
L 1.171875 41.0625 
z
" id="Arial-BoldMT-102"/>
        <path d="M 7.171875 0 
L 7.171875 71.578125 
L 20.90625 71.578125 
L 20.90625 0 
z
" id="Arial-BoldMT-108"/>
        <path d="M 16.84375 0 
L 0.4375 51.859375 
L 13.765625 51.859375 
L 23.484375 17.875 
L 32.421875 51.859375 
L 45.65625 51.859375 
L 54.296875 17.875 
L 64.203125 51.859375 
L 77.734375 51.859375 
L 61.078125 0 
L 47.90625 0 
L 38.96875 33.34375 
L 30.171875 0 
z
" id="Arial-BoldMT-119"/>
       </defs>
       <use xlink:href="#Arial-BoldMT-118"/>
       <use x="55.615234" xlink:href="#Arial-BoldMT-105"/>
       <use x="83.398438" xlink:href="#Arial-BoldMT-115"/>
       <use x="139.013672" xlink:href="#Arial-BoldMT-102"/>
       <use x="172.314453" xlink:href="#Arial-BoldMT-108"/>
       <use x="200.097656" xlink:href="#Arial-BoldMT-111"/>
       <use x="261.181641" xlink:href="#Arial-BoldMT-119"/>
      </g>
     </g>
    </g>
   </g>
   <g id="matplotlib.axis_6">
    <g id="ytick_13">
     <g id="line2d_18">
      <g>
       <use style="stroke:#000000;stroke-width:4;" x="64.2" xlink:href="#m14dd77024f" y="533.376"/>
      </g>
     </g>
     <g id="text_10">
      <!-- 0 -->
      <g transform="translate(43.0907 539.56035)scale(0.1728 -0.1728)">
       <use xlink:href="#Arial-BoldMT-48"/>
      </g>
     </g>
    </g>
    <g id="ytick_14">
     <g id="line2d_19">
      <g>
       <use style="stroke:#000000;stroke-width:4;" x="64.2" xlink:href="#m14dd77024f" y="491.04"/>
      </g>
     </g>
    </g>
    <g id="ytick_15">
     <g id="line2d_20">
      <g>
       <use style="stroke:#000000;stroke-width:4;" x="64.2" xlink:href="#m14dd77024f" y="448.704"/>
      </g>
     </g>
     <g id="text_11">
      <!-- 0.2 -->
      <g transform="translate(28.6808 454.88835)scale(0.1728 -0.1728)">
       <use xlink:href="#Arial-BoldMT-48"/>
       <use x="55.615234" xlink:href="#Arial-BoldMT-46"/>
       <use x="83.398438" xlink:href="#Arial-BoldMT-50"/>
      </g>
     </g>
    </g>
    <g id="ytick_16">
     <g id="line2d_21">
      <g>
       <use style="stroke:#000000;stroke-width:4;" x="64.2" xlink:href="#m14dd77024f" y="406.368"/>
      </g>
     </g>
    </g>
    <g id="ytick_17">
     <g id="line2d_22">
      <g>
       <use style="stroke:#000000;stroke-width:4;" x="64.2" xlink:href="#m14dd77024f" y="364.032"/>
      </g>
     </g>
     <g id="text_12">
      <!-- 0.4 -->
      <g transform="translate(28.6808 370.21635)scale(0.1728 -0.1728)">
       <use xlink:href="#Arial-BoldMT-48"/>
       <use x="55.615234" xlink:href="#Arial-BoldMT-46"/>
       <use x="83.398438" xlink:href="#Arial-BoldMT-52"/>
      </g>
     </g>
    </g>
    <g id="ytick_18">
     <g id="line2d_23">
      <g>
       <use style="stroke:#000000;stroke-width:4;" x="64.2" xlink:href="#m14dd77024f" y="321.696"/>
      </g>
     </g>
    </g>
   </g>
   <g id="LineCollection_3">
    <path clip-path="url(#p09e9ad2e9e)" d="M 89.673913 403.982826 
L 89.673913 363.219508 
" style="fill:none;stroke:#50a2d5;stroke-opacity:0.8;stroke-width:5;"/>
    <path clip-path="url(#p09e9ad2e9e)" d="M 140.621739 442.168511 
L 140.621739 381.016172 
" style="fill:none;stroke:#50a2d5;stroke-opacity:0.8;stroke-width:5;"/>
   </g>
   <g id="line2d_24">
    <defs>
     <path d="M 8 0 
L -8 -0 
" id="m0d47584737" style="stroke:#50a2d5;stroke-opacity:0.8;stroke-width:4;"/>
    </defs>
    <g clip-path="url(#p09e9ad2e9e)">
     <use style="fill:#50a2d5;fill-opacity:0.8;stroke:#50a2d5;stroke-opacity:0.8;stroke-width:4;" x="89.673913" xlink:href="#m0d47584737" y="403.982826"/>
     <use style="fill:#50a2d5;fill-opacity:0.8;stroke:#50a2d5;stroke-opacity:0.8;stroke-width:4;" x="140.621739" xlink:href="#m0d47584737" y="442.168511"/>
    </g>
   </g>
   <g id="line2d_25">
    <g clip-path="url(#p09e9ad2e9e)">
     <use style="fill:#50a2d5;fill-opacity:0.8;stroke:#50a2d5;stroke-opacity:0.8;stroke-width:4;" x="89.673913" xlink:href="#m0d47584737" y="363.219508"/>
     <use style="fill:#50a2d5;fill-opacity:0.8;stroke:#50a2d5;stroke-opacity:0.8;stroke-width:4;" x="140.621739" xlink:href="#m0d47584737" y="381.016172"/>
    </g>
   </g>
   <g id="patch_13">
    <path d="M 64.2 533.376 
L 64.2 321.696 
" style="fill:none;stroke:#000000;stroke-linecap:square;stroke-linejoin:miter;stroke-width:4;"/>
   </g>
   <g id="patch_14">
    <path d="M 64.2 533.376 
L 166.095652 533.376 
" style="fill:none;stroke:#000000;stroke-linecap:square;stroke-linejoin:miter;stroke-width:4;"/>
   </g>
  </g>
  <g id="axes_4">
   <g id="patch_15">
    <path d="M 196.664348 533.376 
L 298.56 533.376 
L 298.56 321.696 
L 196.664348 321.696 
z
" style="fill:#ffffff;"/>
   </g>
   <g id="patch_16">
    <path clip-path="url(#p60cae21c38)" d="M 209.401304 533.376 
L 234.875217 533.376 
L 234.875217 380.040701 
L 209.401304 380.040701 
z
" style="fill:#22567a;fill-opacity:0.5;stroke:#22567a;stroke-dasharray:15,10;stroke-dashoffset:0;stroke-linejoin:miter;stroke-width:5;"/>
   </g>
   <g id="patch_17">
    <path clip-path="url(#p60cae21c38)" d="M 260.34913 533.376 
L 285.823043 533.376 
L 285.823043 471.919293 
L 260.34913 471.919293 
z
" style="fill:#22567a;fill-opacity:0.5;stroke:#22567a;stroke-dasharray:15,10;stroke-dashoffset:0;stroke-linejoin:miter;stroke-width:5;"/>
   </g>
   <g id="matplotlib.axis_7">
    <g id="xtick_7">
     <g id="text_13">
      <!-- gabors -->
      <g transform="translate(178.832142 594.356433)rotate(-45)scale(0.1728 -0.1728)">
       <use xlink:href="#Arial-BoldMT-103"/>
       <use x="61.083984" xlink:href="#Arial-BoldMT-97"/>
       <use x="116.699219" xlink:href="#Arial-BoldMT-98"/>
       <use x="177.783203" xlink:href="#Arial-BoldMT-111"/>
       <use x="238.867188" xlink:href="#Arial-BoldMT-114"/>
       <use x="277.783203" xlink:href="#Arial-BoldMT-115"/>
      </g>
     </g>
    </g>
    <g id="xtick_8">
     <g id="text_14">
      <!-- visflow -->
      <g transform="translate(229.260669 595.036104)rotate(-45)scale(0.1728 -0.1728)">
       <use xlink:href="#Arial-BoldMT-118"/>
       <use x="55.615234" xlink:href="#Arial-BoldMT-105"/>
       <use x="83.398438" xlink:href="#Arial-BoldMT-115"/>
       <use x="139.013672" xlink:href="#Arial-BoldMT-102"/>
       <use x="172.314453" xlink:href="#Arial-BoldMT-108"/>
       <use x="200.097656" xlink:href="#Arial-BoldMT-111"/>
       <use x="261.181641" xlink:href="#Arial-BoldMT-119"/>
      </g>
     </g>
    </g>
   </g>
   <g id="matplotlib.axis_8">
    <g id="ytick_19">
     <g id="line2d_26">
      <g>
       <use style="stroke:#000000;stroke-width:4;" x="196.664348" xlink:href="#m14dd77024f" y="533.376"/>
      </g>
     </g>
    </g>
    <g id="ytick_20">
     <g id="line2d_27">
      <g>
       <use style="stroke:#000000;stroke-width:4;" x="196.664348" xlink:href="#m14dd77024f" y="491.04"/>
      </g>
     </g>
    </g>
    <g id="ytick_21">
     <g id="line2d_28">
      <g>
       <use style="stroke:#000000;stroke-width:4;" x="196.664348" xlink:href="#m14dd77024f" y="448.704"/>
      </g>
     </g>
    </g>
    <g id="ytick_22">
     <g id="line2d_29">
      <g>
       <use style="stroke:#000000;stroke-width:4;" x="196.664348" xlink:href="#m14dd77024f" y="406.368"/>
      </g>
     </g>
    </g>
    <g id="ytick_23">
     <g id="line2d_30">
      <g>
       <use style="stroke:#000000;stroke-width:4;" x="196.664348" xlink:href="#m14dd77024f" y="364.032"/>
      </g>
     </g>
    </g>
    <g id="ytick_24">
     <g id="line2d_31">
      <g>
       <use style="stroke:#000000;stroke-width:4;" x="196.664348" xlink:href="#m14dd77024f" y="321.696"/>
      </g>
     </g>
    </g>
   </g>
   <g id="LineCollection_4">
    <path clip-path="url(#p60cae21c38)" d="M 222.138261 411.437712 
L 222.138261 348.64369 
" style="fill:none;stroke:#22567a;stroke-opacity:0.8;stroke-width:5;"/>
    <path clip-path="url(#p60cae21c38)" d="M 273.086087 503.351018 
L 273.086087 440.487568 
" style="fill:none;stroke:#22567a;stroke-opacity:0.8;stroke-width:5;"/>
   </g>
   <g id="line2d_32">
    <defs>
     <path d="M 8 0 
L -8 -0 
" id="m95ef774ca8" style="stroke:#22567a;stroke-opacity:0.8;stroke-width:4;"/>
    </defs>
    <g clip-path="url(#p60cae21c38)">
     <use style="fill:#22567a;fill-opacity:0.8;stroke:#22567a;stroke-opacity:0.8;stroke-width:4;" x="222.138261" xlink:href="#m95ef774ca8" y="411.437712"/>
     <use style="fill:#22567a;fill-opacity:0.8;stroke:#22567a;stroke-opacity:0.8;stroke-width:4;" x="273.086087" xlink:href="#m95ef774ca8" y="503.351018"/>
    </g>
   </g>
   <g id="line2d_33">
    <g clip-path="url(#p60cae21c38)">
     <use style="fill:#22567a;fill-opacity:0.8;stroke:#22567a;stroke-opacity:0.8;stroke-width:4;" x="222.138261" xlink:href="#m95ef774ca8" y="348.64369"/>
     <use style="fill:#22567a;fill-opacity:0.8;stroke:#22567a;stroke-opacity:0.8;stroke-width:4;" x="273.086087" xlink:href="#m95ef774ca8" y="440.487568"/>
    </g>
   </g>
   <g id="patch_18">
    <path d="M 196.664348 533.376 
L 196.664348 321.696 
" style="fill:none;stroke:#000000;stroke-linecap:square;stroke-linejoin:miter;stroke-width:4;"/>
   </g>
   <g id="patch_19">
    <path d="M 196.664348 533.376 
L 298.56 533.376 
" style="fill:none;stroke:#000000;stroke-linecap:square;stroke-linejoin:miter;stroke-width:4;"/>
   </g>
  </g>
  <g id="axes_5">
   <g id="patch_20">
    <path d="M 343.92 533.376 
L 434.64 533.376 
L 434.64 67.68 
L 343.92 67.68 
z
" style="fill:#ffffff;"/>
   </g>
   <g id="patch_21">
    <path clip-path="url(#p94854f546a)" d="M 355.26 533.376 
L 377.94 533.376 
L 377.94 167.799898 
L 355.26 167.799898 
z
" style="fill:#656565;fill-opacity:0.2;stroke:#656565;stroke-linejoin:miter;stroke-width:5;"/>
   </g>
   <g id="patch_22">
    <path clip-path="url(#p94854f546a)" d="M 400.62 533.376 
L 423.3 533.376 
L 423.3 356.030081 
L 400.62 356.030081 
z
" style="fill:#656565;fill-opacity:0.2;stroke:#656565;stroke-linejoin:miter;stroke-width:5;"/>
   </g>
   <g id="matplotlib.axis_9">
    <g id="xtick_9">
     <g id="text_15">
      <!-- gabors -->
      <g transform="translate(323.293882 594.356433)rotate(-45)scale(0.1728 -0.1728)">
       <use xlink:href="#Arial-BoldMT-103"/>
       <use x="61.083984" xlink:href="#Arial-BoldMT-97"/>
       <use x="116.699219" xlink:href="#Arial-BoldMT-98"/>
       <use x="177.783203" xlink:href="#Arial-BoldMT-111"/>
       <use x="238.867188" xlink:href="#Arial-BoldMT-114"/>
       <use x="277.783203" xlink:href="#Arial-BoldMT-115"/>
      </g>
     </g>
    </g>
    <g id="xtick_10">
     <g id="text_16">
      <!-- visflow -->
      <g transform="translate(368.134582 595.036104)rotate(-45)scale(0.1728 -0.1728)">
       <use xlink:href="#Arial-BoldMT-118"/>
       <use x="55.615234" xlink:href="#Arial-BoldMT-105"/>
       <use x="83.398438" xlink:href="#Arial-BoldMT-115"/>
       <use x="139.013672" xlink:href="#Arial-BoldMT-102"/>
       <use x="172.314453" xlink:href="#Arial-BoldMT-108"/>
       <use x="200.097656" xlink:href="#Arial-BoldMT-111"/>
       <use x="261.181641" xlink:href="#Arial-BoldMT-119"/>
      </g>
     </g>
    </g>
   </g>
   <g id="matplotlib.axis_10">
    <g id="ytick_25">
     <g id="line2d_34">
      <g>
       <use style="stroke:#000000;stroke-width:4;" x="343.92" xlink:href="#m14dd77024f" y="533.376"/>
      </g>
     </g>
     <g id="text_17">
      <!-- 0 -->
      <g transform="translate(322.8107 539.56035)scale(0.1728 -0.1728)">
       <use xlink:href="#Arial-BoldMT-48"/>
      </g>
     </g>
    </g>
    <g id="ytick_26">
     <g id="line2d_35">
      <g>
       <use style="stroke:#000000;stroke-width:4;" x="343.92" xlink:href="#m14dd77024f" y="427.433054"/>
      </g>
     </g>
    </g>
    <g id="ytick_27">
     <g id="line2d_36">
      <g>
       <use style="stroke:#000000;stroke-width:4;" x="343.92" xlink:href="#m14dd77024f" y="321.490107"/>
      </g>
     </g>
     <g id="text_18">
      <!-- 0.2 -->
      <g transform="translate(308.4008 327.674457)scale(0.1728 -0.1728)">
       <use xlink:href="#Arial-BoldMT-48"/>
       <use x="55.615234" xlink:href="#Arial-BoldMT-46"/>
       <use x="83.398438" xlink:href="#Arial-BoldMT-50"/>
      </g>
     </g>
    </g>
    <g id="ytick_28">
     <g id="line2d_37">
      <g>
       <use style="stroke:#000000;stroke-width:4;" x="343.92" xlink:href="#m14dd77024f" y="215.547161"/>
      </g>
     </g>
    </g>
    <g id="ytick_29">
     <g id="line2d_38">
      <g>
       <use style="stroke:#000000;stroke-width:4;" x="343.92" xlink:href="#m14dd77024f" y="109.604215"/>
      </g>
     </g>
     <g id="text_19">
      <!-- 0.4 -->
      <g transform="translate(308.4008 115.788565)scale(0.1728 -0.1728)">
       <use xlink:href="#Arial-BoldMT-48"/>
       <use x="55.615234" xlink:href="#Arial-BoldMT-46"/>
       <use x="83.398438" xlink:href="#Arial-BoldMT-52"/>
      </g>
     </g>
    </g>
   </g>
   <g id="LineCollection_5">
    <path clip-path="url(#p94854f546a)" d="M 366.6 206.654339 
L 366.6 128.945457 
" style="fill:none;stroke:#656565;stroke-opacity:0.8;stroke-width:5;"/>
    <path clip-path="url(#p94854f546a)" d="M 411.96 390.313995 
L 411.96 321.746167 
" style="fill:none;stroke:#656565;stroke-opacity:0.8;stroke-width:5;"/>
   </g>
   <g id="line2d_39">
    <defs>
     <path d="M 8 0 
L -8 -0 
" id="m52adddaff3" style="stroke:#656565;stroke-opacity:0.8;stroke-width:4;"/>
    </defs>
    <g clip-path="url(#p94854f546a)">
     <use style="fill:#656565;fill-opacity:0.8;stroke:#656565;stroke-opacity:0.8;stroke-width:4;" x="366.6" xlink:href="#m52adddaff3" y="206.654339"/>
     <use style="fill:#656565;fill-opacity:0.8;stroke:#656565;stroke-opacity:0.8;stroke-width:4;" x="411.96" xlink:href="#m52adddaff3" y="390.313995"/>
    </g>
   </g>
   <g id="line2d_40">
    <g clip-path="url(#p94854f546a)">
     <use style="fill:#656565;fill-opacity:0.8;stroke:#656565;stroke-opacity:0.8;stroke-width:4;" x="366.6" xlink:href="#m52adddaff3" y="128.945457"/>
     <use style="fill:#656565;fill-opacity:0.8;stroke:#656565;stroke-opacity:0.8;stroke-width:4;" x="411.96" xlink:href="#m52adddaff3" y="321.746167"/>
    </g>
   </g>
   <g id="line2d_41">
    <path clip-path="url(#p94854f546a)" d="M 366.6 89.856 
L 411.96 89.856 
" style="fill:none;stroke:#656565;stroke-linecap:square;stroke-width:3;"/>
   </g>
   <g id="patch_23">
    <path d="M 343.92 533.376 
L 343.92 67.68 
" style="fill:none;stroke:#000000;stroke-linecap:square;stroke-linejoin:miter;stroke-width:4;"/>
   </g>
   <g id="patch_24">
    <path d="M 343.92 533.376 
L 434.64 533.376 
" style="fill:none;stroke:#000000;stroke-linecap:square;stroke-linejoin:miter;stroke-width:4;"/>
   </g>
   <g id="text_20">
    <!-- *** -->
    <g style="fill:#656565;" transform="translate(377.17374 87.712357)scale(0.20736 -0.20736)">
     <use xlink:href="#Arial-BoldMT-42"/>
     <use x="38.916016" xlink:href="#Arial-BoldMT-42"/>
     <use x="77.832031" xlink:href="#Arial-BoldMT-42"/>
    </g>
   </g>
   <g id="text_21">
    <!-- all -->
    <g transform="translate(379.67475 61.68)scale(0.1728 -0.1728)">
     <use xlink:href="#Arial-BoldMT-97"/>
     <use x="55.615234" xlink:href="#Arial-BoldMT-108"/>
     <use x="83.398438" xlink:href="#Arial-BoldMT-108"/>
    </g>
   </g>
   <g id="PathCollection_1">
    <defs>
     <path d="M 0 7.071068 
C 1.875269 7.071068 3.673985 6.326016 5 5 
C 6.326016 3.673985 7.071068 1.875269 7.071068 0 
C 7.071068 -1.875269 6.326016 -3.673985 5 -5 
C 3.673985 -6.326016 1.875269 -7.071068 0 -7.071068 
C -1.875269 -7.071068 -3.673985 -6.326016 -5 -5 
C -6.326016 -3.673985 -7.071068 -1.875269 -7.071068 0 
C -7.071068 1.875269 -6.326016 3.673985 -5 5 
C -3.673985 6.326016 -1.875269 7.071068 0 7.071068 
z
" id="m56292fad70" style="stroke:#ffffff;stroke-opacity:0.8;stroke-width:4;"/>
    </defs>
    <g clip-path="url(#p94854f546a)">
     <use style="fill:#ffffff;fill-opacity:0.8;stroke:#ffffff;stroke-opacity:0.8;stroke-width:4;" x="358.8888" xlink:href="#m56292fad70" y="226.392252"/>
    </g>
   </g>
   <g id="PathCollection_2">
    <g clip-path="url(#p94854f546a)">
     <use style="fill:#ffffff;fill-opacity:0.8;stroke:#ffffff;stroke-opacity:0.8;stroke-width:4;" x="377.94" xlink:href="#m56292fad70" y="158.574718"/>
    </g>
   </g>
   <g id="PathCollection_3">
    <g clip-path="url(#p94854f546a)">
     <use style="fill:#ffffff;fill-opacity:0.8;stroke:#ffffff;stroke-opacity:0.8;stroke-width:4;" x="355.26" xlink:href="#m56292fad70" y="149.664895"/>
    </g>
   </g>
   <g id="PathCollection_4">
    <g clip-path="url(#p94854f546a)">
     <use style="fill:#ffffff;fill-opacity:0.8;stroke:#ffffff;stroke-opacity:0.8;stroke-width:4;" x="374.3112" xlink:href="#m56292fad70" y="136.567728"/>
    </g>
   </g>
   <g id="PathCollection_5">
    <g clip-path="url(#p94854f546a)">
     <use style="fill:#ffffff;fill-opacity:0.8;stroke:#ffffff;stroke-opacity:0.8;stroke-width:4;" x="404.2488" xlink:href="#m56292fad70" y="495.572568"/>
    </g>
   </g>
   <g id="PathCollection_6">
    <g clip-path="url(#p94854f546a)">
     <use style="fill:#ffffff;fill-opacity:0.8;stroke:#ffffff;stroke-opacity:0.8;stroke-width:4;" x="423.3" xlink:href="#m56292fad70" y="379.584791"/>
    </g>
   </g>
   <g id="PathCollection_7">
    <g clip-path="url(#p94854f546a)">
     <use style="fill:#ffffff;fill-opacity:0.8;stroke:#ffffff;stroke-opacity:0.8;stroke-width:4;" x="400.62" xlink:href="#m56292fad70" y="320.342245"/>
    </g>
   </g>
   <g id="PathCollection_8">
    <g clip-path="url(#p94854f546a)">
     <use style="fill:#ffffff;fill-opacity:0.8;stroke:#ffffff;stroke-opacity:0.8;stroke-width:4;" x="419.6712" xlink:href="#m56292fad70" y="228.620718"/>
    </g>
   </g>
   <g id="PathCollection_9">
    <defs>
     <path d="M 0 7.071068 
C 1.875269 7.071068 3.673985 6.326016 5 5 
C 6.326016 3.673985 7.071068 1.875269 7.071068 0 
C 7.071068 -1.875269 6.326016 -3.673985 5 -5 
C 3.673985 -6.326016 1.875269 -7.071068 0 -7.071068 
C -1.875269 -7.071068 -3.673985 -6.326016 -5 -5 
C -6.326016 -3.673985 -7.071068 -1.875269 -7.071068 0 
C -7.071068 1.875269 -6.326016 3.673985 -5 5 
C -3.673985 6.326016 -1.875269 7.071068 0 7.071068 
z
" id="maca665865f"/>
    </defs>
    <g clip-path="url(#p94854f546a)">
     <use style="fill:#488a21;fill-opacity:0.6;" x="358.8888" xlink:href="#maca665865f" y="226.392252"/>
    </g>
   </g>
   <g id="PathCollection_10">
    <defs>
     <path d="M 0 7.071068 
C 1.875269 7.071068 3.673985 6.326016 5 5 
C 6.326016 3.673985 7.071068 1.875269 7.071068 0 
C 7.071068 -1.875269 6.326016 -3.673985 5 -5 
C 3.673985 -6.326016 1.875269 -7.071068 0 -7.071068 
C -1.875269 -7.071068 -3.673985 -6.326016 -5 -5 
C -6.326016 -3.673985 -7.071068 -1.875269 -7.071068 0 
C -7.071068 1.875269 -6.326016 3.673985 -5 5 
C -3.673985 6.326016 -1.875269 7.071068 0 7.071068 
z
" id="m50b72673cb"/>
    </defs>
    <g clip-path="url(#p94854f546a)">
     <use style="fill:#50a2d5;fill-opacity:0.6;" x="377.94" xlink:href="#m50b72673cb" y="158.574718"/>
    </g>
   </g>
   <g id="PathCollection_11">
    <defs>
     <path d="M 0 7.071068 
C 1.875269 7.071068 3.673985 6.326016 5 5 
C 6.326016 3.673985 7.071068 1.875269 7.071068 0 
C 7.071068 -1.875269 6.326016 -3.673985 5 -5 
C 3.673985 -6.326016 1.875269 -7.071068 0 -7.071068 
C -1.875269 -7.071068 -3.673985 -6.326016 -5 -5 
C -6.326016 -3.673985 -7.071068 -1.875269 -7.071068 0 
C -7.071068 1.875269 -6.326016 3.673985 -5 5 
C -3.673985 6.326016 -1.875269 7.071068 0 7.071068 
z
" id="mc2254f3e3a"/>
    </defs>
    <g clip-path="url(#p94854f546a)">
     <use style="fill:#22567a;fill-opacity:0.6;" x="355.26" xlink:href="#mc2254f3e3a" y="149.664895"/>
    </g>
   </g>
   <g id="PathCollection_12">
    <defs>
     <path d="M 0 7.071068 
C 1.875269 7.071068 3.673985 6.326016 5 5 
C 6.326016 3.673985 7.071068 1.875269 7.071068 0 
C 7.071068 -1.875269 6.326016 -3.673985 5 -5 
C 3.673985 -6.326016 1.875269 -7.071068 0 -7.071068 
C -1.875269 -7.071068 -3.673985 -6.326016 -5 -5 
C -6.326016 -3.673985 -7.071068 -1.875269 -7.071068 0 
C -7.071068 1.875269 -6.326016 3.673985 -5 5 
C -3.673985 6.326016 -1.875269 7.071068 0 7.071068 
z
" id="m435383f46f"/>
    </defs>
    <g clip-path="url(#p94854f546a)">
     <use style="fill:#76bb4b;fill-opacity:0.6;" x="374.3112" xlink:href="#m435383f46f" y="136.567728"/>
    </g>
   </g>
   <g id="PathCollection_13">
    <g clip-path="url(#p94854f546a)">
     <use style="fill:#488a21;fill-opacity:0.6;" x="404.2488" xlink:href="#maca665865f" y="495.572568"/>
    </g>
   </g>
   <g id="PathCollection_14">
    <g clip-path="url(#p94854f546a)">
     <use style="fill:#22567a;fill-opacity:0.6;" x="423.3" xlink:href="#mc2254f3e3a" y="379.584791"/>
    </g>
   </g>
   <g id="PathCollection_15">
    <g clip-path="url(#p94854f546a)">
     <use style="fill:#76bb4b;fill-opacity:0.6;" x="400.62" xlink:href="#m435383f46f" y="320.342245"/>
    </g>
   </g>
   <g id="PathCollection_16">
    <g clip-path="url(#p94854f546a)">
     <use style="fill:#50a2d5;fill-opacity:0.6;" x="419.6712" xlink:href="#m50b72673cb" y="228.620718"/>
    </g>
   </g>
   <g id="PathCollection_17">
    <path clip-path="url(#p94854f546a)" d="M 358.8888 233.46332 
C 360.764069 233.46332 362.562785 232.718268 363.8888 231.392252 
C 365.214815 230.066237 365.959868 228.267521 365.959868 226.392252 
C 365.959868 224.516983 365.214815 222.718268 363.8888 221.392252 
C 362.562785 220.066237 360.764069 219.321185 358.8888 219.321185 
C 357.013531 219.321185 355.214815 220.066237 353.8888 221.392252 
C 352.562785 222.718268 351.817732 224.516983 351.817732 226.392252 
C 351.817732 228.267521 352.562785 230.066237 353.8888 231.392252 
C 355.214815 232.718268 357.013531 233.46332 358.8888 233.46332 
z
" style="fill:none;stroke:#488a21;stroke-width:4;"/>
   </g>
   <g id="PathCollection_18">
    <path clip-path="url(#p94854f546a)" d="M 377.94 165.645786 
C 379.815269 165.645786 381.613985 164.900733 382.94 163.574718 
C 384.266016 162.248702 385.011068 160.449987 385.011068 158.574718 
C 385.011068 156.699449 384.266016 154.900733 382.94 153.574718 
C 381.613985 152.248702 379.815269 151.50365 377.94 151.50365 
C 376.064731 151.50365 374.266016 152.248702 372.94 153.574718 
C 371.613985 154.900733 370.868932 156.699449 370.868932 158.574718 
C 370.868932 160.449987 371.613985 162.248702 372.94 163.574718 
C 374.266016 164.900733 376.064731 165.645786 377.94 165.645786 
z
" style="fill:none;stroke:#50a2d5;stroke-width:4;"/>
   </g>
   <g id="PathCollection_19">
    <path clip-path="url(#p94854f546a)" d="M 355.26 156.735963 
C 357.135269 156.735963 358.933985 155.990911 360.26 154.664895 
C 361.586015 153.33888 362.331068 151.540164 362.331068 149.664895 
C 362.331068 147.789626 361.586015 145.990911 360.26 144.664895 
C 358.933985 143.33888 357.135269 142.593827 355.26 142.593827 
C 353.384731 142.593827 351.586015 143.33888 350.26 144.664895 
C 348.933985 145.990911 348.188932 147.789626 348.188932 149.664895 
C 348.188932 151.540164 348.933985 153.33888 350.26 154.664895 
C 351.586015 155.990911 353.384731 156.735963 355.26 156.735963 
z
" style="fill:none;stroke:#22567a;stroke-width:4;"/>
   </g>
   <g id="PathCollection_20">
    <path clip-path="url(#p94854f546a)" d="M 374.3112 143.638796 
C 376.186469 143.638796 377.985185 142.893743 379.3112 141.567728 
C 380.637216 140.241712 381.382268 138.442997 381.382268 136.567728 
C 381.382268 134.692459 380.637216 132.893743 379.3112 131.567728 
C 377.985185 130.241712 376.186469 129.49666 374.3112 129.49666 
C 372.435931 129.49666 370.637216 130.241712 369.3112 131.567728 
C 367.985185 132.893743 367.240132 134.692459 367.240132 136.567728 
C 367.240132 138.442997 367.985185 140.241712 369.3112 141.567728 
C 370.637216 142.893743 372.435931 143.638796 374.3112 143.638796 
z
" style="fill:none;stroke:#76bb4b;stroke-width:4;"/>
   </g>
   <g id="PathCollection_21">
    <path clip-path="url(#p94854f546a)" d="M 404.2488 502.643636 
C 406.124069 502.643636 407.922785 501.898583 409.2488 500.572568 
C 410.574815 499.246552 411.319868 497.447837 411.319868 495.572568 
C 411.319868 493.697299 410.574815 491.898583 409.2488 490.572568 
C 407.922785 489.246552 406.124069 488.5015 404.2488 488.5015 
C 402.373531 488.5015 400.574815 489.246552 399.2488 490.572568 
C 397.922785 491.898583 397.177732 493.697299 397.177732 495.572568 
C 397.177732 497.447837 397.922785 499.246552 399.2488 500.572568 
C 400.574815 501.898583 402.373531 502.643636 404.2488 502.643636 
z
" style="fill:none;stroke:#488a21;stroke-width:4;"/>
   </g>
   <g id="PathCollection_22">
    <path clip-path="url(#p94854f546a)" d="M 423.3 386.655859 
C 425.175269 386.655859 426.973985 385.910807 428.3 384.584791 
C 429.626016 383.258776 430.371068 381.46006 430.371068 379.584791 
C 430.371068 377.709522 429.626016 375.910807 428.3 374.584791 
C 426.973985 373.258776 425.175269 372.513723 423.3 372.513723 
C 421.424731 372.513723 419.626016 373.258776 418.3 374.584791 
C 416.973985 375.910807 416.228932 377.709522 416.228932 379.584791 
C 416.228932 381.46006 416.973985 383.258776 418.3 384.584791 
C 419.626016 385.910807 421.424731 386.655859 423.3 386.655859 
z
" style="fill:none;stroke:#22567a;stroke-width:4;"/>
   </g>
   <g id="PathCollection_23">
    <path clip-path="url(#p94854f546a)" d="M 400.62 327.413313 
C 402.495269 327.413313 404.293985 326.668261 405.62 325.342245 
C 406.946015 324.01623 407.691068 322.217515 407.691068 320.342245 
C 407.691068 318.466976 406.946015 316.668261 405.62 315.342245 
C 404.293985 314.01623 402.495269 313.271178 400.62 313.271178 
C 398.744731 313.271178 396.946015 314.01623 395.62 315.342245 
C 394.293985 316.668261 393.548932 318.466976 393.548932 320.342245 
C 393.548932 322.217515 394.293985 324.01623 395.62 325.342245 
C 396.946015 326.668261 398.744731 327.413313 400.62 327.413313 
z
" style="fill:none;stroke:#76bb4b;stroke-width:4;"/>
   </g>
   <g id="PathCollection_24">
    <path clip-path="url(#p94854f546a)" d="M 419.6712 235.691786 
C 421.546469 235.691786 423.345185 234.946733 424.6712 233.620718 
C 425.997216 232.294702 426.742268 230.495987 426.742268 228.620718 
C 426.742268 226.745449 425.997216 224.946733 424.6712 223.620718 
C 423.345185 222.294702 421.546469 221.54965 419.6712 221.54965 
C 417.795931 221.54965 415.997216 222.294702 414.6712 223.620718 
C 413.345185 224.946733 412.600132 226.745449 412.600132 228.620718 
C 412.600132 230.495987 413.345185 232.294702 414.6712 233.620718 
C 415.997216 234.946733 417.795931 235.691786 419.6712 235.691786 
z
" style="fill:none;stroke:#50a2d5;stroke-width:4;"/>
   </g>
  </g>
  <g id="text_22">
   <!-- USI changes from session 1 to 3 -->
   <g transform="translate(44.6088 19.7793)scale(0.1728 -0.1728)">
    <defs>
     <path d="M 7.171875 71.578125 
L 21.625 71.578125 
L 21.625 32.8125 
Q 21.625 23.578125 22.171875 20.84375 
Q 23.09375 16.453125 26.578125 13.796875 
Q 30.078125 11.140625 36.140625 11.140625 
Q 42.28125 11.140625 45.40625 13.640625 
Q 48.53125 16.15625 49.171875 19.8125 
Q 49.8125 23.484375 49.8125 31.984375 
L 49.8125 71.578125 
L 64.265625 71.578125 
L 64.265625 33.984375 
Q 64.265625 21.09375 63.09375 15.765625 
Q 61.921875 10.453125 58.765625 6.78125 
Q 55.609375 3.125 50.328125 0.953125 
Q 45.0625 -1.21875 36.578125 -1.21875 
Q 26.3125 -1.21875 21.015625 1.140625 
Q 15.71875 3.515625 12.640625 7.296875 
Q 9.578125 11.078125 8.59375 15.234375 
Q 7.171875 21.390625 7.171875 33.40625 
z
" id="Arial-BoldMT-85"/>
     <path d="M 3.609375 23.296875 
L 17.671875 24.65625 
Q 18.953125 17.578125 22.828125 14.25 
Q 26.703125 10.9375 33.296875 10.9375 
Q 40.28125 10.9375 43.8125 13.890625 
Q 47.359375 16.84375 47.359375 20.796875 
Q 47.359375 23.34375 45.875 25.125 
Q 44.390625 26.90625 40.671875 28.21875 
Q 38.140625 29.109375 29.109375 31.34375 
Q 17.484375 34.234375 12.796875 38.421875 
Q 6.203125 44.34375 6.203125 52.828125 
Q 6.203125 58.296875 9.296875 63.0625 
Q 12.40625 67.828125 18.234375 70.3125 
Q 24.078125 72.796875 32.328125 72.796875 
Q 45.796875 72.796875 52.609375 66.890625 
Q 59.421875 60.984375 59.765625 51.125 
L 45.3125 50.484375 
Q 44.390625 56 41.328125 58.421875 
Q 38.28125 60.84375 32.171875 60.84375 
Q 25.875 60.84375 22.3125 58.25 
Q 20.015625 56.59375 20.015625 53.8125 
Q 20.015625 51.265625 22.171875 49.46875 
Q 24.90625 47.171875 35.453125 44.671875 
Q 46 42.1875 51.046875 39.515625 
Q 56.109375 36.859375 58.953125 32.25 
Q 61.8125 27.640625 61.8125 20.84375 
Q 61.8125 14.703125 58.390625 9.328125 
Q 54.984375 3.953125 48.734375 1.34375 
Q 42.484375 -1.265625 33.15625 -1.265625 
Q 19.578125 -1.265625 12.296875 5 
Q 5.03125 11.28125 3.609375 23.296875 
z
" id="Arial-BoldMT-83"/>
     <path d="M 6.84375 0 
L 6.84375 71.578125 
L 21.296875 71.578125 
L 21.296875 0 
z
" id="Arial-BoldMT-73"/>
     <path d="M 52.390625 36.53125 
L 38.875 34.078125 
Q 38.1875 38.140625 35.765625 40.1875 
Q 33.34375 42.234375 29.5 42.234375 
Q 24.359375 42.234375 21.3125 38.6875 
Q 18.265625 35.15625 18.265625 26.859375 
Q 18.265625 17.625 21.359375 13.8125 
Q 24.46875 10.015625 29.6875 10.015625 
Q 33.59375 10.015625 36.078125 12.234375 
Q 38.578125 14.453125 39.59375 19.875 
L 53.078125 17.578125 
Q 50.984375 8.296875 45.015625 3.5625 
Q 39.0625 -1.171875 29.046875 -1.171875 
Q 17.671875 -1.171875 10.90625 6 
Q 4.15625 13.1875 4.15625 25.875 
Q 4.15625 38.71875 10.9375 45.875 
Q 17.71875 53.03125 29.296875 53.03125 
Q 38.765625 53.03125 44.359375 48.953125 
Q 49.953125 44.875 52.390625 36.53125 
z
" id="Arial-BoldMT-99"/>
     <path d="M 20.84375 71.578125 
L 20.84375 45.265625 
Q 27.484375 53.03125 36.71875 53.03125 
Q 41.453125 53.03125 45.265625 51.265625 
Q 49.078125 49.515625 51 46.78125 
Q 52.9375 44.046875 53.640625 40.71875 
Q 54.34375 37.40625 54.34375 30.421875 
L 54.34375 0 
L 40.625 0 
L 40.625 27.390625 
Q 40.625 35.546875 39.84375 37.734375 
Q 39.0625 39.9375 37.078125 41.234375 
Q 35.109375 42.53125 32.125 42.53125 
Q 28.71875 42.53125 26.03125 40.859375 
Q 23.34375 39.203125 22.09375 35.859375 
Q 20.84375 32.515625 20.84375 25.984375 
L 20.84375 0 
L 7.125 0 
L 7.125 71.578125 
z
" id="Arial-BoldMT-104"/>
     <path d="M 54.34375 0 
L 40.625 0 
L 40.625 26.46875 
Q 40.625 34.859375 39.75 37.328125 
Q 38.875 39.796875 36.890625 41.15625 
Q 34.90625 42.53125 32.125 42.53125 
Q 28.5625 42.53125 25.734375 40.578125 
Q 22.90625 38.625 21.84375 35.390625 
Q 20.796875 32.171875 20.796875 23.484375 
L 20.796875 0 
L 7.078125 0 
L 7.078125 51.859375 
L 19.828125 51.859375 
L 19.828125 44.234375 
Q 26.609375 53.03125 36.921875 53.03125 
Q 41.453125 53.03125 45.203125 51.390625 
Q 48.96875 49.75 50.890625 47.203125 
Q 52.828125 44.671875 53.578125 41.453125 
Q 54.34375 38.234375 54.34375 32.234375 
z
" id="Arial-BoldMT-110"/>
     <path d="M 37.203125 16.5 
L 50.875 14.203125 
Q 48.25 6.6875 42.546875 2.75 
Q 36.859375 -1.171875 28.328125 -1.171875 
Q 14.796875 -1.171875 8.296875 7.671875 
Q 3.171875 14.75 3.171875 25.53125 
Q 3.171875 38.421875 9.90625 45.71875 
Q 16.65625 53.03125 26.953125 53.03125 
Q 38.53125 53.03125 45.21875 45.390625 
Q 51.90625 37.75 51.609375 21.96875 
L 17.234375 21.96875 
Q 17.390625 15.875 20.5625 12.46875 
Q 23.734375 9.078125 28.46875 9.078125 
Q 31.6875 9.078125 33.875 10.828125 
Q 36.078125 12.59375 37.203125 16.5 
z
M 37.984375 30.375 
Q 37.84375 36.328125 34.90625 39.421875 
Q 31.984375 42.53125 27.78125 42.53125 
Q 23.296875 42.53125 20.359375 39.265625 
Q 17.4375 35.984375 17.484375 30.375 
z
" id="Arial-BoldMT-101"/>
     <path d="M 6.15625 51.859375 
L 18.796875 51.859375 
L 18.796875 44.78125 
Q 25.59375 53.03125 34.96875 53.03125 
Q 39.9375 53.03125 43.59375 50.96875 
Q 47.265625 48.921875 49.609375 44.78125 
Q 53.03125 48.921875 56.984375 50.96875 
Q 60.9375 53.03125 65.4375 53.03125 
Q 71.140625 53.03125 75.09375 50.703125 
Q 79.046875 48.390625 81 43.890625 
Q 82.421875 40.578125 82.421875 33.15625 
L 82.421875 0 
L 68.703125 0 
L 68.703125 29.640625 
Q 68.703125 37.359375 67.28125 39.59375 
Q 65.375 42.53125 61.421875 42.53125 
Q 58.546875 42.53125 56 40.765625 
Q 53.46875 39.015625 52.34375 35.625 
Q 51.21875 32.234375 51.21875 24.90625 
L 51.21875 0 
L 37.5 0 
L 37.5 28.421875 
Q 37.5 35.984375 36.765625 38.171875 
Q 36.03125 40.375 34.484375 41.453125 
Q 32.953125 42.53125 30.328125 42.53125 
Q 27.15625 42.53125 24.609375 40.8125 
Q 22.078125 39.109375 20.96875 35.890625 
Q 19.875 32.671875 19.875 25.203125 
L 19.875 0 
L 6.15625 0 
z
" id="Arial-BoldMT-109"/>
     <path d="M 39.359375 0 
L 25.640625 0 
L 25.640625 51.703125 
Q 18.109375 44.671875 7.90625 41.3125 
L 7.90625 53.765625 
Q 13.28125 55.515625 19.578125 60.421875 
Q 25.875 65.328125 28.21875 71.875 
L 39.359375 71.875 
z
" id="Arial-BoldMT-49"/>
     <path d="M 30.953125 51.859375 
L 30.953125 40.921875 
L 21.578125 40.921875 
L 21.578125 20.015625 
Q 21.578125 13.671875 21.84375 12.625 
Q 22.125 11.578125 23.078125 10.890625 
Q 24.03125 10.203125 25.390625 10.203125 
Q 27.296875 10.203125 30.90625 11.53125 
L 32.078125 0.875 
Q 27.296875 -1.171875 21.234375 -1.171875 
Q 17.53125 -1.171875 14.546875 0.0625 
Q 11.578125 1.3125 10.1875 3.296875 
Q 8.796875 5.28125 8.25 8.640625 
Q 7.8125 11.03125 7.8125 18.3125 
L 7.8125 40.921875 
L 1.515625 40.921875 
L 1.515625 51.859375 
L 7.8125 51.859375 
L 7.8125 62.15625 
L 21.578125 70.171875 
L 21.578125 51.859375 
z
" id="Arial-BoldMT-116"/>
    </defs>
    <use xlink:href="#Arial-BoldMT-85"/>
    <use x="72.216797" xlink:href="#Arial-BoldMT-83"/>
    <use x="138.916016" xlink:href="#Arial-BoldMT-73"/>
    <use x="166.699219" xlink:href="#Arial-BoldMT-32"/>
    <use x="194.482422" xlink:href="#Arial-BoldMT-99"/>
    <use x="250.097656" xlink:href="#Arial-BoldMT-104"/>
    <use x="311.181641" xlink:href="#Arial-BoldMT-97"/>
    <use x="366.796875" xlink:href="#Arial-BoldMT-110"/>
    <use x="427.880859" xlink:href="#Arial-BoldMT-103"/>
    <use x="488.964844" xlink:href="#Arial-BoldMT-101"/>
    <use x="544.580078" xlink:href="#Arial-BoldMT-115"/>
    <use x="600.195312" xlink:href="#Arial-BoldMT-32"/>
    <use x="627.978516" xlink:href="#Arial-BoldMT-102"/>
    <use x="661.279297" xlink:href="#Arial-BoldMT-114"/>
    <use x="700.195312" xlink:href="#Arial-BoldMT-111"/>
    <use x="761.279297" xlink:href="#Arial-BoldMT-109"/>
    <use x="850.195312" xlink:href="#Arial-BoldMT-32"/>
    <use x="877.978516" xlink:href="#Arial-BoldMT-115"/>
    <use x="933.59375" xlink:href="#Arial-BoldMT-101"/>
    <use x="989.208984" xlink:href="#Arial-BoldMT-115"/>
    <use x="1044.824219" xlink:href="#Arial-BoldMT-115"/>
    <use x="1100.439453" xlink:href="#Arial-BoldMT-105"/>
    <use x="1128.222656" xlink:href="#Arial-BoldMT-111"/>
    <use x="1189.306641" xlink:href="#Arial-BoldMT-110"/>
    <use x="1250.390625" xlink:href="#Arial-BoldMT-32"/>
    <use x="1278.173828" xlink:href="#Arial-BoldMT-49"/>
    <use x="1333.789062" xlink:href="#Arial-BoldMT-32"/>
    <use x="1361.572266" xlink:href="#Arial-BoldMT-116"/>
    <use x="1394.873047" xlink:href="#Arial-BoldMT-111"/>
    <use x="1455.957031" xlink:href="#Arial-BoldMT-32"/>
    <use x="1483.740234" xlink:href="#Arial-BoldMT-51"/>
   </g>
  </g>
  <g id="text_23">
   <!-- Absolute fractional change -->
   <g transform="translate(19.7793 284.409)rotate(-90)scale(0.1728 -0.1728)">
    <defs>
     <path d="M 71.828125 0 
L 56.109375 0 
L 49.859375 16.265625 
L 21.234375 16.265625 
L 15.328125 0 
L 0 0 
L 27.875 71.578125 
L 43.171875 71.578125 
z
M 45.21875 28.328125 
L 35.359375 54.890625 
L 25.6875 28.328125 
z
" id="Arial-BoldMT-65"/>
     <path d="M 41.3125 0 
L 41.3125 7.765625 
Q 38.484375 3.609375 33.859375 1.21875 
Q 29.25 -1.171875 24.125 -1.171875 
Q 18.890625 -1.171875 14.734375 1.125 
Q 10.59375 3.421875 8.734375 7.5625 
Q 6.890625 11.71875 6.890625 19.046875 
L 6.890625 51.859375 
L 20.609375 51.859375 
L 20.609375 28.03125 
Q 20.609375 17.09375 21.359375 14.625 
Q 22.125 12.15625 24.125 10.71875 
Q 26.125 9.28125 29.203125 9.28125 
Q 32.71875 9.28125 35.5 11.203125 
Q 38.28125 13.140625 39.296875 15.984375 
Q 40.328125 18.84375 40.328125 29.984375 
L 40.328125 51.859375 
L 54.046875 51.859375 
L 54.046875 0 
z
" id="Arial-BoldMT-117"/>
    </defs>
    <use xlink:href="#Arial-BoldMT-65"/>
    <use x="72.216797" xlink:href="#Arial-BoldMT-98"/>
    <use x="133.300781" xlink:href="#Arial-BoldMT-115"/>
    <use x="188.916016" xlink:href="#Arial-BoldMT-111"/>
    <use x="250" xlink:href="#Arial-BoldMT-108"/>
    <use x="277.783203" xlink:href="#Arial-BoldMT-117"/>
    <use x="338.867188" xlink:href="#Arial-BoldMT-116"/>
    <use x="372.167969" xlink:href="#Arial-BoldMT-101"/>
    <use x="427.783203" xlink:href="#Arial-BoldMT-32"/>
    <use x="455.566406" xlink:href="#Arial-BoldMT-102"/>
    <use x="488.867188" xlink:href="#Arial-BoldMT-114"/>
    <use x="527.783203" xlink:href="#Arial-BoldMT-97"/>
    <use x="583.398438" xlink:href="#Arial-BoldMT-99"/>
    <use x="639.013672" xlink:href="#Arial-BoldMT-116"/>
    <use x="672.314453" xlink:href="#Arial-BoldMT-105"/>
    <use x="700.097656" xlink:href="#Arial-BoldMT-111"/>
    <use x="761.181641" xlink:href="#Arial-BoldMT-110"/>
    <use x="822.265625" xlink:href="#Arial-BoldMT-97"/>
    <use x="877.880859" xlink:href="#Arial-BoldMT-108"/>
    <use x="905.664062" xlink:href="#Arial-BoldMT-32"/>
    <use x="933.447266" xlink:href="#Arial-BoldMT-99"/>
    <use x="989.0625" xlink:href="#Arial-BoldMT-104"/>
    <use x="1050.146484" xlink:href="#Arial-BoldMT-97"/>
    <use x="1105.761719" xlink:href="#Arial-BoldMT-110"/>
    <use x="1166.845703" xlink:href="#Arial-BoldMT-103"/>
    <use x="1227.929688" xlink:href="#Arial-BoldMT-101"/>
   </g>
  </g>
 </g>
 <defs>
  <clipPath id="p0f63de4033">
   <rect height="211.68" width="101.895652" x="64.2" y="67.68"/>
  </clipPath>
  <clipPath id="pc5e35264cd">
   <rect height="211.68" width="101.895652" x="196.664348" y="67.68"/>
  </clipPath>
  <clipPath id="p09e9ad2e9e">
   <rect height="211.68" width="101.895652" x="64.2" y="321.696"/>
  </clipPath>
  <clipPath id="p60cae21c38">
   <rect height="211.68" width="101.895652" x="196.664348" y="321.696"/>
  </clipPath>
  <clipPath id="p94854f546a">
   <rect height="465.696" width="90.72" x="343.92" y="67.68"/>
  </clipPath>
 </defs>
</svg>
