<?xml version="1.0" encoding="utf-8" standalone="no"?>
<!DOCTYPE svg PUBLIC "-//W3C//DTD SVG 1.1//EN"
  "http://www.w3.org/Graphics/SVG/1.1/DTD/svg11.dtd">
<!-- Created with matplotlib (https://matplotlib.org/) -->
<svg height="619.7301pt" version="1.1" viewBox="0 0 435.0288 619.7301" width="435.0288pt" xmlns="http://www.w3.org/2000/svg" xmlns:xlink="http://www.w3.org/1999/xlink">
 <metadata>
  <rdf:RDF xmlns:cc="http://creativecommons.org/ns#" xmlns:dc="http://purl.org/dc/elements/1.1/" xmlns:rdf="http://www.w3.org/1999/02/22-rdf-syntax-ns#">
   <cc:Work>
    <dc:type rdf:resource="http://purl.org/dc/dcmitype/StillImage"/>
    <dc:date>2022-01-26T18:20:17.596477</dc:date>
    <dc:format>image/svg+xml</dc:format>
    <dc:creator>
     <cc:Agent>
      <dc:title>Matplotlib v3.3.4, https://matplotlib.org/</dc:title>
     </cc:Agent>
    </dc:creator>
   </cc:Work>
  </rdf:RDF>
 </metadata>
 <defs>
  <style type="text/css">*{stroke-linecap:butt;stroke-linejoin:round;}</style>
 </defs>
 <g id="figure_1">
  <g id="patch_1">
   <path d="M 0 619.7301 
L 435.0288 619.7301 
L 435.0288 0 
L 0 0 
z
" style="fill:#ffffff;"/>
  </g>
  <g id="axes_1">
   <g id="patch_2">
    <path d="M 64.29 292.32 
L 209.855217 292.32 
L 209.855217 70.56 
L 64.29 70.56 
z
" style="fill:#ffffff;"/>
   </g>
   <g id="line2d_1">
    <path clip-path="url(#p7feefcd1b3)" d="M 64.29 236.88 
L 209.855217 236.88 
" style="fill:none;stroke:#000000;stroke-dasharray:12,6;stroke-dashoffset:0;stroke-opacity:0.5;stroke-width:3;"/>
   </g>
   <g id="matplotlib.axis_1">
    <g id="xtick_1"/>
    <g id="xtick_2"/>
    <g id="xtick_3"/>
   </g>
   <g id="matplotlib.axis_2">
    <g id="ytick_1">
     <g id="line2d_2">
      <defs>
       <path d="M 0 0 
L -8 0 
" id="m0d2c50d00d" style="stroke:#000000;stroke-width:4;"/>
      </defs>
      <g>
       <use style="stroke:#000000;stroke-width:4;" x="64.29" xlink:href="#m0d2c50d00d" y="292.32"/>
      </g>
     </g>
     <g id="text_1">
      <!-- 0.5 -->
      <g transform="translate(28.7708 298.50435)scale(0.1728 -0.1728)">
       <defs>
        <path d="M 27.4375 71.875 
Q 37.84375 71.875 43.703125 64.453125 
Q 50.6875 55.671875 50.6875 35.296875 
Q 50.6875 14.984375 43.65625 6.109375 
Q 37.84375 -1.21875 27.4375 -1.21875 
Q 17 -1.21875 10.59375 6.8125 
Q 4.203125 14.84375 4.203125 35.453125 
Q 4.203125 55.671875 11.234375 64.546875 
Q 17.046875 71.875 27.4375 71.875 
z
M 27.4375 60.5 
Q 24.953125 60.5 23 58.90625 
Q 21.046875 57.328125 19.96875 53.21875 
Q 18.5625 47.90625 18.5625 35.296875 
Q 18.5625 22.703125 19.828125 17.984375 
Q 21.09375 13.28125 23.015625 11.71875 
Q 24.953125 10.15625 27.4375 10.15625 
Q 29.9375 10.15625 31.890625 11.734375 
Q 33.84375 13.328125 34.90625 17.4375 
Q 36.328125 22.703125 36.328125 35.296875 
Q 36.328125 47.90625 35.0625 52.609375 
Q 33.796875 57.328125 31.859375 58.90625 
Q 29.9375 60.5 27.4375 60.5 
z
" id="Arial-BoldMT-48"/>
        <path d="M 7.171875 0 
L 7.171875 13.71875 
L 20.90625 13.71875 
L 20.90625 0 
z
" id="Arial-BoldMT-46"/>
        <path d="M 4.4375 18.40625 
L 18.109375 19.828125 
Q 18.703125 15.1875 21.578125 12.46875 
Q 24.46875 9.765625 28.21875 9.765625 
Q 32.515625 9.765625 35.5 13.25 
Q 38.484375 16.75 38.484375 23.78125 
Q 38.484375 30.375 35.515625 33.671875 
Q 32.5625 36.96875 27.828125 36.96875 
Q 21.921875 36.96875 17.234375 31.734375 
L 6.109375 33.34375 
L 13.140625 70.609375 
L 49.421875 70.609375 
L 49.421875 57.765625 
L 23.53125 57.765625 
L 21.390625 45.609375 
Q 25.984375 47.90625 30.765625 47.90625 
Q 39.890625 47.90625 46.234375 41.265625 
Q 52.59375 34.625 52.59375 24.03125 
Q 52.59375 15.1875 47.46875 8.25 
Q 40.484375 -1.21875 28.078125 -1.21875 
Q 18.171875 -1.21875 11.921875 4.09375 
Q 5.671875 9.421875 4.4375 18.40625 
z
" id="Arial-BoldMT-53"/>
       </defs>
       <use xlink:href="#Arial-BoldMT-48"/>
       <use x="55.615234" xlink:href="#Arial-BoldMT-46"/>
       <use x="83.398438" xlink:href="#Arial-BoldMT-53"/>
      </g>
     </g>
    </g>
    <g id="ytick_2">
     <g id="line2d_3">
      <g>
       <use style="stroke:#000000;stroke-width:4;" x="64.29" xlink:href="#m0d2c50d00d" y="236.88"/>
      </g>
     </g>
    </g>
    <g id="ytick_3">
     <g id="line2d_4">
      <g>
       <use style="stroke:#000000;stroke-width:4;" x="64.29" xlink:href="#m0d2c50d00d" y="181.44"/>
      </g>
     </g>
     <g id="text_2">
      <!-- 1.5 -->
      <g transform="translate(28.7708 187.62435)scale(0.1728 -0.1728)">
       <defs>
        <path d="M 39.359375 0 
L 25.640625 0 
L 25.640625 51.703125 
Q 18.109375 44.671875 7.90625 41.3125 
L 7.90625 53.765625 
Q 13.28125 55.515625 19.578125 60.421875 
Q 25.875 65.328125 28.21875 71.875 
L 39.359375 71.875 
z
" id="Arial-BoldMT-49"/>
       </defs>
       <use xlink:href="#Arial-BoldMT-49"/>
       <use x="55.615234" xlink:href="#Arial-BoldMT-46"/>
       <use x="83.398438" xlink:href="#Arial-BoldMT-53"/>
      </g>
     </g>
    </g>
    <g id="ytick_4">
     <g id="line2d_5">
      <g>
       <use style="stroke:#000000;stroke-width:4;" x="64.29" xlink:href="#m0d2c50d00d" y="126"/>
      </g>
     </g>
    </g>
    <g id="ytick_5">
     <g id="line2d_6">
      <g>
       <use style="stroke:#000000;stroke-width:4;" x="64.29" xlink:href="#m0d2c50d00d" y="70.56"/>
      </g>
     </g>
     <g id="text_3">
      <!-- 2.5 -->
      <g transform="translate(28.7708 76.74435)scale(0.1728 -0.1728)">
       <defs>
        <path d="M 50.59375 12.75 
L 50.59375 0 
L 2.484375 0 
Q 3.265625 7.234375 7.171875 13.703125 
Q 11.078125 20.171875 22.609375 30.859375 
Q 31.890625 39.5 33.984375 42.578125 
Q 36.8125 46.828125 36.8125 50.984375 
Q 36.8125 55.5625 34.34375 58.03125 
Q 31.890625 60.5 27.546875 60.5 
Q 23.25 60.5 20.703125 57.90625 
Q 18.171875 55.328125 17.78125 49.3125 
L 4.109375 50.6875 
Q 5.328125 62.015625 11.765625 66.9375 
Q 18.21875 71.875 27.875 71.875 
Q 38.484375 71.875 44.53125 66.15625 
Q 50.59375 60.453125 50.59375 51.953125 
Q 50.59375 47.125 48.859375 42.75 
Q 47.125 38.375 43.359375 33.59375 
Q 40.875 30.421875 34.375 24.453125 
Q 27.875 18.5 26.140625 16.546875 
Q 24.421875 14.59375 23.34375 12.75 
z
" id="Arial-BoldMT-50"/>
       </defs>
       <use xlink:href="#Arial-BoldMT-50"/>
       <use x="55.615234" xlink:href="#Arial-BoldMT-46"/>
       <use x="83.398438" xlink:href="#Arial-BoldMT-53"/>
      </g>
     </g>
    </g>
    <g id="text_4">
     <!-- . -->
     <g style="fill:#ffffff;" transform="translate(20.3364 183.8403)rotate(-90)scale(0.1728 -0.1728)">
      <defs>
       <path d="M 9.078125 0 
L 9.078125 10.015625 
L 19.09375 10.015625 
L 19.09375 0 
z
" id="ArialMT-46"/>
      </defs>
      <use xlink:href="#ArialMT-46"/>
     </g>
    </g>
   </g>
   <g id="LineCollection_1">
    <path clip-path="url(#p7feefcd1b3)" d="M 93.403043 240.64455 
L 93.403043 233.11545 
" style="fill:none;stroke:#808080;stroke-opacity:0.6;stroke-width:5;"/>
    <path clip-path="url(#p7feefcd1b3)" d="M 137.072609 248.277861 
L 137.072609 241.266463 
" style="fill:none;stroke:#808080;stroke-opacity:0.6;stroke-width:5;"/>
    <path clip-path="url(#p7feefcd1b3)" d="M 180.742174 242.590216 
L 180.742174 235.653665 
" style="fill:none;stroke:#808080;stroke-opacity:0.6;stroke-width:5;"/>
   </g>
   <g id="LineCollection_2">
    <path clip-path="url(#p7feefcd1b3)" d="M 93.403043 253.514058 
L 93.403043 249.398712 
" style="fill:none;stroke:#76bb4b;stroke-opacity:0.8;stroke-width:5;"/>
    <path clip-path="url(#p7feefcd1b3)" d="M 137.072609 220.220694 
L 137.072609 210.428583 
" style="fill:none;stroke:#76bb4b;stroke-opacity:0.8;stroke-width:5;"/>
    <path clip-path="url(#p7feefcd1b3)" d="M 180.742174 216.68562 
L 180.742174 208.884583 
" style="fill:none;stroke:#76bb4b;stroke-opacity:0.8;stroke-width:5;"/>
   </g>
   <g id="line2d_7">
    <defs>
     <path d="M 4 0 
L -4 -0 
" id="m070081dbe3" style="stroke:#808080;stroke-opacity:0.6;stroke-width:4;"/>
    </defs>
    <g clip-path="url(#p7feefcd1b3)">
     <use style="fill:#808080;fill-opacity:0.6;stroke:#808080;stroke-opacity:0.6;stroke-width:4;" x="93.403043" xlink:href="#m070081dbe3" y="240.64455"/>
     <use style="fill:#808080;fill-opacity:0.6;stroke:#808080;stroke-opacity:0.6;stroke-width:4;" x="137.072609" xlink:href="#m070081dbe3" y="248.277861"/>
     <use style="fill:#808080;fill-opacity:0.6;stroke:#808080;stroke-opacity:0.6;stroke-width:4;" x="180.742174" xlink:href="#m070081dbe3" y="242.590216"/>
    </g>
   </g>
   <g id="line2d_8">
    <g clip-path="url(#p7feefcd1b3)">
     <use style="fill:#808080;fill-opacity:0.6;stroke:#808080;stroke-opacity:0.6;stroke-width:4;" x="93.403043" xlink:href="#m070081dbe3" y="233.11545"/>
     <use style="fill:#808080;fill-opacity:0.6;stroke:#808080;stroke-opacity:0.6;stroke-width:4;" x="137.072609" xlink:href="#m070081dbe3" y="241.266463"/>
     <use style="fill:#808080;fill-opacity:0.6;stroke:#808080;stroke-opacity:0.6;stroke-width:4;" x="180.742174" xlink:href="#m070081dbe3" y="235.653665"/>
    </g>
   </g>
   <g id="line2d_9">
    <defs>
     <path d="M 4 0 
L -4 -0 
" id="m27b3a55617" style="stroke:#76bb4b;stroke-opacity:0.8;stroke-width:4;"/>
    </defs>
    <g clip-path="url(#p7feefcd1b3)">
     <use style="fill:#76bb4b;fill-opacity:0.8;stroke:#76bb4b;stroke-opacity:0.8;stroke-width:4;" x="93.403043" xlink:href="#m27b3a55617" y="253.514058"/>
     <use style="fill:#76bb4b;fill-opacity:0.8;stroke:#76bb4b;stroke-opacity:0.8;stroke-width:4;" x="137.072609" xlink:href="#m27b3a55617" y="220.220694"/>
     <use style="fill:#76bb4b;fill-opacity:0.8;stroke:#76bb4b;stroke-opacity:0.8;stroke-width:4;" x="180.742174" xlink:href="#m27b3a55617" y="216.68562"/>
    </g>
   </g>
   <g id="line2d_10">
    <g clip-path="url(#p7feefcd1b3)">
     <use style="fill:#76bb4b;fill-opacity:0.8;stroke:#76bb4b;stroke-opacity:0.8;stroke-width:4;" x="93.403043" xlink:href="#m27b3a55617" y="249.398712"/>
     <use style="fill:#76bb4b;fill-opacity:0.8;stroke:#76bb4b;stroke-opacity:0.8;stroke-width:4;" x="137.072609" xlink:href="#m27b3a55617" y="210.428583"/>
     <use style="fill:#76bb4b;fill-opacity:0.8;stroke:#76bb4b;stroke-opacity:0.8;stroke-width:4;" x="180.742174" xlink:href="#m27b3a55617" y="208.884583"/>
    </g>
   </g>
   <g id="line2d_11">
    <path clip-path="url(#p7feefcd1b3)" d="M 93.403043 166.609639 
L 137.072609 166.609639 
" style="fill:none;stroke:#76bb4b;stroke-linecap:square;stroke-width:3;"/>
   </g>
   <g id="line2d_12">
    <path clip-path="url(#p7feefcd1b3)" d="M 93.403043 147.816463 
L 180.742174 147.816463 
" style="fill:none;stroke:#76bb4b;stroke-linecap:square;stroke-width:3;"/>
   </g>
   <g id="line2d_13">
    <path clip-path="url(#p7feefcd1b3)" d="M 93.403043 236.88 
L 137.072609 244.772162 
L 180.742174 239.121941 
" style="fill:none;stroke:#808080;stroke-linecap:square;stroke-opacity:0.6;stroke-width:5;"/>
    <defs>
     <path d="M -0 8.485281 
L 5.091169 0 
L 0 -8.485281 
L -5.091169 -0 
z
" id="m7a87a40978" style="stroke:#808080;stroke-linejoin:miter;stroke-opacity:0.6;stroke-width:4;"/>
    </defs>
    <g clip-path="url(#p7feefcd1b3)">
     <use style="fill:#808080;fill-opacity:0.6;stroke:#808080;stroke-linejoin:miter;stroke-opacity:0.6;stroke-width:4;" x="93.403043" xlink:href="#m7a87a40978" y="236.88"/>
     <use style="fill:#808080;fill-opacity:0.6;stroke:#808080;stroke-linejoin:miter;stroke-opacity:0.6;stroke-width:4;" x="137.072609" xlink:href="#m7a87a40978" y="244.772162"/>
     <use style="fill:#808080;fill-opacity:0.6;stroke:#808080;stroke-linejoin:miter;stroke-opacity:0.6;stroke-width:4;" x="180.742174" xlink:href="#m7a87a40978" y="239.121941"/>
    </g>
   </g>
   <g id="line2d_14">
    <path clip-path="url(#p7feefcd1b3)" d="M 93.403043 251.456385 
L 137.072609 215.324639 
L 180.742174 212.785102 
" style="fill:none;stroke:#76bb4b;stroke-linecap:square;stroke-opacity:0.8;stroke-width:5;"/>
    <defs>
     <path d="M 0 5 
C 1.326016 5 2.597899 4.473168 3.535534 3.535534 
C 4.473168 2.597899 5 1.326016 5 0 
C 5 -1.326016 4.473168 -2.597899 3.535534 -3.535534 
C 2.597899 -4.473168 1.326016 -5 0 -5 
C -1.326016 -5 -2.597899 -4.473168 -3.535534 -3.535534 
C -4.473168 -2.597899 -5 -1.326016 -5 0 
C -5 1.326016 -4.473168 2.597899 -3.535534 3.535534 
C -2.597899 4.473168 -1.326016 5 0 5 
z
" id="m7c72cd27b0" style="stroke:#76bb4b;stroke-opacity:0.8;stroke-width:4;"/>
    </defs>
    <g clip-path="url(#p7feefcd1b3)">
     <use style="fill:#76bb4b;fill-opacity:0.8;stroke:#76bb4b;stroke-opacity:0.8;stroke-width:4;" x="93.403043" xlink:href="#m7c72cd27b0" y="251.456385"/>
     <use style="fill:#76bb4b;fill-opacity:0.8;stroke:#76bb4b;stroke-opacity:0.8;stroke-width:4;" x="137.072609" xlink:href="#m7c72cd27b0" y="215.324639"/>
     <use style="fill:#76bb4b;fill-opacity:0.8;stroke:#76bb4b;stroke-opacity:0.8;stroke-width:4;" x="180.742174" xlink:href="#m7c72cd27b0" y="212.785102"/>
    </g>
   </g>
   <g id="patch_3">
    <path d="M 64.29 292.32 
L 64.29 70.56 
" style="fill:none;stroke:#000000;stroke-linecap:square;stroke-linejoin:miter;stroke-width:4;"/>
   </g>
   <g id="text_5">
    <!-- *** -->
    <g style="fill:#76bb4b;" transform="translate(103.561264 170.401085)scale(0.2 -0.2)">
     <defs>
      <path d="M 11.96875 38.671875 
L 4.59375 44.390625 
Q 8.109375 48.34375 11.921875 51.953125 
Q 13.421875 53.421875 13.8125 53.8125 
Q 12.59375 54 6.84375 55.421875 
Q 2.6875 56.453125 1.375 56.9375 
L 4.25 65.53125 
Q 10.640625 62.9375 15.671875 59.8125 
Q 14.5 67.78125 14.5 72.796875 
L 23.1875 72.796875 
Q 23.1875 69.234375 21.875 59.71875 
Q 22.859375 60.109375 26.078125 61.625 
Q 30.46875 63.625 34.1875 65.046875 
L 36.765625 56.203125 
Q 31.34375 54.984375 24.21875 53.8125 
L 30.078125 47.21875 
Q 31.84375 45.21875 32.859375 43.953125 
L 25.390625 39.015625 
L 18.796875 49.90625 
Q 15.828125 44.625 11.96875 38.671875 
z
" id="Arial-BoldMT-42"/>
     </defs>
     <use xlink:href="#Arial-BoldMT-42"/>
     <use x="38.916016" xlink:href="#Arial-BoldMT-42"/>
     <use x="77.832031" xlink:href="#Arial-BoldMT-42"/>
    </g>
   </g>
   <g id="text_6">
    <!-- *** -->
    <g style="fill:#76bb4b;" transform="translate(125.396046 151.607909)scale(0.2 -0.2)">
     <use xlink:href="#Arial-BoldMT-42"/>
     <use x="38.916016" xlink:href="#Arial-BoldMT-42"/>
     <use x="77.832031" xlink:href="#Arial-BoldMT-42"/>
    </g>
   </g>
   <g id="text_7">
    <!-- L2/3 Pyr -->
    <g transform="translate(103.454909 64.56)scale(0.1728 -0.1728)">
     <defs>
      <path d="M 7.671875 0 
L 7.671875 71 
L 22.125 71 
L 22.125 12.0625 
L 58.0625 12.0625 
L 58.0625 0 
z
" id="Arial-BoldMT-76"/>
      <path d="M -0.140625 -1.21875 
L 17.578125 72.796875 
L 27.875 72.796875 
L 9.96875 -1.21875 
z
" id="Arial-BoldMT-47"/>
      <path d="M 3.765625 19 
L 17.046875 20.609375 
Q 17.671875 15.53125 20.453125 12.84375 
Q 23.25 10.15625 27.203125 10.15625 
Q 31.453125 10.15625 34.34375 13.375 
Q 37.25 16.609375 37.25 22.078125 
Q 37.25 27.25 34.46875 30.265625 
Q 31.6875 33.296875 27.6875 33.296875 
Q 25.046875 33.296875 21.390625 32.28125 
L 22.90625 43.453125 
Q 28.46875 43.3125 31.390625 45.875 
Q 34.328125 48.4375 34.328125 52.6875 
Q 34.328125 56.296875 32.171875 58.4375 
Q 30.03125 60.59375 26.46875 60.59375 
Q 22.953125 60.59375 20.453125 58.15625 
Q 17.96875 55.71875 17.4375 51.03125 
L 4.78125 53.171875 
Q 6.109375 59.671875 8.765625 63.546875 
Q 11.421875 67.4375 16.1875 69.65625 
Q 20.953125 71.875 26.859375 71.875 
Q 36.96875 71.875 43.0625 65.4375 
Q 48.09375 60.15625 48.09375 53.515625 
Q 48.09375 44.09375 37.796875 38.484375 
Q 43.953125 37.15625 47.625 32.5625 
Q 51.3125 27.984375 51.3125 21.484375 
Q 51.3125 12.0625 44.421875 5.421875 
Q 37.546875 -1.21875 27.296875 -1.21875 
Q 17.578125 -1.21875 11.171875 4.375 
Q 4.78125 9.96875 3.765625 19 
z
" id="Arial-BoldMT-51"/>
      <path id="Arial-BoldMT-32"/>
      <path d="M 7.28125 0 
L 7.28125 71.578125 
L 30.46875 71.578125 
Q 43.65625 71.578125 47.65625 70.515625 
Q 53.8125 68.890625 57.953125 63.5 
Q 62.109375 58.109375 62.109375 49.5625 
Q 62.109375 42.96875 59.71875 38.46875 
Q 57.328125 33.984375 53.640625 31.421875 
Q 49.953125 28.859375 46.140625 28.03125 
Q 40.96875 27 31.15625 27 
L 21.734375 27 
L 21.734375 0 
z
M 21.734375 59.46875 
L 21.734375 39.15625 
L 29.640625 39.15625 
Q 38.1875 39.15625 41.0625 40.28125 
Q 43.953125 41.40625 45.578125 43.796875 
Q 47.21875 46.1875 47.21875 49.359375 
Q 47.21875 53.265625 44.921875 55.796875 
Q 42.625 58.34375 39.109375 58.984375 
Q 36.53125 59.46875 28.71875 59.46875 
z
" id="Arial-BoldMT-80"/>
      <path d="M 0.6875 51.859375 
L 15.28125 51.859375 
L 27.6875 15.046875 
L 39.796875 51.859375 
L 54 51.859375 
L 35.6875 1.953125 
L 32.421875 -7.078125 
Q 30.609375 -11.625 28.96875 -14.015625 
Q 27.34375 -16.40625 25.21875 -17.890625 
Q 23.09375 -19.390625 19.984375 -20.21875 
Q 16.890625 -21.046875 12.984375 -21.046875 
Q 9.03125 -21.046875 5.21875 -20.21875 
L 4 -9.46875 
Q 7.234375 -10.109375 9.8125 -10.109375 
Q 14.59375 -10.109375 16.890625 -7.296875 
Q 19.1875 -4.5 20.40625 -0.140625 
z
" id="Arial-BoldMT-121"/>
      <path d="M 20.3125 0 
L 6.59375 0 
L 6.59375 51.859375 
L 19.34375 51.859375 
L 19.34375 44.484375 
Q 22.609375 49.703125 25.21875 51.359375 
Q 27.828125 53.03125 31.15625 53.03125 
Q 35.84375 53.03125 40.1875 50.4375 
L 35.9375 38.484375 
Q 32.46875 40.71875 29.5 40.71875 
Q 26.609375 40.71875 24.609375 39.125 
Q 22.609375 37.546875 21.453125 33.390625 
Q 20.3125 29.25 20.3125 16.015625 
z
" id="Arial-BoldMT-114"/>
     </defs>
     <use xlink:href="#Arial-BoldMT-76"/>
     <use x="61.083984" xlink:href="#Arial-BoldMT-50"/>
     <use x="116.699219" xlink:href="#Arial-BoldMT-47"/>
     <use x="144.482422" xlink:href="#Arial-BoldMT-51"/>
     <use x="200.097656" xlink:href="#Arial-BoldMT-32"/>
     <use x="227.880859" xlink:href="#Arial-BoldMT-80"/>
     <use x="294.580078" xlink:href="#Arial-BoldMT-121"/>
     <use x="350.195312" xlink:href="#Arial-BoldMT-114"/>
    </g>
   </g>
  </g>
  <g id="axes_2">
   <g id="patch_4">
    <path d="M 253.524783 292.32 
L 399.09 292.32 
L 399.09 70.56 
L 253.524783 70.56 
z
" style="fill:#ffffff;"/>
   </g>
   <g id="line2d_15">
    <path clip-path="url(#p58109f28ae)" d="M 253.524783 236.88 
L 399.09 236.88 
" style="fill:none;stroke:#000000;stroke-dasharray:12,6;stroke-dashoffset:0;stroke-opacity:0.5;stroke-width:3;"/>
   </g>
   <g id="matplotlib.axis_3">
    <g id="xtick_4"/>
    <g id="xtick_5"/>
    <g id="xtick_6"/>
   </g>
   <g id="matplotlib.axis_4">
    <g id="ytick_6">
     <g id="line2d_16">
      <g>
       <use style="stroke:#000000;stroke-width:4;" x="253.524783" xlink:href="#m0d2c50d00d" y="292.32"/>
      </g>
     </g>
    </g>
    <g id="ytick_7">
     <g id="line2d_17">
      <g>
       <use style="stroke:#000000;stroke-width:4;" x="253.524783" xlink:href="#m0d2c50d00d" y="236.88"/>
      </g>
     </g>
    </g>
    <g id="ytick_8">
     <g id="line2d_18">
      <g>
       <use style="stroke:#000000;stroke-width:4;" x="253.524783" xlink:href="#m0d2c50d00d" y="181.44"/>
      </g>
     </g>
    </g>
    <g id="ytick_9">
     <g id="line2d_19">
      <g>
       <use style="stroke:#000000;stroke-width:4;" x="253.524783" xlink:href="#m0d2c50d00d" y="126"/>
      </g>
     </g>
    </g>
    <g id="ytick_10">
     <g id="line2d_20">
      <g>
       <use style="stroke:#000000;stroke-width:4;" x="253.524783" xlink:href="#m0d2c50d00d" y="70.56"/>
      </g>
     </g>
    </g>
   </g>
   <g id="LineCollection_3">
    <path clip-path="url(#p58109f28ae)" d="M 282.637826 238.764179 
L 282.637826 234.995821 
" style="fill:none;stroke:#808080;stroke-opacity:0.6;stroke-width:5;"/>
    <path clip-path="url(#p58109f28ae)" d="M 326.307391 240.708406 
L 326.307391 235.578054 
" style="fill:none;stroke:#808080;stroke-opacity:0.6;stroke-width:5;"/>
    <path clip-path="url(#p58109f28ae)" d="M 369.976957 255.355807 
L 369.976957 250.396272 
" style="fill:none;stroke:#808080;stroke-opacity:0.6;stroke-width:5;"/>
   </g>
   <g id="LineCollection_4">
    <path clip-path="url(#p58109f28ae)" d="M 282.637826 240.205612 
L 282.637826 236.564572 
" style="fill:none;stroke:#488a21;stroke-opacity:0.8;stroke-width:5;"/>
    <path clip-path="url(#p58109f28ae)" d="M 326.307391 193.530964 
L 326.307391 183.652777 
" style="fill:none;stroke:#488a21;stroke-opacity:0.8;stroke-width:5;"/>
    <path clip-path="url(#p58109f28ae)" d="M 369.976957 194.032929 
L 369.976957 188.000222 
" style="fill:none;stroke:#488a21;stroke-opacity:0.8;stroke-width:5;"/>
   </g>
   <g id="line2d_21">
    <g clip-path="url(#p58109f28ae)">
     <use style="fill:#808080;fill-opacity:0.6;stroke:#808080;stroke-opacity:0.6;stroke-width:4;" x="282.637826" xlink:href="#m070081dbe3" y="238.764179"/>
     <use style="fill:#808080;fill-opacity:0.6;stroke:#808080;stroke-opacity:0.6;stroke-width:4;" x="326.307391" xlink:href="#m070081dbe3" y="240.708406"/>
     <use style="fill:#808080;fill-opacity:0.6;stroke:#808080;stroke-opacity:0.6;stroke-width:4;" x="369.976957" xlink:href="#m070081dbe3" y="255.355807"/>
    </g>
   </g>
   <g id="line2d_22">
    <g clip-path="url(#p58109f28ae)">
     <use style="fill:#808080;fill-opacity:0.6;stroke:#808080;stroke-opacity:0.6;stroke-width:4;" x="282.637826" xlink:href="#m070081dbe3" y="234.995821"/>
     <use style="fill:#808080;fill-opacity:0.6;stroke:#808080;stroke-opacity:0.6;stroke-width:4;" x="326.307391" xlink:href="#m070081dbe3" y="235.578054"/>
     <use style="fill:#808080;fill-opacity:0.6;stroke:#808080;stroke-opacity:0.6;stroke-width:4;" x="369.976957" xlink:href="#m070081dbe3" y="250.396272"/>
    </g>
   </g>
   <g id="line2d_23">
    <defs>
     <path d="M 4 0 
L -4 -0 
" id="mdbc050c5ae" style="stroke:#488a21;stroke-opacity:0.8;stroke-width:4;"/>
    </defs>
    <g clip-path="url(#p58109f28ae)">
     <use style="fill:#488a21;fill-opacity:0.8;stroke:#488a21;stroke-opacity:0.8;stroke-width:4;" x="282.637826" xlink:href="#mdbc050c5ae" y="240.205612"/>
     <use style="fill:#488a21;fill-opacity:0.8;stroke:#488a21;stroke-opacity:0.8;stroke-width:4;" x="326.307391" xlink:href="#mdbc050c5ae" y="193.530964"/>
     <use style="fill:#488a21;fill-opacity:0.8;stroke:#488a21;stroke-opacity:0.8;stroke-width:4;" x="369.976957" xlink:href="#mdbc050c5ae" y="194.032929"/>
    </g>
   </g>
   <g id="line2d_24">
    <g clip-path="url(#p58109f28ae)">
     <use style="fill:#488a21;fill-opacity:0.8;stroke:#488a21;stroke-opacity:0.8;stroke-width:4;" x="282.637826" xlink:href="#mdbc050c5ae" y="236.564572"/>
     <use style="fill:#488a21;fill-opacity:0.8;stroke:#488a21;stroke-opacity:0.8;stroke-width:4;" x="326.307391" xlink:href="#mdbc050c5ae" y="183.652777"/>
     <use style="fill:#488a21;fill-opacity:0.8;stroke:#488a21;stroke-opacity:0.8;stroke-width:4;" x="369.976957" xlink:href="#mdbc050c5ae" y="188.000222"/>
    </g>
   </g>
   <g id="line2d_25">
    <path clip-path="url(#p58109f28ae)" d="M 282.637826 159.009342 
L 369.976957 159.009342 
" style="fill:none;stroke:#808080;stroke-linecap:square;stroke-width:3;"/>
   </g>
   <g id="line2d_26">
    <path clip-path="url(#p58109f28ae)" d="M 326.307391 145.901132 
L 369.976957 145.901132 
" style="fill:none;stroke:#808080;stroke-linecap:square;stroke-width:3;"/>
   </g>
   <g id="line2d_27">
    <path clip-path="url(#p58109f28ae)" d="M 282.637826 112.589002 
L 326.307391 112.589002 
" style="fill:none;stroke:#488a21;stroke-linecap:square;stroke-width:3;"/>
   </g>
   <g id="line2d_28">
    <path clip-path="url(#p58109f28ae)" d="M 282.637826 93.795826 
L 369.976957 93.795826 
" style="fill:none;stroke:#488a21;stroke-linecap:square;stroke-width:3;"/>
   </g>
   <g id="line2d_29">
    <path clip-path="url(#p58109f28ae)" d="M 282.637826 236.88 
L 326.307391 238.14323 
L 369.976957 252.87604 
" style="fill:none;stroke:#808080;stroke-dasharray:15,10;stroke-dashoffset:0;stroke-opacity:0.6;stroke-width:5;"/>
    <g clip-path="url(#p58109f28ae)">
     <use style="fill:#808080;fill-opacity:0.6;stroke:#808080;stroke-linejoin:miter;stroke-opacity:0.6;stroke-width:4;" x="282.637826" xlink:href="#m7a87a40978" y="236.88"/>
     <use style="fill:#808080;fill-opacity:0.6;stroke:#808080;stroke-linejoin:miter;stroke-opacity:0.6;stroke-width:4;" x="326.307391" xlink:href="#m7a87a40978" y="238.14323"/>
     <use style="fill:#808080;fill-opacity:0.6;stroke:#808080;stroke-linejoin:miter;stroke-opacity:0.6;stroke-width:4;" x="369.976957" xlink:href="#m7a87a40978" y="252.87604"/>
    </g>
   </g>
   <g id="line2d_30">
    <path clip-path="url(#p58109f28ae)" d="M 282.637826 238.385092 
L 326.307391 188.59187 
L 369.976957 191.016576 
" style="fill:none;stroke:#488a21;stroke-dasharray:15,10;stroke-dashoffset:0;stroke-opacity:0.8;stroke-width:5;"/>
    <defs>
     <path d="M 0 5 
C 1.326016 5 2.597899 4.473168 3.535534 3.535534 
C 4.473168 2.597899 5 1.326016 5 0 
C 5 -1.326016 4.473168 -2.597899 3.535534 -3.535534 
C 2.597899 -4.473168 1.326016 -5 0 -5 
C -1.326016 -5 -2.597899 -4.473168 -3.535534 -3.535534 
C -4.473168 -2.597899 -5 -1.326016 -5 0 
C -5 1.326016 -4.473168 2.597899 -3.535534 3.535534 
C -2.597899 4.473168 -1.326016 5 0 5 
z
" id="md9741ca067" style="stroke:#488a21;stroke-opacity:0.8;stroke-width:4;"/>
    </defs>
    <g clip-path="url(#p58109f28ae)">
     <use style="fill:#488a21;fill-opacity:0.8;stroke:#488a21;stroke-opacity:0.8;stroke-width:4;" x="282.637826" xlink:href="#md9741ca067" y="238.385092"/>
     <use style="fill:#488a21;fill-opacity:0.8;stroke:#488a21;stroke-opacity:0.8;stroke-width:4;" x="326.307391" xlink:href="#md9741ca067" y="188.59187"/>
     <use style="fill:#488a21;fill-opacity:0.8;stroke:#488a21;stroke-opacity:0.8;stroke-width:4;" x="369.976957" xlink:href="#md9741ca067" y="191.016576"/>
    </g>
   </g>
   <g id="patch_5">
    <path d="M 253.524783 292.32 
L 253.524783 70.56 
" style="fill:none;stroke:#000000;stroke-linecap:square;stroke-linejoin:miter;stroke-width:4;"/>
   </g>
   <g id="text_8">
    <!-- +++ -->
    <g style="fill:#808080;" transform="translate(314.042079 157.495055)scale(0.14 -0.14)">
     <defs>
      <path d="M 22.90625 10.296875 
L 22.90625 28.90625 
L 4.15625 28.90625 
L 4.15625 41.75 
L 22.90625 41.75 
L 22.90625 60.359375 
L 35.40625 60.359375 
L 35.40625 41.75 
L 54.203125 41.75 
L 54.203125 28.90625 
L 35.40625 28.90625 
L 35.40625 10.296875 
z
" id="Arial-BoldMT-43"/>
     </defs>
     <use xlink:href="#Arial-BoldMT-43"/>
     <use x="58.398438" xlink:href="#Arial-BoldMT-43"/>
     <use x="116.796875" xlink:href="#Arial-BoldMT-43"/>
    </g>
   </g>
   <g id="text_9">
    <!-- +++ -->
    <g style="fill:#808080;" transform="translate(335.876861 144.386844)scale(0.14 -0.14)">
     <use xlink:href="#Arial-BoldMT-43"/>
     <use x="58.398438" xlink:href="#Arial-BoldMT-43"/>
     <use x="116.796875" xlink:href="#Arial-BoldMT-43"/>
    </g>
   </g>
   <g id="text_10">
    <!-- *** -->
    <g style="fill:#488a21;" transform="translate(292.796046 116.380448)scale(0.2 -0.2)">
     <use xlink:href="#Arial-BoldMT-42"/>
     <use x="38.916016" xlink:href="#Arial-BoldMT-42"/>
     <use x="77.832031" xlink:href="#Arial-BoldMT-42"/>
    </g>
   </g>
   <g id="text_11">
    <!-- *** -->
    <g style="fill:#488a21;" transform="translate(314.630829 97.587272)scale(0.2 -0.2)">
     <use xlink:href="#Arial-BoldMT-42"/>
     <use x="38.916016" xlink:href="#Arial-BoldMT-42"/>
     <use x="77.832031" xlink:href="#Arial-BoldMT-42"/>
    </g>
   </g>
   <g id="text_12">
    <!-- L5 Pyr -->
    <g transform="translate(299.894641 64.56)scale(0.1728 -0.1728)">
     <use xlink:href="#Arial-BoldMT-76"/>
     <use x="61.083984" xlink:href="#Arial-BoldMT-53"/>
     <use x="116.699219" xlink:href="#Arial-BoldMT-32"/>
     <use x="144.482422" xlink:href="#Arial-BoldMT-80"/>
     <use x="211.181641" xlink:href="#Arial-BoldMT-121"/>
     <use x="266.796875" xlink:href="#Arial-BoldMT-114"/>
    </g>
   </g>
  </g>
  <g id="axes_3">
   <g id="patch_6">
    <path d="M 64.29 558.432 
L 209.855217 558.432 
L 209.855217 336.672 
L 64.29 336.672 
z
" style="fill:#ffffff;"/>
   </g>
   <g id="line2d_31">
    <path clip-path="url(#pb7f0f22c89)" d="M 64.29 463.392 
L 209.855217 463.392 
" style="fill:none;stroke:#000000;stroke-dasharray:12,6;stroke-dashoffset:0;stroke-opacity:0.5;stroke-width:3;"/>
   </g>
   <g id="matplotlib.axis_5">
    <g id="xtick_7">
     <g id="line2d_32">
      <defs>
       <path d="M 0 0 
L 0 8 
" id="m7e85066241" style="stroke:#000000;stroke-width:4;"/>
      </defs>
      <g>
       <use style="stroke:#000000;stroke-width:4;" x="93.403043" xlink:href="#m7e85066241" y="558.432"/>
      </g>
     </g>
     <g id="text_13">
      <!-- 1 -->
      <g transform="translate(88.598393 582.3007)scale(0.1728 -0.1728)">
       <use xlink:href="#Arial-BoldMT-49"/>
      </g>
     </g>
    </g>
    <g id="xtick_8">
     <g id="line2d_33">
      <g>
       <use style="stroke:#000000;stroke-width:4;" x="137.072609" xlink:href="#m7e85066241" y="558.432"/>
      </g>
     </g>
     <g id="text_14">
      <!-- 2 -->
      <g transform="translate(132.267959 582.3007)scale(0.1728 -0.1728)">
       <use xlink:href="#Arial-BoldMT-50"/>
      </g>
     </g>
    </g>
    <g id="xtick_9">
     <g id="line2d_34">
      <g>
       <use style="stroke:#000000;stroke-width:4;" x="180.742174" xlink:href="#m7e85066241" y="558.432"/>
      </g>
     </g>
     <g id="text_15">
      <!-- 3 -->
      <g transform="translate(175.937524 582.3007)scale(0.1728 -0.1728)">
       <use xlink:href="#Arial-BoldMT-51"/>
      </g>
     </g>
    </g>
   </g>
   <g id="matplotlib.axis_6">
    <g id="ytick_11">
     <g id="line2d_35">
      <g>
       <use style="stroke:#000000;stroke-width:4;" x="64.29" xlink:href="#m0d2c50d00d" y="558.432"/>
      </g>
     </g>
    </g>
    <g id="ytick_12">
     <g id="line2d_36">
      <g>
       <use style="stroke:#000000;stroke-width:4;" x="64.29" xlink:href="#m0d2c50d00d" y="526.752"/>
      </g>
     </g>
     <g id="text_16">
      <!-- 0 -->
      <g transform="translate(43.1807 532.93635)scale(0.1728 -0.1728)">
       <use xlink:href="#Arial-BoldMT-48"/>
      </g>
     </g>
    </g>
    <g id="ytick_13">
     <g id="line2d_37">
      <g>
       <use style="stroke:#000000;stroke-width:4;" x="64.29" xlink:href="#m0d2c50d00d" y="495.072"/>
      </g>
     </g>
    </g>
    <g id="ytick_14">
     <g id="line2d_38">
      <g>
       <use style="stroke:#000000;stroke-width:4;" x="64.29" xlink:href="#m0d2c50d00d" y="463.392"/>
      </g>
     </g>
     <g id="text_17">
      <!-- 1 -->
      <g transform="translate(43.1807 469.57635)scale(0.1728 -0.1728)">
       <use xlink:href="#Arial-BoldMT-49"/>
      </g>
     </g>
    </g>
    <g id="ytick_15">
     <g id="line2d_39">
      <g>
       <use style="stroke:#000000;stroke-width:4;" x="64.29" xlink:href="#m0d2c50d00d" y="431.712"/>
      </g>
     </g>
    </g>
    <g id="ytick_16">
     <g id="line2d_40">
      <g>
       <use style="stroke:#000000;stroke-width:4;" x="64.29" xlink:href="#m0d2c50d00d" y="400.032"/>
      </g>
     </g>
     <g id="text_18">
      <!-- 2 -->
      <g transform="translate(43.1807 406.21635)scale(0.1728 -0.1728)">
       <use xlink:href="#Arial-BoldMT-50"/>
      </g>
     </g>
    </g>
    <g id="ytick_17">
     <g id="line2d_41">
      <g>
       <use style="stroke:#000000;stroke-width:4;" x="64.29" xlink:href="#m0d2c50d00d" y="368.352"/>
      </g>
     </g>
    </g>
    <g id="ytick_18">
     <g id="line2d_42">
      <g>
       <use style="stroke:#000000;stroke-width:4;" x="64.29" xlink:href="#m0d2c50d00d" y="336.672"/>
      </g>
     </g>
     <g id="text_19">
      <!-- 3 -->
      <g transform="translate(43.1807 342.85635)scale(0.1728 -0.1728)">
       <use xlink:href="#Arial-BoldMT-51"/>
      </g>
     </g>
    </g>
   </g>
   <g id="LineCollection_5">
    <path clip-path="url(#pb7f0f22c89)" d="M 93.403043 470.511512 
L 93.403043 456.272488 
" style="fill:none;stroke:#808080;stroke-opacity:0.6;stroke-width:5;"/>
    <path clip-path="url(#pb7f0f22c89)" d="M 137.072609 456.71127 
L 137.072609 443.827853 
" style="fill:none;stroke:#808080;stroke-opacity:0.6;stroke-width:5;"/>
    <path clip-path="url(#pb7f0f22c89)" d="M 180.742174 481.275895 
L 180.742174 471.688145 
" style="fill:none;stroke:#808080;stroke-opacity:0.6;stroke-width:5;"/>
   </g>
   <g id="LineCollection_6">
    <path clip-path="url(#pb7f0f22c89)" d="M 93.403043 462.35685 
L 93.403043 436.594549 
" style="fill:none;stroke:#50a2d5;stroke-opacity:0.8;stroke-width:5;"/>
    <path clip-path="url(#pb7f0f22c89)" d="M 137.072609 461.689139 
L 137.072609 440.196204 
" style="fill:none;stroke:#50a2d5;stroke-opacity:0.8;stroke-width:5;"/>
    <path clip-path="url(#pb7f0f22c89)" d="M 180.742174 519.03179 
L 180.742174 509.280589 
" style="fill:none;stroke:#50a2d5;stroke-opacity:0.8;stroke-width:5;"/>
   </g>
   <g id="line2d_43">
    <g clip-path="url(#pb7f0f22c89)">
     <use style="fill:#808080;fill-opacity:0.6;stroke:#808080;stroke-opacity:0.6;stroke-width:4;" x="93.403043" xlink:href="#m070081dbe3" y="470.511512"/>
     <use style="fill:#808080;fill-opacity:0.6;stroke:#808080;stroke-opacity:0.6;stroke-width:4;" x="137.072609" xlink:href="#m070081dbe3" y="456.71127"/>
     <use style="fill:#808080;fill-opacity:0.6;stroke:#808080;stroke-opacity:0.6;stroke-width:4;" x="180.742174" xlink:href="#m070081dbe3" y="481.275895"/>
    </g>
   </g>
   <g id="line2d_44">
    <g clip-path="url(#pb7f0f22c89)">
     <use style="fill:#808080;fill-opacity:0.6;stroke:#808080;stroke-opacity:0.6;stroke-width:4;" x="93.403043" xlink:href="#m070081dbe3" y="456.272488"/>
     <use style="fill:#808080;fill-opacity:0.6;stroke:#808080;stroke-opacity:0.6;stroke-width:4;" x="137.072609" xlink:href="#m070081dbe3" y="443.827853"/>
     <use style="fill:#808080;fill-opacity:0.6;stroke:#808080;stroke-opacity:0.6;stroke-width:4;" x="180.742174" xlink:href="#m070081dbe3" y="471.688145"/>
    </g>
   </g>
   <g id="line2d_45">
    <defs>
     <path d="M 4 0 
L -4 -0 
" id="m2be133f41a" style="stroke:#50a2d5;stroke-opacity:0.8;stroke-width:4;"/>
    </defs>
    <g clip-path="url(#pb7f0f22c89)">
     <use style="fill:#50a2d5;fill-opacity:0.8;stroke:#50a2d5;stroke-opacity:0.8;stroke-width:4;" x="93.403043" xlink:href="#m2be133f41a" y="462.35685"/>
     <use style="fill:#50a2d5;fill-opacity:0.8;stroke:#50a2d5;stroke-opacity:0.8;stroke-width:4;" x="137.072609" xlink:href="#m2be133f41a" y="461.689139"/>
     <use style="fill:#50a2d5;fill-opacity:0.8;stroke:#50a2d5;stroke-opacity:0.8;stroke-width:4;" x="180.742174" xlink:href="#m2be133f41a" y="519.03179"/>
    </g>
   </g>
   <g id="line2d_46">
    <g clip-path="url(#pb7f0f22c89)">
     <use style="fill:#50a2d5;fill-opacity:0.8;stroke:#50a2d5;stroke-opacity:0.8;stroke-width:4;" x="93.403043" xlink:href="#m2be133f41a" y="436.594549"/>
     <use style="fill:#50a2d5;fill-opacity:0.8;stroke:#50a2d5;stroke-opacity:0.8;stroke-width:4;" x="137.072609" xlink:href="#m2be133f41a" y="440.196204"/>
     <use style="fill:#50a2d5;fill-opacity:0.8;stroke:#50a2d5;stroke-opacity:0.8;stroke-width:4;" x="180.742174" xlink:href="#m2be133f41a" y="509.280589"/>
    </g>
   </g>
   <g id="line2d_47">
    <path clip-path="url(#pb7f0f22c89)" d="M 137.072609 402.788819 
L 180.742174 402.788819 
" style="fill:none;stroke:#808080;stroke-linecap:square;stroke-width:3;"/>
   </g>
   <g id="line2d_48">
    <path clip-path="url(#pb7f0f22c89)" d="M 93.403043 374.12294 
L 180.742174 374.12294 
" style="fill:none;stroke:#50a2d5;stroke-linecap:square;stroke-width:3;"/>
   </g>
   <g id="line2d_49">
    <path clip-path="url(#pb7f0f22c89)" d="M 137.072609 353.334176 
L 180.742174 353.334176 
" style="fill:none;stroke:#50a2d5;stroke-linecap:square;stroke-width:3;"/>
   </g>
   <g id="line2d_50">
    <path clip-path="url(#pb7f0f22c89)" d="M 93.403043 463.392 
L 137.072609 450.269561 
L 180.742174 476.48202 
" style="fill:none;stroke:#808080;stroke-linecap:square;stroke-opacity:0.6;stroke-width:5;"/>
    <g clip-path="url(#pb7f0f22c89)">
     <use style="fill:#808080;fill-opacity:0.6;stroke:#808080;stroke-linejoin:miter;stroke-opacity:0.6;stroke-width:4;" x="93.403043" xlink:href="#m7a87a40978" y="463.392"/>
     <use style="fill:#808080;fill-opacity:0.6;stroke:#808080;stroke-linejoin:miter;stroke-opacity:0.6;stroke-width:4;" x="137.072609" xlink:href="#m7a87a40978" y="450.269561"/>
     <use style="fill:#808080;fill-opacity:0.6;stroke:#808080;stroke-linejoin:miter;stroke-opacity:0.6;stroke-width:4;" x="180.742174" xlink:href="#m7a87a40978" y="476.48202"/>
    </g>
   </g>
   <g id="line2d_51">
    <path clip-path="url(#pb7f0f22c89)" d="M 93.403043 449.4757 
L 137.072609 450.942671 
L 180.742174 514.15619 
" style="fill:none;stroke:#50a2d5;stroke-linecap:square;stroke-opacity:0.8;stroke-width:5;"/>
    <defs>
     <path d="M 0 5 
C 1.326016 5 2.597899 4.473168 3.535534 3.535534 
C 4.473168 2.597899 5 1.326016 5 0 
C 5 -1.326016 4.473168 -2.597899 3.535534 -3.535534 
C 2.597899 -4.473168 1.326016 -5 0 -5 
C -1.326016 -5 -2.597899 -4.473168 -3.535534 -3.535534 
C -4.473168 -2.597899 -5 -1.326016 -5 0 
C -5 1.326016 -4.473168 2.597899 -3.535534 3.535534 
C -2.597899 4.473168 -1.326016 5 0 5 
z
" id="mceee36b448" style="stroke:#50a2d5;stroke-opacity:0.8;stroke-width:4;"/>
    </defs>
    <g clip-path="url(#pb7f0f22c89)">
     <use style="fill:#50a2d5;fill-opacity:0.8;stroke:#50a2d5;stroke-opacity:0.8;stroke-width:4;" x="93.403043" xlink:href="#mceee36b448" y="449.4757"/>
     <use style="fill:#50a2d5;fill-opacity:0.8;stroke:#50a2d5;stroke-opacity:0.8;stroke-width:4;" x="137.072609" xlink:href="#mceee36b448" y="450.942671"/>
     <use style="fill:#50a2d5;fill-opacity:0.8;stroke:#50a2d5;stroke-opacity:0.8;stroke-width:4;" x="180.742174" xlink:href="#mceee36b448" y="514.15619"/>
    </g>
   </g>
   <g id="patch_7">
    <path d="M 64.29 558.432 
L 64.29 336.672 
" style="fill:none;stroke:#000000;stroke-linecap:square;stroke-linejoin:miter;stroke-width:4;"/>
   </g>
   <g id="patch_8">
    <path d="M 64.29 558.432 
L 209.855217 558.432 
" style="fill:none;stroke:#000000;stroke-linecap:square;stroke-linejoin:miter;stroke-width:4;"/>
   </g>
   <g id="text_20">
    <!-- + -->
    <g style="fill:#808080;" transform="translate(154.818954 396.985798)scale(0.14 -0.14)">
     <use xlink:href="#Arial-BoldMT-43"/>
    </g>
   </g>
   <g id="text_21">
    <!-- *** -->
    <g style="fill:#50a2d5;" transform="translate(125.396046 376.796857)scale(0.2 -0.2)">
     <use xlink:href="#Arial-BoldMT-42"/>
     <use x="38.916016" xlink:href="#Arial-BoldMT-42"/>
     <use x="77.832031" xlink:href="#Arial-BoldMT-42"/>
    </g>
   </g>
   <g id="text_22">
    <!-- *** -->
    <g style="fill:#50a2d5;" transform="translate(147.230829 356.008093)scale(0.2 -0.2)">
     <use xlink:href="#Arial-BoldMT-42"/>
     <use x="38.916016" xlink:href="#Arial-BoldMT-42"/>
     <use x="77.832031" xlink:href="#Arial-BoldMT-42"/>
    </g>
   </g>
  </g>
  <g id="axes_4">
   <g id="patch_9">
    <path d="M 253.524783 558.432 
L 399.09 558.432 
L 399.09 336.672 
L 253.524783 336.672 
z
" style="fill:#ffffff;"/>
   </g>
   <g id="line2d_52">
    <path clip-path="url(#p57dced6cbd)" d="M 253.524783 463.392 
L 399.09 463.392 
" style="fill:none;stroke:#000000;stroke-dasharray:12,6;stroke-dashoffset:0;stroke-opacity:0.5;stroke-width:3;"/>
   </g>
   <g id="matplotlib.axis_7">
    <g id="xtick_10">
     <g id="line2d_53">
      <g>
       <use style="stroke:#000000;stroke-width:4;" x="282.637826" xlink:href="#m7e85066241" y="558.432"/>
      </g>
     </g>
     <g id="text_23">
      <!-- 1 -->
      <g transform="translate(277.833176 582.3007)scale(0.1728 -0.1728)">
       <use xlink:href="#Arial-BoldMT-49"/>
      </g>
     </g>
    </g>
    <g id="xtick_11">
     <g id="line2d_54">
      <g>
       <use style="stroke:#000000;stroke-width:4;" x="326.307391" xlink:href="#m7e85066241" y="558.432"/>
      </g>
     </g>
     <g id="text_24">
      <!-- 2 -->
      <g transform="translate(321.502741 582.3007)scale(0.1728 -0.1728)">
       <use xlink:href="#Arial-BoldMT-50"/>
      </g>
     </g>
    </g>
    <g id="xtick_12">
     <g id="line2d_55">
      <g>
       <use style="stroke:#000000;stroke-width:4;" x="369.976957" xlink:href="#m7e85066241" y="558.432"/>
      </g>
     </g>
     <g id="text_25">
      <!-- 3 -->
      <g transform="translate(365.172307 582.3007)scale(0.1728 -0.1728)">
       <use xlink:href="#Arial-BoldMT-51"/>
      </g>
     </g>
    </g>
   </g>
   <g id="matplotlib.axis_8">
    <g id="ytick_19">
     <g id="line2d_56">
      <g>
       <use style="stroke:#000000;stroke-width:4;" x="253.524783" xlink:href="#m0d2c50d00d" y="558.432"/>
      </g>
     </g>
    </g>
    <g id="ytick_20">
     <g id="line2d_57">
      <g>
       <use style="stroke:#000000;stroke-width:4;" x="253.524783" xlink:href="#m0d2c50d00d" y="526.752"/>
      </g>
     </g>
    </g>
    <g id="ytick_21">
     <g id="line2d_58">
      <g>
       <use style="stroke:#000000;stroke-width:4;" x="253.524783" xlink:href="#m0d2c50d00d" y="495.072"/>
      </g>
     </g>
    </g>
    <g id="ytick_22">
     <g id="line2d_59">
      <g>
       <use style="stroke:#000000;stroke-width:4;" x="253.524783" xlink:href="#m0d2c50d00d" y="463.392"/>
      </g>
     </g>
    </g>
    <g id="ytick_23">
     <g id="line2d_60">
      <g>
       <use style="stroke:#000000;stroke-width:4;" x="253.524783" xlink:href="#m0d2c50d00d" y="431.712"/>
      </g>
     </g>
    </g>
    <g id="ytick_24">
     <g id="line2d_61">
      <g>
       <use style="stroke:#000000;stroke-width:4;" x="253.524783" xlink:href="#m0d2c50d00d" y="400.032"/>
      </g>
     </g>
    </g>
    <g id="ytick_25">
     <g id="line2d_62">
      <g>
       <use style="stroke:#000000;stroke-width:4;" x="253.524783" xlink:href="#m0d2c50d00d" y="368.352"/>
      </g>
     </g>
    </g>
    <g id="ytick_26">
     <g id="line2d_63">
      <g>
       <use style="stroke:#000000;stroke-width:4;" x="253.524783" xlink:href="#m0d2c50d00d" y="336.672"/>
      </g>
     </g>
    </g>
   </g>
   <g id="LineCollection_7">
    <path clip-path="url(#p57dced6cbd)" d="M 282.637826 470.672952 
L 282.637826 456.111048 
" style="fill:none;stroke:#808080;stroke-opacity:0.6;stroke-width:5;"/>
    <path clip-path="url(#p57dced6cbd)" d="M 326.307391 484.540983 
L 326.307391 472.083987 
" style="fill:none;stroke:#808080;stroke-opacity:0.6;stroke-width:5;"/>
    <path clip-path="url(#p57dced6cbd)" d="M 369.976957 496.760781 
L 369.976957 483.954624 
" style="fill:none;stroke:#808080;stroke-opacity:0.6;stroke-width:5;"/>
   </g>
   <g id="LineCollection_8">
    <path clip-path="url(#p57dced6cbd)" d="M 282.637826 433.12239 
L 282.637826 388.255273 
" style="fill:none;stroke:#22567a;stroke-opacity:0.8;stroke-width:5;"/>
    <path clip-path="url(#p57dced6cbd)" d="M 326.307391 461.580187 
L 326.307391 449.519399 
" style="fill:none;stroke:#22567a;stroke-opacity:0.8;stroke-width:5;"/>
    <path clip-path="url(#p57dced6cbd)" d="M 369.976957 469.18652 
L 369.976957 446.912782 
" style="fill:none;stroke:#22567a;stroke-opacity:0.8;stroke-width:5;"/>
   </g>
   <g id="line2d_64">
    <g clip-path="url(#p57dced6cbd)">
     <use style="fill:#808080;fill-opacity:0.6;stroke:#808080;stroke-opacity:0.6;stroke-width:4;" x="282.637826" xlink:href="#m070081dbe3" y="470.672952"/>
     <use style="fill:#808080;fill-opacity:0.6;stroke:#808080;stroke-opacity:0.6;stroke-width:4;" x="326.307391" xlink:href="#m070081dbe3" y="484.540983"/>
     <use style="fill:#808080;fill-opacity:0.6;stroke:#808080;stroke-opacity:0.6;stroke-width:4;" x="369.976957" xlink:href="#m070081dbe3" y="496.760781"/>
    </g>
   </g>
   <g id="line2d_65">
    <g clip-path="url(#p57dced6cbd)">
     <use style="fill:#808080;fill-opacity:0.6;stroke:#808080;stroke-opacity:0.6;stroke-width:4;" x="282.637826" xlink:href="#m070081dbe3" y="456.111048"/>
     <use style="fill:#808080;fill-opacity:0.6;stroke:#808080;stroke-opacity:0.6;stroke-width:4;" x="326.307391" xlink:href="#m070081dbe3" y="472.083987"/>
     <use style="fill:#808080;fill-opacity:0.6;stroke:#808080;stroke-opacity:0.6;stroke-width:4;" x="369.976957" xlink:href="#m070081dbe3" y="483.954624"/>
    </g>
   </g>
   <g id="line2d_66">
    <defs>
     <path d="M 4 0 
L -4 -0 
" id="mf175f31abc" style="stroke:#22567a;stroke-opacity:0.8;stroke-width:4;"/>
    </defs>
    <g clip-path="url(#p57dced6cbd)">
     <use style="fill:#22567a;fill-opacity:0.8;stroke:#22567a;stroke-opacity:0.8;stroke-width:4;" x="282.637826" xlink:href="#mf175f31abc" y="433.12239"/>
     <use style="fill:#22567a;fill-opacity:0.8;stroke:#22567a;stroke-opacity:0.8;stroke-width:4;" x="326.307391" xlink:href="#mf175f31abc" y="461.580187"/>
     <use style="fill:#22567a;fill-opacity:0.8;stroke:#22567a;stroke-opacity:0.8;stroke-width:4;" x="369.976957" xlink:href="#mf175f31abc" y="469.18652"/>
    </g>
   </g>
   <g id="line2d_67">
    <g clip-path="url(#p57dced6cbd)">
     <use style="fill:#22567a;fill-opacity:0.8;stroke:#22567a;stroke-opacity:0.8;stroke-width:4;" x="282.637826" xlink:href="#mf175f31abc" y="388.255273"/>
     <use style="fill:#22567a;fill-opacity:0.8;stroke:#22567a;stroke-opacity:0.8;stroke-width:4;" x="326.307391" xlink:href="#mf175f31abc" y="449.519399"/>
     <use style="fill:#22567a;fill-opacity:0.8;stroke:#22567a;stroke-opacity:0.8;stroke-width:4;" x="369.976957" xlink:href="#mf175f31abc" y="446.912782"/>
    </g>
   </g>
   <g id="line2d_68">
    <path clip-path="url(#p57dced6cbd)" d="M 282.637826 463.392 
L 326.307391 478.312485 
L 369.976957 490.357703 
" style="fill:none;stroke:#808080;stroke-dasharray:15,10;stroke-dashoffset:0;stroke-opacity:0.6;stroke-width:5;"/>
    <g clip-path="url(#p57dced6cbd)">
     <use style="fill:#808080;fill-opacity:0.6;stroke:#808080;stroke-linejoin:miter;stroke-opacity:0.6;stroke-width:4;" x="282.637826" xlink:href="#m7a87a40978" y="463.392"/>
     <use style="fill:#808080;fill-opacity:0.6;stroke:#808080;stroke-linejoin:miter;stroke-opacity:0.6;stroke-width:4;" x="326.307391" xlink:href="#m7a87a40978" y="478.312485"/>
     <use style="fill:#808080;fill-opacity:0.6;stroke:#808080;stroke-linejoin:miter;stroke-opacity:0.6;stroke-width:4;" x="369.976957" xlink:href="#m7a87a40978" y="490.357703"/>
    </g>
   </g>
   <g id="line2d_69">
    <path clip-path="url(#p57dced6cbd)" d="M 282.637826 410.688831 
L 326.307391 455.549793 
L 369.976957 458.049651 
" style="fill:none;stroke:#22567a;stroke-dasharray:15,10;stroke-dashoffset:0;stroke-opacity:0.8;stroke-width:5;"/>
    <defs>
     <path d="M 0 5 
C 1.326016 5 2.597899 4.473168 3.535534 3.535534 
C 4.473168 2.597899 5 1.326016 5 0 
C 5 -1.326016 4.473168 -2.597899 3.535534 -3.535534 
C 2.597899 -4.473168 1.326016 -5 0 -5 
C -1.326016 -5 -2.597899 -4.473168 -3.535534 -3.535534 
C -4.473168 -2.597899 -5 -1.326016 -5 0 
C -5 1.326016 -4.473168 2.597899 -3.535534 3.535534 
C -2.597899 4.473168 -1.326016 5 0 5 
z
" id="m8984212bfc" style="stroke:#22567a;stroke-opacity:0.8;stroke-width:4;"/>
    </defs>
    <g clip-path="url(#p57dced6cbd)">
     <use style="fill:#22567a;fill-opacity:0.8;stroke:#22567a;stroke-opacity:0.8;stroke-width:4;" x="282.637826" xlink:href="#m8984212bfc" y="410.688831"/>
     <use style="fill:#22567a;fill-opacity:0.8;stroke:#22567a;stroke-opacity:0.8;stroke-width:4;" x="326.307391" xlink:href="#m8984212bfc" y="455.549793"/>
     <use style="fill:#22567a;fill-opacity:0.8;stroke:#22567a;stroke-opacity:0.8;stroke-width:4;" x="369.976957" xlink:href="#m8984212bfc" y="458.049651"/>
    </g>
   </g>
   <g id="patch_10">
    <path d="M 253.524783 558.432 
L 253.524783 336.672 
" style="fill:none;stroke:#000000;stroke-linecap:square;stroke-linejoin:miter;stroke-width:4;"/>
   </g>
   <g id="patch_11">
    <path d="M 253.524783 558.432 
L 399.09 558.432 
" style="fill:none;stroke:#000000;stroke-linecap:square;stroke-linejoin:miter;stroke-width:4;"/>
   </g>
  </g>
  <g id="text_26">
   <!-- Gabor ABC vs UG, relative to session 1 -->
   <g transform="translate(65.29035 19.5687)scale(0.1728 -0.1728)">
    <defs>
     <path d="M 40.578125 26.3125 
L 40.578125 38.375 
L 71.734375 38.375 
L 71.734375 9.859375 
Q 67.1875 5.46875 58.5625 2.125 
Q 49.953125 -1.21875 41.109375 -1.21875 
Q 29.890625 -1.21875 21.53125 3.484375 
Q 13.1875 8.203125 8.984375 16.96875 
Q 4.78125 25.734375 4.78125 36.03125 
Q 4.78125 47.21875 9.46875 55.90625 
Q 14.15625 64.59375 23.1875 69.234375 
Q 30.078125 72.796875 40.328125 72.796875 
Q 53.65625 72.796875 61.15625 67.203125 
Q 68.65625 61.625 70.796875 51.765625 
L 56.453125 49.078125 
Q 54.9375 54.34375 50.75 57.390625 
Q 46.578125 60.453125 40.328125 60.453125 
Q 30.859375 60.453125 25.265625 54.4375 
Q 19.671875 48.4375 19.671875 36.625 
Q 19.671875 23.875 25.328125 17.5 
Q 31 11.140625 40.1875 11.140625 
Q 44.734375 11.140625 49.296875 12.921875 
Q 53.859375 14.703125 57.125 17.234375 
L 57.125 26.3125 
z
" id="Arial-BoldMT-71"/>
     <path d="M 17.4375 36.03125 
L 4.984375 38.28125 
Q 7.078125 45.796875 12.203125 49.40625 
Q 17.328125 53.03125 27.4375 53.03125 
Q 36.625 53.03125 41.109375 50.859375 
Q 45.609375 48.6875 47.4375 45.34375 
Q 49.265625 42 49.265625 33.0625 
L 49.125 17.046875 
Q 49.125 10.203125 49.78125 6.953125 
Q 50.4375 3.71875 52.25 0 
L 38.671875 0 
Q 38.140625 1.375 37.359375 4.046875 
Q 37.015625 5.28125 36.859375 5.671875 
Q 33.34375 2.25 29.34375 0.53125 
Q 25.34375 -1.171875 20.796875 -1.171875 
Q 12.796875 -1.171875 8.171875 3.171875 
Q 3.5625 7.515625 3.5625 14.15625 
Q 3.5625 18.5625 5.65625 22 
Q 7.765625 25.4375 11.546875 27.265625 
Q 15.328125 29.109375 22.46875 30.46875 
Q 32.078125 32.28125 35.796875 33.84375 
L 35.796875 35.203125 
Q 35.796875 39.15625 33.84375 40.84375 
Q 31.890625 42.53125 26.46875 42.53125 
Q 22.796875 42.53125 20.75 41.09375 
Q 18.703125 39.65625 17.4375 36.03125 
z
M 35.796875 24.90625 
Q 33.15625 24.03125 27.4375 22.796875 
Q 21.734375 21.578125 19.96875 20.40625 
Q 17.28125 18.5 17.28125 15.578125 
Q 17.28125 12.703125 19.421875 10.59375 
Q 21.578125 8.5 24.90625 8.5 
Q 28.609375 8.5 31.984375 10.9375 
Q 34.46875 12.796875 35.25 15.484375 
Q 35.796875 17.234375 35.796875 22.171875 
z
" id="Arial-BoldMT-97"/>
     <path d="M 6.59375 0 
L 6.59375 71.578125 
L 20.3125 71.578125 
L 20.3125 45.796875 
Q 26.65625 53.03125 35.359375 53.03125 
Q 44.828125 53.03125 51.03125 46.171875 
Q 57.234375 39.3125 57.234375 26.46875 
Q 57.234375 13.1875 50.90625 6 
Q 44.578125 -1.171875 35.546875 -1.171875 
Q 31.109375 -1.171875 26.78125 1.046875 
Q 22.46875 3.265625 19.34375 7.625 
L 19.34375 0 
z
M 20.21875 27.046875 
Q 20.21875 19 22.75 15.140625 
Q 26.3125 9.671875 32.234375 9.671875 
Q 36.765625 9.671875 39.96875 13.546875 
Q 43.171875 17.4375 43.171875 25.78125 
Q 43.171875 34.671875 39.9375 38.59375 
Q 36.71875 42.53125 31.6875 42.53125 
Q 26.765625 42.53125 23.484375 38.6875 
Q 20.21875 34.859375 20.21875 27.046875 
z
" id="Arial-BoldMT-98"/>
     <path d="M 4 26.65625 
Q 4 33.5 7.375 39.890625 
Q 10.75 46.296875 16.921875 49.65625 
Q 23.09375 53.03125 30.71875 53.03125 
Q 42.484375 53.03125 50 45.390625 
Q 57.515625 37.75 57.515625 26.078125 
Q 57.515625 14.3125 49.921875 6.5625 
Q 42.328125 -1.171875 30.8125 -1.171875 
Q 23.6875 -1.171875 17.21875 2.046875 
Q 10.75 5.28125 7.375 11.5 
Q 4 17.71875 4 26.65625 
z
M 18.0625 25.921875 
Q 18.0625 18.21875 21.71875 14.109375 
Q 25.390625 10.015625 30.765625 10.015625 
Q 36.140625 10.015625 39.765625 14.109375 
Q 43.40625 18.21875 43.40625 26.03125 
Q 43.40625 33.640625 39.765625 37.734375 
Q 36.140625 41.84375 30.765625 41.84375 
Q 25.390625 41.84375 21.71875 37.734375 
Q 18.0625 33.640625 18.0625 25.921875 
z
" id="Arial-BoldMT-111"/>
     <path d="M 71.828125 0 
L 56.109375 0 
L 49.859375 16.265625 
L 21.234375 16.265625 
L 15.328125 0 
L 0 0 
L 27.875 71.578125 
L 43.171875 71.578125 
z
M 45.21875 28.328125 
L 35.359375 54.890625 
L 25.6875 28.328125 
z
" id="Arial-BoldMT-65"/>
     <path d="M 7.328125 71.578125 
L 35.9375 71.578125 
Q 44.4375 71.578125 48.609375 70.875 
Q 52.78125 70.171875 56.078125 67.921875 
Q 59.375 65.671875 61.5625 61.9375 
Q 63.765625 58.203125 63.765625 53.5625 
Q 63.765625 48.53125 61.046875 44.328125 
Q 58.34375 40.140625 53.71875 38.03125 
Q 60.25 36.140625 63.765625 31.546875 
Q 67.28125 26.953125 67.28125 20.75 
Q 67.28125 15.875 65.015625 11.25 
Q 62.75 6.640625 58.8125 3.875 
Q 54.890625 1.125 49.125 0.484375 
Q 45.515625 0.09375 31.6875 0 
L 7.328125 0 
z
M 21.78125 59.671875 
L 21.78125 43.109375 
L 31.25 43.109375 
Q 39.703125 43.109375 41.75 43.359375 
Q 45.453125 43.796875 47.578125 45.921875 
Q 49.703125 48.046875 49.703125 51.515625 
Q 49.703125 54.828125 47.875 56.90625 
Q 46.046875 58.984375 42.4375 59.421875 
Q 40.28125 59.671875 30.078125 59.671875 
z
M 21.78125 31.203125 
L 21.78125 12.0625 
L 35.15625 12.0625 
Q 42.96875 12.0625 45.0625 12.5 
Q 48.296875 13.09375 50.3125 15.359375 
Q 52.34375 17.625 52.34375 21.4375 
Q 52.34375 24.65625 50.78125 26.90625 
Q 49.21875 29.15625 46.265625 30.171875 
Q 43.3125 31.203125 33.453125 31.203125 
z
" id="Arial-BoldMT-66"/>
     <path d="M 53.078125 26.3125 
L 67.09375 21.875 
Q 63.875 10.15625 56.375 4.46875 
Q 48.875 -1.21875 37.359375 -1.21875 
Q 23.09375 -1.21875 13.90625 8.515625 
Q 4.734375 18.265625 4.734375 35.15625 
Q 4.734375 53.03125 13.953125 62.90625 
Q 23.1875 72.796875 38.234375 72.796875 
Q 51.375 72.796875 59.578125 65.046875 
Q 64.453125 60.453125 66.890625 51.859375 
L 52.59375 48.4375 
Q 51.3125 54 47.28125 57.21875 
Q 43.265625 60.453125 37.5 60.453125 
Q 29.546875 60.453125 24.578125 54.734375 
Q 19.625 49.03125 19.625 36.234375 
Q 19.625 22.65625 24.5 16.890625 
Q 29.390625 11.140625 37.203125 11.140625 
Q 42.96875 11.140625 47.109375 14.796875 
Q 51.265625 18.453125 53.078125 26.3125 
z
" id="Arial-BoldMT-67"/>
     <path d="M 21.4375 0 
L 0.53125 51.859375 
L 14.9375 51.859375 
L 24.703125 25.390625 
L 27.546875 16.546875 
Q 28.65625 19.921875 28.953125 21 
Q 29.640625 23.1875 30.421875 25.390625 
L 40.28125 51.859375 
L 54.390625 51.859375 
L 33.796875 0 
z
" id="Arial-BoldMT-118"/>
     <path d="M 2.34375 14.796875 
L 16.109375 16.890625 
Q 17 12.890625 19.671875 10.8125 
Q 22.359375 8.734375 27.203125 8.734375 
Q 32.515625 8.734375 35.203125 10.6875 
Q 37.015625 12.0625 37.015625 14.359375 
Q 37.015625 15.921875 36.03125 16.9375 
Q 35.015625 17.921875 31.453125 18.75 
Q 14.84375 22.40625 10.40625 25.4375 
Q 4.25 29.640625 4.25 37.109375 
Q 4.25 43.84375 9.5625 48.4375 
Q 14.890625 53.03125 26.078125 53.03125 
Q 36.71875 53.03125 41.890625 49.5625 
Q 47.078125 46.09375 49.03125 39.3125 
L 36.078125 36.921875 
Q 35.25 39.9375 32.921875 41.546875 
Q 30.609375 43.171875 26.3125 43.171875 
Q 20.90625 43.171875 18.5625 41.65625 
Q 17 40.578125 17 38.875 
Q 17 37.40625 18.359375 36.375 
Q 20.21875 35.015625 31.171875 32.515625 
Q 42.140625 30.03125 46.484375 26.421875 
Q 50.78125 22.75 50.78125 16.21875 
Q 50.78125 9.078125 44.828125 3.953125 
Q 38.875 -1.171875 27.203125 -1.171875 
Q 16.609375 -1.171875 10.421875 3.125 
Q 4.25 7.421875 2.34375 14.796875 
z
" id="Arial-BoldMT-115"/>
     <path d="M 7.171875 71.578125 
L 21.625 71.578125 
L 21.625 32.8125 
Q 21.625 23.578125 22.171875 20.84375 
Q 23.09375 16.453125 26.578125 13.796875 
Q 30.078125 11.140625 36.140625 11.140625 
Q 42.28125 11.140625 45.40625 13.640625 
Q 48.53125 16.15625 49.171875 19.8125 
Q 49.8125 23.484375 49.8125 31.984375 
L 49.8125 71.578125 
L 64.265625 71.578125 
L 64.265625 33.984375 
Q 64.265625 21.09375 63.09375 15.765625 
Q 61.921875 10.453125 58.765625 6.78125 
Q 55.609375 3.125 50.328125 0.953125 
Q 45.0625 -1.21875 36.578125 -1.21875 
Q 26.3125 -1.21875 21.015625 1.140625 
Q 15.71875 3.515625 12.640625 7.296875 
Q 9.578125 11.078125 8.59375 15.234375 
Q 7.171875 21.390625 7.171875 33.40625 
z
" id="Arial-BoldMT-85"/>
     <path d="M 6.84375 13.71875 
L 20.5625 13.71875 
L 20.5625 3.90625 
Q 20.5625 -2.046875 19.53125 -5.484375 
Q 18.5 -8.9375 15.640625 -11.671875 
Q 12.796875 -14.40625 8.40625 -15.96875 
L 5.71875 -10.296875 
Q 9.859375 -8.9375 11.609375 -6.546875 
Q 13.375 -4.15625 13.484375 0 
L 6.84375 0 
z
" id="Arial-BoldMT-44"/>
     <path d="M 37.203125 16.5 
L 50.875 14.203125 
Q 48.25 6.6875 42.546875 2.75 
Q 36.859375 -1.171875 28.328125 -1.171875 
Q 14.796875 -1.171875 8.296875 7.671875 
Q 3.171875 14.75 3.171875 25.53125 
Q 3.171875 38.421875 9.90625 45.71875 
Q 16.65625 53.03125 26.953125 53.03125 
Q 38.53125 53.03125 45.21875 45.390625 
Q 51.90625 37.75 51.609375 21.96875 
L 17.234375 21.96875 
Q 17.390625 15.875 20.5625 12.46875 
Q 23.734375 9.078125 28.46875 9.078125 
Q 31.6875 9.078125 33.875 10.828125 
Q 36.078125 12.59375 37.203125 16.5 
z
M 37.984375 30.375 
Q 37.84375 36.328125 34.90625 39.421875 
Q 31.984375 42.53125 27.78125 42.53125 
Q 23.296875 42.53125 20.359375 39.265625 
Q 17.4375 35.984375 17.484375 30.375 
z
" id="Arial-BoldMT-101"/>
     <path d="M 7.171875 0 
L 7.171875 71.578125 
L 20.90625 71.578125 
L 20.90625 0 
z
" id="Arial-BoldMT-108"/>
     <path d="M 30.953125 51.859375 
L 30.953125 40.921875 
L 21.578125 40.921875 
L 21.578125 20.015625 
Q 21.578125 13.671875 21.84375 12.625 
Q 22.125 11.578125 23.078125 10.890625 
Q 24.03125 10.203125 25.390625 10.203125 
Q 27.296875 10.203125 30.90625 11.53125 
L 32.078125 0.875 
Q 27.296875 -1.171875 21.234375 -1.171875 
Q 17.53125 -1.171875 14.546875 0.0625 
Q 11.578125 1.3125 10.1875 3.296875 
Q 8.796875 5.28125 8.25 8.640625 
Q 7.8125 11.03125 7.8125 18.3125 
L 7.8125 40.921875 
L 1.515625 40.921875 
L 1.515625 51.859375 
L 7.8125 51.859375 
L 7.8125 62.15625 
L 21.578125 70.171875 
L 21.578125 51.859375 
z
" id="Arial-BoldMT-116"/>
     <path d="M 7.171875 58.890625 
L 7.171875 71.578125 
L 20.90625 71.578125 
L 20.90625 58.890625 
z
M 7.171875 0 
L 7.171875 51.859375 
L 20.90625 51.859375 
L 20.90625 0 
z
" id="Arial-BoldMT-105"/>
     <path d="M 54.34375 0 
L 40.625 0 
L 40.625 26.46875 
Q 40.625 34.859375 39.75 37.328125 
Q 38.875 39.796875 36.890625 41.15625 
Q 34.90625 42.53125 32.125 42.53125 
Q 28.5625 42.53125 25.734375 40.578125 
Q 22.90625 38.625 21.84375 35.390625 
Q 20.796875 32.171875 20.796875 23.484375 
L 20.796875 0 
L 7.078125 0 
L 7.078125 51.859375 
L 19.828125 51.859375 
L 19.828125 44.234375 
Q 26.609375 53.03125 36.921875 53.03125 
Q 41.453125 53.03125 45.203125 51.390625 
Q 48.96875 49.75 50.890625 47.203125 
Q 52.828125 44.671875 53.578125 41.453125 
Q 54.34375 38.234375 54.34375 32.234375 
z
" id="Arial-BoldMT-110"/>
    </defs>
    <use xlink:href="#Arial-BoldMT-71"/>
    <use x="77.783203" xlink:href="#Arial-BoldMT-97"/>
    <use x="133.398438" xlink:href="#Arial-BoldMT-98"/>
    <use x="194.482422" xlink:href="#Arial-BoldMT-111"/>
    <use x="255.566406" xlink:href="#Arial-BoldMT-114"/>
    <use x="294.482422" xlink:href="#Arial-BoldMT-32"/>
    <use x="318.515625" xlink:href="#Arial-BoldMT-65"/>
    <use x="390.732422" xlink:href="#Arial-BoldMT-66"/>
    <use x="462.949219" xlink:href="#Arial-BoldMT-67"/>
    <use x="535.166016" xlink:href="#Arial-BoldMT-32"/>
    <use x="562.949219" xlink:href="#Arial-BoldMT-118"/>
    <use x="618.564453" xlink:href="#Arial-BoldMT-115"/>
    <use x="674.179688" xlink:href="#Arial-BoldMT-32"/>
    <use x="701.962891" xlink:href="#Arial-BoldMT-85"/>
    <use x="774.179688" xlink:href="#Arial-BoldMT-71"/>
    <use x="851.962891" xlink:href="#Arial-BoldMT-44"/>
    <use x="879.746094" xlink:href="#Arial-BoldMT-32"/>
    <use x="907.529297" xlink:href="#Arial-BoldMT-114"/>
    <use x="946.445312" xlink:href="#Arial-BoldMT-101"/>
    <use x="1002.060547" xlink:href="#Arial-BoldMT-108"/>
    <use x="1029.84375" xlink:href="#Arial-BoldMT-97"/>
    <use x="1085.458984" xlink:href="#Arial-BoldMT-116"/>
    <use x="1118.759766" xlink:href="#Arial-BoldMT-105"/>
    <use x="1146.542969" xlink:href="#Arial-BoldMT-118"/>
    <use x="1202.158203" xlink:href="#Arial-BoldMT-101"/>
    <use x="1257.773438" xlink:href="#Arial-BoldMT-32"/>
    <use x="1285.556641" xlink:href="#Arial-BoldMT-116"/>
    <use x="1318.857422" xlink:href="#Arial-BoldMT-111"/>
    <use x="1379.941406" xlink:href="#Arial-BoldMT-32"/>
    <use x="1407.724609" xlink:href="#Arial-BoldMT-115"/>
    <use x="1463.339844" xlink:href="#Arial-BoldMT-101"/>
    <use x="1518.955078" xlink:href="#Arial-BoldMT-115"/>
    <use x="1574.570312" xlink:href="#Arial-BoldMT-115"/>
    <use x="1630.185547" xlink:href="#Arial-BoldMT-105"/>
    <use x="1657.96875" xlink:href="#Arial-BoldMT-111"/>
    <use x="1719.052734" xlink:href="#Arial-BoldMT-110"/>
    <use x="1780.136719" xlink:href="#Arial-BoldMT-32"/>
    <use x="1807.919922" xlink:href="#Arial-BoldMT-49"/>
   </g>
  </g>
  <g id="text_27">
   <!-- dendrites -->
   <g transform="translate(424.4187 220.3254)rotate(-90)scale(0.1728 -0.1728)">
    <defs>
     <path d="M 54.734375 0 
L 42 0 
L 42 7.625 
Q 38.8125 3.171875 34.484375 1 
Q 30.171875 -1.171875 25.78125 -1.171875 
Q 16.84375 -1.171875 10.46875 6.03125 
Q 4.109375 13.234375 4.109375 26.125 
Q 4.109375 39.3125 10.296875 46.171875 
Q 16.5 53.03125 25.984375 53.03125 
Q 34.671875 53.03125 41.015625 45.796875 
L 41.015625 71.578125 
L 54.734375 71.578125 
z
M 18.109375 27.046875 
Q 18.109375 18.75 20.40625 15.046875 
Q 23.734375 9.671875 29.6875 9.671875 
Q 34.421875 9.671875 37.734375 13.6875 
Q 41.0625 17.71875 41.0625 25.734375 
Q 41.0625 34.671875 37.84375 38.59375 
Q 34.625 42.53125 29.59375 42.53125 
Q 24.703125 42.53125 21.40625 38.640625 
Q 18.109375 34.765625 18.109375 27.046875 
z
" id="Arial-BoldMT-100"/>
    </defs>
    <use xlink:href="#Arial-BoldMT-100"/>
    <use x="61.083984" xlink:href="#Arial-BoldMT-101"/>
    <use x="116.699219" xlink:href="#Arial-BoldMT-110"/>
    <use x="177.783203" xlink:href="#Arial-BoldMT-100"/>
    <use x="238.867188" xlink:href="#Arial-BoldMT-114"/>
    <use x="277.783203" xlink:href="#Arial-BoldMT-105"/>
    <use x="305.566406" xlink:href="#Arial-BoldMT-116"/>
    <use x="338.867188" xlink:href="#Arial-BoldMT-101"/>
    <use x="394.482422" xlink:href="#Arial-BoldMT-115"/>
   </g>
  </g>
  <g id="text_28">
   <!-- somata -->
   <g transform="translate(424.4187 477.8028)rotate(-90)scale(0.1728 -0.1728)">
    <defs>
     <path d="M 6.15625 51.859375 
L 18.796875 51.859375 
L 18.796875 44.78125 
Q 25.59375 53.03125 34.96875 53.03125 
Q 39.9375 53.03125 43.59375 50.96875 
Q 47.265625 48.921875 49.609375 44.78125 
Q 53.03125 48.921875 56.984375 50.96875 
Q 60.9375 53.03125 65.4375 53.03125 
Q 71.140625 53.03125 75.09375 50.703125 
Q 79.046875 48.390625 81 43.890625 
Q 82.421875 40.578125 82.421875 33.15625 
L 82.421875 0 
L 68.703125 0 
L 68.703125 29.640625 
Q 68.703125 37.359375 67.28125 39.59375 
Q 65.375 42.53125 61.421875 42.53125 
Q 58.546875 42.53125 56 40.765625 
Q 53.46875 39.015625 52.34375 35.625 
Q 51.21875 32.234375 51.21875 24.90625 
L 51.21875 0 
L 37.5 0 
L 37.5 28.421875 
Q 37.5 35.984375 36.765625 38.171875 
Q 36.03125 40.375 34.484375 41.453125 
Q 32.953125 42.53125 30.328125 42.53125 
Q 27.15625 42.53125 24.609375 40.8125 
Q 22.078125 39.109375 20.96875 35.890625 
Q 19.875 32.671875 19.875 25.203125 
L 19.875 0 
L 6.15625 0 
z
" id="Arial-BoldMT-109"/>
    </defs>
    <use xlink:href="#Arial-BoldMT-115"/>
    <use x="55.615234" xlink:href="#Arial-BoldMT-111"/>
    <use x="116.699219" xlink:href="#Arial-BoldMT-109"/>
    <use x="205.615234" xlink:href="#Arial-BoldMT-97"/>
    <use x="261.230469" xlink:href="#Arial-BoldMT-116"/>
    <use x="294.53125" xlink:href="#Arial-BoldMT-97"/>
   </g>
  </g>
  <g id="text_29">
   <!-- Session -->
   <g transform="translate(193.1583 609.12)scale(0.1728 -0.1728)">
    <defs>
     <path d="M 3.609375 23.296875 
L 17.671875 24.65625 
Q 18.953125 17.578125 22.828125 14.25 
Q 26.703125 10.9375 33.296875 10.9375 
Q 40.28125 10.9375 43.8125 13.890625 
Q 47.359375 16.84375 47.359375 20.796875 
Q 47.359375 23.34375 45.875 25.125 
Q 44.390625 26.90625 40.671875 28.21875 
Q 38.140625 29.109375 29.109375 31.34375 
Q 17.484375 34.234375 12.796875 38.421875 
Q 6.203125 44.34375 6.203125 52.828125 
Q 6.203125 58.296875 9.296875 63.0625 
Q 12.40625 67.828125 18.234375 70.3125 
Q 24.078125 72.796875 32.328125 72.796875 
Q 45.796875 72.796875 52.609375 66.890625 
Q 59.421875 60.984375 59.765625 51.125 
L 45.3125 50.484375 
Q 44.390625 56 41.328125 58.421875 
Q 38.28125 60.84375 32.171875 60.84375 
Q 25.875 60.84375 22.3125 58.25 
Q 20.015625 56.59375 20.015625 53.8125 
Q 20.015625 51.265625 22.171875 49.46875 
Q 24.90625 47.171875 35.453125 44.671875 
Q 46 42.1875 51.046875 39.515625 
Q 56.109375 36.859375 58.953125 32.25 
Q 61.8125 27.640625 61.8125 20.84375 
Q 61.8125 14.703125 58.390625 9.328125 
Q 54.984375 3.953125 48.734375 1.34375 
Q 42.484375 -1.265625 33.15625 -1.265625 
Q 19.578125 -1.265625 12.296875 5 
Q 5.03125 11.28125 3.609375 23.296875 
z
" id="Arial-BoldMT-83"/>
    </defs>
    <use xlink:href="#Arial-BoldMT-83"/>
    <use x="66.699219" xlink:href="#Arial-BoldMT-101"/>
    <use x="122.314453" xlink:href="#Arial-BoldMT-115"/>
    <use x="177.929688" xlink:href="#Arial-BoldMT-115"/>
    <use x="233.544922" xlink:href="#Arial-BoldMT-105"/>
    <use x="261.328125" xlink:href="#Arial-BoldMT-111"/>
    <use x="322.412109" xlink:href="#Arial-BoldMT-110"/>
   </g>
  </g>
  <g id="text_30">
   <!-- F/F -->
   <g transform="translate(19.5687 200.6046)rotate(-90)scale(0.1728 -0.1728)">
    <defs>
     <path d="M 71.828125 0 
L 0 0 
L 27.875 71.578125 
L 43.171875 71.578125 
z
M 51.46875 12.0625 
L 35.359375 54.890625 
L 19.734375 12.0625 
z
" id="Arial-BoldMT-916"/>
     <path d="M 7.375 0 
L 7.375 71.578125 
L 56.453125 71.578125 
L 56.453125 59.46875 
L 21.828125 59.46875 
L 21.828125 42.53125 
L 51.703125 42.53125 
L 51.703125 30.421875 
L 21.828125 30.421875 
L 21.828125 0 
z
" id="Arial-BoldMT-70"/>
    </defs>
    <use xlink:href="#Arial-BoldMT-916"/>
    <use x="71.875" xlink:href="#Arial-BoldMT-70"/>
    <use x="132.958984" xlink:href="#Arial-BoldMT-47"/>
    <use x="160.742188" xlink:href="#Arial-BoldMT-70"/>
   </g>
  </g>
 </g>
 <defs>
  <clipPath id="p7feefcd1b3">
   <rect height="221.76" width="145.565217" x="64.29" y="70.56"/>
  </clipPath>
  <clipPath id="p58109f28ae">
   <rect height="221.76" width="145.565217" x="253.524783" y="70.56"/>
  </clipPath>
  <clipPath id="pb7f0f22c89">
   <rect height="221.76" width="145.565217" x="64.29" y="336.672"/>
  </clipPath>
  <clipPath id="p57dced6cbd">
   <rect height="221.76" width="145.565217" x="253.524783" y="336.672"/>
  </clipPath>
 </defs>
</svg>
