<?xml version="1.0" encoding="utf-8" standalone="no"?>
<!DOCTYPE svg PUBLIC "-//W3C//DTD SVG 1.1//EN"
  "http://www.w3.org/Graphics/SVG/1.1/DTD/svg11.dtd">
<svg xmlns:xlink="http://www.w3.org/1999/xlink" width="569.2449pt" height="380.8656pt" viewBox="0 0 569.2449 380.8656" xmlns="http://www.w3.org/2000/svg" version="1.1">
 <metadata>
  <rdf:RDF xmlns:dc="http://purl.org/dc/elements/1.1/" xmlns:cc="http://creativecommons.org/ns#" xmlns:rdf="http://www.w3.org/1999/02/22-rdf-syntax-ns#">
   <cc:Work>
    <dc:type rdf:resource="http://purl.org/dc/dcmitype/StillImage"/>
    <dc:date>2023-08-25T16:50:41.862514</dc:date>
    <dc:format>image/svg+xml</dc:format>
    <dc:creator>
     <cc:Agent>
      <dc:title>Matplotlib v3.7.2, https://matplotlib.org/</dc:title>
     </cc:Agent>
    </dc:creator>
   </cc:Work>
  </rdf:RDF>
 </metadata>
 <defs>
  <style type="text/css">*{stroke-linejoin: round; stroke-linecap: butt}</style>
 </defs>
 <g id="figure_1">
  <g id="patch_1">
   <path d="M 0 380.8656 
L 569.2449 380.8656 
L 569.2449 0 
L 0 0 
z
" style="fill: #ffffff"/>
  </g>
  <g id="axes_1">
   <g id="patch_2">
    <path d="M 73.4367 180.768 
L 255.393222 180.768 
L 255.393222 62.496 
L 73.4367 62.496 
z
" style="fill: #ffffff"/>
   </g>
   <g id="patch_3">
    <path d="M 81.707451 180.768 
L 81.707451 62.496 
L 85.842826 62.496 
L 85.842826 180.768 
z
" clip-path="url(#p23520751ac)" style="fill: #871719; opacity: 0.15; stroke: #871719; stroke-width: 2; stroke-linejoin: miter"/>
   </g>
   <g id="patch_4">
    <path d="M 242.987095 180.768 
L 242.987095 62.496 
L 247.122471 62.496 
L 247.122471 180.768 
z
" clip-path="url(#p23520751ac)" style="fill: #871719; opacity: 0.15; stroke: #871719; stroke-width: 2; stroke-linejoin: miter"/>
   </g>
   <g id="patch_5">
    <path d="M 81.707451 180.768 
L 85.842826 180.768 
L 85.842826 95.228103 
L 81.707451 95.228103 
z
" clip-path="url(#p23520751ac)" style="fill: #76bb4b; opacity: 0.7"/>
   </g>
   <g id="patch_6">
    <path d="M 85.842826 180.768 
L 89.978202 180.768 
L 89.978202 153.709461 
L 85.842826 153.709461 
z
" clip-path="url(#p23520751ac)" style="fill: #76bb4b; opacity: 0.7"/>
   </g>
   <g id="patch_7">
    <path d="M 89.978202 180.768 
L 94.113577 180.768 
L 94.113577 158.946598 
L 89.978202 158.946598 
z
" clip-path="url(#p23520751ac)" style="fill: #76bb4b; opacity: 0.7"/>
   </g>
   <g id="patch_8">
    <path d="M 94.113577 180.768 
L 98.248953 180.768 
L 98.248953 164.183734 
L 94.113577 164.183734 
z
" clip-path="url(#p23520751ac)" style="fill: #76bb4b; opacity: 0.7"/>
   </g>
   <g id="patch_9">
    <path d="M 98.248953 180.768 
L 102.384328 180.768 
L 102.384328 155.018745 
L 98.248953 155.018745 
z
" clip-path="url(#p23520751ac)" style="fill: #76bb4b; opacity: 0.7"/>
   </g>
   <g id="patch_10">
    <path d="M 102.384328 180.768 
L 106.519704 180.768 
L 106.519704 160.255882 
L 102.384328 160.255882 
z
" clip-path="url(#p23520751ac)" style="fill: #76bb4b; opacity: 0.7"/>
   </g>
   <g id="patch_11">
    <path d="M 106.519704 180.768 
L 110.655079 180.768 
L 110.655079 166.802303 
L 106.519704 166.802303 
z
" clip-path="url(#p23520751ac)" style="fill: #76bb4b; opacity: 0.7"/>
   </g>
   <g id="patch_12">
    <path d="M 110.655079 180.768 
L 114.790455 180.768 
L 114.790455 168.984443 
L 110.655079 168.984443 
z
" clip-path="url(#p23520751ac)" style="fill: #76bb4b; opacity: 0.7"/>
   </g>
   <g id="patch_13">
    <path d="M 114.790455 180.768 
L 118.92583 180.768 
L 118.92583 170.293727 
L 114.790455 170.293727 
z
" clip-path="url(#p23520751ac)" style="fill: #76bb4b; opacity: 0.7"/>
   </g>
   <g id="patch_14">
    <path d="M 118.92583 180.768 
L 123.061206 180.768 
L 123.061206 170.293727 
L 118.92583 170.293727 
z
" clip-path="url(#p23520751ac)" style="fill: #76bb4b; opacity: 0.7"/>
   </g>
   <g id="patch_15">
    <path d="M 123.061206 180.768 
L 127.196581 180.768 
L 127.196581 166.802303 
L 123.061206 166.802303 
z
" clip-path="url(#p23520751ac)" style="fill: #76bb4b; opacity: 0.7"/>
   </g>
   <g id="patch_16">
    <path d="M 127.196581 180.768 
L 131.331957 180.768 
L 131.331957 172.912295 
L 127.196581 172.912295 
z
" clip-path="url(#p23520751ac)" style="fill: #76bb4b; opacity: 0.7"/>
   </g>
   <g id="patch_17">
    <path d="M 131.331957 180.768 
L 135.467332 180.768 
L 135.467332 168.984443 
L 131.331957 168.984443 
z
" clip-path="url(#p23520751ac)" style="fill: #76bb4b; opacity: 0.7"/>
   </g>
   <g id="patch_18">
    <path d="M 135.467332 180.768 
L 139.602708 180.768 
L 139.602708 169.420871 
L 135.467332 169.420871 
z
" clip-path="url(#p23520751ac)" style="fill: #76bb4b; opacity: 0.7"/>
   </g>
   <g id="patch_19">
    <path d="M 139.602708 180.768 
L 143.738083 180.768 
L 143.738083 169.857299 
L 139.602708 169.857299 
z
" clip-path="url(#p23520751ac)" style="fill: #76bb4b; opacity: 0.7"/>
   </g>
   <g id="patch_20">
    <path d="M 143.738083 180.768 
L 147.873459 180.768 
L 147.873459 170.730155 
L 143.738083 170.730155 
z
" clip-path="url(#p23520751ac)" style="fill: #76bb4b; opacity: 0.7"/>
   </g>
   <g id="patch_21">
    <path d="M 147.873459 180.768 
L 152.008834 180.768 
L 152.008834 165.929446 
L 147.873459 165.929446 
z
" clip-path="url(#p23520751ac)" style="fill: #76bb4b; opacity: 0.7"/>
   </g>
   <g id="patch_22">
    <path d="M 152.008834 180.768 
L 156.14421 180.768 
L 156.14421 169.857299 
L 152.008834 169.857299 
z
" clip-path="url(#p23520751ac)" style="fill: #76bb4b; opacity: 0.7"/>
   </g>
   <g id="patch_23">
    <path d="M 156.14421 180.768 
L 160.279585 180.768 
L 160.279585 174.221579 
L 156.14421 174.221579 
z
" clip-path="url(#p23520751ac)" style="fill: #76bb4b; opacity: 0.7"/>
   </g>
   <g id="patch_24">
    <path d="M 160.279585 180.768 
L 164.414961 180.768 
L 164.414961 166.365875 
L 160.279585 166.365875 
z
" clip-path="url(#p23520751ac)" style="fill: #76bb4b; opacity: 0.7"/>
   </g>
   <g id="patch_25">
    <path d="M 164.414961 180.768 
L 168.550336 180.768 
L 168.550336 167.675159 
L 164.414961 167.675159 
z
" clip-path="url(#p23520751ac)" style="fill: #76bb4b; opacity: 0.7"/>
   </g>
   <g id="patch_26">
    <path d="M 168.550336 180.768 
L 172.685712 180.768 
L 172.685712 170.730155 
L 168.550336 170.730155 
z
" clip-path="url(#p23520751ac)" style="fill: #76bb4b; opacity: 0.7"/>
   </g>
   <g id="patch_27">
    <path d="M 172.685712 180.768 
L 176.821087 180.768 
L 176.821087 169.420871 
L 172.685712 169.420871 
z
" clip-path="url(#p23520751ac)" style="fill: #76bb4b; opacity: 0.7"/>
   </g>
   <g id="patch_28">
    <path d="M 176.821087 180.768 
L 180.956463 180.768 
L 180.956463 174.658007 
L 176.821087 174.658007 
z
" clip-path="url(#p23520751ac)" style="fill: #76bb4b; opacity: 0.7"/>
   </g>
   <g id="patch_29">
    <path d="M 180.956463 180.768 
L 185.091838 180.768 
L 185.091838 173.785151 
L 180.956463 173.785151 
z
" clip-path="url(#p23520751ac)" style="fill: #76bb4b; opacity: 0.7"/>
   </g>
   <g id="patch_30">
    <path d="M 185.091838 180.768 
L 189.227214 180.768 
L 189.227214 170.730155 
L 185.091838 170.730155 
z
" clip-path="url(#p23520751ac)" style="fill: #76bb4b; opacity: 0.7"/>
   </g>
   <g id="patch_31">
    <path d="M 189.227214 180.768 
L 193.362589 180.768 
L 193.362589 174.658007 
L 189.227214 174.658007 
z
" clip-path="url(#p23520751ac)" style="fill: #76bb4b; opacity: 0.7"/>
   </g>
   <g id="patch_32">
    <path d="M 193.362589 180.768 
L 197.497965 180.768 
L 197.497965 168.984443 
L 193.362589 168.984443 
z
" clip-path="url(#p23520751ac)" style="fill: #76bb4b; opacity: 0.7"/>
   </g>
   <g id="patch_33">
    <path d="M 197.497965 180.768 
L 201.63334 180.768 
L 201.63334 168.111587 
L 197.497965 168.111587 
z
" clip-path="url(#p23520751ac)" style="fill: #76bb4b; opacity: 0.7"/>
   </g>
   <g id="patch_34">
    <path d="M 201.63334 180.768 
L 205.768716 180.768 
L 205.768716 169.857299 
L 201.63334 169.857299 
z
" clip-path="url(#p23520751ac)" style="fill: #76bb4b; opacity: 0.7"/>
   </g>
   <g id="patch_35">
    <path d="M 205.768716 180.768 
L 209.904091 180.768 
L 209.904091 174.221579 
L 205.768716 174.221579 
z
" clip-path="url(#p23520751ac)" style="fill: #76bb4b; opacity: 0.7"/>
   </g>
   <g id="patch_36">
    <path d="M 209.904091 180.768 
L 214.039467 180.768 
L 214.039467 173.348723 
L 209.904091 173.348723 
z
" clip-path="url(#p23520751ac)" style="fill: #76bb4b; opacity: 0.7"/>
   </g>
   <g id="patch_37">
    <path d="M 214.039467 180.768 
L 218.174842 180.768 
L 218.174842 170.730155 
L 214.039467 170.730155 
z
" clip-path="url(#p23520751ac)" style="fill: #76bb4b; opacity: 0.7"/>
   </g>
   <g id="patch_38">
    <path d="M 218.174842 180.768 
L 222.310218 180.768 
L 222.310218 169.857299 
L 218.174842 169.857299 
z
" clip-path="url(#p23520751ac)" style="fill: #76bb4b; opacity: 0.7"/>
   </g>
   <g id="patch_39">
    <path d="M 222.310218 180.768 
L 226.445593 180.768 
L 226.445593 168.548015 
L 222.310218 168.548015 
z
" clip-path="url(#p23520751ac)" style="fill: #76bb4b; opacity: 0.7"/>
   </g>
   <g id="patch_40">
    <path d="M 226.445593 180.768 
L 230.580969 180.768 
L 230.580969 167.675159 
L 226.445593 167.675159 
z
" clip-path="url(#p23520751ac)" style="fill: #76bb4b; opacity: 0.7"/>
   </g>
   <g id="patch_41">
    <path d="M 230.580969 180.768 
L 234.716344 180.768 
L 234.716344 168.111587 
L 230.580969 168.111587 
z
" clip-path="url(#p23520751ac)" style="fill: #76bb4b; opacity: 0.7"/>
   </g>
   <g id="patch_42">
    <path d="M 234.716344 180.768 
L 238.85172 180.768 
L 238.85172 170.730155 
L 234.716344 170.730155 
z
" clip-path="url(#p23520751ac)" style="fill: #76bb4b; opacity: 0.7"/>
   </g>
   <g id="patch_43">
    <path d="M 238.85172 180.768 
L 242.987095 180.768 
L 242.987095 164.183734 
L 238.85172 164.183734 
z
" clip-path="url(#p23520751ac)" style="fill: #76bb4b; opacity: 0.7"/>
   </g>
   <g id="patch_44">
    <path d="M 242.987095 180.768 
L 247.122471 180.768 
L 247.122471 144.544472 
L 242.987095 144.544472 
z
" clip-path="url(#p23520751ac)" style="fill: #76bb4b; opacity: 0.7"/>
   </g>
   <g id="matplotlib.axis_1">
    <g id="xtick_1">
     <g id="line2d_1">
      <defs>
       <path id="mf496d382cd" d="M 0 0 
L 0 8 
" style="stroke: #000000; stroke-width: 4"/>
      </defs>
      <g>
       <use xlink:href="#mf496d382cd" x="81.707451" y="180.768" style="stroke: #000000; stroke-width: 4"/>
      </g>
     </g>
    </g>
    <g id="xtick_2">
     <g id="line2d_2">
      <g>
       <use xlink:href="#mf496d382cd" x="123.061206" y="180.768" style="stroke: #000000; stroke-width: 4"/>
      </g>
     </g>
    </g>
    <g id="xtick_3">
     <g id="line2d_3">
      <g>
       <use xlink:href="#mf496d382cd" x="164.414961" y="180.768" style="stroke: #000000; stroke-width: 4"/>
      </g>
     </g>
    </g>
    <g id="xtick_4">
     <g id="line2d_4">
      <g>
       <use xlink:href="#mf496d382cd" x="205.768716" y="180.768" style="stroke: #000000; stroke-width: 4"/>
      </g>
     </g>
    </g>
    <g id="xtick_5">
     <g id="line2d_5">
      <g>
       <use xlink:href="#mf496d382cd" x="247.122471" y="180.768" style="stroke: #000000; stroke-width: 4"/>
      </g>
     </g>
    </g>
   </g>
   <g id="matplotlib.axis_2">
    <g id="ytick_1">
     <g id="line2d_6">
      <defs>
       <path id="m5a54f2e3c0" d="M 0 0 
L -8 0 
" style="stroke: #000000; stroke-width: 4"/>
      </defs>
      <g>
       <use xlink:href="#m5a54f2e3c0" x="73.4367" y="180.768" style="stroke: #000000; stroke-width: 4"/>
      </g>
     </g>
     <g id="text_1">
      <!-- 0 -->
      <g transform="translate(52.3274 187.0293) scale(0.1728 -0.1728)">
       <defs>
        <path id="LiberationSans-Bold-30" d="M 3297 2203 
Q 3297 1088 2914 512 
Q 2531 -63 1766 -63 
Q 253 -63 253 2203 
Q 253 2994 418 3494 
Q 584 3994 915 4231 
Q 1247 4469 1791 4469 
Q 2572 4469 2934 3903 
Q 3297 3338 3297 2203 
z
M 2416 2203 
Q 2416 2813 2356 3150 
Q 2297 3488 2165 3634 
Q 2034 3781 1784 3781 
Q 1519 3781 1383 3632 
Q 1247 3484 1189 3148 
Q 1131 2813 1131 2203 
Q 1131 1600 1192 1261 
Q 1253 922 1386 775 
Q 1519 628 1772 628 
Q 2022 628 2158 783 
Q 2294 938 2355 1278 
Q 2416 1619 2416 2203 
z
" transform="scale(0.015625)"/>
       </defs>
       <use xlink:href="#LiberationSans-Bold-30"/>
      </g>
     </g>
    </g>
    <g id="ytick_2">
     <g id="line2d_7">
      <g>
       <use xlink:href="#m5a54f2e3c0" x="73.4367" y="151.2" style="stroke: #000000; stroke-width: 4"/>
      </g>
     </g>
    </g>
    <g id="ytick_3">
     <g id="line2d_8">
      <g>
       <use xlink:href="#m5a54f2e3c0" x="73.4367" y="121.632" style="stroke: #000000; stroke-width: 4"/>
      </g>
     </g>
     <g id="text_2">
      <!-- 0.04 -->
      <g transform="translate(28.3082 127.8933) scale(0.1728 -0.1728)">
       <defs>
        <path id="LiberationSans-Bold-2e" d="M 434 0 
L 434 953 
L 1338 953 
L 1338 0 
L 434 0 
z
" transform="scale(0.015625)"/>
        <path id="LiberationSans-Bold-34" d="M 2938 897 
L 2938 0 
L 2100 0 
L 2100 897 
L 97 897 
L 97 1556 
L 1956 4403 
L 2938 4403 
L 2938 1550 
L 3525 1550 
L 3525 897 
L 2938 897 
z
M 2100 2991 
Q 2100 3159 2111 3356 
Q 2122 3553 2128 3609 
Q 2047 3434 1834 3103 
L 813 1550 
L 2100 1550 
L 2100 2991 
z
" transform="scale(0.015625)"/>
       </defs>
       <use xlink:href="#LiberationSans-Bold-30"/>
       <use xlink:href="#LiberationSans-Bold-2e" x="55.615234"/>
       <use xlink:href="#LiberationSans-Bold-30" x="83.398438"/>
       <use xlink:href="#LiberationSans-Bold-34" x="139.013672"/>
      </g>
     </g>
    </g>
    <g id="ytick_4">
     <g id="line2d_9">
      <g>
       <use xlink:href="#m5a54f2e3c0" x="73.4367" y="92.064" style="stroke: #000000; stroke-width: 4"/>
      </g>
     </g>
    </g>
    <g id="ytick_5">
     <g id="line2d_10">
      <g>
       <use xlink:href="#m5a54f2e3c0" x="73.4367" y="62.496" style="stroke: #000000; stroke-width: 4"/>
      </g>
     </g>
     <g id="text_3">
      <!-- 0.08 -->
      <g transform="translate(28.3082 68.7573) scale(0.1728 -0.1728)">
       <defs>
        <path id="LiberationSans-Bold-38" d="M 3363 1241 
Q 3363 622 2953 279 
Q 2544 -63 1784 -63 
Q 1031 -63 617 278 
Q 203 619 203 1234 
Q 203 1656 447 1945 
Q 691 2234 1100 2303 
L 1100 2316 
Q 744 2394 525 2669 
Q 306 2944 306 3303 
Q 306 3844 689 4156 
Q 1072 4469 1772 4469 
Q 2488 4469 2870 4164 
Q 3253 3859 3253 3297 
Q 3253 2938 3036 2666 
Q 2819 2394 2453 2322 
L 2453 2309 
Q 2878 2241 3120 1961 
Q 3363 1681 3363 1241 
z
M 2350 3250 
Q 2350 3563 2206 3708 
Q 2063 3853 1772 3853 
Q 1203 3853 1203 3250 
Q 1203 2619 1778 2619 
Q 2066 2619 2208 2766 
Q 2350 2913 2350 3250 
z
M 2453 1313 
Q 2453 2003 1766 2003 
Q 1447 2003 1276 1822 
Q 1106 1641 1106 1300 
Q 1106 913 1275 734 
Q 1444 556 1791 556 
Q 2131 556 2292 734 
Q 2453 913 2453 1313 
z
" transform="scale(0.015625)"/>
       </defs>
       <use xlink:href="#LiberationSans-Bold-30"/>
       <use xlink:href="#LiberationSans-Bold-2e" x="55.615234"/>
       <use xlink:href="#LiberationSans-Bold-30" x="83.398438"/>
       <use xlink:href="#LiberationSans-Bold-38" x="139.013672"/>
      </g>
     </g>
    </g>
    <g id="text_4">
     <!-- . -->
     <g style="fill: #ffffff" transform="translate(19.7226 124.0323) rotate(-90) scale(0.1728 -0.1728)">
      <defs>
       <path id="LiberationSans-2e" d="M 584 0 
L 584 684 
L 1194 684 
L 1194 0 
L 584 0 
z
" transform="scale(0.015625)"/>
      </defs>
      <use xlink:href="#LiberationSans-2e"/>
     </g>
    </g>
   </g>
   <g id="line2d_11">
    <path d="M 73.4367 165.984 
L 255.393222 165.984 
" clip-path="url(#p23520751ac)" style="fill: none; stroke-dasharray: 12,6; stroke-dashoffset: 0; stroke: #000000; stroke-opacity: 0.5; stroke-width: 3"/>
   </g>
   <g id="line2d_12"/>
   <g id="patch_45">
    <path d="M 73.4367 180.768 
L 73.4367 62.496 
" style="fill: none; stroke: #000000; stroke-width: 4; stroke-linejoin: miter; stroke-linecap: square"/>
   </g>
   <g id="patch_46">
    <path d="M 73.4367 180.768 
L 255.393222 180.768 
" style="fill: none; stroke: #000000; stroke-width: 4; stroke-linejoin: miter; stroke-linecap: square"/>
   </g>
   <g id="text_5">
    <!-- L2/3 Pyr -->
    <g transform="translate(130.797261 51.76512) scale(0.1728 -0.1728)">
     <defs>
      <path id="LiberationSans-Bold-4c" d="M 428 0 
L 428 4403 
L 1350 4403 
L 1350 713 
L 3713 713 
L 3713 0 
L 428 0 
z
" transform="scale(0.015625)"/>
      <path id="LiberationSans-Bold-32" d="M 222 0 
L 222 609 
Q 394 988 711 1347 
Q 1028 1706 1509 2097 
Q 1972 2472 2158 2715 
Q 2344 2959 2344 3194 
Q 2344 3769 1766 3769 
Q 1484 3769 1336 3617 
Q 1188 3466 1144 3163 
L 259 3213 
Q 334 3825 717 4147 
Q 1100 4469 1759 4469 
Q 2472 4469 2853 4144 
Q 3234 3819 3234 3231 
Q 3234 2922 3112 2672 
Q 2991 2422 2800 2211 
Q 2609 2000 2376 1815 
Q 2144 1631 1925 1456 
Q 1706 1281 1526 1103 
Q 1347 925 1259 722 
L 3303 722 
L 3303 0 
L 222 0 
z
" transform="scale(0.015625)"/>
      <path id="LiberationSans-Bold-2f" d="M 63 -128 
L 972 4638 
L 1716 4638 
L 822 -128 
L 63 -128 
z
" transform="scale(0.015625)"/>
      <path id="LiberationSans-Bold-33" d="M 3328 1222 
Q 3328 603 2922 265 
Q 2516 -72 1766 -72 
Q 1056 -72 637 254 
Q 219 581 147 1197 
L 1041 1275 
Q 1125 641 1763 641 
Q 2078 641 2253 797 
Q 2428 953 2428 1275 
Q 2428 1569 2215 1725 
Q 2003 1881 1584 1881 
L 1278 1881 
L 1278 2591 
L 1566 2591 
Q 1944 2591 2134 2745 
Q 2325 2900 2325 3188 
Q 2325 3459 2173 3614 
Q 2022 3769 1731 3769 
Q 1459 3769 1292 3619 
Q 1125 3469 1100 3194 
L 222 3256 
Q 291 3825 694 4147 
Q 1097 4469 1747 4469 
Q 2438 4469 2827 4158 
Q 3216 3847 3216 3297 
Q 3216 2884 2973 2618 
Q 2731 2353 2275 2266 
L 2275 2253 
Q 2781 2194 3054 1920 
Q 3328 1647 3328 1222 
z
" transform="scale(0.015625)"/>
      <path id="LiberationSans-Bold-20" transform="scale(0.015625)"/>
      <path id="LiberationSans-Bold-50" d="M 4050 3009 
Q 4050 2584 3856 2250 
Q 3663 1916 3302 1733 
Q 2941 1550 2444 1550 
L 1350 1550 
L 1350 0 
L 428 0 
L 428 4403 
L 2406 4403 
Q 3197 4403 3623 4039 
Q 4050 3675 4050 3009 
z
M 3122 2994 
Q 3122 3688 2303 3688 
L 1350 3688 
L 1350 2259 
L 2328 2259 
Q 2709 2259 2915 2448 
Q 3122 2638 3122 2994 
z
" transform="scale(0.015625)"/>
      <path id="LiberationSans-Bold-79" d="M 884 -1328 
Q 569 -1328 331 -1288 
L 331 -663 
Q 497 -688 634 -688 
Q 822 -688 945 -628 
Q 1069 -569 1167 -431 
Q 1266 -294 1388 34 
L 50 3381 
L 978 3381 
L 1509 1797 
Q 1634 1456 1825 753 
L 1903 1050 
L 2106 1784 
L 2606 3381 
L 3525 3381 
L 2188 -178 
Q 1919 -828 1630 -1078 
Q 1341 -1328 884 -1328 
z
" transform="scale(0.015625)"/>
      <path id="LiberationSans-Bold-72" d="M 447 0 
L 447 2588 
Q 447 2866 439 3052 
Q 431 3238 422 3381 
L 1259 3381 
Q 1269 3325 1284 3039 
Q 1300 2753 1300 2659 
L 1313 2659 
Q 1441 3016 1541 3161 
Q 1641 3306 1778 3376 
Q 1916 3447 2122 3447 
Q 2291 3447 2394 3400 
L 2394 2666 
Q 2181 2713 2019 2713 
Q 1691 2713 1508 2447 
Q 1325 2181 1325 1659 
L 1325 0 
L 447 0 
z
" transform="scale(0.015625)"/>
     </defs>
     <use xlink:href="#LiberationSans-Bold-4c"/>
     <use xlink:href="#LiberationSans-Bold-32" x="61.083984"/>
     <use xlink:href="#LiberationSans-Bold-2f" x="116.699219"/>
     <use xlink:href="#LiberationSans-Bold-33" x="144.482422"/>
     <use xlink:href="#LiberationSans-Bold-20" x="200.097656"/>
     <use xlink:href="#LiberationSans-Bold-50" x="227.880859"/>
     <use xlink:href="#LiberationSans-Bold-79" x="294.580078"/>
     <use xlink:href="#LiberationSans-Bold-72" x="350.195312"/>
    </g>
   </g>
   <g id="legend_1">
    <g id="patch_47">
     <path d="M 107.16209 95.575888 
L 221.667832 95.575888 
Q 223.667032 95.575888 223.667032 93.576688 
L 223.667032 69.4932 
Q 223.667032 67.494 221.667832 67.494 
L 107.16209 67.494 
Q 105.16289 67.494 105.16289 69.4932 
L 105.16289 93.576688 
Q 105.16289 95.575888 107.16209 95.575888 
z
" style="fill: #ffffff; opacity: 0.8; stroke: #cccccc; stroke-width: 5; stroke-linejoin: miter"/>
    </g>
    <g id="line2d_13">
     <path d="M 109.16129 81.658332 
L 119.15729 81.658332 
L 129.15329 81.658332 
" style="fill: none; stroke: #76bb4b; stroke-width: 5; stroke-linecap: square"/>
    </g>
    <g id="text_6">
     <!-- 20.59% sig -->
     <g transform="translate(137.15009 78.736376) scale(0.09996 -0.09996)">
      <defs>
       <path id="LiberationSans-32" d="M 322 0 
L 322 397 
Q 481 763 711 1042 
Q 941 1322 1194 1548 
Q 1447 1775 1695 1969 
Q 1944 2163 2144 2356 
Q 2344 2550 2467 2762 
Q 2591 2975 2591 3244 
Q 2591 3606 2378 3806 
Q 2166 4006 1788 4006 
Q 1428 4006 1195 3811 
Q 963 3616 922 3263 
L 347 3316 
Q 409 3844 795 4156 
Q 1181 4469 1788 4469 
Q 2453 4469 2811 4155 
Q 3169 3841 3169 3263 
Q 3169 3006 3051 2753 
Q 2934 2500 2703 2247 
Q 2472 1994 1819 1463 
Q 1459 1169 1246 933 
Q 1034 697 941 478 
L 3238 478 
L 3238 0 
L 322 0 
z
" transform="scale(0.015625)"/>
       <path id="LiberationSans-30" d="M 3309 2203 
Q 3309 1100 2920 518 
Q 2531 -63 1772 -63 
Q 1013 -63 631 515 
Q 250 1094 250 2203 
Q 250 3338 620 3903 
Q 991 4469 1791 4469 
Q 2569 4469 2939 3897 
Q 3309 3325 3309 2203 
z
M 2738 2203 
Q 2738 3156 2517 3584 
Q 2297 4013 1791 4013 
Q 1272 4013 1045 3591 
Q 819 3169 819 2203 
Q 819 1266 1048 831 
Q 1278 397 1778 397 
Q 2275 397 2506 840 
Q 2738 1284 2738 2203 
z
" transform="scale(0.015625)"/>
       <path id="LiberationSans-35" d="M 3291 1434 
Q 3291 738 2877 337 
Q 2463 -63 1728 -63 
Q 1113 -63 734 206 
Q 356 475 256 984 
L 825 1050 
Q 1003 397 1741 397 
Q 2194 397 2450 670 
Q 2706 944 2706 1422 
Q 2706 1838 2448 2094 
Q 2191 2350 1753 2350 
Q 1525 2350 1328 2278 
Q 1131 2206 934 2034 
L 384 2034 
L 531 4403 
L 3034 4403 
L 3034 3925 
L 1044 3925 
L 959 2528 
Q 1325 2809 1869 2809 
Q 2519 2809 2905 2428 
Q 3291 2047 3291 1434 
z
" transform="scale(0.015625)"/>
       <path id="LiberationSans-39" d="M 3256 2291 
Q 3256 1156 2842 546 
Q 2428 -63 1663 -63 
Q 1147 -63 836 154 
Q 525 372 391 856 
L 928 941 
Q 1097 391 1672 391 
Q 2156 391 2422 841 
Q 2688 1291 2700 2125 
Q 2575 1844 2272 1673 
Q 1969 1503 1606 1503 
Q 1013 1503 656 1909 
Q 300 2316 300 2988 
Q 300 3678 687 4073 
Q 1075 4469 1766 4469 
Q 2500 4469 2878 3925 
Q 3256 3381 3256 2291 
z
M 2644 2834 
Q 2644 3366 2400 3689 
Q 2156 4013 1747 4013 
Q 1341 4013 1106 3736 
Q 872 3459 872 2988 
Q 872 2506 1106 2226 
Q 1341 1947 1741 1947 
Q 1984 1947 2193 2058 
Q 2403 2169 2523 2372 
Q 2644 2575 2644 2834 
z
" transform="scale(0.015625)"/>
       <path id="LiberationSans-25" d="M 5463 1356 
Q 5463 684 5209 323 
Q 4956 -38 4463 -38 
Q 3975 -38 3726 314 
Q 3478 666 3478 1356 
Q 3478 2069 3717 2417 
Q 3956 2766 4475 2766 
Q 4988 2766 5225 2408 
Q 5463 2050 5463 1356 
z
M 1647 0 
L 1163 0 
L 4044 4403 
L 4534 4403 
L 1647 0 
z
M 1231 4441 
Q 1728 4441 1968 4091 
Q 2209 3741 2209 3047 
Q 2209 2369 1961 2003 
Q 1713 1638 1219 1638 
Q 725 1638 476 2000 
Q 228 2363 228 3047 
Q 228 3744 468 4092 
Q 709 4441 1231 4441 
z
M 5000 1356 
Q 5000 1916 4879 2167 
Q 4759 2419 4475 2419 
Q 4191 2419 4064 2172 
Q 3938 1925 3938 1356 
Q 3938 822 4061 564 
Q 4184 306 4469 306 
Q 4744 306 4872 567 
Q 5000 828 5000 1356 
z
M 1750 3047 
Q 1750 3597 1631 3850 
Q 1513 4103 1231 4103 
Q 938 4103 813 3854 
Q 688 3606 688 3047 
Q 688 2506 813 2248 
Q 938 1991 1225 1991 
Q 1497 1991 1623 2253 
Q 1750 2516 1750 3047 
z
" transform="scale(0.015625)"/>
       <path id="LiberationSans-20" transform="scale(0.015625)"/>
       <path id="LiberationSans-73" d="M 2969 934 
Q 2969 456 2608 196 
Q 2247 -63 1597 -63 
Q 966 -63 623 145 
Q 281 353 178 794 
L 675 891 
Q 747 619 972 492 
Q 1197 366 1597 366 
Q 2025 366 2223 497 
Q 2422 628 2422 891 
Q 2422 1091 2284 1216 
Q 2147 1341 1841 1422 
L 1438 1528 
Q 953 1653 748 1773 
Q 544 1894 428 2066 
Q 313 2238 313 2488 
Q 313 2950 642 3192 
Q 972 3434 1603 3434 
Q 2163 3434 2492 3237 
Q 2822 3041 2909 2606 
L 2403 2544 
Q 2356 2769 2151 2889 
Q 1947 3009 1603 3009 
Q 1222 3009 1040 2893 
Q 859 2778 859 2544 
Q 859 2400 934 2306 
Q 1009 2213 1156 2147 
Q 1303 2081 1775 1966 
Q 2222 1853 2419 1758 
Q 2616 1663 2730 1547 
Q 2844 1431 2906 1279 
Q 2969 1128 2969 934 
z
" transform="scale(0.015625)"/>
       <path id="LiberationSans-69" d="M 428 4100 
L 428 4638 
L 991 4638 
L 991 4100 
L 428 4100 
z
M 428 0 
L 428 3381 
L 991 3381 
L 991 0 
L 428 0 
z
" transform="scale(0.015625)"/>
       <path id="LiberationSans-67" d="M 1713 -1328 
Q 1159 -1328 831 -1111 
Q 503 -894 409 -494 
L 975 -413 
Q 1031 -647 1223 -773 
Q 1416 -900 1728 -900 
Q 2569 -900 2569 84 
L 2569 628 
L 2563 628 
Q 2403 303 2125 139 
Q 1847 -25 1475 -25 
Q 853 -25 561 387 
Q 269 800 269 1684 
Q 269 2581 583 3007 
Q 897 3434 1538 3434 
Q 1897 3434 2161 3270 
Q 2425 3106 2569 2803 
L 2575 2803 
Q 2575 2897 2587 3128 
Q 2600 3359 2613 3381 
L 3147 3381 
Q 3128 3213 3128 2681 
L 3128 97 
Q 3128 -1328 1713 -1328 
z
M 2569 1691 
Q 2569 2103 2456 2401 
Q 2344 2700 2139 2858 
Q 1934 3016 1675 3016 
Q 1244 3016 1047 2703 
Q 850 2391 850 1691 
Q 850 997 1034 694 
Q 1219 391 1666 391 
Q 1931 391 2137 547 
Q 2344 703 2456 995 
Q 2569 1288 2569 1691 
z
" transform="scale(0.015625)"/>
      </defs>
      <use xlink:href="#LiberationSans-32"/>
      <use xlink:href="#LiberationSans-30" x="55.615234"/>
      <use xlink:href="#LiberationSans-2e" x="111.230469"/>
      <use xlink:href="#LiberationSans-35" x="139.013672"/>
      <use xlink:href="#LiberationSans-39" x="194.628906"/>
      <use xlink:href="#LiberationSans-25" x="250.244141"/>
      <use xlink:href="#LiberationSans-20" x="339.160156"/>
      <use xlink:href="#LiberationSans-73" x="366.943359"/>
      <use xlink:href="#LiberationSans-69" x="416.943359"/>
      <use xlink:href="#LiberationSans-67" x="439.160156"/>
     </g>
     <!-- (196-/83+ of 1355) -->
     <g transform="translate(137.15009 89.503318) scale(0.09996 -0.09996)">
      <defs>
       <path id="LiberationSans-28" d="M 397 1663 
Q 397 2566 680 3284 
Q 963 4003 1550 4638 
L 2094 4638 
Q 1509 3988 1236 3256 
Q 963 2525 963 1656 
Q 963 791 1233 62 
Q 1503 -666 2094 -1325 
L 1550 -1325 
Q 959 -688 678 32 
Q 397 753 397 1650 
L 397 1663 
z
" transform="scale(0.015625)"/>
       <path id="LiberationSans-31" d="M 488 0 
L 488 478 
L 1609 478 
L 1609 3866 
L 616 3156 
L 616 3688 
L 1656 4403 
L 2175 4403 
L 2175 478 
L 3247 478 
L 3247 0 
L 488 0 
z
" transform="scale(0.015625)"/>
       <path id="LiberationSans-36" d="M 3278 1441 
Q 3278 744 2900 340 
Q 2522 -63 1856 -63 
Q 1113 -63 719 490 
Q 325 1044 325 2100 
Q 325 3244 734 3856 
Q 1144 4469 1900 4469 
Q 2897 4469 3156 3572 
L 2619 3475 
Q 2453 4013 1894 4013 
Q 1413 4013 1148 3564 
Q 884 3116 884 2266 
Q 1038 2550 1316 2698 
Q 1594 2847 1953 2847 
Q 2563 2847 2920 2465 
Q 3278 2084 3278 1441 
z
M 2706 1416 
Q 2706 1894 2472 2153 
Q 2238 2413 1819 2413 
Q 1425 2413 1183 2183 
Q 941 1953 941 1550 
Q 941 1041 1192 716 
Q 1444 391 1838 391 
Q 2244 391 2475 664 
Q 2706 938 2706 1416 
z
" transform="scale(0.015625)"/>
       <path id="LiberationSans-2d" d="M 284 1450 
L 284 1950 
L 1847 1950 
L 1847 1450 
L 284 1450 
z
" transform="scale(0.015625)"/>
       <path id="LiberationSans-2f" d="M 0 -63 
L 1284 4638 
L 1778 4638 
L 506 -63 
L 0 -63 
z
" transform="scale(0.015625)"/>
       <path id="LiberationSans-38" d="M 3281 1228 
Q 3281 619 2893 278 
Q 2506 -63 1781 -63 
Q 1075 -63 676 271 
Q 278 606 278 1222 
Q 278 1653 525 1947 
Q 772 2241 1156 2303 
L 1156 2316 
Q 797 2400 589 2681 
Q 381 2963 381 3341 
Q 381 3844 757 4156 
Q 1134 4469 1769 4469 
Q 2419 4469 2795 4162 
Q 3172 3856 3172 3334 
Q 3172 2956 2962 2675 
Q 2753 2394 2391 2322 
L 2391 2309 
Q 2813 2241 3047 1952 
Q 3281 1663 3281 1228 
z
M 2588 3303 
Q 2588 4050 1769 4050 
Q 1372 4050 1164 3862 
Q 956 3675 956 3303 
Q 956 2925 1170 2726 
Q 1384 2528 1775 2528 
Q 2172 2528 2380 2711 
Q 2588 2894 2588 3303 
z
M 2697 1281 
Q 2697 1691 2453 1898 
Q 2209 2106 1769 2106 
Q 1341 2106 1100 1882 
Q 859 1659 859 1269 
Q 859 359 1788 359 
Q 2247 359 2472 579 
Q 2697 800 2697 1281 
z
" transform="scale(0.015625)"/>
       <path id="LiberationSans-33" d="M 3278 1216 
Q 3278 606 2890 271 
Q 2503 -63 1784 -63 
Q 1116 -63 717 239 
Q 319 541 244 1131 
L 825 1184 
Q 938 403 1784 403 
Q 2209 403 2451 612 
Q 2694 822 2694 1234 
Q 2694 1594 2417 1795 
Q 2141 1997 1619 1997 
L 1300 1997 
L 1300 2484 
L 1606 2484 
Q 2069 2484 2323 2686 
Q 2578 2888 2578 3244 
Q 2578 3597 2370 3801 
Q 2163 4006 1753 4006 
Q 1381 4006 1151 3815 
Q 922 3625 884 3278 
L 319 3322 
Q 381 3863 767 4166 
Q 1153 4469 1759 4469 
Q 2422 4469 2789 4161 
Q 3156 3853 3156 3303 
Q 3156 2881 2920 2617 
Q 2684 2353 2234 2259 
L 2234 2247 
Q 2728 2194 3003 1916 
Q 3278 1638 3278 1216 
z
" transform="scale(0.015625)"/>
       <path id="LiberationSans-2b" d="M 2097 1900 
L 2097 563 
L 1638 563 
L 1638 1900 
L 313 1900 
L 313 2356 
L 1638 2356 
L 1638 3694 
L 2097 3694 
L 2097 2356 
L 3422 2356 
L 3422 1900 
L 2097 1900 
z
" transform="scale(0.015625)"/>
       <path id="LiberationSans-6f" d="M 3291 1694 
Q 3291 806 2900 371 
Q 2509 -63 1766 -63 
Q 1025 -63 647 389 
Q 269 841 269 1694 
Q 269 3444 1784 3444 
Q 2559 3444 2925 3017 
Q 3291 2591 3291 1694 
z
M 2700 1694 
Q 2700 2394 2492 2711 
Q 2284 3028 1794 3028 
Q 1300 3028 1079 2704 
Q 859 2381 859 1694 
Q 859 1025 1076 689 
Q 1294 353 1759 353 
Q 2266 353 2483 678 
Q 2700 1003 2700 1694 
z
" transform="scale(0.015625)"/>
       <path id="LiberationSans-66" d="M 1128 2972 
L 1128 0 
L 566 0 
L 566 2972 
L 91 2972 
L 91 3381 
L 566 3381 
L 566 3763 
Q 566 4225 769 4428 
Q 972 4631 1391 4631 
Q 1625 4631 1788 4594 
L 1788 4166 
Q 1647 4191 1538 4191 
Q 1322 4191 1225 4081 
Q 1128 3972 1128 3684 
L 1128 3381 
L 1788 3381 
L 1788 2972 
L 1128 2972 
z
" transform="scale(0.015625)"/>
       <path id="LiberationSans-29" d="M 1734 1650 
Q 1734 747 1451 28 
Q 1169 -691 581 -1325 
L 38 -1325 
Q 625 -669 897 57 
Q 1169 784 1169 1656 
Q 1169 2528 895 3256 
Q 622 3984 38 4638 
L 581 4638 
Q 1172 4000 1453 3279 
Q 1734 2559 1734 1663 
L 1734 1650 
z
" transform="scale(0.015625)"/>
      </defs>
      <use xlink:href="#LiberationSans-28"/>
      <use xlink:href="#LiberationSans-31" x="33.300781"/>
      <use xlink:href="#LiberationSans-39" x="88.916016"/>
      <use xlink:href="#LiberationSans-36" x="144.53125"/>
      <use xlink:href="#LiberationSans-2d" x="200.146484"/>
      <use xlink:href="#LiberationSans-2f" x="233.447266"/>
      <use xlink:href="#LiberationSans-38" x="261.230469"/>
      <use xlink:href="#LiberationSans-33" x="316.845703"/>
      <use xlink:href="#LiberationSans-2b" x="372.460938"/>
      <use xlink:href="#LiberationSans-20" x="430.859375"/>
      <use xlink:href="#LiberationSans-6f" x="458.642578"/>
      <use xlink:href="#LiberationSans-66" x="514.257812"/>
      <use xlink:href="#LiberationSans-20" x="542.041016"/>
      <use xlink:href="#LiberationSans-31" x="569.824219"/>
      <use xlink:href="#LiberationSans-33" x="625.439453"/>
      <use xlink:href="#LiberationSans-35" x="681.054688"/>
      <use xlink:href="#LiberationSans-35" x="736.669922"/>
      <use xlink:href="#LiberationSans-29" x="792.285156"/>
     </g>
    </g>
   </g>
  </g>
  <g id="axes_2">
   <g id="patch_48">
    <path d="M 309.980178 180.768 
L 491.9367 180.768 
L 491.9367 62.496 
L 309.980178 62.496 
z
" style="fill: #ffffff"/>
   </g>
   <g id="patch_49">
    <path d="M 318.250929 180.768 
L 318.250929 62.496 
L 322.386305 62.496 
L 322.386305 180.768 
z
" clip-path="url(#p291a5b6124)" style="fill: #871719; opacity: 0.15; stroke: #871719; stroke-width: 2; stroke-linejoin: miter"/>
   </g>
   <g id="patch_50">
    <path d="M 479.530574 180.768 
L 479.530574 62.496 
L 483.665949 62.496 
L 483.665949 180.768 
z
" clip-path="url(#p291a5b6124)" style="fill: #871719; opacity: 0.15; stroke: #871719; stroke-width: 2; stroke-linejoin: miter"/>
   </g>
   <g id="patch_51">
    <path d="M 318.250929 180.768 
L 322.386305 180.768 
L 322.386305 127.046304 
L 318.250929 127.046304 
z
" clip-path="url(#p291a5b6124)" style="fill: #488a21; opacity: 0.7"/>
   </g>
   <g id="patch_52">
    <path d="M 322.386305 180.768 
L 326.52168 180.768 
L 326.52168 165.810195 
L 322.386305 165.810195 
z
" clip-path="url(#p291a5b6124)" style="fill: #488a21; opacity: 0.7"/>
   </g>
   <g id="patch_53">
    <path d="M 326.52168 180.768 
L 330.657056 180.768 
L 330.657056 168.127601 
L 326.52168 168.127601 
z
" clip-path="url(#p291a5b6124)" style="fill: #488a21; opacity: 0.7"/>
   </g>
   <g id="patch_54">
    <path d="M 330.657056 180.768 
L 334.792431 180.768 
L 334.792431 169.602314 
L 330.657056 169.602314 
z
" clip-path="url(#p291a5b6124)" style="fill: #488a21; opacity: 0.7"/>
   </g>
   <g id="patch_55">
    <path d="M 334.792431 180.768 
L 338.927807 180.768 
L 338.927807 165.810195 
L 334.792431 165.810195 
z
" clip-path="url(#p291a5b6124)" style="fill: #488a21; opacity: 0.7"/>
   </g>
   <g id="patch_56">
    <path d="M 338.927807 180.768 
L 343.063182 180.768 
L 343.063182 167.495581 
L 338.927807 167.495581 
z
" clip-path="url(#p291a5b6124)" style="fill: #488a21; opacity: 0.7"/>
   </g>
   <g id="patch_57">
    <path d="M 343.063182 180.768 
L 347.198558 180.768 
L 347.198558 169.180968 
L 343.063182 169.180968 
z
" clip-path="url(#p291a5b6124)" style="fill: #488a21; opacity: 0.7"/>
   </g>
   <g id="patch_58">
    <path d="M 347.198558 180.768 
L 351.333933 180.768 
L 351.333933 170.866354 
L 347.198558 170.866354 
z
" clip-path="url(#p291a5b6124)" style="fill: #488a21; opacity: 0.7"/>
   </g>
   <g id="patch_59">
    <path d="M 351.333933 180.768 
L 355.469309 180.768 
L 355.469309 169.391641 
L 351.333933 169.391641 
z
" clip-path="url(#p291a5b6124)" style="fill: #488a21; opacity: 0.7"/>
   </g>
   <g id="patch_60">
    <path d="M 355.469309 180.768 
L 359.604684 180.768 
L 359.604684 171.919721 
L 355.469309 171.919721 
z
" clip-path="url(#p291a5b6124)" style="fill: #488a21; opacity: 0.7"/>
   </g>
   <g id="patch_61">
    <path d="M 359.604684 180.768 
L 363.74006 180.768 
L 363.74006 170.023661 
L 359.604684 170.023661 
z
" clip-path="url(#p291a5b6124)" style="fill: #488a21; opacity: 0.7"/>
   </g>
   <g id="patch_62">
    <path d="M 363.74006 180.768 
L 367.875435 180.768 
L 367.875435 168.759621 
L 363.74006 168.759621 
z
" clip-path="url(#p291a5b6124)" style="fill: #488a21; opacity: 0.7"/>
   </g>
   <g id="patch_63">
    <path d="M 367.875435 180.768 
L 372.010811 180.768 
L 372.010811 167.074234 
L 367.875435 167.074234 
z
" clip-path="url(#p291a5b6124)" style="fill: #488a21; opacity: 0.7"/>
   </g>
   <g id="patch_64">
    <path d="M 372.010811 180.768 
L 376.146186 180.768 
L 376.146186 173.183761 
L 372.010811 173.183761 
z
" clip-path="url(#p291a5b6124)" style="fill: #488a21; opacity: 0.7"/>
   </g>
   <g id="patch_65">
    <path d="M 376.146186 180.768 
L 380.281562 180.768 
L 380.281562 171.287701 
L 376.146186 171.287701 
z
" clip-path="url(#p291a5b6124)" style="fill: #488a21; opacity: 0.7"/>
   </g>
   <g id="patch_66">
    <path d="M 380.281562 180.768 
L 384.416937 180.768 
L 384.416937 170.655681 
L 380.281562 170.655681 
z
" clip-path="url(#p291a5b6124)" style="fill: #488a21; opacity: 0.7"/>
   </g>
   <g id="patch_67">
    <path d="M 384.416937 180.768 
L 388.552313 180.768 
L 388.552313 169.602314 
L 384.416937 169.602314 
z
" clip-path="url(#p291a5b6124)" style="fill: #488a21; opacity: 0.7"/>
   </g>
   <g id="patch_68">
    <path d="M 388.552313 180.768 
L 392.687688 180.768 
L 392.687688 170.866354 
L 388.552313 170.866354 
z
" clip-path="url(#p291a5b6124)" style="fill: #488a21; opacity: 0.7"/>
   </g>
   <g id="patch_69">
    <path d="M 392.687688 180.768 
L 396.823064 180.768 
L 396.823064 170.655681 
L 392.687688 170.655681 
z
" clip-path="url(#p291a5b6124)" style="fill: #488a21; opacity: 0.7"/>
   </g>
   <g id="patch_70">
    <path d="M 396.823064 180.768 
L 400.958439 180.768 
L 400.958439 168.548948 
L 396.823064 168.548948 
z
" clip-path="url(#p291a5b6124)" style="fill: #488a21; opacity: 0.7"/>
   </g>
   <g id="patch_71">
    <path d="M 400.958439 180.768 
L 405.093815 180.768 
L 405.093815 168.548948 
L 400.958439 168.548948 
z
" clip-path="url(#p291a5b6124)" style="fill: #488a21; opacity: 0.7"/>
   </g>
   <g id="patch_72">
    <path d="M 405.093815 180.768 
L 409.22919 180.768 
L 409.22919 168.127601 
L 405.093815 168.127601 
z
" clip-path="url(#p291a5b6124)" style="fill: #488a21; opacity: 0.7"/>
   </g>
   <g id="patch_73">
    <path d="M 409.22919 180.768 
L 413.364566 180.768 
L 413.364566 168.338274 
L 409.22919 168.338274 
z
" clip-path="url(#p291a5b6124)" style="fill: #488a21; opacity: 0.7"/>
   </g>
   <g id="patch_74">
    <path d="M 413.364566 180.768 
L 417.499941 180.768 
L 417.499941 165.178175 
L 413.364566 165.178175 
z
" clip-path="url(#p291a5b6124)" style="fill: #488a21; opacity: 0.7"/>
   </g>
   <g id="patch_75">
    <path d="M 417.499941 180.768 
L 421.635317 180.768 
L 421.635317 168.548948 
L 417.499941 168.548948 
z
" clip-path="url(#p291a5b6124)" style="fill: #488a21; opacity: 0.7"/>
   </g>
   <g id="patch_76">
    <path d="M 421.635317 180.768 
L 425.770692 180.768 
L 425.770692 165.810195 
L 421.635317 165.810195 
z
" clip-path="url(#p291a5b6124)" style="fill: #488a21; opacity: 0.7"/>
   </g>
   <g id="patch_77">
    <path d="M 425.770692 180.768 
L 429.906068 180.768 
L 429.906068 167.706254 
L 425.770692 167.706254 
z
" clip-path="url(#p291a5b6124)" style="fill: #488a21; opacity: 0.7"/>
   </g>
   <g id="patch_78">
    <path d="M 429.906068 180.768 
L 434.041443 180.768 
L 434.041443 169.602314 
L 429.906068 169.602314 
z
" clip-path="url(#p291a5b6124)" style="fill: #488a21; opacity: 0.7"/>
   </g>
   <g id="patch_79">
    <path d="M 434.041443 180.768 
L 438.176819 180.768 
L 438.176819 169.812988 
L 434.041443 169.812988 
z
" clip-path="url(#p291a5b6124)" style="fill: #488a21; opacity: 0.7"/>
   </g>
   <g id="patch_80">
    <path d="M 438.176819 180.768 
L 442.312194 180.768 
L 442.312194 166.652888 
L 438.176819 166.652888 
z
" clip-path="url(#p291a5b6124)" style="fill: #488a21; opacity: 0.7"/>
   </g>
   <g id="patch_81">
    <path d="M 442.312194 180.768 
L 446.44757 180.768 
L 446.44757 165.178175 
L 442.312194 165.178175 
z
" clip-path="url(#p291a5b6124)" style="fill: #488a21; opacity: 0.7"/>
   </g>
   <g id="patch_82">
    <path d="M 446.44757 180.768 
L 450.582945 180.768 
L 450.582945 162.860768 
L 446.44757 162.860768 
z
" clip-path="url(#p291a5b6124)" style="fill: #488a21; opacity: 0.7"/>
   </g>
   <g id="patch_83">
    <path d="M 450.582945 180.768 
L 454.718321 180.768 
L 454.718321 167.284908 
L 450.582945 167.284908 
z
" clip-path="url(#p291a5b6124)" style="fill: #488a21; opacity: 0.7"/>
   </g>
   <g id="patch_84">
    <path d="M 454.718321 180.768 
L 458.853696 180.768 
L 458.853696 162.860768 
L 454.718321 162.860768 
z
" clip-path="url(#p291a5b6124)" style="fill: #488a21; opacity: 0.7"/>
   </g>
   <g id="patch_85">
    <path d="M 458.853696 180.768 
L 462.989072 180.768 
L 462.989072 165.178175 
L 458.853696 165.178175 
z
" clip-path="url(#p291a5b6124)" style="fill: #488a21; opacity: 0.7"/>
   </g>
   <g id="patch_86">
    <path d="M 462.989072 180.768 
L 467.124447 180.768 
L 467.124447 163.071441 
L 462.989072 163.071441 
z
" clip-path="url(#p291a5b6124)" style="fill: #488a21; opacity: 0.7"/>
   </g>
   <g id="patch_87">
    <path d="M 467.124447 180.768 
L 471.259823 180.768 
L 471.259823 166.652888 
L 467.124447 166.652888 
z
" clip-path="url(#p291a5b6124)" style="fill: #488a21; opacity: 0.7"/>
   </g>
   <g id="patch_88">
    <path d="M 471.259823 180.768 
L 475.395198 180.768 
L 475.395198 162.228748 
L 471.259823 162.228748 
z
" clip-path="url(#p291a5b6124)" style="fill: #488a21; opacity: 0.7"/>
   </g>
   <g id="patch_89">
    <path d="M 475.395198 180.768 
L 479.530574 180.768 
L 479.530574 159.700668 
L 475.395198 159.700668 
z
" clip-path="url(#p291a5b6124)" style="fill: #488a21; opacity: 0.7"/>
   </g>
   <g id="patch_90">
    <path d="M 479.530574 180.768 
L 483.665949 180.768 
L 483.665949 140.10805 
L 479.530574 140.10805 
z
" clip-path="url(#p291a5b6124)" style="fill: #488a21; opacity: 0.7"/>
   </g>
   <g id="matplotlib.axis_3">
    <g id="xtick_6">
     <g id="line2d_14">
      <g>
       <use xlink:href="#mf496d382cd" x="318.250929" y="180.768" style="stroke: #000000; stroke-width: 4"/>
      </g>
     </g>
    </g>
    <g id="xtick_7">
     <g id="line2d_15">
      <g>
       <use xlink:href="#mf496d382cd" x="359.604684" y="180.768" style="stroke: #000000; stroke-width: 4"/>
      </g>
     </g>
    </g>
    <g id="xtick_8">
     <g id="line2d_16">
      <g>
       <use xlink:href="#mf496d382cd" x="400.958439" y="180.768" style="stroke: #000000; stroke-width: 4"/>
      </g>
     </g>
    </g>
    <g id="xtick_9">
     <g id="line2d_17">
      <g>
       <use xlink:href="#mf496d382cd" x="442.312194" y="180.768" style="stroke: #000000; stroke-width: 4"/>
      </g>
     </g>
    </g>
    <g id="xtick_10">
     <g id="line2d_18">
      <g>
       <use xlink:href="#mf496d382cd" x="483.665949" y="180.768" style="stroke: #000000; stroke-width: 4"/>
      </g>
     </g>
    </g>
   </g>
   <g id="matplotlib.axis_4">
    <g id="ytick_6">
     <g id="line2d_19">
      <g>
       <use xlink:href="#m5a54f2e3c0" x="309.980178" y="180.768" style="stroke: #000000; stroke-width: 4"/>
      </g>
     </g>
    </g>
    <g id="ytick_7">
     <g id="line2d_20">
      <g>
       <use xlink:href="#m5a54f2e3c0" x="309.980178" y="151.2" style="stroke: #000000; stroke-width: 4"/>
      </g>
     </g>
    </g>
    <g id="ytick_8">
     <g id="line2d_21">
      <g>
       <use xlink:href="#m5a54f2e3c0" x="309.980178" y="121.632" style="stroke: #000000; stroke-width: 4"/>
      </g>
     </g>
    </g>
    <g id="ytick_9">
     <g id="line2d_22">
      <g>
       <use xlink:href="#m5a54f2e3c0" x="309.980178" y="92.064" style="stroke: #000000; stroke-width: 4"/>
      </g>
     </g>
    </g>
    <g id="ytick_10">
     <g id="line2d_23">
      <g>
       <use xlink:href="#m5a54f2e3c0" x="309.980178" y="62.496" style="stroke: #000000; stroke-width: 4"/>
      </g>
     </g>
    </g>
   </g>
   <g id="line2d_24">
    <path d="M 309.980178 165.984 
L 491.9367 165.984 
" clip-path="url(#p291a5b6124)" style="fill: none; stroke-dasharray: 12,6; stroke-dashoffset: 0; stroke: #000000; stroke-opacity: 0.5; stroke-width: 3"/>
   </g>
   <g id="line2d_25"/>
   <g id="patch_91">
    <path d="M 309.980178 180.768 
L 309.980178 62.496 
" style="fill: none; stroke: #000000; stroke-width: 4; stroke-linejoin: miter; stroke-linecap: square"/>
   </g>
   <g id="patch_92">
    <path d="M 309.980178 180.768 
L 491.9367 180.768 
" style="fill: none; stroke: #000000; stroke-width: 4; stroke-linejoin: miter; stroke-linecap: square"/>
   </g>
   <g id="text_7">
    <!-- L5 Pyr -->
    <g transform="translate(374.545689 51.76512) scale(0.1728 -0.1728)">
     <defs>
      <path id="LiberationSans-Bold-35" d="M 3381 1466 
Q 3381 766 2945 351 
Q 2509 -63 1750 -63 
Q 1088 -63 689 235 
Q 291 534 197 1100 
L 1075 1172 
Q 1144 891 1319 762 
Q 1494 634 1759 634 
Q 2088 634 2283 843 
Q 2478 1053 2478 1447 
Q 2478 1794 2293 2001 
Q 2109 2209 1778 2209 
Q 1413 2209 1181 1925 
L 325 1925 
L 478 4403 
L 3125 4403 
L 3125 3750 
L 1275 3750 
L 1203 2638 
Q 1522 2919 2000 2919 
Q 2628 2919 3004 2528 
Q 3381 2138 3381 1466 
z
" transform="scale(0.015625)"/>
     </defs>
     <use xlink:href="#LiberationSans-Bold-4c"/>
     <use xlink:href="#LiberationSans-Bold-35" x="61.083984"/>
     <use xlink:href="#LiberationSans-Bold-20" x="116.699219"/>
     <use xlink:href="#LiberationSans-Bold-50" x="144.482422"/>
     <use xlink:href="#LiberationSans-Bold-79" x="211.181641"/>
     <use xlink:href="#LiberationSans-Bold-72" x="266.796875"/>
    </g>
   </g>
   <g id="legend_2">
    <g id="patch_93">
     <path d="M 340.926212 95.575888 
L 460.990667 95.575888 
Q 462.989867 95.575888 462.989867 93.576688 
L 462.989867 69.4932 
Q 462.989867 67.494 460.990667 67.494 
L 340.926212 67.494 
Q 338.927012 67.494 338.927012 69.4932 
L 338.927012 93.576688 
Q 338.927012 95.575888 340.926212 95.575888 
z
" style="fill: #ffffff; opacity: 0.8; stroke: #cccccc; stroke-width: 5; stroke-linejoin: miter"/>
    </g>
    <g id="line2d_26">
     <path d="M 342.925412 81.658332 
L 352.921412 81.658332 
L 362.917412 81.658332 
" style="fill: none; stroke: #488a21; stroke-width: 5; stroke-linecap: square"/>
    </g>
    <g id="text_8">
     <!-- 15.92% sig -->
     <g transform="translate(370.914212 78.736376) scale(0.09996 -0.09996)">
      <use xlink:href="#LiberationSans-31"/>
      <use xlink:href="#LiberationSans-35" x="55.615234"/>
      <use xlink:href="#LiberationSans-2e" x="111.230469"/>
      <use xlink:href="#LiberationSans-39" x="139.013672"/>
      <use xlink:href="#LiberationSans-32" x="194.628906"/>
      <use xlink:href="#LiberationSans-25" x="250.244141"/>
      <use xlink:href="#LiberationSans-20" x="339.160156"/>
      <use xlink:href="#LiberationSans-73" x="366.943359"/>
      <use xlink:href="#LiberationSans-69" x="416.943359"/>
      <use xlink:href="#LiberationSans-67" x="439.160156"/>
     </g>
     <!-- (255-/192+ of 2807) -->
     <g transform="translate(370.914212 89.503318) scale(0.09996 -0.09996)">
      <defs>
       <path id="LiberationSans-37" d="M 3238 3947 
Q 2563 2916 2284 2331 
Q 2006 1747 1867 1178 
Q 1728 609 1728 0 
L 1141 0 
Q 1141 844 1498 1776 
Q 1856 2709 2694 3925 
L 328 3925 
L 328 4403 
L 3238 4403 
L 3238 3947 
z
" transform="scale(0.015625)"/>
      </defs>
      <use xlink:href="#LiberationSans-28"/>
      <use xlink:href="#LiberationSans-32" x="33.300781"/>
      <use xlink:href="#LiberationSans-35" x="88.916016"/>
      <use xlink:href="#LiberationSans-35" x="144.53125"/>
      <use xlink:href="#LiberationSans-2d" x="200.146484"/>
      <use xlink:href="#LiberationSans-2f" x="233.447266"/>
      <use xlink:href="#LiberationSans-31" x="261.230469"/>
      <use xlink:href="#LiberationSans-39" x="316.845703"/>
      <use xlink:href="#LiberationSans-32" x="372.460938"/>
      <use xlink:href="#LiberationSans-2b" x="428.076172"/>
      <use xlink:href="#LiberationSans-20" x="486.474609"/>
      <use xlink:href="#LiberationSans-6f" x="514.257812"/>
      <use xlink:href="#LiberationSans-66" x="569.873047"/>
      <use xlink:href="#LiberationSans-20" x="597.65625"/>
      <use xlink:href="#LiberationSans-32" x="625.439453"/>
      <use xlink:href="#LiberationSans-38" x="681.054688"/>
      <use xlink:href="#LiberationSans-30" x="736.669922"/>
      <use xlink:href="#LiberationSans-37" x="792.285156"/>
      <use xlink:href="#LiberationSans-29" x="847.900391"/>
     </g>
    </g>
   </g>
  </g>
  <g id="axes_3">
   <g id="patch_94">
    <path d="M 73.4367 328.608 
L 255.393222 328.608 
L 255.393222 210.336 
L 73.4367 210.336 
z
" style="fill: #ffffff"/>
   </g>
   <g id="patch_95">
    <path d="M 81.707451 328.608 
L 81.707451 210.336 
L 85.842826 210.336 
L 85.842826 328.608 
z
" clip-path="url(#p0bec29b86a)" style="fill: #871719; opacity: 0.15; stroke: #871719; stroke-width: 2; stroke-linejoin: miter"/>
   </g>
   <g id="patch_96">
    <path d="M 242.987095 328.608 
L 242.987095 210.336 
L 247.122471 210.336 
L 247.122471 328.608 
z
" clip-path="url(#p0bec29b86a)" style="fill: #871719; opacity: 0.15; stroke: #871719; stroke-width: 2; stroke-linejoin: miter"/>
   </g>
   <g id="patch_97">
    <path d="M 81.707451 328.608 
L 85.842826 328.608 
L 85.842826 287.19827 
L 81.707451 287.19827 
z
" clip-path="url(#p0bec29b86a)" style="fill: #50a2d5; opacity: 0.7"/>
   </g>
   <g id="patch_98">
    <path d="M 85.842826 328.608 
L 89.978202 328.608 
L 89.978202 315.531243 
L 85.842826 315.531243 
z
" clip-path="url(#p0bec29b86a)" style="fill: #50a2d5; opacity: 0.7"/>
   </g>
   <g id="patch_99">
    <path d="M 89.978202 328.608 
L 94.113577 328.608 
L 94.113577 320.616649 
L 89.978202 320.616649 
z
" clip-path="url(#p0bec29b86a)" style="fill: #50a2d5; opacity: 0.7"/>
   </g>
   <g id="patch_100">
    <path d="M 94.113577 328.608 
L 98.248953 328.608 
L 98.248953 324.249081 
L 94.113577 324.249081 
z
" clip-path="url(#p0bec29b86a)" style="fill: #50a2d5; opacity: 0.7"/>
   </g>
   <g id="patch_101">
    <path d="M 98.248953 328.608 
L 102.384328 328.608 
L 102.384328 319.163676 
L 98.248953 319.163676 
z
" clip-path="url(#p0bec29b86a)" style="fill: #50a2d5; opacity: 0.7"/>
   </g>
   <g id="patch_102">
    <path d="M 102.384328 328.608 
L 106.519704 328.608 
L 106.519704 323.522595 
L 102.384328 323.522595 
z
" clip-path="url(#p0bec29b86a)" style="fill: #50a2d5; opacity: 0.7"/>
   </g>
   <g id="patch_103">
    <path d="M 106.519704 328.608 
L 110.655079 328.608 
L 110.655079 321.343135 
L 106.519704 321.343135 
z
" clip-path="url(#p0bec29b86a)" style="fill: #50a2d5; opacity: 0.7"/>
   </g>
   <g id="patch_104">
    <path d="M 110.655079 328.608 
L 114.790455 328.608 
L 114.790455 322.069622 
L 110.655079 322.069622 
z
" clip-path="url(#p0bec29b86a)" style="fill: #50a2d5; opacity: 0.7"/>
   </g>
   <g id="patch_105">
    <path d="M 114.790455 328.608 
L 118.92583 328.608 
L 118.92583 322.069622 
L 114.790455 322.069622 
z
" clip-path="url(#p0bec29b86a)" style="fill: #50a2d5; opacity: 0.7"/>
   </g>
   <g id="patch_106">
    <path d="M 118.92583 328.608 
L 123.061206 328.608 
L 123.061206 322.796108 
L 118.92583 322.796108 
z
" clip-path="url(#p0bec29b86a)" style="fill: #50a2d5; opacity: 0.7"/>
   </g>
   <g id="patch_107">
    <path d="M 123.061206 328.608 
L 127.196581 328.608 
L 127.196581 325.702054 
L 123.061206 325.702054 
z
" clip-path="url(#p0bec29b86a)" style="fill: #50a2d5; opacity: 0.7"/>
   </g>
   <g id="patch_108">
    <path d="M 127.196581 328.608 
L 131.331957 328.608 
L 131.331957 323.522595 
L 127.196581 323.522595 
z
" clip-path="url(#p0bec29b86a)" style="fill: #50a2d5; opacity: 0.7"/>
   </g>
   <g id="patch_109">
    <path d="M 131.331957 328.608 
L 135.467332 328.608 
L 135.467332 324.975568 
L 131.331957 324.975568 
z
" clip-path="url(#p0bec29b86a)" style="fill: #50a2d5; opacity: 0.7"/>
   </g>
   <g id="patch_110">
    <path d="M 135.467332 328.608 
L 139.602708 328.608 
L 139.602708 324.975568 
L 135.467332 324.975568 
z
" clip-path="url(#p0bec29b86a)" style="fill: #50a2d5; opacity: 0.7"/>
   </g>
   <g id="patch_111">
    <path d="M 139.602708 328.608 
L 143.738083 328.608 
L 143.738083 324.249081 
L 139.602708 324.249081 
z
" clip-path="url(#p0bec29b86a)" style="fill: #50a2d5; opacity: 0.7"/>
   </g>
   <g id="patch_112">
    <path d="M 143.738083 328.608 
L 147.873459 328.608 
L 147.873459 320.616649 
L 143.738083 320.616649 
z
" clip-path="url(#p0bec29b86a)" style="fill: #50a2d5; opacity: 0.7"/>
   </g>
   <g id="patch_113">
    <path d="M 147.873459 328.608 
L 152.008834 328.608 
L 152.008834 324.249081 
L 147.873459 324.249081 
z
" clip-path="url(#p0bec29b86a)" style="fill: #50a2d5; opacity: 0.7"/>
   </g>
   <g id="patch_114">
    <path d="M 152.008834 328.608 
L 156.14421 328.608 
L 156.14421 325.702054 
L 152.008834 325.702054 
z
" clip-path="url(#p0bec29b86a)" style="fill: #50a2d5; opacity: 0.7"/>
   </g>
   <g id="patch_115">
    <path d="M 156.14421 328.608 
L 160.279585 328.608 
L 160.279585 324.249081 
L 156.14421 324.249081 
z
" clip-path="url(#p0bec29b86a)" style="fill: #50a2d5; opacity: 0.7"/>
   </g>
   <g id="patch_116">
    <path d="M 160.279585 328.608 
L 164.414961 328.608 
L 164.414961 324.249081 
L 160.279585 324.249081 
z
" clip-path="url(#p0bec29b86a)" style="fill: #50a2d5; opacity: 0.7"/>
   </g>
   <g id="patch_117">
    <path d="M 164.414961 328.608 
L 168.550336 328.608 
L 168.550336 324.975568 
L 164.414961 324.975568 
z
" clip-path="url(#p0bec29b86a)" style="fill: #50a2d5; opacity: 0.7"/>
   </g>
   <g id="patch_118">
    <path d="M 168.550336 328.608 
L 172.685712 328.608 
L 172.685712 324.249081 
L 168.550336 324.249081 
z
" clip-path="url(#p0bec29b86a)" style="fill: #50a2d5; opacity: 0.7"/>
   </g>
   <g id="patch_119">
    <path d="M 172.685712 328.608 
L 176.821087 328.608 
L 176.821087 321.343135 
L 172.685712 321.343135 
z
" clip-path="url(#p0bec29b86a)" style="fill: #50a2d5; opacity: 0.7"/>
   </g>
   <g id="patch_120">
    <path d="M 176.821087 328.608 
L 180.956463 328.608 
L 180.956463 325.702054 
L 176.821087 325.702054 
z
" clip-path="url(#p0bec29b86a)" style="fill: #50a2d5; opacity: 0.7"/>
   </g>
   <g id="patch_121">
    <path d="M 180.956463 328.608 
L 185.091838 328.608 
L 185.091838 323.522595 
L 180.956463 323.522595 
z
" clip-path="url(#p0bec29b86a)" style="fill: #50a2d5; opacity: 0.7"/>
   </g>
   <g id="patch_122">
    <path d="M 185.091838 328.608 
L 189.227214 328.608 
L 189.227214 325.702054 
L 185.091838 325.702054 
z
" clip-path="url(#p0bec29b86a)" style="fill: #50a2d5; opacity: 0.7"/>
   </g>
   <g id="patch_123">
    <path d="M 189.227214 328.608 
L 193.362589 328.608 
L 193.362589 322.796108 
L 189.227214 322.796108 
z
" clip-path="url(#p0bec29b86a)" style="fill: #50a2d5; opacity: 0.7"/>
   </g>
   <g id="patch_124">
    <path d="M 193.362589 328.608 
L 197.497965 328.608 
L 197.497965 328.608 
L 193.362589 328.608 
z
" clip-path="url(#p0bec29b86a)" style="fill: #50a2d5; opacity: 0.7"/>
   </g>
   <g id="patch_125">
    <path d="M 197.497965 328.608 
L 201.63334 328.608 
L 201.63334 324.975568 
L 197.497965 324.975568 
z
" clip-path="url(#p0bec29b86a)" style="fill: #50a2d5; opacity: 0.7"/>
   </g>
   <g id="patch_126">
    <path d="M 201.63334 328.608 
L 205.768716 328.608 
L 205.768716 324.975568 
L 201.63334 324.975568 
z
" clip-path="url(#p0bec29b86a)" style="fill: #50a2d5; opacity: 0.7"/>
   </g>
   <g id="patch_127">
    <path d="M 205.768716 328.608 
L 209.904091 328.608 
L 209.904091 322.796108 
L 205.768716 322.796108 
z
" clip-path="url(#p0bec29b86a)" style="fill: #50a2d5; opacity: 0.7"/>
   </g>
   <g id="patch_128">
    <path d="M 209.904091 328.608 
L 214.039467 328.608 
L 214.039467 322.069622 
L 209.904091 322.069622 
z
" clip-path="url(#p0bec29b86a)" style="fill: #50a2d5; opacity: 0.7"/>
   </g>
   <g id="patch_129">
    <path d="M 214.039467 328.608 
L 218.174842 328.608 
L 218.174842 322.796108 
L 214.039467 322.796108 
z
" clip-path="url(#p0bec29b86a)" style="fill: #50a2d5; opacity: 0.7"/>
   </g>
   <g id="patch_130">
    <path d="M 218.174842 328.608 
L 222.310218 328.608 
L 222.310218 326.428541 
L 218.174842 326.428541 
z
" clip-path="url(#p0bec29b86a)" style="fill: #50a2d5; opacity: 0.7"/>
   </g>
   <g id="patch_131">
    <path d="M 222.310218 328.608 
L 226.445593 328.608 
L 226.445593 324.975568 
L 222.310218 324.975568 
z
" clip-path="url(#p0bec29b86a)" style="fill: #50a2d5; opacity: 0.7"/>
   </g>
   <g id="patch_132">
    <path d="M 226.445593 328.608 
L 230.580969 328.608 
L 230.580969 323.522595 
L 226.445593 323.522595 
z
" clip-path="url(#p0bec29b86a)" style="fill: #50a2d5; opacity: 0.7"/>
   </g>
   <g id="patch_133">
    <path d="M 230.580969 328.608 
L 234.716344 328.608 
L 234.716344 320.616649 
L 230.580969 320.616649 
z
" clip-path="url(#p0bec29b86a)" style="fill: #50a2d5; opacity: 0.7"/>
   </g>
   <g id="patch_134">
    <path d="M 234.716344 328.608 
L 238.85172 328.608 
L 238.85172 319.890162 
L 234.716344 319.890162 
z
" clip-path="url(#p0bec29b86a)" style="fill: #50a2d5; opacity: 0.7"/>
   </g>
   <g id="patch_135">
    <path d="M 238.85172 328.608 
L 242.987095 328.608 
L 242.987095 320.616649 
L 238.85172 320.616649 
z
" clip-path="url(#p0bec29b86a)" style="fill: #50a2d5; opacity: 0.7"/>
   </g>
   <g id="patch_136">
    <path d="M 242.987095 328.608 
L 247.122471 328.608 
L 247.122471 277.027459 
L 242.987095 277.027459 
z
" clip-path="url(#p0bec29b86a)" style="fill: #50a2d5; opacity: 0.7"/>
   </g>
   <g id="matplotlib.axis_5">
    <g id="xtick_11">
     <g id="line2d_27">
      <g>
       <use xlink:href="#mf496d382cd" x="81.707451" y="328.608" style="stroke: #000000; stroke-width: 4"/>
      </g>
     </g>
     <g id="text_9">
      <!-- 0 -->
      <g transform="translate(76.902801 352.6306) scale(0.1728 -0.1728)">
       <use xlink:href="#LiberationSans-Bold-30"/>
      </g>
     </g>
    </g>
    <g id="xtick_12">
     <g id="line2d_28">
      <g>
       <use xlink:href="#mf496d382cd" x="123.061206" y="328.608" style="stroke: #000000; stroke-width: 4"/>
      </g>
     </g>
     <g id="text_10">
      <!-- 25 -->
      <g transform="translate(113.451906 352.6306) scale(0.1728 -0.1728)">
       <use xlink:href="#LiberationSans-Bold-32"/>
       <use xlink:href="#LiberationSans-Bold-35" x="55.615234"/>
      </g>
     </g>
    </g>
    <g id="xtick_13">
     <g id="line2d_29">
      <g>
       <use xlink:href="#mf496d382cd" x="164.414961" y="328.608" style="stroke: #000000; stroke-width: 4"/>
      </g>
     </g>
     <g id="text_11">
      <!-- 50 -->
      <g transform="translate(154.805661 352.6306) scale(0.1728 -0.1728)">
       <use xlink:href="#LiberationSans-Bold-35"/>
       <use xlink:href="#LiberationSans-Bold-30" x="55.615234"/>
      </g>
     </g>
    </g>
    <g id="xtick_14">
     <g id="line2d_30">
      <g>
       <use xlink:href="#mf496d382cd" x="205.768716" y="328.608" style="stroke: #000000; stroke-width: 4"/>
      </g>
     </g>
     <g id="text_12">
      <!-- 75 -->
      <g transform="translate(196.159416 352.6306) scale(0.1728 -0.1728)">
       <defs>
        <path id="LiberationSans-Bold-37" d="M 3278 3706 
Q 2981 3238 2717 2797 
Q 2453 2356 2256 1911 
Q 2059 1466 1945 995 
Q 1831 525 1831 0 
L 916 0 
Q 916 550 1059 1064 
Q 1203 1578 1475 2111 
Q 1747 2644 2463 3681 
L 275 3681 
L 275 4403 
L 3278 4403 
L 3278 3706 
z
" transform="scale(0.015625)"/>
       </defs>
       <use xlink:href="#LiberationSans-Bold-37"/>
       <use xlink:href="#LiberationSans-Bold-35" x="55.615234"/>
      </g>
     </g>
    </g>
    <g id="xtick_15">
     <g id="line2d_31">
      <g>
       <use xlink:href="#mf496d382cd" x="247.122471" y="328.608" style="stroke: #000000; stroke-width: 4"/>
      </g>
     </g>
     <g id="text_13">
      <!-- 100 -->
      <g transform="translate(232.708521 352.6306) scale(0.1728 -0.1728)">
       <defs>
        <path id="LiberationSans-Bold-31" d="M 403 0 
L 403 653 
L 1494 653 
L 1494 3656 
L 438 2997 
L 438 3688 
L 1541 4403 
L 2372 4403 
L 2372 653 
L 3381 653 
L 3381 0 
L 403 0 
z
" transform="scale(0.015625)"/>
       </defs>
       <use xlink:href="#LiberationSans-Bold-31"/>
       <use xlink:href="#LiberationSans-Bold-30" x="55.615234"/>
       <use xlink:href="#LiberationSans-Bold-30" x="111.230469"/>
      </g>
     </g>
    </g>
   </g>
   <g id="matplotlib.axis_6">
    <g id="ytick_11">
     <g id="line2d_32">
      <g>
       <use xlink:href="#m5a54f2e3c0" x="73.4367" y="328.608" style="stroke: #000000; stroke-width: 4"/>
      </g>
     </g>
     <g id="text_14">
      <!-- 0 -->
      <g transform="translate(52.3274 334.8693) scale(0.1728 -0.1728)">
       <use xlink:href="#LiberationSans-Bold-30"/>
      </g>
     </g>
    </g>
    <g id="ytick_12">
     <g id="line2d_33">
      <g>
       <use xlink:href="#m5a54f2e3c0" x="73.4367" y="299.04" style="stroke: #000000; stroke-width: 4"/>
      </g>
     </g>
    </g>
    <g id="ytick_13">
     <g id="line2d_34">
      <g>
       <use xlink:href="#m5a54f2e3c0" x="73.4367" y="269.472" style="stroke: #000000; stroke-width: 4"/>
      </g>
     </g>
     <g id="text_15">
      <!-- 0.08 -->
      <g transform="translate(28.3082 275.7333) scale(0.1728 -0.1728)">
       <use xlink:href="#LiberationSans-Bold-30"/>
       <use xlink:href="#LiberationSans-Bold-2e" x="55.615234"/>
       <use xlink:href="#LiberationSans-Bold-30" x="83.398438"/>
       <use xlink:href="#LiberationSans-Bold-38" x="139.013672"/>
      </g>
     </g>
    </g>
    <g id="ytick_14">
     <g id="line2d_35">
      <g>
       <use xlink:href="#m5a54f2e3c0" x="73.4367" y="239.904" style="stroke: #000000; stroke-width: 4"/>
      </g>
     </g>
    </g>
    <g id="ytick_15">
     <g id="line2d_36">
      <g>
       <use xlink:href="#m5a54f2e3c0" x="73.4367" y="210.336" style="stroke: #000000; stroke-width: 4"/>
      </g>
     </g>
     <g id="text_16">
      <!-- 0.16 -->
      <g transform="translate(28.3082 216.5973) scale(0.1728 -0.1728)">
       <defs>
        <path id="LiberationSans-Bold-36" d="M 3328 1441 
Q 3328 738 2934 337 
Q 2541 -63 1847 -63 
Q 1069 -63 651 482 
Q 234 1028 234 2100 
Q 234 3278 657 3873 
Q 1081 4469 1869 4469 
Q 2428 4469 2751 4222 
Q 3075 3975 3209 3456 
L 2381 3341 
Q 2263 3775 1850 3775 
Q 1497 3775 1295 3422 
Q 1094 3069 1094 2350 
Q 1234 2584 1484 2709 
Q 1734 2834 2050 2834 
Q 2641 2834 2984 2459 
Q 3328 2084 3328 1441 
z
M 2447 1416 
Q 2447 1791 2273 1989 
Q 2100 2188 1797 2188 
Q 1506 2188 1331 2002 
Q 1156 1816 1156 1509 
Q 1156 1125 1339 873 
Q 1522 622 1819 622 
Q 2116 622 2281 833 
Q 2447 1044 2447 1416 
z
" transform="scale(0.015625)"/>
       </defs>
       <use xlink:href="#LiberationSans-Bold-30"/>
       <use xlink:href="#LiberationSans-Bold-2e" x="55.615234"/>
       <use xlink:href="#LiberationSans-Bold-31" x="83.398438"/>
       <use xlink:href="#LiberationSans-Bold-36" x="139.013672"/>
      </g>
     </g>
    </g>
   </g>
   <g id="line2d_37">
    <path d="M 73.4367 321.216 
L 255.393222 321.216 
" clip-path="url(#p0bec29b86a)" style="fill: none; stroke-dasharray: 12,6; stroke-dashoffset: 0; stroke: #000000; stroke-opacity: 0.5; stroke-width: 3"/>
   </g>
   <g id="line2d_38"/>
   <g id="patch_137">
    <path d="M 73.4367 328.608 
L 73.4367 210.336 
" style="fill: none; stroke: #000000; stroke-width: 4; stroke-linejoin: miter; stroke-linecap: square"/>
   </g>
   <g id="patch_138">
    <path d="M 73.4367 328.608 
L 255.393222 328.608 
" style="fill: none; stroke: #000000; stroke-width: 4; stroke-linejoin: miter; stroke-linecap: square"/>
   </g>
   <g id="legend_3">
    <g id="patch_139">
     <path d="M 112.720803 243.415888 
L 216.109119 243.415888 
Q 218.108319 243.415888 218.108319 241.416688 
L 218.108319 217.3332 
Q 218.108319 215.334 216.109119 215.334 
L 112.720803 215.334 
Q 110.721603 215.334 110.721603 217.3332 
L 110.721603 241.416688 
Q 110.721603 243.415888 112.720803 243.415888 
z
" style="fill: #ffffff; opacity: 0.8; stroke: #cccccc; stroke-width: 5; stroke-linejoin: miter"/>
    </g>
    <g id="line2d_39">
     <path d="M 114.720003 229.498332 
L 124.716003 229.498332 
L 134.712003 229.498332 
" style="fill: none; stroke: #50a2d5; stroke-width: 5; stroke-linecap: square"/>
    </g>
    <g id="text_17">
     <!-- 31.45% sig -->
     <g transform="translate(142.708803 226.576376) scale(0.09996 -0.09996)">
      <defs>
       <path id="LiberationSans-34" d="M 2753 997 
L 2753 0 
L 2222 0 
L 2222 997 
L 147 997 
L 147 1434 
L 2163 4403 
L 2753 4403 
L 2753 1441 
L 3372 1441 
L 3372 997 
L 2753 997 
z
M 2222 3769 
Q 2216 3750 2134 3603 
Q 2053 3456 2013 3397 
L 884 1734 
L 716 1503 
L 666 1441 
L 2222 1441 
L 2222 3769 
z
" transform="scale(0.015625)"/>
      </defs>
      <use xlink:href="#LiberationSans-33"/>
      <use xlink:href="#LiberationSans-31" x="55.615234"/>
      <use xlink:href="#LiberationSans-2e" x="111.230469"/>
      <use xlink:href="#LiberationSans-34" x="139.013672"/>
      <use xlink:href="#LiberationSans-35" x="194.628906"/>
      <use xlink:href="#LiberationSans-25" x="250.244141"/>
      <use xlink:href="#LiberationSans-20" x="339.160156"/>
      <use xlink:href="#LiberationSans-73" x="366.943359"/>
      <use xlink:href="#LiberationSans-69" x="416.943359"/>
      <use xlink:href="#LiberationSans-67" x="439.160156"/>
     </g>
     <!-- (57-/71+ of 407) -->
     <g transform="translate(142.708803 237.343318) scale(0.09996 -0.09996)">
      <use xlink:href="#LiberationSans-28"/>
      <use xlink:href="#LiberationSans-35" x="33.300781"/>
      <use xlink:href="#LiberationSans-37" x="88.916016"/>
      <use xlink:href="#LiberationSans-2d" x="144.53125"/>
      <use xlink:href="#LiberationSans-2f" x="177.832031"/>
      <use xlink:href="#LiberationSans-37" x="205.615234"/>
      <use xlink:href="#LiberationSans-31" x="261.230469"/>
      <use xlink:href="#LiberationSans-2b" x="316.845703"/>
      <use xlink:href="#LiberationSans-20" x="375.244141"/>
      <use xlink:href="#LiberationSans-6f" x="403.027344"/>
      <use xlink:href="#LiberationSans-66" x="458.642578"/>
      <use xlink:href="#LiberationSans-20" x="486.425781"/>
      <use xlink:href="#LiberationSans-34" x="514.208984"/>
      <use xlink:href="#LiberationSans-30" x="569.824219"/>
      <use xlink:href="#LiberationSans-37" x="625.439453"/>
      <use xlink:href="#LiberationSans-29" x="681.054688"/>
     </g>
    </g>
   </g>
  </g>
  <g id="axes_4">
   <g id="patch_140">
    <path d="M 309.980178 328.608 
L 491.9367 328.608 
L 491.9367 210.336 
L 309.980178 210.336 
z
" style="fill: #ffffff"/>
   </g>
   <g id="patch_141">
    <path d="M 318.250929 328.608 
L 318.250929 210.336 
L 322.386305 210.336 
L 322.386305 328.608 
z
" clip-path="url(#pecf65d296e)" style="fill: #871719; opacity: 0.15; stroke: #871719; stroke-width: 2; stroke-linejoin: miter"/>
   </g>
   <g id="patch_142">
    <path d="M 479.530574 328.608 
L 479.530574 210.336 
L 483.665949 210.336 
L 483.665949 328.608 
z
" clip-path="url(#pecf65d296e)" style="fill: #871719; opacity: 0.15; stroke: #871719; stroke-width: 2; stroke-linejoin: miter"/>
   </g>
   <g id="patch_143">
    <path d="M 318.250929 328.608 
L 322.386305 328.608 
L 322.386305 308.316235 
L 318.250929 308.316235 
z
" clip-path="url(#pecf65d296e)" style="fill: #22567a; opacity: 0.7"/>
   </g>
   <g id="patch_144">
    <path d="M 322.386305 328.608 
L 326.52168 328.608 
L 326.52168 322.810353 
L 322.386305 322.810353 
z
" clip-path="url(#pecf65d296e)" style="fill: #22567a; opacity: 0.7"/>
   </g>
   <g id="patch_145">
    <path d="M 326.52168 328.608 
L 330.657056 328.608 
L 330.657056 324.259765 
L 326.52168 324.259765 
z
" clip-path="url(#pecf65d296e)" style="fill: #22567a; opacity: 0.7"/>
   </g>
   <g id="patch_146">
    <path d="M 330.657056 328.608 
L 334.792431 328.608 
L 334.792431 325.709176 
L 330.657056 325.709176 
z
" clip-path="url(#pecf65d296e)" style="fill: #22567a; opacity: 0.7"/>
   </g>
   <g id="patch_147">
    <path d="M 334.792431 328.608 
L 338.927807 328.608 
L 338.927807 324.259765 
L 334.792431 324.259765 
z
" clip-path="url(#pecf65d296e)" style="fill: #22567a; opacity: 0.7"/>
   </g>
   <g id="patch_148">
    <path d="M 338.927807 328.608 
L 343.063182 328.608 
L 343.063182 325.709176 
L 338.927807 325.709176 
z
" clip-path="url(#pecf65d296e)" style="fill: #22567a; opacity: 0.7"/>
   </g>
   <g id="patch_149">
    <path d="M 343.063182 328.608 
L 347.198558 328.608 
L 347.198558 321.360941 
L 343.063182 321.360941 
z
" clip-path="url(#pecf65d296e)" style="fill: #22567a; opacity: 0.7"/>
   </g>
   <g id="patch_150">
    <path d="M 347.198558 328.608 
L 351.333933 328.608 
L 351.333933 319.911529 
L 347.198558 319.911529 
z
" clip-path="url(#pecf65d296e)" style="fill: #22567a; opacity: 0.7"/>
   </g>
   <g id="patch_151">
    <path d="M 351.333933 328.608 
L 355.469309 328.608 
L 355.469309 327.158588 
L 351.333933 327.158588 
z
" clip-path="url(#pecf65d296e)" style="fill: #22567a; opacity: 0.7"/>
   </g>
   <g id="patch_152">
    <path d="M 355.469309 328.608 
L 359.604684 328.608 
L 359.604684 325.709176 
L 355.469309 325.709176 
z
" clip-path="url(#pecf65d296e)" style="fill: #22567a; opacity: 0.7"/>
   </g>
   <g id="patch_153">
    <path d="M 359.604684 328.608 
L 363.74006 328.608 
L 363.74006 319.911529 
L 359.604684 319.911529 
z
" clip-path="url(#pecf65d296e)" style="fill: #22567a; opacity: 0.7"/>
   </g>
   <g id="patch_154">
    <path d="M 363.74006 328.608 
L 367.875435 328.608 
L 367.875435 324.259765 
L 363.74006 324.259765 
z
" clip-path="url(#pecf65d296e)" style="fill: #22567a; opacity: 0.7"/>
   </g>
   <g id="patch_155">
    <path d="M 367.875435 328.608 
L 372.010811 328.608 
L 372.010811 322.810353 
L 367.875435 322.810353 
z
" clip-path="url(#pecf65d296e)" style="fill: #22567a; opacity: 0.7"/>
   </g>
   <g id="patch_156">
    <path d="M 372.010811 328.608 
L 376.146186 328.608 
L 376.146186 322.810353 
L 372.010811 322.810353 
z
" clip-path="url(#pecf65d296e)" style="fill: #22567a; opacity: 0.7"/>
   </g>
   <g id="patch_157">
    <path d="M 376.146186 328.608 
L 380.281562 328.608 
L 380.281562 322.810353 
L 376.146186 322.810353 
z
" clip-path="url(#pecf65d296e)" style="fill: #22567a; opacity: 0.7"/>
   </g>
   <g id="patch_158">
    <path d="M 380.281562 328.608 
L 384.416937 328.608 
L 384.416937 324.259765 
L 380.281562 324.259765 
z
" clip-path="url(#pecf65d296e)" style="fill: #22567a; opacity: 0.7"/>
   </g>
   <g id="patch_159">
    <path d="M 384.416937 328.608 
L 388.552313 328.608 
L 388.552313 324.259765 
L 384.416937 324.259765 
z
" clip-path="url(#pecf65d296e)" style="fill: #22567a; opacity: 0.7"/>
   </g>
   <g id="patch_160">
    <path d="M 388.552313 328.608 
L 392.687688 328.608 
L 392.687688 321.360941 
L 388.552313 321.360941 
z
" clip-path="url(#pecf65d296e)" style="fill: #22567a; opacity: 0.7"/>
   </g>
   <g id="patch_161">
    <path d="M 392.687688 328.608 
L 396.823064 328.608 
L 396.823064 324.259765 
L 392.687688 324.259765 
z
" clip-path="url(#pecf65d296e)" style="fill: #22567a; opacity: 0.7"/>
   </g>
   <g id="patch_162">
    <path d="M 396.823064 328.608 
L 400.958439 328.608 
L 400.958439 324.259765 
L 396.823064 324.259765 
z
" clip-path="url(#pecf65d296e)" style="fill: #22567a; opacity: 0.7"/>
   </g>
   <g id="patch_163">
    <path d="M 400.958439 328.608 
L 405.093815 328.608 
L 405.093815 324.259765 
L 400.958439 324.259765 
z
" clip-path="url(#pecf65d296e)" style="fill: #22567a; opacity: 0.7"/>
   </g>
   <g id="patch_164">
    <path d="M 405.093815 328.608 
L 409.22919 328.608 
L 409.22919 328.608 
L 405.093815 328.608 
z
" clip-path="url(#pecf65d296e)" style="fill: #22567a; opacity: 0.7"/>
   </g>
   <g id="patch_165">
    <path d="M 409.22919 328.608 
L 413.364566 328.608 
L 413.364566 327.158588 
L 409.22919 327.158588 
z
" clip-path="url(#pecf65d296e)" style="fill: #22567a; opacity: 0.7"/>
   </g>
   <g id="patch_166">
    <path d="M 413.364566 328.608 
L 417.499941 328.608 
L 417.499941 318.462118 
L 413.364566 318.462118 
z
" clip-path="url(#pecf65d296e)" style="fill: #22567a; opacity: 0.7"/>
   </g>
   <g id="patch_167">
    <path d="M 417.499941 328.608 
L 421.635317 328.608 
L 421.635317 321.360941 
L 417.499941 321.360941 
z
" clip-path="url(#pecf65d296e)" style="fill: #22567a; opacity: 0.7"/>
   </g>
   <g id="patch_168">
    <path d="M 421.635317 328.608 
L 425.770692 328.608 
L 425.770692 324.259765 
L 421.635317 324.259765 
z
" clip-path="url(#pecf65d296e)" style="fill: #22567a; opacity: 0.7"/>
   </g>
   <g id="patch_169">
    <path d="M 425.770692 328.608 
L 429.906068 328.608 
L 429.906068 324.259765 
L 425.770692 324.259765 
z
" clip-path="url(#pecf65d296e)" style="fill: #22567a; opacity: 0.7"/>
   </g>
   <g id="patch_170">
    <path d="M 429.906068 328.608 
L 434.041443 328.608 
L 434.041443 325.709176 
L 429.906068 325.709176 
z
" clip-path="url(#pecf65d296e)" style="fill: #22567a; opacity: 0.7"/>
   </g>
   <g id="patch_171">
    <path d="M 434.041443 328.608 
L 438.176819 328.608 
L 438.176819 324.259765 
L 434.041443 324.259765 
z
" clip-path="url(#pecf65d296e)" style="fill: #22567a; opacity: 0.7"/>
   </g>
   <g id="patch_172">
    <path d="M 438.176819 328.608 
L 442.312194 328.608 
L 442.312194 318.462118 
L 438.176819 318.462118 
z
" clip-path="url(#pecf65d296e)" style="fill: #22567a; opacity: 0.7"/>
   </g>
   <g id="patch_173">
    <path d="M 442.312194 328.608 
L 446.44757 328.608 
L 446.44757 325.709176 
L 442.312194 325.709176 
z
" clip-path="url(#pecf65d296e)" style="fill: #22567a; opacity: 0.7"/>
   </g>
   <g id="patch_174">
    <path d="M 446.44757 328.608 
L 450.582945 328.608 
L 450.582945 327.158588 
L 446.44757 327.158588 
z
" clip-path="url(#pecf65d296e)" style="fill: #22567a; opacity: 0.7"/>
   </g>
   <g id="patch_175">
    <path d="M 450.582945 328.608 
L 454.718321 328.608 
L 454.718321 328.608 
L 450.582945 328.608 
z
" clip-path="url(#pecf65d296e)" style="fill: #22567a; opacity: 0.7"/>
   </g>
   <g id="patch_176">
    <path d="M 454.718321 328.608 
L 458.853696 328.608 
L 458.853696 327.158588 
L 454.718321 327.158588 
z
" clip-path="url(#pecf65d296e)" style="fill: #22567a; opacity: 0.7"/>
   </g>
   <g id="patch_177">
    <path d="M 458.853696 328.608 
L 462.989072 328.608 
L 462.989072 327.158588 
L 458.853696 327.158588 
z
" clip-path="url(#pecf65d296e)" style="fill: #22567a; opacity: 0.7"/>
   </g>
   <g id="patch_178">
    <path d="M 462.989072 328.608 
L 467.124447 328.608 
L 467.124447 319.911529 
L 462.989072 319.911529 
z
" clip-path="url(#pecf65d296e)" style="fill: #22567a; opacity: 0.7"/>
   </g>
   <g id="patch_179">
    <path d="M 467.124447 328.608 
L 471.259823 328.608 
L 471.259823 327.158588 
L 467.124447 327.158588 
z
" clip-path="url(#pecf65d296e)" style="fill: #22567a; opacity: 0.7"/>
   </g>
   <g id="patch_180">
    <path d="M 471.259823 328.608 
L 475.395198 328.608 
L 475.395198 318.462118 
L 471.259823 318.462118 
z
" clip-path="url(#pecf65d296e)" style="fill: #22567a; opacity: 0.7"/>
   </g>
   <g id="patch_181">
    <path d="M 475.395198 328.608 
L 479.530574 328.608 
L 479.530574 318.462118 
L 475.395198 318.462118 
z
" clip-path="url(#pecf65d296e)" style="fill: #22567a; opacity: 0.7"/>
   </g>
   <g id="patch_182">
    <path d="M 479.530574 328.608 
L 483.665949 328.608 
L 483.665949 235.845647 
L 479.530574 235.845647 
z
" clip-path="url(#pecf65d296e)" style="fill: #22567a; opacity: 0.7"/>
   </g>
   <g id="matplotlib.axis_7">
    <g id="xtick_16">
     <g id="line2d_40">
      <g>
       <use xlink:href="#mf496d382cd" x="318.250929" y="328.608" style="stroke: #000000; stroke-width: 4"/>
      </g>
     </g>
    </g>
    <g id="xtick_17">
     <g id="line2d_41">
      <g>
       <use xlink:href="#mf496d382cd" x="359.604684" y="328.608" style="stroke: #000000; stroke-width: 4"/>
      </g>
     </g>
    </g>
    <g id="xtick_18">
     <g id="line2d_42">
      <g>
       <use xlink:href="#mf496d382cd" x="400.958439" y="328.608" style="stroke: #000000; stroke-width: 4"/>
      </g>
     </g>
    </g>
    <g id="xtick_19">
     <g id="line2d_43">
      <g>
       <use xlink:href="#mf496d382cd" x="442.312194" y="328.608" style="stroke: #000000; stroke-width: 4"/>
      </g>
     </g>
    </g>
    <g id="xtick_20">
     <g id="line2d_44">
      <g>
       <use xlink:href="#mf496d382cd" x="483.665949" y="328.608" style="stroke: #000000; stroke-width: 4"/>
      </g>
     </g>
    </g>
   </g>
   <g id="matplotlib.axis_8">
    <g id="ytick_16">
     <g id="line2d_45">
      <g>
       <use xlink:href="#m5a54f2e3c0" x="309.980178" y="328.608" style="stroke: #000000; stroke-width: 4"/>
      </g>
     </g>
    </g>
    <g id="ytick_17">
     <g id="line2d_46">
      <g>
       <use xlink:href="#m5a54f2e3c0" x="309.980178" y="299.04" style="stroke: #000000; stroke-width: 4"/>
      </g>
     </g>
    </g>
    <g id="ytick_18">
     <g id="line2d_47">
      <g>
       <use xlink:href="#m5a54f2e3c0" x="309.980178" y="269.472" style="stroke: #000000; stroke-width: 4"/>
      </g>
     </g>
    </g>
    <g id="ytick_19">
     <g id="line2d_48">
      <g>
       <use xlink:href="#m5a54f2e3c0" x="309.980178" y="239.904" style="stroke: #000000; stroke-width: 4"/>
      </g>
     </g>
    </g>
    <g id="ytick_20">
     <g id="line2d_49">
      <g>
       <use xlink:href="#m5a54f2e3c0" x="309.980178" y="210.336" style="stroke: #000000; stroke-width: 4"/>
      </g>
     </g>
    </g>
   </g>
   <g id="line2d_50">
    <path d="M 309.980178 321.216 
L 491.9367 321.216 
" clip-path="url(#pecf65d296e)" style="fill: none; stroke-dasharray: 12,6; stroke-dashoffset: 0; stroke: #000000; stroke-opacity: 0.5; stroke-width: 3"/>
   </g>
   <g id="line2d_51"/>
   <g id="patch_183">
    <path d="M 309.980178 328.608 
L 309.980178 210.336 
" style="fill: none; stroke: #000000; stroke-width: 4; stroke-linejoin: miter; stroke-linecap: square"/>
   </g>
   <g id="patch_184">
    <path d="M 309.980178 328.608 
L 491.9367 328.608 
" style="fill: none; stroke: #000000; stroke-width: 4; stroke-linejoin: miter; stroke-linecap: square"/>
   </g>
   <g id="legend_4">
    <g id="patch_185">
     <path d="M 349.264281 243.415888 
L 452.652597 243.415888 
Q 454.651797 243.415888 454.651797 241.416688 
L 454.651797 217.3332 
Q 454.651797 215.334 452.652597 215.334 
L 349.264281 215.334 
Q 347.265081 215.334 347.265081 217.3332 
L 347.265081 241.416688 
Q 347.265081 243.415888 349.264281 243.415888 
z
" style="fill: #ffffff; opacity: 0.8; stroke: #cccccc; stroke-width: 5; stroke-linejoin: miter"/>
    </g>
    <g id="line2d_52">
     <path d="M 351.263481 229.498332 
L 361.259481 229.498332 
L 371.255481 229.498332 
" style="fill: none; stroke: #22567a; stroke-width: 5; stroke-linecap: square"/>
    </g>
    <g id="text_18">
     <!-- 38.24% sig -->
     <g transform="translate(379.252281 226.576376) scale(0.09996 -0.09996)">
      <use xlink:href="#LiberationSans-33"/>
      <use xlink:href="#LiberationSans-38" x="55.615234"/>
      <use xlink:href="#LiberationSans-2e" x="111.230469"/>
      <use xlink:href="#LiberationSans-32" x="139.013672"/>
      <use xlink:href="#LiberationSans-34" x="194.628906"/>
      <use xlink:href="#LiberationSans-25" x="250.244141"/>
      <use xlink:href="#LiberationSans-20" x="339.160156"/>
      <use xlink:href="#LiberationSans-73" x="366.943359"/>
      <use xlink:href="#LiberationSans-69" x="416.943359"/>
      <use xlink:href="#LiberationSans-67" x="439.160156"/>
     </g>
     <!-- (14-/64+ of 204) -->
     <g transform="translate(379.252281 237.343318) scale(0.09996 -0.09996)">
      <use xlink:href="#LiberationSans-28"/>
      <use xlink:href="#LiberationSans-31" x="33.300781"/>
      <use xlink:href="#LiberationSans-34" x="88.916016"/>
      <use xlink:href="#LiberationSans-2d" x="144.53125"/>
      <use xlink:href="#LiberationSans-2f" x="177.832031"/>
      <use xlink:href="#LiberationSans-36" x="205.615234"/>
      <use xlink:href="#LiberationSans-34" x="261.230469"/>
      <use xlink:href="#LiberationSans-2b" x="316.845703"/>
      <use xlink:href="#LiberationSans-20" x="375.244141"/>
      <use xlink:href="#LiberationSans-6f" x="403.027344"/>
      <use xlink:href="#LiberationSans-66" x="458.642578"/>
      <use xlink:href="#LiberationSans-20" x="486.425781"/>
      <use xlink:href="#LiberationSans-32" x="514.208984"/>
      <use xlink:href="#LiberationSans-30" x="569.824219"/>
      <use xlink:href="#LiberationSans-34" x="625.439453"/>
      <use xlink:href="#LiberationSans-29" x="681.054688"/>
     </g>
    </g>
   </g>
  </g>
  <g id="text_19">
   <!-- Gabor sequence percentiles -->
   <g transform="translate(160.22145 19.7226) scale(0.1728 -0.1728)">
    <defs>
     <path id="LiberationSans-Bold-47" d="M 2519 659 
Q 2878 659 3215 764 
Q 3553 869 3738 1031 
L 3738 1641 
L 2663 1641 
L 2663 2322 
L 4581 2322 
L 4581 703 
Q 4231 344 3670 140 
Q 3109 -63 2494 -63 
Q 1419 -63 841 532 
Q 263 1128 263 2222 
Q 263 3309 844 3889 
Q 1425 4469 2516 4469 
Q 4066 4469 4488 3322 
L 3638 3066 
Q 3500 3400 3206 3572 
Q 2913 3744 2516 3744 
Q 1866 3744 1528 3350 
Q 1191 2956 1191 2222 
Q 1191 1475 1539 1067 
Q 1888 659 2519 659 
z
" transform="scale(0.015625)"/>
     <path id="LiberationSans-Bold-61" d="M 1228 -63 
Q 738 -63 463 204 
Q 188 472 188 956 
Q 188 1481 530 1756 
Q 872 2031 1522 2038 
L 2250 2050 
L 2250 2222 
Q 2250 2553 2134 2714 
Q 2019 2875 1756 2875 
Q 1513 2875 1398 2764 
Q 1284 2653 1256 2397 
L 341 2441 
Q 425 2934 792 3189 
Q 1159 3444 1794 3444 
Q 2434 3444 2781 3128 
Q 3128 2813 3128 2231 
L 3128 1000 
Q 3128 716 3192 608 
Q 3256 500 3406 500 
Q 3506 500 3600 519 
L 3600 44 
Q 3522 25 3459 9 
Q 3397 -6 3334 -15 
Q 3272 -25 3201 -31 
Q 3131 -38 3038 -38 
Q 2706 -38 2548 125 
Q 2391 288 2359 603 
L 2341 603 
Q 1972 -63 1228 -63 
z
M 2250 1566 
L 1800 1559 
Q 1494 1547 1366 1492 
Q 1238 1438 1170 1325 
Q 1103 1213 1103 1025 
Q 1103 784 1214 667 
Q 1325 550 1509 550 
Q 1716 550 1886 662 
Q 2056 775 2153 973 
Q 2250 1172 2250 1394 
L 2250 1566 
z
" transform="scale(0.015625)"/>
     <path id="LiberationSans-Bold-62" d="M 3647 1703 
Q 3647 866 3311 401 
Q 2975 -63 2350 -63 
Q 1991 -63 1728 93 
Q 1466 250 1325 544 
L 1319 544 
Q 1319 434 1305 243 
Q 1291 53 1275 0 
L 422 0 
Q 447 291 447 772 
L 447 4638 
L 1325 4638 
L 1325 3344 
L 1313 2794 
L 1325 2794 
Q 1622 3444 2406 3444 
Q 3006 3444 3326 2989 
Q 3647 2534 3647 1703 
z
M 2731 1703 
Q 2731 2278 2562 2556 
Q 2394 2834 2041 2834 
Q 1684 2834 1498 2536 
Q 1313 2238 1313 1675 
Q 1313 1138 1495 838 
Q 1678 538 2034 538 
Q 2731 538 2731 1703 
z
" transform="scale(0.015625)"/>
     <path id="LiberationSans-Bold-6f" d="M 3659 1694 
Q 3659 872 3203 404 
Q 2747 -63 1941 -63 
Q 1150 -63 700 406 
Q 250 875 250 1694 
Q 250 2509 700 2976 
Q 1150 3444 1959 3444 
Q 2788 3444 3223 2992 
Q 3659 2541 3659 1694 
z
M 2741 1694 
Q 2741 2297 2544 2569 
Q 2347 2841 1972 2841 
Q 1172 2841 1172 1694 
Q 1172 1128 1367 833 
Q 1563 538 1931 538 
Q 2741 538 2741 1694 
z
" transform="scale(0.015625)"/>
     <path id="LiberationSans-Bold-73" d="M 3297 988 
Q 3297 497 2895 217 
Q 2494 -63 1784 -63 
Q 1088 -63 717 157 
Q 347 378 225 844 
L 997 959 
Q 1063 719 1223 619 
Q 1384 519 1784 519 
Q 2153 519 2322 612 
Q 2491 706 2491 906 
Q 2491 1069 2355 1164 
Q 2219 1259 1894 1325 
Q 1150 1472 890 1598 
Q 631 1725 495 1926 
Q 359 2128 359 2422 
Q 359 2906 732 3176 
Q 1106 3447 1791 3447 
Q 2394 3447 2761 3212 
Q 3128 2978 3219 2534 
L 2441 2453 
Q 2403 2659 2256 2761 
Q 2109 2863 1791 2863 
Q 1478 2863 1322 2783 
Q 1166 2703 1166 2516 
Q 1166 2369 1286 2283 
Q 1406 2197 1691 2141 
Q 2088 2059 2395 1973 
Q 2703 1888 2889 1769 
Q 3075 1650 3186 1464 
Q 3297 1278 3297 988 
z
" transform="scale(0.015625)"/>
     <path id="LiberationSans-Bold-65" d="M 1831 -63 
Q 1069 -63 659 389 
Q 250 841 250 1706 
Q 250 2544 665 2994 
Q 1081 3444 1844 3444 
Q 2572 3444 2956 2961 
Q 3341 2478 3341 1547 
L 3341 1522 
L 1172 1522 
Q 1172 1028 1355 776 
Q 1538 525 1875 525 
Q 2341 525 2463 928 
L 3291 856 
Q 2931 -63 1831 -63 
z
M 1831 2891 
Q 1522 2891 1355 2675 
Q 1188 2459 1178 2072 
L 2491 2072 
Q 2466 2481 2294 2686 
Q 2122 2891 1831 2891 
z
" transform="scale(0.015625)"/>
     <path id="LiberationSans-Bold-71" d="M 263 1688 
Q 263 2525 605 2986 
Q 947 3447 1569 3447 
Q 2306 3447 2591 2838 
Q 2591 2981 2608 3157 
Q 2625 3334 2638 3381 
L 3481 3381 
Q 3463 3044 3463 2603 
L 3463 -1328 
L 2591 -1328 
L 2591 78 
L 2606 563 
L 2600 563 
Q 2309 -63 1497 -63 
Q 906 -63 584 398 
Q 263 859 263 1688 
z
M 2597 1706 
Q 2597 2247 2415 2545 
Q 2234 2844 1881 2844 
Q 1178 2844 1178 1688 
Q 1178 538 1875 538 
Q 2219 538 2408 842 
Q 2597 1147 2597 1706 
z
" transform="scale(0.015625)"/>
     <path id="LiberationSans-Bold-75" d="M 1275 3381 
L 1275 1484 
Q 1275 594 1875 594 
Q 2194 594 2389 867 
Q 2584 1141 2584 1569 
L 2584 3381 
L 3463 3381 
L 3463 756 
Q 3463 325 3488 0 
L 2650 0 
Q 2613 450 2613 672 
L 2597 672 
Q 2422 288 2151 112 
Q 1881 -63 1509 -63 
Q 972 -63 684 267 
Q 397 597 397 1234 
L 397 3381 
L 1275 3381 
z
" transform="scale(0.015625)"/>
     <path id="LiberationSans-Bold-6e" d="M 2638 0 
L 2638 1897 
Q 2638 2788 2034 2788 
Q 1716 2788 1520 2514 
Q 1325 2241 1325 1813 
L 1325 0 
L 447 0 
L 447 2625 
Q 447 2897 439 3070 
Q 431 3244 422 3381 
L 1259 3381 
Q 1269 3322 1284 3064 
Q 1300 2806 1300 2709 
L 1313 2709 
Q 1491 3097 1759 3272 
Q 2028 3447 2400 3447 
Q 2938 3447 3225 3115 
Q 3513 2784 3513 2147 
L 3513 0 
L 2638 0 
z
" transform="scale(0.015625)"/>
     <path id="LiberationSans-Bold-63" d="M 1856 -63 
Q 1088 -63 669 395 
Q 250 853 250 1672 
Q 250 2509 672 2976 
Q 1094 3444 1869 3444 
Q 2466 3444 2856 3144 
Q 3247 2844 3347 2316 
L 2463 2272 
Q 2425 2531 2275 2686 
Q 2125 2841 1850 2841 
Q 1172 2841 1172 1706 
Q 1172 538 1863 538 
Q 2113 538 2281 695 
Q 2450 853 2491 1166 
L 3372 1125 
Q 3325 778 3123 506 
Q 2922 234 2594 85 
Q 2266 -63 1856 -63 
z
" transform="scale(0.015625)"/>
     <path id="LiberationSans-Bold-70" d="M 3647 1706 
Q 3647 859 3308 398 
Q 2969 -63 2350 -63 
Q 1994 -63 1730 92 
Q 1466 247 1325 538 
L 1306 538 
Q 1325 444 1325 -31 
L 1325 -1328 
L 447 -1328 
L 447 2603 
Q 447 3081 422 3381 
L 1275 3381 
Q 1291 3325 1302 3159 
Q 1313 2994 1313 2831 
L 1325 2831 
Q 1622 3453 2406 3453 
Q 2997 3453 3322 2998 
Q 3647 2544 3647 1706 
z
M 2731 1706 
Q 2731 2844 2034 2844 
Q 1684 2844 1498 2537 
Q 1313 2231 1313 1681 
Q 1313 1134 1498 836 
Q 1684 538 2028 538 
Q 2731 538 2731 1706 
z
" transform="scale(0.015625)"/>
     <path id="LiberationSans-Bold-74" d="M 1313 -56 
Q 925 -56 715 155 
Q 506 366 506 794 
L 506 2788 
L 78 2788 
L 78 3381 
L 550 3381 
L 825 4175 
L 1375 4175 
L 1375 3381 
L 2016 3381 
L 2016 2788 
L 1375 2788 
L 1375 1031 
Q 1375 784 1469 667 
Q 1563 550 1759 550 
Q 1863 550 2053 594 
L 2053 50 
Q 1728 -56 1313 -56 
z
" transform="scale(0.015625)"/>
     <path id="LiberationSans-Bold-69" d="M 447 3991 
L 447 4638 
L 1325 4638 
L 1325 3991 
L 447 3991 
z
M 447 0 
L 447 3381 
L 1325 3381 
L 1325 0 
L 447 0 
z
" transform="scale(0.015625)"/>
     <path id="LiberationSans-Bold-6c" d="M 447 0 
L 447 4638 
L 1325 4638 
L 1325 0 
L 447 0 
z
" transform="scale(0.015625)"/>
    </defs>
    <use xlink:href="#LiberationSans-Bold-47"/>
    <use xlink:href="#LiberationSans-Bold-61" x="77.783203"/>
    <use xlink:href="#LiberationSans-Bold-62" x="133.398438"/>
    <use xlink:href="#LiberationSans-Bold-6f" x="194.482422"/>
    <use xlink:href="#LiberationSans-Bold-72" x="255.566406"/>
    <use xlink:href="#LiberationSans-Bold-20" x="294.482422"/>
    <use xlink:href="#LiberationSans-Bold-73" x="322.265625"/>
    <use xlink:href="#LiberationSans-Bold-65" x="377.880859"/>
    <use xlink:href="#LiberationSans-Bold-71" x="433.496094"/>
    <use xlink:href="#LiberationSans-Bold-75" x="494.580078"/>
    <use xlink:href="#LiberationSans-Bold-65" x="555.664062"/>
    <use xlink:href="#LiberationSans-Bold-6e" x="611.279297"/>
    <use xlink:href="#LiberationSans-Bold-63" x="672.363281"/>
    <use xlink:href="#LiberationSans-Bold-65" x="727.978516"/>
    <use xlink:href="#LiberationSans-Bold-20" x="783.59375"/>
    <use xlink:href="#LiberationSans-Bold-70" x="811.376953"/>
    <use xlink:href="#LiberationSans-Bold-65" x="872.460938"/>
    <use xlink:href="#LiberationSans-Bold-72" x="928.076172"/>
    <use xlink:href="#LiberationSans-Bold-63" x="966.992188"/>
    <use xlink:href="#LiberationSans-Bold-65" x="1022.607422"/>
    <use xlink:href="#LiberationSans-Bold-6e" x="1078.222656"/>
    <use xlink:href="#LiberationSans-Bold-74" x="1139.306641"/>
    <use xlink:href="#LiberationSans-Bold-69" x="1172.607422"/>
    <use xlink:href="#LiberationSans-Bold-6c" x="1200.390625"/>
    <use xlink:href="#LiberationSans-Bold-65" x="1228.173828"/>
    <use xlink:href="#LiberationSans-Bold-73" x="1283.789062"/>
   </g>
  </g>
  <g id="text_20">
   <!-- dendrites -->
   <g transform="translate(558.4593 160.5174) rotate(-90) scale(0.1728 -0.1728)">
    <defs>
     <path id="LiberationSans-Bold-64" d="M 2638 0 
Q 2625 47 2608 236 
Q 2591 425 2591 550 
L 2578 550 
Q 2294 -63 1497 -63 
Q 906 -63 584 398 
Q 263 859 263 1688 
Q 263 2528 602 2986 
Q 941 3444 1563 3444 
Q 1922 3444 2183 3294 
Q 2444 3144 2584 2847 
L 2591 2847 
L 2584 3403 
L 2584 4638 
L 3463 4638 
L 3463 738 
Q 3463 425 3488 0 
L 2638 0 
z
M 2597 1709 
Q 2597 2256 2414 2551 
Q 2231 2847 1875 2847 
Q 1522 2847 1350 2561 
Q 1178 2275 1178 1688 
Q 1178 538 1869 538 
Q 2216 538 2406 842 
Q 2597 1147 2597 1709 
z
" transform="scale(0.015625)"/>
    </defs>
    <use xlink:href="#LiberationSans-Bold-64"/>
    <use xlink:href="#LiberationSans-Bold-65" x="61.083984"/>
    <use xlink:href="#LiberationSans-Bold-6e" x="116.699219"/>
    <use xlink:href="#LiberationSans-Bold-64" x="177.783203"/>
    <use xlink:href="#LiberationSans-Bold-72" x="238.867188"/>
    <use xlink:href="#LiberationSans-Bold-69" x="277.783203"/>
    <use xlink:href="#LiberationSans-Bold-74" x="305.566406"/>
    <use xlink:href="#LiberationSans-Bold-65" x="338.867188"/>
    <use xlink:href="#LiberationSans-Bold-73" x="394.482422"/>
   </g>
  </g>
  <g id="text_21">
   <!-- somata -->
   <g transform="translate(558.4593 299.7228) rotate(-90) scale(0.1728 -0.1728)">
    <defs>
     <path id="LiberationSans-Bold-6d" d="M 2438 0 
L 2438 1897 
Q 2438 2788 1925 2788 
Q 1659 2788 1492 2516 
Q 1325 2244 1325 1813 
L 1325 0 
L 447 0 
L 447 2625 
Q 447 2897 439 3070 
Q 431 3244 422 3381 
L 1259 3381 
Q 1269 3322 1284 3064 
Q 1300 2806 1300 2709 
L 1313 2709 
Q 1475 3097 1717 3272 
Q 1959 3447 2297 3447 
Q 3072 3447 3238 2709 
L 3256 2709 
Q 3428 3103 3668 3275 
Q 3909 3447 4281 3447 
Q 4775 3447 5034 3111 
Q 5294 2775 5294 2147 
L 5294 0 
L 4422 0 
L 4422 1897 
Q 4422 2788 3909 2788 
Q 3653 2788 3489 2539 
Q 3325 2291 3309 1853 
L 3309 0 
L 2438 0 
z
" transform="scale(0.015625)"/>
    </defs>
    <use xlink:href="#LiberationSans-Bold-73"/>
    <use xlink:href="#LiberationSans-Bold-6f" x="55.615234"/>
    <use xlink:href="#LiberationSans-Bold-6d" x="116.699219"/>
    <use xlink:href="#LiberationSans-Bold-61" x="205.615234"/>
    <use xlink:href="#LiberationSans-Bold-74" x="261.230469"/>
    <use xlink:href="#LiberationSans-Bold-61" x="294.53125"/>
   </g>
  </g>
  <g id="text_22">
   <!-- Index -->
   <g transform="translate(253.3728 370.08) scale(0.1728 -0.1728)">
    <defs>
     <path id="LiberationSans-Bold-49" d="M 428 0 
L 428 4403 
L 1350 4403 
L 1350 0 
L 428 0 
z
" transform="scale(0.015625)"/>
     <path id="LiberationSans-Bold-78" d="M 2559 0 
L 1772 1225 
L 978 0 
L 44 0 
L 1281 1747 
L 103 3381 
L 1050 3381 
L 1772 2275 
L 2491 3381 
L 3444 3381 
L 2266 1756 
L 3513 0 
L 2559 0 
z
" transform="scale(0.015625)"/>
    </defs>
    <use xlink:href="#LiberationSans-Bold-49"/>
    <use xlink:href="#LiberationSans-Bold-6e" x="27.783203"/>
    <use xlink:href="#LiberationSans-Bold-64" x="88.867188"/>
    <use xlink:href="#LiberationSans-Bold-65" x="149.951172"/>
    <use xlink:href="#LiberationSans-Bold-78" x="205.566406"/>
   </g>
  </g>
  <g id="text_23">
   <!-- Density -->
   <g transform="translate(19.8693 152.83995) rotate(-90) scale(0.1728 -0.1728)">
    <defs>
     <path id="LiberationSans-Bold-44" d="M 4353 2234 
Q 4353 1553 4086 1045 
Q 3819 538 3330 269 
Q 2841 0 2209 0 
L 428 0 
L 428 4403 
L 2022 4403 
Q 3134 4403 3743 3842 
Q 4353 3281 4353 2234 
z
M 3425 2234 
Q 3425 2944 3056 3317 
Q 2688 3691 2003 3691 
L 1350 3691 
L 1350 713 
L 2131 713 
Q 2725 713 3075 1122 
Q 3425 1531 3425 2234 
z
" transform="scale(0.015625)"/>
    </defs>
    <use xlink:href="#LiberationSans-Bold-44"/>
    <use xlink:href="#LiberationSans-Bold-65" x="72.216797"/>
    <use xlink:href="#LiberationSans-Bold-6e" x="127.832031"/>
    <use xlink:href="#LiberationSans-Bold-73" x="188.916016"/>
    <use xlink:href="#LiberationSans-Bold-69" x="244.53125"/>
    <use xlink:href="#LiberationSans-Bold-74" x="272.314453"/>
    <use xlink:href="#LiberationSans-Bold-79" x="305.615234"/>
   </g>
  </g>
 </g>
 <defs>
  <clipPath id="p23520751ac">
   <rect x="73.4367" y="62.496" width="181.956522" height="118.272"/>
  </clipPath>
  <clipPath id="p291a5b6124">
   <rect x="309.980178" y="62.496" width="181.956522" height="118.272"/>
  </clipPath>
  <clipPath id="p0bec29b86a">
   <rect x="73.4367" y="210.336" width="181.956522" height="118.272"/>
  </clipPath>
  <clipPath id="pecf65d296e">
   <rect x="309.980178" y="210.336" width="181.956522" height="118.272"/>
  </clipPath>
 </defs>
</svg>
