<?xml version="1.0" encoding="utf-8" standalone="no"?>
<!DOCTYPE svg PUBLIC "-//W3C//DTD SVG 1.1//EN"
  "http://www.w3.org/Graphics/SVG/1.1/DTD/svg11.dtd">
<!-- Created with matplotlib (https://matplotlib.org/) -->
<svg height="613.3941pt" version="1.1" viewBox="0 0 403.8708 613.3941" width="403.8708pt" xmlns="http://www.w3.org/2000/svg" xmlns:xlink="http://www.w3.org/1999/xlink">
 <metadata>
  <rdf:RDF xmlns:cc="http://creativecommons.org/ns#" xmlns:dc="http://purl.org/dc/elements/1.1/" xmlns:rdf="http://www.w3.org/1999/02/22-rdf-syntax-ns#">
   <cc:Work>
    <dc:type rdf:resource="http://purl.org/dc/dcmitype/StillImage"/>
    <dc:date>2022-01-26T18:43:33.735593</dc:date>
    <dc:format>image/svg+xml</dc:format>
    <dc:creator>
     <cc:Agent>
      <dc:title>Matplotlib v3.3.4, https://matplotlib.org/</dc:title>
     </cc:Agent>
    </dc:creator>
   </cc:Work>
  </rdf:RDF>
 </metadata>
 <defs>
  <style type="text/css">*{stroke-linecap:butt;stroke-linejoin:round;}</style>
 </defs>
 <g id="figure_1">
  <g id="patch_1">
   <path d="M 0 613.3941 
L 403.8708 613.3941 
L 403.8708 0 
L 0 0 
z
" style="fill:#ffffff;"/>
  </g>
  <g id="axes_1">
   <g id="patch_2">
    <path d="M 79.5 285.984 
L 205.656522 285.984 
L 205.656522 64.224 
L 79.5 64.224 
z
" style="fill:#ffffff;"/>
   </g>
   <g id="patch_3">
    <path clip-path="url(#p5be34279b4)" d="M 96.215739 241.471247 
L 113.24687 241.471247 
L 113.24687 204.237389 
L 96.215739 204.237389 
z
" style="fill:#d3d3d3;"/>
   </g>
   <g id="patch_4">
    <path clip-path="url(#p5be34279b4)" d="M 134.062696 242.031907 
L 151.093826 242.031907 
L 151.093826 203.186797 
L 134.062696 203.186797 
z
" style="fill:#d3d3d3;"/>
   </g>
   <g id="patch_5">
    <path clip-path="url(#p5be34279b4)" d="M 171.909652 256.512728 
L 188.940783 256.512728 
L 188.940783 188.042206 
L 171.909652 188.042206 
z
" style="fill:#d3d3d3;"/>
   </g>
   <g id="patch_6">
    <path clip-path="url(#p5be34279b4)" d="M 96.215739 224.220138 
L 113.24687 224.220138 
L 113.24687 221.000935 
L 96.215739 221.000935 
z
" style="fill:#808080;"/>
   </g>
   <g id="patch_7">
    <path clip-path="url(#p5be34279b4)" d="M 134.062696 224.243082 
L 151.093826 224.243082 
L 151.093826 221.023878 
L 134.062696 221.023878 
z
" style="fill:#808080;"/>
   </g>
   <g id="patch_8">
    <path clip-path="url(#p5be34279b4)" d="M 171.909652 224.22748 
L 188.940783 224.22748 
L 188.940783 221.008276 
L 171.909652 221.008276 
z
" style="fill:#808080;"/>
   </g>
   <g id="matplotlib.axis_1">
    <g id="xtick_1"/>
    <g id="xtick_2"/>
    <g id="xtick_3"/>
   </g>
   <g id="matplotlib.axis_2">
    <g id="ytick_1">
     <g id="line2d_1">
      <defs>
       <path d="M 0 0 
L -8 0 
" id="m98badb187e" style="stroke:#000000;stroke-width:4;"/>
      </defs>
      <g>
       <use style="stroke:#000000;stroke-width:4;" x="79.5" xlink:href="#m98badb187e" y="285.984"/>
      </g>
     </g>
     <g id="text_1">
      <!-- -0.04 -->
      <g transform="translate(28.6178 292.16835)scale(0.1728 -0.1728)">
       <defs>
        <path d="M 5.609375 19.09375 
L 5.609375 32.8125 
L 32.5625 32.8125 
L 32.5625 19.09375 
z
" id="Arial-BoldMT-45"/>
        <path d="M 27.4375 71.875 
Q 37.84375 71.875 43.703125 64.453125 
Q 50.6875 55.671875 50.6875 35.296875 
Q 50.6875 14.984375 43.65625 6.109375 
Q 37.84375 -1.21875 27.4375 -1.21875 
Q 17 -1.21875 10.59375 6.8125 
Q 4.203125 14.84375 4.203125 35.453125 
Q 4.203125 55.671875 11.234375 64.546875 
Q 17.046875 71.875 27.4375 71.875 
z
M 27.4375 60.5 
Q 24.953125 60.5 23 58.90625 
Q 21.046875 57.328125 19.96875 53.21875 
Q 18.5625 47.90625 18.5625 35.296875 
Q 18.5625 22.703125 19.828125 17.984375 
Q 21.09375 13.28125 23.015625 11.71875 
Q 24.953125 10.15625 27.4375 10.15625 
Q 29.9375 10.15625 31.890625 11.734375 
Q 33.84375 13.328125 34.90625 17.4375 
Q 36.328125 22.703125 36.328125 35.296875 
Q 36.328125 47.90625 35.0625 52.609375 
Q 33.796875 57.328125 31.859375 58.90625 
Q 29.9375 60.5 27.4375 60.5 
z
" id="Arial-BoldMT-48"/>
        <path d="M 7.171875 0 
L 7.171875 13.71875 
L 20.90625 13.71875 
L 20.90625 0 
z
" id="Arial-BoldMT-46"/>
        <path d="M 31.15625 0 
L 31.15625 14.40625 
L 1.859375 14.40625 
L 1.859375 26.421875 
L 32.90625 71.875 
L 44.4375 71.875 
L 44.4375 26.46875 
L 53.328125 26.46875 
L 53.328125 14.40625 
L 44.4375 14.40625 
L 44.4375 0 
z
M 31.15625 26.46875 
L 31.15625 50.921875 
L 14.703125 26.46875 
z
" id="Arial-BoldMT-52"/>
       </defs>
       <use xlink:href="#Arial-BoldMT-45"/>
       <use x="33.300781" xlink:href="#Arial-BoldMT-48"/>
       <use x="88.916016" xlink:href="#Arial-BoldMT-46"/>
       <use x="116.699219" xlink:href="#Arial-BoldMT-48"/>
       <use x="172.314453" xlink:href="#Arial-BoldMT-52"/>
      </g>
     </g>
    </g>
    <g id="ytick_2">
     <g id="line2d_2">
      <g>
       <use style="stroke:#000000;stroke-width:4;" x="79.5" xlink:href="#m98badb187e" y="254.304"/>
      </g>
     </g>
    </g>
    <g id="ytick_3">
     <g id="line2d_3">
      <g>
       <use style="stroke:#000000;stroke-width:4;" x="79.5" xlink:href="#m98badb187e" y="222.624"/>
      </g>
     </g>
     <g id="text_2">
      <!-- 0 -->
      <g transform="translate(58.3907 228.80835)scale(0.1728 -0.1728)">
       <use xlink:href="#Arial-BoldMT-48"/>
      </g>
     </g>
    </g>
    <g id="ytick_4">
     <g id="line2d_4">
      <g>
       <use style="stroke:#000000;stroke-width:4;" x="79.5" xlink:href="#m98badb187e" y="190.944"/>
      </g>
     </g>
    </g>
    <g id="ytick_5">
     <g id="line2d_5">
      <g>
       <use style="stroke:#000000;stroke-width:4;" x="79.5" xlink:href="#m98badb187e" y="159.264"/>
      </g>
     </g>
     <g id="text_3">
      <!-- 0.04 -->
      <g transform="translate(34.3715 165.44835)scale(0.1728 -0.1728)">
       <use xlink:href="#Arial-BoldMT-48"/>
       <use x="55.615234" xlink:href="#Arial-BoldMT-46"/>
       <use x="83.398438" xlink:href="#Arial-BoldMT-48"/>
       <use x="139.013672" xlink:href="#Arial-BoldMT-52"/>
      </g>
     </g>
    </g>
    <g id="ytick_6">
     <g id="line2d_6">
      <g>
       <use style="stroke:#000000;stroke-width:4;" x="79.5" xlink:href="#m98badb187e" y="127.584"/>
      </g>
     </g>
    </g>
    <g id="ytick_7">
     <g id="line2d_7">
      <g>
       <use style="stroke:#000000;stroke-width:4;" x="79.5" xlink:href="#m98badb187e" y="95.904"/>
      </g>
     </g>
     <g id="text_4">
      <!-- 0.08 -->
      <g transform="translate(34.3715 102.08835)scale(0.1728 -0.1728)">
       <defs>
        <path d="M 16.015625 38.625 
Q 10.6875 40.875 8.265625 44.796875 
Q 5.859375 48.734375 5.859375 53.421875 
Q 5.859375 61.421875 11.453125 66.640625 
Q 17.046875 71.875 27.34375 71.875 
Q 37.546875 71.875 43.1875 66.640625 
Q 48.828125 61.421875 48.828125 53.421875 
Q 48.828125 48.4375 46.234375 44.546875 
Q 43.65625 40.671875 38.96875 38.625 
Q 44.921875 36.234375 48.015625 31.640625 
Q 51.125 27.046875 51.125 21.046875 
Q 51.125 11.140625 44.796875 4.9375 
Q 38.484375 -1.265625 27.984375 -1.265625 
Q 18.21875 -1.265625 11.71875 3.859375 
Q 4.046875 9.90625 4.046875 20.453125 
Q 4.046875 26.265625 6.921875 31.125 
Q 9.8125 35.984375 16.015625 38.625 
z
M 18.84375 52.4375 
Q 18.84375 48.34375 21.15625 46.046875 
Q 23.484375 43.75 27.34375 43.75 
Q 31.25 43.75 33.59375 46.0625 
Q 35.9375 48.390625 35.9375 52.484375 
Q 35.9375 56.34375 33.609375 58.65625 
Q 31.296875 60.984375 27.484375 60.984375 
Q 23.53125 60.984375 21.1875 58.640625 
Q 18.84375 56.296875 18.84375 52.4375 
z
M 17.578125 21.78125 
Q 17.578125 16.109375 20.484375 12.9375 
Q 23.390625 9.765625 27.734375 9.765625 
Q 31.984375 9.765625 34.765625 12.8125 
Q 37.546875 15.875 37.546875 21.625 
Q 37.546875 26.65625 34.71875 29.703125 
Q 31.890625 32.765625 27.546875 32.765625 
Q 22.515625 32.765625 20.046875 29.296875 
Q 17.578125 25.828125 17.578125 21.78125 
z
" id="Arial-BoldMT-56"/>
       </defs>
       <use xlink:href="#Arial-BoldMT-48"/>
       <use x="55.615234" xlink:href="#Arial-BoldMT-46"/>
       <use x="83.398438" xlink:href="#Arial-BoldMT-48"/>
       <use x="139.013672" xlink:href="#Arial-BoldMT-56"/>
      </g>
     </g>
    </g>
    <g id="ytick_8">
     <g id="line2d_8">
      <g>
       <use style="stroke:#000000;stroke-width:4;" x="79.5" xlink:href="#m98badb187e" y="64.224"/>
      </g>
     </g>
    </g>
    <g id="text_5">
     <!-- . -->
     <g style="fill:#ffffff;" transform="translate(20.1834 177.5043)rotate(-90)scale(0.1728 -0.1728)">
      <defs>
       <path d="M 9.078125 0 
L 9.078125 10.015625 
L 19.09375 10.015625 
L 19.09375 0 
z
" id="ArialMT-46"/>
      </defs>
      <use xlink:href="#ArialMT-46"/>
     </g>
    </g>
   </g>
   <g id="LineCollection_1">
    <path clip-path="url(#p5be34279b4)" d="M 104.731304 185.609212 
L 104.731304 182.396008 
" style="fill:none;stroke:#76bb4b;stroke-opacity:0.8;stroke-width:5;"/>
    <path clip-path="url(#p5be34279b4)" d="M 142.578261 186.213467 
L 142.578261 182.248849 
" style="fill:none;stroke:#76bb4b;stroke-opacity:0.8;stroke-width:5;"/>
    <path clip-path="url(#p5be34279b4)" d="M 180.425217 163.037644 
L 180.425217 154.315795 
" style="fill:none;stroke:#76bb4b;stroke-opacity:0.8;stroke-width:5;"/>
   </g>
   <g id="line2d_9">
    <defs>
     <path d="M 4 0 
L -4 -0 
" id="md1f1ba887c" style="stroke:#76bb4b;stroke-opacity:0.8;stroke-width:4;"/>
    </defs>
    <g clip-path="url(#p5be34279b4)">
     <use style="fill:#76bb4b;fill-opacity:0.8;stroke:#76bb4b;stroke-opacity:0.8;stroke-width:4;" x="104.731304" xlink:href="#md1f1ba887c" y="185.609212"/>
     <use style="fill:#76bb4b;fill-opacity:0.8;stroke:#76bb4b;stroke-opacity:0.8;stroke-width:4;" x="142.578261" xlink:href="#md1f1ba887c" y="186.213467"/>
     <use style="fill:#76bb4b;fill-opacity:0.8;stroke:#76bb4b;stroke-opacity:0.8;stroke-width:4;" x="180.425217" xlink:href="#md1f1ba887c" y="163.037644"/>
    </g>
   </g>
   <g id="line2d_10">
    <g clip-path="url(#p5be34279b4)">
     <use style="fill:#76bb4b;fill-opacity:0.8;stroke:#76bb4b;stroke-opacity:0.8;stroke-width:4;" x="104.731304" xlink:href="#md1f1ba887c" y="182.396008"/>
     <use style="fill:#76bb4b;fill-opacity:0.8;stroke:#76bb4b;stroke-opacity:0.8;stroke-width:4;" x="142.578261" xlink:href="#md1f1ba887c" y="182.248849"/>
     <use style="fill:#76bb4b;fill-opacity:0.8;stroke:#76bb4b;stroke-opacity:0.8;stroke-width:4;" x="180.425217" xlink:href="#md1f1ba887c" y="154.315795"/>
    </g>
   </g>
   <g id="line2d_11">
    <path clip-path="url(#p5be34279b4)" d="M 104.731304 120.843106 
L 180.425217 120.843106 
" style="fill:none;stroke:#76bb4b;stroke-linecap:square;stroke-width:3;"/>
   </g>
   <g id="line2d_12">
    <path clip-path="url(#p5be34279b4)" d="M 142.578261 103.038484 
L 180.425217 103.038484 
" style="fill:none;stroke:#76bb4b;stroke-linecap:square;stroke-width:3;"/>
   </g>
   <g id="line2d_13">
    <path clip-path="url(#p5be34279b4)" d="M 104.731304 184.00261 
L 142.578261 184.231158 
L 180.425217 158.67672 
" style="fill:none;stroke:#76bb4b;stroke-linecap:square;stroke-opacity:0.8;stroke-width:5;"/>
    <defs>
     <path d="M 0 5 
C 1.326016 5 2.597899 4.473168 3.535534 3.535534 
C 4.473168 2.597899 5 1.326016 5 0 
C 5 -1.326016 4.473168 -2.597899 3.535534 -3.535534 
C 2.597899 -4.473168 1.326016 -5 0 -5 
C -1.326016 -5 -2.597899 -4.473168 -3.535534 -3.535534 
C -4.473168 -2.597899 -5 -1.326016 -5 0 
C -5 1.326016 -4.473168 2.597899 -3.535534 3.535534 
C -2.597899 4.473168 -1.326016 5 0 5 
z
" id="m8cab86a7e7" style="stroke:#76bb4b;stroke-opacity:0.8;stroke-width:4;"/>
    </defs>
    <g clip-path="url(#p5be34279b4)">
     <use style="fill:#76bb4b;fill-opacity:0.8;stroke:#76bb4b;stroke-opacity:0.8;stroke-width:4;" x="104.731304" xlink:href="#m8cab86a7e7" y="184.00261"/>
     <use style="fill:#76bb4b;fill-opacity:0.8;stroke:#76bb4b;stroke-opacity:0.8;stroke-width:4;" x="142.578261" xlink:href="#m8cab86a7e7" y="184.231158"/>
     <use style="fill:#76bb4b;fill-opacity:0.8;stroke:#76bb4b;stroke-opacity:0.8;stroke-width:4;" x="180.425217" xlink:href="#m8cab86a7e7" y="158.67672"/>
    </g>
   </g>
   <g id="patch_9">
    <path d="M 79.5 285.984 
L 79.5 64.224 
" style="fill:none;stroke:#000000;stroke-linecap:square;stroke-linejoin:miter;stroke-width:4;"/>
   </g>
   <g id="text_6">
    <!-- *** -->
    <g style="fill:#76bb4b;" transform="translate(92.625044 181.142431)scale(0.20736 -0.20736)">
     <defs>
      <path d="M 11.96875 38.671875 
L 4.59375 44.390625 
Q 8.109375 48.34375 11.921875 51.953125 
Q 13.421875 53.421875 13.8125 53.8125 
Q 12.59375 54 6.84375 55.421875 
Q 2.6875 56.453125 1.375 56.9375 
L 4.25 65.53125 
Q 10.640625 62.9375 15.671875 59.8125 
Q 14.5 67.78125 14.5 72.796875 
L 23.1875 72.796875 
Q 23.1875 69.234375 21.875 59.71875 
Q 22.859375 60.109375 26.078125 61.625 
Q 30.46875 63.625 34.1875 65.046875 
L 36.765625 56.203125 
Q 31.34375 54.984375 24.21875 53.8125 
L 30.078125 47.21875 
Q 31.84375 45.21875 32.859375 43.953125 
L 25.390625 39.015625 
L 18.796875 49.90625 
Q 15.828125 44.625 11.96875 38.671875 
z
" id="Arial-BoldMT-42"/>
     </defs>
     <use xlink:href="#Arial-BoldMT-42"/>
     <use x="38.916016" xlink:href="#Arial-BoldMT-42"/>
     <use x="77.832031" xlink:href="#Arial-BoldMT-42"/>
    </g>
   </g>
   <g id="text_7">
    <!-- *** -->
    <g style="fill:#76bb4b;" transform="translate(130.472001 180.995272)scale(0.20736 -0.20736)">
     <use xlink:href="#Arial-BoldMT-42"/>
     <use x="38.916016" xlink:href="#Arial-BoldMT-42"/>
     <use x="77.832031" xlink:href="#Arial-BoldMT-42"/>
    </g>
   </g>
   <g id="text_8">
    <!-- *** -->
    <g style="fill:#76bb4b;" transform="translate(168.318957 153.062218)scale(0.20736 -0.20736)">
     <use xlink:href="#Arial-BoldMT-42"/>
     <use x="38.916016" xlink:href="#Arial-BoldMT-42"/>
     <use x="77.832031" xlink:href="#Arial-BoldMT-42"/>
    </g>
   </g>
   <g id="text_9">
    <!-- *** -->
    <g style="fill:#76bb4b;" transform="translate(130.901698 125.188143)scale(0.2 -0.2)">
     <use xlink:href="#Arial-BoldMT-42"/>
     <use x="38.916016" xlink:href="#Arial-BoldMT-42"/>
     <use x="77.832031" xlink:href="#Arial-BoldMT-42"/>
    </g>
   </g>
   <g id="text_10">
    <!-- *** -->
    <g style="fill:#76bb4b;" transform="translate(149.825177 107.383521)scale(0.2 -0.2)">
     <use xlink:href="#Arial-BoldMT-42"/>
     <use x="38.916016" xlink:href="#Arial-BoldMT-42"/>
     <use x="77.832031" xlink:href="#Arial-BoldMT-42"/>
    </g>
   </g>
   <g id="text_11">
    <!-- L2/3 Pyr -->
    <g transform="translate(108.960561 58.224)scale(0.1728 -0.1728)">
     <defs>
      <path d="M 7.671875 0 
L 7.671875 71 
L 22.125 71 
L 22.125 12.0625 
L 58.0625 12.0625 
L 58.0625 0 
z
" id="Arial-BoldMT-76"/>
      <path d="M 50.59375 12.75 
L 50.59375 0 
L 2.484375 0 
Q 3.265625 7.234375 7.171875 13.703125 
Q 11.078125 20.171875 22.609375 30.859375 
Q 31.890625 39.5 33.984375 42.578125 
Q 36.8125 46.828125 36.8125 50.984375 
Q 36.8125 55.5625 34.34375 58.03125 
Q 31.890625 60.5 27.546875 60.5 
Q 23.25 60.5 20.703125 57.90625 
Q 18.171875 55.328125 17.78125 49.3125 
L 4.109375 50.6875 
Q 5.328125 62.015625 11.765625 66.9375 
Q 18.21875 71.875 27.875 71.875 
Q 38.484375 71.875 44.53125 66.15625 
Q 50.59375 60.453125 50.59375 51.953125 
Q 50.59375 47.125 48.859375 42.75 
Q 47.125 38.375 43.359375 33.59375 
Q 40.875 30.421875 34.375 24.453125 
Q 27.875 18.5 26.140625 16.546875 
Q 24.421875 14.59375 23.34375 12.75 
z
" id="Arial-BoldMT-50"/>
      <path d="M -0.140625 -1.21875 
L 17.578125 72.796875 
L 27.875 72.796875 
L 9.96875 -1.21875 
z
" id="Arial-BoldMT-47"/>
      <path d="M 3.765625 19 
L 17.046875 20.609375 
Q 17.671875 15.53125 20.453125 12.84375 
Q 23.25 10.15625 27.203125 10.15625 
Q 31.453125 10.15625 34.34375 13.375 
Q 37.25 16.609375 37.25 22.078125 
Q 37.25 27.25 34.46875 30.265625 
Q 31.6875 33.296875 27.6875 33.296875 
Q 25.046875 33.296875 21.390625 32.28125 
L 22.90625 43.453125 
Q 28.46875 43.3125 31.390625 45.875 
Q 34.328125 48.4375 34.328125 52.6875 
Q 34.328125 56.296875 32.171875 58.4375 
Q 30.03125 60.59375 26.46875 60.59375 
Q 22.953125 60.59375 20.453125 58.15625 
Q 17.96875 55.71875 17.4375 51.03125 
L 4.78125 53.171875 
Q 6.109375 59.671875 8.765625 63.546875 
Q 11.421875 67.4375 16.1875 69.65625 
Q 20.953125 71.875 26.859375 71.875 
Q 36.96875 71.875 43.0625 65.4375 
Q 48.09375 60.15625 48.09375 53.515625 
Q 48.09375 44.09375 37.796875 38.484375 
Q 43.953125 37.15625 47.625 32.5625 
Q 51.3125 27.984375 51.3125 21.484375 
Q 51.3125 12.0625 44.421875 5.421875 
Q 37.546875 -1.21875 27.296875 -1.21875 
Q 17.578125 -1.21875 11.171875 4.375 
Q 4.78125 9.96875 3.765625 19 
z
" id="Arial-BoldMT-51"/>
      <path id="Arial-BoldMT-32"/>
      <path d="M 7.28125 0 
L 7.28125 71.578125 
L 30.46875 71.578125 
Q 43.65625 71.578125 47.65625 70.515625 
Q 53.8125 68.890625 57.953125 63.5 
Q 62.109375 58.109375 62.109375 49.5625 
Q 62.109375 42.96875 59.71875 38.46875 
Q 57.328125 33.984375 53.640625 31.421875 
Q 49.953125 28.859375 46.140625 28.03125 
Q 40.96875 27 31.15625 27 
L 21.734375 27 
L 21.734375 0 
z
M 21.734375 59.46875 
L 21.734375 39.15625 
L 29.640625 39.15625 
Q 38.1875 39.15625 41.0625 40.28125 
Q 43.953125 41.40625 45.578125 43.796875 
Q 47.21875 46.1875 47.21875 49.359375 
Q 47.21875 53.265625 44.921875 55.796875 
Q 42.625 58.34375 39.109375 58.984375 
Q 36.53125 59.46875 28.71875 59.46875 
z
" id="Arial-BoldMT-80"/>
      <path d="M 0.6875 51.859375 
L 15.28125 51.859375 
L 27.6875 15.046875 
L 39.796875 51.859375 
L 54 51.859375 
L 35.6875 1.953125 
L 32.421875 -7.078125 
Q 30.609375 -11.625 28.96875 -14.015625 
Q 27.34375 -16.40625 25.21875 -17.890625 
Q 23.09375 -19.390625 19.984375 -20.21875 
Q 16.890625 -21.046875 12.984375 -21.046875 
Q 9.03125 -21.046875 5.21875 -20.21875 
L 4 -9.46875 
Q 7.234375 -10.109375 9.8125 -10.109375 
Q 14.59375 -10.109375 16.890625 -7.296875 
Q 19.1875 -4.5 20.40625 -0.140625 
z
" id="Arial-BoldMT-121"/>
      <path d="M 20.3125 0 
L 6.59375 0 
L 6.59375 51.859375 
L 19.34375 51.859375 
L 19.34375 44.484375 
Q 22.609375 49.703125 25.21875 51.359375 
Q 27.828125 53.03125 31.15625 53.03125 
Q 35.84375 53.03125 40.1875 50.4375 
L 35.9375 38.484375 
Q 32.46875 40.71875 29.5 40.71875 
Q 26.609375 40.71875 24.609375 39.125 
Q 22.609375 37.546875 21.453125 33.390625 
Q 20.3125 29.25 20.3125 16.015625 
z
" id="Arial-BoldMT-114"/>
     </defs>
     <use xlink:href="#Arial-BoldMT-76"/>
     <use x="61.083984" xlink:href="#Arial-BoldMT-50"/>
     <use x="116.699219" xlink:href="#Arial-BoldMT-47"/>
     <use x="144.482422" xlink:href="#Arial-BoldMT-51"/>
     <use x="200.097656" xlink:href="#Arial-BoldMT-32"/>
     <use x="227.880859" xlink:href="#Arial-BoldMT-80"/>
     <use x="294.580078" xlink:href="#Arial-BoldMT-121"/>
     <use x="350.195312" xlink:href="#Arial-BoldMT-114"/>
    </g>
   </g>
  </g>
  <g id="axes_2">
   <g id="patch_10">
    <path d="M 243.503478 285.984 
L 369.66 285.984 
L 369.66 64.224 
L 243.503478 64.224 
z
" style="fill:#ffffff;"/>
   </g>
   <g id="patch_11">
    <path clip-path="url(#pf37b3b8095)" d="M 260.219217 236.67393 
L 277.250348 236.67393 
L 277.250348 208.525215 
L 260.219217 208.525215 
z
" style="fill:#d3d3d3;"/>
   </g>
   <g id="patch_12">
    <path clip-path="url(#pf37b3b8095)" d="M 298.066174 242.834088 
L 315.097304 242.834088 
L 315.097304 202.119956 
L 298.066174 202.119956 
z
" style="fill:#d3d3d3;"/>
   </g>
   <g id="patch_13">
    <path clip-path="url(#pf37b3b8095)" d="M 335.91313 236.376187 
L 352.944261 236.376187 
L 352.944261 208.914645 
L 335.91313 208.914645 
z
" style="fill:#d3d3d3;"/>
   </g>
   <g id="patch_14">
    <path clip-path="url(#pf37b3b8095)" d="M 260.219217 224.223308 
L 277.250348 224.223308 
L 277.250348 221.004105 
L 260.219217 221.004105 
z
" style="fill:#808080;"/>
   </g>
   <g id="patch_15">
    <path clip-path="url(#pf37b3b8095)" d="M 298.066174 224.187055 
L 315.097304 224.187055 
L 315.097304 220.967851 
L 298.066174 220.967851 
z
" style="fill:#808080;"/>
   </g>
   <g id="patch_16">
    <path clip-path="url(#pf37b3b8095)" d="M 335.91313 224.202807 
L 352.944261 224.202807 
L 352.944261 220.983604 
L 335.91313 220.983604 
z
" style="fill:#808080;"/>
   </g>
   <g id="matplotlib.axis_3">
    <g id="xtick_4"/>
    <g id="xtick_5"/>
    <g id="xtick_6"/>
   </g>
   <g id="matplotlib.axis_4">
    <g id="ytick_9">
     <g id="line2d_14">
      <g>
       <use style="stroke:#000000;stroke-width:4;" x="243.503478" xlink:href="#m98badb187e" y="285.984"/>
      </g>
     </g>
    </g>
    <g id="ytick_10">
     <g id="line2d_15">
      <g>
       <use style="stroke:#000000;stroke-width:4;" x="243.503478" xlink:href="#m98badb187e" y="254.304"/>
      </g>
     </g>
    </g>
    <g id="ytick_11">
     <g id="line2d_16">
      <g>
       <use style="stroke:#000000;stroke-width:4;" x="243.503478" xlink:href="#m98badb187e" y="222.624"/>
      </g>
     </g>
    </g>
    <g id="ytick_12">
     <g id="line2d_17">
      <g>
       <use style="stroke:#000000;stroke-width:4;" x="243.503478" xlink:href="#m98badb187e" y="190.944"/>
      </g>
     </g>
    </g>
    <g id="ytick_13">
     <g id="line2d_18">
      <g>
       <use style="stroke:#000000;stroke-width:4;" x="243.503478" xlink:href="#m98badb187e" y="159.264"/>
      </g>
     </g>
    </g>
    <g id="ytick_14">
     <g id="line2d_19">
      <g>
       <use style="stroke:#000000;stroke-width:4;" x="243.503478" xlink:href="#m98badb187e" y="127.584"/>
      </g>
     </g>
    </g>
    <g id="ytick_15">
     <g id="line2d_20">
      <g>
       <use style="stroke:#000000;stroke-width:4;" x="243.503478" xlink:href="#m98badb187e" y="95.904"/>
      </g>
     </g>
    </g>
    <g id="ytick_16">
     <g id="line2d_21">
      <g>
       <use style="stroke:#000000;stroke-width:4;" x="243.503478" xlink:href="#m98badb187e" y="64.224"/>
      </g>
     </g>
    </g>
   </g>
   <g id="LineCollection_2">
    <path clip-path="url(#pf37b3b8095)" d="M 268.734783 223.138759 
L 268.734783 220.790334 
" style="fill:none;stroke:#488a21;stroke-opacity:0.8;stroke-width:5;"/>
    <path clip-path="url(#pf37b3b8095)" d="M 306.581739 233.932646 
L 306.581739 230.694292 
" style="fill:none;stroke:#488a21;stroke-opacity:0.8;stroke-width:5;"/>
    <path clip-path="url(#pf37b3b8095)" d="M 344.428696 215.189616 
L 344.428696 212.698896 
" style="fill:none;stroke:#488a21;stroke-opacity:0.8;stroke-width:5;"/>
   </g>
   <g id="line2d_22">
    <defs>
     <path d="M 4 0 
L -4 -0 
" id="m77f1625f3a" style="stroke:#488a21;stroke-opacity:0.8;stroke-width:4;"/>
    </defs>
    <g clip-path="url(#pf37b3b8095)">
     <use style="fill:#488a21;fill-opacity:0.8;stroke:#488a21;stroke-opacity:0.8;stroke-width:4;" x="268.734783" xlink:href="#m77f1625f3a" y="223.138759"/>
     <use style="fill:#488a21;fill-opacity:0.8;stroke:#488a21;stroke-opacity:0.8;stroke-width:4;" x="306.581739" xlink:href="#m77f1625f3a" y="233.932646"/>
     <use style="fill:#488a21;fill-opacity:0.8;stroke:#488a21;stroke-opacity:0.8;stroke-width:4;" x="344.428696" xlink:href="#m77f1625f3a" y="215.189616"/>
    </g>
   </g>
   <g id="line2d_23">
    <g clip-path="url(#pf37b3b8095)">
     <use style="fill:#488a21;fill-opacity:0.8;stroke:#488a21;stroke-opacity:0.8;stroke-width:4;" x="268.734783" xlink:href="#m77f1625f3a" y="220.790334"/>
     <use style="fill:#488a21;fill-opacity:0.8;stroke:#488a21;stroke-opacity:0.8;stroke-width:4;" x="306.581739" xlink:href="#m77f1625f3a" y="230.694292"/>
     <use style="fill:#488a21;fill-opacity:0.8;stroke:#488a21;stroke-opacity:0.8;stroke-width:4;" x="344.428696" xlink:href="#m77f1625f3a" y="212.698896"/>
    </g>
   </g>
   <g id="line2d_24">
    <path clip-path="url(#pf37b3b8095)" d="M 268.734783 179.226206 
L 306.581739 179.226206 
" style="fill:none;stroke:#488a21;stroke-linecap:square;stroke-width:3;"/>
   </g>
   <g id="line2d_25">
    <path clip-path="url(#pf37b3b8095)" d="M 268.734783 161.421585 
L 344.428696 161.421585 
" style="fill:none;stroke:#488a21;stroke-linecap:square;stroke-width:3;"/>
   </g>
   <g id="line2d_26">
    <path clip-path="url(#pf37b3b8095)" d="M 306.581739 143.616963 
L 344.428696 143.616963 
" style="fill:none;stroke:#488a21;stroke-linecap:square;stroke-width:3;"/>
   </g>
   <g id="line2d_27">
    <path clip-path="url(#pf37b3b8095)" d="M 268.734783 221.964547 
L 306.581739 232.313469 
L 344.428696 213.944256 
" style="fill:none;stroke:#488a21;stroke-dasharray:15,10;stroke-dashoffset:0;stroke-opacity:0.8;stroke-width:5;"/>
    <defs>
     <path d="M 0 5 
C 1.326016 5 2.597899 4.473168 3.535534 3.535534 
C 4.473168 2.597899 5 1.326016 5 0 
C 5 -1.326016 4.473168 -2.597899 3.535534 -3.535534 
C 2.597899 -4.473168 1.326016 -5 0 -5 
C -1.326016 -5 -2.597899 -4.473168 -3.535534 -3.535534 
C -4.473168 -2.597899 -5 -1.326016 -5 0 
C -5 1.326016 -4.473168 2.597899 -3.535534 3.535534 
C -2.597899 4.473168 -1.326016 5 0 5 
z
" id="m1a5ff3784f" style="stroke:#488a21;stroke-opacity:0.8;stroke-width:4;"/>
    </defs>
    <g clip-path="url(#pf37b3b8095)">
     <use style="fill:#488a21;fill-opacity:0.8;stroke:#488a21;stroke-opacity:0.8;stroke-width:4;" x="268.734783" xlink:href="#m1a5ff3784f" y="221.964547"/>
     <use style="fill:#488a21;fill-opacity:0.8;stroke:#488a21;stroke-opacity:0.8;stroke-width:4;" x="306.581739" xlink:href="#m1a5ff3784f" y="232.313469"/>
     <use style="fill:#488a21;fill-opacity:0.8;stroke:#488a21;stroke-opacity:0.8;stroke-width:4;" x="344.428696" xlink:href="#m1a5ff3784f" y="213.944256"/>
    </g>
   </g>
   <g id="patch_17">
    <path d="M 243.503478 285.984 
L 243.503478 64.224 
" style="fill:none;stroke:#000000;stroke-linecap:square;stroke-linejoin:miter;stroke-width:4;"/>
   </g>
   <g id="text_12">
    <!-- *** -->
    <g style="fill:#488a21;" transform="translate(275.981698 183.571243)scale(0.2 -0.2)">
     <use xlink:href="#Arial-BoldMT-42"/>
     <use x="38.916016" xlink:href="#Arial-BoldMT-42"/>
     <use x="77.832031" xlink:href="#Arial-BoldMT-42"/>
    </g>
   </g>
   <g id="text_13">
    <!-- *** -->
    <g style="fill:#488a21;" transform="translate(294.905177 165.766621)scale(0.2 -0.2)">
     <use xlink:href="#Arial-BoldMT-42"/>
     <use x="38.916016" xlink:href="#Arial-BoldMT-42"/>
     <use x="77.832031" xlink:href="#Arial-BoldMT-42"/>
    </g>
   </g>
   <g id="text_14">
    <!-- *** -->
    <g style="fill:#488a21;" transform="translate(313.828655 147.961999)scale(0.2 -0.2)">
     <use xlink:href="#Arial-BoldMT-42"/>
     <use x="38.916016" xlink:href="#Arial-BoldMT-42"/>
     <use x="77.832031" xlink:href="#Arial-BoldMT-42"/>
    </g>
   </g>
   <g id="text_15">
    <!-- L5 Pyr -->
    <g transform="translate(280.168989 58.224)scale(0.1728 -0.1728)">
     <defs>
      <path d="M 4.4375 18.40625 
L 18.109375 19.828125 
Q 18.703125 15.1875 21.578125 12.46875 
Q 24.46875 9.765625 28.21875 9.765625 
Q 32.515625 9.765625 35.5 13.25 
Q 38.484375 16.75 38.484375 23.78125 
Q 38.484375 30.375 35.515625 33.671875 
Q 32.5625 36.96875 27.828125 36.96875 
Q 21.921875 36.96875 17.234375 31.734375 
L 6.109375 33.34375 
L 13.140625 70.609375 
L 49.421875 70.609375 
L 49.421875 57.765625 
L 23.53125 57.765625 
L 21.390625 45.609375 
Q 25.984375 47.90625 30.765625 47.90625 
Q 39.890625 47.90625 46.234375 41.265625 
Q 52.59375 34.625 52.59375 24.03125 
Q 52.59375 15.1875 47.46875 8.25 
Q 40.484375 -1.21875 28.078125 -1.21875 
Q 18.171875 -1.21875 11.921875 4.09375 
Q 5.671875 9.421875 4.4375 18.40625 
z
" id="Arial-BoldMT-53"/>
     </defs>
     <use xlink:href="#Arial-BoldMT-76"/>
     <use x="61.083984" xlink:href="#Arial-BoldMT-53"/>
     <use x="116.699219" xlink:href="#Arial-BoldMT-32"/>
     <use x="144.482422" xlink:href="#Arial-BoldMT-80"/>
     <use x="211.181641" xlink:href="#Arial-BoldMT-121"/>
     <use x="266.796875" xlink:href="#Arial-BoldMT-114"/>
    </g>
   </g>
  </g>
  <g id="axes_3">
   <g id="patch_18">
    <path d="M 79.5 552.096 
L 205.656522 552.096 
L 205.656522 330.336 
L 79.5 330.336 
z
" style="fill:#ffffff;"/>
   </g>
   <g id="patch_19">
    <path clip-path="url(#peb8f6c4c87)" d="M 96.215739 535.344631 
L 113.24687 535.344631 
L 113.24687 420.408489 
L 96.215739 420.408489 
z
" style="fill:#d3d3d3;"/>
   </g>
   <g id="patch_20">
    <path clip-path="url(#peb8f6c4c87)" d="M 134.062696 535.553856 
L 151.093826 535.553856 
L 151.093826 420.220662 
L 134.062696 420.220662 
z
" style="fill:#d3d3d3;"/>
   </g>
   <g id="patch_21">
    <path clip-path="url(#peb8f6c4c87)" d="M 171.909652 547.749789 
L 188.940783 547.749789 
L 188.940783 407.795858 
L 171.909652 407.795858 
z
" style="fill:#d3d3d3;"/>
   </g>
   <g id="patch_22">
    <path clip-path="url(#peb8f6c4c87)" d="M 96.215739 481.268544 
L 113.24687 481.268544 
L 113.24687 474.959762 
L 96.215739 474.959762 
z
" style="fill:#808080;"/>
   </g>
   <g id="patch_23">
    <path clip-path="url(#peb8f6c4c87)" d="M 134.062696 481.382583 
L 151.093826 481.382583 
L 151.093826 475.073801 
L 134.062696 475.073801 
z
" style="fill:#808080;"/>
   </g>
   <g id="patch_24">
    <path clip-path="url(#peb8f6c4c87)" d="M 171.909652 481.192297 
L 188.940783 481.192297 
L 188.940783 474.883514 
L 171.909652 474.883514 
z
" style="fill:#808080;"/>
   </g>
   <g id="matplotlib.axis_5">
    <g id="xtick_7">
     <g id="line2d_28">
      <defs>
       <path d="M 0 0 
L 0 8 
" id="mc3708f0250" style="stroke:#000000;stroke-width:4;"/>
      </defs>
      <g>
       <use style="stroke:#000000;stroke-width:4;" x="104.731304" xlink:href="#mc3708f0250" y="552.096"/>
      </g>
     </g>
     <g id="text_16">
      <!-- 1 -->
      <g transform="translate(99.926654 575.9647)scale(0.1728 -0.1728)">
       <defs>
        <path d="M 39.359375 0 
L 25.640625 0 
L 25.640625 51.703125 
Q 18.109375 44.671875 7.90625 41.3125 
L 7.90625 53.765625 
Q 13.28125 55.515625 19.578125 60.421875 
Q 25.875 65.328125 28.21875 71.875 
L 39.359375 71.875 
z
" id="Arial-BoldMT-49"/>
       </defs>
       <use xlink:href="#Arial-BoldMT-49"/>
      </g>
     </g>
    </g>
    <g id="xtick_8">
     <g id="line2d_29">
      <g>
       <use style="stroke:#000000;stroke-width:4;" x="142.578261" xlink:href="#mc3708f0250" y="552.096"/>
      </g>
     </g>
     <g id="text_17">
      <!-- 2 -->
      <g transform="translate(137.773611 575.9647)scale(0.1728 -0.1728)">
       <use xlink:href="#Arial-BoldMT-50"/>
      </g>
     </g>
    </g>
    <g id="xtick_9">
     <g id="line2d_30">
      <g>
       <use style="stroke:#000000;stroke-width:4;" x="180.425217" xlink:href="#mc3708f0250" y="552.096"/>
      </g>
     </g>
     <g id="text_18">
      <!-- 3 -->
      <g transform="translate(175.620567 575.9647)scale(0.1728 -0.1728)">
       <use xlink:href="#Arial-BoldMT-51"/>
      </g>
     </g>
    </g>
   </g>
   <g id="matplotlib.axis_6">
    <g id="ytick_17">
     <g id="line2d_31">
      <g>
       <use style="stroke:#000000;stroke-width:4;" x="79.5" xlink:href="#m98badb187e" y="552.096"/>
      </g>
     </g>
     <g id="text_19">
      <!-- -0.05 -->
      <g transform="translate(28.6178 558.28035)scale(0.1728 -0.1728)">
       <use xlink:href="#Arial-BoldMT-45"/>
       <use x="33.300781" xlink:href="#Arial-BoldMT-48"/>
       <use x="88.916016" xlink:href="#Arial-BoldMT-46"/>
       <use x="116.699219" xlink:href="#Arial-BoldMT-48"/>
       <use x="172.314453" xlink:href="#Arial-BoldMT-53"/>
      </g>
     </g>
    </g>
    <g id="ytick_18">
     <g id="line2d_32">
      <g>
       <use style="stroke:#000000;stroke-width:4;" x="79.5" xlink:href="#m98badb187e" y="515.136"/>
      </g>
     </g>
    </g>
    <g id="ytick_19">
     <g id="line2d_33">
      <g>
       <use style="stroke:#000000;stroke-width:4;" x="79.5" xlink:href="#m98badb187e" y="478.176"/>
      </g>
     </g>
     <g id="text_20">
      <!-- 0 -->
      <g transform="translate(58.3907 484.36035)scale(0.1728 -0.1728)">
       <use xlink:href="#Arial-BoldMT-48"/>
      </g>
     </g>
    </g>
    <g id="ytick_20">
     <g id="line2d_34">
      <g>
       <use style="stroke:#000000;stroke-width:4;" x="79.5" xlink:href="#m98badb187e" y="441.216"/>
      </g>
     </g>
    </g>
    <g id="ytick_21">
     <g id="line2d_35">
      <g>
       <use style="stroke:#000000;stroke-width:4;" x="79.5" xlink:href="#m98badb187e" y="404.256"/>
      </g>
     </g>
     <g id="text_21">
      <!-- 0.05 -->
      <g transform="translate(34.3715 410.44035)scale(0.1728 -0.1728)">
       <use xlink:href="#Arial-BoldMT-48"/>
       <use x="55.615234" xlink:href="#Arial-BoldMT-46"/>
       <use x="83.398438" xlink:href="#Arial-BoldMT-48"/>
       <use x="139.013672" xlink:href="#Arial-BoldMT-53"/>
      </g>
     </g>
    </g>
    <g id="ytick_22">
     <g id="line2d_36">
      <g>
       <use style="stroke:#000000;stroke-width:4;" x="79.5" xlink:href="#m98badb187e" y="367.296"/>
      </g>
     </g>
    </g>
    <g id="ytick_23">
     <g id="line2d_37">
      <g>
       <use style="stroke:#000000;stroke-width:4;" x="79.5" xlink:href="#m98badb187e" y="330.336"/>
      </g>
     </g>
     <g id="text_22">
      <!-- 0.1 -->
      <g transform="translate(43.9808 336.52035)scale(0.1728 -0.1728)">
       <use xlink:href="#Arial-BoldMT-48"/>
       <use x="55.615234" xlink:href="#Arial-BoldMT-46"/>
       <use x="83.398438" xlink:href="#Arial-BoldMT-49"/>
      </g>
     </g>
    </g>
   </g>
   <g id="LineCollection_3">
    <path clip-path="url(#peb8f6c4c87)" d="M 104.731304 413.252495 
L 104.731304 393.764489 
" style="fill:none;stroke:#50a2d5;stroke-opacity:0.8;stroke-width:5;"/>
    <path clip-path="url(#peb8f6c4c87)" d="M 142.578261 391.982418 
L 142.578261 366.734999 
" style="fill:none;stroke:#50a2d5;stroke-opacity:0.8;stroke-width:5;"/>
    <path clip-path="url(#peb8f6c4c87)" d="M 180.425217 372.711452 
L 180.425217 347.470974 
" style="fill:none;stroke:#50a2d5;stroke-opacity:0.8;stroke-width:5;"/>
   </g>
   <g id="line2d_38">
    <defs>
     <path d="M 4 0 
L -4 -0 
" id="m44ab3aefa7" style="stroke:#50a2d5;stroke-opacity:0.8;stroke-width:4;"/>
    </defs>
    <g clip-path="url(#peb8f6c4c87)">
     <use style="fill:#50a2d5;fill-opacity:0.8;stroke:#50a2d5;stroke-opacity:0.8;stroke-width:4;" x="104.731304" xlink:href="#m44ab3aefa7" y="413.252495"/>
     <use style="fill:#50a2d5;fill-opacity:0.8;stroke:#50a2d5;stroke-opacity:0.8;stroke-width:4;" x="142.578261" xlink:href="#m44ab3aefa7" y="391.982418"/>
     <use style="fill:#50a2d5;fill-opacity:0.8;stroke:#50a2d5;stroke-opacity:0.8;stroke-width:4;" x="180.425217" xlink:href="#m44ab3aefa7" y="372.711452"/>
    </g>
   </g>
   <g id="line2d_39">
    <g clip-path="url(#peb8f6c4c87)">
     <use style="fill:#50a2d5;fill-opacity:0.8;stroke:#50a2d5;stroke-opacity:0.8;stroke-width:4;" x="104.731304" xlink:href="#m44ab3aefa7" y="393.764489"/>
     <use style="fill:#50a2d5;fill-opacity:0.8;stroke:#50a2d5;stroke-opacity:0.8;stroke-width:4;" x="142.578261" xlink:href="#m44ab3aefa7" y="366.734999"/>
     <use style="fill:#50a2d5;fill-opacity:0.8;stroke:#50a2d5;stroke-opacity:0.8;stroke-width:4;" x="180.425217" xlink:href="#m44ab3aefa7" y="347.470974"/>
    </g>
   </g>
   <g id="line2d_40">
    <path clip-path="url(#peb8f6c4c87)" d="M 104.731304 403.508492 
L 142.578261 379.358708 
L 180.425217 360.091213 
" style="fill:none;stroke:#50a2d5;stroke-linecap:square;stroke-opacity:0.8;stroke-width:5;"/>
    <defs>
     <path d="M 0 5 
C 1.326016 5 2.597899 4.473168 3.535534 3.535534 
C 4.473168 2.597899 5 1.326016 5 0 
C 5 -1.326016 4.473168 -2.597899 3.535534 -3.535534 
C 2.597899 -4.473168 1.326016 -5 0 -5 
C -1.326016 -5 -2.597899 -4.473168 -3.535534 -3.535534 
C -4.473168 -2.597899 -5 -1.326016 -5 0 
C -5 1.326016 -4.473168 2.597899 -3.535534 3.535534 
C -2.597899 4.473168 -1.326016 5 0 5 
z
" id="m9bda385aeb" style="stroke:#50a2d5;stroke-opacity:0.8;stroke-width:4;"/>
    </defs>
    <g clip-path="url(#peb8f6c4c87)">
     <use style="fill:#50a2d5;fill-opacity:0.8;stroke:#50a2d5;stroke-opacity:0.8;stroke-width:4;" x="104.731304" xlink:href="#m9bda385aeb" y="403.508492"/>
     <use style="fill:#50a2d5;fill-opacity:0.8;stroke:#50a2d5;stroke-opacity:0.8;stroke-width:4;" x="142.578261" xlink:href="#m9bda385aeb" y="379.358708"/>
     <use style="fill:#50a2d5;fill-opacity:0.8;stroke:#50a2d5;stroke-opacity:0.8;stroke-width:4;" x="180.425217" xlink:href="#m9bda385aeb" y="360.091213"/>
    </g>
   </g>
   <g id="patch_25">
    <path d="M 79.5 552.096 
L 79.5 330.336 
" style="fill:none;stroke:#000000;stroke-linecap:square;stroke-linejoin:miter;stroke-width:4;"/>
   </g>
   <g id="patch_26">
    <path d="M 79.5 552.096 
L 205.656522 552.096 
" style="fill:none;stroke:#000000;stroke-linecap:square;stroke-linejoin:miter;stroke-width:4;"/>
   </g>
   <g id="text_23">
    <!-- ** -->
    <g style="fill:#50a2d5;" transform="translate(96.660464 377.063016)scale(0.20736 -0.20736)">
     <use xlink:href="#Arial-BoldMT-42"/>
     <use x="38.916016" xlink:href="#Arial-BoldMT-42"/>
    </g>
   </g>
   <g id="text_24">
    <!-- *** -->
    <g style="fill:#50a2d5;" transform="translate(130.472001 350.033526)scale(0.20736 -0.20736)">
     <use xlink:href="#Arial-BoldMT-42"/>
     <use x="38.916016" xlink:href="#Arial-BoldMT-42"/>
     <use x="77.832031" xlink:href="#Arial-BoldMT-42"/>
    </g>
   </g>
   <g id="text_25">
    <!-- *** -->
    <g style="fill:#50a2d5;" transform="translate(168.318957 330.769501)scale(0.20736 -0.20736)">
     <use xlink:href="#Arial-BoldMT-42"/>
     <use x="38.916016" xlink:href="#Arial-BoldMT-42"/>
     <use x="77.832031" xlink:href="#Arial-BoldMT-42"/>
    </g>
   </g>
  </g>
  <g id="axes_4">
   <g id="patch_27">
    <path d="M 243.503478 552.096 
L 369.66 552.096 
L 369.66 330.336 
L 243.503478 330.336 
z
" style="fill:#ffffff;"/>
   </g>
   <g id="patch_28">
    <path clip-path="url(#pf48226dd03)" d="M 260.219217 531.654637 
L 277.250348 531.654637 
L 277.250348 424.36431 
L 260.219217 424.36431 
z
" style="fill:#d3d3d3;"/>
   </g>
   <g id="patch_29">
    <path clip-path="url(#pf48226dd03)" d="M 298.066174 538.304372 
L 315.097304 538.304372 
L 315.097304 418.160693 
L 298.066174 418.160693 
z
" style="fill:#d3d3d3;"/>
   </g>
   <g id="patch_30">
    <path clip-path="url(#pf48226dd03)" d="M 335.91313 551.296194 
L 352.944261 551.296194 
L 352.944261 406.183792 
L 335.91313 406.183792 
z
" style="fill:#d3d3d3;"/>
   </g>
   <g id="patch_31">
    <path clip-path="url(#pf48226dd03)" d="M 260.219217 481.328197 
L 277.250348 481.328197 
L 277.250348 474.907702 
L 260.219217 474.907702 
z
" style="fill:#808080;"/>
   </g>
   <g id="patch_32">
    <path clip-path="url(#pf48226dd03)" d="M 298.066174 481.455982 
L 315.097304 481.455982 
L 315.097304 475.035488 
L 298.066174 475.035488 
z
" style="fill:#808080;"/>
   </g>
   <g id="patch_33">
    <path clip-path="url(#pf48226dd03)" d="M 335.91313 481.418839 
L 352.944261 481.418839 
L 352.944261 474.998345 
L 335.91313 474.998345 
z
" style="fill:#808080;"/>
   </g>
   <g id="matplotlib.axis_7">
    <g id="xtick_10">
     <g id="line2d_41">
      <g>
       <use style="stroke:#000000;stroke-width:4;" x="268.734783" xlink:href="#mc3708f0250" y="552.096"/>
      </g>
     </g>
     <g id="text_26">
      <!-- 1 -->
      <g transform="translate(263.930133 575.9647)scale(0.1728 -0.1728)">
       <use xlink:href="#Arial-BoldMT-49"/>
      </g>
     </g>
    </g>
    <g id="xtick_11">
     <g id="line2d_42">
      <g>
       <use style="stroke:#000000;stroke-width:4;" x="306.581739" xlink:href="#mc3708f0250" y="552.096"/>
      </g>
     </g>
     <g id="text_27">
      <!-- 2 -->
      <g transform="translate(301.777089 575.9647)scale(0.1728 -0.1728)">
       <use xlink:href="#Arial-BoldMT-50"/>
      </g>
     </g>
    </g>
    <g id="xtick_12">
     <g id="line2d_43">
      <g>
       <use style="stroke:#000000;stroke-width:4;" x="344.428696" xlink:href="#mc3708f0250" y="552.096"/>
      </g>
     </g>
     <g id="text_28">
      <!-- 3 -->
      <g transform="translate(339.624046 575.9647)scale(0.1728 -0.1728)">
       <use xlink:href="#Arial-BoldMT-51"/>
      </g>
     </g>
    </g>
   </g>
   <g id="matplotlib.axis_8">
    <g id="ytick_24">
     <g id="line2d_44">
      <g>
       <use style="stroke:#000000;stroke-width:4;" x="243.503478" xlink:href="#m98badb187e" y="552.096"/>
      </g>
     </g>
    </g>
    <g id="ytick_25">
     <g id="line2d_45">
      <g>
       <use style="stroke:#000000;stroke-width:4;" x="243.503478" xlink:href="#m98badb187e" y="515.136"/>
      </g>
     </g>
    </g>
    <g id="ytick_26">
     <g id="line2d_46">
      <g>
       <use style="stroke:#000000;stroke-width:4;" x="243.503478" xlink:href="#m98badb187e" y="478.176"/>
      </g>
     </g>
    </g>
    <g id="ytick_27">
     <g id="line2d_47">
      <g>
       <use style="stroke:#000000;stroke-width:4;" x="243.503478" xlink:href="#m98badb187e" y="441.216"/>
      </g>
     </g>
    </g>
    <g id="ytick_28">
     <g id="line2d_48">
      <g>
       <use style="stroke:#000000;stroke-width:4;" x="243.503478" xlink:href="#m98badb187e" y="404.256"/>
      </g>
     </g>
    </g>
    <g id="ytick_29">
     <g id="line2d_49">
      <g>
       <use style="stroke:#000000;stroke-width:4;" x="243.503478" xlink:href="#m98badb187e" y="367.296"/>
      </g>
     </g>
    </g>
    <g id="ytick_30">
     <g id="line2d_50">
      <g>
       <use style="stroke:#000000;stroke-width:4;" x="243.503478" xlink:href="#m98badb187e" y="330.336"/>
      </g>
     </g>
    </g>
   </g>
   <g id="LineCollection_4">
    <path clip-path="url(#pf48226dd03)" d="M 268.734783 464.691173 
L 268.734783 441.916871 
" style="fill:none;stroke:#22567a;stroke-opacity:0.8;stroke-width:5;"/>
    <path clip-path="url(#pf48226dd03)" d="M 306.581739 491.769271 
L 306.581739 465.02999 
" style="fill:none;stroke:#22567a;stroke-opacity:0.8;stroke-width:5;"/>
    <path clip-path="url(#pf48226dd03)" d="M 344.428696 473.442642 
L 344.428696 446.92695 
" style="fill:none;stroke:#22567a;stroke-opacity:0.8;stroke-width:5;"/>
   </g>
   <g id="line2d_51">
    <defs>
     <path d="M 4 0 
L -4 -0 
" id="m90f73fb50f" style="stroke:#22567a;stroke-opacity:0.8;stroke-width:4;"/>
    </defs>
    <g clip-path="url(#pf48226dd03)">
     <use style="fill:#22567a;fill-opacity:0.8;stroke:#22567a;stroke-opacity:0.8;stroke-width:4;" x="268.734783" xlink:href="#m90f73fb50f" y="464.691173"/>
     <use style="fill:#22567a;fill-opacity:0.8;stroke:#22567a;stroke-opacity:0.8;stroke-width:4;" x="306.581739" xlink:href="#m90f73fb50f" y="491.769271"/>
     <use style="fill:#22567a;fill-opacity:0.8;stroke:#22567a;stroke-opacity:0.8;stroke-width:4;" x="344.428696" xlink:href="#m90f73fb50f" y="473.442642"/>
    </g>
   </g>
   <g id="line2d_52">
    <g clip-path="url(#pf48226dd03)">
     <use style="fill:#22567a;fill-opacity:0.8;stroke:#22567a;stroke-opacity:0.8;stroke-width:4;" x="268.734783" xlink:href="#m90f73fb50f" y="441.916871"/>
     <use style="fill:#22567a;fill-opacity:0.8;stroke:#22567a;stroke-opacity:0.8;stroke-width:4;" x="306.581739" xlink:href="#m90f73fb50f" y="465.02999"/>
     <use style="fill:#22567a;fill-opacity:0.8;stroke:#22567a;stroke-opacity:0.8;stroke-width:4;" x="344.428696" xlink:href="#m90f73fb50f" y="446.92695"/>
    </g>
   </g>
   <g id="line2d_53">
    <path clip-path="url(#pf48226dd03)" d="M 268.734783 453.304022 
L 306.581739 478.39963 
L 344.428696 460.184796 
" style="fill:none;stroke:#22567a;stroke-dasharray:15,10;stroke-dashoffset:0;stroke-opacity:0.8;stroke-width:5;"/>
    <defs>
     <path d="M 0 5 
C 1.326016 5 2.597899 4.473168 3.535534 3.535534 
C 4.473168 2.597899 5 1.326016 5 0 
C 5 -1.326016 4.473168 -2.597899 3.535534 -3.535534 
C 2.597899 -4.473168 1.326016 -5 0 -5 
C -1.326016 -5 -2.597899 -4.473168 -3.535534 -3.535534 
C -4.473168 -2.597899 -5 -1.326016 -5 0 
C -5 1.326016 -4.473168 2.597899 -3.535534 3.535534 
C -2.597899 4.473168 -1.326016 5 0 5 
z
" id="m86bc4fb6d1" style="stroke:#22567a;stroke-opacity:0.8;stroke-width:4;"/>
    </defs>
    <g clip-path="url(#pf48226dd03)">
     <use style="fill:#22567a;fill-opacity:0.8;stroke:#22567a;stroke-opacity:0.8;stroke-width:4;" x="268.734783" xlink:href="#m86bc4fb6d1" y="453.304022"/>
     <use style="fill:#22567a;fill-opacity:0.8;stroke:#22567a;stroke-opacity:0.8;stroke-width:4;" x="306.581739" xlink:href="#m86bc4fb6d1" y="478.39963"/>
     <use style="fill:#22567a;fill-opacity:0.8;stroke:#22567a;stroke-opacity:0.8;stroke-width:4;" x="344.428696" xlink:href="#m86bc4fb6d1" y="460.184796"/>
    </g>
   </g>
   <g id="patch_34">
    <path d="M 243.503478 552.096 
L 243.503478 330.336 
" style="fill:none;stroke:#000000;stroke-linecap:square;stroke-linejoin:miter;stroke-width:4;"/>
   </g>
   <g id="patch_35">
    <path d="M 243.503478 552.096 
L 369.66 552.096 
" style="fill:none;stroke:#000000;stroke-linecap:square;stroke-linejoin:miter;stroke-width:4;"/>
   </g>
  </g>
  <g id="text_29">
   <!-- Visual flow sequence differences -->
   <g transform="translate(84.1764 19.7793)scale(0.1728 -0.1728)">
    <defs>
     <path d="M 25.53125 0 
L -0.046875 71.578125 
L 15.625 71.578125 
L 33.734375 18.609375 
L 51.265625 71.578125 
L 66.609375 71.578125 
L 40.96875 0 
z
" id="Arial-BoldMT-86"/>
     <path d="M 7.171875 58.890625 
L 7.171875 71.578125 
L 20.90625 71.578125 
L 20.90625 58.890625 
z
M 7.171875 0 
L 7.171875 51.859375 
L 20.90625 51.859375 
L 20.90625 0 
z
" id="Arial-BoldMT-105"/>
     <path d="M 2.34375 14.796875 
L 16.109375 16.890625 
Q 17 12.890625 19.671875 10.8125 
Q 22.359375 8.734375 27.203125 8.734375 
Q 32.515625 8.734375 35.203125 10.6875 
Q 37.015625 12.0625 37.015625 14.359375 
Q 37.015625 15.921875 36.03125 16.9375 
Q 35.015625 17.921875 31.453125 18.75 
Q 14.84375 22.40625 10.40625 25.4375 
Q 4.25 29.640625 4.25 37.109375 
Q 4.25 43.84375 9.5625 48.4375 
Q 14.890625 53.03125 26.078125 53.03125 
Q 36.71875 53.03125 41.890625 49.5625 
Q 47.078125 46.09375 49.03125 39.3125 
L 36.078125 36.921875 
Q 35.25 39.9375 32.921875 41.546875 
Q 30.609375 43.171875 26.3125 43.171875 
Q 20.90625 43.171875 18.5625 41.65625 
Q 17 40.578125 17 38.875 
Q 17 37.40625 18.359375 36.375 
Q 20.21875 35.015625 31.171875 32.515625 
Q 42.140625 30.03125 46.484375 26.421875 
Q 50.78125 22.75 50.78125 16.21875 
Q 50.78125 9.078125 44.828125 3.953125 
Q 38.875 -1.171875 27.203125 -1.171875 
Q 16.609375 -1.171875 10.421875 3.125 
Q 4.25 7.421875 2.34375 14.796875 
z
" id="Arial-BoldMT-115"/>
     <path d="M 41.3125 0 
L 41.3125 7.765625 
Q 38.484375 3.609375 33.859375 1.21875 
Q 29.25 -1.171875 24.125 -1.171875 
Q 18.890625 -1.171875 14.734375 1.125 
Q 10.59375 3.421875 8.734375 7.5625 
Q 6.890625 11.71875 6.890625 19.046875 
L 6.890625 51.859375 
L 20.609375 51.859375 
L 20.609375 28.03125 
Q 20.609375 17.09375 21.359375 14.625 
Q 22.125 12.15625 24.125 10.71875 
Q 26.125 9.28125 29.203125 9.28125 
Q 32.71875 9.28125 35.5 11.203125 
Q 38.28125 13.140625 39.296875 15.984375 
Q 40.328125 18.84375 40.328125 29.984375 
L 40.328125 51.859375 
L 54.046875 51.859375 
L 54.046875 0 
z
" id="Arial-BoldMT-117"/>
     <path d="M 17.4375 36.03125 
L 4.984375 38.28125 
Q 7.078125 45.796875 12.203125 49.40625 
Q 17.328125 53.03125 27.4375 53.03125 
Q 36.625 53.03125 41.109375 50.859375 
Q 45.609375 48.6875 47.4375 45.34375 
Q 49.265625 42 49.265625 33.0625 
L 49.125 17.046875 
Q 49.125 10.203125 49.78125 6.953125 
Q 50.4375 3.71875 52.25 0 
L 38.671875 0 
Q 38.140625 1.375 37.359375 4.046875 
Q 37.015625 5.28125 36.859375 5.671875 
Q 33.34375 2.25 29.34375 0.53125 
Q 25.34375 -1.171875 20.796875 -1.171875 
Q 12.796875 -1.171875 8.171875 3.171875 
Q 3.5625 7.515625 3.5625 14.15625 
Q 3.5625 18.5625 5.65625 22 
Q 7.765625 25.4375 11.546875 27.265625 
Q 15.328125 29.109375 22.46875 30.46875 
Q 32.078125 32.28125 35.796875 33.84375 
L 35.796875 35.203125 
Q 35.796875 39.15625 33.84375 40.84375 
Q 31.890625 42.53125 26.46875 42.53125 
Q 22.796875 42.53125 20.75 41.09375 
Q 18.703125 39.65625 17.4375 36.03125 
z
M 35.796875 24.90625 
Q 33.15625 24.03125 27.4375 22.796875 
Q 21.734375 21.578125 19.96875 20.40625 
Q 17.28125 18.5 17.28125 15.578125 
Q 17.28125 12.703125 19.421875 10.59375 
Q 21.578125 8.5 24.90625 8.5 
Q 28.609375 8.5 31.984375 10.9375 
Q 34.46875 12.796875 35.25 15.484375 
Q 35.796875 17.234375 35.796875 22.171875 
z
" id="Arial-BoldMT-97"/>
     <path d="M 7.171875 0 
L 7.171875 71.578125 
L 20.90625 71.578125 
L 20.90625 0 
z
" id="Arial-BoldMT-108"/>
     <path d="M 1.171875 51.859375 
L 8.796875 51.859375 
L 8.796875 55.765625 
Q 8.796875 62.3125 10.1875 65.53125 
Q 11.578125 68.75 15.3125 70.765625 
Q 19.046875 72.796875 24.75 72.796875 
Q 30.609375 72.796875 36.234375 71.046875 
L 34.375 61.46875 
Q 31.109375 62.25 28.078125 62.25 
Q 25.09375 62.25 23.796875 60.859375 
Q 22.515625 59.46875 22.515625 55.515625 
L 22.515625 51.859375 
L 32.765625 51.859375 
L 32.765625 41.0625 
L 22.515625 41.0625 
L 22.515625 0 
L 8.796875 0 
L 8.796875 41.0625 
L 1.171875 41.0625 
z
" id="Arial-BoldMT-102"/>
     <path d="M 4 26.65625 
Q 4 33.5 7.375 39.890625 
Q 10.75 46.296875 16.921875 49.65625 
Q 23.09375 53.03125 30.71875 53.03125 
Q 42.484375 53.03125 50 45.390625 
Q 57.515625 37.75 57.515625 26.078125 
Q 57.515625 14.3125 49.921875 6.5625 
Q 42.328125 -1.171875 30.8125 -1.171875 
Q 23.6875 -1.171875 17.21875 2.046875 
Q 10.75 5.28125 7.375 11.5 
Q 4 17.71875 4 26.65625 
z
M 18.0625 25.921875 
Q 18.0625 18.21875 21.71875 14.109375 
Q 25.390625 10.015625 30.765625 10.015625 
Q 36.140625 10.015625 39.765625 14.109375 
Q 43.40625 18.21875 43.40625 26.03125 
Q 43.40625 33.640625 39.765625 37.734375 
Q 36.140625 41.84375 30.765625 41.84375 
Q 25.390625 41.84375 21.71875 37.734375 
Q 18.0625 33.640625 18.0625 25.921875 
z
" id="Arial-BoldMT-111"/>
     <path d="M 16.84375 0 
L 0.4375 51.859375 
L 13.765625 51.859375 
L 23.484375 17.875 
L 32.421875 51.859375 
L 45.65625 51.859375 
L 54.296875 17.875 
L 64.203125 51.859375 
L 77.734375 51.859375 
L 61.078125 0 
L 47.90625 0 
L 38.96875 33.34375 
L 30.171875 0 
z
" id="Arial-BoldMT-119"/>
     <path d="M 37.203125 16.5 
L 50.875 14.203125 
Q 48.25 6.6875 42.546875 2.75 
Q 36.859375 -1.171875 28.328125 -1.171875 
Q 14.796875 -1.171875 8.296875 7.671875 
Q 3.171875 14.75 3.171875 25.53125 
Q 3.171875 38.421875 9.90625 45.71875 
Q 16.65625 53.03125 26.953125 53.03125 
Q 38.53125 53.03125 45.21875 45.390625 
Q 51.90625 37.75 51.609375 21.96875 
L 17.234375 21.96875 
Q 17.390625 15.875 20.5625 12.46875 
Q 23.734375 9.078125 28.46875 9.078125 
Q 31.6875 9.078125 33.875 10.828125 
Q 36.078125 12.59375 37.203125 16.5 
z
M 37.984375 30.375 
Q 37.84375 36.328125 34.90625 39.421875 
Q 31.984375 42.53125 27.78125 42.53125 
Q 23.296875 42.53125 20.359375 39.265625 
Q 17.4375 35.984375 17.484375 30.375 
z
" id="Arial-BoldMT-101"/>
     <path d="M 41.0625 -19.734375 
L 41.0625 6.34375 
Q 38.375 2.875 34.375 0.84375 
Q 30.375 -1.171875 25.734375 -1.171875 
Q 16.890625 -1.171875 11.1875 5.46875 
Q 4.4375 13.234375 4.4375 26.515625 
Q 4.4375 39.015625 10.765625 46.015625 
Q 17.09375 53.03125 26.46875 53.03125 
Q 31.640625 53.03125 35.421875 50.828125 
Q 39.203125 48.640625 42.140625 44.1875 
L 42.140625 51.859375 
L 54.78125 51.859375 
L 54.78125 -19.734375 
z
M 41.5 26.5625 
Q 41.5 34.515625 38.25 38.390625 
Q 35.015625 42.28125 30.125 42.28125 
Q 25.140625 42.28125 21.796875 38.328125 
Q 18.453125 34.375 18.453125 25.78125 
Q 18.453125 17.234375 21.671875 13.453125 
Q 24.90625 9.671875 29.640625 9.671875 
Q 34.375 9.671875 37.9375 13.921875 
Q 41.5 18.171875 41.5 26.5625 
z
" id="Arial-BoldMT-113"/>
     <path d="M 54.34375 0 
L 40.625 0 
L 40.625 26.46875 
Q 40.625 34.859375 39.75 37.328125 
Q 38.875 39.796875 36.890625 41.15625 
Q 34.90625 42.53125 32.125 42.53125 
Q 28.5625 42.53125 25.734375 40.578125 
Q 22.90625 38.625 21.84375 35.390625 
Q 20.796875 32.171875 20.796875 23.484375 
L 20.796875 0 
L 7.078125 0 
L 7.078125 51.859375 
L 19.828125 51.859375 
L 19.828125 44.234375 
Q 26.609375 53.03125 36.921875 53.03125 
Q 41.453125 53.03125 45.203125 51.390625 
Q 48.96875 49.75 50.890625 47.203125 
Q 52.828125 44.671875 53.578125 41.453125 
Q 54.34375 38.234375 54.34375 32.234375 
z
" id="Arial-BoldMT-110"/>
     <path d="M 52.390625 36.53125 
L 38.875 34.078125 
Q 38.1875 38.140625 35.765625 40.1875 
Q 33.34375 42.234375 29.5 42.234375 
Q 24.359375 42.234375 21.3125 38.6875 
Q 18.265625 35.15625 18.265625 26.859375 
Q 18.265625 17.625 21.359375 13.8125 
Q 24.46875 10.015625 29.6875 10.015625 
Q 33.59375 10.015625 36.078125 12.234375 
Q 38.578125 14.453125 39.59375 19.875 
L 53.078125 17.578125 
Q 50.984375 8.296875 45.015625 3.5625 
Q 39.0625 -1.171875 29.046875 -1.171875 
Q 17.671875 -1.171875 10.90625 6 
Q 4.15625 13.1875 4.15625 25.875 
Q 4.15625 38.71875 10.9375 45.875 
Q 17.71875 53.03125 29.296875 53.03125 
Q 38.765625 53.03125 44.359375 48.953125 
Q 49.953125 44.875 52.390625 36.53125 
z
" id="Arial-BoldMT-99"/>
     <path d="M 54.734375 0 
L 42 0 
L 42 7.625 
Q 38.8125 3.171875 34.484375 1 
Q 30.171875 -1.171875 25.78125 -1.171875 
Q 16.84375 -1.171875 10.46875 6.03125 
Q 4.109375 13.234375 4.109375 26.125 
Q 4.109375 39.3125 10.296875 46.171875 
Q 16.5 53.03125 25.984375 53.03125 
Q 34.671875 53.03125 41.015625 45.796875 
L 41.015625 71.578125 
L 54.734375 71.578125 
z
M 18.109375 27.046875 
Q 18.109375 18.75 20.40625 15.046875 
Q 23.734375 9.671875 29.6875 9.671875 
Q 34.421875 9.671875 37.734375 13.6875 
Q 41.0625 17.71875 41.0625 25.734375 
Q 41.0625 34.671875 37.84375 38.59375 
Q 34.625 42.53125 29.59375 42.53125 
Q 24.703125 42.53125 21.40625 38.640625 
Q 18.109375 34.765625 18.109375 27.046875 
z
" id="Arial-BoldMT-100"/>
    </defs>
    <use xlink:href="#Arial-BoldMT-86"/>
    <use x="64.949219" xlink:href="#Arial-BoldMT-105"/>
    <use x="92.732422" xlink:href="#Arial-BoldMT-115"/>
    <use x="148.347656" xlink:href="#Arial-BoldMT-117"/>
    <use x="209.431641" xlink:href="#Arial-BoldMT-97"/>
    <use x="265.046875" xlink:href="#Arial-BoldMT-108"/>
    <use x="292.830078" xlink:href="#Arial-BoldMT-32"/>
    <use x="320.613281" xlink:href="#Arial-BoldMT-102"/>
    <use x="353.914062" xlink:href="#Arial-BoldMT-108"/>
    <use x="381.697266" xlink:href="#Arial-BoldMT-111"/>
    <use x="442.78125" xlink:href="#Arial-BoldMT-119"/>
    <use x="520.564453" xlink:href="#Arial-BoldMT-32"/>
    <use x="548.347656" xlink:href="#Arial-BoldMT-115"/>
    <use x="603.962891" xlink:href="#Arial-BoldMT-101"/>
    <use x="659.578125" xlink:href="#Arial-BoldMT-113"/>
    <use x="720.662109" xlink:href="#Arial-BoldMT-117"/>
    <use x="781.746094" xlink:href="#Arial-BoldMT-101"/>
    <use x="837.361328" xlink:href="#Arial-BoldMT-110"/>
    <use x="898.445312" xlink:href="#Arial-BoldMT-99"/>
    <use x="954.060547" xlink:href="#Arial-BoldMT-101"/>
    <use x="1009.675781" xlink:href="#Arial-BoldMT-32"/>
    <use x="1037.458984" xlink:href="#Arial-BoldMT-100"/>
    <use x="1098.542969" xlink:href="#Arial-BoldMT-105"/>
    <use x="1126.326172" xlink:href="#Arial-BoldMT-102"/>
    <use x="1159.626953" xlink:href="#Arial-BoldMT-102"/>
    <use x="1192.927734" xlink:href="#Arial-BoldMT-101"/>
    <use x="1248.542969" xlink:href="#Arial-BoldMT-114"/>
    <use x="1287.458984" xlink:href="#Arial-BoldMT-101"/>
    <use x="1343.074219" xlink:href="#Arial-BoldMT-110"/>
    <use x="1404.158203" xlink:href="#Arial-BoldMT-99"/>
    <use x="1459.773438" xlink:href="#Arial-BoldMT-101"/>
    <use x="1515.388672" xlink:href="#Arial-BoldMT-115"/>
   </g>
  </g>
  <g id="text_30">
   <!-- dendrites -->
   <g transform="translate(393.2607 213.9894)rotate(-90)scale(0.1728 -0.1728)">
    <defs>
     <path d="M 30.953125 51.859375 
L 30.953125 40.921875 
L 21.578125 40.921875 
L 21.578125 20.015625 
Q 21.578125 13.671875 21.84375 12.625 
Q 22.125 11.578125 23.078125 10.890625 
Q 24.03125 10.203125 25.390625 10.203125 
Q 27.296875 10.203125 30.90625 11.53125 
L 32.078125 0.875 
Q 27.296875 -1.171875 21.234375 -1.171875 
Q 17.53125 -1.171875 14.546875 0.0625 
Q 11.578125 1.3125 10.1875 3.296875 
Q 8.796875 5.28125 8.25 8.640625 
Q 7.8125 11.03125 7.8125 18.3125 
L 7.8125 40.921875 
L 1.515625 40.921875 
L 1.515625 51.859375 
L 7.8125 51.859375 
L 7.8125 62.15625 
L 21.578125 70.171875 
L 21.578125 51.859375 
z
" id="Arial-BoldMT-116"/>
    </defs>
    <use xlink:href="#Arial-BoldMT-100"/>
    <use x="61.083984" xlink:href="#Arial-BoldMT-101"/>
    <use x="116.699219" xlink:href="#Arial-BoldMT-110"/>
    <use x="177.783203" xlink:href="#Arial-BoldMT-100"/>
    <use x="238.867188" xlink:href="#Arial-BoldMT-114"/>
    <use x="277.783203" xlink:href="#Arial-BoldMT-105"/>
    <use x="305.566406" xlink:href="#Arial-BoldMT-116"/>
    <use x="338.867188" xlink:href="#Arial-BoldMT-101"/>
    <use x="394.482422" xlink:href="#Arial-BoldMT-115"/>
   </g>
  </g>
  <g id="text_31">
   <!-- somata -->
   <g transform="translate(393.2607 471.4668)rotate(-90)scale(0.1728 -0.1728)">
    <defs>
     <path d="M 6.15625 51.859375 
L 18.796875 51.859375 
L 18.796875 44.78125 
Q 25.59375 53.03125 34.96875 53.03125 
Q 39.9375 53.03125 43.59375 50.96875 
Q 47.265625 48.921875 49.609375 44.78125 
Q 53.03125 48.921875 56.984375 50.96875 
Q 60.9375 53.03125 65.4375 53.03125 
Q 71.140625 53.03125 75.09375 50.703125 
Q 79.046875 48.390625 81 43.890625 
Q 82.421875 40.578125 82.421875 33.15625 
L 82.421875 0 
L 68.703125 0 
L 68.703125 29.640625 
Q 68.703125 37.359375 67.28125 39.59375 
Q 65.375 42.53125 61.421875 42.53125 
Q 58.546875 42.53125 56 40.765625 
Q 53.46875 39.015625 52.34375 35.625 
Q 51.21875 32.234375 51.21875 24.90625 
L 51.21875 0 
L 37.5 0 
L 37.5 28.421875 
Q 37.5 35.984375 36.765625 38.171875 
Q 36.03125 40.375 34.484375 41.453125 
Q 32.953125 42.53125 30.328125 42.53125 
Q 27.15625 42.53125 24.609375 40.8125 
Q 22.078125 39.109375 20.96875 35.890625 
Q 19.875 32.671875 19.875 25.203125 
L 19.875 0 
L 6.15625 0 
z
" id="Arial-BoldMT-109"/>
    </defs>
    <use xlink:href="#Arial-BoldMT-115"/>
    <use x="55.615234" xlink:href="#Arial-BoldMT-111"/>
    <use x="116.699219" xlink:href="#Arial-BoldMT-109"/>
    <use x="205.615234" xlink:href="#Arial-BoldMT-97"/>
    <use x="261.230469" xlink:href="#Arial-BoldMT-116"/>
    <use x="294.53125" xlink:href="#Arial-BoldMT-97"/>
   </g>
  </g>
  <g id="text_32">
   <!-- Session -->
   <g transform="translate(186.7683 602.784)scale(0.1728 -0.1728)">
    <defs>
     <path d="M 3.609375 23.296875 
L 17.671875 24.65625 
Q 18.953125 17.578125 22.828125 14.25 
Q 26.703125 10.9375 33.296875 10.9375 
Q 40.28125 10.9375 43.8125 13.890625 
Q 47.359375 16.84375 47.359375 20.796875 
Q 47.359375 23.34375 45.875 25.125 
Q 44.390625 26.90625 40.671875 28.21875 
Q 38.140625 29.109375 29.109375 31.34375 
Q 17.484375 34.234375 12.796875 38.421875 
Q 6.203125 44.34375 6.203125 52.828125 
Q 6.203125 58.296875 9.296875 63.0625 
Q 12.40625 67.828125 18.234375 70.3125 
Q 24.078125 72.796875 32.328125 72.796875 
Q 45.796875 72.796875 52.609375 66.890625 
Q 59.421875 60.984375 59.765625 51.125 
L 45.3125 50.484375 
Q 44.390625 56 41.328125 58.421875 
Q 38.28125 60.84375 32.171875 60.84375 
Q 25.875 60.84375 22.3125 58.25 
Q 20.015625 56.59375 20.015625 53.8125 
Q 20.015625 51.265625 22.171875 49.46875 
Q 24.90625 47.171875 35.453125 44.671875 
Q 46 42.1875 51.046875 39.515625 
Q 56.109375 36.859375 58.953125 32.25 
Q 61.8125 27.640625 61.8125 20.84375 
Q 61.8125 14.703125 58.390625 9.328125 
Q 54.984375 3.953125 48.734375 1.34375 
Q 42.484375 -1.265625 33.15625 -1.265625 
Q 19.578125 -1.265625 12.296875 5 
Q 5.03125 11.28125 3.609375 23.296875 
z
" id="Arial-BoldMT-83"/>
    </defs>
    <use xlink:href="#Arial-BoldMT-83"/>
    <use x="66.699219" xlink:href="#Arial-BoldMT-101"/>
    <use x="122.314453" xlink:href="#Arial-BoldMT-115"/>
    <use x="177.929688" xlink:href="#Arial-BoldMT-115"/>
    <use x="233.544922" xlink:href="#Arial-BoldMT-105"/>
    <use x="261.328125" xlink:href="#Arial-BoldMT-111"/>
    <use x="322.412109" xlink:href="#Arial-BoldMT-110"/>
   </g>
  </g>
  <g id="text_33">
   <!-- F/F area -->
   <g transform="translate(19.5687 214.4457)rotate(-90)scale(0.1728 -0.1728)">
    <defs>
     <path d="M 71.828125 0 
L 0 0 
L 27.875 71.578125 
L 43.171875 71.578125 
z
M 51.46875 12.0625 
L 35.359375 54.890625 
L 19.734375 12.0625 
z
" id="Arial-BoldMT-916"/>
     <path d="M 7.375 0 
L 7.375 71.578125 
L 56.453125 71.578125 
L 56.453125 59.46875 
L 21.828125 59.46875 
L 21.828125 42.53125 
L 51.703125 42.53125 
L 51.703125 30.421875 
L 21.828125 30.421875 
L 21.828125 0 
z
" id="Arial-BoldMT-70"/>
    </defs>
    <use xlink:href="#Arial-BoldMT-916"/>
    <use x="71.875" xlink:href="#Arial-BoldMT-70"/>
    <use x="132.958984" xlink:href="#Arial-BoldMT-47"/>
    <use x="160.742188" xlink:href="#Arial-BoldMT-70"/>
    <use x="221.826172" xlink:href="#Arial-BoldMT-32"/>
    <use x="249.609375" xlink:href="#Arial-BoldMT-97"/>
    <use x="305.224609" xlink:href="#Arial-BoldMT-114"/>
    <use x="344.140625" xlink:href="#Arial-BoldMT-101"/>
    <use x="399.755859" xlink:href="#Arial-BoldMT-97"/>
   </g>
  </g>
 </g>
 <defs>
  <clipPath id="p5be34279b4">
   <rect height="221.76" width="126.156522" x="79.5" y="64.224"/>
  </clipPath>
  <clipPath id="pf37b3b8095">
   <rect height="221.76" width="126.156522" x="243.503478" y="64.224"/>
  </clipPath>
  <clipPath id="peb8f6c4c87">
   <rect height="221.76" width="126.156522" x="79.5" y="330.336"/>
  </clipPath>
  <clipPath id="pf48226dd03">
   <rect height="221.76" width="126.156522" x="243.503478" y="330.336"/>
  </clipPath>
 </defs>
</svg>
