<?xml version="1.0" encoding="utf-8" standalone="no"?>
<!DOCTYPE svg PUBLIC "-//W3C//DTD SVG 1.1//EN"
  "http://www.w3.org/Graphics/SVG/1.1/DTD/svg11.dtd">
<svg xmlns:xlink="http://www.w3.org/1999/xlink" width="444.3374pt" height="604.8826pt" viewBox="0 0 444.3374 604.8826" xmlns="http://www.w3.org/2000/svg" version="1.1">
 <metadata>
  <rdf:RDF xmlns:dc="http://purl.org/dc/elements/1.1/" xmlns:cc="http://creativecommons.org/ns#" xmlns:rdf="http://www.w3.org/1999/02/22-rdf-syntax-ns#">
   <cc:Work>
    <dc:type rdf:resource="http://purl.org/dc/dcmitype/StillImage"/>
    <dc:date>2023-08-24T13:39:44.392561</dc:date>
    <dc:format>image/svg+xml</dc:format>
    <dc:creator>
     <cc:Agent>
      <dc:title>Matplotlib v3.6.3, https://matplotlib.org/</dc:title>
     </cc:Agent>
    </dc:creator>
   </cc:Work>
  </rdf:RDF>
 </metadata>
 <defs>
  <style type="text/css">*{stroke-linejoin: round; stroke-linecap: butt}</style>
 </defs>
 <g id="figure_1">
  <g id="patch_1">
   <path d="M 0 604.8826 
L 444.3374 604.8826 
L 444.3374 0 
L 0 0 
z
" style="fill: #ffffff"/>
  </g>
  <g id="axes_1">
   <g id="patch_2">
    <path d="M 57.6974 533.376 
L 231.752446 533.376 
L 231.752446 67.68 
L 57.6974 67.68 
z
" style="fill: #ffffff"/>
   </g>
   <g id="line2d_1">
    <path d="M 57.6974 500.474994 
L 231.752446 500.474994 
" clip-path="url(#pf5a23230f4)" style="fill: none; stroke-dasharray: 9,6; stroke-dashoffset: 0; stroke: #000000; stroke-opacity: 0.5; stroke-width: 3"/>
   </g>
   <g id="patch_3">
    <path d="M 70.129903 406.623889 
L 94.99491 406.623889 
L 94.99491 406.623889 
L 70.129903 406.623889 
z
" clip-path="url(#pf5a23230f4)" style="fill: #d3d3d3"/>
   </g>
   <g id="patch_4">
    <path d="M 70.129903 408.877303 
L 94.99491 408.877303 
L 94.99491 404.370476 
L 70.129903 404.370476 
z
" clip-path="url(#pf5a23230f4)" style="fill: #76bb4b"/>
   </g>
   <g id="patch_5">
    <path d="M 111.571581 378.819958 
L 136.436587 378.819958 
L 136.436587 378.819958 
L 111.571581 378.819958 
z
" clip-path="url(#pf5a23230f4)" style="fill: #d3d3d3"/>
   </g>
   <g id="patch_6">
    <path d="M 111.571581 381.073371 
L 136.436587 381.073371 
L 136.436587 376.566545 
L 111.571581 376.566545 
z
" clip-path="url(#pf5a23230f4)" style="fill: #50a2d5"/>
   </g>
   <g id="patch_7">
    <path d="M 153.013258 442.81549 
L 177.878265 442.81549 
L 177.878265 442.81549 
L 153.013258 442.81549 
z
" clip-path="url(#pf5a23230f4)" style="fill: #d3d3d3"/>
   </g>
   <g id="patch_8">
    <path d="M 153.013258 445.068903 
L 177.878265 445.068903 
L 177.878265 440.562076 
L 153.013258 440.562076 
z
" clip-path="url(#pf5a23230f4)" style="fill: #488a21"/>
   </g>
   <g id="patch_9">
    <path d="M 194.454936 453.907241 
L 219.319943 453.907241 
L 219.319943 453.907241 
L 194.454936 453.907241 
z
" clip-path="url(#pf5a23230f4)" style="fill: #d3d3d3"/>
   </g>
   <g id="patch_10">
    <path d="M 194.454936 456.160654 
L 219.319943 456.160654 
L 219.319943 451.653828 
L 194.454936 451.653828 
z
" clip-path="url(#pf5a23230f4)" style="fill: #22567a"/>
   </g>
   <g id="matplotlib.axis_1">
    <g id="xtick_1">
     <g id="text_1">
      <!-- L2/3-D -->
      <g transform="translate(87.041707 597.6826) rotate(-90) scale(0.1728 -0.1728)">
       <defs>
        <path id="Arial-BoldMT-4c" d="M 491 0 
L 491 4544 
L 1416 4544 
L 1416 772 
L 3716 772 
L 3716 0 
L 491 0 
z
" transform="scale(0.015625)"/>
        <path id="Arial-BoldMT-32" d="M 3238 816 
L 3238 0 
L 159 0 
Q 209 463 459 877 
Q 709 1291 1447 1975 
Q 2041 2528 2175 2725 
Q 2356 2997 2356 3263 
Q 2356 3556 2198 3714 
Q 2041 3872 1763 3872 
Q 1488 3872 1325 3706 
Q 1163 3541 1138 3156 
L 263 3244 
Q 341 3969 753 4284 
Q 1166 4600 1784 4600 
Q 2463 4600 2850 4234 
Q 3238 3869 3238 3325 
Q 3238 3016 3127 2736 
Q 3016 2456 2775 2150 
Q 2616 1947 2200 1565 
Q 1784 1184 1673 1059 
Q 1563 934 1494 816 
L 3238 816 
z
" transform="scale(0.015625)"/>
        <path id="Arial-BoldMT-2f" d="M -9 -78 
L 1125 4659 
L 1784 4659 
L 638 -78 
L -9 -78 
z
" transform="scale(0.015625)"/>
        <path id="Arial-BoldMT-33" d="M 241 1216 
L 1091 1319 
Q 1131 994 1309 822 
Q 1488 650 1741 650 
Q 2013 650 2198 856 
Q 2384 1063 2384 1413 
Q 2384 1744 2206 1937 
Q 2028 2131 1772 2131 
Q 1603 2131 1369 2066 
L 1466 2781 
Q 1822 2772 2009 2936 
Q 2197 3100 2197 3372 
Q 2197 3603 2059 3740 
Q 1922 3878 1694 3878 
Q 1469 3878 1309 3722 
Q 1150 3566 1116 3266 
L 306 3403 
Q 391 3819 561 4067 
Q 731 4316 1036 4458 
Q 1341 4600 1719 4600 
Q 2366 4600 2756 4188 
Q 3078 3850 3078 3425 
Q 3078 2822 2419 2463 
Q 2813 2378 3048 2084 
Q 3284 1791 3284 1375 
Q 3284 772 2843 347 
Q 2403 -78 1747 -78 
Q 1125 -78 715 280 
Q 306 638 241 1216 
z
" transform="scale(0.015625)"/>
        <path id="Arial-BoldMT-2d" d="M 359 1222 
L 359 2100 
L 2084 2100 
L 2084 1222 
L 359 1222 
z
" transform="scale(0.015625)"/>
        <path id="Arial-BoldMT-44" d="M 463 4581 
L 2153 4581 
Q 2725 4581 3025 4494 
Q 3428 4375 3715 4072 
Q 4003 3769 4153 3330 
Q 4303 2891 4303 2247 
Q 4303 1681 4163 1272 
Q 3991 772 3672 463 
Q 3431 228 3022 97 
Q 2716 0 2203 0 
L 463 0 
L 463 4581 
z
M 1388 3806 
L 1388 772 
L 2078 772 
Q 2466 772 2638 816 
Q 2863 872 3011 1006 
Q 3159 1141 3253 1448 
Q 3347 1756 3347 2288 
Q 3347 2819 3253 3103 
Q 3159 3388 2990 3547 
Q 2822 3706 2563 3763 
Q 2369 3806 1803 3806 
L 1388 3806 
z
" transform="scale(0.015625)"/>
       </defs>
       <use xlink:href="#Arial-BoldMT-4c"/>
       <use xlink:href="#Arial-BoldMT-32" x="61.083984"/>
       <use xlink:href="#Arial-BoldMT-2f" x="116.699219"/>
       <use xlink:href="#Arial-BoldMT-33" x="144.482422"/>
       <use xlink:href="#Arial-BoldMT-2d" x="200.097656"/>
       <use xlink:href="#Arial-BoldMT-44" x="233.398438"/>
      </g>
     </g>
    </g>
    <g id="xtick_2">
     <g id="text_2">
      <!-- L2/3-S -->
      <g transform="translate(128.483384 596.7295) rotate(-90) scale(0.1728 -0.1728)">
       <defs>
        <path id="Arial-BoldMT-53" d="M 231 1491 
L 1131 1578 
Q 1213 1125 1461 912 
Q 1709 700 2131 700 
Q 2578 700 2804 889 
Q 3031 1078 3031 1331 
Q 3031 1494 2936 1608 
Q 2841 1722 2603 1806 
Q 2441 1863 1863 2006 
Q 1119 2191 819 2459 
Q 397 2838 397 3381 
Q 397 3731 595 4036 
Q 794 4341 1167 4500 
Q 1541 4659 2069 4659 
Q 2931 4659 3367 4281 
Q 3803 3903 3825 3272 
L 2900 3231 
Q 2841 3584 2645 3739 
Q 2450 3894 2059 3894 
Q 1656 3894 1428 3728 
Q 1281 3622 1281 3444 
Q 1281 3281 1419 3166 
Q 1594 3019 2269 2859 
Q 2944 2700 3267 2529 
Q 3591 2359 3773 2064 
Q 3956 1769 3956 1334 
Q 3956 941 3737 597 
Q 3519 253 3119 86 
Q 2719 -81 2122 -81 
Q 1253 -81 787 320 
Q 322 722 231 1491 
z
" transform="scale(0.015625)"/>
       </defs>
       <use xlink:href="#Arial-BoldMT-4c"/>
       <use xlink:href="#Arial-BoldMT-32" x="61.083984"/>
       <use xlink:href="#Arial-BoldMT-2f" x="116.699219"/>
       <use xlink:href="#Arial-BoldMT-33" x="144.482422"/>
       <use xlink:href="#Arial-BoldMT-2d" x="200.097656"/>
       <use xlink:href="#Arial-BoldMT-53" x="233.398438"/>
      </g>
     </g>
    </g>
    <g id="xtick_3">
     <g id="text_3">
      <!-- L5-D -->
      <g transform="translate(169.925062 583.2727) rotate(-90) scale(0.1728 -0.1728)">
       <defs>
        <path id="Arial-BoldMT-35" d="M 284 1178 
L 1159 1269 
Q 1197 972 1381 798 
Q 1566 625 1806 625 
Q 2081 625 2272 848 
Q 2463 1072 2463 1522 
Q 2463 1944 2273 2155 
Q 2084 2366 1781 2366 
Q 1403 2366 1103 2031 
L 391 2134 
L 841 4519 
L 3163 4519 
L 3163 3697 
L 1506 3697 
L 1369 2919 
Q 1663 3066 1969 3066 
Q 2553 3066 2959 2641 
Q 3366 2216 3366 1538 
Q 3366 972 3038 528 
Q 2591 -78 1797 -78 
Q 1163 -78 763 262 
Q 363 603 284 1178 
z
" transform="scale(0.015625)"/>
       </defs>
       <use xlink:href="#Arial-BoldMT-4c"/>
       <use xlink:href="#Arial-BoldMT-35" x="61.083984"/>
       <use xlink:href="#Arial-BoldMT-2d" x="116.699219"/>
       <use xlink:href="#Arial-BoldMT-44" x="150"/>
      </g>
     </g>
    </g>
    <g id="xtick_4">
     <g id="text_4">
      <!-- L5-S -->
      <g transform="translate(211.366739 582.3196) rotate(-90) scale(0.1728 -0.1728)">
       <use xlink:href="#Arial-BoldMT-4c"/>
       <use xlink:href="#Arial-BoldMT-35" x="61.083984"/>
       <use xlink:href="#Arial-BoldMT-2d" x="116.699219"/>
       <use xlink:href="#Arial-BoldMT-53" x="150"/>
      </g>
     </g>
    </g>
   </g>
   <g id="matplotlib.axis_2">
    <g id="ytick_1">
     <g id="line2d_2">
      <defs>
       <path id="m08a4210e16" d="M 0 0 
L -8 0 
" style="stroke: #000000; stroke-width: 4"/>
      </defs>
      <g>
       <use xlink:href="#m08a4210e16" x="57.6974" y="519.292168" style="stroke: #000000; stroke-width: 4"/>
      </g>
     </g>
     <g id="text_5">
      <!-- 0 -->
      <g transform="translate(36.5881 525.476518) scale(0.1728 -0.1728)">
       <defs>
        <path id="Arial-BoldMT-30" d="M 1756 4600 
Q 2422 4600 2797 4125 
Q 3244 3563 3244 2259 
Q 3244 959 2794 391 
Q 2422 -78 1756 -78 
Q 1088 -78 678 436 
Q 269 950 269 2269 
Q 269 3563 719 4131 
Q 1091 4600 1756 4600 
z
M 1756 3872 
Q 1597 3872 1472 3770 
Q 1347 3669 1278 3406 
Q 1188 3066 1188 2259 
Q 1188 1453 1269 1151 
Q 1350 850 1473 750 
Q 1597 650 1756 650 
Q 1916 650 2041 751 
Q 2166 853 2234 1116 
Q 2325 1453 2325 2259 
Q 2325 3066 2244 3367 
Q 2163 3669 2039 3770 
Q 1916 3872 1756 3872 
z
" transform="scale(0.015625)"/>
       </defs>
       <use xlink:href="#Arial-BoldMT-30"/>
      </g>
     </g>
    </g>
    <g id="ytick_2">
     <g id="line2d_3">
      <g>
       <use xlink:href="#m08a4210e16" x="57.6974" y="406.389126" style="stroke: #000000; stroke-width: 4"/>
      </g>
     </g>
    </g>
    <g id="ytick_3">
     <g id="line2d_4">
      <g>
       <use xlink:href="#m08a4210e16" x="57.6974" y="293.486084" style="stroke: #000000; stroke-width: 4"/>
      </g>
     </g>
     <g id="text_6">
      <!-- 30 -->
      <g transform="translate(26.9788 299.670434) scale(0.1728 -0.1728)">
       <use xlink:href="#Arial-BoldMT-33"/>
       <use xlink:href="#Arial-BoldMT-30" x="55.615234"/>
      </g>
     </g>
    </g>
    <g id="ytick_4">
     <g id="line2d_5">
      <g>
       <use xlink:href="#m08a4210e16" x="57.6974" y="180.583042" style="stroke: #000000; stroke-width: 4"/>
      </g>
     </g>
    </g>
    <g id="ytick_5">
     <g id="line2d_6">
      <g>
       <use xlink:href="#m08a4210e16" x="57.6974" y="67.68" style="stroke: #000000; stroke-width: 4"/>
      </g>
     </g>
     <g id="text_7">
      <!-- 60 -->
      <g transform="translate(26.9788 73.86435) scale(0.1728 -0.1728)">
       <defs>
        <path id="Arial-BoldMT-36" d="M 3247 3459 
L 2397 3366 
Q 2366 3628 2234 3753 
Q 2103 3878 1894 3878 
Q 1616 3878 1423 3628 
Q 1231 3378 1181 2588 
Q 1509 2975 1997 2975 
Q 2547 2975 2939 2556 
Q 3331 2138 3331 1475 
Q 3331 772 2918 347 
Q 2506 -78 1859 -78 
Q 1166 -78 719 461 
Q 272 1000 272 2228 
Q 272 3488 737 4044 
Q 1203 4600 1947 4600 
Q 2469 4600 2811 4308 
Q 3153 4016 3247 3459 
z
M 1256 1544 
Q 1256 1116 1453 883 
Q 1650 650 1903 650 
Q 2147 650 2309 840 
Q 2472 1031 2472 1466 
Q 2472 1913 2297 2120 
Q 2122 2328 1859 2328 
Q 1606 2328 1431 2129 
Q 1256 1931 1256 1544 
z
" transform="scale(0.015625)"/>
       </defs>
       <use xlink:href="#Arial-BoldMT-36"/>
       <use xlink:href="#Arial-BoldMT-30" x="55.615234"/>
      </g>
     </g>
    </g>
    <g id="text_8">
     <!-- % -->
     <g transform="translate(19.5687 308.21085) rotate(-90) scale(0.1728 -0.1728)">
      <defs>
       <path id="Arial-BoldMT-25" d="M 278 3450 
Q 278 4066 548 4362 
Q 819 4659 1281 4659 
Q 1759 4659 2029 4364 
Q 2300 4069 2300 3450 
Q 2300 2834 2029 2537 
Q 1759 2241 1297 2241 
Q 819 2241 548 2536 
Q 278 2831 278 3450 
z
M 963 3456 
Q 963 3009 1066 2856 
Q 1144 2744 1281 2744 
Q 1422 2744 1500 2856 
Q 1600 3009 1600 3456 
Q 1600 3903 1500 4053 
Q 1422 4169 1281 4169 
Q 1144 4169 1066 4056 
Q 963 3903 963 3456 
z
M 1950 -175 
L 1300 -175 
L 3741 4659 
L 4372 4659 
L 1950 -175 
z
M 3369 1028 
Q 3369 1644 3639 1941 
Q 3909 2238 4378 2238 
Q 4850 2238 5120 1941 
Q 5391 1644 5391 1028 
Q 5391 409 5120 112 
Q 4850 -184 4388 -184 
Q 3909 -184 3639 112 
Q 3369 409 3369 1028 
z
M 4053 1031 
Q 4053 584 4156 434 
Q 4234 319 4372 319 
Q 4513 319 4588 431 
Q 4691 584 4691 1031 
Q 4691 1478 4591 1631 
Q 4513 1744 4372 1744 
Q 4231 1744 4156 1631 
Q 4053 1478 4053 1031 
z
" transform="scale(0.015625)"/>
      </defs>
      <use xlink:href="#Arial-BoldMT-25"/>
     </g>
    </g>
   </g>
   <g id="line2d_7">
    <path d="M 57.6974 519.292168 
L 231.752446 519.292168 
" clip-path="url(#pf5a23230f4)" style="fill: none; stroke: #000000; stroke-width: 4; stroke-linecap: square"/>
   </g>
   <g id="line2d_8">
    <path d="M 82.562407 339.510254 
" clip-path="url(#pf5a23230f4)" style="fill: none; stroke: #64a23d; stroke-width: 5; stroke-linecap: square"/>
    <defs>
     <path id="m77d3568000" d="M 0 6.5 
C 1.72382 6.5 3.377269 5.815119 4.596194 4.596194 
C 5.815119 3.377269 6.5 1.72382 6.5 0 
C 6.5 -1.72382 5.815119 -3.377269 4.596194 -4.596194 
C 3.377269 -5.815119 1.72382 -6.5 0 -6.5 
C -1.72382 -6.5 -3.377269 -5.815119 -4.596194 -4.596194 
C -5.815119 -3.377269 -6.5 -1.72382 -6.5 0 
C -6.5 1.72382 -5.815119 3.377269 -4.596194 4.596194 
C -3.377269 5.815119 -1.72382 6.5 0 6.5 
z
" style="stroke: #64a23d; stroke-width: 2.5"/>
    </defs>
    <g clip-path="url(#pf5a23230f4)">
     <use xlink:href="#m77d3568000" x="82.562407" y="339.510254" style="fill-opacity: 0; stroke: #64a23d; stroke-width: 2.5"/>
    </g>
   </g>
   <g id="line2d_9">
    <path d="M 82.562407 339.510254 
" clip-path="url(#pf5a23230f4)" style="fill: none; stroke: #64a23d; stroke-opacity: 0.5; stroke-width: 5; stroke-linecap: square"/>
    <defs>
     <path id="mfc705b598d" d="M 0 6.5 
C 1.72382 6.5 3.377269 5.815119 4.596194 4.596194 
C 5.815119 3.377269 6.5 1.72382 6.5 0 
C 6.5 -1.72382 5.815119 -3.377269 4.596194 -4.596194 
C 3.377269 -5.815119 1.72382 -6.5 0 -6.5 
C -1.72382 -6.5 -3.377269 -5.815119 -4.596194 -4.596194 
C -5.815119 -3.377269 -6.5 -1.72382 -6.5 0 
C -6.5 1.72382 -5.815119 3.377269 -4.596194 4.596194 
C -3.377269 5.815119 -1.72382 6.5 0 6.5 
z
" style="stroke: #64a23d; stroke-opacity: 0.5; stroke-width: 4"/>
    </defs>
    <g clip-path="url(#pf5a23230f4)">
     <use xlink:href="#mfc705b598d" x="82.562407" y="339.510254" style="fill: #64a23d; fill-opacity: 0.5; stroke: #64a23d; stroke-opacity: 0.5; stroke-width: 4"/>
    </g>
   </g>
   <g id="line2d_10">
    <path d="M 82.562407 473.737525 
" clip-path="url(#pf5a23230f4)" style="fill: none; stroke: #8cc668; stroke-width: 5; stroke-linecap: square"/>
    <defs>
     <path id="mc372415e1b" d="M 0 6.5 
C 1.72382 6.5 3.377269 5.815119 4.596194 4.596194 
C 5.815119 3.377269 6.5 1.72382 6.5 0 
C 6.5 -1.72382 5.815119 -3.377269 4.596194 -4.596194 
C 3.377269 -5.815119 1.72382 -6.5 0 -6.5 
C -1.72382 -6.5 -3.377269 -5.815119 -4.596194 -4.596194 
C -5.815119 -3.377269 -6.5 -1.72382 -6.5 0 
C -6.5 1.72382 -5.815119 3.377269 -4.596194 4.596194 
C -3.377269 5.815119 -1.72382 6.5 0 6.5 
z
" style="stroke: #8cc668; stroke-width: 2.5"/>
    </defs>
    <g clip-path="url(#pf5a23230f4)">
     <use xlink:href="#mc372415e1b" x="82.562407" y="473.737525" style="fill-opacity: 0; stroke: #8cc668; stroke-width: 2.5"/>
    </g>
   </g>
   <g id="line2d_11">
    <path d="M 82.562407 473.737525 
" clip-path="url(#pf5a23230f4)" style="fill: none; stroke: #8cc668; stroke-opacity: 0.5; stroke-width: 5; stroke-linecap: square"/>
    <defs>
     <path id="m4ec8dc94fc" d="M 0 6.5 
C 1.72382 6.5 3.377269 5.815119 4.596194 4.596194 
C 5.815119 3.377269 6.5 1.72382 6.5 0 
C 6.5 -1.72382 5.815119 -3.377269 4.596194 -4.596194 
C 3.377269 -5.815119 1.72382 -6.5 0 -6.5 
C -1.72382 -6.5 -3.377269 -5.815119 -4.596194 -4.596194 
C -5.815119 -3.377269 -6.5 -1.72382 -6.5 0 
C -6.5 1.72382 -5.815119 3.377269 -4.596194 4.596194 
C -3.377269 5.815119 -1.72382 6.5 0 6.5 
z
" style="stroke: #8cc668; stroke-opacity: 0.5; stroke-width: 4"/>
    </defs>
    <g clip-path="url(#pf5a23230f4)">
     <use xlink:href="#m4ec8dc94fc" x="82.562407" y="473.737525" style="fill: #8cc668; fill-opacity: 0.5; stroke: #8cc668; stroke-opacity: 0.5; stroke-width: 4"/>
    </g>
   </g>
   <g id="line2d_12">
    <path d="M 124.004084 472.249234 
" clip-path="url(#pf5a23230f4)" style="fill: none; stroke: #2875a5; stroke-width: 5; stroke-linecap: square"/>
    <defs>
     <path id="m836f370354" d="M 0 6.5 
C 1.72382 6.5 3.377269 5.815119 4.596194 4.596194 
C 5.815119 3.377269 6.5 1.72382 6.5 0 
C 6.5 -1.72382 5.815119 -3.377269 4.596194 -4.596194 
C 3.377269 -5.815119 1.72382 -6.5 0 -6.5 
C -1.72382 -6.5 -3.377269 -5.815119 -4.596194 -4.596194 
C -5.815119 -3.377269 -6.5 -1.72382 -6.5 0 
C -6.5 1.72382 -5.815119 3.377269 -4.596194 4.596194 
C -3.377269 5.815119 -1.72382 6.5 0 6.5 
z
" style="stroke: #2875a5; stroke-width: 2.5"/>
    </defs>
    <g clip-path="url(#pf5a23230f4)">
     <use xlink:href="#m836f370354" x="124.004084" y="472.249234" style="fill-opacity: 0; stroke: #2875a5; stroke-width: 2.5"/>
    </g>
   </g>
   <g id="line2d_13">
    <path d="M 124.004084 472.249234 
" clip-path="url(#pf5a23230f4)" style="fill: none; stroke: #2875a5; stroke-opacity: 0.5; stroke-width: 5; stroke-linecap: square"/>
    <defs>
     <path id="mb6d9ee6cf8" d="M 0 6.5 
C 1.72382 6.5 3.377269 5.815119 4.596194 4.596194 
C 5.815119 3.377269 6.5 1.72382 6.5 0 
C 6.5 -1.72382 5.815119 -3.377269 4.596194 -4.596194 
C 3.377269 -5.815119 1.72382 -6.5 0 -6.5 
C -1.72382 -6.5 -3.377269 -5.815119 -4.596194 -4.596194 
C -5.815119 -3.377269 -6.5 -1.72382 -6.5 0 
C -6.5 1.72382 -5.815119 3.377269 -4.596194 4.596194 
C -3.377269 5.815119 -1.72382 6.5 0 6.5 
z
" style="stroke: #2875a5; stroke-opacity: 0.5; stroke-width: 4"/>
    </defs>
    <g clip-path="url(#pf5a23230f4)">
     <use xlink:href="#mb6d9ee6cf8" x="124.004084" y="472.249234" style="fill: #2875a5; fill-opacity: 0.5; stroke: #2875a5; stroke-opacity: 0.5; stroke-width: 4"/>
    </g>
   </g>
   <g id="line2d_14">
    <path d="M 124.004084 181.880778 
" clip-path="url(#pf5a23230f4)" style="fill: none; stroke: #50a2d5; stroke-width: 5; stroke-linecap: square"/>
    <defs>
     <path id="m3206dcc49b" d="M 0 6.5 
C 1.72382 6.5 3.377269 5.815119 4.596194 4.596194 
C 5.815119 3.377269 6.5 1.72382 6.5 0 
C 6.5 -1.72382 5.815119 -3.377269 4.596194 -4.596194 
C 3.377269 -5.815119 1.72382 -6.5 0 -6.5 
C -1.72382 -6.5 -3.377269 -5.815119 -4.596194 -4.596194 
C -5.815119 -3.377269 -6.5 -1.72382 -6.5 0 
C -6.5 1.72382 -5.815119 3.377269 -4.596194 4.596194 
C -3.377269 5.815119 -1.72382 6.5 0 6.5 
z
" style="stroke: #50a2d5; stroke-width: 2.5"/>
    </defs>
    <g clip-path="url(#pf5a23230f4)">
     <use xlink:href="#m3206dcc49b" x="124.004084" y="181.880778" style="fill-opacity: 0; stroke: #50a2d5; stroke-width: 2.5"/>
    </g>
   </g>
   <g id="line2d_15">
    <path d="M 124.004084 181.880778 
" clip-path="url(#pf5a23230f4)" style="fill: none; stroke: #50a2d5; stroke-opacity: 0.5; stroke-width: 5; stroke-linecap: square"/>
    <defs>
     <path id="m3dbde133a6" d="M 0 6.5 
C 1.72382 6.5 3.377269 5.815119 4.596194 4.596194 
C 5.815119 3.377269 6.5 1.72382 6.5 0 
C 6.5 -1.72382 5.815119 -3.377269 4.596194 -4.596194 
C 3.377269 -5.815119 1.72382 -6.5 0 -6.5 
C -1.72382 -6.5 -3.377269 -5.815119 -4.596194 -4.596194 
C -5.815119 -3.377269 -6.5 -1.72382 -6.5 0 
C -6.5 1.72382 -5.815119 3.377269 -4.596194 4.596194 
C -3.377269 5.815119 -1.72382 6.5 0 6.5 
z
" style="stroke: #50a2d5; stroke-opacity: 0.5; stroke-width: 4"/>
    </defs>
    <g clip-path="url(#pf5a23230f4)">
     <use xlink:href="#m3dbde133a6" x="124.004084" y="181.880778" style="fill: #50a2d5; fill-opacity: 0.5; stroke: #50a2d5; stroke-opacity: 0.5; stroke-width: 4"/>
    </g>
   </g>
   <g id="line2d_16">
    <path d="M 124.004084 482.329863 
" clip-path="url(#pf5a23230f4)" style="fill: none; stroke: #97c8e6; stroke-width: 5; stroke-linecap: square"/>
    <defs>
     <path id="ma76db6087b" d="M 0 6.5 
C 1.72382 6.5 3.377269 5.815119 4.596194 4.596194 
C 5.815119 3.377269 6.5 1.72382 6.5 0 
C 6.5 -1.72382 5.815119 -3.377269 4.596194 -4.596194 
C 3.377269 -5.815119 1.72382 -6.5 0 -6.5 
C -1.72382 -6.5 -3.377269 -5.815119 -4.596194 -4.596194 
C -5.815119 -3.377269 -6.5 -1.72382 -6.5 0 
C -6.5 1.72382 -5.815119 3.377269 -4.596194 4.596194 
C -3.377269 5.815119 -1.72382 6.5 0 6.5 
z
" style="stroke: #97c8e6; stroke-width: 2.5"/>
    </defs>
    <g clip-path="url(#pf5a23230f4)">
     <use xlink:href="#ma76db6087b" x="124.004084" y="482.329863" style="fill-opacity: 0; stroke: #97c8e6; stroke-width: 2.5"/>
    </g>
   </g>
   <g id="line2d_17">
    <path d="M 124.004084 482.329863 
" clip-path="url(#pf5a23230f4)" style="fill: none; stroke: #97c8e6; stroke-opacity: 0.5; stroke-width: 5; stroke-linecap: square"/>
    <defs>
     <path id="m079ed0afd1" d="M 0 6.5 
C 1.72382 6.5 3.377269 5.815119 4.596194 4.596194 
C 5.815119 3.377269 6.5 1.72382 6.5 0 
C 6.5 -1.72382 5.815119 -3.377269 4.596194 -4.596194 
C 3.377269 -5.815119 1.72382 -6.5 0 -6.5 
C -1.72382 -6.5 -3.377269 -5.815119 -4.596194 -4.596194 
C -5.815119 -3.377269 -6.5 -1.72382 -6.5 0 
C -6.5 1.72382 -5.815119 3.377269 -4.596194 4.596194 
C -3.377269 5.815119 -1.72382 6.5 0 6.5 
z
" style="stroke: #97c8e6; stroke-opacity: 0.5; stroke-width: 4"/>
    </defs>
    <g clip-path="url(#pf5a23230f4)">
     <use xlink:href="#m079ed0afd1" x="124.004084" y="482.329863" style="fill: #97c8e6; fill-opacity: 0.5; stroke: #97c8e6; stroke-opacity: 0.5; stroke-width: 4"/>
    </g>
   </g>
   <g id="line2d_18">
    <path d="M 165.445762 475.232444 
" clip-path="url(#pf5a23230f4)" style="fill: none; stroke: #326117; stroke-width: 5; stroke-linecap: square"/>
    <defs>
     <path id="md1136da28e" d="M 0 6.5 
C 1.72382 6.5 3.377269 5.815119 4.596194 4.596194 
C 5.815119 3.377269 6.5 1.72382 6.5 0 
C 6.5 -1.72382 5.815119 -3.377269 4.596194 -4.596194 
C 3.377269 -5.815119 1.72382 -6.5 0 -6.5 
C -1.72382 -6.5 -3.377269 -5.815119 -4.596194 -4.596194 
C -5.815119 -3.377269 -6.5 -1.72382 -6.5 0 
C -6.5 1.72382 -5.815119 3.377269 -4.596194 4.596194 
C -3.377269 5.815119 -1.72382 6.5 0 6.5 
z
" style="stroke: #326117; stroke-width: 2.5"/>
    </defs>
    <g clip-path="url(#pf5a23230f4)">
     <use xlink:href="#md1136da28e" x="165.445762" y="475.232444" style="fill-opacity: 0; stroke: #326117; stroke-width: 2.5"/>
    </g>
   </g>
   <g id="line2d_19">
    <path d="M 165.445762 475.232444 
" clip-path="url(#pf5a23230f4)" style="fill: none; stroke: #326117; stroke-opacity: 0.5; stroke-width: 5; stroke-linecap: square"/>
    <defs>
     <path id="m504677c126" d="M 0 6.5 
C 1.72382 6.5 3.377269 5.815119 4.596194 4.596194 
C 5.815119 3.377269 6.5 1.72382 6.5 0 
C 6.5 -1.72382 5.815119 -3.377269 4.596194 -4.596194 
C 3.377269 -5.815119 1.72382 -6.5 0 -6.5 
C -1.72382 -6.5 -3.377269 -5.815119 -4.596194 -4.596194 
C -5.815119 -3.377269 -6.5 -1.72382 -6.5 0 
C -6.5 1.72382 -5.815119 3.377269 -4.596194 4.596194 
C -3.377269 5.815119 -1.72382 6.5 0 6.5 
z
" style="stroke: #326117; stroke-opacity: 0.5; stroke-width: 4"/>
    </defs>
    <g clip-path="url(#pf5a23230f4)">
     <use xlink:href="#m504677c126" x="165.445762" y="475.232444" style="fill: #326117; fill-opacity: 0.5; stroke: #326117; stroke-opacity: 0.5; stroke-width: 4"/>
    </g>
   </g>
   <g id="line2d_20">
    <path d="M 165.445762 514.691392 
" clip-path="url(#pf5a23230f4)" style="fill: none; stroke: #488a21; stroke-width: 5; stroke-linecap: square"/>
    <defs>
     <path id="mc7f3933e06" d="M 0 6.5 
C 1.72382 6.5 3.377269 5.815119 4.596194 4.596194 
C 5.815119 3.377269 6.5 1.72382 6.5 0 
C 6.5 -1.72382 5.815119 -3.377269 4.596194 -4.596194 
C 3.377269 -5.815119 1.72382 -6.5 0 -6.5 
C -1.72382 -6.5 -3.377269 -5.815119 -4.596194 -4.596194 
C -5.815119 -3.377269 -6.5 -1.72382 -6.5 0 
C -6.5 1.72382 -5.815119 3.377269 -4.596194 4.596194 
C -3.377269 5.815119 -1.72382 6.5 0 6.5 
z
" style="stroke: #488a21; stroke-width: 2.5"/>
    </defs>
    <g clip-path="url(#pf5a23230f4)">
     <use xlink:href="#mc7f3933e06" x="165.445762" y="514.691392" style="fill-opacity: 0; stroke: #488a21; stroke-width: 2.5"/>
    </g>
   </g>
   <g id="line2d_21">
    <path d="M 165.445762 514.691392 
" clip-path="url(#pf5a23230f4)" style="fill: none; stroke: #488a21; stroke-opacity: 0.5; stroke-width: 5; stroke-linecap: square"/>
    <defs>
     <path id="m858e31b18a" d="M 0 6.5 
C 1.72382 6.5 3.377269 5.815119 4.596194 4.596194 
C 5.815119 3.377269 6.5 1.72382 6.5 0 
C 6.5 -1.72382 5.815119 -3.377269 4.596194 -4.596194 
C 3.377269 -5.815119 1.72382 -6.5 0 -6.5 
C -1.72382 -6.5 -3.377269 -5.815119 -4.596194 -4.596194 
C -5.815119 -3.377269 -6.5 -1.72382 -6.5 0 
C -6.5 1.72382 -5.815119 3.377269 -4.596194 4.596194 
C -3.377269 5.815119 -1.72382 6.5 0 6.5 
z
" style="stroke: #488a21; stroke-opacity: 0.5; stroke-width: 4"/>
    </defs>
    <g clip-path="url(#pf5a23230f4)">
     <use xlink:href="#m858e31b18a" x="165.445762" y="514.691392" style="fill: #488a21; fill-opacity: 0.5; stroke: #488a21; stroke-opacity: 0.5; stroke-width: 4"/>
    </g>
   </g>
   <g id="line2d_22">
    <path d="M 165.445762 338.522632 
" clip-path="url(#pf5a23230f4)" style="fill: none; stroke: #5eb32b; stroke-width: 5; stroke-linecap: square"/>
    <defs>
     <path id="m063db59e78" d="M 0 6.5 
C 1.72382 6.5 3.377269 5.815119 4.596194 4.596194 
C 5.815119 3.377269 6.5 1.72382 6.5 0 
C 6.5 -1.72382 5.815119 -3.377269 4.596194 -4.596194 
C 3.377269 -5.815119 1.72382 -6.5 0 -6.5 
C -1.72382 -6.5 -3.377269 -5.815119 -4.596194 -4.596194 
C -5.815119 -3.377269 -6.5 -1.72382 -6.5 0 
C -6.5 1.72382 -5.815119 3.377269 -4.596194 4.596194 
C -3.377269 5.815119 -1.72382 6.5 0 6.5 
z
" style="stroke: #5eb32b; stroke-width: 2.5"/>
    </defs>
    <g clip-path="url(#pf5a23230f4)">
     <use xlink:href="#m063db59e78" x="165.445762" y="338.522632" style="fill-opacity: 0; stroke: #5eb32b; stroke-width: 2.5"/>
    </g>
   </g>
   <g id="line2d_23">
    <path d="M 165.445762 338.522632 
" clip-path="url(#pf5a23230f4)" style="fill: none; stroke: #5eb32b; stroke-opacity: 0.5; stroke-width: 5; stroke-linecap: square"/>
    <defs>
     <path id="m02b39bdba8" d="M 0 6.5 
C 1.72382 6.5 3.377269 5.815119 4.596194 4.596194 
C 5.815119 3.377269 6.5 1.72382 6.5 0 
C 6.5 -1.72382 5.815119 -3.377269 4.596194 -4.596194 
C 3.377269 -5.815119 1.72382 -6.5 0 -6.5 
C -1.72382 -6.5 -3.377269 -5.815119 -4.596194 -4.596194 
C -5.815119 -3.377269 -6.5 -1.72382 -6.5 0 
C -6.5 1.72382 -5.815119 3.377269 -4.596194 4.596194 
C -3.377269 5.815119 -1.72382 6.5 0 6.5 
z
" style="stroke: #5eb32b; stroke-opacity: 0.5; stroke-width: 4"/>
    </defs>
    <g clip-path="url(#pf5a23230f4)">
     <use xlink:href="#m02b39bdba8" x="165.445762" y="338.522632" style="fill: #5eb32b; fill-opacity: 0.5; stroke: #5eb32b; stroke-opacity: 0.5; stroke-width: 4"/>
    </g>
   </g>
   <g id="line2d_24">
    <path d="M 206.887439 469.113038 
" clip-path="url(#pf5a23230f4)" style="fill: none; stroke: #183c55; stroke-width: 5; stroke-linecap: square"/>
    <defs>
     <path id="m5c456c9c92" d="M 0 6.5 
C 1.72382 6.5 3.377269 5.815119 4.596194 4.596194 
C 5.815119 3.377269 6.5 1.72382 6.5 0 
C 6.5 -1.72382 5.815119 -3.377269 4.596194 -4.596194 
C 3.377269 -5.815119 1.72382 -6.5 0 -6.5 
C -1.72382 -6.5 -3.377269 -5.815119 -4.596194 -4.596194 
C -5.815119 -3.377269 -6.5 -1.72382 -6.5 0 
C -6.5 1.72382 -5.815119 3.377269 -4.596194 4.596194 
C -3.377269 5.815119 -1.72382 6.5 0 6.5 
z
" style="stroke: #183c55; stroke-width: 2.5"/>
    </defs>
    <g clip-path="url(#pf5a23230f4)">
     <use xlink:href="#m5c456c9c92" x="206.887439" y="469.113038" style="fill-opacity: 0; stroke: #183c55; stroke-width: 2.5"/>
    </g>
   </g>
   <g id="line2d_25">
    <path d="M 206.887439 469.113038 
" clip-path="url(#pf5a23230f4)" style="fill: none; stroke: #183c55; stroke-opacity: 0.5; stroke-width: 5; stroke-linecap: square"/>
    <defs>
     <path id="m393e5152b2" d="M 0 6.5 
C 1.72382 6.5 3.377269 5.815119 4.596194 4.596194 
C 5.815119 3.377269 6.5 1.72382 6.5 0 
C 6.5 -1.72382 5.815119 -3.377269 4.596194 -4.596194 
C 3.377269 -5.815119 1.72382 -6.5 0 -6.5 
C -1.72382 -6.5 -3.377269 -5.815119 -4.596194 -4.596194 
C -5.815119 -3.377269 -6.5 -1.72382 -6.5 0 
C -6.5 1.72382 -5.815119 3.377269 -4.596194 4.596194 
C -3.377269 5.815119 -1.72382 6.5 0 6.5 
z
" style="stroke: #183c55; stroke-opacity: 0.5; stroke-width: 4"/>
    </defs>
    <g clip-path="url(#pf5a23230f4)">
     <use xlink:href="#m393e5152b2" x="206.887439" y="469.113038" style="fill: #183c55; fill-opacity: 0.5; stroke: #183c55; stroke-opacity: 0.5; stroke-width: 4"/>
    </g>
   </g>
   <g id="line2d_26">
    <path d="M 206.887439 418.933909 
" clip-path="url(#pf5a23230f4)" style="fill: none; stroke: #22567a; stroke-width: 5; stroke-linecap: square"/>
    <defs>
     <path id="mc6878dd29d" d="M 0 6.5 
C 1.72382 6.5 3.377269 5.815119 4.596194 4.596194 
C 5.815119 3.377269 6.5 1.72382 6.5 0 
C 6.5 -1.72382 5.815119 -3.377269 4.596194 -4.596194 
C 3.377269 -5.815119 1.72382 -6.5 0 -6.5 
C -1.72382 -6.5 -3.377269 -5.815119 -4.596194 -4.596194 
C -5.815119 -3.377269 -6.5 -1.72382 -6.5 0 
C -6.5 1.72382 -5.815119 3.377269 -4.596194 4.596194 
C -3.377269 5.815119 -1.72382 6.5 0 6.5 
z
" style="stroke: #22567a; stroke-width: 2.5"/>
    </defs>
    <g clip-path="url(#pf5a23230f4)">
     <use xlink:href="#mc6878dd29d" x="206.887439" y="418.933909" style="fill-opacity: 0; stroke: #22567a; stroke-width: 2.5"/>
    </g>
   </g>
   <g id="line2d_27">
    <path d="M 206.887439 418.933909 
" clip-path="url(#pf5a23230f4)" style="fill: none; stroke: #22567a; stroke-opacity: 0.5; stroke-width: 5; stroke-linecap: square"/>
    <defs>
     <path id="m26f9a7205a" d="M 0 6.5 
C 1.72382 6.5 3.377269 5.815119 4.596194 4.596194 
C 5.815119 3.377269 6.5 1.72382 6.5 0 
C 6.5 -1.72382 5.815119 -3.377269 4.596194 -4.596194 
C 3.377269 -5.815119 1.72382 -6.5 0 -6.5 
C -1.72382 -6.5 -3.377269 -5.815119 -4.596194 -4.596194 
C -5.815119 -3.377269 -6.5 -1.72382 -6.5 0 
C -6.5 1.72382 -5.815119 3.377269 -4.596194 4.596194 
C -3.377269 5.815119 -1.72382 6.5 0 6.5 
z
" style="stroke: #22567a; stroke-opacity: 0.5; stroke-width: 4"/>
    </defs>
    <g clip-path="url(#pf5a23230f4)">
     <use xlink:href="#m26f9a7205a" x="206.887439" y="418.933909" style="fill: #22567a; fill-opacity: 0.5; stroke: #22567a; stroke-opacity: 0.5; stroke-width: 4"/>
    </g>
   </g>
   <g id="line2d_28">
    <path d="M 206.887439 473.674777 
" clip-path="url(#pf5a23230f4)" style="fill: none; stroke: #2c709f; stroke-width: 5; stroke-linecap: square"/>
    <defs>
     <path id="m77ef914880" d="M 0 6.5 
C 1.72382 6.5 3.377269 5.815119 4.596194 4.596194 
C 5.815119 3.377269 6.5 1.72382 6.5 0 
C 6.5 -1.72382 5.815119 -3.377269 4.596194 -4.596194 
C 3.377269 -5.815119 1.72382 -6.5 0 -6.5 
C -1.72382 -6.5 -3.377269 -5.815119 -4.596194 -4.596194 
C -5.815119 -3.377269 -6.5 -1.72382 -6.5 0 
C -6.5 1.72382 -5.815119 3.377269 -4.596194 4.596194 
C -3.377269 5.815119 -1.72382 6.5 0 6.5 
z
" style="stroke: #2c709f; stroke-width: 2.5"/>
    </defs>
    <g clip-path="url(#pf5a23230f4)">
     <use xlink:href="#m77ef914880" x="206.887439" y="473.674777" style="fill-opacity: 0; stroke: #2c709f; stroke-width: 2.5"/>
    </g>
   </g>
   <g id="line2d_29">
    <path d="M 206.887439 473.674777 
" clip-path="url(#pf5a23230f4)" style="fill: none; stroke: #2c709f; stroke-opacity: 0.5; stroke-width: 5; stroke-linecap: square"/>
    <defs>
     <path id="m96cca84a6e" d="M 0 6.5 
C 1.72382 6.5 3.377269 5.815119 4.596194 4.596194 
C 5.815119 3.377269 6.5 1.72382 6.5 0 
C 6.5 -1.72382 5.815119 -3.377269 4.596194 -4.596194 
C 3.377269 -5.815119 1.72382 -6.5 0 -6.5 
C -1.72382 -6.5 -3.377269 -5.815119 -4.596194 -4.596194 
C -5.815119 -3.377269 -6.5 -1.72382 -6.5 0 
C -6.5 1.72382 -5.815119 3.377269 -4.596194 4.596194 
C -3.377269 5.815119 -1.72382 6.5 0 6.5 
z
" style="stroke: #2c709f; stroke-opacity: 0.5; stroke-width: 4"/>
    </defs>
    <g clip-path="url(#pf5a23230f4)">
     <use xlink:href="#m96cca84a6e" x="206.887439" y="473.674777" style="fill: #2c709f; fill-opacity: 0.5; stroke: #2c709f; stroke-opacity: 0.5; stroke-width: 4"/>
    </g>
   </g>
   <g id="patch_11">
    <path d="M 57.6974 533.376 
L 57.6974 67.68 
" style="fill: none; stroke: #000000; stroke-width: 4; stroke-linejoin: miter; stroke-linecap: square"/>
   </g>
   <g id="text_9">
    <!-- *** -->
    <g style="fill: #64a23d" transform="translate(68.550532 334.154873) scale(0.24 -0.24)">
     <defs>
      <path id="Arial-BoldMT-2a" d="M 766 2475 
L 294 2841 
Q 519 3094 763 3325 
Q 859 3419 884 3444 
Q 806 3456 438 3547 
Q 172 3613 88 3644 
L 272 4194 
Q 681 4028 1003 3828 
Q 928 4338 928 4659 
L 1484 4659 
Q 1484 4431 1400 3822 
Q 1463 3847 1669 3944 
Q 1950 4072 2188 4163 
L 2353 3597 
Q 2006 3519 1550 3444 
L 1925 3022 
Q 2038 2894 2103 2813 
L 1625 2497 
L 1203 3194 
Q 1013 2856 766 2475 
z
" transform="scale(0.015625)"/>
     </defs>
     <use xlink:href="#Arial-BoldMT-2a"/>
     <use xlink:href="#Arial-BoldMT-2a" x="38.916016"/>
     <use xlink:href="#Arial-BoldMT-2a" x="77.832031"/>
    </g>
   </g>
   <g id="text_10">
    <!-- *** -->
    <g style="fill: #8cc668" transform="translate(68.550532 468.382144) scale(0.24 -0.24)">
     <use xlink:href="#Arial-BoldMT-2a"/>
     <use xlink:href="#Arial-BoldMT-2a" x="38.916016"/>
     <use xlink:href="#Arial-BoldMT-2a" x="77.832031"/>
    </g>
   </g>
   <g id="text_11">
    <!-- *** -->
    <g style="fill: #50a2d5" transform="translate(109.992209 176.525397) scale(0.24 -0.24)">
     <use xlink:href="#Arial-BoldMT-2a"/>
     <use xlink:href="#Arial-BoldMT-2a" x="38.916016"/>
     <use xlink:href="#Arial-BoldMT-2a" x="77.832031"/>
    </g>
   </g>
   <g id="text_12">
    <!-- *** -->
    <g style="fill: #488a21" transform="translate(151.433887 509.336011) scale(0.24 -0.24)">
     <use xlink:href="#Arial-BoldMT-2a"/>
     <use xlink:href="#Arial-BoldMT-2a" x="38.916016"/>
     <use xlink:href="#Arial-BoldMT-2a" x="77.832031"/>
    </g>
   </g>
   <g id="text_13">
    <!-- *** -->
    <g style="fill: #5eb32b" transform="translate(151.433887 333.167251) scale(0.24 -0.24)">
     <use xlink:href="#Arial-BoldMT-2a"/>
     <use xlink:href="#Arial-BoldMT-2a" x="38.916016"/>
     <use xlink:href="#Arial-BoldMT-2a" x="77.832031"/>
    </g>
   </g>
   <g id="text_14">
    <!-- Low tail -->
    <g transform="translate(112.567923 61.68) scale(0.1728 -0.1728)">
     <defs>
      <path id="Arial-BoldMT-6f" d="M 256 1706 
Q 256 2144 472 2553 
Q 688 2963 1083 3178 
Q 1478 3394 1966 3394 
Q 2719 3394 3200 2905 
Q 3681 2416 3681 1669 
Q 3681 916 3195 420 
Q 2709 -75 1972 -75 
Q 1516 -75 1102 131 
Q 688 338 472 736 
Q 256 1134 256 1706 
z
M 1156 1659 
Q 1156 1166 1390 903 
Q 1625 641 1969 641 
Q 2313 641 2545 903 
Q 2778 1166 2778 1666 
Q 2778 2153 2545 2415 
Q 2313 2678 1969 2678 
Q 1625 2678 1390 2415 
Q 1156 2153 1156 1659 
z
" transform="scale(0.015625)"/>
      <path id="Arial-BoldMT-77" d="M 1078 0 
L 28 3319 
L 881 3319 
L 1503 1144 
L 2075 3319 
L 2922 3319 
L 3475 1144 
L 4109 3319 
L 4975 3319 
L 3909 0 
L 3066 0 
L 2494 2134 
L 1931 0 
L 1078 0 
z
" transform="scale(0.015625)"/>
      <path id="Arial-BoldMT-20" transform="scale(0.015625)"/>
      <path id="Arial-BoldMT-74" d="M 1981 3319 
L 1981 2619 
L 1381 2619 
L 1381 1281 
Q 1381 875 1398 808 
Q 1416 741 1477 697 
Q 1538 653 1625 653 
Q 1747 653 1978 738 
L 2053 56 
Q 1747 -75 1359 -75 
Q 1122 -75 931 4 
Q 741 84 652 211 
Q 563 338 528 553 
Q 500 706 500 1172 
L 500 2619 
L 97 2619 
L 97 3319 
L 500 3319 
L 500 3978 
L 1381 4491 
L 1381 3319 
L 1981 3319 
z
" transform="scale(0.015625)"/>
      <path id="Arial-BoldMT-61" d="M 1116 2306 
L 319 2450 
Q 453 2931 781 3162 
Q 1109 3394 1756 3394 
Q 2344 3394 2631 3255 
Q 2919 3116 3036 2902 
Q 3153 2688 3153 2116 
L 3144 1091 
Q 3144 653 3186 445 
Q 3228 238 3344 0 
L 2475 0 
Q 2441 88 2391 259 
Q 2369 338 2359 363 
Q 2134 144 1878 34 
Q 1622 -75 1331 -75 
Q 819 -75 523 203 
Q 228 481 228 906 
Q 228 1188 362 1408 
Q 497 1628 739 1745 
Q 981 1863 1438 1950 
Q 2053 2066 2291 2166 
L 2291 2253 
Q 2291 2506 2166 2614 
Q 2041 2722 1694 2722 
Q 1459 2722 1328 2630 
Q 1197 2538 1116 2306 
z
M 2291 1594 
Q 2122 1538 1756 1459 
Q 1391 1381 1278 1306 
Q 1106 1184 1106 997 
Q 1106 813 1243 678 
Q 1381 544 1594 544 
Q 1831 544 2047 700 
Q 2206 819 2256 991 
Q 2291 1103 2291 1419 
L 2291 1594 
z
" transform="scale(0.015625)"/>
      <path id="Arial-BoldMT-69" d="M 459 3769 
L 459 4581 
L 1338 4581 
L 1338 3769 
L 459 3769 
z
M 459 0 
L 459 3319 
L 1338 3319 
L 1338 0 
L 459 0 
z
" transform="scale(0.015625)"/>
      <path id="Arial-BoldMT-6c" d="M 459 0 
L 459 4581 
L 1338 4581 
L 1338 0 
L 459 0 
z
" transform="scale(0.015625)"/>
     </defs>
     <use xlink:href="#Arial-BoldMT-4c"/>
     <use xlink:href="#Arial-BoldMT-6f" x="61.083984"/>
     <use xlink:href="#Arial-BoldMT-77" x="122.167969"/>
     <use xlink:href="#Arial-BoldMT-20" x="199.951172"/>
     <use xlink:href="#Arial-BoldMT-74" x="227.734375"/>
     <use xlink:href="#Arial-BoldMT-61" x="261.035156"/>
     <use xlink:href="#Arial-BoldMT-69" x="316.650391"/>
     <use xlink:href="#Arial-BoldMT-6c" x="344.433594"/>
    </g>
   </g>
  </g>
  <g id="axes_2">
   <g id="patch_12">
    <path d="M 263.082354 533.376 
L 437.1374 533.376 
L 437.1374 67.68 
L 263.082354 67.68 
z
" style="fill: #ffffff"/>
   </g>
   <g id="line2d_30">
    <path d="M 263.082354 500.474994 
L 437.1374 500.474994 
" clip-path="url(#p5eb938f15a)" style="fill: none; stroke-dasharray: 9,6; stroke-dashoffset: 0; stroke: #000000; stroke-opacity: 0.5; stroke-width: 3"/>
   </g>
   <g id="patch_13">
    <path d="M 275.514857 476.218697 
L 300.379864 476.218697 
L 300.379864 476.218697 
L 275.514857 476.218697 
z
" clip-path="url(#p5eb938f15a)" style="fill: #d3d3d3"/>
   </g>
   <g id="patch_14">
    <path d="M 275.514857 478.47211 
L 300.379864 478.47211 
L 300.379864 473.965283 
L 275.514857 473.965283 
z
" clip-path="url(#p5eb938f15a)" style="fill: #76bb4b"/>
   </g>
   <g id="patch_15">
    <path d="M 316.956535 360.177876 
L 341.821542 360.177876 
L 341.821542 360.177876 
L 316.956535 360.177876 
z
" clip-path="url(#p5eb938f15a)" style="fill: #d3d3d3"/>
   </g>
   <g id="patch_16">
    <path d="M 316.956535 362.431289 
L 341.821542 362.431289 
L 341.821542 357.924463 
L 316.956535 357.924463 
z
" clip-path="url(#p5eb938f15a)" style="fill: #50a2d5"/>
   </g>
   <g id="patch_17">
    <path d="M 358.398213 474.087565 
L 383.263219 474.087565 
L 383.263219 474.087565 
L 358.398213 474.087565 
z
" clip-path="url(#p5eb938f15a)" style="fill: #d3d3d3"/>
   </g>
   <g id="patch_18">
    <path d="M 358.398213 476.340978 
L 383.263219 476.340978 
L 383.263219 471.834152 
L 358.398213 471.834152 
z
" clip-path="url(#p5eb938f15a)" style="fill: #488a21"/>
   </g>
   <g id="patch_19">
    <path d="M 399.83989 335.555455 
L 424.704897 335.555455 
L 424.704897 335.555455 
L 399.83989 335.555455 
z
" clip-path="url(#p5eb938f15a)" style="fill: #d3d3d3"/>
   </g>
   <g id="patch_20">
    <path d="M 399.83989 337.808869 
L 424.704897 337.808869 
L 424.704897 333.302042 
L 399.83989 333.302042 
z
" clip-path="url(#p5eb938f15a)" style="fill: #22567a"/>
   </g>
   <g id="matplotlib.axis_3">
    <g id="xtick_5">
     <g id="text_15">
      <!-- L2/3-D -->
      <g transform="translate(292.426661 597.6826) rotate(-90) scale(0.1728 -0.1728)">
       <use xlink:href="#Arial-BoldMT-4c"/>
       <use xlink:href="#Arial-BoldMT-32" x="61.083984"/>
       <use xlink:href="#Arial-BoldMT-2f" x="116.699219"/>
       <use xlink:href="#Arial-BoldMT-33" x="144.482422"/>
       <use xlink:href="#Arial-BoldMT-2d" x="200.097656"/>
       <use xlink:href="#Arial-BoldMT-44" x="233.398438"/>
      </g>
     </g>
    </g>
    <g id="xtick_6">
     <g id="text_16">
      <!-- L2/3-S -->
      <g transform="translate(333.868338 596.7295) rotate(-90) scale(0.1728 -0.1728)">
       <use xlink:href="#Arial-BoldMT-4c"/>
       <use xlink:href="#Arial-BoldMT-32" x="61.083984"/>
       <use xlink:href="#Arial-BoldMT-2f" x="116.699219"/>
       <use xlink:href="#Arial-BoldMT-33" x="144.482422"/>
       <use xlink:href="#Arial-BoldMT-2d" x="200.097656"/>
       <use xlink:href="#Arial-BoldMT-53" x="233.398438"/>
      </g>
     </g>
    </g>
    <g id="xtick_7">
     <g id="text_17">
      <!-- L5-D -->
      <g transform="translate(375.310016 583.2727) rotate(-90) scale(0.1728 -0.1728)">
       <use xlink:href="#Arial-BoldMT-4c"/>
       <use xlink:href="#Arial-BoldMT-35" x="61.083984"/>
       <use xlink:href="#Arial-BoldMT-2d" x="116.699219"/>
       <use xlink:href="#Arial-BoldMT-44" x="150"/>
      </g>
     </g>
    </g>
    <g id="xtick_8">
     <g id="text_18">
      <!-- L5-S -->
      <g transform="translate(416.751693 582.3196) rotate(-90) scale(0.1728 -0.1728)">
       <use xlink:href="#Arial-BoldMT-4c"/>
       <use xlink:href="#Arial-BoldMT-35" x="61.083984"/>
       <use xlink:href="#Arial-BoldMT-2d" x="116.699219"/>
       <use xlink:href="#Arial-BoldMT-53" x="150"/>
      </g>
     </g>
    </g>
   </g>
   <g id="matplotlib.axis_4">
    <g id="ytick_6">
     <g id="line2d_31">
      <g>
       <use xlink:href="#m08a4210e16" x="263.082354" y="519.292168" style="stroke: #000000; stroke-width: 4"/>
      </g>
     </g>
    </g>
    <g id="ytick_7">
     <g id="line2d_32">
      <g>
       <use xlink:href="#m08a4210e16" x="263.082354" y="406.389126" style="stroke: #000000; stroke-width: 4"/>
      </g>
     </g>
    </g>
    <g id="ytick_8">
     <g id="line2d_33">
      <g>
       <use xlink:href="#m08a4210e16" x="263.082354" y="293.486084" style="stroke: #000000; stroke-width: 4"/>
      </g>
     </g>
    </g>
    <g id="ytick_9">
     <g id="line2d_34">
      <g>
       <use xlink:href="#m08a4210e16" x="263.082354" y="180.583042" style="stroke: #000000; stroke-width: 4"/>
      </g>
     </g>
    </g>
    <g id="ytick_10">
     <g id="line2d_35">
      <g>
       <use xlink:href="#m08a4210e16" x="263.082354" y="67.68" style="stroke: #000000; stroke-width: 4"/>
      </g>
     </g>
    </g>
   </g>
   <g id="line2d_36">
    <path d="M 263.082354 519.292168 
L 437.1374 519.292168 
" clip-path="url(#p5eb938f15a)" style="fill: none; stroke: #000000; stroke-width: 4; stroke-linecap: square"/>
   </g>
   <g id="line2d_37">
    <path d="M 287.947361 502.512523 
" clip-path="url(#p5eb938f15a)" style="fill: none; stroke: #64a23d; stroke-width: 5; stroke-linecap: square"/>
    <g clip-path="url(#p5eb938f15a)">
     <use xlink:href="#m77d3568000" x="287.947361" y="502.512523" style="fill-opacity: 0; stroke: #64a23d; stroke-width: 2.5"/>
    </g>
   </g>
   <g id="line2d_38">
    <path d="M 287.947361 502.512523 
" clip-path="url(#p5eb938f15a)" style="fill: none; stroke: #64a23d; stroke-opacity: 0.5; stroke-width: 5; stroke-linecap: square"/>
    <g clip-path="url(#p5eb938f15a)">
     <use xlink:href="#mfc705b598d" x="287.947361" y="502.512523" style="fill: #64a23d; fill-opacity: 0.5; stroke: #64a23d; stroke-opacity: 0.5; stroke-width: 4"/>
    </g>
   </g>
   <g id="line2d_39">
    <path d="M 287.947361 449.92487 
" clip-path="url(#p5eb938f15a)" style="fill: none; stroke: #8cc668; stroke-width: 5; stroke-linecap: square"/>
    <g clip-path="url(#p5eb938f15a)">
     <use xlink:href="#mc372415e1b" x="287.947361" y="449.92487" style="fill-opacity: 0; stroke: #8cc668; stroke-width: 2.5"/>
    </g>
   </g>
   <g id="line2d_40">
    <path d="M 287.947361 449.92487 
" clip-path="url(#p5eb938f15a)" style="fill: none; stroke: #8cc668; stroke-opacity: 0.5; stroke-width: 5; stroke-linecap: square"/>
    <g clip-path="url(#p5eb938f15a)">
     <use xlink:href="#m4ec8dc94fc" x="287.947361" y="449.92487" style="fill: #8cc668; fill-opacity: 0.5; stroke: #8cc668; stroke-opacity: 0.5; stroke-width: 4"/>
    </g>
   </g>
   <g id="line2d_41">
    <path d="M 329.389038 135.108206 
" clip-path="url(#p5eb938f15a)" style="fill: none; stroke: #2875a5; stroke-width: 5; stroke-linecap: square"/>
    <g clip-path="url(#p5eb938f15a)">
     <use xlink:href="#m836f370354" x="329.389038" y="135.108206" style="fill-opacity: 0; stroke: #2875a5; stroke-width: 2.5"/>
    </g>
   </g>
   <g id="line2d_42">
    <path d="M 329.389038 135.108206 
" clip-path="url(#p5eb938f15a)" style="fill: none; stroke: #2875a5; stroke-opacity: 0.5; stroke-width: 5; stroke-linecap: square"/>
    <g clip-path="url(#p5eb938f15a)">
     <use xlink:href="#mb6d9ee6cf8" x="329.389038" y="135.108206" style="fill: #2875a5; fill-opacity: 0.5; stroke: #2875a5; stroke-opacity: 0.5; stroke-width: 4"/>
    </g>
   </g>
   <g id="line2d_43">
    <path d="M 329.389038 493.337446 
" clip-path="url(#p5eb938f15a)" style="fill: none; stroke: #50a2d5; stroke-width: 5; stroke-linecap: square"/>
    <g clip-path="url(#p5eb938f15a)">
     <use xlink:href="#m3206dcc49b" x="329.389038" y="493.337446" style="fill-opacity: 0; stroke: #50a2d5; stroke-width: 2.5"/>
    </g>
   </g>
   <g id="line2d_44">
    <path d="M 329.389038 493.337446 
" clip-path="url(#p5eb938f15a)" style="fill: none; stroke: #50a2d5; stroke-opacity: 0.5; stroke-width: 5; stroke-linecap: square"/>
    <g clip-path="url(#p5eb938f15a)">
     <use xlink:href="#m3dbde133a6" x="329.389038" y="493.337446" style="fill: #50a2d5; fill-opacity: 0.5; stroke: #50a2d5; stroke-opacity: 0.5; stroke-width: 4"/>
    </g>
   </g>
   <g id="line2d_45">
    <path d="M 329.389038 452.087976 
" clip-path="url(#p5eb938f15a)" style="fill: none; stroke: #97c8e6; stroke-width: 5; stroke-linecap: square"/>
    <g clip-path="url(#p5eb938f15a)">
     <use xlink:href="#ma76db6087b" x="329.389038" y="452.087976" style="fill-opacity: 0; stroke: #97c8e6; stroke-width: 2.5"/>
    </g>
   </g>
   <g id="line2d_46">
    <path d="M 329.389038 452.087976 
" clip-path="url(#p5eb938f15a)" style="fill: none; stroke: #97c8e6; stroke-opacity: 0.5; stroke-width: 5; stroke-linecap: square"/>
    <g clip-path="url(#p5eb938f15a)">
     <use xlink:href="#m079ed0afd1" x="329.389038" y="452.087976" style="fill: #97c8e6; fill-opacity: 0.5; stroke: #97c8e6; stroke-opacity: 0.5; stroke-width: 4"/>
    </g>
   </g>
   <g id="line2d_47">
    <path d="M 370.830716 471.560801 
" clip-path="url(#p5eb938f15a)" style="fill: none; stroke: #326117; stroke-width: 5; stroke-linecap: square"/>
    <g clip-path="url(#p5eb938f15a)">
     <use xlink:href="#md1136da28e" x="370.830716" y="471.560801" style="fill-opacity: 0; stroke: #326117; stroke-width: 2.5"/>
    </g>
   </g>
   <g id="line2d_48">
    <path d="M 370.830716 471.560801 
" clip-path="url(#p5eb938f15a)" style="fill: none; stroke: #326117; stroke-opacity: 0.5; stroke-width: 5; stroke-linecap: square"/>
    <g clip-path="url(#p5eb938f15a)">
     <use xlink:href="#m504677c126" x="370.830716" y="471.560801" style="fill: #326117; fill-opacity: 0.5; stroke: #326117; stroke-opacity: 0.5; stroke-width: 4"/>
    </g>
   </g>
   <g id="line2d_49">
    <path d="M 370.830716 441.539054 
" clip-path="url(#p5eb938f15a)" style="fill: none; stroke: #488a21; stroke-width: 5; stroke-linecap: square"/>
    <g clip-path="url(#p5eb938f15a)">
     <use xlink:href="#mc7f3933e06" x="370.830716" y="441.539054" style="fill-opacity: 0; stroke: #488a21; stroke-width: 2.5"/>
    </g>
   </g>
   <g id="line2d_50">
    <path d="M 370.830716 441.539054 
" clip-path="url(#p5eb938f15a)" style="fill: none; stroke: #488a21; stroke-opacity: 0.5; stroke-width: 5; stroke-linecap: square"/>
    <g clip-path="url(#p5eb938f15a)">
     <use xlink:href="#m858e31b18a" x="370.830716" y="441.539054" style="fill: #488a21; fill-opacity: 0.5; stroke: #488a21; stroke-opacity: 0.5; stroke-width: 4"/>
    </g>
   </g>
   <g id="line2d_51">
    <path d="M 370.830716 509.162841 
" clip-path="url(#p5eb938f15a)" style="fill: none; stroke: #5eb32b; stroke-width: 5; stroke-linecap: square"/>
    <g clip-path="url(#p5eb938f15a)">
     <use xlink:href="#m063db59e78" x="370.830716" y="509.162841" style="fill-opacity: 0; stroke: #5eb32b; stroke-width: 2.5"/>
    </g>
   </g>
   <g id="line2d_52">
    <path d="M 370.830716 509.162841 
" clip-path="url(#p5eb938f15a)" style="fill: none; stroke: #5eb32b; stroke-opacity: 0.5; stroke-width: 5; stroke-linecap: square"/>
    <g clip-path="url(#p5eb938f15a)">
     <use xlink:href="#m02b39bdba8" x="370.830716" y="509.162841" style="fill: #5eb32b; fill-opacity: 0.5; stroke: #5eb32b; stroke-opacity: 0.5; stroke-width: 4"/>
    </g>
   </g>
   <g id="line2d_53">
    <path d="M 412.272393 276.759707 
" clip-path="url(#p5eb938f15a)" style="fill: none; stroke: #183c55; stroke-width: 5; stroke-linecap: square"/>
    <g clip-path="url(#p5eb938f15a)">
     <use xlink:href="#m5c456c9c92" x="412.272393" y="276.759707" style="fill-opacity: 0; stroke: #183c55; stroke-width: 2.5"/>
    </g>
   </g>
   <g id="line2d_54">
    <path d="M 412.272393 276.759707 
" clip-path="url(#p5eb938f15a)" style="fill: none; stroke: #183c55; stroke-opacity: 0.5; stroke-width: 5; stroke-linecap: square"/>
    <g clip-path="url(#p5eb938f15a)">
     <use xlink:href="#m393e5152b2" x="412.272393" y="276.759707" style="fill: #183c55; fill-opacity: 0.5; stroke: #183c55; stroke-opacity: 0.5; stroke-width: 4"/>
    </g>
   </g>
   <g id="line2d_55">
    <path d="M 412.272393 469.113038 
" clip-path="url(#p5eb938f15a)" style="fill: none; stroke: #22567a; stroke-width: 5; stroke-linecap: square"/>
    <g clip-path="url(#p5eb938f15a)">
     <use xlink:href="#mc6878dd29d" x="412.272393" y="469.113038" style="fill-opacity: 0; stroke: #22567a; stroke-width: 2.5"/>
    </g>
   </g>
   <g id="line2d_56">
    <path d="M 412.272393 469.113038 
" clip-path="url(#p5eb938f15a)" style="fill: none; stroke: #22567a; stroke-opacity: 0.5; stroke-width: 5; stroke-linecap: square"/>
    <g clip-path="url(#p5eb938f15a)">
     <use xlink:href="#m26f9a7205a" x="412.272393" y="469.113038" style="fill: #22567a; fill-opacity: 0.5; stroke: #22567a; stroke-opacity: 0.5; stroke-width: 4"/>
    </g>
   </g>
   <g id="line2d_57">
    <path d="M 412.272393 260.793621 
" clip-path="url(#p5eb938f15a)" style="fill: none; stroke: #2c709f; stroke-width: 5; stroke-linecap: square"/>
    <g clip-path="url(#p5eb938f15a)">
     <use xlink:href="#m77ef914880" x="412.272393" y="260.793621" style="fill-opacity: 0; stroke: #2c709f; stroke-width: 2.5"/>
    </g>
   </g>
   <g id="line2d_58">
    <path d="M 412.272393 260.793621 
" clip-path="url(#p5eb938f15a)" style="fill: none; stroke: #2c709f; stroke-opacity: 0.5; stroke-width: 5; stroke-linecap: square"/>
    <g clip-path="url(#p5eb938f15a)">
     <use xlink:href="#m96cca84a6e" x="412.272393" y="260.793621" style="fill: #2c709f; fill-opacity: 0.5; stroke: #2c709f; stroke-opacity: 0.5; stroke-width: 4"/>
    </g>
   </g>
   <g id="patch_21">
    <path d="M 263.082354 533.376 
L 263.082354 67.68 
" style="fill: none; stroke: #000000; stroke-width: 4; stroke-linejoin: miter; stroke-linecap: square"/>
   </g>
   <g id="text_19">
    <!-- *** -->
    <g style="fill: #8cc668" transform="translate(273.935486 444.569489) scale(0.24 -0.24)">
     <use xlink:href="#Arial-BoldMT-2a"/>
     <use xlink:href="#Arial-BoldMT-2a" x="38.916016"/>
     <use xlink:href="#Arial-BoldMT-2a" x="77.832031"/>
    </g>
   </g>
   <g id="text_20">
    <!-- *** -->
    <g style="fill: #2875a5" transform="translate(315.377163 129.752825) scale(0.24 -0.24)">
     <use xlink:href="#Arial-BoldMT-2a"/>
     <use xlink:href="#Arial-BoldMT-2a" x="38.916016"/>
     <use xlink:href="#Arial-BoldMT-2a" x="77.832031"/>
    </g>
   </g>
   <g id="text_21">
    <!-- *** -->
    <g style="fill: #97c8e6" transform="translate(315.377163 446.732595) scale(0.24 -0.24)">
     <use xlink:href="#Arial-BoldMT-2a"/>
     <use xlink:href="#Arial-BoldMT-2a" x="38.916016"/>
     <use xlink:href="#Arial-BoldMT-2a" x="77.832031"/>
    </g>
   </g>
   <g id="text_22">
    <!-- * -->
    <g style="fill: #326117" transform="translate(366.160091 466.20542) scale(0.24 -0.24)">
     <use xlink:href="#Arial-BoldMT-2a"/>
    </g>
   </g>
   <g id="text_23">
    <!-- *** -->
    <g style="fill: #488a21" transform="translate(356.818841 436.183673) scale(0.24 -0.24)">
     <use xlink:href="#Arial-BoldMT-2a"/>
     <use xlink:href="#Arial-BoldMT-2a" x="38.916016"/>
     <use xlink:href="#Arial-BoldMT-2a" x="77.832031"/>
    </g>
   </g>
   <g id="text_24">
    <!-- *** -->
    <g style="fill: #183c55" transform="translate(398.260518 271.404326) scale(0.24 -0.24)">
     <use xlink:href="#Arial-BoldMT-2a"/>
     <use xlink:href="#Arial-BoldMT-2a" x="38.916016"/>
     <use xlink:href="#Arial-BoldMT-2a" x="77.832031"/>
    </g>
   </g>
   <g id="text_25">
    <!-- *** -->
    <g style="fill: #2c709f" transform="translate(398.260518 255.43824) scale(0.24 -0.24)">
     <use xlink:href="#Arial-BoldMT-2a"/>
     <use xlink:href="#Arial-BoldMT-2a" x="38.916016"/>
     <use xlink:href="#Arial-BoldMT-2a" x="77.832031"/>
    </g>
   </g>
   <g id="text_26">
    <!-- High tail -->
    <g transform="translate(316.033177 61.68) scale(0.1728 -0.1728)">
     <defs>
      <path id="Arial-BoldMT-48" d="M 469 0 
L 469 4581 
L 1394 4581 
L 1394 2778 
L 3206 2778 
L 3206 4581 
L 4131 4581 
L 4131 0 
L 3206 0 
L 3206 2003 
L 1394 2003 
L 1394 0 
L 469 0 
z
" transform="scale(0.015625)"/>
      <path id="Arial-BoldMT-67" d="M 378 -219 
L 1381 -341 
Q 1406 -516 1497 -581 
Q 1622 -675 1891 -675 
Q 2234 -675 2406 -572 
Q 2522 -503 2581 -350 
Q 2622 -241 2622 53 
L 2622 538 
Q 2228 0 1628 0 
Q 959 0 569 566 
Q 263 1013 263 1678 
Q 263 2513 664 2953 
Q 1066 3394 1663 3394 
Q 2278 3394 2678 2853 
L 2678 3319 
L 3500 3319 
L 3500 341 
Q 3500 -247 3403 -537 
Q 3306 -828 3131 -993 
Q 2956 -1159 2664 -1253 
Q 2372 -1347 1925 -1347 
Q 1081 -1347 728 -1058 
Q 375 -769 375 -325 
Q 375 -281 378 -219 
z
M 1163 1728 
Q 1163 1200 1367 954 
Q 1572 709 1872 709 
Q 2194 709 2416 961 
Q 2638 1213 2638 1706 
Q 2638 2222 2425 2472 
Q 2213 2722 1888 2722 
Q 1572 2722 1367 2476 
Q 1163 2231 1163 1728 
z
" transform="scale(0.015625)"/>
      <path id="Arial-BoldMT-68" d="M 1334 4581 
L 1334 2897 
Q 1759 3394 2350 3394 
Q 2653 3394 2897 3281 
Q 3141 3169 3264 2994 
Q 3388 2819 3433 2606 
Q 3478 2394 3478 1947 
L 3478 0 
L 2600 0 
L 2600 1753 
Q 2600 2275 2550 2415 
Q 2500 2556 2373 2639 
Q 2247 2722 2056 2722 
Q 1838 2722 1666 2615 
Q 1494 2509 1414 2295 
Q 1334 2081 1334 1663 
L 1334 0 
L 456 0 
L 456 4581 
L 1334 4581 
z
" transform="scale(0.015625)"/>
     </defs>
     <use xlink:href="#Arial-BoldMT-48"/>
     <use xlink:href="#Arial-BoldMT-69" x="72.216797"/>
     <use xlink:href="#Arial-BoldMT-67" x="100"/>
     <use xlink:href="#Arial-BoldMT-68" x="161.083984"/>
     <use xlink:href="#Arial-BoldMT-20" x="222.167969"/>
     <use xlink:href="#Arial-BoldMT-74" x="249.951172"/>
     <use xlink:href="#Arial-BoldMT-61" x="283.251953"/>
     <use xlink:href="#Arial-BoldMT-69" x="338.867188"/>
     <use xlink:href="#Arial-BoldMT-6c" x="366.650391"/>
    </g>
   </g>
  </g>
  <g id="text_27">
   <!-- Gabor sequence sig USIs (by mouse) -->
   <g transform="translate(88.62725 19.7793) scale(0.1728 -0.1728)">
    <defs>
     <path id="Arial-BoldMT-47" d="M 2597 1684 
L 2597 2456 
L 4591 2456 
L 4591 631 
Q 4300 350 3748 136 
Q 3197 -78 2631 -78 
Q 1913 -78 1378 223 
Q 844 525 575 1086 
Q 306 1647 306 2306 
Q 306 3022 606 3578 
Q 906 4134 1484 4431 
Q 1925 4659 2581 4659 
Q 3434 4659 3914 4301 
Q 4394 3944 4531 3313 
L 3613 3141 
Q 3516 3478 3248 3673 
Q 2981 3869 2581 3869 
Q 1975 3869 1617 3484 
Q 1259 3100 1259 2344 
Q 1259 1528 1621 1120 
Q 1984 713 2572 713 
Q 2863 713 3155 827 
Q 3447 941 3656 1103 
L 3656 1684 
L 2597 1684 
z
" transform="scale(0.015625)"/>
     <path id="Arial-BoldMT-62" d="M 422 0 
L 422 4581 
L 1300 4581 
L 1300 2931 
Q 1706 3394 2263 3394 
Q 2869 3394 3266 2955 
Q 3663 2516 3663 1694 
Q 3663 844 3258 384 
Q 2853 -75 2275 -75 
Q 1991 -75 1714 67 
Q 1438 209 1238 488 
L 1238 0 
L 422 0 
z
M 1294 1731 
Q 1294 1216 1456 969 
Q 1684 619 2063 619 
Q 2353 619 2558 867 
Q 2763 1116 2763 1650 
Q 2763 2219 2556 2470 
Q 2350 2722 2028 2722 
Q 1713 2722 1503 2476 
Q 1294 2231 1294 1731 
z
" transform="scale(0.015625)"/>
     <path id="Arial-BoldMT-72" d="M 1300 0 
L 422 0 
L 422 3319 
L 1238 3319 
L 1238 2847 
Q 1447 3181 1614 3287 
Q 1781 3394 1994 3394 
Q 2294 3394 2572 3228 
L 2300 2463 
Q 2078 2606 1888 2606 
Q 1703 2606 1575 2504 
Q 1447 2403 1373 2137 
Q 1300 1872 1300 1025 
L 1300 0 
z
" transform="scale(0.015625)"/>
     <path id="Arial-BoldMT-73" d="M 150 947 
L 1031 1081 
Q 1088 825 1259 692 
Q 1431 559 1741 559 
Q 2081 559 2253 684 
Q 2369 772 2369 919 
Q 2369 1019 2306 1084 
Q 2241 1147 2013 1200 
Q 950 1434 666 1628 
Q 272 1897 272 2375 
Q 272 2806 612 3100 
Q 953 3394 1669 3394 
Q 2350 3394 2681 3172 
Q 3013 2950 3138 2516 
L 2309 2363 
Q 2256 2556 2107 2659 
Q 1959 2763 1684 2763 
Q 1338 2763 1188 2666 
Q 1088 2597 1088 2488 
Q 1088 2394 1175 2328 
Q 1294 2241 1995 2081 
Q 2697 1922 2975 1691 
Q 3250 1456 3250 1038 
Q 3250 581 2869 253 
Q 2488 -75 1741 -75 
Q 1063 -75 667 200 
Q 272 475 150 947 
z
" transform="scale(0.015625)"/>
     <path id="Arial-BoldMT-65" d="M 2381 1056 
L 3256 909 
Q 3088 428 2723 176 
Q 2359 -75 1813 -75 
Q 947 -75 531 491 
Q 203 944 203 1634 
Q 203 2459 634 2926 
Q 1066 3394 1725 3394 
Q 2466 3394 2894 2905 
Q 3322 2416 3303 1406 
L 1103 1406 
Q 1113 1016 1316 798 
Q 1519 581 1822 581 
Q 2028 581 2168 693 
Q 2309 806 2381 1056 
z
M 2431 1944 
Q 2422 2325 2234 2523 
Q 2047 2722 1778 2722 
Q 1491 2722 1303 2513 
Q 1116 2303 1119 1944 
L 2431 1944 
z
" transform="scale(0.015625)"/>
     <path id="Arial-BoldMT-71" d="M 2628 -1263 
L 2628 406 
Q 2456 184 2200 54 
Q 1944 -75 1647 -75 
Q 1081 -75 716 350 
Q 284 847 284 1697 
Q 284 2497 689 2945 
Q 1094 3394 1694 3394 
Q 2025 3394 2267 3253 
Q 2509 3113 2697 2828 
L 2697 3319 
L 3506 3319 
L 3506 -1263 
L 2628 -1263 
z
M 2656 1700 
Q 2656 2209 2448 2457 
Q 2241 2706 1928 2706 
Q 1609 2706 1395 2453 
Q 1181 2200 1181 1650 
Q 1181 1103 1387 861 
Q 1594 619 1897 619 
Q 2200 619 2428 891 
Q 2656 1163 2656 1700 
z
" transform="scale(0.015625)"/>
     <path id="Arial-BoldMT-75" d="M 2644 0 
L 2644 497 
Q 2463 231 2167 78 
Q 1872 -75 1544 -75 
Q 1209 -75 943 72 
Q 678 219 559 484 
Q 441 750 441 1219 
L 441 3319 
L 1319 3319 
L 1319 1794 
Q 1319 1094 1367 936 
Q 1416 778 1544 686 
Q 1672 594 1869 594 
Q 2094 594 2272 717 
Q 2450 841 2515 1023 
Q 2581 1206 2581 1919 
L 2581 3319 
L 3459 3319 
L 3459 0 
L 2644 0 
z
" transform="scale(0.015625)"/>
     <path id="Arial-BoldMT-6e" d="M 3478 0 
L 2600 0 
L 2600 1694 
Q 2600 2231 2544 2389 
Q 2488 2547 2361 2634 
Q 2234 2722 2056 2722 
Q 1828 2722 1647 2597 
Q 1466 2472 1398 2265 
Q 1331 2059 1331 1503 
L 1331 0 
L 453 0 
L 453 3319 
L 1269 3319 
L 1269 2831 
Q 1703 3394 2363 3394 
Q 2653 3394 2893 3289 
Q 3134 3184 3257 3021 
Q 3381 2859 3429 2653 
Q 3478 2447 3478 2063 
L 3478 0 
z
" transform="scale(0.015625)"/>
     <path id="Arial-BoldMT-63" d="M 3353 2338 
L 2488 2181 
Q 2444 2441 2289 2572 
Q 2134 2703 1888 2703 
Q 1559 2703 1364 2476 
Q 1169 2250 1169 1719 
Q 1169 1128 1367 884 
Q 1566 641 1900 641 
Q 2150 641 2309 783 
Q 2469 925 2534 1272 
L 3397 1125 
Q 3263 531 2881 228 
Q 2500 -75 1859 -75 
Q 1131 -75 698 384 
Q 266 844 266 1656 
Q 266 2478 700 2936 
Q 1134 3394 1875 3394 
Q 2481 3394 2839 3133 
Q 3197 2872 3353 2338 
z
" transform="scale(0.015625)"/>
     <path id="Arial-BoldMT-55" d="M 459 4581 
L 1384 4581 
L 1384 2100 
Q 1384 1509 1419 1334 
Q 1478 1053 1701 883 
Q 1925 713 2313 713 
Q 2706 713 2906 873 
Q 3106 1034 3147 1268 
Q 3188 1503 3188 2047 
L 3188 4581 
L 4113 4581 
L 4113 2175 
Q 4113 1350 4038 1009 
Q 3963 669 3761 434 
Q 3559 200 3221 61 
Q 2884 -78 2341 -78 
Q 1684 -78 1345 73 
Q 1006 225 809 467 
Q 613 709 550 975 
Q 459 1369 459 2138 
L 459 4581 
z
" transform="scale(0.015625)"/>
     <path id="Arial-BoldMT-49" d="M 438 0 
L 438 4581 
L 1363 4581 
L 1363 0 
L 438 0 
z
" transform="scale(0.015625)"/>
     <path id="Arial-BoldMT-28" d="M 1916 -1347 
L 1313 -1347 
Q 834 -625 584 153 
Q 334 931 334 1659 
Q 334 2563 644 3369 
Q 913 4069 1325 4659 
L 1925 4659 
Q 1497 3713 1336 3048 
Q 1175 2384 1175 1641 
Q 1175 1128 1270 590 
Q 1366 53 1531 -431 
Q 1641 -750 1916 -1347 
z
" transform="scale(0.015625)"/>
     <path id="Arial-BoldMT-79" d="M 44 3319 
L 978 3319 
L 1772 963 
L 2547 3319 
L 3456 3319 
L 2284 125 
L 2075 -453 
Q 1959 -744 1854 -897 
Q 1750 -1050 1614 -1145 
Q 1478 -1241 1279 -1294 
Q 1081 -1347 831 -1347 
Q 578 -1347 334 -1294 
L 256 -606 
Q 463 -647 628 -647 
Q 934 -647 1081 -467 
Q 1228 -288 1306 -9 
L 44 3319 
z
" transform="scale(0.015625)"/>
     <path id="Arial-BoldMT-6d" d="M 394 3319 
L 1203 3319 
L 1203 2866 
Q 1638 3394 2238 3394 
Q 2556 3394 2790 3262 
Q 3025 3131 3175 2866 
Q 3394 3131 3647 3262 
Q 3900 3394 4188 3394 
Q 4553 3394 4806 3245 
Q 5059 3097 5184 2809 
Q 5275 2597 5275 2122 
L 5275 0 
L 4397 0 
L 4397 1897 
Q 4397 2391 4306 2534 
Q 4184 2722 3931 2722 
Q 3747 2722 3584 2609 
Q 3422 2497 3350 2280 
Q 3278 2063 3278 1594 
L 3278 0 
L 2400 0 
L 2400 1819 
Q 2400 2303 2353 2443 
Q 2306 2584 2207 2653 
Q 2109 2722 1941 2722 
Q 1738 2722 1575 2612 
Q 1413 2503 1342 2297 
Q 1272 2091 1272 1613 
L 1272 0 
L 394 0 
L 394 3319 
z
" transform="scale(0.015625)"/>
     <path id="Arial-BoldMT-29" d="M 216 -1347 
Q 475 -791 581 -494 
Q 688 -197 778 190 
Q 869 578 912 926 
Q 956 1275 956 1641 
Q 956 2384 797 3048 
Q 638 3713 209 4659 
L 806 4659 
Q 1278 3988 1539 3234 
Q 1800 2481 1800 1706 
Q 1800 1053 1594 306 
Q 1359 -531 822 -1347 
L 216 -1347 
z
" transform="scale(0.015625)"/>
    </defs>
    <use xlink:href="#Arial-BoldMT-47"/>
    <use xlink:href="#Arial-BoldMT-61" x="77.783203"/>
    <use xlink:href="#Arial-BoldMT-62" x="133.398438"/>
    <use xlink:href="#Arial-BoldMT-6f" x="194.482422"/>
    <use xlink:href="#Arial-BoldMT-72" x="255.566406"/>
    <use xlink:href="#Arial-BoldMT-20" x="294.482422"/>
    <use xlink:href="#Arial-BoldMT-73" x="322.265625"/>
    <use xlink:href="#Arial-BoldMT-65" x="377.880859"/>
    <use xlink:href="#Arial-BoldMT-71" x="433.496094"/>
    <use xlink:href="#Arial-BoldMT-75" x="494.580078"/>
    <use xlink:href="#Arial-BoldMT-65" x="555.664062"/>
    <use xlink:href="#Arial-BoldMT-6e" x="611.279297"/>
    <use xlink:href="#Arial-BoldMT-63" x="672.363281"/>
    <use xlink:href="#Arial-BoldMT-65" x="727.978516"/>
    <use xlink:href="#Arial-BoldMT-20" x="783.59375"/>
    <use xlink:href="#Arial-BoldMT-73" x="811.376953"/>
    <use xlink:href="#Arial-BoldMT-69" x="866.992188"/>
    <use xlink:href="#Arial-BoldMT-67" x="894.775391"/>
    <use xlink:href="#Arial-BoldMT-20" x="955.859375"/>
    <use xlink:href="#Arial-BoldMT-55" x="983.642578"/>
    <use xlink:href="#Arial-BoldMT-53" x="1055.859375"/>
    <use xlink:href="#Arial-BoldMT-49" x="1122.558594"/>
    <use xlink:href="#Arial-BoldMT-73" x="1150.341797"/>
    <use xlink:href="#Arial-BoldMT-20" x="1205.957031"/>
    <use xlink:href="#Arial-BoldMT-28" x="1233.740234"/>
    <use xlink:href="#Arial-BoldMT-62" x="1267.041016"/>
    <use xlink:href="#Arial-BoldMT-79" x="1328.125"/>
    <use xlink:href="#Arial-BoldMT-20" x="1383.740234"/>
    <use xlink:href="#Arial-BoldMT-6d" x="1411.523438"/>
    <use xlink:href="#Arial-BoldMT-6f" x="1500.439453"/>
    <use xlink:href="#Arial-BoldMT-75" x="1561.523438"/>
    <use xlink:href="#Arial-BoldMT-73" x="1622.607422"/>
    <use xlink:href="#Arial-BoldMT-65" x="1678.222656"/>
    <use xlink:href="#Arial-BoldMT-29" x="1733.837891"/>
   </g>
  </g>
 </g>
 <defs>
  <clipPath id="pf5a23230f4">
   <rect x="57.6974" y="67.68" width="174.055046" height="465.696"/>
  </clipPath>
  <clipPath id="p5eb938f15a">
   <rect x="263.082354" y="67.68" width="174.055046" height="465.696"/>
  </clipPath>
 </defs>
</svg>
