<?xml version="1.0" encoding="utf-8" standalone="no"?>
<!DOCTYPE svg PUBLIC "-//W3C//DTD SVG 1.1//EN"
  "http://www.w3.org/Graphics/SVG/1.1/DTD/svg11.dtd">
<!-- Created with matplotlib (https://matplotlib.org/) -->
<svg height="343.847pt" version="1.1" viewBox="0 0 362.6615 343.847" width="362.6615pt" xmlns="http://www.w3.org/2000/svg" xmlns:xlink="http://www.w3.org/1999/xlink">
 <metadata>
  <rdf:RDF xmlns:cc="http://creativecommons.org/ns#" xmlns:dc="http://purl.org/dc/elements/1.1/" xmlns:rdf="http://www.w3.org/1999/02/22-rdf-syntax-ns#">
   <cc:Work>
    <dc:type rdf:resource="http://purl.org/dc/dcmitype/StillImage"/>
    <dc:date>2021-12-08T00:10:30.465208</dc:date>
    <dc:format>image/svg+xml</dc:format>
    <dc:creator>
     <cc:Agent>
      <dc:title>Matplotlib v3.3.1, https://matplotlib.org/</dc:title>
     </cc:Agent>
    </dc:creator>
   </cc:Work>
  </rdf:RDF>
 </metadata>
 <defs>
  <style type="text/css">*{stroke-linecap:butt;stroke-linejoin:round;}</style>
 </defs>
 <g id="figure_1">
  <g id="patch_1">
   <path d="M 0 343.847 
L 362.6615 343.847 
L 362.6615 0 
L 0 0 
z
" style="fill:#ffffff;"/>
  </g>
  <g id="axes_1">
   <g id="patch_2">
    <path d="M 109.0919 151.27513 
L 343.4519 151.27513 
L 343.4519 45.216 
L 109.0919 45.216 
z
" style="fill:#ffffff;"/>
   </g>
   <g id="line2d_1">
    <path clip-path="url(#p88c216155e)" d="M 249.7079 151.27513 
L 249.7079 45.216 
" style="fill:none;stroke:#000000;stroke-dasharray:9,6;stroke-dashoffset:0;stroke-opacity:0.5;stroke-width:3;"/>
   </g>
   <g id="PolyCollection_1">
    <path clip-path="url(#p88c216155e)" d="M 109.0919 92.748436 
L 109.0919 105.080775 
L 111.725158 105.428495 
L 114.358417 103.941076 
L 116.991675 105.463604 
L 119.624934 105.287018 
L 122.258192 105.339103 
L 124.891451 104.897434 
L 127.524709 105.269608 
L 130.157967 104.787324 
L 132.791226 104.894744 
L 135.424484 105.361871 
L 138.057743 104.977955 
L 140.691001 104.721785 
L 143.32426 104.940665 
L 145.957518 105.756356 
L 148.590776 106.461131 
L 151.224035 105.959377 
L 153.857293 106.779472 
L 156.490552 106.197512 
L 159.12381 106.324582 
L 161.757069 105.808329 
L 164.390327 106.74477 
L 167.023585 106.544049 
L 169.656844 106.558553 
L 172.290102 107.398018 
L 174.923361 107.632566 
L 177.556619 108.104203 
L 180.189878 108.486817 
L 182.823136 108.536253 
L 185.456394 108.333862 
L 188.089653 108.240698 
L 190.722911 108.934091 
L 193.35617 108.550234 
L 195.989428 110.163111 
L 198.622687 109.56146 
L 201.255945 110.194727 
L 203.889203 109.37543 
L 206.522462 109.542137 
L 209.15572 108.307327 
L 211.788979 108.849847 
L 214.422237 108.727104 
L 217.055496 109.043973 
L 219.688754 109.512895 
L 222.322012 109.048381 
L 224.955271 109.897708 
L 227.588529 109.624885 
L 230.221788 109.572794 
L 232.855046 109.550285 
L 235.488304 109.213924 
L 238.121563 109.728478 
L 240.754821 109.457381 
L 243.38808 110.659856 
L 246.021338 109.579104 
L 248.654597 109.96103 
L 251.287855 109.034972 
L 253.921113 108.711093 
L 256.554372 107.94714 
L 259.18763 109.580343 
L 261.820889 108.727968 
L 264.454147 109.026617 
L 267.087406 108.493831 
L 269.720664 108.437267 
L 272.353922 107.596425 
L 274.987181 108.401242 
L 277.620439 108.520579 
L 280.253698 108.606411 
L 282.886956 108.256741 
L 285.520215 107.963612 
L 288.153473 108.530474 
L 290.786731 108.291347 
L 293.41999 108.579552 
L 296.053248 107.918881 
L 298.686507 108.128411 
L 301.319765 108.31542 
L 303.953024 107.782168 
L 306.586282 107.981491 
L 309.21954 107.486689 
L 311.852799 106.711967 
L 314.486057 107.127136 
L 317.119316 106.782021 
L 319.752574 106.559595 
L 322.385833 106.292451 
L 325.019091 105.649278 
L 327.652349 105.814042 
L 330.285608 105.728306 
L 332.918866 105.890807 
L 335.552125 106.268763 
L 338.185383 106.711411 
L 340.818642 105.855493 
L 343.4519 106.369619 
L 343.4519 94.059454 
L 343.4519 94.059454 
L 340.818642 93.533942 
L 338.185383 94.420263 
L 335.552125 93.953148 
L 332.918866 93.572839 
L 330.285608 93.411675 
L 327.652349 93.495274 
L 325.019091 93.331482 
L 322.385833 93.980213 
L 319.752574 94.261165 
L 317.119316 94.476353 
L 314.486057 94.839268 
L 311.852799 94.425926 
L 309.21954 95.214812 
L 306.586282 95.703614 
L 303.953024 95.514003 
L 301.319765 96.050719 
L 298.686507 95.857189 
L 296.053248 95.651717 
L 293.41999 96.318443 
L 290.786731 96.029508 
L 288.153473 96.279505 
L 285.520215 95.71071 
L 282.886956 96.000361 
L 280.253698 96.353399 
L 277.620439 96.271146 
L 274.987181 96.150923 
L 272.353922 95.325573 
L 269.720664 96.170191 
L 267.087406 96.234276 
L 264.454147 96.768764 
L 261.820889 96.468057 
L 259.18763 97.3547 
L 256.554372 95.661634 
L 253.921113 96.465246 
L 251.287855 96.805907 
L 248.654597 97.751816 
L 246.021338 97.358539 
L 243.38808 98.488159 
L 240.754821 97.242775 
L 238.121563 97.522311 
L 235.488304 97.003069 
L 232.855046 97.35722 
L 230.221788 97.368824 
L 227.588529 97.424451 
L 224.955271 97.6905 
L 222.322012 96.834205 
L 219.688754 97.296422 
L 217.055496 96.827073 
L 214.422237 96.512581 
L 211.788979 96.645953 
L 209.15572 96.054288 
L 206.522462 97.336213 
L 203.889203 97.166804 
L 201.255945 97.991855 
L 198.622687 97.350328 
L 195.989428 97.986061 
L 193.35617 96.32154 
L 190.722911 96.711416 
L 188.089653 96.004068 
L 185.456394 96.101111 
L 182.823136 96.301158 
L 180.189878 96.267292 
L 177.556619 95.868532 
L 174.923361 95.390125 
L 172.290102 95.155809 
L 169.656844 94.317291 
L 167.023585 94.294921 
L 164.390327 94.504373 
L 161.757069 93.526844 
L 159.12381 94.077508 
L 156.490552 93.951074 
L 153.857293 94.550024 
L 151.224035 93.711369 
L 148.590776 94.233612 
L 145.957518 93.502145 
L 143.32426 92.671247 
L 140.691001 92.442895 
L 138.057743 92.697118 
L 135.424484 93.074106 
L 132.791226 92.600102 
L 130.157967 92.493198 
L 127.524709 92.977503 
L 124.891451 92.595811 
L 122.258192 93.045001 
L 119.624934 92.982673 
L 116.991675 93.149921 
L 114.358417 91.584429 
L 111.725158 93.11339 
L 109.0919 92.748436 
z
" style="fill:#969696;fill-opacity:0.5;"/>
   </g>
   <g id="PolyCollection_2">
    <path clip-path="url(#p88c216155e)" d="M 109.0919 72.80695 
L 109.0919 117.460213 
L 111.725158 118.864786 
L 114.358417 118.198123 
L 116.991675 119.023771 
L 119.624934 122.03142 
L 122.258192 123.742215 
L 124.891451 122.332054 
L 127.524709 124.85687 
L 130.157967 124.212535 
L 132.791226 127.436304 
L 135.424484 126.154903 
L 138.057743 128.746482 
L 140.691001 128.767803 
L 143.32426 128.275703 
L 145.957518 129.133802 
L 148.590776 129.440735 
L 151.224035 129.343864 
L 153.857293 129.92546 
L 156.490552 129.67218 
L 159.12381 130.624029 
L 161.757069 130.73451 
L 164.390327 131.736922 
L 167.023585 130.769694 
L 169.656844 132.595951 
L 172.290102 132.16167 
L 174.923361 130.016654 
L 177.556619 130.822233 
L 180.189878 131.215979 
L 182.823136 128.115432 
L 185.456394 128.244838 
L 188.089653 128.088575 
L 190.722911 128.661697 
L 193.35617 130.533748 
L 195.989428 130.243031 
L 198.622687 130.320788 
L 201.255945 129.722822 
L 203.889203 129.901375 
L 206.522462 129.769159 
L 209.15572 127.979887 
L 211.788979 127.581486 
L 214.422237 127.701621 
L 217.055496 127.602786 
L 219.688754 128.720857 
L 222.322012 128.532317 
L 224.955271 128.402624 
L 227.588529 128.90402 
L 230.221788 127.485409 
L 232.855046 127.257324 
L 235.488304 128.387599 
L 238.121563 126.332361 
L 240.754821 125.480815 
L 243.38808 126.696084 
L 246.021338 125.668125 
L 248.654597 125.103345 
L 251.287855 122.839023 
L 253.921113 123.752195 
L 256.554372 119.645454 
L 259.18763 121.289152 
L 261.820889 120.944338 
L 264.454147 121.757722 
L 267.087406 121.26315 
L 269.720664 122.55334 
L 272.353922 121.862438 
L 274.987181 121.374189 
L 277.620439 120.311894 
L 280.253698 122.225401 
L 282.886956 121.045091 
L 285.520215 120.356619 
L 288.153473 122.094557 
L 290.786731 118.189909 
L 293.41999 121.150153 
L 296.053248 122.913339 
L 298.686507 121.14856 
L 301.319765 119.521399 
L 303.953024 120.794056 
L 306.586282 120.215009 
L 309.21954 119.22298 
L 311.852799 119.065645 
L 314.486057 122.927686 
L 317.119316 120.846977 
L 319.752574 121.101176 
L 322.385833 118.598261 
L 325.019091 119.196137 
L 327.652349 118.407143 
L 330.285608 116.942187 
L 332.918866 118.139896 
L 335.552125 115.774503 
L 338.185383 118.923446 
L 340.818642 116.658504 
L 343.4519 117.085362 
L 343.4519 72.410704 
L 343.4519 72.410704 
L 340.818642 71.948192 
L 338.185383 74.336919 
L 335.552125 70.962175 
L 332.918866 73.50821 
L 330.285608 72.319265 
L 327.652349 73.859326 
L 325.019091 74.710043 
L 322.385833 74.068022 
L 319.752574 76.893752 
L 317.119316 76.571895 
L 314.486057 78.717391 
L 311.852799 74.729383 
L 309.21954 74.892539 
L 306.586282 75.788073 
L 303.953024 76.530282 
L 301.319765 75.207774 
L 298.686507 76.815171 
L 296.053248 78.622538 
L 293.41999 76.717652 
L 290.786731 73.592808 
L 288.153473 77.746412 
L 285.520215 75.92216 
L 282.886956 76.722301 
L 280.253698 77.859345 
L 277.620439 75.781058 
L 274.987181 76.937517 
L 272.353922 77.363613 
L 269.720664 78.177625 
L 267.087406 76.91491 
L 264.454147 77.476105 
L 261.820889 76.620053 
L 259.18763 77.076913 
L 256.554372 75.203694 
L 253.921113 79.549638 
L 251.287855 78.439625 
L 248.654597 80.802046 
L 246.021338 81.330025 
L 243.38808 82.559652 
L 240.754821 81.25825 
L 238.121563 82.279982 
L 235.488304 84.162025 
L 232.855046 83.014693 
L 230.221788 83.233089 
L 227.588529 84.761211 
L 224.955271 84.118547 
L 222.322012 84.285428 
L 219.688754 84.463403 
L 217.055496 83.219466 
L 214.422237 83.326779 
L 211.788979 83.168285 
L 209.15572 83.5489 
L 206.522462 85.489022 
L 203.889203 85.665484 
L 201.255945 85.491572 
L 198.622687 85.907618 
L 195.989428 86.014242 
L 193.35617 86.210215 
L 190.722911 84.298386 
L 188.089653 83.544868 
L 185.456394 83.701186 
L 182.823136 83.545859 
L 180.189878 86.966105 
L 177.556619 86.399472 
L 174.923361 85.734339 
L 172.290102 87.854967 
L 169.656844 88.277892 
L 167.023585 86.365137 
L 164.390327 87.331712 
L 161.757069 86.15676 
L 159.12381 86.315987 
L 156.490552 85.34166 
L 153.857293 85.489173 
L 151.224035 85.050302 
L 148.590776 85.23812 
L 145.957518 84.935853 
L 143.32426 84.014898 
L 140.691001 84.528942 
L 138.057743 84.337958 
L 135.424484 81.624743 
L 132.791226 83.044315 
L 130.157967 79.756772 
L 127.524709 80.369549 
L 124.891451 77.870922 
L 122.258192 79.195728 
L 119.624934 77.516465 
L 116.991675 74.365126 
L 114.358417 73.427425 
L 111.725158 74.213033 
L 109.0919 72.80695 
z
" style="fill:#eb3920;fill-opacity:0.2;"/>
   </g>
   <g id="matplotlib.axis_1">
    <g id="xtick_1">
     <g id="line2d_2">
      <defs>
       <path d="M 0 0 
L 0 8 
" id="mff5c6136f1" style="stroke:#000000;stroke-width:4;"/>
      </defs>
      <g>
       <use style="stroke:#000000;stroke-width:4;" x="109.0919" xlink:href="#mff5c6136f1" y="151.27513"/>
      </g>
     </g>
    </g>
    <g id="xtick_2">
     <g id="line2d_3">
      <g>
       <use style="stroke:#000000;stroke-width:4;" x="155.9639" xlink:href="#mff5c6136f1" y="151.27513"/>
      </g>
     </g>
    </g>
    <g id="xtick_3">
     <g id="line2d_4">
      <g>
       <use style="stroke:#000000;stroke-width:4;" x="202.8359" xlink:href="#mff5c6136f1" y="151.27513"/>
      </g>
     </g>
    </g>
    <g id="xtick_4">
     <g id="line2d_5">
      <g>
       <use style="stroke:#000000;stroke-width:4;" x="249.7079" xlink:href="#mff5c6136f1" y="151.27513"/>
      </g>
     </g>
    </g>
    <g id="xtick_5">
     <g id="line2d_6">
      <g>
       <use style="stroke:#000000;stroke-width:4;" x="296.5799" xlink:href="#mff5c6136f1" y="151.27513"/>
      </g>
     </g>
    </g>
    <g id="xtick_6">
     <g id="line2d_7">
      <g>
       <use style="stroke:#000000;stroke-width:4;" x="343.4519" xlink:href="#mff5c6136f1" y="151.27513"/>
      </g>
     </g>
    </g>
   </g>
   <g id="matplotlib.axis_2">
    <g id="ytick_1">
     <g id="line2d_8">
      <defs>
       <path d="M 0 0 
L -8 0 
" id="mdc34751d98" style="stroke:#000000;stroke-width:4;"/>
      </defs>
      <g>
       <use style="stroke:#000000;stroke-width:4;" x="109.0919" xlink:href="#mdc34751d98" y="151.27513"/>
      </g>
     </g>
     <g id="text_1">
      <!-- 8 -->
      <g transform="translate(87.9826 157.45948)scale(0.1728 -0.1728)">
       <defs>
        <path d="M 16.015625 38.625 
Q 10.6875 40.875 8.265625 44.796875 
Q 5.859375 48.734375 5.859375 53.421875 
Q 5.859375 61.421875 11.453125 66.640625 
Q 17.046875 71.875 27.34375 71.875 
Q 37.546875 71.875 43.1875 66.640625 
Q 48.828125 61.421875 48.828125 53.421875 
Q 48.828125 48.4375 46.234375 44.546875 
Q 43.65625 40.671875 38.96875 38.625 
Q 44.921875 36.234375 48.015625 31.640625 
Q 51.125 27.046875 51.125 21.046875 
Q 51.125 11.140625 44.796875 4.9375 
Q 38.484375 -1.265625 27.984375 -1.265625 
Q 18.21875 -1.265625 11.71875 3.859375 
Q 4.046875 9.90625 4.046875 20.453125 
Q 4.046875 26.265625 6.921875 31.125 
Q 9.8125 35.984375 16.015625 38.625 
z
M 18.84375 52.4375 
Q 18.84375 48.34375 21.15625 46.046875 
Q 23.484375 43.75 27.34375 43.75 
Q 31.25 43.75 33.59375 46.0625 
Q 35.9375 48.390625 35.9375 52.484375 
Q 35.9375 56.34375 33.609375 58.65625 
Q 31.296875 60.984375 27.484375 60.984375 
Q 23.53125 60.984375 21.1875 58.640625 
Q 18.84375 56.296875 18.84375 52.4375 
z
M 17.578125 21.78125 
Q 17.578125 16.109375 20.484375 12.9375 
Q 23.390625 9.765625 27.734375 9.765625 
Q 31.984375 9.765625 34.765625 12.8125 
Q 37.546875 15.875 37.546875 21.625 
Q 37.546875 26.65625 34.71875 29.703125 
Q 31.890625 32.765625 27.546875 32.765625 
Q 22.515625 32.765625 20.046875 29.296875 
Q 17.578125 25.828125 17.578125 21.78125 
z
" id="Arial-BoldMT-56"/>
       </defs>
       <use xlink:href="#Arial-BoldMT-56"/>
      </g>
     </g>
    </g>
    <g id="ytick_2">
     <g id="line2d_9">
      <g>
       <use style="stroke:#000000;stroke-width:4;" x="109.0919" xlink:href="#mdc34751d98" y="98.245565"/>
      </g>
     </g>
    </g>
    <g id="ytick_3">
     <g id="line2d_10">
      <g>
       <use style="stroke:#000000;stroke-width:4;" x="109.0919" xlink:href="#mdc34751d98" y="45.216"/>
      </g>
     </g>
     <g id="text_2">
      <!-- 10 -->
      <g transform="translate(78.3733 51.40035)scale(0.1728 -0.1728)">
       <defs>
        <path d="M 39.359375 0 
L 25.640625 0 
L 25.640625 51.703125 
Q 18.109375 44.671875 7.90625 41.3125 
L 7.90625 53.765625 
Q 13.28125 55.515625 19.578125 60.421875 
Q 25.875 65.328125 28.21875 71.875 
L 39.359375 71.875 
z
" id="Arial-BoldMT-49"/>
        <path d="M 27.4375 71.875 
Q 37.84375 71.875 43.703125 64.453125 
Q 50.6875 55.671875 50.6875 35.296875 
Q 50.6875 14.984375 43.65625 6.109375 
Q 37.84375 -1.21875 27.4375 -1.21875 
Q 17 -1.21875 10.59375 6.8125 
Q 4.203125 14.84375 4.203125 35.453125 
Q 4.203125 55.671875 11.234375 64.546875 
Q 17.046875 71.875 27.4375 71.875 
z
M 27.4375 60.5 
Q 24.953125 60.5 23 58.90625 
Q 21.046875 57.328125 19.96875 53.21875 
Q 18.5625 47.90625 18.5625 35.296875 
Q 18.5625 22.703125 19.828125 17.984375 
Q 21.09375 13.28125 23.015625 11.71875 
Q 24.953125 10.15625 27.4375 10.15625 
Q 29.9375 10.15625 31.890625 11.734375 
Q 33.84375 13.328125 34.90625 17.4375 
Q 36.328125 22.703125 36.328125 35.296875 
Q 36.328125 47.90625 35.0625 52.609375 
Q 33.796875 57.328125 31.859375 58.90625 
Q 29.9375 60.5 27.4375 60.5 
z
" id="Arial-BoldMT-48"/>
       </defs>
       <use xlink:href="#Arial-BoldMT-49"/>
       <use x="55.615234" xlink:href="#Arial-BoldMT-48"/>
      </g>
     </g>
    </g>
    <g id="text_3">
     <!-- Running -->
     <g transform="translate(33.525 133.271315)rotate(-90)scale(0.1728 -0.1728)">
      <defs>
       <path d="M 7.328125 0 
L 7.328125 71.578125 
L 37.75 71.578125 
Q 49.21875 71.578125 54.421875 69.640625 
Q 59.625 67.71875 62.75 62.78125 
Q 65.875 57.859375 65.875 51.515625 
Q 65.875 43.453125 61.125 38.203125 
Q 56.390625 32.953125 46.96875 31.59375 
Q 51.65625 28.859375 54.703125 25.578125 
Q 57.765625 22.3125 62.9375 13.96875 
L 71.6875 0 
L 54.390625 0 
L 43.953125 15.578125 
Q 38.375 23.921875 36.328125 26.09375 
Q 34.28125 28.265625 31.984375 29.078125 
Q 29.6875 29.890625 24.703125 29.890625 
L 21.78125 29.890625 
L 21.78125 0 
z
M 21.78125 41.3125 
L 32.46875 41.3125 
Q 42.875 41.3125 45.453125 42.1875 
Q 48.046875 43.0625 49.515625 45.203125 
Q 50.984375 47.359375 50.984375 50.59375 
Q 50.984375 54.203125 49.046875 56.421875 
Q 47.125 58.640625 43.609375 59.234375 
Q 41.84375 59.46875 33.0625 59.46875 
L 21.78125 59.46875 
z
" id="Arial-BoldMT-82"/>
       <path d="M 41.3125 0 
L 41.3125 7.765625 
Q 38.484375 3.609375 33.859375 1.21875 
Q 29.25 -1.171875 24.125 -1.171875 
Q 18.890625 -1.171875 14.734375 1.125 
Q 10.59375 3.421875 8.734375 7.5625 
Q 6.890625 11.71875 6.890625 19.046875 
L 6.890625 51.859375 
L 20.609375 51.859375 
L 20.609375 28.03125 
Q 20.609375 17.09375 21.359375 14.625 
Q 22.125 12.15625 24.125 10.71875 
Q 26.125 9.28125 29.203125 9.28125 
Q 32.71875 9.28125 35.5 11.203125 
Q 38.28125 13.140625 39.296875 15.984375 
Q 40.328125 18.84375 40.328125 29.984375 
L 40.328125 51.859375 
L 54.046875 51.859375 
L 54.046875 0 
z
" id="Arial-BoldMT-117"/>
       <path d="M 54.34375 0 
L 40.625 0 
L 40.625 26.46875 
Q 40.625 34.859375 39.75 37.328125 
Q 38.875 39.796875 36.890625 41.15625 
Q 34.90625 42.53125 32.125 42.53125 
Q 28.5625 42.53125 25.734375 40.578125 
Q 22.90625 38.625 21.84375 35.390625 
Q 20.796875 32.171875 20.796875 23.484375 
L 20.796875 0 
L 7.078125 0 
L 7.078125 51.859375 
L 19.828125 51.859375 
L 19.828125 44.234375 
Q 26.609375 53.03125 36.921875 53.03125 
Q 41.453125 53.03125 45.203125 51.390625 
Q 48.96875 49.75 50.890625 47.203125 
Q 52.828125 44.671875 53.578125 41.453125 
Q 54.34375 38.234375 54.34375 32.234375 
z
" id="Arial-BoldMT-110"/>
       <path d="M 7.171875 58.890625 
L 7.171875 71.578125 
L 20.90625 71.578125 
L 20.90625 58.890625 
z
M 7.171875 0 
L 7.171875 51.859375 
L 20.90625 51.859375 
L 20.90625 0 
z
" id="Arial-BoldMT-105"/>
       <path d="M 5.90625 -3.421875 
L 21.578125 -5.328125 
Q 21.96875 -8.0625 23.390625 -9.078125 
Q 25.34375 -10.546875 29.546875 -10.546875 
Q 34.90625 -10.546875 37.59375 -8.9375 
Q 39.40625 -7.859375 40.328125 -5.46875 
Q 40.96875 -3.765625 40.96875 0.828125 
L 40.96875 8.40625 
Q 34.8125 0 25.4375 0 
Q 14.984375 0 8.890625 8.84375 
Q 4.109375 15.828125 4.109375 26.21875 
Q 4.109375 39.265625 10.375 46.140625 
Q 16.65625 53.03125 25.984375 53.03125 
Q 35.59375 53.03125 41.84375 44.578125 
L 41.84375 51.859375 
L 54.6875 51.859375 
L 54.6875 5.328125 
Q 54.6875 -3.859375 53.171875 -8.390625 
Q 51.65625 -12.9375 48.921875 -15.515625 
Q 46.1875 -18.109375 41.625 -19.578125 
Q 37.0625 -21.046875 30.078125 -21.046875 
Q 16.890625 -21.046875 11.375 -16.53125 
Q 5.859375 -12.015625 5.859375 -5.078125 
Q 5.859375 -4.390625 5.90625 -3.421875 
z
M 18.171875 27 
Q 18.171875 18.75 21.359375 14.90625 
Q 24.5625 11.078125 29.25 11.078125 
Q 34.28125 11.078125 37.75 15.015625 
Q 41.21875 18.953125 41.21875 26.65625 
Q 41.21875 34.71875 37.890625 38.625 
Q 34.578125 42.53125 29.5 42.53125 
Q 24.5625 42.53125 21.359375 38.6875 
Q 18.171875 34.859375 18.171875 27 
z
" id="Arial-BoldMT-103"/>
      </defs>
      <use xlink:href="#Arial-BoldMT-82"/>
      <use x="72.216797" xlink:href="#Arial-BoldMT-117"/>
      <use x="133.300781" xlink:href="#Arial-BoldMT-110"/>
      <use x="194.384766" xlink:href="#Arial-BoldMT-110"/>
      <use x="255.46875" xlink:href="#Arial-BoldMT-105"/>
      <use x="283.251953" xlink:href="#Arial-BoldMT-110"/>
      <use x="344.335938" xlink:href="#Arial-BoldMT-103"/>
     </g>
     <!-- velocity -->
     <g transform="translate(52.00434 130.418765)rotate(-90)scale(0.1728 -0.1728)">
      <defs>
       <path d="M 21.4375 0 
L 0.53125 51.859375 
L 14.9375 51.859375 
L 24.703125 25.390625 
L 27.546875 16.546875 
Q 28.65625 19.921875 28.953125 21 
Q 29.640625 23.1875 30.421875 25.390625 
L 40.28125 51.859375 
L 54.390625 51.859375 
L 33.796875 0 
z
" id="Arial-BoldMT-118"/>
       <path d="M 37.203125 16.5 
L 50.875 14.203125 
Q 48.25 6.6875 42.546875 2.75 
Q 36.859375 -1.171875 28.328125 -1.171875 
Q 14.796875 -1.171875 8.296875 7.671875 
Q 3.171875 14.75 3.171875 25.53125 
Q 3.171875 38.421875 9.90625 45.71875 
Q 16.65625 53.03125 26.953125 53.03125 
Q 38.53125 53.03125 45.21875 45.390625 
Q 51.90625 37.75 51.609375 21.96875 
L 17.234375 21.96875 
Q 17.390625 15.875 20.5625 12.46875 
Q 23.734375 9.078125 28.46875 9.078125 
Q 31.6875 9.078125 33.875 10.828125 
Q 36.078125 12.59375 37.203125 16.5 
z
M 37.984375 30.375 
Q 37.84375 36.328125 34.90625 39.421875 
Q 31.984375 42.53125 27.78125 42.53125 
Q 23.296875 42.53125 20.359375 39.265625 
Q 17.4375 35.984375 17.484375 30.375 
z
" id="Arial-BoldMT-101"/>
       <path d="M 7.171875 0 
L 7.171875 71.578125 
L 20.90625 71.578125 
L 20.90625 0 
z
" id="Arial-BoldMT-108"/>
       <path d="M 4 26.65625 
Q 4 33.5 7.375 39.890625 
Q 10.75 46.296875 16.921875 49.65625 
Q 23.09375 53.03125 30.71875 53.03125 
Q 42.484375 53.03125 50 45.390625 
Q 57.515625 37.75 57.515625 26.078125 
Q 57.515625 14.3125 49.921875 6.5625 
Q 42.328125 -1.171875 30.8125 -1.171875 
Q 23.6875 -1.171875 17.21875 2.046875 
Q 10.75 5.28125 7.375 11.5 
Q 4 17.71875 4 26.65625 
z
M 18.0625 25.921875 
Q 18.0625 18.21875 21.71875 14.109375 
Q 25.390625 10.015625 30.765625 10.015625 
Q 36.140625 10.015625 39.765625 14.109375 
Q 43.40625 18.21875 43.40625 26.03125 
Q 43.40625 33.640625 39.765625 37.734375 
Q 36.140625 41.84375 30.765625 41.84375 
Q 25.390625 41.84375 21.71875 37.734375 
Q 18.0625 33.640625 18.0625 25.921875 
z
" id="Arial-BoldMT-111"/>
       <path d="M 52.390625 36.53125 
L 38.875 34.078125 
Q 38.1875 38.140625 35.765625 40.1875 
Q 33.34375 42.234375 29.5 42.234375 
Q 24.359375 42.234375 21.3125 38.6875 
Q 18.265625 35.15625 18.265625 26.859375 
Q 18.265625 17.625 21.359375 13.8125 
Q 24.46875 10.015625 29.6875 10.015625 
Q 33.59375 10.015625 36.078125 12.234375 
Q 38.578125 14.453125 39.59375 19.875 
L 53.078125 17.578125 
Q 50.984375 8.296875 45.015625 3.5625 
Q 39.0625 -1.171875 29.046875 -1.171875 
Q 17.671875 -1.171875 10.90625 6 
Q 4.15625 13.1875 4.15625 25.875 
Q 4.15625 38.71875 10.9375 45.875 
Q 17.71875 53.03125 29.296875 53.03125 
Q 38.765625 53.03125 44.359375 48.953125 
Q 49.953125 44.875 52.390625 36.53125 
z
" id="Arial-BoldMT-99"/>
       <path d="M 30.953125 51.859375 
L 30.953125 40.921875 
L 21.578125 40.921875 
L 21.578125 20.015625 
Q 21.578125 13.671875 21.84375 12.625 
Q 22.125 11.578125 23.078125 10.890625 
Q 24.03125 10.203125 25.390625 10.203125 
Q 27.296875 10.203125 30.90625 11.53125 
L 32.078125 0.875 
Q 27.296875 -1.171875 21.234375 -1.171875 
Q 17.53125 -1.171875 14.546875 0.0625 
Q 11.578125 1.3125 10.1875 3.296875 
Q 8.796875 5.28125 8.25 8.640625 
Q 7.8125 11.03125 7.8125 18.3125 
L 7.8125 40.921875 
L 1.515625 40.921875 
L 1.515625 51.859375 
L 7.8125 51.859375 
L 7.8125 62.15625 
L 21.578125 70.171875 
L 21.578125 51.859375 
z
" id="Arial-BoldMT-116"/>
       <path d="M 0.6875 51.859375 
L 15.28125 51.859375 
L 27.6875 15.046875 
L 39.796875 51.859375 
L 54 51.859375 
L 35.6875 1.953125 
L 32.421875 -7.078125 
Q 30.609375 -11.625 28.96875 -14.015625 
Q 27.34375 -16.40625 25.21875 -17.890625 
Q 23.09375 -19.390625 19.984375 -20.21875 
Q 16.890625 -21.046875 12.984375 -21.046875 
Q 9.03125 -21.046875 5.21875 -20.21875 
L 4 -9.46875 
Q 7.234375 -10.109375 9.8125 -10.109375 
Q 14.59375 -10.109375 16.890625 -7.296875 
Q 19.1875 -4.5 20.40625 -0.140625 
z
" id="Arial-BoldMT-121"/>
      </defs>
      <use xlink:href="#Arial-BoldMT-118"/>
      <use x="55.615234" xlink:href="#Arial-BoldMT-101"/>
      <use x="111.230469" xlink:href="#Arial-BoldMT-108"/>
      <use x="139.013672" xlink:href="#Arial-BoldMT-111"/>
      <use x="200.097656" xlink:href="#Arial-BoldMT-99"/>
      <use x="255.712891" xlink:href="#Arial-BoldMT-105"/>
      <use x="283.496094" xlink:href="#Arial-BoldMT-116"/>
      <use x="316.796875" xlink:href="#Arial-BoldMT-121"/>
     </g>
     <!-- (cm/s) -->
     <g transform="translate(70.7364 123.691715)rotate(-90)scale(0.1728 -0.1728)">
      <defs>
       <path d="M 29.9375 -21.046875 
L 20.515625 -21.046875 
Q 13.03125 -9.765625 9.125 2.390625 
Q 5.21875 14.546875 5.21875 25.921875 
Q 5.21875 40.046875 10.0625 52.640625 
Q 14.265625 63.578125 20.703125 72.796875 
L 30.078125 72.796875 
Q 23.390625 58.015625 20.875 47.625 
Q 18.359375 37.25 18.359375 25.640625 
Q 18.359375 17.625 19.84375 9.21875 
Q 21.34375 0.828125 23.921875 -6.734375 
Q 25.640625 -11.71875 29.9375 -21.046875 
z
" id="Arial-BoldMT-40"/>
       <path d="M 6.15625 51.859375 
L 18.796875 51.859375 
L 18.796875 44.78125 
Q 25.59375 53.03125 34.96875 53.03125 
Q 39.9375 53.03125 43.59375 50.96875 
Q 47.265625 48.921875 49.609375 44.78125 
Q 53.03125 48.921875 56.984375 50.96875 
Q 60.9375 53.03125 65.4375 53.03125 
Q 71.140625 53.03125 75.09375 50.703125 
Q 79.046875 48.390625 81 43.890625 
Q 82.421875 40.578125 82.421875 33.15625 
L 82.421875 0 
L 68.703125 0 
L 68.703125 29.640625 
Q 68.703125 37.359375 67.28125 39.59375 
Q 65.375 42.53125 61.421875 42.53125 
Q 58.546875 42.53125 56 40.765625 
Q 53.46875 39.015625 52.34375 35.625 
Q 51.21875 32.234375 51.21875 24.90625 
L 51.21875 0 
L 37.5 0 
L 37.5 28.421875 
Q 37.5 35.984375 36.765625 38.171875 
Q 36.03125 40.375 34.484375 41.453125 
Q 32.953125 42.53125 30.328125 42.53125 
Q 27.15625 42.53125 24.609375 40.8125 
Q 22.078125 39.109375 20.96875 35.890625 
Q 19.875 32.671875 19.875 25.203125 
L 19.875 0 
L 6.15625 0 
z
" id="Arial-BoldMT-109"/>
       <path d="M -0.140625 -1.21875 
L 17.578125 72.796875 
L 27.875 72.796875 
L 9.96875 -1.21875 
z
" id="Arial-BoldMT-47"/>
       <path d="M 2.34375 14.796875 
L 16.109375 16.890625 
Q 17 12.890625 19.671875 10.8125 
Q 22.359375 8.734375 27.203125 8.734375 
Q 32.515625 8.734375 35.203125 10.6875 
Q 37.015625 12.0625 37.015625 14.359375 
Q 37.015625 15.921875 36.03125 16.9375 
Q 35.015625 17.921875 31.453125 18.75 
Q 14.84375 22.40625 10.40625 25.4375 
Q 4.25 29.640625 4.25 37.109375 
Q 4.25 43.84375 9.5625 48.4375 
Q 14.890625 53.03125 26.078125 53.03125 
Q 36.71875 53.03125 41.890625 49.5625 
Q 47.078125 46.09375 49.03125 39.3125 
L 36.078125 36.921875 
Q 35.25 39.9375 32.921875 41.546875 
Q 30.609375 43.171875 26.3125 43.171875 
Q 20.90625 43.171875 18.5625 41.65625 
Q 17 40.578125 17 38.875 
Q 17 37.40625 18.359375 36.375 
Q 20.21875 35.015625 31.171875 32.515625 
Q 42.140625 30.03125 46.484375 26.421875 
Q 50.78125 22.75 50.78125 16.21875 
Q 50.78125 9.078125 44.828125 3.953125 
Q 38.875 -1.171875 27.203125 -1.171875 
Q 16.609375 -1.171875 10.421875 3.125 
Q 4.25 7.421875 2.34375 14.796875 
z
" id="Arial-BoldMT-115"/>
       <path d="M 3.375 -21.046875 
Q 7.421875 -12.359375 9.078125 -7.71875 
Q 10.75 -3.078125 12.15625 2.96875 
Q 13.578125 9.03125 14.25 14.46875 
Q 14.9375 19.921875 14.9375 25.640625 
Q 14.9375 37.25 12.453125 47.625 
Q 9.96875 58.015625 3.265625 72.796875 
L 12.59375 72.796875 
Q 19.96875 62.3125 24.046875 50.53125 
Q 28.125 38.765625 28.125 26.65625 
Q 28.125 16.453125 24.90625 4.78125 
Q 21.234375 -8.296875 12.84375 -21.046875 
z
" id="Arial-BoldMT-41"/>
      </defs>
      <use xlink:href="#Arial-BoldMT-40"/>
      <use x="33.300781" xlink:href="#Arial-BoldMT-99"/>
      <use x="88.916016" xlink:href="#Arial-BoldMT-109"/>
      <use x="177.832031" xlink:href="#Arial-BoldMT-47"/>
      <use x="205.615234" xlink:href="#Arial-BoldMT-115"/>
      <use x="261.230469" xlink:href="#Arial-BoldMT-41"/>
     </g>
    </g>
   </g>
   <g id="line2d_11">
    <path clip-path="url(#p88c216155e)" d="M 109.0919 98.914605 
L 111.725158 99.270943 
L 114.358417 97.762753 
L 116.991675 99.306762 
L 119.624934 99.134846 
L 122.258192 99.192052 
L 124.891451 98.746622 
L 127.524709 99.123555 
L 130.157967 98.640261 
L 132.791226 98.747423 
L 135.424484 99.217989 
L 138.057743 98.837536 
L 140.691001 98.58234 
L 143.32426 98.805956 
L 145.957518 99.62925 
L 148.590776 100.347372 
L 151.224035 99.835373 
L 153.857293 100.664748 
L 156.490552 100.074293 
L 159.12381 100.201045 
L 161.757069 99.667586 
L 164.390327 100.624571 
L 167.023585 100.419485 
L 169.656844 100.437922 
L 172.290102 101.276914 
L 174.923361 101.511346 
L 177.556619 101.986368 
L 180.189878 102.377054 
L 182.823136 102.418706 
L 185.456394 102.217487 
L 188.089653 102.122383 
L 190.722911 102.822754 
L 193.35617 102.435887 
L 195.989428 104.074586 
L 198.622687 103.455894 
L 201.255945 104.093291 
L 203.889203 103.271117 
L 206.522462 103.439175 
L 209.15572 102.180808 
L 211.788979 102.7479 
L 214.422237 102.619843 
L 217.055496 102.935523 
L 219.688754 103.404658 
L 222.322012 102.941293 
L 224.955271 103.794104 
L 227.588529 103.524668 
L 230.221788 103.470809 
L 232.855046 103.453752 
L 235.488304 103.108496 
L 238.121563 103.625395 
L 240.754821 103.350078 
L 243.38808 104.574007 
L 246.021338 103.468822 
L 248.654597 103.856423 
L 251.287855 102.92044 
L 253.921113 102.58817 
L 256.554372 101.804387 
L 259.18763 103.467522 
L 261.820889 102.598012 
L 264.454147 102.89769 
L 267.087406 102.364053 
L 269.720664 102.303729 
L 272.353922 101.460999 
L 274.987181 102.276083 
L 277.620439 102.395862 
L 280.253698 102.479905 
L 282.886956 102.128551 
L 285.520215 101.837161 
L 288.153473 102.40499 
L 290.786731 102.160427 
L 293.41999 102.448997 
L 296.053248 101.785299 
L 298.686507 101.9928 
L 301.319765 102.18307 
L 303.953024 101.648085 
L 306.586282 101.842552 
L 309.21954 101.35075 
L 311.852799 100.568947 
L 314.486057 100.983202 
L 317.119316 100.629187 
L 319.752574 100.41038 
L 322.385833 100.136332 
L 325.019091 99.49038 
L 327.652349 99.654658 
L 330.285608 99.56999 
L 332.918866 99.731823 
L 335.552125 100.110955 
L 338.185383 100.565837 
L 340.818642 99.694718 
L 343.4519 100.214537 
" style="fill:none;stroke:#969696;stroke-linecap:square;stroke-opacity:0.8;stroke-width:5;"/>
   </g>
   <g id="line2d_12">
    <path clip-path="url(#p88c216155e)" d="M 109.0919 95.133582 
L 111.725158 96.538909 
L 114.358417 95.812774 
L 116.991675 96.694449 
L 119.624934 99.773943 
L 122.258192 101.468971 
L 124.891451 100.101488 
L 127.524709 102.61321 
L 130.157967 101.984653 
L 132.791226 105.240309 
L 135.424484 103.889823 
L 138.057743 106.54222 
L 140.691001 106.648372 
L 143.32426 106.145301 
L 145.957518 107.034828 
L 148.590776 107.339428 
L 151.224035 107.197083 
L 153.857293 107.707317 
L 156.490552 107.50692 
L 159.12381 108.470008 
L 161.757069 108.445635 
L 164.390327 109.534317 
L 167.023585 108.567416 
L 169.656844 110.436921 
L 172.290102 110.008318 
L 174.923361 107.875497 
L 177.556619 108.610852 
L 180.189878 109.091042 
L 182.823136 105.830646 
L 185.456394 105.973012 
L 188.089653 105.816721 
L 190.722911 106.480042 
L 193.35617 108.371982 
L 195.989428 108.128636 
L 198.622687 108.114203 
L 201.255945 107.607197 
L 203.889203 107.783429 
L 206.522462 107.629091 
L 209.15572 105.764393 
L 211.788979 105.374885 
L 214.422237 105.5142 
L 217.055496 105.411126 
L 219.688754 106.59213 
L 222.322012 106.408873 
L 224.955271 106.260585 
L 227.588529 106.832616 
L 230.221788 105.359249 
L 232.855046 105.136009 
L 235.488304 106.274812 
L 238.121563 104.306172 
L 240.754821 103.369532 
L 243.38808 104.627868 
L 246.021338 103.499075 
L 248.654597 102.952696 
L 251.287855 100.639324 
L 253.921113 101.650916 
L 256.554372 97.424574 
L 259.18763 99.183033 
L 261.820889 98.782196 
L 264.454147 99.616913 
L 267.087406 99.08903 
L 269.720664 100.365482 
L 272.353922 99.613025 
L 274.987181 99.155853 
L 277.620439 98.046476 
L 280.253698 100.042373 
L 282.886956 98.883696 
L 285.520215 98.13939 
L 288.153473 99.920485 
L 290.786731 95.891359 
L 293.41999 98.933903 
L 296.053248 100.767938 
L 298.686507 98.981866 
L 301.319765 97.364587 
L 303.953024 98.662169 
L 306.586282 98.001541 
L 309.21954 97.05776 
L 311.852799 96.897514 
L 314.486057 100.822538 
L 317.119316 98.709436 
L 319.752574 98.997464 
L 322.385833 96.333142 
L 325.019091 96.95309 
L 327.652349 96.133234 
L 330.285608 94.630726 
L 332.918866 95.824053 
L 335.552125 93.368339 
L 338.185383 96.630183 
L 340.818642 94.303348 
L 343.4519 94.748033 
" style="fill:none;stroke:#eb3920;stroke-linecap:square;stroke-opacity:0.75;stroke-width:5;"/>
   </g>
   <g id="patch_3">
    <path d="M 109.0919 151.27513 
L 109.0919 45.216 
" style="fill:none;stroke:#000000;stroke-linecap:square;stroke-linejoin:miter;stroke-width:4;"/>
   </g>
   <g id="patch_4">
    <path d="M 109.0919 151.27513 
L 343.4519 151.27513 
" style="fill:none;stroke:#000000;stroke-linecap:square;stroke-linejoin:miter;stroke-width:4;"/>
   </g>
  </g>
  <g id="axes_2">
   <g id="patch_5">
    <path d="M 109.0919 289.152 
L 343.4519 289.152 
L 343.4519 183.09287 
L 109.0919 183.09287 
z
" style="fill:#ffffff;"/>
   </g>
   <g id="line2d_13">
    <path clip-path="url(#p0aa8d1d627)" d="M 249.7079 289.152 
L 249.7079 183.09287 
" style="fill:none;stroke:#000000;stroke-dasharray:9,6;stroke-dashoffset:0;stroke-opacity:0.5;stroke-width:3;"/>
   </g>
   <g id="PolyCollection_3">
    <path clip-path="url(#p0aa8d1d627)" d="M 109.0919 233.607861 
L 109.0919 250.925754 
L 114.418264 251.007456 
L 119.744627 251.657512 
L 125.070991 251.867365 
L 130.397355 252.511499 
L 135.723718 251.70028 
L 141.050082 252.087431 
L 146.376445 251.686983 
L 151.702809 251.067598 
L 157.029173 250.187813 
L 162.355536 250.037148 
L 167.6819 249.41769 
L 173.008264 249.283584 
L 178.334627 249.134874 
L 183.660991 248.051927 
L 188.987355 249.002312 
L 194.313718 248.910473 
L 199.640082 249.645327 
L 204.966445 250.290535 
L 210.292809 250.293973 
L 215.619173 252.142494 
L 220.945536 251.984796 
L 226.2719 252.693848 
L 231.598264 252.093322 
L 236.924627 252.732614 
L 242.250991 253.010124 
L 247.577355 254.606524 
L 252.903718 254.551466 
L 258.230082 254.684131 
L 263.556445 253.11338 
L 268.882809 253.276014 
L 274.209173 254.259285 
L 279.535536 256.022645 
L 284.8619 254.50337 
L 290.188264 254.478232 
L 295.514627 252.659666 
L 300.840991 251.907879 
L 306.167355 250.958136 
L 311.493718 249.633482 
L 316.820082 248.782146 
L 322.146445 248.403604 
L 327.472809 246.512308 
L 332.799173 247.726451 
L 338.125536 248.329604 
L 343.4519 250.000371 
L 343.4519 232.677616 
L 343.4519 232.677616 
L 338.125536 231.002338 
L 332.799173 230.414018 
L 327.472809 229.21563 
L 322.146445 231.107169 
L 316.820082 231.512105 
L 311.493718 232.370708 
L 306.167355 233.697805 
L 300.840991 234.673355 
L 295.514627 235.431691 
L 290.188264 237.248119 
L 284.8619 237.274439 
L 279.535536 238.781936 
L 274.209173 237.006023 
L 268.882809 236.019714 
L 263.556445 235.856364 
L 258.230082 237.402167 
L 252.903718 237.270619 
L 247.577355 237.317906 
L 242.250991 235.725859 
L 236.924627 235.427807 
L 231.598264 234.789456 
L 226.2719 235.382936 
L 220.945536 234.689008 
L 215.619173 234.840461 
L 210.292809 233.012492 
L 204.966445 233.002476 
L 199.640082 232.379015 
L 194.313718 231.659065 
L 188.987355 231.754321 
L 183.660991 230.825616 
L 178.334627 231.899929 
L 173.008264 232.059076 
L 167.6819 232.195786 
L 162.355536 232.810877 
L 157.029173 232.965635 
L 151.702809 233.846217 
L 146.376445 234.470888 
L 141.050082 234.865352 
L 135.723718 234.462402 
L 130.397355 235.240243 
L 125.070991 234.599166 
L 119.744627 234.383924 
L 114.418264 233.721819 
L 109.0919 233.607861 
z
" style="fill:#969696;fill-opacity:0.5;"/>
   </g>
   <g id="PolyCollection_4">
    <path clip-path="url(#p0aa8d1d627)" d="M 109.0919 196.489462 
L 109.0919 258.629833 
L 114.418264 258.76631 
L 119.744627 257.31022 
L 125.070991 259.332971 
L 130.397355 262.684188 
L 135.723718 265.846378 
L 141.050082 264.03102 
L 146.376445 264.859125 
L 151.702809 264.586567 
L 157.029173 264.507593 
L 162.355536 260.470667 
L 167.6819 259.508332 
L 173.008264 259.552266 
L 178.334627 261.321887 
L 183.660991 258.69081 
L 188.987355 260.397321 
L 194.313718 261.073243 
L 199.640082 262.077889 
L 204.966445 261.541496 
L 210.292809 260.921905 
L 215.619173 259.591775 
L 220.945536 261.186626 
L 226.2719 259.037639 
L 231.598264 257.475897 
L 236.924627 259.150141 
L 242.250991 260.320283 
L 247.577355 260.877229 
L 252.903718 262.163001 
L 258.230082 264.839624 
L 263.556445 264.531168 
L 268.882809 264.594331 
L 274.209173 264.231768 
L 279.535536 268.093542 
L 284.8619 267.544412 
L 290.188264 263.869286 
L 295.514627 266.930019 
L 300.840991 266.250274 
L 306.167355 263.609466 
L 311.493718 262.70162 
L 316.820082 258.884736 
L 322.146445 259.777377 
L 327.472809 260.771296 
L 332.799173 259.358342 
L 338.125536 259.663906 
L 343.4519 259.110327 
L 343.4519 197.336571 
L 343.4519 197.336571 
L 338.125536 197.749828 
L 332.799173 197.60128 
L 327.472809 199.094315 
L 322.146445 197.831636 
L 316.820082 196.931761 
L 311.493718 200.689607 
L 306.167355 201.517003 
L 300.840991 204.068012 
L 295.514627 204.886513 
L 290.188264 201.904976 
L 284.8619 205.490076 
L 279.535536 206.038292 
L 274.209173 201.963833 
L 268.882809 202.357478 
L 263.556445 202.114247 
L 258.230082 202.248666 
L 252.903718 199.699954 
L 247.577355 198.433819 
L 242.250991 197.775179 
L 236.924627 196.636299 
L 231.598264 194.8171 
L 226.2719 196.507676 
L 220.945536 198.885881 
L 215.619173 197.431906 
L 210.292809 198.755856 
L 204.966445 199.414288 
L 199.640082 200.041166 
L 194.313718 198.956669 
L 188.987355 198.187695 
L 183.660991 196.575803 
L 178.334627 199.145139 
L 173.008264 197.348356 
L 167.6819 197.346955 
L 162.355536 198.473379 
L 157.029173 202.429068 
L 151.702809 202.432267 
L 146.376445 202.673181 
L 141.050082 201.960121 
L 135.723718 203.620064 
L 130.397355 200.336561 
L 125.070991 197.04934 
L 119.744627 194.995379 
L 114.418264 196.615714 
L 109.0919 196.489462 
z
" style="fill:#eb3920;fill-opacity:0.2;"/>
   </g>
   <g id="matplotlib.axis_3">
    <g id="xtick_7">
     <g id="line2d_14">
      <g>
       <use style="stroke:#000000;stroke-width:4;" x="109.0919" xlink:href="#mff5c6136f1" y="289.152"/>
      </g>
     </g>
    </g>
    <g id="xtick_8">
     <g id="line2d_15">
      <g>
       <use style="stroke:#000000;stroke-width:4;" x="155.9639" xlink:href="#mff5c6136f1" y="289.152"/>
      </g>
     </g>
     <g id="text_4">
      <!-- -0.6 -->
      <g transform="translate(141.07745 313.0207)scale(0.1728 -0.1728)">
       <defs>
        <path d="M 5.609375 19.09375 
L 5.609375 32.8125 
L 32.5625 32.8125 
L 32.5625 19.09375 
z
" id="Arial-BoldMT-45"/>
        <path d="M 7.171875 0 
L 7.171875 13.71875 
L 20.90625 13.71875 
L 20.90625 0 
z
" id="Arial-BoldMT-46"/>
        <path d="M 50.734375 54.046875 
L 37.453125 52.59375 
Q 36.96875 56.6875 34.90625 58.640625 
Q 32.859375 60.59375 29.59375 60.59375 
Q 25.25 60.59375 22.234375 56.6875 
Q 19.234375 52.78125 18.453125 40.4375 
Q 23.578125 46.484375 31.203125 46.484375 
Q 39.796875 46.484375 45.921875 39.9375 
Q 52.046875 33.40625 52.046875 23.046875 
Q 52.046875 12.0625 45.59375 5.421875 
Q 39.15625 -1.21875 29.046875 -1.21875 
Q 18.21875 -1.21875 11.234375 7.203125 
Q 4.25 15.625 4.25 34.8125 
Q 4.25 54.5 11.515625 63.1875 
Q 18.796875 71.875 30.421875 71.875 
Q 38.578125 71.875 43.921875 67.3125 
Q 49.265625 62.75 50.734375 54.046875 
z
M 19.625 24.125 
Q 19.625 17.4375 22.703125 13.796875 
Q 25.78125 10.15625 29.734375 10.15625 
Q 33.546875 10.15625 36.078125 13.125 
Q 38.625 16.109375 38.625 22.90625 
Q 38.625 29.890625 35.890625 33.125 
Q 33.15625 36.375 29.046875 36.375 
Q 25.09375 36.375 22.359375 33.265625 
Q 19.625 30.171875 19.625 24.125 
z
" id="Arial-BoldMT-54"/>
       </defs>
       <use xlink:href="#Arial-BoldMT-45"/>
       <use x="33.300781" xlink:href="#Arial-BoldMT-48"/>
       <use x="88.916016" xlink:href="#Arial-BoldMT-46"/>
       <use x="116.699219" xlink:href="#Arial-BoldMT-54"/>
      </g>
     </g>
    </g>
    <g id="xtick_9">
     <g id="line2d_16">
      <g>
       <use style="stroke:#000000;stroke-width:4;" x="202.8359" xlink:href="#mff5c6136f1" y="289.152"/>
      </g>
     </g>
    </g>
    <g id="xtick_10">
     <g id="line2d_17">
      <g>
       <use style="stroke:#000000;stroke-width:4;" x="249.7079" xlink:href="#mff5c6136f1" y="289.152"/>
      </g>
     </g>
     <g id="text_5">
      <!-- 0 -->
      <g transform="translate(244.90325 313.0207)scale(0.1728 -0.1728)">
       <use xlink:href="#Arial-BoldMT-48"/>
      </g>
     </g>
    </g>
    <g id="xtick_11">
     <g id="line2d_18">
      <g>
       <use style="stroke:#000000;stroke-width:4;" x="296.5799" xlink:href="#mff5c6136f1" y="289.152"/>
      </g>
     </g>
    </g>
    <g id="xtick_12">
     <g id="line2d_19">
      <g>
       <use style="stroke:#000000;stroke-width:4;" x="343.4519" xlink:href="#mff5c6136f1" y="289.152"/>
      </g>
     </g>
     <g id="text_6">
      <!-- 0.6 -->
      <g transform="translate(331.4423 313.0207)scale(0.1728 -0.1728)">
       <use xlink:href="#Arial-BoldMT-48"/>
       <use x="55.615234" xlink:href="#Arial-BoldMT-46"/>
       <use x="83.398438" xlink:href="#Arial-BoldMT-54"/>
      </g>
     </g>
    </g>
    <g id="text_7">
     <!-- Time (s) -->
     <g transform="translate(193.2995 333.0101)scale(0.1728 -0.1728)">
      <defs>
       <path d="M 23.390625 0 
L 23.390625 59.46875 
L 2.15625 59.46875 
L 2.15625 71.578125 
L 59.03125 71.578125 
L 59.03125 59.46875 
L 37.84375 59.46875 
L 37.84375 0 
z
" id="Arial-BoldMT-84"/>
       <path id="Arial-BoldMT-32"/>
      </defs>
      <use xlink:href="#Arial-BoldMT-84"/>
      <use x="59.333984" xlink:href="#Arial-BoldMT-105"/>
      <use x="87.117188" xlink:href="#Arial-BoldMT-109"/>
      <use x="176.033203" xlink:href="#Arial-BoldMT-101"/>
      <use x="231.648438" xlink:href="#Arial-BoldMT-32"/>
      <use x="259.431641" xlink:href="#Arial-BoldMT-40"/>
      <use x="292.732422" xlink:href="#Arial-BoldMT-115"/>
      <use x="348.347656" xlink:href="#Arial-BoldMT-41"/>
     </g>
    </g>
   </g>
   <g id="matplotlib.axis_4">
    <g id="ytick_4">
     <g id="line2d_20">
      <g>
       <use style="stroke:#000000;stroke-width:4;" x="109.0919" xlink:href="#mdc34751d98" y="289.152"/>
      </g>
     </g>
     <g id="text_8">
      <!-- 0.55 -->
      <g transform="translate(63.9634 295.33635)scale(0.1728 -0.1728)">
       <defs>
        <path d="M 4.4375 18.40625 
L 18.109375 19.828125 
Q 18.703125 15.1875 21.578125 12.46875 
Q 24.46875 9.765625 28.21875 9.765625 
Q 32.515625 9.765625 35.5 13.25 
Q 38.484375 16.75 38.484375 23.78125 
Q 38.484375 30.375 35.515625 33.671875 
Q 32.5625 36.96875 27.828125 36.96875 
Q 21.921875 36.96875 17.234375 31.734375 
L 6.109375 33.34375 
L 13.140625 70.609375 
L 49.421875 70.609375 
L 49.421875 57.765625 
L 23.53125 57.765625 
L 21.390625 45.609375 
Q 25.984375 47.90625 30.765625 47.90625 
Q 39.890625 47.90625 46.234375 41.265625 
Q 52.59375 34.625 52.59375 24.03125 
Q 52.59375 15.1875 47.46875 8.25 
Q 40.484375 -1.21875 28.078125 -1.21875 
Q 18.171875 -1.21875 11.921875 4.09375 
Q 5.671875 9.421875 4.4375 18.40625 
z
" id="Arial-BoldMT-53"/>
       </defs>
       <use xlink:href="#Arial-BoldMT-48"/>
       <use x="55.615234" xlink:href="#Arial-BoldMT-46"/>
       <use x="83.398438" xlink:href="#Arial-BoldMT-53"/>
       <use x="139.013672" xlink:href="#Arial-BoldMT-53"/>
      </g>
     </g>
    </g>
    <g id="ytick_5">
     <g id="line2d_21">
      <g>
       <use style="stroke:#000000;stroke-width:4;" x="109.0919" xlink:href="#mdc34751d98" y="255.44436"/>
      </g>
     </g>
    </g>
    <g id="ytick_6">
     <g id="line2d_22">
      <g>
       <use style="stroke:#000000;stroke-width:4;" x="109.0919" xlink:href="#mdc34751d98" y="221.736719"/>
      </g>
     </g>
     <g id="text_9">
      <!-- 0.56 -->
      <g transform="translate(63.9634 227.921069)scale(0.1728 -0.1728)">
       <use xlink:href="#Arial-BoldMT-48"/>
       <use x="55.615234" xlink:href="#Arial-BoldMT-46"/>
       <use x="83.398438" xlink:href="#Arial-BoldMT-53"/>
       <use x="139.013672" xlink:href="#Arial-BoldMT-54"/>
      </g>
     </g>
    </g>
    <g id="ytick_7">
     <g id="line2d_23">
      <g>
       <use style="stroke:#000000;stroke-width:4;" x="109.0919" xlink:href="#mdc34751d98" y="188.029079"/>
      </g>
     </g>
    </g>
    <g id="text_10">
     <!-- Pupil -->
     <g transform="translate(19.5687 257.240485)rotate(-90)scale(0.1728 -0.1728)">
      <defs>
       <path d="M 7.28125 0 
L 7.28125 71.578125 
L 30.46875 71.578125 
Q 43.65625 71.578125 47.65625 70.515625 
Q 53.8125 68.890625 57.953125 63.5 
Q 62.109375 58.109375 62.109375 49.5625 
Q 62.109375 42.96875 59.71875 38.46875 
Q 57.328125 33.984375 53.640625 31.421875 
Q 49.953125 28.859375 46.140625 28.03125 
Q 40.96875 27 31.15625 27 
L 21.734375 27 
L 21.734375 0 
z
M 21.734375 59.46875 
L 21.734375 39.15625 
L 29.640625 39.15625 
Q 38.1875 39.15625 41.0625 40.28125 
Q 43.953125 41.40625 45.578125 43.796875 
Q 47.21875 46.1875 47.21875 49.359375 
Q 47.21875 53.265625 44.921875 55.796875 
Q 42.625 58.34375 39.109375 58.984375 
Q 36.53125 59.46875 28.71875 59.46875 
z
" id="Arial-BoldMT-80"/>
       <path d="M 6.78125 51.859375 
L 19.578125 51.859375 
L 19.578125 44.234375 
Q 22.078125 48.140625 26.3125 50.578125 
Q 30.5625 53.03125 35.75 53.03125 
Q 44.78125 53.03125 51.078125 45.953125 
Q 57.375 38.875 57.375 26.21875 
Q 57.375 13.234375 51.015625 6.03125 
Q 44.671875 -1.171875 35.640625 -1.171875 
Q 31.34375 -1.171875 27.84375 0.53125 
Q 24.359375 2.25 20.515625 6.390625 
L 20.515625 -19.734375 
L 6.78125 -19.734375 
z
M 20.359375 26.8125 
Q 20.359375 18.0625 23.828125 13.890625 
Q 27.296875 9.71875 32.28125 9.71875 
Q 37.0625 9.71875 40.234375 13.546875 
Q 43.40625 17.390625 43.40625 26.125 
Q 43.40625 34.28125 40.125 38.234375 
Q 36.859375 42.1875 32.03125 42.1875 
Q 27 42.1875 23.671875 38.296875 
Q 20.359375 34.421875 20.359375 26.8125 
z
" id="Arial-BoldMT-112"/>
      </defs>
      <use xlink:href="#Arial-BoldMT-80"/>
      <use x="66.699219" xlink:href="#Arial-BoldMT-117"/>
      <use x="127.783203" xlink:href="#Arial-BoldMT-112"/>
      <use x="188.867188" xlink:href="#Arial-BoldMT-105"/>
      <use x="216.650391" xlink:href="#Arial-BoldMT-108"/>
     </g>
     <!-- diameter -->
     <g transform="translate(37.82124 272.136385)rotate(-90)scale(0.1728 -0.1728)">
      <defs>
       <path d="M 54.734375 0 
L 42 0 
L 42 7.625 
Q 38.8125 3.171875 34.484375 1 
Q 30.171875 -1.171875 25.78125 -1.171875 
Q 16.84375 -1.171875 10.46875 6.03125 
Q 4.109375 13.234375 4.109375 26.125 
Q 4.109375 39.3125 10.296875 46.171875 
Q 16.5 53.03125 25.984375 53.03125 
Q 34.671875 53.03125 41.015625 45.796875 
L 41.015625 71.578125 
L 54.734375 71.578125 
z
M 18.109375 27.046875 
Q 18.109375 18.75 20.40625 15.046875 
Q 23.734375 9.671875 29.6875 9.671875 
Q 34.421875 9.671875 37.734375 13.6875 
Q 41.0625 17.71875 41.0625 25.734375 
Q 41.0625 34.671875 37.84375 38.59375 
Q 34.625 42.53125 29.59375 42.53125 
Q 24.703125 42.53125 21.40625 38.640625 
Q 18.109375 34.765625 18.109375 27.046875 
z
" id="Arial-BoldMT-100"/>
       <path d="M 17.4375 36.03125 
L 4.984375 38.28125 
Q 7.078125 45.796875 12.203125 49.40625 
Q 17.328125 53.03125 27.4375 53.03125 
Q 36.625 53.03125 41.109375 50.859375 
Q 45.609375 48.6875 47.4375 45.34375 
Q 49.265625 42 49.265625 33.0625 
L 49.125 17.046875 
Q 49.125 10.203125 49.78125 6.953125 
Q 50.4375 3.71875 52.25 0 
L 38.671875 0 
Q 38.140625 1.375 37.359375 4.046875 
Q 37.015625 5.28125 36.859375 5.671875 
Q 33.34375 2.25 29.34375 0.53125 
Q 25.34375 -1.171875 20.796875 -1.171875 
Q 12.796875 -1.171875 8.171875 3.171875 
Q 3.5625 7.515625 3.5625 14.15625 
Q 3.5625 18.5625 5.65625 22 
Q 7.765625 25.4375 11.546875 27.265625 
Q 15.328125 29.109375 22.46875 30.46875 
Q 32.078125 32.28125 35.796875 33.84375 
L 35.796875 35.203125 
Q 35.796875 39.15625 33.84375 40.84375 
Q 31.890625 42.53125 26.46875 42.53125 
Q 22.796875 42.53125 20.75 41.09375 
Q 18.703125 39.65625 17.4375 36.03125 
z
M 35.796875 24.90625 
Q 33.15625 24.03125 27.4375 22.796875 
Q 21.734375 21.578125 19.96875 20.40625 
Q 17.28125 18.5 17.28125 15.578125 
Q 17.28125 12.703125 19.421875 10.59375 
Q 21.578125 8.5 24.90625 8.5 
Q 28.609375 8.5 31.984375 10.9375 
Q 34.46875 12.796875 35.25 15.484375 
Q 35.796875 17.234375 35.796875 22.171875 
z
" id="Arial-BoldMT-97"/>
       <path d="M 20.3125 0 
L 6.59375 0 
L 6.59375 51.859375 
L 19.34375 51.859375 
L 19.34375 44.484375 
Q 22.609375 49.703125 25.21875 51.359375 
Q 27.828125 53.03125 31.15625 53.03125 
Q 35.84375 53.03125 40.1875 50.4375 
L 35.9375 38.484375 
Q 32.46875 40.71875 29.5 40.71875 
Q 26.609375 40.71875 24.609375 39.125 
Q 22.609375 37.546875 21.453125 33.390625 
Q 20.3125 29.25 20.3125 16.015625 
z
" id="Arial-BoldMT-114"/>
      </defs>
      <use xlink:href="#Arial-BoldMT-100"/>
      <use x="61.083984" xlink:href="#Arial-BoldMT-105"/>
      <use x="88.867188" xlink:href="#Arial-BoldMT-97"/>
      <use x="144.482422" xlink:href="#Arial-BoldMT-109"/>
      <use x="233.398438" xlink:href="#Arial-BoldMT-101"/>
      <use x="289.013672" xlink:href="#Arial-BoldMT-116"/>
      <use x="322.314453" xlink:href="#Arial-BoldMT-101"/>
      <use x="377.929688" xlink:href="#Arial-BoldMT-114"/>
     </g>
     <!-- (mm) -->
     <g transform="translate(56.3265 257.241835)rotate(-90)scale(0.1728 -0.1728)">
      <use xlink:href="#Arial-BoldMT-40"/>
      <use x="33.300781" xlink:href="#Arial-BoldMT-109"/>
      <use x="122.216797" xlink:href="#Arial-BoldMT-109"/>
      <use x="211.132812" xlink:href="#Arial-BoldMT-41"/>
     </g>
    </g>
   </g>
   <g id="line2d_24">
    <path clip-path="url(#p0aa8d1d627)" d="M 109.0919 242.266808 
L 114.418264 242.364637 
L 119.744627 243.020718 
L 125.070991 243.233266 
L 130.397355 243.875871 
L 135.723718 243.081341 
L 141.050082 243.476391 
L 146.376445 243.078935 
L 151.702809 242.456908 
L 157.029173 241.576724 
L 162.355536 241.424013 
L 167.6819 240.806738 
L 173.008264 240.67133 
L 178.334627 240.517401 
L 183.660991 239.438771 
L 188.987355 240.378316 
L 194.313718 240.284769 
L 199.640082 241.012171 
L 204.966445 241.646506 
L 210.292809 241.653232 
L 215.619173 243.491477 
L 220.945536 243.336902 
L 226.2719 244.038392 
L 231.598264 243.441389 
L 236.924627 244.08021 
L 242.250991 244.367991 
L 247.577355 245.962215 
L 252.903718 245.911042 
L 258.230082 246.043149 
L 263.556445 244.484872 
L 268.882809 244.647864 
L 274.209173 245.632654 
L 279.535536 247.40229 
L 284.8619 245.888905 
L 290.188264 245.863175 
L 295.514627 244.045678 
L 300.840991 243.290617 
L 306.167355 242.327971 
L 311.493718 241.002095 
L 316.820082 240.147126 
L 322.146445 239.755386 
L 327.472809 237.863969 
L 332.799173 239.070235 
L 338.125536 239.665971 
L 343.4519 241.338994 
" style="fill:none;stroke:#969696;stroke-linecap:square;stroke-opacity:0.8;stroke-width:5;"/>
   </g>
   <g id="line2d_25">
    <path clip-path="url(#p0aa8d1d627)" d="M 109.0919 227.559648 
L 114.418264 227.691012 
L 119.744627 226.152799 
L 125.070991 228.191155 
L 130.397355 231.510375 
L 135.723718 234.733221 
L 141.050082 232.99557 
L 146.376445 233.766153 
L 151.702809 233.509417 
L 157.029173 233.46833 
L 162.355536 229.472023 
L 167.6819 228.427643 
L 173.008264 228.450311 
L 178.334627 230.233513 
L 183.660991 227.633307 
L 188.987355 229.292508 
L 194.313718 230.014956 
L 199.640082 231.059528 
L 204.966445 230.477892 
L 210.292809 229.838881 
L 215.619173 228.51184 
L 220.945536 230.036253 
L 226.2719 227.772657 
L 231.598264 226.146499 
L 236.924627 227.89322 
L 242.250991 229.047731 
L 247.577355 229.655524 
L 252.903718 230.931477 
L 258.230082 233.544145 
L 263.556445 233.322707 
L 268.882809 233.475905 
L 274.209173 233.0978 
L 279.535536 237.065917 
L 284.8619 236.517244 
L 290.188264 232.887131 
L 295.514627 235.908266 
L 300.840991 235.159143 
L 306.167355 232.563235 
L 311.493718 231.695613 
L 316.820082 227.908248 
L 322.146445 228.804506 
L 327.472809 229.932806 
L 332.799173 228.479811 
L 338.125536 228.706867 
L 343.4519 228.223449 
" style="fill:none;stroke:#eb3920;stroke-linecap:square;stroke-opacity:0.75;stroke-width:5;"/>
   </g>
   <g id="patch_6">
    <path d="M 109.0919 289.152 
L 109.0919 183.09287 
" style="fill:none;stroke:#000000;stroke-linecap:square;stroke-linejoin:miter;stroke-width:4;"/>
   </g>
   <g id="patch_7">
    <path d="M 109.0919 289.152 
L 343.4519 289.152 
" style="fill:none;stroke:#000000;stroke-linecap:square;stroke-linejoin:miter;stroke-width:4;"/>
   </g>
  </g>
  <g id="text_11">
   <!-- Running and pupil responses -->
   <g transform="translate(101.0567 19.5687)scale(0.1728 -0.1728)">
    <use xlink:href="#Arial-BoldMT-82"/>
    <use x="72.216797" xlink:href="#Arial-BoldMT-117"/>
    <use x="133.300781" xlink:href="#Arial-BoldMT-110"/>
    <use x="194.384766" xlink:href="#Arial-BoldMT-110"/>
    <use x="255.46875" xlink:href="#Arial-BoldMT-105"/>
    <use x="283.251953" xlink:href="#Arial-BoldMT-110"/>
    <use x="344.335938" xlink:href="#Arial-BoldMT-103"/>
    <use x="405.419922" xlink:href="#Arial-BoldMT-32"/>
    <use x="433.203125" xlink:href="#Arial-BoldMT-97"/>
    <use x="488.818359" xlink:href="#Arial-BoldMT-110"/>
    <use x="549.902344" xlink:href="#Arial-BoldMT-100"/>
    <use x="610.986328" xlink:href="#Arial-BoldMT-32"/>
    <use x="638.769531" xlink:href="#Arial-BoldMT-112"/>
    <use x="699.853516" xlink:href="#Arial-BoldMT-117"/>
    <use x="760.9375" xlink:href="#Arial-BoldMT-112"/>
    <use x="822.021484" xlink:href="#Arial-BoldMT-105"/>
    <use x="849.804688" xlink:href="#Arial-BoldMT-108"/>
    <use x="877.587891" xlink:href="#Arial-BoldMT-32"/>
    <use x="905.371094" xlink:href="#Arial-BoldMT-114"/>
    <use x="944.287109" xlink:href="#Arial-BoldMT-101"/>
    <use x="999.902344" xlink:href="#Arial-BoldMT-115"/>
    <use x="1055.517578" xlink:href="#Arial-BoldMT-112"/>
    <use x="1116.601562" xlink:href="#Arial-BoldMT-111"/>
    <use x="1177.685547" xlink:href="#Arial-BoldMT-110"/>
    <use x="1238.769531" xlink:href="#Arial-BoldMT-115"/>
    <use x="1294.384766" xlink:href="#Arial-BoldMT-101"/>
    <use x="1350" xlink:href="#Arial-BoldMT-115"/>
   </g>
  </g>
 </g>
 <defs>
  <clipPath id="p88c216155e">
   <rect height="106.05913" width="234.36" x="109.0919" y="45.216"/>
  </clipPath>
  <clipPath id="p0aa8d1d627">
   <rect height="106.05913" width="234.36" x="109.0919" y="183.09287"/>
  </clipPath>
 </defs>
</svg>
