<?xml version="1.0" encoding="utf-8" standalone="no"?>
<!DOCTYPE svg PUBLIC "-//W3C//DTD SVG 1.1//EN"
  "http://www.w3.org/Graphics/SVG/1.1/DTD/svg11.dtd">
<!-- Created with matplotlib (https://matplotlib.org/) -->
<svg height="343.847pt" version="1.1" viewBox="0 0 362.6615 343.847" width="362.6615pt" xmlns="http://www.w3.org/2000/svg" xmlns:xlink="http://www.w3.org/1999/xlink">
 <metadata>
  <rdf:RDF xmlns:cc="http://creativecommons.org/ns#" xmlns:dc="http://purl.org/dc/elements/1.1/" xmlns:rdf="http://www.w3.org/1999/02/22-rdf-syntax-ns#">
   <cc:Work>
    <dc:type rdf:resource="http://purl.org/dc/dcmitype/StillImage"/>
    <dc:date>2022-01-11T13:06:13.589765</dc:date>
    <dc:format>image/svg+xml</dc:format>
    <dc:creator>
     <cc:Agent>
      <dc:title>Matplotlib v3.3.4, https://matplotlib.org/</dc:title>
     </cc:Agent>
    </dc:creator>
   </cc:Work>
  </rdf:RDF>
 </metadata>
 <defs>
  <style type="text/css">*{stroke-linecap:butt;stroke-linejoin:round;}</style>
 </defs>
 <g id="figure_1">
  <g id="patch_1">
   <path d="M 0 343.847 
L 362.6615 343.847 
L 362.6615 0 
L 0 0 
z
" style="fill:#ffffff;"/>
  </g>
  <g id="axes_1">
   <g id="patch_2">
    <path d="M 109.0919 151.27513 
L 343.4519 151.27513 
L 343.4519 45.216 
L 109.0919 45.216 
z
" style="fill:#ffffff;"/>
   </g>
   <g id="line2d_1">
    <path clip-path="url(#p5b3452e3ed)" d="M 249.7079 151.27513 
L 249.7079 45.216 
" style="fill:none;stroke:#000000;stroke-dasharray:9,6;stroke-dashoffset:0;stroke-opacity:0.5;stroke-width:3;"/>
   </g>
   <g id="PolyCollection_1">
    <path clip-path="url(#p5b3452e3ed)" d="M 109.0919 93.86132 
L 109.0919 106.177289 
L 111.725158 106.253602 
L 114.358417 104.879113 
L 116.991675 106.317499 
L 119.624934 105.9437 
L 122.258192 106.23561 
L 124.891451 106.002381 
L 127.524709 106.191476 
L 130.157967 105.670239 
L 132.791226 106.064692 
L 135.424484 106.323664 
L 138.057743 105.991144 
L 140.691001 105.678011 
L 143.32426 106.081803 
L 145.957518 106.568734 
L 148.590776 107.721296 
L 151.224035 106.763439 
L 153.857293 107.561474 
L 156.490552 107.076603 
L 159.12381 107.391641 
L 161.757069 106.775464 
L 164.390327 107.843112 
L 167.023585 107.472982 
L 169.656844 107.98135 
L 172.290102 108.324058 
L 174.923361 108.639662 
L 177.556619 109.236089 
L 180.189878 109.312956 
L 182.823136 109.475654 
L 185.456394 109.496496 
L 188.089653 109.533204 
L 190.722911 109.965956 
L 193.35617 109.68753 
L 195.989428 111.134776 
L 198.622687 110.575056 
L 201.255945 111.170087 
L 203.889203 110.157525 
L 206.522462 110.243591 
L 209.15572 109.06973 
L 211.788979 109.751296 
L 214.422237 109.797968 
L 217.055496 110.092822 
L 219.688754 110.399223 
L 222.322012 109.952079 
L 224.955271 110.537295 
L 227.588529 110.459249 
L 230.221788 110.497304 
L 232.855046 110.457055 
L 235.488304 110.392912 
L 238.121563 110.629688 
L 240.754821 110.54546 
L 243.38808 111.445955 
L 246.021338 110.201795 
L 248.654597 111.093837 
L 251.287855 110.206578 
L 253.921113 109.85356 
L 256.554372 108.856386 
L 259.18763 110.383339 
L 261.820889 109.909718 
L 264.454147 109.877164 
L 267.087406 109.695342 
L 269.720664 109.414497 
L 272.353922 108.427784 
L 274.987181 109.207052 
L 277.620439 109.585019 
L 280.253698 109.576421 
L 282.886956 109.537692 
L 285.520215 109.221564 
L 288.153473 109.519571 
L 290.786731 109.493074 
L 293.41999 109.376542 
L 296.053248 109.104094 
L 298.686507 108.877852 
L 301.319765 108.998177 
L 303.953024 108.819001 
L 306.586282 108.856312 
L 309.21954 108.689501 
L 311.852799 107.767665 
L 314.486057 108.04483 
L 317.119316 107.982552 
L 319.752574 107.42549 
L 322.385833 107.325696 
L 325.019091 106.803217 
L 327.652349 106.805473 
L 330.285608 106.507087 
L 332.918866 106.825134 
L 335.552125 107.114476 
L 338.185383 107.828212 
L 340.818642 106.754792 
L 343.4519 107.219177 
L 343.4519 94.920647 
L 343.4519 94.920647 
L 340.818642 94.442823 
L 338.185383 95.554747 
L 335.552125 94.811014 
L 332.918866 94.519518 
L 330.285608 94.199115 
L 327.652349 94.499483 
L 325.019091 94.501741 
L 322.385833 95.027884 
L 319.752574 95.13799 
L 317.119316 95.695855 
L 314.486057 95.769439 
L 311.852799 95.496773 
L 309.21954 96.434392 
L 306.586282 96.591309 
L 303.953024 96.566222 
L 301.319765 96.742127 
L 298.686507 96.6135 
L 296.053248 96.851875 
L 293.41999 97.124862 
L 290.786731 97.2481 
L 288.153473 97.280333 
L 285.520215 96.986917 
L 282.886956 97.301356 
L 280.253698 97.338445 
L 277.620439 97.35061 
L 274.987181 96.967166 
L 272.353922 96.165175 
L 269.720664 97.160324 
L 267.087406 97.451542 
L 264.454147 97.628329 
L 261.820889 97.665768 
L 259.18763 98.16814 
L 256.554372 96.584513 
L 253.921113 97.623056 
L 251.287855 97.992562 
L 248.654597 98.899969 
L 246.021338 97.986426 
L 243.38808 99.284742 
L 240.754821 98.344484 
L 238.121563 98.433956 
L 235.488304 98.196766 
L 232.855046 98.276372 
L 230.221788 98.306531 
L 227.588529 98.26894 
L 224.955271 98.336966 
L 222.322012 97.749336 
L 219.688754 98.19338 
L 217.055496 97.890026 
L 214.422237 97.597301 
L 211.788979 97.557896 
L 209.15572 96.826598 
L 206.522462 98.043906 
L 203.889203 97.958446 
L 201.255945 98.979946 
L 198.622687 98.377326 
L 195.989428 98.971553 
L 193.35617 97.471039 
L 190.722911 97.756517 
L 188.089653 97.315511 
L 185.456394 97.280854 
L 182.823136 97.252651 
L 180.189878 97.101553 
L 177.556619 97.015715 
L 174.923361 96.411837 
L 172.290102 96.094127 
L 169.656844 95.760749 
L 167.023585 95.235056 
L 164.390327 95.615261 
L 161.757069 94.507198 
L 159.12381 95.158828 
L 156.490552 94.842041 
L 153.857293 95.343674 
L 151.224035 94.522766 
L 148.590776 95.511883 
L 145.957518 94.32271 
L 143.32426 93.827662 
L 140.691001 93.411126 
L 138.057743 93.722893 
L 135.424484 94.047898 
L 132.791226 93.78721 
L 130.157967 93.385794 
L 127.524709 93.909724 
L 124.891451 93.714485 
L 122.258192 93.951074 
L 119.624934 93.64624 
L 116.991675 94.014915 
L 114.358417 92.536877 
L 111.725158 93.948091 
L 109.0919 93.86132 
z
" style="fill:#969696;fill-opacity:0.5;"/>
   </g>
   <g id="PolyCollection_2">
    <path clip-path="url(#p5b3452e3ed)" d="M 109.0919 76.155187 
L 109.0919 120.674874 
L 111.725158 120.040648 
L 114.358417 119.664098 
L 116.991675 120.823979 
L 119.624934 122.456745 
L 122.258192 124.867056 
L 124.891451 123.329026 
L 127.524709 126.579084 
L 130.157967 125.328197 
L 132.791226 127.776824 
L 135.424484 127.866759 
L 138.057743 129.718347 
L 140.691001 129.35627 
L 143.32426 128.881295 
L 145.957518 129.785007 
L 148.590776 130.848203 
L 151.224035 129.984652 
L 153.857293 130.907708 
L 156.490552 130.698767 
L 159.12381 131.285045 
L 161.757069 131.050135 
L 164.390327 132.952427 
L 167.023585 131.835311 
L 169.656844 133.316031 
L 172.290102 132.70604 
L 174.923361 130.982477 
L 177.556619 131.613069 
L 180.189878 131.382657 
L 182.823136 129.752619 
L 185.456394 130.413827 
L 188.089653 129.680886 
L 190.722911 129.215647 
L 193.35617 131.090095 
L 195.989428 132.48946 
L 198.622687 131.477925 
L 201.255945 130.05274 
L 203.889203 130.355924 
L 206.522462 130.177444 
L 209.15572 128.618803 
L 211.788979 129.046951 
L 214.422237 128.017343 
L 217.055496 128.348616 
L 219.688754 129.368549 
L 222.322012 129.069085 
L 224.955271 129.770164 
L 227.588529 129.705534 
L 230.221788 129.028227 
L 232.855046 128.227208 
L 235.488304 129.089931 
L 238.121563 126.70359 
L 240.754821 127.455017 
L 243.38808 128.254144 
L 246.021338 125.846878 
L 248.654597 125.946698 
L 251.287855 123.636427 
L 253.921113 124.070224 
L 256.554372 120.013552 
L 259.18763 121.954423 
L 261.820889 121.660479 
L 264.454147 122.922431 
L 267.087406 122.40317 
L 269.720664 122.728347 
L 272.353922 122.413762 
L 274.987181 121.922667 
L 277.620439 121.970947 
L 280.253698 123.192835 
L 282.886956 121.6249 
L 285.520215 121.494908 
L 288.153473 122.968752 
L 290.786731 120.560282 
L 293.41999 121.336118 
L 296.053248 123.043568 
L 298.686507 121.843833 
L 301.319765 119.69541 
L 303.953024 121.479672 
L 306.586282 121.368921 
L 309.21954 120.324311 
L 311.852799 120.374257 
L 314.486057 123.203688 
L 317.119316 120.96447 
L 319.752574 121.381143 
L 322.385833 120.368856 
L 325.019091 120.221703 
L 327.652349 119.561704 
L 330.285608 118.124368 
L 332.918866 119.059584 
L 335.552125 118.914144 
L 338.185383 119.619469 
L 340.818642 117.948566 
L 343.4519 119.278429 
L 343.4519 74.674155 
L 343.4519 74.674155 
L 340.818642 73.24001 
L 338.185383 75.057694 
L 335.552125 74.284856 
L 332.918866 74.494243 
L 330.285608 73.557192 
L 327.652349 75.070395 
L 325.019091 75.796813 
L 322.385833 75.972796 
L 319.752574 77.163782 
L 317.119316 76.68483 
L 314.486057 78.982597 
L 311.852799 76.088005 
L 309.21954 76.051944 
L 306.586282 76.998351 
L 303.953024 77.240041 
L 301.319765 75.375613 
L 298.686507 77.53401 
L 296.053248 78.747786 
L 293.41999 76.896458 
L 290.786731 76.124089 
L 288.153473 78.637382 
L 285.520215 77.117173 
L 282.886956 77.330211 
L 280.253698 78.890489 
L 277.620439 77.528372 
L 274.987181 77.51525 
L 272.353922 77.944261 
L 269.720664 78.345858 
L 267.087406 78.111577 
L 264.454147 78.69674 
L 261.820889 77.359457 
L 259.18763 77.766865 
L 256.554372 75.56233 
L 253.921113 79.873479 
L 251.287855 79.263305 
L 248.654597 81.667037 
L 246.021338 81.498597 
L 243.38808 84.207617 
L 240.754821 83.307479 
L 238.121563 82.636579 
L 235.488304 84.887625 
L 232.855046 84.048452 
L 230.221788 84.867066 
L 227.588529 85.582323 
L 224.955271 85.5345 
L 222.322012 84.852126 
L 219.688754 85.136292 
L 217.055496 83.987113 
L 214.422237 83.630585 
L 211.788979 84.728264 
L 209.15572 84.213421 
L 206.522462 85.932353 
L 203.889203 86.15278 
L 201.255945 85.809005 
L 198.622687 87.120711 
L 195.989428 88.377443 
L 193.35617 86.747142 
L 190.722911 84.831447 
L 188.089653 85.228082 
L 185.456394 86.039274 
L 182.823136 85.271781 
L 180.189878 87.126495 
L 177.556619 87.210547 
L 174.923361 86.714116 
L 172.290102 88.429214 
L 169.656844 89.021176 
L 167.023585 87.490489 
L 164.390327 88.601696 
L 161.757069 86.460312 
L 159.12381 87.001577 
L 156.490552 86.429588 
L 153.857293 86.534337 
L 151.224035 85.716867 
L 148.590776 86.741778 
L 145.957518 85.612156 
L 143.32426 84.647841 
L 140.691001 85.145126 
L 138.057743 85.373048 
L 135.424484 83.472454 
L 132.791226 83.372282 
L 130.157967 80.884579 
L 127.524709 82.176974 
L 124.891451 78.930232 
L 122.258192 80.378281 
L 119.624934 77.975888 
L 116.991675 76.297955 
L 114.358417 74.989231 
L 111.725158 75.444695 
L 109.0919 76.155187 
z
" style="fill:#eb3920;fill-opacity:0.2;"/>
   </g>
   <g id="matplotlib.axis_1">
    <g id="xtick_1">
     <g id="line2d_2">
      <defs>
       <path d="M 0 0 
L 0 8 
" id="m431300e601" style="stroke:#000000;stroke-width:4;"/>
      </defs>
      <g>
       <use style="stroke:#000000;stroke-width:4;" x="109.0919" xlink:href="#m431300e601" y="151.27513"/>
      </g>
     </g>
    </g>
    <g id="xtick_2">
     <g id="line2d_3">
      <g>
       <use style="stroke:#000000;stroke-width:4;" x="155.9639" xlink:href="#m431300e601" y="151.27513"/>
      </g>
     </g>
    </g>
    <g id="xtick_3">
     <g id="line2d_4">
      <g>
       <use style="stroke:#000000;stroke-width:4;" x="202.8359" xlink:href="#m431300e601" y="151.27513"/>
      </g>
     </g>
    </g>
    <g id="xtick_4">
     <g id="line2d_5">
      <g>
       <use style="stroke:#000000;stroke-width:4;" x="249.7079" xlink:href="#m431300e601" y="151.27513"/>
      </g>
     </g>
    </g>
    <g id="xtick_5">
     <g id="line2d_6">
      <g>
       <use style="stroke:#000000;stroke-width:4;" x="296.5799" xlink:href="#m431300e601" y="151.27513"/>
      </g>
     </g>
    </g>
    <g id="xtick_6">
     <g id="line2d_7">
      <g>
       <use style="stroke:#000000;stroke-width:4;" x="343.4519" xlink:href="#m431300e601" y="151.27513"/>
      </g>
     </g>
    </g>
   </g>
   <g id="matplotlib.axis_2">
    <g id="ytick_1">
     <g id="line2d_8">
      <defs>
       <path d="M 0 0 
L -8 0 
" id="m39f37e616c" style="stroke:#000000;stroke-width:4;"/>
      </defs>
      <g>
       <use style="stroke:#000000;stroke-width:4;" x="109.0919" xlink:href="#m39f37e616c" y="151.27513"/>
      </g>
     </g>
     <g id="text_1">
      <!-- 8 -->
      <g transform="translate(87.9826 157.45948)scale(0.1728 -0.1728)">
       <defs>
        <path d="M 16.015625 38.625 
Q 10.6875 40.875 8.265625 44.796875 
Q 5.859375 48.734375 5.859375 53.421875 
Q 5.859375 61.421875 11.453125 66.640625 
Q 17.046875 71.875 27.34375 71.875 
Q 37.546875 71.875 43.1875 66.640625 
Q 48.828125 61.421875 48.828125 53.421875 
Q 48.828125 48.4375 46.234375 44.546875 
Q 43.65625 40.671875 38.96875 38.625 
Q 44.921875 36.234375 48.015625 31.640625 
Q 51.125 27.046875 51.125 21.046875 
Q 51.125 11.140625 44.796875 4.9375 
Q 38.484375 -1.265625 27.984375 -1.265625 
Q 18.21875 -1.265625 11.71875 3.859375 
Q 4.046875 9.90625 4.046875 20.453125 
Q 4.046875 26.265625 6.921875 31.125 
Q 9.8125 35.984375 16.015625 38.625 
z
M 18.84375 52.4375 
Q 18.84375 48.34375 21.15625 46.046875 
Q 23.484375 43.75 27.34375 43.75 
Q 31.25 43.75 33.59375 46.0625 
Q 35.9375 48.390625 35.9375 52.484375 
Q 35.9375 56.34375 33.609375 58.65625 
Q 31.296875 60.984375 27.484375 60.984375 
Q 23.53125 60.984375 21.1875 58.640625 
Q 18.84375 56.296875 18.84375 52.4375 
z
M 17.578125 21.78125 
Q 17.578125 16.109375 20.484375 12.9375 
Q 23.390625 9.765625 27.734375 9.765625 
Q 31.984375 9.765625 34.765625 12.8125 
Q 37.546875 15.875 37.546875 21.625 
Q 37.546875 26.65625 34.71875 29.703125 
Q 31.890625 32.765625 27.546875 32.765625 
Q 22.515625 32.765625 20.046875 29.296875 
Q 17.578125 25.828125 17.578125 21.78125 
z
" id="Arial-BoldMT-56"/>
       </defs>
       <use xlink:href="#Arial-BoldMT-56"/>
      </g>
     </g>
    </g>
    <g id="ytick_2">
     <g id="line2d_9">
      <g>
       <use style="stroke:#000000;stroke-width:4;" x="109.0919" xlink:href="#m39f37e616c" y="98.245565"/>
      </g>
     </g>
    </g>
    <g id="ytick_3">
     <g id="line2d_10">
      <g>
       <use style="stroke:#000000;stroke-width:4;" x="109.0919" xlink:href="#m39f37e616c" y="45.216"/>
      </g>
     </g>
     <g id="text_2">
      <!-- 10 -->
      <g transform="translate(78.3733 51.40035)scale(0.1728 -0.1728)">
       <defs>
        <path d="M 39.359375 0 
L 25.640625 0 
L 25.640625 51.703125 
Q 18.109375 44.671875 7.90625 41.3125 
L 7.90625 53.765625 
Q 13.28125 55.515625 19.578125 60.421875 
Q 25.875 65.328125 28.21875 71.875 
L 39.359375 71.875 
z
" id="Arial-BoldMT-49"/>
        <path d="M 27.4375 71.875 
Q 37.84375 71.875 43.703125 64.453125 
Q 50.6875 55.671875 50.6875 35.296875 
Q 50.6875 14.984375 43.65625 6.109375 
Q 37.84375 -1.21875 27.4375 -1.21875 
Q 17 -1.21875 10.59375 6.8125 
Q 4.203125 14.84375 4.203125 35.453125 
Q 4.203125 55.671875 11.234375 64.546875 
Q 17.046875 71.875 27.4375 71.875 
z
M 27.4375 60.5 
Q 24.953125 60.5 23 58.90625 
Q 21.046875 57.328125 19.96875 53.21875 
Q 18.5625 47.90625 18.5625 35.296875 
Q 18.5625 22.703125 19.828125 17.984375 
Q 21.09375 13.28125 23.015625 11.71875 
Q 24.953125 10.15625 27.4375 10.15625 
Q 29.9375 10.15625 31.890625 11.734375 
Q 33.84375 13.328125 34.90625 17.4375 
Q 36.328125 22.703125 36.328125 35.296875 
Q 36.328125 47.90625 35.0625 52.609375 
Q 33.796875 57.328125 31.859375 58.90625 
Q 29.9375 60.5 27.4375 60.5 
z
" id="Arial-BoldMT-48"/>
       </defs>
       <use xlink:href="#Arial-BoldMT-49"/>
       <use x="55.615234" xlink:href="#Arial-BoldMT-48"/>
      </g>
     </g>
    </g>
    <g id="text_3">
     <!-- Running -->
     <g transform="translate(33.525 133.271315)rotate(-90)scale(0.1728 -0.1728)">
      <defs>
       <path d="M 7.328125 0 
L 7.328125 71.578125 
L 37.75 71.578125 
Q 49.21875 71.578125 54.421875 69.640625 
Q 59.625 67.71875 62.75 62.78125 
Q 65.875 57.859375 65.875 51.515625 
Q 65.875 43.453125 61.125 38.203125 
Q 56.390625 32.953125 46.96875 31.59375 
Q 51.65625 28.859375 54.703125 25.578125 
Q 57.765625 22.3125 62.9375 13.96875 
L 71.6875 0 
L 54.390625 0 
L 43.953125 15.578125 
Q 38.375 23.921875 36.328125 26.09375 
Q 34.28125 28.265625 31.984375 29.078125 
Q 29.6875 29.890625 24.703125 29.890625 
L 21.78125 29.890625 
L 21.78125 0 
z
M 21.78125 41.3125 
L 32.46875 41.3125 
Q 42.875 41.3125 45.453125 42.1875 
Q 48.046875 43.0625 49.515625 45.203125 
Q 50.984375 47.359375 50.984375 50.59375 
Q 50.984375 54.203125 49.046875 56.421875 
Q 47.125 58.640625 43.609375 59.234375 
Q 41.84375 59.46875 33.0625 59.46875 
L 21.78125 59.46875 
z
" id="Arial-BoldMT-82"/>
       <path d="M 41.3125 0 
L 41.3125 7.765625 
Q 38.484375 3.609375 33.859375 1.21875 
Q 29.25 -1.171875 24.125 -1.171875 
Q 18.890625 -1.171875 14.734375 1.125 
Q 10.59375 3.421875 8.734375 7.5625 
Q 6.890625 11.71875 6.890625 19.046875 
L 6.890625 51.859375 
L 20.609375 51.859375 
L 20.609375 28.03125 
Q 20.609375 17.09375 21.359375 14.625 
Q 22.125 12.15625 24.125 10.71875 
Q 26.125 9.28125 29.203125 9.28125 
Q 32.71875 9.28125 35.5 11.203125 
Q 38.28125 13.140625 39.296875 15.984375 
Q 40.328125 18.84375 40.328125 29.984375 
L 40.328125 51.859375 
L 54.046875 51.859375 
L 54.046875 0 
z
" id="Arial-BoldMT-117"/>
       <path d="M 54.34375 0 
L 40.625 0 
L 40.625 26.46875 
Q 40.625 34.859375 39.75 37.328125 
Q 38.875 39.796875 36.890625 41.15625 
Q 34.90625 42.53125 32.125 42.53125 
Q 28.5625 42.53125 25.734375 40.578125 
Q 22.90625 38.625 21.84375 35.390625 
Q 20.796875 32.171875 20.796875 23.484375 
L 20.796875 0 
L 7.078125 0 
L 7.078125 51.859375 
L 19.828125 51.859375 
L 19.828125 44.234375 
Q 26.609375 53.03125 36.921875 53.03125 
Q 41.453125 53.03125 45.203125 51.390625 
Q 48.96875 49.75 50.890625 47.203125 
Q 52.828125 44.671875 53.578125 41.453125 
Q 54.34375 38.234375 54.34375 32.234375 
z
" id="Arial-BoldMT-110"/>
       <path d="M 7.171875 58.890625 
L 7.171875 71.578125 
L 20.90625 71.578125 
L 20.90625 58.890625 
z
M 7.171875 0 
L 7.171875 51.859375 
L 20.90625 51.859375 
L 20.90625 0 
z
" id="Arial-BoldMT-105"/>
       <path d="M 5.90625 -3.421875 
L 21.578125 -5.328125 
Q 21.96875 -8.0625 23.390625 -9.078125 
Q 25.34375 -10.546875 29.546875 -10.546875 
Q 34.90625 -10.546875 37.59375 -8.9375 
Q 39.40625 -7.859375 40.328125 -5.46875 
Q 40.96875 -3.765625 40.96875 0.828125 
L 40.96875 8.40625 
Q 34.8125 0 25.4375 0 
Q 14.984375 0 8.890625 8.84375 
Q 4.109375 15.828125 4.109375 26.21875 
Q 4.109375 39.265625 10.375 46.140625 
Q 16.65625 53.03125 25.984375 53.03125 
Q 35.59375 53.03125 41.84375 44.578125 
L 41.84375 51.859375 
L 54.6875 51.859375 
L 54.6875 5.328125 
Q 54.6875 -3.859375 53.171875 -8.390625 
Q 51.65625 -12.9375 48.921875 -15.515625 
Q 46.1875 -18.109375 41.625 -19.578125 
Q 37.0625 -21.046875 30.078125 -21.046875 
Q 16.890625 -21.046875 11.375 -16.53125 
Q 5.859375 -12.015625 5.859375 -5.078125 
Q 5.859375 -4.390625 5.90625 -3.421875 
z
M 18.171875 27 
Q 18.171875 18.75 21.359375 14.90625 
Q 24.5625 11.078125 29.25 11.078125 
Q 34.28125 11.078125 37.75 15.015625 
Q 41.21875 18.953125 41.21875 26.65625 
Q 41.21875 34.71875 37.890625 38.625 
Q 34.578125 42.53125 29.5 42.53125 
Q 24.5625 42.53125 21.359375 38.6875 
Q 18.171875 34.859375 18.171875 27 
z
" id="Arial-BoldMT-103"/>
      </defs>
      <use xlink:href="#Arial-BoldMT-82"/>
      <use x="72.216797" xlink:href="#Arial-BoldMT-117"/>
      <use x="133.300781" xlink:href="#Arial-BoldMT-110"/>
      <use x="194.384766" xlink:href="#Arial-BoldMT-110"/>
      <use x="255.46875" xlink:href="#Arial-BoldMT-105"/>
      <use x="283.251953" xlink:href="#Arial-BoldMT-110"/>
      <use x="344.335938" xlink:href="#Arial-BoldMT-103"/>
     </g>
     <!-- velocity -->
     <g transform="translate(52.00434 130.418765)rotate(-90)scale(0.1728 -0.1728)">
      <defs>
       <path d="M 21.4375 0 
L 0.53125 51.859375 
L 14.9375 51.859375 
L 24.703125 25.390625 
L 27.546875 16.546875 
Q 28.65625 19.921875 28.953125 21 
Q 29.640625 23.1875 30.421875 25.390625 
L 40.28125 51.859375 
L 54.390625 51.859375 
L 33.796875 0 
z
" id="Arial-BoldMT-118"/>
       <path d="M 37.203125 16.5 
L 50.875 14.203125 
Q 48.25 6.6875 42.546875 2.75 
Q 36.859375 -1.171875 28.328125 -1.171875 
Q 14.796875 -1.171875 8.296875 7.671875 
Q 3.171875 14.75 3.171875 25.53125 
Q 3.171875 38.421875 9.90625 45.71875 
Q 16.65625 53.03125 26.953125 53.03125 
Q 38.53125 53.03125 45.21875 45.390625 
Q 51.90625 37.75 51.609375 21.96875 
L 17.234375 21.96875 
Q 17.390625 15.875 20.5625 12.46875 
Q 23.734375 9.078125 28.46875 9.078125 
Q 31.6875 9.078125 33.875 10.828125 
Q 36.078125 12.59375 37.203125 16.5 
z
M 37.984375 30.375 
Q 37.84375 36.328125 34.90625 39.421875 
Q 31.984375 42.53125 27.78125 42.53125 
Q 23.296875 42.53125 20.359375 39.265625 
Q 17.4375 35.984375 17.484375 30.375 
z
" id="Arial-BoldMT-101"/>
       <path d="M 7.171875 0 
L 7.171875 71.578125 
L 20.90625 71.578125 
L 20.90625 0 
z
" id="Arial-BoldMT-108"/>
       <path d="M 4 26.65625 
Q 4 33.5 7.375 39.890625 
Q 10.75 46.296875 16.921875 49.65625 
Q 23.09375 53.03125 30.71875 53.03125 
Q 42.484375 53.03125 50 45.390625 
Q 57.515625 37.75 57.515625 26.078125 
Q 57.515625 14.3125 49.921875 6.5625 
Q 42.328125 -1.171875 30.8125 -1.171875 
Q 23.6875 -1.171875 17.21875 2.046875 
Q 10.75 5.28125 7.375 11.5 
Q 4 17.71875 4 26.65625 
z
M 18.0625 25.921875 
Q 18.0625 18.21875 21.71875 14.109375 
Q 25.390625 10.015625 30.765625 10.015625 
Q 36.140625 10.015625 39.765625 14.109375 
Q 43.40625 18.21875 43.40625 26.03125 
Q 43.40625 33.640625 39.765625 37.734375 
Q 36.140625 41.84375 30.765625 41.84375 
Q 25.390625 41.84375 21.71875 37.734375 
Q 18.0625 33.640625 18.0625 25.921875 
z
" id="Arial-BoldMT-111"/>
       <path d="M 52.390625 36.53125 
L 38.875 34.078125 
Q 38.1875 38.140625 35.765625 40.1875 
Q 33.34375 42.234375 29.5 42.234375 
Q 24.359375 42.234375 21.3125 38.6875 
Q 18.265625 35.15625 18.265625 26.859375 
Q 18.265625 17.625 21.359375 13.8125 
Q 24.46875 10.015625 29.6875 10.015625 
Q 33.59375 10.015625 36.078125 12.234375 
Q 38.578125 14.453125 39.59375 19.875 
L 53.078125 17.578125 
Q 50.984375 8.296875 45.015625 3.5625 
Q 39.0625 -1.171875 29.046875 -1.171875 
Q 17.671875 -1.171875 10.90625 6 
Q 4.15625 13.1875 4.15625 25.875 
Q 4.15625 38.71875 10.9375 45.875 
Q 17.71875 53.03125 29.296875 53.03125 
Q 38.765625 53.03125 44.359375 48.953125 
Q 49.953125 44.875 52.390625 36.53125 
z
" id="Arial-BoldMT-99"/>
       <path d="M 30.953125 51.859375 
L 30.953125 40.921875 
L 21.578125 40.921875 
L 21.578125 20.015625 
Q 21.578125 13.671875 21.84375 12.625 
Q 22.125 11.578125 23.078125 10.890625 
Q 24.03125 10.203125 25.390625 10.203125 
Q 27.296875 10.203125 30.90625 11.53125 
L 32.078125 0.875 
Q 27.296875 -1.171875 21.234375 -1.171875 
Q 17.53125 -1.171875 14.546875 0.0625 
Q 11.578125 1.3125 10.1875 3.296875 
Q 8.796875 5.28125 8.25 8.640625 
Q 7.8125 11.03125 7.8125 18.3125 
L 7.8125 40.921875 
L 1.515625 40.921875 
L 1.515625 51.859375 
L 7.8125 51.859375 
L 7.8125 62.15625 
L 21.578125 70.171875 
L 21.578125 51.859375 
z
" id="Arial-BoldMT-116"/>
       <path d="M 0.6875 51.859375 
L 15.28125 51.859375 
L 27.6875 15.046875 
L 39.796875 51.859375 
L 54 51.859375 
L 35.6875 1.953125 
L 32.421875 -7.078125 
Q 30.609375 -11.625 28.96875 -14.015625 
Q 27.34375 -16.40625 25.21875 -17.890625 
Q 23.09375 -19.390625 19.984375 -20.21875 
Q 16.890625 -21.046875 12.984375 -21.046875 
Q 9.03125 -21.046875 5.21875 -20.21875 
L 4 -9.46875 
Q 7.234375 -10.109375 9.8125 -10.109375 
Q 14.59375 -10.109375 16.890625 -7.296875 
Q 19.1875 -4.5 20.40625 -0.140625 
z
" id="Arial-BoldMT-121"/>
      </defs>
      <use xlink:href="#Arial-BoldMT-118"/>
      <use x="55.615234" xlink:href="#Arial-BoldMT-101"/>
      <use x="111.230469" xlink:href="#Arial-BoldMT-108"/>
      <use x="139.013672" xlink:href="#Arial-BoldMT-111"/>
      <use x="200.097656" xlink:href="#Arial-BoldMT-99"/>
      <use x="255.712891" xlink:href="#Arial-BoldMT-105"/>
      <use x="283.496094" xlink:href="#Arial-BoldMT-116"/>
      <use x="316.796875" xlink:href="#Arial-BoldMT-121"/>
     </g>
     <!-- (cm/s) -->
     <g transform="translate(70.7364 123.691715)rotate(-90)scale(0.1728 -0.1728)">
      <defs>
       <path d="M 29.9375 -21.046875 
L 20.515625 -21.046875 
Q 13.03125 -9.765625 9.125 2.390625 
Q 5.21875 14.546875 5.21875 25.921875 
Q 5.21875 40.046875 10.0625 52.640625 
Q 14.265625 63.578125 20.703125 72.796875 
L 30.078125 72.796875 
Q 23.390625 58.015625 20.875 47.625 
Q 18.359375 37.25 18.359375 25.640625 
Q 18.359375 17.625 19.84375 9.21875 
Q 21.34375 0.828125 23.921875 -6.734375 
Q 25.640625 -11.71875 29.9375 -21.046875 
z
" id="Arial-BoldMT-40"/>
       <path d="M 6.15625 51.859375 
L 18.796875 51.859375 
L 18.796875 44.78125 
Q 25.59375 53.03125 34.96875 53.03125 
Q 39.9375 53.03125 43.59375 50.96875 
Q 47.265625 48.921875 49.609375 44.78125 
Q 53.03125 48.921875 56.984375 50.96875 
Q 60.9375 53.03125 65.4375 53.03125 
Q 71.140625 53.03125 75.09375 50.703125 
Q 79.046875 48.390625 81 43.890625 
Q 82.421875 40.578125 82.421875 33.15625 
L 82.421875 0 
L 68.703125 0 
L 68.703125 29.640625 
Q 68.703125 37.359375 67.28125 39.59375 
Q 65.375 42.53125 61.421875 42.53125 
Q 58.546875 42.53125 56 40.765625 
Q 53.46875 39.015625 52.34375 35.625 
Q 51.21875 32.234375 51.21875 24.90625 
L 51.21875 0 
L 37.5 0 
L 37.5 28.421875 
Q 37.5 35.984375 36.765625 38.171875 
Q 36.03125 40.375 34.484375 41.453125 
Q 32.953125 42.53125 30.328125 42.53125 
Q 27.15625 42.53125 24.609375 40.8125 
Q 22.078125 39.109375 20.96875 35.890625 
Q 19.875 32.671875 19.875 25.203125 
L 19.875 0 
L 6.15625 0 
z
" id="Arial-BoldMT-109"/>
       <path d="M -0.140625 -1.21875 
L 17.578125 72.796875 
L 27.875 72.796875 
L 9.96875 -1.21875 
z
" id="Arial-BoldMT-47"/>
       <path d="M 2.34375 14.796875 
L 16.109375 16.890625 
Q 17 12.890625 19.671875 10.8125 
Q 22.359375 8.734375 27.203125 8.734375 
Q 32.515625 8.734375 35.203125 10.6875 
Q 37.015625 12.0625 37.015625 14.359375 
Q 37.015625 15.921875 36.03125 16.9375 
Q 35.015625 17.921875 31.453125 18.75 
Q 14.84375 22.40625 10.40625 25.4375 
Q 4.25 29.640625 4.25 37.109375 
Q 4.25 43.84375 9.5625 48.4375 
Q 14.890625 53.03125 26.078125 53.03125 
Q 36.71875 53.03125 41.890625 49.5625 
Q 47.078125 46.09375 49.03125 39.3125 
L 36.078125 36.921875 
Q 35.25 39.9375 32.921875 41.546875 
Q 30.609375 43.171875 26.3125 43.171875 
Q 20.90625 43.171875 18.5625 41.65625 
Q 17 40.578125 17 38.875 
Q 17 37.40625 18.359375 36.375 
Q 20.21875 35.015625 31.171875 32.515625 
Q 42.140625 30.03125 46.484375 26.421875 
Q 50.78125 22.75 50.78125 16.21875 
Q 50.78125 9.078125 44.828125 3.953125 
Q 38.875 -1.171875 27.203125 -1.171875 
Q 16.609375 -1.171875 10.421875 3.125 
Q 4.25 7.421875 2.34375 14.796875 
z
" id="Arial-BoldMT-115"/>
       <path d="M 3.375 -21.046875 
Q 7.421875 -12.359375 9.078125 -7.71875 
Q 10.75 -3.078125 12.15625 2.96875 
Q 13.578125 9.03125 14.25 14.46875 
Q 14.9375 19.921875 14.9375 25.640625 
Q 14.9375 37.25 12.453125 47.625 
Q 9.96875 58.015625 3.265625 72.796875 
L 12.59375 72.796875 
Q 19.96875 62.3125 24.046875 50.53125 
Q 28.125 38.765625 28.125 26.65625 
Q 28.125 16.453125 24.90625 4.78125 
Q 21.234375 -8.296875 12.84375 -21.046875 
z
" id="Arial-BoldMT-41"/>
      </defs>
      <use xlink:href="#Arial-BoldMT-40"/>
      <use x="33.300781" xlink:href="#Arial-BoldMT-99"/>
      <use x="88.916016" xlink:href="#Arial-BoldMT-109"/>
      <use x="177.832031" xlink:href="#Arial-BoldMT-47"/>
      <use x="205.615234" xlink:href="#Arial-BoldMT-115"/>
      <use x="261.230469" xlink:href="#Arial-BoldMT-41"/>
     </g>
    </g>
   </g>
   <g id="line2d_11">
    <path clip-path="url(#p5b3452e3ed)" d="M 109.0919 100.019304 
L 111.725158 100.100846 
L 114.358417 98.707995 
L 116.991675 100.166207 
L 119.624934 99.79497 
L 122.258192 100.093342 
L 124.891451 99.858433 
L 127.524709 100.0506 
L 130.157967 99.528017 
L 132.791226 99.925951 
L 135.424484 100.185781 
L 138.057743 99.857018 
L 140.691001 99.544568 
L 143.32426 99.954732 
L 145.957518 100.445722 
L 148.590776 101.61659 
L 151.224035 100.643102 
L 153.857293 101.452574 
L 156.490552 100.959322 
L 159.12381 101.275235 
L 161.757069 100.641331 
L 164.390327 101.729187 
L 167.023585 101.354019 
L 169.656844 101.87105 
L 172.290102 102.209092 
L 174.923361 102.52575 
L 177.556619 103.125902 
L 180.189878 103.207254 
L 182.823136 103.364152 
L 185.456394 103.388675 
L 188.089653 103.424358 
L 190.722911 103.861236 
L 193.35617 103.579284 
L 195.989428 105.053164 
L 198.622687 104.476191 
L 201.255945 105.075016 
L 203.889203 104.057986 
L 206.522462 104.143748 
L 209.15572 102.948164 
L 211.788979 103.654596 
L 214.422237 103.697634 
L 217.055496 103.991424 
L 219.688754 104.296301 
L 222.322012 103.850708 
L 224.955271 104.437131 
L 227.588529 104.364094 
L 230.221788 104.401918 
L 232.855046 104.366714 
L 235.488304 104.294839 
L 238.121563 104.531822 
L 240.754821 104.444972 
L 243.38808 105.365348 
L 246.021338 104.09411 
L 248.654597 104.996903 
L 251.287855 104.09957 
L 253.921113 103.738308 
L 256.554372 102.720449 
L 259.18763 104.275739 
L 261.820889 103.787743 
L 264.454147 103.752747 
L 267.087406 103.573442 
L 269.720664 103.28741 
L 272.353922 102.296479 
L 274.987181 103.087109 
L 277.620439 103.467815 
L 280.253698 103.457433 
L 282.886956 103.419524 
L 285.520215 103.10424 
L 288.153473 103.399952 
L 290.786731 103.370587 
L 293.41999 103.250702 
L 296.053248 102.977984 
L 298.686507 102.745676 
L 301.319765 102.870152 
L 303.953024 102.692612 
L 306.586282 102.72381 
L 309.21954 102.561947 
L 311.852799 101.632219 
L 314.486057 101.907134 
L 317.119316 101.839204 
L 319.752574 101.28174 
L 322.385833 101.17679 
L 325.019091 100.652479 
L 327.652349 100.652478 
L 330.285608 100.353101 
L 332.918866 100.672326 
L 335.552125 100.962745 
L 338.185383 101.691479 
L 340.818642 100.598807 
L 343.4519 101.069912 
" style="fill:none;stroke:#969696;stroke-linecap:square;stroke-opacity:0.8;stroke-width:5;"/>
   </g>
   <g id="line2d_12">
    <path clip-path="url(#p5b3452e3ed)" d="M 109.0919 98.415031 
L 111.725158 97.742671 
L 114.358417 97.326665 
L 116.991675 98.560967 
L 119.624934 100.216317 
L 122.258192 102.622669 
L 124.891451 101.129629 
L 127.524709 104.378029 
L 130.157967 103.106388 
L 132.791226 105.574553 
L 135.424484 105.669607 
L 138.057743 107.545698 
L 140.691001 107.250698 
L 143.32426 106.764568 
L 145.957518 107.698582 
L 148.590776 108.79499 
L 151.224035 107.85076 
L 153.857293 108.721022 
L 156.490552 108.564177 
L 159.12381 109.143311 
L 161.757069 108.755223 
L 164.390327 110.777062 
L 167.023585 109.6629 
L 169.656844 111.168603 
L 172.290102 110.567627 
L 174.923361 108.848297 
L 177.556619 109.411808 
L 180.189878 109.254576 
L 182.823136 107.5122 
L 185.456394 108.226551 
L 188.089653 107.454484 
L 190.722911 107.023547 
L 193.35617 108.918619 
L 195.989428 110.433452 
L 198.622687 109.299318 
L 201.255945 107.930873 
L 203.889203 108.254352 
L 206.522462 108.054898 
L 209.15572 106.416112 
L 211.788979 106.887608 
L 214.422237 105.823964 
L 217.055496 106.167865 
L 219.688754 107.25242 
L 222.322012 106.960605 
L 224.955271 107.652332 
L 227.588529 107.643928 
L 230.221788 106.947646 
L 232.855046 106.13783 
L 235.488304 106.988778 
L 238.121563 104.670084 
L 240.754821 105.381248 
L 243.38808 106.230881 
L 246.021338 103.672738 
L 248.654597 103.806868 
L 251.287855 101.449866 
L 253.921113 101.971852 
L 256.554372 97.787941 
L 259.18763 99.860644 
L 261.820889 99.509968 
L 264.454147 100.809585 
L 267.087406 100.257374 
L 269.720664 100.537103 
L 272.353922 100.179012 
L 274.987181 99.718958 
L 277.620439 99.749659 
L 280.253698 101.041662 
L 282.886956 99.477556 
L 285.520215 99.30604 
L 288.153473 100.803067 
L 290.786731 98.342185 
L 293.41999 99.116288 
L 296.053248 100.895677 
L 298.686507 99.688922 
L 301.319765 97.535511 
L 303.953024 99.359856 
L 306.586282 99.183636 
L 309.21954 98.188128 
L 311.852799 98.231131 
L 314.486057 101.093143 
L 317.119316 98.82465 
L 319.752574 99.272463 
L 322.385833 98.170826 
L 325.019091 98.009258 
L 327.652349 97.31605 
L 330.285608 95.84078 
L 332.918866 96.776914 
L 335.552125 96.5995 
L 338.185383 97.338582 
L 340.818642 95.594288 
L 343.4519 96.976292 
" style="fill:none;stroke:#eb3920;stroke-linecap:square;stroke-opacity:0.75;stroke-width:5;"/>
   </g>
   <g id="patch_3">
    <path d="M 109.0919 151.27513 
L 109.0919 45.216 
" style="fill:none;stroke:#000000;stroke-linecap:square;stroke-linejoin:miter;stroke-width:4;"/>
   </g>
   <g id="patch_4">
    <path d="M 109.0919 151.27513 
L 343.4519 151.27513 
" style="fill:none;stroke:#000000;stroke-linecap:square;stroke-linejoin:miter;stroke-width:4;"/>
   </g>
  </g>
  <g id="axes_2">
   <g id="patch_5">
    <path d="M 109.0919 289.152 
L 343.4519 289.152 
L 343.4519 183.09287 
L 109.0919 183.09287 
z
" style="fill:#ffffff;"/>
   </g>
   <g id="line2d_13">
    <path clip-path="url(#pd8a337c630)" d="M 249.7079 289.152 
L 249.7079 183.09287 
" style="fill:none;stroke:#000000;stroke-dasharray:9,6;stroke-dashoffset:0;stroke-opacity:0.5;stroke-width:3;"/>
   </g>
   <g id="PolyCollection_3">
    <path clip-path="url(#pd8a337c630)" d="M 109.0919 233.818127 
L 109.0919 251.070463 
L 114.418264 251.151855 
L 119.744627 251.79945 
L 125.070991 252.008509 
L 130.397355 252.650205 
L 135.723718 251.842056 
L 141.050082 252.227741 
L 146.376445 251.828809 
L 151.702809 251.21177 
L 157.029173 250.335315 
L 162.355536 250.18522 
L 167.6819 249.568107 
L 173.008264 249.434509 
L 178.334627 249.286362 
L 183.660991 248.207515 
L 188.987355 249.154302 
L 194.313718 249.06281 
L 199.640082 249.794883 
L 204.966445 250.437648 
L 210.292809 250.441073 
L 215.619173 252.282597 
L 220.945536 252.125495 
L 226.2719 252.831863 
L 231.598264 252.233611 
L 236.924627 252.870482 
L 242.250991 253.146942 
L 247.577355 254.737299 
L 252.903718 254.682449 
L 258.230082 254.814611 
L 263.556445 253.249807 
L 268.882809 253.411826 
L 274.209173 254.391374 
L 279.535536 256.148059 
L 284.8619 254.634535 
L 290.188264 254.609492 
L 295.514627 252.79781 
L 300.840991 252.04887 
L 306.167355 251.102721 
L 311.493718 249.783082 
L 316.820082 248.934969 
L 322.146445 248.55786 
L 327.472809 246.673724 
L 332.799173 247.883271 
L 338.125536 248.484141 
L 343.4519 250.148583 
L 343.4519 232.891404 
L 343.4519 232.891404 
L 338.125536 231.222468 
L 332.799173 230.636375 
L 327.472809 229.442523 
L 322.146445 231.326902 
L 316.820082 231.730306 
L 311.493718 232.585658 
L 306.167355 233.907731 
L 300.840991 234.879588 
L 295.514627 235.635054 
L 290.188264 237.444605 
L 284.8619 237.470826 
L 279.535536 238.972615 
L 274.209173 237.203425 
L 268.882809 236.220851 
L 263.556445 236.058119 
L 258.230082 237.59807 
L 252.903718 237.467019 
L 247.577355 237.514128 
L 242.250991 235.928107 
L 236.924627 235.631184 
L 231.598264 234.99525 
L 226.2719 235.586483 
L 220.945536 234.895182 
L 215.619173 235.046061 
L 210.292809 233.225012 
L 204.966445 233.215034 
L 199.640082 232.593933 
L 194.313718 231.876709 
L 188.987355 231.971604 
L 183.660991 231.046414 
L 178.334627 232.116661 
L 173.008264 232.275205 
L 167.6819 232.411398 
L 162.355536 233.024161 
L 157.029173 233.178333 
L 151.702809 234.055581 
L 146.376445 234.677887 
L 141.050082 235.070858 
L 135.723718 234.669433 
L 130.397355 235.44433 
L 125.070991 234.80568 
L 119.744627 234.591253 
L 114.418264 233.931654 
L 109.0919 233.818127 
z
" style="fill:#969696;fill-opacity:0.5;"/>
   </g>
   <g id="PolyCollection_4">
    <path clip-path="url(#pd8a337c630)" d="M 109.0919 196.840243 
L 109.0919 258.745377 
L 114.418264 258.881337 
L 119.744627 257.43076 
L 125.070991 259.445853 
L 130.397355 262.784384 
L 135.723718 265.934603 
L 141.050082 264.126117 
L 146.376445 264.951087 
L 151.702809 264.679562 
L 157.029173 264.600886 
L 162.355536 260.579243 
L 167.6819 259.62055 
L 173.008264 259.664318 
L 178.334627 261.42724 
L 183.660991 258.806123 
L 188.987355 260.506174 
L 194.313718 261.179537 
L 199.640082 262.18038 
L 204.966445 261.646018 
L 210.292809 261.028773 
L 215.619173 259.703678 
L 220.945536 261.292491 
L 226.2719 259.151639 
L 231.598264 257.595809 
L 236.924627 259.263715 
L 242.250991 260.429427 
L 247.577355 260.984265 
L 252.903718 262.26517 
L 258.230082 264.931661 
L 263.556445 264.624372 
L 268.882809 264.687296 
L 274.209173 264.326105 
L 279.535536 268.17326 
L 284.8619 267.626209 
L 290.188264 263.964995 
L 295.514627 267.014142 
L 300.840991 266.336971 
L 306.167355 263.706159 
L 311.493718 262.80175 
L 316.820082 258.999315 
L 322.146445 259.888577 
L 327.472809 260.878734 
L 332.799173 259.471128 
L 338.125536 259.775535 
L 343.4519 259.224052 
L 343.4519 197.684145 
L 343.4519 197.684145 
L 338.125536 198.095838 
L 332.799173 197.947852 
L 327.472809 199.435235 
L 322.146445 198.177336 
L 316.820082 197.280868 
L 311.493718 201.024488 
L 306.167355 201.848752 
L 300.840991 204.390104 
L 295.514627 205.205506 
L 290.188264 202.235257 
L 284.8619 205.806784 
L 279.535536 206.352925 
L 274.209173 202.29389 
L 268.882809 202.686045 
L 263.556445 202.443735 
L 258.230082 202.577645 
L 252.903718 200.038582 
L 247.577355 198.777239 
L 242.250991 198.121092 
L 236.924627 196.986524 
L 231.598264 195.174212 
L 226.2719 196.858388 
L 220.945536 199.22759 
L 215.619173 197.779119 
L 210.292809 199.098057 
L 204.966445 199.753997 
L 199.640082 200.378502 
L 194.313718 199.29811 
L 188.987355 198.532047 
L 183.660991 196.926257 
L 178.334627 199.485866 
L 173.008264 197.695886 
L 167.6819 197.69449 
L 162.355536 198.81665 
L 157.029173 202.757364 
L 151.702809 202.760551 
L 146.376445 203.000553 
L 141.050082 202.290192 
L 135.723718 203.943851 
L 130.397355 200.672778 
L 125.070991 197.398001 
L 119.744627 195.351816 
L 114.418264 196.966017 
L 109.0919 196.840243 
z
" style="fill:#eb3920;fill-opacity:0.2;"/>
   </g>
   <g id="matplotlib.axis_3">
    <g id="xtick_7">
     <g id="line2d_14">
      <g>
       <use style="stroke:#000000;stroke-width:4;" x="109.0919" xlink:href="#m431300e601" y="289.152"/>
      </g>
     </g>
    </g>
    <g id="xtick_8">
     <g id="line2d_15">
      <g>
       <use style="stroke:#000000;stroke-width:4;" x="155.9639" xlink:href="#m431300e601" y="289.152"/>
      </g>
     </g>
     <g id="text_4">
      <!-- -0.6 -->
      <g transform="translate(141.07745 313.0207)scale(0.1728 -0.1728)">
       <defs>
        <path d="M 5.609375 19.09375 
L 5.609375 32.8125 
L 32.5625 32.8125 
L 32.5625 19.09375 
z
" id="Arial-BoldMT-45"/>
        <path d="M 7.171875 0 
L 7.171875 13.71875 
L 20.90625 13.71875 
L 20.90625 0 
z
" id="Arial-BoldMT-46"/>
        <path d="M 50.734375 54.046875 
L 37.453125 52.59375 
Q 36.96875 56.6875 34.90625 58.640625 
Q 32.859375 60.59375 29.59375 60.59375 
Q 25.25 60.59375 22.234375 56.6875 
Q 19.234375 52.78125 18.453125 40.4375 
Q 23.578125 46.484375 31.203125 46.484375 
Q 39.796875 46.484375 45.921875 39.9375 
Q 52.046875 33.40625 52.046875 23.046875 
Q 52.046875 12.0625 45.59375 5.421875 
Q 39.15625 -1.21875 29.046875 -1.21875 
Q 18.21875 -1.21875 11.234375 7.203125 
Q 4.25 15.625 4.25 34.8125 
Q 4.25 54.5 11.515625 63.1875 
Q 18.796875 71.875 30.421875 71.875 
Q 38.578125 71.875 43.921875 67.3125 
Q 49.265625 62.75 50.734375 54.046875 
z
M 19.625 24.125 
Q 19.625 17.4375 22.703125 13.796875 
Q 25.78125 10.15625 29.734375 10.15625 
Q 33.546875 10.15625 36.078125 13.125 
Q 38.625 16.109375 38.625 22.90625 
Q 38.625 29.890625 35.890625 33.125 
Q 33.15625 36.375 29.046875 36.375 
Q 25.09375 36.375 22.359375 33.265625 
Q 19.625 30.171875 19.625 24.125 
z
" id="Arial-BoldMT-54"/>
       </defs>
       <use xlink:href="#Arial-BoldMT-45"/>
       <use x="33.300781" xlink:href="#Arial-BoldMT-48"/>
       <use x="88.916016" xlink:href="#Arial-BoldMT-46"/>
       <use x="116.699219" xlink:href="#Arial-BoldMT-54"/>
      </g>
     </g>
    </g>
    <g id="xtick_9">
     <g id="line2d_16">
      <g>
       <use style="stroke:#000000;stroke-width:4;" x="202.8359" xlink:href="#m431300e601" y="289.152"/>
      </g>
     </g>
    </g>
    <g id="xtick_10">
     <g id="line2d_17">
      <g>
       <use style="stroke:#000000;stroke-width:4;" x="249.7079" xlink:href="#m431300e601" y="289.152"/>
      </g>
     </g>
     <g id="text_5">
      <!-- 0 -->
      <g transform="translate(244.90325 313.0207)scale(0.1728 -0.1728)">
       <use xlink:href="#Arial-BoldMT-48"/>
      </g>
     </g>
    </g>
    <g id="xtick_11">
     <g id="line2d_18">
      <g>
       <use style="stroke:#000000;stroke-width:4;" x="296.5799" xlink:href="#m431300e601" y="289.152"/>
      </g>
     </g>
    </g>
    <g id="xtick_12">
     <g id="line2d_19">
      <g>
       <use style="stroke:#000000;stroke-width:4;" x="343.4519" xlink:href="#m431300e601" y="289.152"/>
      </g>
     </g>
     <g id="text_6">
      <!-- 0.6 -->
      <g transform="translate(331.4423 313.0207)scale(0.1728 -0.1728)">
       <use xlink:href="#Arial-BoldMT-48"/>
       <use x="55.615234" xlink:href="#Arial-BoldMT-46"/>
       <use x="83.398438" xlink:href="#Arial-BoldMT-54"/>
      </g>
     </g>
    </g>
    <g id="text_7">
     <!-- Time (s) -->
     <g transform="translate(193.2995 333.0101)scale(0.1728 -0.1728)">
      <defs>
       <path d="M 23.390625 0 
L 23.390625 59.46875 
L 2.15625 59.46875 
L 2.15625 71.578125 
L 59.03125 71.578125 
L 59.03125 59.46875 
L 37.84375 59.46875 
L 37.84375 0 
z
" id="Arial-BoldMT-84"/>
       <path id="Arial-BoldMT-32"/>
      </defs>
      <use xlink:href="#Arial-BoldMT-84"/>
      <use x="59.333984" xlink:href="#Arial-BoldMT-105"/>
      <use x="87.117188" xlink:href="#Arial-BoldMT-109"/>
      <use x="176.033203" xlink:href="#Arial-BoldMT-101"/>
      <use x="231.648438" xlink:href="#Arial-BoldMT-32"/>
      <use x="259.431641" xlink:href="#Arial-BoldMT-40"/>
      <use x="292.732422" xlink:href="#Arial-BoldMT-115"/>
      <use x="348.347656" xlink:href="#Arial-BoldMT-41"/>
     </g>
    </g>
   </g>
   <g id="matplotlib.axis_4">
    <g id="ytick_4">
     <g id="line2d_20">
      <g>
       <use style="stroke:#000000;stroke-width:4;" x="109.0919" xlink:href="#m39f37e616c" y="289.152"/>
      </g>
     </g>
     <g id="text_8">
      <!-- 0.55 -->
      <g transform="translate(63.9634 295.33635)scale(0.1728 -0.1728)">
       <defs>
        <path d="M 4.4375 18.40625 
L 18.109375 19.828125 
Q 18.703125 15.1875 21.578125 12.46875 
Q 24.46875 9.765625 28.21875 9.765625 
Q 32.515625 9.765625 35.5 13.25 
Q 38.484375 16.75 38.484375 23.78125 
Q 38.484375 30.375 35.515625 33.671875 
Q 32.5625 36.96875 27.828125 36.96875 
Q 21.921875 36.96875 17.234375 31.734375 
L 6.109375 33.34375 
L 13.140625 70.609375 
L 49.421875 70.609375 
L 49.421875 57.765625 
L 23.53125 57.765625 
L 21.390625 45.609375 
Q 25.984375 47.90625 30.765625 47.90625 
Q 39.890625 47.90625 46.234375 41.265625 
Q 52.59375 34.625 52.59375 24.03125 
Q 52.59375 15.1875 47.46875 8.25 
Q 40.484375 -1.21875 28.078125 -1.21875 
Q 18.171875 -1.21875 11.921875 4.09375 
Q 5.671875 9.421875 4.4375 18.40625 
z
" id="Arial-BoldMT-53"/>
       </defs>
       <use xlink:href="#Arial-BoldMT-48"/>
       <use x="55.615234" xlink:href="#Arial-BoldMT-46"/>
       <use x="83.398438" xlink:href="#Arial-BoldMT-53"/>
       <use x="139.013672" xlink:href="#Arial-BoldMT-53"/>
      </g>
     </g>
    </g>
    <g id="ytick_5">
     <g id="line2d_21">
      <g>
       <use style="stroke:#000000;stroke-width:4;" x="109.0919" xlink:href="#m39f37e616c" y="255.571962"/>
      </g>
     </g>
    </g>
    <g id="ytick_6">
     <g id="line2d_22">
      <g>
       <use style="stroke:#000000;stroke-width:4;" x="109.0919" xlink:href="#m39f37e616c" y="221.991925"/>
      </g>
     </g>
     <g id="text_9">
      <!-- 0.56 -->
      <g transform="translate(63.9634 228.176275)scale(0.1728 -0.1728)">
       <use xlink:href="#Arial-BoldMT-48"/>
       <use x="55.615234" xlink:href="#Arial-BoldMT-46"/>
       <use x="83.398438" xlink:href="#Arial-BoldMT-53"/>
       <use x="139.013672" xlink:href="#Arial-BoldMT-54"/>
      </g>
     </g>
    </g>
    <g id="ytick_7">
     <g id="line2d_23">
      <g>
       <use style="stroke:#000000;stroke-width:4;" x="109.0919" xlink:href="#m39f37e616c" y="188.411887"/>
      </g>
     </g>
    </g>
    <g id="text_10">
     <!-- Pupil -->
     <g transform="translate(19.5687 257.240485)rotate(-90)scale(0.1728 -0.1728)">
      <defs>
       <path d="M 7.28125 0 
L 7.28125 71.578125 
L 30.46875 71.578125 
Q 43.65625 71.578125 47.65625 70.515625 
Q 53.8125 68.890625 57.953125 63.5 
Q 62.109375 58.109375 62.109375 49.5625 
Q 62.109375 42.96875 59.71875 38.46875 
Q 57.328125 33.984375 53.640625 31.421875 
Q 49.953125 28.859375 46.140625 28.03125 
Q 40.96875 27 31.15625 27 
L 21.734375 27 
L 21.734375 0 
z
M 21.734375 59.46875 
L 21.734375 39.15625 
L 29.640625 39.15625 
Q 38.1875 39.15625 41.0625 40.28125 
Q 43.953125 41.40625 45.578125 43.796875 
Q 47.21875 46.1875 47.21875 49.359375 
Q 47.21875 53.265625 44.921875 55.796875 
Q 42.625 58.34375 39.109375 58.984375 
Q 36.53125 59.46875 28.71875 59.46875 
z
" id="Arial-BoldMT-80"/>
       <path d="M 6.78125 51.859375 
L 19.578125 51.859375 
L 19.578125 44.234375 
Q 22.078125 48.140625 26.3125 50.578125 
Q 30.5625 53.03125 35.75 53.03125 
Q 44.78125 53.03125 51.078125 45.953125 
Q 57.375 38.875 57.375 26.21875 
Q 57.375 13.234375 51.015625 6.03125 
Q 44.671875 -1.171875 35.640625 -1.171875 
Q 31.34375 -1.171875 27.84375 0.53125 
Q 24.359375 2.25 20.515625 6.390625 
L 20.515625 -19.734375 
L 6.78125 -19.734375 
z
M 20.359375 26.8125 
Q 20.359375 18.0625 23.828125 13.890625 
Q 27.296875 9.71875 32.28125 9.71875 
Q 37.0625 9.71875 40.234375 13.546875 
Q 43.40625 17.390625 43.40625 26.125 
Q 43.40625 34.28125 40.125 38.234375 
Q 36.859375 42.1875 32.03125 42.1875 
Q 27 42.1875 23.671875 38.296875 
Q 20.359375 34.421875 20.359375 26.8125 
z
" id="Arial-BoldMT-112"/>
      </defs>
      <use xlink:href="#Arial-BoldMT-80"/>
      <use x="66.699219" xlink:href="#Arial-BoldMT-117"/>
      <use x="127.783203" xlink:href="#Arial-BoldMT-112"/>
      <use x="188.867188" xlink:href="#Arial-BoldMT-105"/>
      <use x="216.650391" xlink:href="#Arial-BoldMT-108"/>
     </g>
     <!-- diameter -->
     <g transform="translate(37.82124 272.136385)rotate(-90)scale(0.1728 -0.1728)">
      <defs>
       <path d="M 54.734375 0 
L 42 0 
L 42 7.625 
Q 38.8125 3.171875 34.484375 1 
Q 30.171875 -1.171875 25.78125 -1.171875 
Q 16.84375 -1.171875 10.46875 6.03125 
Q 4.109375 13.234375 4.109375 26.125 
Q 4.109375 39.3125 10.296875 46.171875 
Q 16.5 53.03125 25.984375 53.03125 
Q 34.671875 53.03125 41.015625 45.796875 
L 41.015625 71.578125 
L 54.734375 71.578125 
z
M 18.109375 27.046875 
Q 18.109375 18.75 20.40625 15.046875 
Q 23.734375 9.671875 29.6875 9.671875 
Q 34.421875 9.671875 37.734375 13.6875 
Q 41.0625 17.71875 41.0625 25.734375 
Q 41.0625 34.671875 37.84375 38.59375 
Q 34.625 42.53125 29.59375 42.53125 
Q 24.703125 42.53125 21.40625 38.640625 
Q 18.109375 34.765625 18.109375 27.046875 
z
" id="Arial-BoldMT-100"/>
       <path d="M 17.4375 36.03125 
L 4.984375 38.28125 
Q 7.078125 45.796875 12.203125 49.40625 
Q 17.328125 53.03125 27.4375 53.03125 
Q 36.625 53.03125 41.109375 50.859375 
Q 45.609375 48.6875 47.4375 45.34375 
Q 49.265625 42 49.265625 33.0625 
L 49.125 17.046875 
Q 49.125 10.203125 49.78125 6.953125 
Q 50.4375 3.71875 52.25 0 
L 38.671875 0 
Q 38.140625 1.375 37.359375 4.046875 
Q 37.015625 5.28125 36.859375 5.671875 
Q 33.34375 2.25 29.34375 0.53125 
Q 25.34375 -1.171875 20.796875 -1.171875 
Q 12.796875 -1.171875 8.171875 3.171875 
Q 3.5625 7.515625 3.5625 14.15625 
Q 3.5625 18.5625 5.65625 22 
Q 7.765625 25.4375 11.546875 27.265625 
Q 15.328125 29.109375 22.46875 30.46875 
Q 32.078125 32.28125 35.796875 33.84375 
L 35.796875 35.203125 
Q 35.796875 39.15625 33.84375 40.84375 
Q 31.890625 42.53125 26.46875 42.53125 
Q 22.796875 42.53125 20.75 41.09375 
Q 18.703125 39.65625 17.4375 36.03125 
z
M 35.796875 24.90625 
Q 33.15625 24.03125 27.4375 22.796875 
Q 21.734375 21.578125 19.96875 20.40625 
Q 17.28125 18.5 17.28125 15.578125 
Q 17.28125 12.703125 19.421875 10.59375 
Q 21.578125 8.5 24.90625 8.5 
Q 28.609375 8.5 31.984375 10.9375 
Q 34.46875 12.796875 35.25 15.484375 
Q 35.796875 17.234375 35.796875 22.171875 
z
" id="Arial-BoldMT-97"/>
       <path d="M 20.3125 0 
L 6.59375 0 
L 6.59375 51.859375 
L 19.34375 51.859375 
L 19.34375 44.484375 
Q 22.609375 49.703125 25.21875 51.359375 
Q 27.828125 53.03125 31.15625 53.03125 
Q 35.84375 53.03125 40.1875 50.4375 
L 35.9375 38.484375 
Q 32.46875 40.71875 29.5 40.71875 
Q 26.609375 40.71875 24.609375 39.125 
Q 22.609375 37.546875 21.453125 33.390625 
Q 20.3125 29.25 20.3125 16.015625 
z
" id="Arial-BoldMT-114"/>
      </defs>
      <use xlink:href="#Arial-BoldMT-100"/>
      <use x="61.083984" xlink:href="#Arial-BoldMT-105"/>
      <use x="88.867188" xlink:href="#Arial-BoldMT-97"/>
      <use x="144.482422" xlink:href="#Arial-BoldMT-109"/>
      <use x="233.398438" xlink:href="#Arial-BoldMT-101"/>
      <use x="289.013672" xlink:href="#Arial-BoldMT-116"/>
      <use x="322.314453" xlink:href="#Arial-BoldMT-101"/>
      <use x="377.929688" xlink:href="#Arial-BoldMT-114"/>
     </g>
     <!-- (mm) -->
     <g transform="translate(56.3265 257.241835)rotate(-90)scale(0.1728 -0.1728)">
      <use xlink:href="#Arial-BoldMT-40"/>
      <use x="33.300781" xlink:href="#Arial-BoldMT-109"/>
      <use x="122.216797" xlink:href="#Arial-BoldMT-109"/>
      <use x="211.132812" xlink:href="#Arial-BoldMT-41"/>
     </g>
    </g>
   </g>
   <g id="line2d_24">
    <path clip-path="url(#pd8a337c630)" d="M 109.0919 242.444295 
L 114.418264 242.541754 
L 119.744627 243.195351 
L 125.070991 243.407095 
L 130.397355 244.047267 
L 135.723718 243.255745 
L 141.050082 243.6493 
L 146.376445 243.253348 
L 151.702809 242.633675 
L 157.029173 241.756824 
L 162.355536 241.604691 
L 167.6819 240.989752 
L 173.008264 240.854857 
L 178.334627 240.701511 
L 183.660991 239.626965 
L 188.987355 240.562953 
L 194.313718 240.46976 
L 199.640082 241.194408 
L 204.966445 241.826341 
L 210.292809 241.833042 
L 215.619173 243.664329 
L 220.945536 243.510339 
L 226.2719 244.209173 
L 231.598264 243.61443 
L 236.924627 244.250833 
L 242.250991 244.537525 
L 247.577355 246.125713 
L 252.903718 246.074734 
L 258.230082 246.206341 
L 263.556445 244.653963 
L 268.882809 244.816338 
L 274.209173 245.7974 
L 279.535536 247.560337 
L 284.8619 246.05268 
L 290.188264 246.027048 
L 295.514627 244.216432 
L 300.840991 243.464229 
L 306.167355 242.505226 
L 311.493718 241.18437 
L 316.820082 240.332637 
L 322.146445 239.942381 
L 327.472809 238.058124 
L 332.799173 239.259823 
L 338.125536 239.853304 
L 343.4519 241.519993 
" style="fill:none;stroke:#969696;stroke-linecap:square;stroke-opacity:0.8;stroke-width:5;"/>
   </g>
   <g id="line2d_25">
    <path clip-path="url(#pd8a337c630)" d="M 109.0919 227.79281 
L 114.418264 227.923677 
L 119.744627 226.391288 
L 125.070991 228.421927 
L 130.397355 231.728581 
L 135.723718 234.939227 
L 141.050082 233.208155 
L 146.376445 233.97582 
L 151.702809 233.720056 
L 157.029173 233.679125 
L 162.355536 229.697946 
L 167.6819 228.65752 
L 173.008264 228.680102 
L 178.334627 230.456553 
L 183.660991 227.86619 
L 188.987355 229.519111 
L 194.313718 230.238823 
L 199.640082 231.279441 
L 204.966445 230.700007 
L 210.292809 230.063415 
L 215.619173 228.741398 
L 220.945536 230.260041 
L 226.2719 228.005013 
L 231.598264 226.385011 
L 236.924627 228.125119 
L 242.250991 229.27526 
L 247.577355 229.880752 
L 252.903718 231.151876 
L 258.230082 233.754653 
L 263.556445 233.534053 
L 268.882809 233.686671 
L 274.209173 233.309998 
L 279.535536 237.263093 
L 284.8619 236.716497 
L 290.188264 233.100126 
L 295.514627 236.109824 
L 300.840991 235.363537 
L 306.167355 232.777456 
L 311.493718 231.913119 
L 316.820082 228.140091 
L 322.146445 229.032956 
L 327.472809 230.156984 
L 332.799173 228.70949 
L 338.125536 228.935687 
L 343.4519 228.454099 
" style="fill:none;stroke:#eb3920;stroke-linecap:square;stroke-opacity:0.75;stroke-width:5;"/>
   </g>
   <g id="patch_6">
    <path d="M 109.0919 289.152 
L 109.0919 183.09287 
" style="fill:none;stroke:#000000;stroke-linecap:square;stroke-linejoin:miter;stroke-width:4;"/>
   </g>
   <g id="patch_7">
    <path d="M 109.0919 289.152 
L 343.4519 289.152 
" style="fill:none;stroke:#000000;stroke-linecap:square;stroke-linejoin:miter;stroke-width:4;"/>
   </g>
  </g>
  <g id="text_11">
   <!-- Running and pupil responses -->
   <g transform="translate(101.0567 19.5687)scale(0.1728 -0.1728)">
    <use xlink:href="#Arial-BoldMT-82"/>
    <use x="72.216797" xlink:href="#Arial-BoldMT-117"/>
    <use x="133.300781" xlink:href="#Arial-BoldMT-110"/>
    <use x="194.384766" xlink:href="#Arial-BoldMT-110"/>
    <use x="255.46875" xlink:href="#Arial-BoldMT-105"/>
    <use x="283.251953" xlink:href="#Arial-BoldMT-110"/>
    <use x="344.335938" xlink:href="#Arial-BoldMT-103"/>
    <use x="405.419922" xlink:href="#Arial-BoldMT-32"/>
    <use x="433.203125" xlink:href="#Arial-BoldMT-97"/>
    <use x="488.818359" xlink:href="#Arial-BoldMT-110"/>
    <use x="549.902344" xlink:href="#Arial-BoldMT-100"/>
    <use x="610.986328" xlink:href="#Arial-BoldMT-32"/>
    <use x="638.769531" xlink:href="#Arial-BoldMT-112"/>
    <use x="699.853516" xlink:href="#Arial-BoldMT-117"/>
    <use x="760.9375" xlink:href="#Arial-BoldMT-112"/>
    <use x="822.021484" xlink:href="#Arial-BoldMT-105"/>
    <use x="849.804688" xlink:href="#Arial-BoldMT-108"/>
    <use x="877.587891" xlink:href="#Arial-BoldMT-32"/>
    <use x="905.371094" xlink:href="#Arial-BoldMT-114"/>
    <use x="944.287109" xlink:href="#Arial-BoldMT-101"/>
    <use x="999.902344" xlink:href="#Arial-BoldMT-115"/>
    <use x="1055.517578" xlink:href="#Arial-BoldMT-112"/>
    <use x="1116.601562" xlink:href="#Arial-BoldMT-111"/>
    <use x="1177.685547" xlink:href="#Arial-BoldMT-110"/>
    <use x="1238.769531" xlink:href="#Arial-BoldMT-115"/>
    <use x="1294.384766" xlink:href="#Arial-BoldMT-101"/>
    <use x="1350" xlink:href="#Arial-BoldMT-115"/>
   </g>
  </g>
 </g>
 <defs>
  <clipPath id="p5b3452e3ed">
   <rect height="106.05913" width="234.36" x="109.0919" y="45.216"/>
  </clipPath>
  <clipPath id="pd8a337c630">
   <rect height="106.05913" width="234.36" x="109.0919" y="183.09287"/>
  </clipPath>
 </defs>
</svg>
