<?xml version="1.0" encoding="utf-8" standalone="no"?>
<!DOCTYPE svg PUBLIC "-//W3C//DTD SVG 1.1//EN"
  "http://www.w3.org/Graphics/SVG/1.1/DTD/svg11.dtd">
<svg xmlns:xlink="http://www.w3.org/1999/xlink" width="479.8125pt" height="604.647409pt" viewBox="0 0 479.8125 604.647409" xmlns="http://www.w3.org/2000/svg" version="1.1">
 <metadata>
  <rdf:RDF xmlns:dc="http://purl.org/dc/elements/1.1/" xmlns:cc="http://creativecommons.org/ns#" xmlns:rdf="http://www.w3.org/1999/02/22-rdf-syntax-ns#">
   <cc:Work>
    <dc:type rdf:resource="http://purl.org/dc/dcmitype/StillImage"/>
    <dc:date>2023-04-04T17:12:57.471281</dc:date>
    <dc:format>image/svg+xml</dc:format>
    <dc:creator>
     <cc:Agent>
      <dc:title>Matplotlib v3.6.3, https://matplotlib.org/</dc:title>
     </cc:Agent>
    </dc:creator>
   </cc:Work>
  </rdf:RDF>
 </metadata>
 <defs>
  <style type="text/css">*{stroke-linejoin: round; stroke-linecap: butt}</style>
 </defs>
 <g id="figure_1">
  <g id="patch_1">
   <path d="M 0 604.647409 
L 479.8125 604.647409 
L 479.8125 0 
L 0 0 
z
" style="fill: #ffffff"/>
  </g>
  <g id="axes_1">
   <g id="patch_2">
    <path d="M 102.1725 279.36 
L 204.068152 279.36 
L 204.068152 67.68 
L 102.1725 67.68 
z
" style="fill: #ffffff"/>
   </g>
   <g id="patch_3">
    <path d="M 114.909457 279.36 
L 140.38337 279.36 
L 140.38337 137.691084 
L 114.909457 137.691084 
z
" clip-path="url(#p0a28060843)" style="fill: #76bb4b; fill-opacity: 0.5; stroke: #76bb4b; stroke-width: 5; stroke-linejoin: miter"/>
   </g>
   <g id="patch_4">
    <path d="M 165.857283 279.36 
L 191.331196 279.36 
L 191.331196 248.390063 
L 165.857283 248.390063 
z
" clip-path="url(#p0a28060843)" style="fill: #76bb4b; fill-opacity: 0.5; stroke: #76bb4b; stroke-width: 5; stroke-linejoin: miter"/>
   </g>
   <g id="matplotlib.axis_1">
    <g id="xtick_1"/>
    <g id="xtick_2"/>
   </g>
   <g id="matplotlib.axis_2">
    <g id="ytick_1">
     <g id="line2d_1">
      <defs>
       <path id="mbb979d6ff0" d="M 0 0 
L -8 0 
" style="stroke: #000000; stroke-width: 4"/>
      </defs>
      <g>
       <use xlink:href="#mbb979d6ff0" x="102.1725" y="279.36" style="stroke: #000000; stroke-width: 4"/>
      </g>
     </g>
     <g id="text_1">
      <!-- 0 -->
      <g transform="translate(81.0632 285.54435) scale(0.1728 -0.1728)">
       <defs>
        <path id="Arial-BoldMT-30" d="M 1756 4600 
Q 2422 4600 2797 4125 
Q 3244 3563 3244 2259 
Q 3244 959 2794 391 
Q 2422 -78 1756 -78 
Q 1088 -78 678 436 
Q 269 950 269 2269 
Q 269 3563 719 4131 
Q 1091 4600 1756 4600 
z
M 1756 3872 
Q 1597 3872 1472 3770 
Q 1347 3669 1278 3406 
Q 1188 3066 1188 2259 
Q 1188 1453 1269 1151 
Q 1350 850 1473 750 
Q 1597 650 1756 650 
Q 1916 650 2041 751 
Q 2166 853 2234 1116 
Q 2325 1453 2325 2259 
Q 2325 3066 2244 3367 
Q 2163 3669 2039 3770 
Q 1916 3872 1756 3872 
z
" transform="scale(0.015625)"/>
       </defs>
       <use xlink:href="#Arial-BoldMT-30"/>
      </g>
     </g>
    </g>
    <g id="ytick_2">
     <g id="line2d_2">
      <g>
       <use xlink:href="#mbb979d6ff0" x="102.1725" y="244.08" style="stroke: #000000; stroke-width: 4"/>
      </g>
     </g>
    </g>
    <g id="ytick_3">
     <g id="line2d_3">
      <g>
       <use xlink:href="#mbb979d6ff0" x="102.1725" y="208.8" style="stroke: #000000; stroke-width: 4"/>
      </g>
     </g>
     <g id="text_2">
      <!-- 0.2 -->
      <g transform="translate(66.6533 214.98435) scale(0.1728 -0.1728)">
       <defs>
        <path id="Arial-BoldMT-2e" d="M 459 0 
L 459 878 
L 1338 878 
L 1338 0 
L 459 0 
z
" transform="scale(0.015625)"/>
        <path id="Arial-BoldMT-32" d="M 3238 816 
L 3238 0 
L 159 0 
Q 209 463 459 877 
Q 709 1291 1447 1975 
Q 2041 2528 2175 2725 
Q 2356 2997 2356 3263 
Q 2356 3556 2198 3714 
Q 2041 3872 1763 3872 
Q 1488 3872 1325 3706 
Q 1163 3541 1138 3156 
L 263 3244 
Q 341 3969 753 4284 
Q 1166 4600 1784 4600 
Q 2463 4600 2850 4234 
Q 3238 3869 3238 3325 
Q 3238 3016 3127 2736 
Q 3016 2456 2775 2150 
Q 2616 1947 2200 1565 
Q 1784 1184 1673 1059 
Q 1563 934 1494 816 
L 3238 816 
z
" transform="scale(0.015625)"/>
       </defs>
       <use xlink:href="#Arial-BoldMT-30"/>
       <use xlink:href="#Arial-BoldMT-2e" x="55.615234"/>
       <use xlink:href="#Arial-BoldMT-32" x="83.398438"/>
      </g>
     </g>
    </g>
    <g id="ytick_4">
     <g id="line2d_4">
      <g>
       <use xlink:href="#mbb979d6ff0" x="102.1725" y="173.52" style="stroke: #000000; stroke-width: 4"/>
      </g>
     </g>
    </g>
    <g id="ytick_5">
     <g id="line2d_5">
      <g>
       <use xlink:href="#mbb979d6ff0" x="102.1725" y="138.24" style="stroke: #000000; stroke-width: 4"/>
      </g>
     </g>
     <g id="text_3">
      <!-- 0.4 -->
      <g transform="translate(66.6533 144.42435) scale(0.1728 -0.1728)">
       <defs>
        <path id="Arial-BoldMT-34" d="M 1994 0 
L 1994 922 
L 119 922 
L 119 1691 
L 2106 4600 
L 2844 4600 
L 2844 1694 
L 3413 1694 
L 3413 922 
L 2844 922 
L 2844 0 
L 1994 0 
z
M 1994 1694 
L 1994 3259 
L 941 1694 
L 1994 1694 
z
" transform="scale(0.015625)"/>
       </defs>
       <use xlink:href="#Arial-BoldMT-30"/>
       <use xlink:href="#Arial-BoldMT-2e" x="55.615234"/>
       <use xlink:href="#Arial-BoldMT-34" x="83.398438"/>
      </g>
     </g>
    </g>
    <g id="ytick_6">
     <g id="line2d_6">
      <g>
       <use xlink:href="#mbb979d6ff0" x="102.1725" y="102.96" style="stroke: #000000; stroke-width: 4"/>
      </g>
     </g>
    </g>
    <g id="ytick_7">
     <g id="line2d_7">
      <g>
       <use xlink:href="#mbb979d6ff0" x="102.1725" y="67.68" style="stroke: #000000; stroke-width: 4"/>
      </g>
     </g>
     <g id="text_4">
      <!-- 0.6 -->
      <g transform="translate(66.6533 73.86435) scale(0.1728 -0.1728)">
       <defs>
        <path id="Arial-BoldMT-36" d="M 3247 3459 
L 2397 3366 
Q 2366 3628 2234 3753 
Q 2103 3878 1894 3878 
Q 1616 3878 1423 3628 
Q 1231 3378 1181 2588 
Q 1509 2975 1997 2975 
Q 2547 2975 2939 2556 
Q 3331 2138 3331 1475 
Q 3331 772 2918 347 
Q 2506 -78 1859 -78 
Q 1166 -78 719 461 
Q 272 1000 272 2228 
Q 272 3488 737 4044 
Q 1203 4600 1947 4600 
Q 2469 4600 2811 4308 
Q 3153 4016 3247 3459 
z
M 1256 1544 
Q 1256 1116 1453 883 
Q 1650 650 1903 650 
Q 2147 650 2309 840 
Q 2472 1031 2472 1466 
Q 2472 1913 2297 2120 
Q 2122 2328 1859 2328 
Q 1606 2328 1431 2129 
Q 1256 1931 1256 1544 
z
" transform="scale(0.015625)"/>
       </defs>
       <use xlink:href="#Arial-BoldMT-30"/>
       <use xlink:href="#Arial-BoldMT-2e" x="55.615234"/>
       <use xlink:href="#Arial-BoldMT-36" x="83.398438"/>
      </g>
     </g>
    </g>
    <g id="text_5">
     <!-- . -->
     <g style="fill: #ffffff" transform="translate(58.2189 175.9203) rotate(-90) scale(0.1728 -0.1728)">
      <defs>
       <path id="ArialMT-2e" d="M 581 0 
L 581 641 
L 1222 641 
L 1222 0 
L 581 0 
z
" transform="scale(0.015625)"/>
      </defs>
      <use xlink:href="#ArialMT-2e"/>
     </g>
    </g>
   </g>
   <g id="LineCollection_1">
    <path d="M 127.646413 155.485267 
L 127.646413 119.896901 
" clip-path="url(#p0a28060843)" style="fill: none; stroke: #76bb4b; stroke-opacity: 0.8; stroke-width: 5"/>
    <path d="M 178.594239 260.787572 
L 178.594239 235.992553 
" clip-path="url(#p0a28060843)" style="fill: none; stroke: #76bb4b; stroke-opacity: 0.8; stroke-width: 5"/>
   </g>
   <g id="line2d_8">
    <defs>
     <path id="m77c7bc837e" d="M 8 0 
L -8 -0 
" style="stroke: #76bb4b; stroke-opacity: 0.8; stroke-width: 4"/>
    </defs>
    <g clip-path="url(#p0a28060843)">
     <use xlink:href="#m77c7bc837e" x="127.646413" y="155.485267" style="fill: #76bb4b; fill-opacity: 0.8; stroke: #76bb4b; stroke-opacity: 0.8; stroke-width: 4"/>
     <use xlink:href="#m77c7bc837e" x="178.594239" y="260.787572" style="fill: #76bb4b; fill-opacity: 0.8; stroke: #76bb4b; stroke-opacity: 0.8; stroke-width: 4"/>
    </g>
   </g>
   <g id="line2d_9">
    <g clip-path="url(#p0a28060843)">
     <use xlink:href="#m77c7bc837e" x="127.646413" y="119.896901" style="fill: #76bb4b; fill-opacity: 0.8; stroke: #76bb4b; stroke-opacity: 0.8; stroke-width: 4"/>
     <use xlink:href="#m77c7bc837e" x="178.594239" y="235.992553" style="fill: #76bb4b; fill-opacity: 0.8; stroke: #76bb4b; stroke-opacity: 0.8; stroke-width: 4"/>
    </g>
   </g>
   <g id="line2d_10">
    <path d="M 127.646413 100.757424 
L 178.594239 100.757424 
" clip-path="url(#p0a28060843)" style="fill: none; stroke: #76bb4b; stroke-width: 3; stroke-linecap: square"/>
   </g>
   <g id="patch_5">
    <path d="M 102.1725 279.36 
L 102.1725 67.68 
" style="fill: none; stroke: #000000; stroke-width: 4; stroke-linejoin: miter; stroke-linecap: square"/>
   </g>
   <g id="text_6">
    <!-- *** -->
    <g style="fill: #76bb4b" transform="translate(141.014066 103.420196) scale(0.20736 -0.20736)">
     <defs>
      <path id="Arial-BoldMT-2a" d="M 766 2475 
L 294 2841 
Q 519 3094 763 3325 
Q 859 3419 884 3444 
Q 806 3456 438 3547 
Q 172 3613 88 3644 
L 272 4194 
Q 681 4028 1003 3828 
Q 928 4338 928 4659 
L 1484 4659 
Q 1484 4431 1400 3822 
Q 1463 3847 1669 3944 
Q 1950 4072 2188 4163 
L 2353 3597 
Q 2006 3519 1550 3444 
L 1925 3022 
Q 2038 2894 2103 2813 
L 1625 2497 
L 1203 3194 
Q 1013 2856 766 2475 
z
" transform="scale(0.015625)"/>
     </defs>
     <use xlink:href="#Arial-BoldMT-2a"/>
     <use xlink:href="#Arial-BoldMT-2a" x="38.916016"/>
     <use xlink:href="#Arial-BoldMT-2a" x="77.832031"/>
    </g>
   </g>
   <g id="text_7">
    <!-- L2/3 Pyr -->
    <g transform="translate(119.502626 61.68) scale(0.1728 -0.1728)">
     <defs>
      <path id="Arial-BoldMT-4c" d="M 491 0 
L 491 4544 
L 1416 4544 
L 1416 772 
L 3716 772 
L 3716 0 
L 491 0 
z
" transform="scale(0.015625)"/>
      <path id="Arial-BoldMT-2f" d="M -9 -78 
L 1125 4659 
L 1784 4659 
L 638 -78 
L -9 -78 
z
" transform="scale(0.015625)"/>
      <path id="Arial-BoldMT-33" d="M 241 1216 
L 1091 1319 
Q 1131 994 1309 822 
Q 1488 650 1741 650 
Q 2013 650 2198 856 
Q 2384 1063 2384 1413 
Q 2384 1744 2206 1937 
Q 2028 2131 1772 2131 
Q 1603 2131 1369 2066 
L 1466 2781 
Q 1822 2772 2009 2936 
Q 2197 3100 2197 3372 
Q 2197 3603 2059 3740 
Q 1922 3878 1694 3878 
Q 1469 3878 1309 3722 
Q 1150 3566 1116 3266 
L 306 3403 
Q 391 3819 561 4067 
Q 731 4316 1036 4458 
Q 1341 4600 1719 4600 
Q 2366 4600 2756 4188 
Q 3078 3850 3078 3425 
Q 3078 2822 2419 2463 
Q 2813 2378 3048 2084 
Q 3284 1791 3284 1375 
Q 3284 772 2843 347 
Q 2403 -78 1747 -78 
Q 1125 -78 715 280 
Q 306 638 241 1216 
z
" transform="scale(0.015625)"/>
      <path id="Arial-BoldMT-20" transform="scale(0.015625)"/>
      <path id="Arial-BoldMT-50" d="M 466 0 
L 466 4581 
L 1950 4581 
Q 2794 4581 3050 4513 
Q 3444 4409 3709 4064 
Q 3975 3719 3975 3172 
Q 3975 2750 3822 2462 
Q 3669 2175 3433 2011 
Q 3197 1847 2953 1794 
Q 2622 1728 1994 1728 
L 1391 1728 
L 1391 0 
L 466 0 
z
M 1391 3806 
L 1391 2506 
L 1897 2506 
Q 2444 2506 2628 2578 
Q 2813 2650 2917 2803 
Q 3022 2956 3022 3159 
Q 3022 3409 2875 3571 
Q 2728 3734 2503 3775 
Q 2338 3806 1838 3806 
L 1391 3806 
z
" transform="scale(0.015625)"/>
      <path id="Arial-BoldMT-79" d="M 44 3319 
L 978 3319 
L 1772 963 
L 2547 3319 
L 3456 3319 
L 2284 125 
L 2075 -453 
Q 1959 -744 1854 -897 
Q 1750 -1050 1614 -1145 
Q 1478 -1241 1279 -1294 
Q 1081 -1347 831 -1347 
Q 578 -1347 334 -1294 
L 256 -606 
Q 463 -647 628 -647 
Q 934 -647 1081 -467 
Q 1228 -288 1306 -9 
L 44 3319 
z
" transform="scale(0.015625)"/>
      <path id="Arial-BoldMT-72" d="M 1300 0 
L 422 0 
L 422 3319 
L 1238 3319 
L 1238 2847 
Q 1447 3181 1614 3287 
Q 1781 3394 1994 3394 
Q 2294 3394 2572 3228 
L 2300 2463 
Q 2078 2606 1888 2606 
Q 1703 2606 1575 2504 
Q 1447 2403 1373 2137 
Q 1300 1872 1300 1025 
L 1300 0 
z
" transform="scale(0.015625)"/>
     </defs>
     <use xlink:href="#Arial-BoldMT-4c"/>
     <use xlink:href="#Arial-BoldMT-32" x="61.083984"/>
     <use xlink:href="#Arial-BoldMT-2f" x="116.699219"/>
     <use xlink:href="#Arial-BoldMT-33" x="144.482422"/>
     <use xlink:href="#Arial-BoldMT-20" x="200.097656"/>
     <use xlink:href="#Arial-BoldMT-50" x="227.880859"/>
     <use xlink:href="#Arial-BoldMT-79" x="294.580078"/>
     <use xlink:href="#Arial-BoldMT-72" x="350.195312"/>
    </g>
   </g>
  </g>
  <g id="axes_2">
   <g id="patch_6">
    <path d="M 234.636848 279.36 
L 336.5325 279.36 
L 336.5325 67.68 
L 234.636848 67.68 
z
" style="fill: #ffffff"/>
   </g>
   <g id="patch_7">
    <path d="M 247.373804 279.36 
L 272.847717 279.36 
L 272.847717 126.567984 
L 247.373804 126.567984 
z
" clip-path="url(#pa7e6f362f4)" style="fill: #488a21; fill-opacity: 0.5; stroke-dasharray: 15,10; stroke-dashoffset: 0; stroke: #488a21; stroke-width: 5; stroke-linejoin: miter"/>
   </g>
   <g id="patch_8">
    <path d="M 298.32163 279.36 
L 323.795543 279.36 
L 323.795543 251.954783 
L 298.32163 251.954783 
z
" clip-path="url(#pa7e6f362f4)" style="fill: #488a21; fill-opacity: 0.5; stroke-dasharray: 15,10; stroke-dashoffset: 0; stroke: #488a21; stroke-width: 5; stroke-linejoin: miter"/>
   </g>
   <g id="matplotlib.axis_3">
    <g id="xtick_3"/>
    <g id="xtick_4"/>
   </g>
   <g id="matplotlib.axis_4">
    <g id="ytick_8">
     <g id="line2d_11">
      <g>
       <use xlink:href="#mbb979d6ff0" x="234.636848" y="279.36" style="stroke: #000000; stroke-width: 4"/>
      </g>
     </g>
    </g>
    <g id="ytick_9">
     <g id="line2d_12">
      <g>
       <use xlink:href="#mbb979d6ff0" x="234.636848" y="244.08" style="stroke: #000000; stroke-width: 4"/>
      </g>
     </g>
    </g>
    <g id="ytick_10">
     <g id="line2d_13">
      <g>
       <use xlink:href="#mbb979d6ff0" x="234.636848" y="208.8" style="stroke: #000000; stroke-width: 4"/>
      </g>
     </g>
    </g>
    <g id="ytick_11">
     <g id="line2d_14">
      <g>
       <use xlink:href="#mbb979d6ff0" x="234.636848" y="173.52" style="stroke: #000000; stroke-width: 4"/>
      </g>
     </g>
    </g>
    <g id="ytick_12">
     <g id="line2d_15">
      <g>
       <use xlink:href="#mbb979d6ff0" x="234.636848" y="138.24" style="stroke: #000000; stroke-width: 4"/>
      </g>
     </g>
    </g>
    <g id="ytick_13">
     <g id="line2d_16">
      <g>
       <use xlink:href="#mbb979d6ff0" x="234.636848" y="102.96" style="stroke: #000000; stroke-width: 4"/>
      </g>
     </g>
    </g>
    <g id="ytick_14">
     <g id="line2d_17">
      <g>
       <use xlink:href="#mbb979d6ff0" x="234.636848" y="67.68" style="stroke: #000000; stroke-width: 4"/>
      </g>
     </g>
    </g>
   </g>
   <g id="LineCollection_2">
    <path d="M 260.110761 139.48573 
L 260.110761 113.650238 
" clip-path="url(#pa7e6f362f4)" style="fill: none; stroke: #488a21; stroke-opacity: 0.8; stroke-width: 5"/>
    <path d="M 311.058587 260.775924 
L 311.058587 243.133643 
" clip-path="url(#pa7e6f362f4)" style="fill: none; stroke: #488a21; stroke-opacity: 0.8; stroke-width: 5"/>
   </g>
   <g id="line2d_18">
    <defs>
     <path id="m4ac4337525" d="M 8 0 
L -8 -0 
" style="stroke: #488a21; stroke-opacity: 0.8; stroke-width: 4"/>
    </defs>
    <g clip-path="url(#pa7e6f362f4)">
     <use xlink:href="#m4ac4337525" x="260.110761" y="139.48573" style="fill: #488a21; fill-opacity: 0.8; stroke: #488a21; stroke-opacity: 0.8; stroke-width: 4"/>
     <use xlink:href="#m4ac4337525" x="311.058587" y="260.775924" style="fill: #488a21; fill-opacity: 0.8; stroke: #488a21; stroke-opacity: 0.8; stroke-width: 4"/>
    </g>
   </g>
   <g id="line2d_19">
    <g clip-path="url(#pa7e6f362f4)">
     <use xlink:href="#m4ac4337525" x="260.110761" y="113.650238" style="fill: #488a21; fill-opacity: 0.8; stroke: #488a21; stroke-opacity: 0.8; stroke-width: 4"/>
     <use xlink:href="#m4ac4337525" x="311.058587" y="243.133643" style="fill: #488a21; fill-opacity: 0.8; stroke: #488a21; stroke-opacity: 0.8; stroke-width: 4"/>
    </g>
   </g>
   <g id="line2d_20">
    <path d="M 260.110761 93.021641 
L 311.058587 93.021641 
" clip-path="url(#pa7e6f362f4)" style="fill: none; stroke: #488a21; stroke-width: 3; stroke-linecap: square"/>
   </g>
   <g id="patch_9">
    <path d="M 234.636848 279.36 
L 234.636848 67.68 
" style="fill: none; stroke: #000000; stroke-width: 4; stroke-linejoin: miter; stroke-linecap: square"/>
   </g>
   <g id="text_8">
    <!-- *** -->
    <g style="fill: #488a21" transform="translate(273.478414 94.736791) scale(0.20736 -0.20736)">
     <use xlink:href="#Arial-BoldMT-2a"/>
     <use xlink:href="#Arial-BoldMT-2a" x="38.916016"/>
     <use xlink:href="#Arial-BoldMT-2a" x="77.832031"/>
    </g>
   </g>
   <g id="text_9">
    <!-- L5 Pyr -->
    <g transform="translate(259.171924 61.68) scale(0.1728 -0.1728)">
     <defs>
      <path id="Arial-BoldMT-35" d="M 284 1178 
L 1159 1269 
Q 1197 972 1381 798 
Q 1566 625 1806 625 
Q 2081 625 2272 848 
Q 2463 1072 2463 1522 
Q 2463 1944 2273 2155 
Q 2084 2366 1781 2366 
Q 1403 2366 1103 2031 
L 391 2134 
L 841 4519 
L 3163 4519 
L 3163 3697 
L 1506 3697 
L 1369 2919 
Q 1663 3066 1969 3066 
Q 2553 3066 2959 2641 
Q 3366 2216 3366 1538 
Q 3366 972 3038 528 
Q 2591 -78 1797 -78 
Q 1163 -78 763 262 
Q 363 603 284 1178 
z
" transform="scale(0.015625)"/>
     </defs>
     <use xlink:href="#Arial-BoldMT-4c"/>
     <use xlink:href="#Arial-BoldMT-35" x="61.083984"/>
     <use xlink:href="#Arial-BoldMT-20" x="116.699219"/>
     <use xlink:href="#Arial-BoldMT-50" x="144.482422"/>
     <use xlink:href="#Arial-BoldMT-79" x="211.181641"/>
     <use xlink:href="#Arial-BoldMT-72" x="266.796875"/>
    </g>
   </g>
  </g>
  <g id="axes_3">
   <g id="patch_10">
    <path d="M 102.1725 533.376 
L 204.068152 533.376 
L 204.068152 321.696 
L 102.1725 321.696 
z
" style="fill: #ffffff"/>
   </g>
   <g id="patch_11">
    <path d="M 114.909457 533.376 
L 140.38337 533.376 
L 140.38337 385.728682 
L 114.909457 385.728682 
z
" clip-path="url(#p427bab94fa)" style="fill: #50a2d5; fill-opacity: 0.5; stroke: #50a2d5; stroke-width: 5; stroke-linejoin: miter"/>
   </g>
   <g id="patch_12">
    <path d="M 165.857283 533.376 
L 191.331196 533.376 
L 191.331196 522.010961 
L 165.857283 522.010961 
z
" clip-path="url(#p427bab94fa)" style="fill: #50a2d5; fill-opacity: 0.5; stroke: #50a2d5; stroke-width: 5; stroke-linejoin: miter"/>
   </g>
   <g id="matplotlib.axis_5">
    <g id="xtick_5">
     <g id="text_10">
      <!-- gabors -->
      <g transform="translate(84.340295 594.356433) rotate(-45) scale(0.1728 -0.1728)">
       <defs>
        <path id="Arial-BoldMT-67" d="M 378 -219 
L 1381 -341 
Q 1406 -516 1497 -581 
Q 1622 -675 1891 -675 
Q 2234 -675 2406 -572 
Q 2522 -503 2581 -350 
Q 2622 -241 2622 53 
L 2622 538 
Q 2228 0 1628 0 
Q 959 0 569 566 
Q 263 1013 263 1678 
Q 263 2513 664 2953 
Q 1066 3394 1663 3394 
Q 2278 3394 2678 2853 
L 2678 3319 
L 3500 3319 
L 3500 341 
Q 3500 -247 3403 -537 
Q 3306 -828 3131 -993 
Q 2956 -1159 2664 -1253 
Q 2372 -1347 1925 -1347 
Q 1081 -1347 728 -1058 
Q 375 -769 375 -325 
Q 375 -281 378 -219 
z
M 1163 1728 
Q 1163 1200 1367 954 
Q 1572 709 1872 709 
Q 2194 709 2416 961 
Q 2638 1213 2638 1706 
Q 2638 2222 2425 2472 
Q 2213 2722 1888 2722 
Q 1572 2722 1367 2476 
Q 1163 2231 1163 1728 
z
" transform="scale(0.015625)"/>
        <path id="Arial-BoldMT-61" d="M 1116 2306 
L 319 2450 
Q 453 2931 781 3162 
Q 1109 3394 1756 3394 
Q 2344 3394 2631 3255 
Q 2919 3116 3036 2902 
Q 3153 2688 3153 2116 
L 3144 1091 
Q 3144 653 3186 445 
Q 3228 238 3344 0 
L 2475 0 
Q 2441 88 2391 259 
Q 2369 338 2359 363 
Q 2134 144 1878 34 
Q 1622 -75 1331 -75 
Q 819 -75 523 203 
Q 228 481 228 906 
Q 228 1188 362 1408 
Q 497 1628 739 1745 
Q 981 1863 1438 1950 
Q 2053 2066 2291 2166 
L 2291 2253 
Q 2291 2506 2166 2614 
Q 2041 2722 1694 2722 
Q 1459 2722 1328 2630 
Q 1197 2538 1116 2306 
z
M 2291 1594 
Q 2122 1538 1756 1459 
Q 1391 1381 1278 1306 
Q 1106 1184 1106 997 
Q 1106 813 1243 678 
Q 1381 544 1594 544 
Q 1831 544 2047 700 
Q 2206 819 2256 991 
Q 2291 1103 2291 1419 
L 2291 1594 
z
" transform="scale(0.015625)"/>
        <path id="Arial-BoldMT-62" d="M 422 0 
L 422 4581 
L 1300 4581 
L 1300 2931 
Q 1706 3394 2263 3394 
Q 2869 3394 3266 2955 
Q 3663 2516 3663 1694 
Q 3663 844 3258 384 
Q 2853 -75 2275 -75 
Q 1991 -75 1714 67 
Q 1438 209 1238 488 
L 1238 0 
L 422 0 
z
M 1294 1731 
Q 1294 1216 1456 969 
Q 1684 619 2063 619 
Q 2353 619 2558 867 
Q 2763 1116 2763 1650 
Q 2763 2219 2556 2470 
Q 2350 2722 2028 2722 
Q 1713 2722 1503 2476 
Q 1294 2231 1294 1731 
z
" transform="scale(0.015625)"/>
        <path id="Arial-BoldMT-6f" d="M 256 1706 
Q 256 2144 472 2553 
Q 688 2963 1083 3178 
Q 1478 3394 1966 3394 
Q 2719 3394 3200 2905 
Q 3681 2416 3681 1669 
Q 3681 916 3195 420 
Q 2709 -75 1972 -75 
Q 1516 -75 1102 131 
Q 688 338 472 736 
Q 256 1134 256 1706 
z
M 1156 1659 
Q 1156 1166 1390 903 
Q 1625 641 1969 641 
Q 2313 641 2545 903 
Q 2778 1166 2778 1666 
Q 2778 2153 2545 2415 
Q 2313 2678 1969 2678 
Q 1625 2678 1390 2415 
Q 1156 2153 1156 1659 
z
" transform="scale(0.015625)"/>
        <path id="Arial-BoldMT-73" d="M 150 947 
L 1031 1081 
Q 1088 825 1259 692 
Q 1431 559 1741 559 
Q 2081 559 2253 684 
Q 2369 772 2369 919 
Q 2369 1019 2306 1084 
Q 2241 1147 2013 1200 
Q 950 1434 666 1628 
Q 272 1897 272 2375 
Q 272 2806 612 3100 
Q 953 3394 1669 3394 
Q 2350 3394 2681 3172 
Q 3013 2950 3138 2516 
L 2309 2363 
Q 2256 2556 2107 2659 
Q 1959 2763 1684 2763 
Q 1338 2763 1188 2666 
Q 1088 2597 1088 2488 
Q 1088 2394 1175 2328 
Q 1294 2241 1995 2081 
Q 2697 1922 2975 1691 
Q 3250 1456 3250 1038 
Q 3250 581 2869 253 
Q 2488 -75 1741 -75 
Q 1063 -75 667 200 
Q 272 475 150 947 
z
" transform="scale(0.015625)"/>
       </defs>
       <use xlink:href="#Arial-BoldMT-67"/>
       <use xlink:href="#Arial-BoldMT-61" x="61.083984"/>
       <use xlink:href="#Arial-BoldMT-62" x="116.699219"/>
       <use xlink:href="#Arial-BoldMT-6f" x="177.783203"/>
       <use xlink:href="#Arial-BoldMT-72" x="238.867188"/>
       <use xlink:href="#Arial-BoldMT-73" x="277.783203"/>
      </g>
     </g>
    </g>
    <g id="xtick_6">
     <g id="text_11">
      <!-- visflow -->
      <g transform="translate(134.768821 595.036104) rotate(-45) scale(0.1728 -0.1728)">
       <defs>
        <path id="Arial-BoldMT-76" d="M 1372 0 
L 34 3319 
L 956 3319 
L 1581 1625 
L 1763 1059 
Q 1834 1275 1853 1344 
Q 1897 1484 1947 1625 
L 2578 3319 
L 3481 3319 
L 2163 0 
L 1372 0 
z
" transform="scale(0.015625)"/>
        <path id="Arial-BoldMT-69" d="M 459 3769 
L 459 4581 
L 1338 4581 
L 1338 3769 
L 459 3769 
z
M 459 0 
L 459 3319 
L 1338 3319 
L 1338 0 
L 459 0 
z
" transform="scale(0.015625)"/>
        <path id="Arial-BoldMT-66" d="M 75 3319 
L 563 3319 
L 563 3569 
Q 563 3988 652 4194 
Q 741 4400 980 4529 
Q 1219 4659 1584 4659 
Q 1959 4659 2319 4547 
L 2200 3934 
Q 1991 3984 1797 3984 
Q 1606 3984 1523 3895 
Q 1441 3806 1441 3553 
L 1441 3319 
L 2097 3319 
L 2097 2628 
L 1441 2628 
L 1441 0 
L 563 0 
L 563 2628 
L 75 2628 
L 75 3319 
z
" transform="scale(0.015625)"/>
        <path id="Arial-BoldMT-6c" d="M 459 0 
L 459 4581 
L 1338 4581 
L 1338 0 
L 459 0 
z
" transform="scale(0.015625)"/>
        <path id="Arial-BoldMT-77" d="M 1078 0 
L 28 3319 
L 881 3319 
L 1503 1144 
L 2075 3319 
L 2922 3319 
L 3475 1144 
L 4109 3319 
L 4975 3319 
L 3909 0 
L 3066 0 
L 2494 2134 
L 1931 0 
L 1078 0 
z
" transform="scale(0.015625)"/>
       </defs>
       <use xlink:href="#Arial-BoldMT-76"/>
       <use xlink:href="#Arial-BoldMT-69" x="55.615234"/>
       <use xlink:href="#Arial-BoldMT-73" x="83.398438"/>
       <use xlink:href="#Arial-BoldMT-66" x="139.013672"/>
       <use xlink:href="#Arial-BoldMT-6c" x="172.314453"/>
       <use xlink:href="#Arial-BoldMT-6f" x="200.097656"/>
       <use xlink:href="#Arial-BoldMT-77" x="261.181641"/>
      </g>
     </g>
    </g>
   </g>
   <g id="matplotlib.axis_6">
    <g id="ytick_15">
     <g id="line2d_21">
      <g>
       <use xlink:href="#mbb979d6ff0" x="102.1725" y="533.376" style="stroke: #000000; stroke-width: 4"/>
      </g>
     </g>
     <g id="text_12">
      <!-- 0 -->
      <g transform="translate(81.0632 539.56035) scale(0.1728 -0.1728)">
       <use xlink:href="#Arial-BoldMT-30"/>
      </g>
     </g>
    </g>
    <g id="ytick_16">
     <g id="line2d_22">
      <g>
       <use xlink:href="#mbb979d6ff0" x="102.1725" y="498.096" style="stroke: #000000; stroke-width: 4"/>
      </g>
     </g>
    </g>
    <g id="ytick_17">
     <g id="line2d_23">
      <g>
       <use xlink:href="#mbb979d6ff0" x="102.1725" y="462.816" style="stroke: #000000; stroke-width: 4"/>
      </g>
     </g>
     <g id="text_13">
      <!-- 0.4 -->
      <g transform="translate(66.6533 469.00035) scale(0.1728 -0.1728)">
       <use xlink:href="#Arial-BoldMT-30"/>
       <use xlink:href="#Arial-BoldMT-2e" x="55.615234"/>
       <use xlink:href="#Arial-BoldMT-34" x="83.398438"/>
      </g>
     </g>
    </g>
    <g id="ytick_18">
     <g id="line2d_24">
      <g>
       <use xlink:href="#mbb979d6ff0" x="102.1725" y="427.536" style="stroke: #000000; stroke-width: 4"/>
      </g>
     </g>
    </g>
    <g id="ytick_19">
     <g id="line2d_25">
      <g>
       <use xlink:href="#mbb979d6ff0" x="102.1725" y="392.256" style="stroke: #000000; stroke-width: 4"/>
      </g>
     </g>
     <g id="text_14">
      <!-- 0.8 -->
      <g transform="translate(66.6533 398.44035) scale(0.1728 -0.1728)">
       <defs>
        <path id="Arial-BoldMT-38" d="M 1025 2472 
Q 684 2616 529 2867 
Q 375 3119 375 3419 
Q 375 3931 733 4265 
Q 1091 4600 1750 4600 
Q 2403 4600 2764 4265 
Q 3125 3931 3125 3419 
Q 3125 3100 2959 2851 
Q 2794 2603 2494 2472 
Q 2875 2319 3073 2025 
Q 3272 1731 3272 1347 
Q 3272 713 2867 316 
Q 2463 -81 1791 -81 
Q 1166 -81 750 247 
Q 259 634 259 1309 
Q 259 1681 443 1992 
Q 628 2303 1025 2472 
z
M 1206 3356 
Q 1206 3094 1354 2947 
Q 1503 2800 1750 2800 
Q 2000 2800 2150 2948 
Q 2300 3097 2300 3359 
Q 2300 3606 2151 3754 
Q 2003 3903 1759 3903 
Q 1506 3903 1356 3753 
Q 1206 3603 1206 3356 
z
M 1125 1394 
Q 1125 1031 1311 828 
Q 1497 625 1775 625 
Q 2047 625 2225 820 
Q 2403 1016 2403 1384 
Q 2403 1706 2222 1901 
Q 2041 2097 1763 2097 
Q 1441 2097 1283 1875 
Q 1125 1653 1125 1394 
z
" transform="scale(0.015625)"/>
       </defs>
       <use xlink:href="#Arial-BoldMT-30"/>
       <use xlink:href="#Arial-BoldMT-2e" x="55.615234"/>
       <use xlink:href="#Arial-BoldMT-38" x="83.398438"/>
      </g>
     </g>
    </g>
    <g id="ytick_20">
     <g id="line2d_26">
      <g>
       <use xlink:href="#mbb979d6ff0" x="102.1725" y="356.976" style="stroke: #000000; stroke-width: 4"/>
      </g>
     </g>
    </g>
    <g id="ytick_21">
     <g id="line2d_27">
      <g>
       <use xlink:href="#mbb979d6ff0" x="102.1725" y="321.696" style="stroke: #000000; stroke-width: 4"/>
      </g>
     </g>
     <g id="text_15">
      <!-- 1.2 -->
      <g transform="translate(66.6533 327.88035) scale(0.1728 -0.1728)">
       <defs>
        <path id="Arial-BoldMT-31" d="M 2519 0 
L 1641 0 
L 1641 3309 
Q 1159 2859 506 2644 
L 506 3441 
Q 850 3553 1253 3867 
Q 1656 4181 1806 4600 
L 2519 4600 
L 2519 0 
z
" transform="scale(0.015625)"/>
       </defs>
       <use xlink:href="#Arial-BoldMT-31"/>
       <use xlink:href="#Arial-BoldMT-2e" x="55.615234"/>
       <use xlink:href="#Arial-BoldMT-32" x="83.398438"/>
      </g>
     </g>
    </g>
   </g>
   <g id="LineCollection_3">
    <path d="M 127.646413 398.514886 
L 127.646413 372.942478 
" clip-path="url(#p427bab94fa)" style="fill: none; stroke: #50a2d5; stroke-opacity: 0.8; stroke-width: 5"/>
    <path d="M 178.594239 537.447638 
L 178.594239 506.574284 
" clip-path="url(#p427bab94fa)" style="fill: none; stroke: #50a2d5; stroke-opacity: 0.8; stroke-width: 5"/>
   </g>
   <g id="line2d_28">
    <defs>
     <path id="m660065ac45" d="M 8 0 
L -8 -0 
" style="stroke: #50a2d5; stroke-opacity: 0.8; stroke-width: 4"/>
    </defs>
    <g clip-path="url(#p427bab94fa)">
     <use xlink:href="#m660065ac45" x="127.646413" y="398.514886" style="fill: #50a2d5; fill-opacity: 0.8; stroke: #50a2d5; stroke-opacity: 0.8; stroke-width: 4"/>
     <use xlink:href="#m660065ac45" x="178.594239" y="537.447638" style="fill: #50a2d5; fill-opacity: 0.8; stroke: #50a2d5; stroke-opacity: 0.8; stroke-width: 4"/>
    </g>
   </g>
   <g id="line2d_29">
    <g clip-path="url(#p427bab94fa)">
     <use xlink:href="#m660065ac45" x="127.646413" y="372.942478" style="fill: #50a2d5; fill-opacity: 0.8; stroke: #50a2d5; stroke-opacity: 0.8; stroke-width: 4"/>
     <use xlink:href="#m660065ac45" x="178.594239" y="506.574284" style="fill: #50a2d5; fill-opacity: 0.8; stroke: #50a2d5; stroke-opacity: 0.8; stroke-width: 4"/>
    </g>
   </g>
   <g id="line2d_30">
    <path d="M 127.646413 353.037354 
L 178.594239 353.037354 
" clip-path="url(#p427bab94fa)" style="fill: none; stroke: #50a2d5; stroke-width: 3; stroke-linecap: square"/>
   </g>
   <g id="patch_13">
    <path d="M 102.1725 533.376 
L 102.1725 321.696 
" style="fill: none; stroke: #000000; stroke-width: 4; stroke-linejoin: miter; stroke-linecap: square"/>
   </g>
   <g id="patch_14">
    <path d="M 102.1725 533.376 
L 204.068152 533.376 
" style="fill: none; stroke: #000000; stroke-width: 4; stroke-linejoin: miter; stroke-linecap: square"/>
   </g>
   <g id="text_16">
    <!-- *** -->
    <g style="fill: #50a2d5" transform="translate(141.014066 355.212897) scale(0.20736 -0.20736)">
     <use xlink:href="#Arial-BoldMT-2a"/>
     <use xlink:href="#Arial-BoldMT-2a" x="38.916016"/>
     <use xlink:href="#Arial-BoldMT-2a" x="77.832031"/>
    </g>
   </g>
  </g>
  <g id="axes_4">
   <g id="patch_15">
    <path d="M 234.636848 533.376 
L 336.5325 533.376 
L 336.5325 321.696 
L 234.636848 321.696 
z
" style="fill: #ffffff"/>
   </g>
   <g id="patch_16">
    <path d="M 247.373804 533.376 
L 272.847717 533.376 
L 272.847717 461.394089 
L 247.373804 461.394089 
z
" clip-path="url(#p270ad7f258)" style="fill: #22567a; fill-opacity: 0.5; stroke-dasharray: 15,10; stroke-dashoffset: 0; stroke: #22567a; stroke-width: 5; stroke-linejoin: miter"/>
   </g>
   <g id="patch_17">
    <path d="M 298.32163 533.376 
L 323.795543 533.376 
L 323.795543 513.17124 
L 298.32163 513.17124 
z
" clip-path="url(#p270ad7f258)" style="fill: #22567a; fill-opacity: 0.5; stroke-dasharray: 15,10; stroke-dashoffset: 0; stroke: #22567a; stroke-width: 5; stroke-linejoin: miter"/>
   </g>
   <g id="matplotlib.axis_7">
    <g id="xtick_7">
     <g id="text_17">
      <!-- gabors -->
      <g transform="translate(216.804642 594.356433) rotate(-45) scale(0.1728 -0.1728)">
       <use xlink:href="#Arial-BoldMT-67"/>
       <use xlink:href="#Arial-BoldMT-61" x="61.083984"/>
       <use xlink:href="#Arial-BoldMT-62" x="116.699219"/>
       <use xlink:href="#Arial-BoldMT-6f" x="177.783203"/>
       <use xlink:href="#Arial-BoldMT-72" x="238.867188"/>
       <use xlink:href="#Arial-BoldMT-73" x="277.783203"/>
      </g>
     </g>
    </g>
    <g id="xtick_8">
     <g id="text_18">
      <!-- visflow -->
      <g transform="translate(267.233169 595.036104) rotate(-45) scale(0.1728 -0.1728)">
       <use xlink:href="#Arial-BoldMT-76"/>
       <use xlink:href="#Arial-BoldMT-69" x="55.615234"/>
       <use xlink:href="#Arial-BoldMT-73" x="83.398438"/>
       <use xlink:href="#Arial-BoldMT-66" x="139.013672"/>
       <use xlink:href="#Arial-BoldMT-6c" x="172.314453"/>
       <use xlink:href="#Arial-BoldMT-6f" x="200.097656"/>
       <use xlink:href="#Arial-BoldMT-77" x="261.181641"/>
      </g>
     </g>
    </g>
   </g>
   <g id="matplotlib.axis_8">
    <g id="ytick_22">
     <g id="line2d_31">
      <g>
       <use xlink:href="#mbb979d6ff0" x="234.636848" y="533.376" style="stroke: #000000; stroke-width: 4"/>
      </g>
     </g>
    </g>
    <g id="ytick_23">
     <g id="line2d_32">
      <g>
       <use xlink:href="#mbb979d6ff0" x="234.636848" y="498.096" style="stroke: #000000; stroke-width: 4"/>
      </g>
     </g>
    </g>
    <g id="ytick_24">
     <g id="line2d_33">
      <g>
       <use xlink:href="#mbb979d6ff0" x="234.636848" y="462.816" style="stroke: #000000; stroke-width: 4"/>
      </g>
     </g>
    </g>
    <g id="ytick_25">
     <g id="line2d_34">
      <g>
       <use xlink:href="#mbb979d6ff0" x="234.636848" y="427.536" style="stroke: #000000; stroke-width: 4"/>
      </g>
     </g>
    </g>
    <g id="ytick_26">
     <g id="line2d_35">
      <g>
       <use xlink:href="#mbb979d6ff0" x="234.636848" y="392.256" style="stroke: #000000; stroke-width: 4"/>
      </g>
     </g>
    </g>
    <g id="ytick_27">
     <g id="line2d_36">
      <g>
       <use xlink:href="#mbb979d6ff0" x="234.636848" y="356.976" style="stroke: #000000; stroke-width: 4"/>
      </g>
     </g>
    </g>
    <g id="ytick_28">
     <g id="line2d_37">
      <g>
       <use xlink:href="#mbb979d6ff0" x="234.636848" y="321.696" style="stroke: #000000; stroke-width: 4"/>
      </g>
     </g>
    </g>
   </g>
   <g id="LineCollection_4">
    <path d="M 260.110761 487.345045 
L 260.110761 435.443134 
" clip-path="url(#p270ad7f258)" style="fill: none; stroke: #22567a; stroke-opacity: 0.8; stroke-width: 5"/>
    <path d="M 311.058587 528.557443 
L 311.058587 497.785036 
" clip-path="url(#p270ad7f258)" style="fill: none; stroke: #22567a; stroke-opacity: 0.8; stroke-width: 5"/>
   </g>
   <g id="line2d_38">
    <defs>
     <path id="me812719987" d="M 8 0 
L -8 -0 
" style="stroke: #22567a; stroke-opacity: 0.8; stroke-width: 4"/>
    </defs>
    <g clip-path="url(#p270ad7f258)">
     <use xlink:href="#me812719987" x="260.110761" y="487.345045" style="fill: #22567a; fill-opacity: 0.8; stroke: #22567a; stroke-opacity: 0.8; stroke-width: 4"/>
     <use xlink:href="#me812719987" x="311.058587" y="528.557443" style="fill: #22567a; fill-opacity: 0.8; stroke: #22567a; stroke-opacity: 0.8; stroke-width: 4"/>
    </g>
   </g>
   <g id="line2d_39">
    <g clip-path="url(#p270ad7f258)">
     <use xlink:href="#me812719987" x="260.110761" y="435.443134" style="fill: #22567a; fill-opacity: 0.8; stroke: #22567a; stroke-opacity: 0.8; stroke-width: 4"/>
     <use xlink:href="#me812719987" x="311.058587" y="497.785036" style="fill: #22567a; fill-opacity: 0.8; stroke: #22567a; stroke-opacity: 0.8; stroke-width: 4"/>
    </g>
   </g>
   <g id="patch_18">
    <path d="M 234.636848 533.376 
L 234.636848 321.696 
" style="fill: none; stroke: #000000; stroke-width: 4; stroke-linejoin: miter; stroke-linecap: square"/>
   </g>
   <g id="patch_19">
    <path d="M 234.636848 533.376 
L 336.5325 533.376 
" style="fill: none; stroke: #000000; stroke-width: 4; stroke-linejoin: miter; stroke-linecap: square"/>
   </g>
  </g>
  <g id="axes_5">
   <g id="patch_20">
    <path d="M 381.8925 533.376 
L 472.6125 533.376 
L 472.6125 67.68 
L 381.8925 67.68 
z
" style="fill: #ffffff"/>
   </g>
   <g id="patch_21">
    <path d="M 393.2325 533.376 
L 415.9125 533.376 
L 415.9125 291.248602 
L 393.2325 291.248602 
z
" clip-path="url(#p6a3fc47950)" style="fill: #656565; fill-opacity: 0.2; stroke: #656565; stroke-width: 5; stroke-linejoin: miter"/>
   </g>
   <g id="patch_22">
    <path d="M 438.5925 533.376 
L 461.2725 533.376 
L 461.2725 493.276132 
L 438.5925 493.276132 
z
" clip-path="url(#p6a3fc47950)" style="fill: #656565; fill-opacity: 0.2; stroke: #656565; stroke-width: 5; stroke-linejoin: miter"/>
   </g>
   <g id="matplotlib.axis_9">
    <g id="xtick_9">
     <g id="text_19">
      <!-- gabors -->
      <g transform="translate(361.266382 594.356433) rotate(-45) scale(0.1728 -0.1728)">
       <use xlink:href="#Arial-BoldMT-67"/>
       <use xlink:href="#Arial-BoldMT-61" x="61.083984"/>
       <use xlink:href="#Arial-BoldMT-62" x="116.699219"/>
       <use xlink:href="#Arial-BoldMT-6f" x="177.783203"/>
       <use xlink:href="#Arial-BoldMT-72" x="238.867188"/>
       <use xlink:href="#Arial-BoldMT-73" x="277.783203"/>
      </g>
     </g>
    </g>
    <g id="xtick_10">
     <g id="text_20">
      <!-- visflow -->
      <g transform="translate(406.107082 595.036104) rotate(-45) scale(0.1728 -0.1728)">
       <use xlink:href="#Arial-BoldMT-76"/>
       <use xlink:href="#Arial-BoldMT-69" x="55.615234"/>
       <use xlink:href="#Arial-BoldMT-73" x="83.398438"/>
       <use xlink:href="#Arial-BoldMT-66" x="139.013672"/>
       <use xlink:href="#Arial-BoldMT-6c" x="172.314453"/>
       <use xlink:href="#Arial-BoldMT-6f" x="200.097656"/>
       <use xlink:href="#Arial-BoldMT-77" x="261.181641"/>
      </g>
     </g>
    </g>
   </g>
   <g id="matplotlib.axis_10">
    <g id="ytick_29">
     <g id="line2d_40">
      <g>
       <use xlink:href="#mbb979d6ff0" x="381.8925" y="533.376" style="stroke: #000000; stroke-width: 4"/>
      </g>
     </g>
     <g id="text_21">
      <!-- 0 -->
      <g transform="translate(360.7832 539.56035) scale(0.1728 -0.1728)">
       <use xlink:href="#Arial-BoldMT-30"/>
      </g>
     </g>
    </g>
    <g id="ytick_30">
     <g id="line2d_41">
      <g>
       <use xlink:href="#mbb979d6ff0" x="381.8925" y="440.2368" style="stroke: #000000; stroke-width: 4"/>
      </g>
     </g>
    </g>
    <g id="ytick_31">
     <g id="line2d_42">
      <g>
       <use xlink:href="#mbb979d6ff0" x="381.8925" y="347.0976" style="stroke: #000000; stroke-width: 4"/>
      </g>
     </g>
     <g id="text_22">
      <!-- 0.4 -->
      <g transform="translate(346.3733 353.28195) scale(0.1728 -0.1728)">
       <use xlink:href="#Arial-BoldMT-30"/>
       <use xlink:href="#Arial-BoldMT-2e" x="55.615234"/>
       <use xlink:href="#Arial-BoldMT-34" x="83.398438"/>
      </g>
     </g>
    </g>
    <g id="ytick_32">
     <g id="line2d_43">
      <g>
       <use xlink:href="#mbb979d6ff0" x="381.8925" y="253.9584" style="stroke: #000000; stroke-width: 4"/>
      </g>
     </g>
    </g>
    <g id="ytick_33">
     <g id="line2d_44">
      <g>
       <use xlink:href="#mbb979d6ff0" x="381.8925" y="160.8192" style="stroke: #000000; stroke-width: 4"/>
      </g>
     </g>
     <g id="text_23">
      <!-- 0.8 -->
      <g transform="translate(346.3733 167.00355) scale(0.1728 -0.1728)">
       <use xlink:href="#Arial-BoldMT-30"/>
       <use xlink:href="#Arial-BoldMT-2e" x="55.615234"/>
       <use xlink:href="#Arial-BoldMT-38" x="83.398438"/>
      </g>
     </g>
    </g>
    <g id="ytick_34">
     <g id="line2d_45">
      <g>
       <use xlink:href="#mbb979d6ff0" x="381.8925" y="67.68" style="stroke: #000000; stroke-width: 4"/>
      </g>
     </g>
    </g>
   </g>
   <g id="LineCollection_5">
    <path d="M 404.5725 311.708541 
L 404.5725 270.788663 
" clip-path="url(#p6a3fc47950)" style="fill: none; stroke: #656565; stroke-opacity: 0.8; stroke-width: 5"/>
    <path d="M 449.9325 508.62445 
L 449.9325 477.927813 
" clip-path="url(#p6a3fc47950)" style="fill: none; stroke: #656565; stroke-opacity: 0.8; stroke-width: 5"/>
   </g>
   <g id="line2d_46">
    <defs>
     <path id="md182bc8152" d="M 8 0 
L -8 -0 
" style="stroke: #656565; stroke-opacity: 0.8; stroke-width: 4"/>
    </defs>
    <g clip-path="url(#p6a3fc47950)">
     <use xlink:href="#md182bc8152" x="404.5725" y="311.708541" style="fill: #656565; fill-opacity: 0.8; stroke: #656565; stroke-opacity: 0.8; stroke-width: 4"/>
     <use xlink:href="#md182bc8152" x="449.9325" y="508.62445" style="fill: #656565; fill-opacity: 0.8; stroke: #656565; stroke-opacity: 0.8; stroke-width: 4"/>
    </g>
   </g>
   <g id="line2d_47">
    <g clip-path="url(#p6a3fc47950)">
     <use xlink:href="#md182bc8152" x="404.5725" y="270.788663" style="fill: #656565; fill-opacity: 0.8; stroke: #656565; stroke-opacity: 0.8; stroke-width: 4"/>
     <use xlink:href="#md182bc8152" x="449.9325" y="477.927813" style="fill: #656565; fill-opacity: 0.8; stroke: #656565; stroke-opacity: 0.8; stroke-width: 4"/>
    </g>
   </g>
   <g id="line2d_48">
    <path d="M 404.5725 98.566461 
L 449.9325 98.566461 
" clip-path="url(#p6a3fc47950)" style="fill: none; stroke: #656565; stroke-width: 3; stroke-linecap: square"/>
   </g>
   <g id="patch_23">
    <path d="M 381.8925 533.376 
L 381.8925 67.68 
" style="fill: none; stroke: #000000; stroke-width: 4; stroke-linejoin: miter; stroke-linecap: square"/>
   </g>
   <g id="patch_24">
    <path d="M 381.8925 533.376 
L 472.6125 533.376 
" style="fill: none; stroke: #000000; stroke-width: 4; stroke-linejoin: miter; stroke-linecap: square"/>
   </g>
   <g id="text_24">
    <!-- *** -->
    <g style="fill: #656565" transform="translate(415.14624 97.037767) scale(0.20736 -0.20736)">
     <use xlink:href="#Arial-BoldMT-2a"/>
     <use xlink:href="#Arial-BoldMT-2a" x="38.916016"/>
     <use xlink:href="#Arial-BoldMT-2a" x="77.832031"/>
    </g>
   </g>
   <g id="text_25">
    <!-- all -->
    <g transform="translate(417.64725 61.68) scale(0.1728 -0.1728)">
     <use xlink:href="#Arial-BoldMT-61"/>
     <use xlink:href="#Arial-BoldMT-6c" x="55.615234"/>
     <use xlink:href="#Arial-BoldMT-6c" x="83.398438"/>
    </g>
   </g>
   <g id="PathCollection_1">
    <defs>
     <path id="m899d054083" d="M 0 7.071068 
C 1.875269 7.071068 3.673985 6.326016 5 5 
C 6.326016 3.673985 7.071068 1.875269 7.071068 0 
C 7.071068 -1.875269 6.326016 -3.673985 5 -5 
C 3.673985 -6.326016 1.875269 -7.071068 0 -7.071068 
C -1.875269 -7.071068 -3.673985 -6.326016 -5 -5 
C -6.326016 -3.673985 -7.071068 -1.875269 -7.071068 0 
C -7.071068 1.875269 -6.326016 3.673985 -5 5 
C -3.673985 6.326016 -1.875269 7.071068 0 7.071068 
z
" style="stroke: #ffffff; stroke-opacity: 0.8; stroke-width: 4"/>
    </defs>
    <g clip-path="url(#p6a3fc47950)">
     <use xlink:href="#m899d054083" x="396.8613" y="346.373031" style="fill: #ffffff; fill-opacity: 0.8; stroke: #ffffff; stroke-opacity: 0.8; stroke-width: 4"/>
    </g>
   </g>
   <g id="PathCollection_2">
    <g clip-path="url(#p6a3fc47950)">
     <use xlink:href="#m899d054083" x="415.9125" y="343.343756" style="fill: #ffffff; fill-opacity: 0.8; stroke: #ffffff; stroke-opacity: 0.8; stroke-width: 4"/>
    </g>
   </g>
   <g id="PathCollection_3">
    <g clip-path="url(#p6a3fc47950)">
     <use xlink:href="#m899d054083" x="393.2325" y="331.690539" style="fill: #ffffff; fill-opacity: 0.8; stroke: #ffffff; stroke-opacity: 0.8; stroke-width: 4"/>
    </g>
   </g>
   <g id="PathCollection_4">
    <g clip-path="url(#p6a3fc47950)">
     <use xlink:href="#m899d054083" x="412.2837" y="143.587081" style="fill: #ffffff; fill-opacity: 0.8; stroke: #ffffff; stroke-opacity: 0.8; stroke-width: 4"/>
    </g>
   </g>
   <g id="PathCollection_5">
    <g clip-path="url(#p6a3fc47950)">
     <use xlink:href="#m899d054083" x="442.2213" y="503.372297" style="fill: #ffffff; fill-opacity: 0.8; stroke: #ffffff; stroke-opacity: 0.8; stroke-width: 4"/>
    </g>
   </g>
   <g id="PathCollection_6">
    <g clip-path="url(#p6a3fc47950)">
     <use xlink:href="#m899d054083" x="461.2725" y="497.201114" style="fill: #ffffff; fill-opacity: 0.8; stroke: #ffffff; stroke-opacity: 0.8; stroke-width: 4"/>
    </g>
   </g>
   <g id="PathCollection_7">
    <g clip-path="url(#p6a3fc47950)">
     <use xlink:href="#m899d054083" x="438.5925" y="492.495683" style="fill: #ffffff; fill-opacity: 0.8; stroke: #ffffff; stroke-opacity: 0.8; stroke-width: 4"/>
    </g>
   </g>
   <g id="PathCollection_8">
    <g clip-path="url(#p6a3fc47950)">
     <use xlink:href="#m899d054083" x="457.6437" y="480.035433" style="fill: #ffffff; fill-opacity: 0.8; stroke: #ffffff; stroke-opacity: 0.8; stroke-width: 4"/>
    </g>
   </g>
   <g id="PathCollection_9">
    <defs>
     <path id="m150645f238" d="M 0 7.071068 
C 1.875269 7.071068 3.673985 6.326016 5 5 
C 6.326016 3.673985 7.071068 1.875269 7.071068 0 
C 7.071068 -1.875269 6.326016 -3.673985 5 -5 
C 3.673985 -6.326016 1.875269 -7.071068 0 -7.071068 
C -1.875269 -7.071068 -3.673985 -6.326016 -5 -5 
C -6.326016 -3.673985 -7.071068 -1.875269 -7.071068 0 
C -7.071068 1.875269 -6.326016 3.673985 -5 5 
C -3.673985 6.326016 -1.875269 7.071068 0 7.071068 
z
"/>
    </defs>
    <g clip-path="url(#p6a3fc47950)">
     <use xlink:href="#m150645f238" x="396.8613" y="346.373031" style="fill: #76bb4b; fill-opacity: 0.6"/>
    </g>
   </g>
   <g id="PathCollection_10">
    <defs>
     <path id="mfb7a836de3" d="M 0 7.071068 
C 1.875269 7.071068 3.673985 6.326016 5 5 
C 6.326016 3.673985 7.071068 1.875269 7.071068 0 
C 7.071068 -1.875269 6.326016 -3.673985 5 -5 
C 3.673985 -6.326016 1.875269 -7.071068 0 -7.071068 
C -1.875269 -7.071068 -3.673985 -6.326016 -5 -5 
C -6.326016 -3.673985 -7.071068 -1.875269 -7.071068 0 
C -7.071068 1.875269 -6.326016 3.673985 -5 5 
C -3.673985 6.326016 -1.875269 7.071068 0 7.071068 
z
"/>
    </defs>
    <g clip-path="url(#p6a3fc47950)">
     <use xlink:href="#mfb7a836de3" x="415.9125" y="343.343756" style="fill: #22567a; fill-opacity: 0.6"/>
    </g>
   </g>
   <g id="PathCollection_11">
    <defs>
     <path id="md95e2d767e" d="M 0 7.071068 
C 1.875269 7.071068 3.673985 6.326016 5 5 
C 6.326016 3.673985 7.071068 1.875269 7.071068 0 
C 7.071068 -1.875269 6.326016 -3.673985 5 -5 
C 3.673985 -6.326016 1.875269 -7.071068 0 -7.071068 
C -1.875269 -7.071068 -3.673985 -6.326016 -5 -5 
C -6.326016 -3.673985 -7.071068 -1.875269 -7.071068 0 
C -7.071068 1.875269 -6.326016 3.673985 -5 5 
C -3.673985 6.326016 -1.875269 7.071068 0 7.071068 
z
"/>
    </defs>
    <g clip-path="url(#p6a3fc47950)">
     <use xlink:href="#md95e2d767e" x="393.2325" y="331.690539" style="fill: #488a21; fill-opacity: 0.6"/>
    </g>
   </g>
   <g id="PathCollection_12">
    <defs>
     <path id="m0d734cbc26" d="M 0 7.071068 
C 1.875269 7.071068 3.673985 6.326016 5 5 
C 6.326016 3.673985 7.071068 1.875269 7.071068 0 
C 7.071068 -1.875269 6.326016 -3.673985 5 -5 
C 3.673985 -6.326016 1.875269 -7.071068 0 -7.071068 
C -1.875269 -7.071068 -3.673985 -6.326016 -5 -5 
C -6.326016 -3.673985 -7.071068 -1.875269 -7.071068 0 
C -7.071068 1.875269 -6.326016 3.673985 -5 5 
C -3.673985 6.326016 -1.875269 7.071068 0 7.071068 
z
"/>
    </defs>
    <g clip-path="url(#p6a3fc47950)">
     <use xlink:href="#m0d734cbc26" x="412.2837" y="143.587081" style="fill: #50a2d5; fill-opacity: 0.6"/>
    </g>
   </g>
   <g id="PathCollection_13">
    <g clip-path="url(#p6a3fc47950)">
     <use xlink:href="#m0d734cbc26" x="442.2213" y="503.372297" style="fill: #50a2d5; fill-opacity: 0.6"/>
    </g>
   </g>
   <g id="PathCollection_14">
    <g clip-path="url(#p6a3fc47950)">
     <use xlink:href="#md95e2d767e" x="461.2725" y="497.201114" style="fill: #488a21; fill-opacity: 0.6"/>
    </g>
   </g>
   <g id="PathCollection_15">
    <g clip-path="url(#p6a3fc47950)">
     <use xlink:href="#m150645f238" x="438.5925" y="492.495683" style="fill: #76bb4b; fill-opacity: 0.6"/>
    </g>
   </g>
   <g id="PathCollection_16">
    <g clip-path="url(#p6a3fc47950)">
     <use xlink:href="#mfb7a836de3" x="457.6437" y="480.035433" style="fill: #22567a; fill-opacity: 0.6"/>
    </g>
   </g>
   <g id="PathCollection_17">
    <path d="M 396.8613 353.444099 
C 398.736569 353.444099 400.535285 352.699047 401.8613 351.373031 
C 403.187316 350.047016 403.932368 348.2483 403.932368 346.373031 
C 403.932368 344.497762 403.187316 342.699047 401.8613 341.373031 
C 400.535285 340.047016 398.736569 339.301963 396.8613 339.301963 
C 394.986031 339.301963 393.187316 340.047016 391.8613 341.373031 
C 390.535285 342.699047 389.790232 344.497762 389.790232 346.373031 
C 389.790232 348.2483 390.535285 350.047016 391.8613 351.373031 
C 393.187316 352.699047 394.986031 353.444099 396.8613 353.444099 
L 396.8613 353.444099 
z
" clip-path="url(#p6a3fc47950)" style="fill: none; stroke: #76bb4b; stroke-width: 4"/>
   </g>
   <g id="PathCollection_18">
    <path d="M 415.9125 350.414824 
C 417.787769 350.414824 419.586485 349.669771 420.9125 348.343756 
C 422.238516 347.01774 422.983568 345.219025 422.983568 343.343756 
C 422.983568 341.468487 422.238516 339.669771 420.9125 338.343756 
C 419.586485 337.01774 417.787769 336.272688 415.9125 336.272688 
C 414.037231 336.272688 412.238516 337.01774 410.9125 338.343756 
C 409.586485 339.669771 408.841432 341.468487 408.841432 343.343756 
C 408.841432 345.219025 409.586485 347.01774 410.9125 348.343756 
C 412.238516 349.669771 414.037231 350.414824 415.9125 350.414824 
L 415.9125 350.414824 
z
" clip-path="url(#p6a3fc47950)" style="fill: none; stroke: #22567a; stroke-width: 4"/>
   </g>
   <g id="PathCollection_19">
    <path d="M 393.2325 338.761607 
C 395.107769 338.761607 396.906485 338.016554 398.2325 336.690539 
C 399.558516 335.364523 400.303568 333.565808 400.303568 331.690539 
C 400.303568 329.81527 399.558516 328.016554 398.2325 326.690539 
C 396.906485 325.364523 395.107769 324.619471 393.2325 324.619471 
C 391.357231 324.619471 389.558516 325.364523 388.2325 326.690539 
C 386.906485 328.016554 386.161432 329.81527 386.161432 331.690539 
C 386.161432 333.565808 386.906485 335.364523 388.2325 336.690539 
C 389.558516 338.016554 391.357231 338.761607 393.2325 338.761607 
L 393.2325 338.761607 
z
" clip-path="url(#p6a3fc47950)" style="fill: none; stroke: #488a21; stroke-width: 4"/>
   </g>
   <g id="PathCollection_20">
    <path d="M 412.2837 150.658149 
C 414.158969 150.658149 415.957685 149.913097 417.2837 148.587081 
C 418.609716 147.261066 419.354768 145.462351 419.354768 143.587081 
C 419.354768 141.711812 418.609716 139.913097 417.2837 138.587081 
C 415.957685 137.261066 414.158969 136.516014 412.2837 136.516014 
C 410.408431 136.516014 408.609716 137.261066 407.2837 138.587081 
C 405.957685 139.913097 405.212632 141.711812 405.212632 143.587081 
C 405.212632 145.462351 405.957685 147.261066 407.2837 148.587081 
C 408.609716 149.913097 410.408431 150.658149 412.2837 150.658149 
L 412.2837 150.658149 
z
" clip-path="url(#p6a3fc47950)" style="fill: none; stroke: #50a2d5; stroke-width: 4"/>
   </g>
   <g id="PathCollection_21">
    <path d="M 442.2213 510.443365 
C 444.096569 510.443365 445.895285 509.698313 447.2213 508.372297 
C 448.547316 507.046282 449.292368 505.247566 449.292368 503.372297 
C 449.292368 501.497028 448.547316 499.698313 447.2213 498.372297 
C 445.895285 497.046282 444.096569 496.301229 442.2213 496.301229 
C 440.346031 496.301229 438.547316 497.046282 437.2213 498.372297 
C 435.895285 499.698313 435.150232 501.497028 435.150232 503.372297 
C 435.150232 505.247566 435.895285 507.046282 437.2213 508.372297 
C 438.547316 509.698313 440.346031 510.443365 442.2213 510.443365 
L 442.2213 510.443365 
z
" clip-path="url(#p6a3fc47950)" style="fill: none; stroke: #50a2d5; stroke-width: 4"/>
   </g>
   <g id="PathCollection_22">
    <path d="M 461.2725 504.272182 
C 463.147769 504.272182 464.946485 503.527129 466.2725 502.201114 
C 467.598516 500.875098 468.343568 499.076383 468.343568 497.201114 
C 468.343568 495.325845 467.598516 493.527129 466.2725 492.201114 
C 464.946485 490.875098 463.147769 490.130046 461.2725 490.130046 
C 459.397231 490.130046 457.598516 490.875098 456.2725 492.201114 
C 454.946485 493.527129 454.201432 495.325845 454.201432 497.201114 
C 454.201432 499.076383 454.946485 500.875098 456.2725 502.201114 
C 457.598516 503.527129 459.397231 504.272182 461.2725 504.272182 
L 461.2725 504.272182 
z
" clip-path="url(#p6a3fc47950)" style="fill: none; stroke: #488a21; stroke-width: 4"/>
   </g>
   <g id="PathCollection_23">
    <path d="M 438.5925 499.56675 
C 440.467769 499.56675 442.266485 498.821698 443.5925 497.495683 
C 444.918516 496.169667 445.663568 494.370952 445.663568 492.495683 
C 445.663568 490.620414 444.918516 488.821698 443.5925 487.495683 
C 442.266485 486.169667 440.467769 485.424615 438.5925 485.424615 
C 436.717231 485.424615 434.918516 486.169667 433.5925 487.495683 
C 432.266485 488.821698 431.521432 490.620414 431.521432 492.495683 
C 431.521432 494.370952 432.266485 496.169667 433.5925 497.495683 
C 434.918516 498.821698 436.717231 499.56675 438.5925 499.56675 
L 438.5925 499.56675 
z
" clip-path="url(#p6a3fc47950)" style="fill: none; stroke: #76bb4b; stroke-width: 4"/>
   </g>
   <g id="PathCollection_24">
    <path d="M 457.6437 487.1065 
C 459.518969 487.1065 461.317685 486.361448 462.6437 485.035433 
C 463.969716 483.709417 464.714768 481.910702 464.714768 480.035433 
C 464.714768 478.160164 463.969716 476.361448 462.6437 475.035433 
C 461.317685 473.709417 459.518969 472.964365 457.6437 472.964365 
C 455.768431 472.964365 453.969716 473.709417 452.6437 475.035433 
C 451.317685 476.361448 450.572632 478.160164 450.572632 480.035433 
C 450.572632 481.910702 451.317685 483.709417 452.6437 485.035433 
C 453.969716 486.361448 455.768431 487.1065 457.6437 487.1065 
L 457.6437 487.1065 
z
" clip-path="url(#p6a3fc47950)" style="fill: none; stroke: #22567a; stroke-width: 4"/>
   </g>
  </g>
  <g id="text_26">
   <!-- Unexpected response changes from session 1 to 3 -->
   <g transform="translate(7.2 19.7793) scale(0.1728 -0.1728)">
    <defs>
     <path id="Arial-BoldMT-55" d="M 459 4581 
L 1384 4581 
L 1384 2100 
Q 1384 1509 1419 1334 
Q 1478 1053 1701 883 
Q 1925 713 2313 713 
Q 2706 713 2906 873 
Q 3106 1034 3147 1268 
Q 3188 1503 3188 2047 
L 3188 4581 
L 4113 4581 
L 4113 2175 
Q 4113 1350 4038 1009 
Q 3963 669 3761 434 
Q 3559 200 3221 61 
Q 2884 -78 2341 -78 
Q 1684 -78 1345 73 
Q 1006 225 809 467 
Q 613 709 550 975 
Q 459 1369 459 2138 
L 459 4581 
z
" transform="scale(0.015625)"/>
     <path id="Arial-BoldMT-6e" d="M 3478 0 
L 2600 0 
L 2600 1694 
Q 2600 2231 2544 2389 
Q 2488 2547 2361 2634 
Q 2234 2722 2056 2722 
Q 1828 2722 1647 2597 
Q 1466 2472 1398 2265 
Q 1331 2059 1331 1503 
L 1331 0 
L 453 0 
L 453 3319 
L 1269 3319 
L 1269 2831 
Q 1703 3394 2363 3394 
Q 2653 3394 2893 3289 
Q 3134 3184 3257 3021 
Q 3381 2859 3429 2653 
Q 3478 2447 3478 2063 
L 3478 0 
z
" transform="scale(0.015625)"/>
     <path id="Arial-BoldMT-65" d="M 2381 1056 
L 3256 909 
Q 3088 428 2723 176 
Q 2359 -75 1813 -75 
Q 947 -75 531 491 
Q 203 944 203 1634 
Q 203 2459 634 2926 
Q 1066 3394 1725 3394 
Q 2466 3394 2894 2905 
Q 3322 2416 3303 1406 
L 1103 1406 
Q 1113 1016 1316 798 
Q 1519 581 1822 581 
Q 2028 581 2168 693 
Q 2309 806 2381 1056 
z
M 2431 1944 
Q 2422 2325 2234 2523 
Q 2047 2722 1778 2722 
Q 1491 2722 1303 2513 
Q 1116 2303 1119 1944 
L 2431 1944 
z
" transform="scale(0.015625)"/>
     <path id="Arial-BoldMT-78" d="M 38 0 
L 1234 1709 
L 88 3319 
L 1159 3319 
L 1747 2406 
L 2366 3319 
L 3397 3319 
L 2272 1747 
L 3500 0 
L 2422 0 
L 1747 1028 
L 1066 0 
L 38 0 
z
" transform="scale(0.015625)"/>
     <path id="Arial-BoldMT-70" d="M 434 3319 
L 1253 3319 
L 1253 2831 
Q 1413 3081 1684 3237 
Q 1956 3394 2288 3394 
Q 2866 3394 3269 2941 
Q 3672 2488 3672 1678 
Q 3672 847 3265 386 
Q 2859 -75 2281 -75 
Q 2006 -75 1782 34 
Q 1559 144 1313 409 
L 1313 -1263 
L 434 -1263 
L 434 3319 
z
M 1303 1716 
Q 1303 1156 1525 889 
Q 1747 622 2066 622 
Q 2372 622 2575 867 
Q 2778 1113 2778 1672 
Q 2778 2194 2568 2447 
Q 2359 2700 2050 2700 
Q 1728 2700 1515 2451 
Q 1303 2203 1303 1716 
z
" transform="scale(0.015625)"/>
     <path id="Arial-BoldMT-63" d="M 3353 2338 
L 2488 2181 
Q 2444 2441 2289 2572 
Q 2134 2703 1888 2703 
Q 1559 2703 1364 2476 
Q 1169 2250 1169 1719 
Q 1169 1128 1367 884 
Q 1566 641 1900 641 
Q 2150 641 2309 783 
Q 2469 925 2534 1272 
L 3397 1125 
Q 3263 531 2881 228 
Q 2500 -75 1859 -75 
Q 1131 -75 698 384 
Q 266 844 266 1656 
Q 266 2478 700 2936 
Q 1134 3394 1875 3394 
Q 2481 3394 2839 3133 
Q 3197 2872 3353 2338 
z
" transform="scale(0.015625)"/>
     <path id="Arial-BoldMT-74" d="M 1981 3319 
L 1981 2619 
L 1381 2619 
L 1381 1281 
Q 1381 875 1398 808 
Q 1416 741 1477 697 
Q 1538 653 1625 653 
Q 1747 653 1978 738 
L 2053 56 
Q 1747 -75 1359 -75 
Q 1122 -75 931 4 
Q 741 84 652 211 
Q 563 338 528 553 
Q 500 706 500 1172 
L 500 2619 
L 97 2619 
L 97 3319 
L 500 3319 
L 500 3978 
L 1381 4491 
L 1381 3319 
L 1981 3319 
z
" transform="scale(0.015625)"/>
     <path id="Arial-BoldMT-64" d="M 3503 0 
L 2688 0 
L 2688 488 
Q 2484 203 2207 64 
Q 1931 -75 1650 -75 
Q 1078 -75 670 386 
Q 263 847 263 1672 
Q 263 2516 659 2955 
Q 1056 3394 1663 3394 
Q 2219 3394 2625 2931 
L 2625 4581 
L 3503 4581 
L 3503 0 
z
M 1159 1731 
Q 1159 1200 1306 963 
Q 1519 619 1900 619 
Q 2203 619 2415 876 
Q 2628 1134 2628 1647 
Q 2628 2219 2422 2470 
Q 2216 2722 1894 2722 
Q 1581 2722 1370 2473 
Q 1159 2225 1159 1731 
z
" transform="scale(0.015625)"/>
     <path id="Arial-BoldMT-68" d="M 1334 4581 
L 1334 2897 
Q 1759 3394 2350 3394 
Q 2653 3394 2897 3281 
Q 3141 3169 3264 2994 
Q 3388 2819 3433 2606 
Q 3478 2394 3478 1947 
L 3478 0 
L 2600 0 
L 2600 1753 
Q 2600 2275 2550 2415 
Q 2500 2556 2373 2639 
Q 2247 2722 2056 2722 
Q 1838 2722 1666 2615 
Q 1494 2509 1414 2295 
Q 1334 2081 1334 1663 
L 1334 0 
L 456 0 
L 456 4581 
L 1334 4581 
z
" transform="scale(0.015625)"/>
     <path id="Arial-BoldMT-6d" d="M 394 3319 
L 1203 3319 
L 1203 2866 
Q 1638 3394 2238 3394 
Q 2556 3394 2790 3262 
Q 3025 3131 3175 2866 
Q 3394 3131 3647 3262 
Q 3900 3394 4188 3394 
Q 4553 3394 4806 3245 
Q 5059 3097 5184 2809 
Q 5275 2597 5275 2122 
L 5275 0 
L 4397 0 
L 4397 1897 
Q 4397 2391 4306 2534 
Q 4184 2722 3931 2722 
Q 3747 2722 3584 2609 
Q 3422 2497 3350 2280 
Q 3278 2063 3278 1594 
L 3278 0 
L 2400 0 
L 2400 1819 
Q 2400 2303 2353 2443 
Q 2306 2584 2207 2653 
Q 2109 2722 1941 2722 
Q 1738 2722 1575 2612 
Q 1413 2503 1342 2297 
Q 1272 2091 1272 1613 
L 1272 0 
L 394 0 
L 394 3319 
z
" transform="scale(0.015625)"/>
    </defs>
    <use xlink:href="#Arial-BoldMT-55"/>
    <use xlink:href="#Arial-BoldMT-6e" x="72.216797"/>
    <use xlink:href="#Arial-BoldMT-65" x="133.300781"/>
    <use xlink:href="#Arial-BoldMT-78" x="188.916016"/>
    <use xlink:href="#Arial-BoldMT-70" x="244.53125"/>
    <use xlink:href="#Arial-BoldMT-65" x="305.615234"/>
    <use xlink:href="#Arial-BoldMT-63" x="361.230469"/>
    <use xlink:href="#Arial-BoldMT-74" x="416.845703"/>
    <use xlink:href="#Arial-BoldMT-65" x="450.146484"/>
    <use xlink:href="#Arial-BoldMT-64" x="505.761719"/>
    <use xlink:href="#Arial-BoldMT-20" x="566.845703"/>
    <use xlink:href="#Arial-BoldMT-72" x="594.628906"/>
    <use xlink:href="#Arial-BoldMT-65" x="633.544922"/>
    <use xlink:href="#Arial-BoldMT-73" x="689.160156"/>
    <use xlink:href="#Arial-BoldMT-70" x="744.775391"/>
    <use xlink:href="#Arial-BoldMT-6f" x="805.859375"/>
    <use xlink:href="#Arial-BoldMT-6e" x="866.943359"/>
    <use xlink:href="#Arial-BoldMT-73" x="928.027344"/>
    <use xlink:href="#Arial-BoldMT-65" x="983.642578"/>
    <use xlink:href="#Arial-BoldMT-20" x="1039.257812"/>
    <use xlink:href="#Arial-BoldMT-63" x="1067.041016"/>
    <use xlink:href="#Arial-BoldMT-68" x="1122.65625"/>
    <use xlink:href="#Arial-BoldMT-61" x="1183.740234"/>
    <use xlink:href="#Arial-BoldMT-6e" x="1239.355469"/>
    <use xlink:href="#Arial-BoldMT-67" x="1300.439453"/>
    <use xlink:href="#Arial-BoldMT-65" x="1361.523438"/>
    <use xlink:href="#Arial-BoldMT-73" x="1417.138672"/>
    <use xlink:href="#Arial-BoldMT-20" x="1472.753906"/>
    <use xlink:href="#Arial-BoldMT-66" x="1500.537109"/>
    <use xlink:href="#Arial-BoldMT-72" x="1533.837891"/>
    <use xlink:href="#Arial-BoldMT-6f" x="1572.753906"/>
    <use xlink:href="#Arial-BoldMT-6d" x="1633.837891"/>
    <use xlink:href="#Arial-BoldMT-20" x="1722.753906"/>
    <use xlink:href="#Arial-BoldMT-73" x="1750.537109"/>
    <use xlink:href="#Arial-BoldMT-65" x="1806.152344"/>
    <use xlink:href="#Arial-BoldMT-73" x="1861.767578"/>
    <use xlink:href="#Arial-BoldMT-73" x="1917.382812"/>
    <use xlink:href="#Arial-BoldMT-69" x="1972.998047"/>
    <use xlink:href="#Arial-BoldMT-6f" x="2000.78125"/>
    <use xlink:href="#Arial-BoldMT-6e" x="2061.865234"/>
    <use xlink:href="#Arial-BoldMT-20" x="2122.949219"/>
    <use xlink:href="#Arial-BoldMT-31" x="2150.732422"/>
    <use xlink:href="#Arial-BoldMT-20" x="2206.347656"/>
    <use xlink:href="#Arial-BoldMT-74" x="2234.130859"/>
    <use xlink:href="#Arial-BoldMT-6f" x="2267.431641"/>
    <use xlink:href="#Arial-BoldMT-20" x="2328.515625"/>
    <use xlink:href="#Arial-BoldMT-33" x="2356.298828"/>
   </g>
  </g>
  <g id="text_27">
   <!-- Absolute fractional change -->
   <g transform="translate(57.7518 284.409) rotate(-90) scale(0.1728 -0.1728)">
    <defs>
     <path id="Arial-BoldMT-41" d="M 4597 0 
L 3591 0 
L 3191 1041 
L 1359 1041 
L 981 0 
L 0 0 
L 1784 4581 
L 2763 4581 
L 4597 0 
z
M 2894 1813 
L 2263 3513 
L 1644 1813 
L 2894 1813 
z
" transform="scale(0.015625)"/>
     <path id="Arial-BoldMT-75" d="M 2644 0 
L 2644 497 
Q 2463 231 2167 78 
Q 1872 -75 1544 -75 
Q 1209 -75 943 72 
Q 678 219 559 484 
Q 441 750 441 1219 
L 441 3319 
L 1319 3319 
L 1319 1794 
Q 1319 1094 1367 936 
Q 1416 778 1544 686 
Q 1672 594 1869 594 
Q 2094 594 2272 717 
Q 2450 841 2515 1023 
Q 2581 1206 2581 1919 
L 2581 3319 
L 3459 3319 
L 3459 0 
L 2644 0 
z
" transform="scale(0.015625)"/>
    </defs>
    <use xlink:href="#Arial-BoldMT-41"/>
    <use xlink:href="#Arial-BoldMT-62" x="72.216797"/>
    <use xlink:href="#Arial-BoldMT-73" x="133.300781"/>
    <use xlink:href="#Arial-BoldMT-6f" x="188.916016"/>
    <use xlink:href="#Arial-BoldMT-6c" x="250"/>
    <use xlink:href="#Arial-BoldMT-75" x="277.783203"/>
    <use xlink:href="#Arial-BoldMT-74" x="338.867188"/>
    <use xlink:href="#Arial-BoldMT-65" x="372.167969"/>
    <use xlink:href="#Arial-BoldMT-20" x="427.783203"/>
    <use xlink:href="#Arial-BoldMT-66" x="455.566406"/>
    <use xlink:href="#Arial-BoldMT-72" x="488.867188"/>
    <use xlink:href="#Arial-BoldMT-61" x="527.783203"/>
    <use xlink:href="#Arial-BoldMT-63" x="583.398438"/>
    <use xlink:href="#Arial-BoldMT-74" x="639.013672"/>
    <use xlink:href="#Arial-BoldMT-69" x="672.314453"/>
    <use xlink:href="#Arial-BoldMT-6f" x="700.097656"/>
    <use xlink:href="#Arial-BoldMT-6e" x="761.181641"/>
    <use xlink:href="#Arial-BoldMT-61" x="822.265625"/>
    <use xlink:href="#Arial-BoldMT-6c" x="877.880859"/>
    <use xlink:href="#Arial-BoldMT-20" x="905.664062"/>
    <use xlink:href="#Arial-BoldMT-63" x="933.447266"/>
    <use xlink:href="#Arial-BoldMT-68" x="989.0625"/>
    <use xlink:href="#Arial-BoldMT-61" x="1050.146484"/>
    <use xlink:href="#Arial-BoldMT-6e" x="1105.761719"/>
    <use xlink:href="#Arial-BoldMT-67" x="1166.845703"/>
    <use xlink:href="#Arial-BoldMT-65" x="1227.929688"/>
   </g>
  </g>
 </g>
 <defs>
  <clipPath id="p0a28060843">
   <rect x="102.1725" y="67.68" width="101.895652" height="211.68"/>
  </clipPath>
  <clipPath id="pa7e6f362f4">
   <rect x="234.636848" y="67.68" width="101.895652" height="211.68"/>
  </clipPath>
  <clipPath id="p427bab94fa">
   <rect x="102.1725" y="321.696" width="101.895652" height="211.68"/>
  </clipPath>
  <clipPath id="p270ad7f258">
   <rect x="234.636848" y="321.696" width="101.895652" height="211.68"/>
  </clipPath>
  <clipPath id="p6a3fc47950">
   <rect x="381.8925" y="67.68" width="90.72" height="465.696"/>
  </clipPath>
 </defs>
</svg>
