<?xml version="1.0" encoding="utf-8" standalone="no"?>
<!DOCTYPE svg PUBLIC "-//W3C//DTD SVG 1.1//EN"
  "http://www.w3.org/Graphics/SVG/1.1/DTD/svg11.dtd">
<!-- Created with matplotlib (https://matplotlib.org/) -->
<svg height="604.647409pt" version="1.1" viewBox="0 0 479.8125 604.647409" width="479.8125pt" xmlns="http://www.w3.org/2000/svg" xmlns:xlink="http://www.w3.org/1999/xlink">
 <metadata>
  <rdf:RDF xmlns:cc="http://creativecommons.org/ns#" xmlns:dc="http://purl.org/dc/elements/1.1/" xmlns:rdf="http://www.w3.org/1999/02/22-rdf-syntax-ns#">
   <cc:Work>
    <dc:type rdf:resource="http://purl.org/dc/dcmitype/StillImage"/>
    <dc:date>2021-12-08T02:07:28.993534</dc:date>
    <dc:format>image/svg+xml</dc:format>
    <dc:creator>
     <cc:Agent>
      <dc:title>Matplotlib v3.3.1, https://matplotlib.org/</dc:title>
     </cc:Agent>
    </dc:creator>
   </cc:Work>
  </rdf:RDF>
 </metadata>
 <defs>
  <style type="text/css">*{stroke-linecap:butt;stroke-linejoin:round;}</style>
 </defs>
 <g id="figure_1">
  <g id="patch_1">
   <path d="M 0 604.647409 
L 479.8125 604.647409 
L 479.8125 0 
L 0 0 
z
" style="fill:#ffffff;"/>
  </g>
  <g id="axes_1">
   <g id="patch_2">
    <path d="M 102.1725 279.36 
L 204.068152 279.36 
L 204.068152 67.68 
L 102.1725 67.68 
z
" style="fill:#ffffff;"/>
   </g>
   <g id="patch_3">
    <path clip-path="url(#p7a4f9b08ef)" d="M 114.909457 279.36 
L 140.38337 279.36 
L 140.38337 137.691084 
L 114.909457 137.691084 
z
" style="fill:#76bb4b;fill-opacity:0.5;stroke:#76bb4b;stroke-linejoin:miter;stroke-width:5;"/>
   </g>
   <g id="patch_4">
    <path clip-path="url(#p7a4f9b08ef)" d="M 165.857283 279.36 
L 191.331196 279.36 
L 191.331196 248.390063 
L 165.857283 248.390063 
z
" style="fill:#76bb4b;fill-opacity:0.5;stroke:#76bb4b;stroke-linejoin:miter;stroke-width:5;"/>
   </g>
   <g id="matplotlib.axis_1">
    <g id="xtick_1"/>
    <g id="xtick_2"/>
   </g>
   <g id="matplotlib.axis_2">
    <g id="ytick_1">
     <g id="line2d_1">
      <defs>
       <path d="M 0 0 
L -8 0 
" id="m2756e41d01" style="stroke:#000000;stroke-width:4;"/>
      </defs>
      <g>
       <use style="stroke:#000000;stroke-width:4;" x="102.1725" xlink:href="#m2756e41d01" y="279.36"/>
      </g>
     </g>
     <g id="text_1">
      <!-- 0 -->
      <g transform="translate(81.0632 285.54435)scale(0.1728 -0.1728)">
       <defs>
        <path d="M 27.4375 71.875 
Q 37.84375 71.875 43.703125 64.453125 
Q 50.6875 55.671875 50.6875 35.296875 
Q 50.6875 14.984375 43.65625 6.109375 
Q 37.84375 -1.21875 27.4375 -1.21875 
Q 17 -1.21875 10.59375 6.8125 
Q 4.203125 14.84375 4.203125 35.453125 
Q 4.203125 55.671875 11.234375 64.546875 
Q 17.046875 71.875 27.4375 71.875 
z
M 27.4375 60.5 
Q 24.953125 60.5 23 58.90625 
Q 21.046875 57.328125 19.96875 53.21875 
Q 18.5625 47.90625 18.5625 35.296875 
Q 18.5625 22.703125 19.828125 17.984375 
Q 21.09375 13.28125 23.015625 11.71875 
Q 24.953125 10.15625 27.4375 10.15625 
Q 29.9375 10.15625 31.890625 11.734375 
Q 33.84375 13.328125 34.90625 17.4375 
Q 36.328125 22.703125 36.328125 35.296875 
Q 36.328125 47.90625 35.0625 52.609375 
Q 33.796875 57.328125 31.859375 58.90625 
Q 29.9375 60.5 27.4375 60.5 
z
" id="Arial-BoldMT-48"/>
       </defs>
       <use xlink:href="#Arial-BoldMT-48"/>
      </g>
     </g>
    </g>
    <g id="ytick_2">
     <g id="line2d_2">
      <g>
       <use style="stroke:#000000;stroke-width:4;" x="102.1725" xlink:href="#m2756e41d01" y="244.08"/>
      </g>
     </g>
    </g>
    <g id="ytick_3">
     <g id="line2d_3">
      <g>
       <use style="stroke:#000000;stroke-width:4;" x="102.1725" xlink:href="#m2756e41d01" y="208.8"/>
      </g>
     </g>
     <g id="text_2">
      <!-- 0.2 -->
      <g transform="translate(66.6533 214.98435)scale(0.1728 -0.1728)">
       <defs>
        <path d="M 7.171875 0 
L 7.171875 13.71875 
L 20.90625 13.71875 
L 20.90625 0 
z
" id="Arial-BoldMT-46"/>
        <path d="M 50.59375 12.75 
L 50.59375 0 
L 2.484375 0 
Q 3.265625 7.234375 7.171875 13.703125 
Q 11.078125 20.171875 22.609375 30.859375 
Q 31.890625 39.5 33.984375 42.578125 
Q 36.8125 46.828125 36.8125 50.984375 
Q 36.8125 55.5625 34.34375 58.03125 
Q 31.890625 60.5 27.546875 60.5 
Q 23.25 60.5 20.703125 57.90625 
Q 18.171875 55.328125 17.78125 49.3125 
L 4.109375 50.6875 
Q 5.328125 62.015625 11.765625 66.9375 
Q 18.21875 71.875 27.875 71.875 
Q 38.484375 71.875 44.53125 66.15625 
Q 50.59375 60.453125 50.59375 51.953125 
Q 50.59375 47.125 48.859375 42.75 
Q 47.125 38.375 43.359375 33.59375 
Q 40.875 30.421875 34.375 24.453125 
Q 27.875 18.5 26.140625 16.546875 
Q 24.421875 14.59375 23.34375 12.75 
z
" id="Arial-BoldMT-50"/>
       </defs>
       <use xlink:href="#Arial-BoldMT-48"/>
       <use x="55.615234" xlink:href="#Arial-BoldMT-46"/>
       <use x="83.398438" xlink:href="#Arial-BoldMT-50"/>
      </g>
     </g>
    </g>
    <g id="ytick_4">
     <g id="line2d_4">
      <g>
       <use style="stroke:#000000;stroke-width:4;" x="102.1725" xlink:href="#m2756e41d01" y="173.52"/>
      </g>
     </g>
    </g>
    <g id="ytick_5">
     <g id="line2d_5">
      <g>
       <use style="stroke:#000000;stroke-width:4;" x="102.1725" xlink:href="#m2756e41d01" y="138.24"/>
      </g>
     </g>
     <g id="text_3">
      <!-- 0.4 -->
      <g transform="translate(66.6533 144.42435)scale(0.1728 -0.1728)">
       <defs>
        <path d="M 31.15625 0 
L 31.15625 14.40625 
L 1.859375 14.40625 
L 1.859375 26.421875 
L 32.90625 71.875 
L 44.4375 71.875 
L 44.4375 26.46875 
L 53.328125 26.46875 
L 53.328125 14.40625 
L 44.4375 14.40625 
L 44.4375 0 
z
M 31.15625 26.46875 
L 31.15625 50.921875 
L 14.703125 26.46875 
z
" id="Arial-BoldMT-52"/>
       </defs>
       <use xlink:href="#Arial-BoldMT-48"/>
       <use x="55.615234" xlink:href="#Arial-BoldMT-46"/>
       <use x="83.398438" xlink:href="#Arial-BoldMT-52"/>
      </g>
     </g>
    </g>
    <g id="ytick_6">
     <g id="line2d_6">
      <g>
       <use style="stroke:#000000;stroke-width:4;" x="102.1725" xlink:href="#m2756e41d01" y="102.96"/>
      </g>
     </g>
    </g>
    <g id="ytick_7">
     <g id="line2d_7">
      <g>
       <use style="stroke:#000000;stroke-width:4;" x="102.1725" xlink:href="#m2756e41d01" y="67.68"/>
      </g>
     </g>
     <g id="text_4">
      <!-- 0.6 -->
      <g transform="translate(66.6533 73.86435)scale(0.1728 -0.1728)">
       <defs>
        <path d="M 50.734375 54.046875 
L 37.453125 52.59375 
Q 36.96875 56.6875 34.90625 58.640625 
Q 32.859375 60.59375 29.59375 60.59375 
Q 25.25 60.59375 22.234375 56.6875 
Q 19.234375 52.78125 18.453125 40.4375 
Q 23.578125 46.484375 31.203125 46.484375 
Q 39.796875 46.484375 45.921875 39.9375 
Q 52.046875 33.40625 52.046875 23.046875 
Q 52.046875 12.0625 45.59375 5.421875 
Q 39.15625 -1.21875 29.046875 -1.21875 
Q 18.21875 -1.21875 11.234375 7.203125 
Q 4.25 15.625 4.25 34.8125 
Q 4.25 54.5 11.515625 63.1875 
Q 18.796875 71.875 30.421875 71.875 
Q 38.578125 71.875 43.921875 67.3125 
Q 49.265625 62.75 50.734375 54.046875 
z
M 19.625 24.125 
Q 19.625 17.4375 22.703125 13.796875 
Q 25.78125 10.15625 29.734375 10.15625 
Q 33.546875 10.15625 36.078125 13.125 
Q 38.625 16.109375 38.625 22.90625 
Q 38.625 29.890625 35.890625 33.125 
Q 33.15625 36.375 29.046875 36.375 
Q 25.09375 36.375 22.359375 33.265625 
Q 19.625 30.171875 19.625 24.125 
z
" id="Arial-BoldMT-54"/>
       </defs>
       <use xlink:href="#Arial-BoldMT-48"/>
       <use x="55.615234" xlink:href="#Arial-BoldMT-46"/>
       <use x="83.398438" xlink:href="#Arial-BoldMT-54"/>
      </g>
     </g>
    </g>
    <g id="text_5">
     <!-- . -->
     <g style="fill:#ffffff;" transform="translate(58.2189 175.9203)rotate(-90)scale(0.1728 -0.1728)">
      <defs>
       <path d="M 9.078125 0 
L 9.078125 10.015625 
L 19.09375 10.015625 
L 19.09375 0 
z
" id="ArialMT-46"/>
      </defs>
      <use xlink:href="#ArialMT-46"/>
     </g>
    </g>
   </g>
   <g id="LineCollection_1">
    <path clip-path="url(#p7a4f9b08ef)" d="M 127.646413 155.485267 
L 127.646413 119.896901 
" style="fill:none;stroke:#76bb4b;stroke-opacity:0.8;stroke-width:5;"/>
    <path clip-path="url(#p7a4f9b08ef)" d="M 178.594239 260.787572 
L 178.594239 235.992553 
" style="fill:none;stroke:#76bb4b;stroke-opacity:0.8;stroke-width:5;"/>
   </g>
   <g id="line2d_8">
    <defs>
     <path d="M 8 0 
L -8 -0 
" id="m3605aef572" style="stroke:#76bb4b;stroke-opacity:0.8;stroke-width:4;"/>
    </defs>
    <g clip-path="url(#p7a4f9b08ef)">
     <use style="fill:#76bb4b;fill-opacity:0.8;stroke:#76bb4b;stroke-opacity:0.8;stroke-width:4;" x="127.646413" xlink:href="#m3605aef572" y="155.485267"/>
     <use style="fill:#76bb4b;fill-opacity:0.8;stroke:#76bb4b;stroke-opacity:0.8;stroke-width:4;" x="178.594239" xlink:href="#m3605aef572" y="260.787572"/>
    </g>
   </g>
   <g id="line2d_9">
    <g clip-path="url(#p7a4f9b08ef)">
     <use style="fill:#76bb4b;fill-opacity:0.8;stroke:#76bb4b;stroke-opacity:0.8;stroke-width:4;" x="127.646413" xlink:href="#m3605aef572" y="119.896901"/>
     <use style="fill:#76bb4b;fill-opacity:0.8;stroke:#76bb4b;stroke-opacity:0.8;stroke-width:4;" x="178.594239" xlink:href="#m3605aef572" y="235.992553"/>
    </g>
   </g>
   <g id="line2d_10">
    <path clip-path="url(#p7a4f9b08ef)" d="M 127.646413 100.757424 
L 178.594239 100.757424 
" style="fill:none;stroke:#76bb4b;stroke-linecap:square;stroke-width:3;"/>
   </g>
   <g id="patch_5">
    <path d="M 102.1725 279.36 
L 102.1725 67.68 
" style="fill:none;stroke:#000000;stroke-linecap:square;stroke-linejoin:miter;stroke-width:4;"/>
   </g>
   <g id="text_6">
    <!-- *** -->
    <g style="fill:#76bb4b;" transform="translate(141.014066 103.420196)scale(0.20736 -0.20736)">
     <defs>
      <path d="M 11.96875 38.671875 
L 4.59375 44.390625 
Q 8.109375 48.34375 11.921875 51.953125 
Q 13.421875 53.421875 13.8125 53.8125 
Q 12.59375 54 6.84375 55.421875 
Q 2.6875 56.453125 1.375 56.9375 
L 4.25 65.53125 
Q 10.640625 62.9375 15.671875 59.8125 
Q 14.5 67.78125 14.5 72.796875 
L 23.1875 72.796875 
Q 23.1875 69.234375 21.875 59.71875 
Q 22.859375 60.109375 26.078125 61.625 
Q 30.46875 63.625 34.1875 65.046875 
L 36.765625 56.203125 
Q 31.34375 54.984375 24.21875 53.8125 
L 30.078125 47.21875 
Q 31.84375 45.21875 32.859375 43.953125 
L 25.390625 39.015625 
L 18.796875 49.90625 
Q 15.828125 44.625 11.96875 38.671875 
z
" id="Arial-BoldMT-42"/>
     </defs>
     <use xlink:href="#Arial-BoldMT-42"/>
     <use x="38.916016" xlink:href="#Arial-BoldMT-42"/>
     <use x="77.832031" xlink:href="#Arial-BoldMT-42"/>
    </g>
   </g>
   <g id="text_7">
    <!-- L2/3 Pyr -->
    <g transform="translate(119.502626 61.68)scale(0.1728 -0.1728)">
     <defs>
      <path d="M 7.671875 0 
L 7.671875 71 
L 22.125 71 
L 22.125 12.0625 
L 58.0625 12.0625 
L 58.0625 0 
z
" id="Arial-BoldMT-76"/>
      <path d="M -0.140625 -1.21875 
L 17.578125 72.796875 
L 27.875 72.796875 
L 9.96875 -1.21875 
z
" id="Arial-BoldMT-47"/>
      <path d="M 3.765625 19 
L 17.046875 20.609375 
Q 17.671875 15.53125 20.453125 12.84375 
Q 23.25 10.15625 27.203125 10.15625 
Q 31.453125 10.15625 34.34375 13.375 
Q 37.25 16.609375 37.25 22.078125 
Q 37.25 27.25 34.46875 30.265625 
Q 31.6875 33.296875 27.6875 33.296875 
Q 25.046875 33.296875 21.390625 32.28125 
L 22.90625 43.453125 
Q 28.46875 43.3125 31.390625 45.875 
Q 34.328125 48.4375 34.328125 52.6875 
Q 34.328125 56.296875 32.171875 58.4375 
Q 30.03125 60.59375 26.46875 60.59375 
Q 22.953125 60.59375 20.453125 58.15625 
Q 17.96875 55.71875 17.4375 51.03125 
L 4.78125 53.171875 
Q 6.109375 59.671875 8.765625 63.546875 
Q 11.421875 67.4375 16.1875 69.65625 
Q 20.953125 71.875 26.859375 71.875 
Q 36.96875 71.875 43.0625 65.4375 
Q 48.09375 60.15625 48.09375 53.515625 
Q 48.09375 44.09375 37.796875 38.484375 
Q 43.953125 37.15625 47.625 32.5625 
Q 51.3125 27.984375 51.3125 21.484375 
Q 51.3125 12.0625 44.421875 5.421875 
Q 37.546875 -1.21875 27.296875 -1.21875 
Q 17.578125 -1.21875 11.171875 4.375 
Q 4.78125 9.96875 3.765625 19 
z
" id="Arial-BoldMT-51"/>
      <path id="Arial-BoldMT-32"/>
      <path d="M 7.28125 0 
L 7.28125 71.578125 
L 30.46875 71.578125 
Q 43.65625 71.578125 47.65625 70.515625 
Q 53.8125 68.890625 57.953125 63.5 
Q 62.109375 58.109375 62.109375 49.5625 
Q 62.109375 42.96875 59.71875 38.46875 
Q 57.328125 33.984375 53.640625 31.421875 
Q 49.953125 28.859375 46.140625 28.03125 
Q 40.96875 27 31.15625 27 
L 21.734375 27 
L 21.734375 0 
z
M 21.734375 59.46875 
L 21.734375 39.15625 
L 29.640625 39.15625 
Q 38.1875 39.15625 41.0625 40.28125 
Q 43.953125 41.40625 45.578125 43.796875 
Q 47.21875 46.1875 47.21875 49.359375 
Q 47.21875 53.265625 44.921875 55.796875 
Q 42.625 58.34375 39.109375 58.984375 
Q 36.53125 59.46875 28.71875 59.46875 
z
" id="Arial-BoldMT-80"/>
      <path d="M 0.6875 51.859375 
L 15.28125 51.859375 
L 27.6875 15.046875 
L 39.796875 51.859375 
L 54 51.859375 
L 35.6875 1.953125 
L 32.421875 -7.078125 
Q 30.609375 -11.625 28.96875 -14.015625 
Q 27.34375 -16.40625 25.21875 -17.890625 
Q 23.09375 -19.390625 19.984375 -20.21875 
Q 16.890625 -21.046875 12.984375 -21.046875 
Q 9.03125 -21.046875 5.21875 -20.21875 
L 4 -9.46875 
Q 7.234375 -10.109375 9.8125 -10.109375 
Q 14.59375 -10.109375 16.890625 -7.296875 
Q 19.1875 -4.5 20.40625 -0.140625 
z
" id="Arial-BoldMT-121"/>
      <path d="M 20.3125 0 
L 6.59375 0 
L 6.59375 51.859375 
L 19.34375 51.859375 
L 19.34375 44.484375 
Q 22.609375 49.703125 25.21875 51.359375 
Q 27.828125 53.03125 31.15625 53.03125 
Q 35.84375 53.03125 40.1875 50.4375 
L 35.9375 38.484375 
Q 32.46875 40.71875 29.5 40.71875 
Q 26.609375 40.71875 24.609375 39.125 
Q 22.609375 37.546875 21.453125 33.390625 
Q 20.3125 29.25 20.3125 16.015625 
z
" id="Arial-BoldMT-114"/>
     </defs>
     <use xlink:href="#Arial-BoldMT-76"/>
     <use x="61.083984" xlink:href="#Arial-BoldMT-50"/>
     <use x="116.699219" xlink:href="#Arial-BoldMT-47"/>
     <use x="144.482422" xlink:href="#Arial-BoldMT-51"/>
     <use x="200.097656" xlink:href="#Arial-BoldMT-32"/>
     <use x="227.880859" xlink:href="#Arial-BoldMT-80"/>
     <use x="294.580078" xlink:href="#Arial-BoldMT-121"/>
     <use x="350.195312" xlink:href="#Arial-BoldMT-114"/>
    </g>
   </g>
  </g>
  <g id="axes_2">
   <g id="patch_6">
    <path d="M 234.636848 279.36 
L 336.5325 279.36 
L 336.5325 67.68 
L 234.636848 67.68 
z
" style="fill:#ffffff;"/>
   </g>
   <g id="patch_7">
    <path clip-path="url(#pe5dc2bb77d)" d="M 247.373804 279.36 
L 272.847717 279.36 
L 272.847717 126.567984 
L 247.373804 126.567984 
z
" style="fill:#488a21;fill-opacity:0.5;stroke:#488a21;stroke-dasharray:15,10;stroke-dashoffset:0;stroke-linejoin:miter;stroke-width:5;"/>
   </g>
   <g id="patch_8">
    <path clip-path="url(#pe5dc2bb77d)" d="M 298.32163 279.36 
L 323.795543 279.36 
L 323.795543 251.954783 
L 298.32163 251.954783 
z
" style="fill:#488a21;fill-opacity:0.5;stroke:#488a21;stroke-dasharray:15,10;stroke-dashoffset:0;stroke-linejoin:miter;stroke-width:5;"/>
   </g>
   <g id="matplotlib.axis_3">
    <g id="xtick_3"/>
    <g id="xtick_4"/>
   </g>
   <g id="matplotlib.axis_4">
    <g id="ytick_8">
     <g id="line2d_11">
      <g>
       <use style="stroke:#000000;stroke-width:4;" x="234.636848" xlink:href="#m2756e41d01" y="279.36"/>
      </g>
     </g>
    </g>
    <g id="ytick_9">
     <g id="line2d_12">
      <g>
       <use style="stroke:#000000;stroke-width:4;" x="234.636848" xlink:href="#m2756e41d01" y="244.08"/>
      </g>
     </g>
    </g>
    <g id="ytick_10">
     <g id="line2d_13">
      <g>
       <use style="stroke:#000000;stroke-width:4;" x="234.636848" xlink:href="#m2756e41d01" y="208.8"/>
      </g>
     </g>
    </g>
    <g id="ytick_11">
     <g id="line2d_14">
      <g>
       <use style="stroke:#000000;stroke-width:4;" x="234.636848" xlink:href="#m2756e41d01" y="173.52"/>
      </g>
     </g>
    </g>
    <g id="ytick_12">
     <g id="line2d_15">
      <g>
       <use style="stroke:#000000;stroke-width:4;" x="234.636848" xlink:href="#m2756e41d01" y="138.24"/>
      </g>
     </g>
    </g>
    <g id="ytick_13">
     <g id="line2d_16">
      <g>
       <use style="stroke:#000000;stroke-width:4;" x="234.636848" xlink:href="#m2756e41d01" y="102.96"/>
      </g>
     </g>
    </g>
    <g id="ytick_14">
     <g id="line2d_17">
      <g>
       <use style="stroke:#000000;stroke-width:4;" x="234.636848" xlink:href="#m2756e41d01" y="67.68"/>
      </g>
     </g>
    </g>
   </g>
   <g id="LineCollection_2">
    <path clip-path="url(#pe5dc2bb77d)" d="M 260.110761 139.48573 
L 260.110761 113.650238 
" style="fill:none;stroke:#488a21;stroke-opacity:0.8;stroke-width:5;"/>
    <path clip-path="url(#pe5dc2bb77d)" d="M 311.058587 260.775924 
L 311.058587 243.133643 
" style="fill:none;stroke:#488a21;stroke-opacity:0.8;stroke-width:5;"/>
   </g>
   <g id="line2d_18">
    <defs>
     <path d="M 8 0 
L -8 -0 
" id="mc9dc6f420c" style="stroke:#488a21;stroke-opacity:0.8;stroke-width:4;"/>
    </defs>
    <g clip-path="url(#pe5dc2bb77d)">
     <use style="fill:#488a21;fill-opacity:0.8;stroke:#488a21;stroke-opacity:0.8;stroke-width:4;" x="260.110761" xlink:href="#mc9dc6f420c" y="139.48573"/>
     <use style="fill:#488a21;fill-opacity:0.8;stroke:#488a21;stroke-opacity:0.8;stroke-width:4;" x="311.058587" xlink:href="#mc9dc6f420c" y="260.775924"/>
    </g>
   </g>
   <g id="line2d_19">
    <g clip-path="url(#pe5dc2bb77d)">
     <use style="fill:#488a21;fill-opacity:0.8;stroke:#488a21;stroke-opacity:0.8;stroke-width:4;" x="260.110761" xlink:href="#mc9dc6f420c" y="113.650238"/>
     <use style="fill:#488a21;fill-opacity:0.8;stroke:#488a21;stroke-opacity:0.8;stroke-width:4;" x="311.058587" xlink:href="#mc9dc6f420c" y="243.133643"/>
    </g>
   </g>
   <g id="line2d_20">
    <path clip-path="url(#pe5dc2bb77d)" d="M 260.110761 93.021641 
L 311.058587 93.021641 
" style="fill:none;stroke:#488a21;stroke-linecap:square;stroke-width:3;"/>
   </g>
   <g id="patch_9">
    <path d="M 234.636848 279.36 
L 234.636848 67.68 
" style="fill:none;stroke:#000000;stroke-linecap:square;stroke-linejoin:miter;stroke-width:4;"/>
   </g>
   <g id="text_8">
    <!-- *** -->
    <g style="fill:#488a21;" transform="translate(273.478414 94.736791)scale(0.20736 -0.20736)">
     <use xlink:href="#Arial-BoldMT-42"/>
     <use x="38.916016" xlink:href="#Arial-BoldMT-42"/>
     <use x="77.832031" xlink:href="#Arial-BoldMT-42"/>
    </g>
   </g>
   <g id="text_9">
    <!-- L5 Pyr -->
    <g transform="translate(259.171924 61.68)scale(0.1728 -0.1728)">
     <defs>
      <path d="M 4.4375 18.40625 
L 18.109375 19.828125 
Q 18.703125 15.1875 21.578125 12.46875 
Q 24.46875 9.765625 28.21875 9.765625 
Q 32.515625 9.765625 35.5 13.25 
Q 38.484375 16.75 38.484375 23.78125 
Q 38.484375 30.375 35.515625 33.671875 
Q 32.5625 36.96875 27.828125 36.96875 
Q 21.921875 36.96875 17.234375 31.734375 
L 6.109375 33.34375 
L 13.140625 70.609375 
L 49.421875 70.609375 
L 49.421875 57.765625 
L 23.53125 57.765625 
L 21.390625 45.609375 
Q 25.984375 47.90625 30.765625 47.90625 
Q 39.890625 47.90625 46.234375 41.265625 
Q 52.59375 34.625 52.59375 24.03125 
Q 52.59375 15.1875 47.46875 8.25 
Q 40.484375 -1.21875 28.078125 -1.21875 
Q 18.171875 -1.21875 11.921875 4.09375 
Q 5.671875 9.421875 4.4375 18.40625 
z
" id="Arial-BoldMT-53"/>
     </defs>
     <use xlink:href="#Arial-BoldMT-76"/>
     <use x="61.083984" xlink:href="#Arial-BoldMT-53"/>
     <use x="116.699219" xlink:href="#Arial-BoldMT-32"/>
     <use x="144.482422" xlink:href="#Arial-BoldMT-80"/>
     <use x="211.181641" xlink:href="#Arial-BoldMT-121"/>
     <use x="266.796875" xlink:href="#Arial-BoldMT-114"/>
    </g>
   </g>
  </g>
  <g id="axes_3">
   <g id="patch_10">
    <path d="M 102.1725 533.376 
L 204.068152 533.376 
L 204.068152 321.696 
L 102.1725 321.696 
z
" style="fill:#ffffff;"/>
   </g>
   <g id="patch_11">
    <path clip-path="url(#pff070f1216)" d="M 114.909457 533.376 
L 140.38337 533.376 
L 140.38337 385.728682 
L 114.909457 385.728682 
z
" style="fill:#50a2d5;fill-opacity:0.5;stroke:#50a2d5;stroke-linejoin:miter;stroke-width:5;"/>
   </g>
   <g id="patch_12">
    <path clip-path="url(#pff070f1216)" d="M 165.857283 533.376 
L 191.331196 533.376 
L 191.331196 522.010961 
L 165.857283 522.010961 
z
" style="fill:#50a2d5;fill-opacity:0.5;stroke:#50a2d5;stroke-linejoin:miter;stroke-width:5;"/>
   </g>
   <g id="matplotlib.axis_5">
    <g id="xtick_5">
     <g id="text_10">
      <!-- gabors -->
      <g transform="translate(84.340295 594.356433)rotate(-45)scale(0.1728 -0.1728)">
       <defs>
        <path d="M 5.90625 -3.421875 
L 21.578125 -5.328125 
Q 21.96875 -8.0625 23.390625 -9.078125 
Q 25.34375 -10.546875 29.546875 -10.546875 
Q 34.90625 -10.546875 37.59375 -8.9375 
Q 39.40625 -7.859375 40.328125 -5.46875 
Q 40.96875 -3.765625 40.96875 0.828125 
L 40.96875 8.40625 
Q 34.8125 0 25.4375 0 
Q 14.984375 0 8.890625 8.84375 
Q 4.109375 15.828125 4.109375 26.21875 
Q 4.109375 39.265625 10.375 46.140625 
Q 16.65625 53.03125 25.984375 53.03125 
Q 35.59375 53.03125 41.84375 44.578125 
L 41.84375 51.859375 
L 54.6875 51.859375 
L 54.6875 5.328125 
Q 54.6875 -3.859375 53.171875 -8.390625 
Q 51.65625 -12.9375 48.921875 -15.515625 
Q 46.1875 -18.109375 41.625 -19.578125 
Q 37.0625 -21.046875 30.078125 -21.046875 
Q 16.890625 -21.046875 11.375 -16.53125 
Q 5.859375 -12.015625 5.859375 -5.078125 
Q 5.859375 -4.390625 5.90625 -3.421875 
z
M 18.171875 27 
Q 18.171875 18.75 21.359375 14.90625 
Q 24.5625 11.078125 29.25 11.078125 
Q 34.28125 11.078125 37.75 15.015625 
Q 41.21875 18.953125 41.21875 26.65625 
Q 41.21875 34.71875 37.890625 38.625 
Q 34.578125 42.53125 29.5 42.53125 
Q 24.5625 42.53125 21.359375 38.6875 
Q 18.171875 34.859375 18.171875 27 
z
" id="Arial-BoldMT-103"/>
        <path d="M 17.4375 36.03125 
L 4.984375 38.28125 
Q 7.078125 45.796875 12.203125 49.40625 
Q 17.328125 53.03125 27.4375 53.03125 
Q 36.625 53.03125 41.109375 50.859375 
Q 45.609375 48.6875 47.4375 45.34375 
Q 49.265625 42 49.265625 33.0625 
L 49.125 17.046875 
Q 49.125 10.203125 49.78125 6.953125 
Q 50.4375 3.71875 52.25 0 
L 38.671875 0 
Q 38.140625 1.375 37.359375 4.046875 
Q 37.015625 5.28125 36.859375 5.671875 
Q 33.34375 2.25 29.34375 0.53125 
Q 25.34375 -1.171875 20.796875 -1.171875 
Q 12.796875 -1.171875 8.171875 3.171875 
Q 3.5625 7.515625 3.5625 14.15625 
Q 3.5625 18.5625 5.65625 22 
Q 7.765625 25.4375 11.546875 27.265625 
Q 15.328125 29.109375 22.46875 30.46875 
Q 32.078125 32.28125 35.796875 33.84375 
L 35.796875 35.203125 
Q 35.796875 39.15625 33.84375 40.84375 
Q 31.890625 42.53125 26.46875 42.53125 
Q 22.796875 42.53125 20.75 41.09375 
Q 18.703125 39.65625 17.4375 36.03125 
z
M 35.796875 24.90625 
Q 33.15625 24.03125 27.4375 22.796875 
Q 21.734375 21.578125 19.96875 20.40625 
Q 17.28125 18.5 17.28125 15.578125 
Q 17.28125 12.703125 19.421875 10.59375 
Q 21.578125 8.5 24.90625 8.5 
Q 28.609375 8.5 31.984375 10.9375 
Q 34.46875 12.796875 35.25 15.484375 
Q 35.796875 17.234375 35.796875 22.171875 
z
" id="Arial-BoldMT-97"/>
        <path d="M 6.59375 0 
L 6.59375 71.578125 
L 20.3125 71.578125 
L 20.3125 45.796875 
Q 26.65625 53.03125 35.359375 53.03125 
Q 44.828125 53.03125 51.03125 46.171875 
Q 57.234375 39.3125 57.234375 26.46875 
Q 57.234375 13.1875 50.90625 6 
Q 44.578125 -1.171875 35.546875 -1.171875 
Q 31.109375 -1.171875 26.78125 1.046875 
Q 22.46875 3.265625 19.34375 7.625 
L 19.34375 0 
z
M 20.21875 27.046875 
Q 20.21875 19 22.75 15.140625 
Q 26.3125 9.671875 32.234375 9.671875 
Q 36.765625 9.671875 39.96875 13.546875 
Q 43.171875 17.4375 43.171875 25.78125 
Q 43.171875 34.671875 39.9375 38.59375 
Q 36.71875 42.53125 31.6875 42.53125 
Q 26.765625 42.53125 23.484375 38.6875 
Q 20.21875 34.859375 20.21875 27.046875 
z
" id="Arial-BoldMT-98"/>
        <path d="M 4 26.65625 
Q 4 33.5 7.375 39.890625 
Q 10.75 46.296875 16.921875 49.65625 
Q 23.09375 53.03125 30.71875 53.03125 
Q 42.484375 53.03125 50 45.390625 
Q 57.515625 37.75 57.515625 26.078125 
Q 57.515625 14.3125 49.921875 6.5625 
Q 42.328125 -1.171875 30.8125 -1.171875 
Q 23.6875 -1.171875 17.21875 2.046875 
Q 10.75 5.28125 7.375 11.5 
Q 4 17.71875 4 26.65625 
z
M 18.0625 25.921875 
Q 18.0625 18.21875 21.71875 14.109375 
Q 25.390625 10.015625 30.765625 10.015625 
Q 36.140625 10.015625 39.765625 14.109375 
Q 43.40625 18.21875 43.40625 26.03125 
Q 43.40625 33.640625 39.765625 37.734375 
Q 36.140625 41.84375 30.765625 41.84375 
Q 25.390625 41.84375 21.71875 37.734375 
Q 18.0625 33.640625 18.0625 25.921875 
z
" id="Arial-BoldMT-111"/>
        <path d="M 2.34375 14.796875 
L 16.109375 16.890625 
Q 17 12.890625 19.671875 10.8125 
Q 22.359375 8.734375 27.203125 8.734375 
Q 32.515625 8.734375 35.203125 10.6875 
Q 37.015625 12.0625 37.015625 14.359375 
Q 37.015625 15.921875 36.03125 16.9375 
Q 35.015625 17.921875 31.453125 18.75 
Q 14.84375 22.40625 10.40625 25.4375 
Q 4.25 29.640625 4.25 37.109375 
Q 4.25 43.84375 9.5625 48.4375 
Q 14.890625 53.03125 26.078125 53.03125 
Q 36.71875 53.03125 41.890625 49.5625 
Q 47.078125 46.09375 49.03125 39.3125 
L 36.078125 36.921875 
Q 35.25 39.9375 32.921875 41.546875 
Q 30.609375 43.171875 26.3125 43.171875 
Q 20.90625 43.171875 18.5625 41.65625 
Q 17 40.578125 17 38.875 
Q 17 37.40625 18.359375 36.375 
Q 20.21875 35.015625 31.171875 32.515625 
Q 42.140625 30.03125 46.484375 26.421875 
Q 50.78125 22.75 50.78125 16.21875 
Q 50.78125 9.078125 44.828125 3.953125 
Q 38.875 -1.171875 27.203125 -1.171875 
Q 16.609375 -1.171875 10.421875 3.125 
Q 4.25 7.421875 2.34375 14.796875 
z
" id="Arial-BoldMT-115"/>
       </defs>
       <use xlink:href="#Arial-BoldMT-103"/>
       <use x="61.083984" xlink:href="#Arial-BoldMT-97"/>
       <use x="116.699219" xlink:href="#Arial-BoldMT-98"/>
       <use x="177.783203" xlink:href="#Arial-BoldMT-111"/>
       <use x="238.867188" xlink:href="#Arial-BoldMT-114"/>
       <use x="277.783203" xlink:href="#Arial-BoldMT-115"/>
      </g>
     </g>
    </g>
    <g id="xtick_6">
     <g id="text_11">
      <!-- visflow -->
      <g transform="translate(134.768821 595.036104)rotate(-45)scale(0.1728 -0.1728)">
       <defs>
        <path d="M 21.4375 0 
L 0.53125 51.859375 
L 14.9375 51.859375 
L 24.703125 25.390625 
L 27.546875 16.546875 
Q 28.65625 19.921875 28.953125 21 
Q 29.640625 23.1875 30.421875 25.390625 
L 40.28125 51.859375 
L 54.390625 51.859375 
L 33.796875 0 
z
" id="Arial-BoldMT-118"/>
        <path d="M 7.171875 58.890625 
L 7.171875 71.578125 
L 20.90625 71.578125 
L 20.90625 58.890625 
z
M 7.171875 0 
L 7.171875 51.859375 
L 20.90625 51.859375 
L 20.90625 0 
z
" id="Arial-BoldMT-105"/>
        <path d="M 1.171875 51.859375 
L 8.796875 51.859375 
L 8.796875 55.765625 
Q 8.796875 62.3125 10.1875 65.53125 
Q 11.578125 68.75 15.3125 70.765625 
Q 19.046875 72.796875 24.75 72.796875 
Q 30.609375 72.796875 36.234375 71.046875 
L 34.375 61.46875 
Q 31.109375 62.25 28.078125 62.25 
Q 25.09375 62.25 23.796875 60.859375 
Q 22.515625 59.46875 22.515625 55.515625 
L 22.515625 51.859375 
L 32.765625 51.859375 
L 32.765625 41.0625 
L 22.515625 41.0625 
L 22.515625 0 
L 8.796875 0 
L 8.796875 41.0625 
L 1.171875 41.0625 
z
" id="Arial-BoldMT-102"/>
        <path d="M 7.171875 0 
L 7.171875 71.578125 
L 20.90625 71.578125 
L 20.90625 0 
z
" id="Arial-BoldMT-108"/>
        <path d="M 16.84375 0 
L 0.4375 51.859375 
L 13.765625 51.859375 
L 23.484375 17.875 
L 32.421875 51.859375 
L 45.65625 51.859375 
L 54.296875 17.875 
L 64.203125 51.859375 
L 77.734375 51.859375 
L 61.078125 0 
L 47.90625 0 
L 38.96875 33.34375 
L 30.171875 0 
z
" id="Arial-BoldMT-119"/>
       </defs>
       <use xlink:href="#Arial-BoldMT-118"/>
       <use x="55.615234" xlink:href="#Arial-BoldMT-105"/>
       <use x="83.398438" xlink:href="#Arial-BoldMT-115"/>
       <use x="139.013672" xlink:href="#Arial-BoldMT-102"/>
       <use x="172.314453" xlink:href="#Arial-BoldMT-108"/>
       <use x="200.097656" xlink:href="#Arial-BoldMT-111"/>
       <use x="261.181641" xlink:href="#Arial-BoldMT-119"/>
      </g>
     </g>
    </g>
   </g>
   <g id="matplotlib.axis_6">
    <g id="ytick_15">
     <g id="line2d_21">
      <g>
       <use style="stroke:#000000;stroke-width:4;" x="102.1725" xlink:href="#m2756e41d01" y="533.376"/>
      </g>
     </g>
     <g id="text_12">
      <!-- 0 -->
      <g transform="translate(81.0632 539.56035)scale(0.1728 -0.1728)">
       <use xlink:href="#Arial-BoldMT-48"/>
      </g>
     </g>
    </g>
    <g id="ytick_16">
     <g id="line2d_22">
      <g>
       <use style="stroke:#000000;stroke-width:4;" x="102.1725" xlink:href="#m2756e41d01" y="498.096"/>
      </g>
     </g>
    </g>
    <g id="ytick_17">
     <g id="line2d_23">
      <g>
       <use style="stroke:#000000;stroke-width:4;" x="102.1725" xlink:href="#m2756e41d01" y="462.816"/>
      </g>
     </g>
     <g id="text_13">
      <!-- 0.4 -->
      <g transform="translate(66.6533 469.00035)scale(0.1728 -0.1728)">
       <use xlink:href="#Arial-BoldMT-48"/>
       <use x="55.615234" xlink:href="#Arial-BoldMT-46"/>
       <use x="83.398438" xlink:href="#Arial-BoldMT-52"/>
      </g>
     </g>
    </g>
    <g id="ytick_18">
     <g id="line2d_24">
      <g>
       <use style="stroke:#000000;stroke-width:4;" x="102.1725" xlink:href="#m2756e41d01" y="427.536"/>
      </g>
     </g>
    </g>
    <g id="ytick_19">
     <g id="line2d_25">
      <g>
       <use style="stroke:#000000;stroke-width:4;" x="102.1725" xlink:href="#m2756e41d01" y="392.256"/>
      </g>
     </g>
     <g id="text_14">
      <!-- 0.8 -->
      <g transform="translate(66.6533 398.44035)scale(0.1728 -0.1728)">
       <defs>
        <path d="M 16.015625 38.625 
Q 10.6875 40.875 8.265625 44.796875 
Q 5.859375 48.734375 5.859375 53.421875 
Q 5.859375 61.421875 11.453125 66.640625 
Q 17.046875 71.875 27.34375 71.875 
Q 37.546875 71.875 43.1875 66.640625 
Q 48.828125 61.421875 48.828125 53.421875 
Q 48.828125 48.4375 46.234375 44.546875 
Q 43.65625 40.671875 38.96875 38.625 
Q 44.921875 36.234375 48.015625 31.640625 
Q 51.125 27.046875 51.125 21.046875 
Q 51.125 11.140625 44.796875 4.9375 
Q 38.484375 -1.265625 27.984375 -1.265625 
Q 18.21875 -1.265625 11.71875 3.859375 
Q 4.046875 9.90625 4.046875 20.453125 
Q 4.046875 26.265625 6.921875 31.125 
Q 9.8125 35.984375 16.015625 38.625 
z
M 18.84375 52.4375 
Q 18.84375 48.34375 21.15625 46.046875 
Q 23.484375 43.75 27.34375 43.75 
Q 31.25 43.75 33.59375 46.0625 
Q 35.9375 48.390625 35.9375 52.484375 
Q 35.9375 56.34375 33.609375 58.65625 
Q 31.296875 60.984375 27.484375 60.984375 
Q 23.53125 60.984375 21.1875 58.640625 
Q 18.84375 56.296875 18.84375 52.4375 
z
M 17.578125 21.78125 
Q 17.578125 16.109375 20.484375 12.9375 
Q 23.390625 9.765625 27.734375 9.765625 
Q 31.984375 9.765625 34.765625 12.8125 
Q 37.546875 15.875 37.546875 21.625 
Q 37.546875 26.65625 34.71875 29.703125 
Q 31.890625 32.765625 27.546875 32.765625 
Q 22.515625 32.765625 20.046875 29.296875 
Q 17.578125 25.828125 17.578125 21.78125 
z
" id="Arial-BoldMT-56"/>
       </defs>
       <use xlink:href="#Arial-BoldMT-48"/>
       <use x="55.615234" xlink:href="#Arial-BoldMT-46"/>
       <use x="83.398438" xlink:href="#Arial-BoldMT-56"/>
      </g>
     </g>
    </g>
    <g id="ytick_20">
     <g id="line2d_26">
      <g>
       <use style="stroke:#000000;stroke-width:4;" x="102.1725" xlink:href="#m2756e41d01" y="356.976"/>
      </g>
     </g>
    </g>
    <g id="ytick_21">
     <g id="line2d_27">
      <g>
       <use style="stroke:#000000;stroke-width:4;" x="102.1725" xlink:href="#m2756e41d01" y="321.696"/>
      </g>
     </g>
     <g id="text_15">
      <!-- 1.2 -->
      <g transform="translate(66.6533 327.88035)scale(0.1728 -0.1728)">
       <defs>
        <path d="M 39.359375 0 
L 25.640625 0 
L 25.640625 51.703125 
Q 18.109375 44.671875 7.90625 41.3125 
L 7.90625 53.765625 
Q 13.28125 55.515625 19.578125 60.421875 
Q 25.875 65.328125 28.21875 71.875 
L 39.359375 71.875 
z
" id="Arial-BoldMT-49"/>
       </defs>
       <use xlink:href="#Arial-BoldMT-49"/>
       <use x="55.615234" xlink:href="#Arial-BoldMT-46"/>
       <use x="83.398438" xlink:href="#Arial-BoldMT-50"/>
      </g>
     </g>
    </g>
   </g>
   <g id="LineCollection_3">
    <path clip-path="url(#pff070f1216)" d="M 127.646413 398.514886 
L 127.646413 372.942478 
" style="fill:none;stroke:#50a2d5;stroke-opacity:0.8;stroke-width:5;"/>
    <path clip-path="url(#pff070f1216)" d="M 178.594239 537.447638 
L 178.594239 506.574284 
" style="fill:none;stroke:#50a2d5;stroke-opacity:0.8;stroke-width:5;"/>
   </g>
   <g id="line2d_28">
    <defs>
     <path d="M 8 0 
L -8 -0 
" id="m11bb69e7e8" style="stroke:#50a2d5;stroke-opacity:0.8;stroke-width:4;"/>
    </defs>
    <g clip-path="url(#pff070f1216)">
     <use style="fill:#50a2d5;fill-opacity:0.8;stroke:#50a2d5;stroke-opacity:0.8;stroke-width:4;" x="127.646413" xlink:href="#m11bb69e7e8" y="398.514886"/>
     <use style="fill:#50a2d5;fill-opacity:0.8;stroke:#50a2d5;stroke-opacity:0.8;stroke-width:4;" x="178.594239" xlink:href="#m11bb69e7e8" y="537.447638"/>
    </g>
   </g>
   <g id="line2d_29">
    <g clip-path="url(#pff070f1216)">
     <use style="fill:#50a2d5;fill-opacity:0.8;stroke:#50a2d5;stroke-opacity:0.8;stroke-width:4;" x="127.646413" xlink:href="#m11bb69e7e8" y="372.942478"/>
     <use style="fill:#50a2d5;fill-opacity:0.8;stroke:#50a2d5;stroke-opacity:0.8;stroke-width:4;" x="178.594239" xlink:href="#m11bb69e7e8" y="506.574284"/>
    </g>
   </g>
   <g id="line2d_30">
    <path clip-path="url(#pff070f1216)" d="M 127.646413 353.037354 
L 178.594239 353.037354 
" style="fill:none;stroke:#50a2d5;stroke-linecap:square;stroke-width:3;"/>
   </g>
   <g id="patch_13">
    <path d="M 102.1725 533.376 
L 102.1725 321.696 
" style="fill:none;stroke:#000000;stroke-linecap:square;stroke-linejoin:miter;stroke-width:4;"/>
   </g>
   <g id="patch_14">
    <path d="M 102.1725 533.376 
L 204.068152 533.376 
" style="fill:none;stroke:#000000;stroke-linecap:square;stroke-linejoin:miter;stroke-width:4;"/>
   </g>
   <g id="text_16">
    <!-- *** -->
    <g style="fill:#50a2d5;" transform="translate(141.014066 355.212897)scale(0.20736 -0.20736)">
     <use xlink:href="#Arial-BoldMT-42"/>
     <use x="38.916016" xlink:href="#Arial-BoldMT-42"/>
     <use x="77.832031" xlink:href="#Arial-BoldMT-42"/>
    </g>
   </g>
  </g>
  <g id="axes_4">
   <g id="patch_15">
    <path d="M 234.636848 533.376 
L 336.5325 533.376 
L 336.5325 321.696 
L 234.636848 321.696 
z
" style="fill:#ffffff;"/>
   </g>
   <g id="patch_16">
    <path clip-path="url(#p12db3663d4)" d="M 247.373804 533.376 
L 272.847717 533.376 
L 272.847717 461.394089 
L 247.373804 461.394089 
z
" style="fill:#22567a;fill-opacity:0.5;stroke:#22567a;stroke-dasharray:15,10;stroke-dashoffset:0;stroke-linejoin:miter;stroke-width:5;"/>
   </g>
   <g id="patch_17">
    <path clip-path="url(#p12db3663d4)" d="M 298.32163 533.376 
L 323.795543 533.376 
L 323.795543 513.17124 
L 298.32163 513.17124 
z
" style="fill:#22567a;fill-opacity:0.5;stroke:#22567a;stroke-dasharray:15,10;stroke-dashoffset:0;stroke-linejoin:miter;stroke-width:5;"/>
   </g>
   <g id="matplotlib.axis_7">
    <g id="xtick_7">
     <g id="text_17">
      <!-- gabors -->
      <g transform="translate(216.804642 594.356433)rotate(-45)scale(0.1728 -0.1728)">
       <use xlink:href="#Arial-BoldMT-103"/>
       <use x="61.083984" xlink:href="#Arial-BoldMT-97"/>
       <use x="116.699219" xlink:href="#Arial-BoldMT-98"/>
       <use x="177.783203" xlink:href="#Arial-BoldMT-111"/>
       <use x="238.867188" xlink:href="#Arial-BoldMT-114"/>
       <use x="277.783203" xlink:href="#Arial-BoldMT-115"/>
      </g>
     </g>
    </g>
    <g id="xtick_8">
     <g id="text_18">
      <!-- visflow -->
      <g transform="translate(267.233169 595.036104)rotate(-45)scale(0.1728 -0.1728)">
       <use xlink:href="#Arial-BoldMT-118"/>
       <use x="55.615234" xlink:href="#Arial-BoldMT-105"/>
       <use x="83.398438" xlink:href="#Arial-BoldMT-115"/>
       <use x="139.013672" xlink:href="#Arial-BoldMT-102"/>
       <use x="172.314453" xlink:href="#Arial-BoldMT-108"/>
       <use x="200.097656" xlink:href="#Arial-BoldMT-111"/>
       <use x="261.181641" xlink:href="#Arial-BoldMT-119"/>
      </g>
     </g>
    </g>
   </g>
   <g id="matplotlib.axis_8">
    <g id="ytick_22">
     <g id="line2d_31">
      <g>
       <use style="stroke:#000000;stroke-width:4;" x="234.636848" xlink:href="#m2756e41d01" y="533.376"/>
      </g>
     </g>
    </g>
    <g id="ytick_23">
     <g id="line2d_32">
      <g>
       <use style="stroke:#000000;stroke-width:4;" x="234.636848" xlink:href="#m2756e41d01" y="498.096"/>
      </g>
     </g>
    </g>
    <g id="ytick_24">
     <g id="line2d_33">
      <g>
       <use style="stroke:#000000;stroke-width:4;" x="234.636848" xlink:href="#m2756e41d01" y="462.816"/>
      </g>
     </g>
    </g>
    <g id="ytick_25">
     <g id="line2d_34">
      <g>
       <use style="stroke:#000000;stroke-width:4;" x="234.636848" xlink:href="#m2756e41d01" y="427.536"/>
      </g>
     </g>
    </g>
    <g id="ytick_26">
     <g id="line2d_35">
      <g>
       <use style="stroke:#000000;stroke-width:4;" x="234.636848" xlink:href="#m2756e41d01" y="392.256"/>
      </g>
     </g>
    </g>
    <g id="ytick_27">
     <g id="line2d_36">
      <g>
       <use style="stroke:#000000;stroke-width:4;" x="234.636848" xlink:href="#m2756e41d01" y="356.976"/>
      </g>
     </g>
    </g>
    <g id="ytick_28">
     <g id="line2d_37">
      <g>
       <use style="stroke:#000000;stroke-width:4;" x="234.636848" xlink:href="#m2756e41d01" y="321.696"/>
      </g>
     </g>
    </g>
   </g>
   <g id="LineCollection_4">
    <path clip-path="url(#p12db3663d4)" d="M 260.110761 487.345045 
L 260.110761 435.443134 
" style="fill:none;stroke:#22567a;stroke-opacity:0.8;stroke-width:5;"/>
    <path clip-path="url(#p12db3663d4)" d="M 311.058587 528.557443 
L 311.058587 497.785036 
" style="fill:none;stroke:#22567a;stroke-opacity:0.8;stroke-width:5;"/>
   </g>
   <g id="line2d_38">
    <defs>
     <path d="M 8 0 
L -8 -0 
" id="m74badae592" style="stroke:#22567a;stroke-opacity:0.8;stroke-width:4;"/>
    </defs>
    <g clip-path="url(#p12db3663d4)">
     <use style="fill:#22567a;fill-opacity:0.8;stroke:#22567a;stroke-opacity:0.8;stroke-width:4;" x="260.110761" xlink:href="#m74badae592" y="487.345045"/>
     <use style="fill:#22567a;fill-opacity:0.8;stroke:#22567a;stroke-opacity:0.8;stroke-width:4;" x="311.058587" xlink:href="#m74badae592" y="528.557443"/>
    </g>
   </g>
   <g id="line2d_39">
    <g clip-path="url(#p12db3663d4)">
     <use style="fill:#22567a;fill-opacity:0.8;stroke:#22567a;stroke-opacity:0.8;stroke-width:4;" x="260.110761" xlink:href="#m74badae592" y="435.443134"/>
     <use style="fill:#22567a;fill-opacity:0.8;stroke:#22567a;stroke-opacity:0.8;stroke-width:4;" x="311.058587" xlink:href="#m74badae592" y="497.785036"/>
    </g>
   </g>
   <g id="patch_18">
    <path d="M 234.636848 533.376 
L 234.636848 321.696 
" style="fill:none;stroke:#000000;stroke-linecap:square;stroke-linejoin:miter;stroke-width:4;"/>
   </g>
   <g id="patch_19">
    <path d="M 234.636848 533.376 
L 336.5325 533.376 
" style="fill:none;stroke:#000000;stroke-linecap:square;stroke-linejoin:miter;stroke-width:4;"/>
   </g>
  </g>
  <g id="axes_5">
   <g id="patch_20">
    <path d="M 381.8925 533.376 
L 472.6125 533.376 
L 472.6125 67.68 
L 381.8925 67.68 
z
" style="fill:#ffffff;"/>
   </g>
   <g id="patch_21">
    <path clip-path="url(#pe2a3214c7c)" d="M 393.2325 533.376 
L 415.9125 533.376 
L 415.9125 291.248602 
L 393.2325 291.248602 
z
" style="fill:#656565;fill-opacity:0.2;stroke:#656565;stroke-linejoin:miter;stroke-width:5;"/>
   </g>
   <g id="patch_22">
    <path clip-path="url(#pe2a3214c7c)" d="M 438.5925 533.376 
L 461.2725 533.376 
L 461.2725 493.276132 
L 438.5925 493.276132 
z
" style="fill:#656565;fill-opacity:0.2;stroke:#656565;stroke-linejoin:miter;stroke-width:5;"/>
   </g>
   <g id="matplotlib.axis_9">
    <g id="xtick_9">
     <g id="text_19">
      <!-- gabors -->
      <g transform="translate(361.266382 594.356433)rotate(-45)scale(0.1728 -0.1728)">
       <use xlink:href="#Arial-BoldMT-103"/>
       <use x="61.083984" xlink:href="#Arial-BoldMT-97"/>
       <use x="116.699219" xlink:href="#Arial-BoldMT-98"/>
       <use x="177.783203" xlink:href="#Arial-BoldMT-111"/>
       <use x="238.867188" xlink:href="#Arial-BoldMT-114"/>
       <use x="277.783203" xlink:href="#Arial-BoldMT-115"/>
      </g>
     </g>
    </g>
    <g id="xtick_10">
     <g id="text_20">
      <!-- visflow -->
      <g transform="translate(406.107082 595.036104)rotate(-45)scale(0.1728 -0.1728)">
       <use xlink:href="#Arial-BoldMT-118"/>
       <use x="55.615234" xlink:href="#Arial-BoldMT-105"/>
       <use x="83.398438" xlink:href="#Arial-BoldMT-115"/>
       <use x="139.013672" xlink:href="#Arial-BoldMT-102"/>
       <use x="172.314453" xlink:href="#Arial-BoldMT-108"/>
       <use x="200.097656" xlink:href="#Arial-BoldMT-111"/>
       <use x="261.181641" xlink:href="#Arial-BoldMT-119"/>
      </g>
     </g>
    </g>
   </g>
   <g id="matplotlib.axis_10">
    <g id="ytick_29">
     <g id="line2d_40">
      <g>
       <use style="stroke:#000000;stroke-width:4;" x="381.8925" xlink:href="#m2756e41d01" y="533.376"/>
      </g>
     </g>
     <g id="text_21">
      <!-- 0 -->
      <g transform="translate(360.7832 539.56035)scale(0.1728 -0.1728)">
       <use xlink:href="#Arial-BoldMT-48"/>
      </g>
     </g>
    </g>
    <g id="ytick_30">
     <g id="line2d_41">
      <g>
       <use style="stroke:#000000;stroke-width:4;" x="381.8925" xlink:href="#m2756e41d01" y="440.2368"/>
      </g>
     </g>
    </g>
    <g id="ytick_31">
     <g id="line2d_42">
      <g>
       <use style="stroke:#000000;stroke-width:4;" x="381.8925" xlink:href="#m2756e41d01" y="347.0976"/>
      </g>
     </g>
     <g id="text_22">
      <!-- 0.4 -->
      <g transform="translate(346.3733 353.28195)scale(0.1728 -0.1728)">
       <use xlink:href="#Arial-BoldMT-48"/>
       <use x="55.615234" xlink:href="#Arial-BoldMT-46"/>
       <use x="83.398438" xlink:href="#Arial-BoldMT-52"/>
      </g>
     </g>
    </g>
    <g id="ytick_32">
     <g id="line2d_43">
      <g>
       <use style="stroke:#000000;stroke-width:4;" x="381.8925" xlink:href="#m2756e41d01" y="253.9584"/>
      </g>
     </g>
    </g>
    <g id="ytick_33">
     <g id="line2d_44">
      <g>
       <use style="stroke:#000000;stroke-width:4;" x="381.8925" xlink:href="#m2756e41d01" y="160.8192"/>
      </g>
     </g>
     <g id="text_23">
      <!-- 0.8 -->
      <g transform="translate(346.3733 167.00355)scale(0.1728 -0.1728)">
       <use xlink:href="#Arial-BoldMT-48"/>
       <use x="55.615234" xlink:href="#Arial-BoldMT-46"/>
       <use x="83.398438" xlink:href="#Arial-BoldMT-56"/>
      </g>
     </g>
    </g>
    <g id="ytick_34">
     <g id="line2d_45">
      <g>
       <use style="stroke:#000000;stroke-width:4;" x="381.8925" xlink:href="#m2756e41d01" y="67.68"/>
      </g>
     </g>
    </g>
   </g>
   <g id="LineCollection_5">
    <path clip-path="url(#pe2a3214c7c)" d="M 404.5725 311.708541 
L 404.5725 270.788663 
" style="fill:none;stroke:#656565;stroke-opacity:0.8;stroke-width:5;"/>
    <path clip-path="url(#pe2a3214c7c)" d="M 449.9325 508.62445 
L 449.9325 477.927813 
" style="fill:none;stroke:#656565;stroke-opacity:0.8;stroke-width:5;"/>
   </g>
   <g id="line2d_46">
    <defs>
     <path d="M 8 0 
L -8 -0 
" id="mdb69f8da4e" style="stroke:#656565;stroke-opacity:0.8;stroke-width:4;"/>
    </defs>
    <g clip-path="url(#pe2a3214c7c)">
     <use style="fill:#656565;fill-opacity:0.8;stroke:#656565;stroke-opacity:0.8;stroke-width:4;" x="404.5725" xlink:href="#mdb69f8da4e" y="311.708541"/>
     <use style="fill:#656565;fill-opacity:0.8;stroke:#656565;stroke-opacity:0.8;stroke-width:4;" x="449.9325" xlink:href="#mdb69f8da4e" y="508.62445"/>
    </g>
   </g>
   <g id="line2d_47">
    <g clip-path="url(#pe2a3214c7c)">
     <use style="fill:#656565;fill-opacity:0.8;stroke:#656565;stroke-opacity:0.8;stroke-width:4;" x="404.5725" xlink:href="#mdb69f8da4e" y="270.788663"/>
     <use style="fill:#656565;fill-opacity:0.8;stroke:#656565;stroke-opacity:0.8;stroke-width:4;" x="449.9325" xlink:href="#mdb69f8da4e" y="477.927813"/>
    </g>
   </g>
   <g id="line2d_48">
    <path clip-path="url(#pe2a3214c7c)" d="M 404.5725 98.566461 
L 449.9325 98.566461 
" style="fill:none;stroke:#656565;stroke-linecap:square;stroke-width:3;"/>
   </g>
   <g id="patch_23">
    <path d="M 381.8925 533.376 
L 381.8925 67.68 
" style="fill:none;stroke:#000000;stroke-linecap:square;stroke-linejoin:miter;stroke-width:4;"/>
   </g>
   <g id="patch_24">
    <path d="M 381.8925 533.376 
L 472.6125 533.376 
" style="fill:none;stroke:#000000;stroke-linecap:square;stroke-linejoin:miter;stroke-width:4;"/>
   </g>
   <g id="text_24">
    <!-- *** -->
    <g style="fill:#656565;" transform="translate(415.14624 97.037767)scale(0.20736 -0.20736)">
     <use xlink:href="#Arial-BoldMT-42"/>
     <use x="38.916016" xlink:href="#Arial-BoldMT-42"/>
     <use x="77.832031" xlink:href="#Arial-BoldMT-42"/>
    </g>
   </g>
   <g id="text_25">
    <!-- all -->
    <g transform="translate(417.64725 61.68)scale(0.1728 -0.1728)">
     <use xlink:href="#Arial-BoldMT-97"/>
     <use x="55.615234" xlink:href="#Arial-BoldMT-108"/>
     <use x="83.398438" xlink:href="#Arial-BoldMT-108"/>
    </g>
   </g>
   <g id="PathCollection_1">
    <defs>
     <path d="M 0 7.071068 
C 1.875269 7.071068 3.673985 6.326016 5 5 
C 6.326016 3.673985 7.071068 1.875269 7.071068 0 
C 7.071068 -1.875269 6.326016 -3.673985 5 -5 
C 3.673985 -6.326016 1.875269 -7.071068 0 -7.071068 
C -1.875269 -7.071068 -3.673985 -6.326016 -5 -5 
C -6.326016 -3.673985 -7.071068 -1.875269 -7.071068 0 
C -7.071068 1.875269 -6.326016 3.673985 -5 5 
C -3.673985 6.326016 -1.875269 7.071068 0 7.071068 
z
" id="m890f1d28ef" style="stroke:#ffffff;stroke-opacity:0.8;stroke-width:4;"/>
    </defs>
    <g clip-path="url(#pe2a3214c7c)">
     <use style="fill:#ffffff;fill-opacity:0.8;stroke:#ffffff;stroke-opacity:0.8;stroke-width:4;" x="396.8613" xlink:href="#m890f1d28ef" y="346.373031"/>
    </g>
   </g>
   <g id="PathCollection_2">
    <g clip-path="url(#pe2a3214c7c)">
     <use style="fill:#ffffff;fill-opacity:0.8;stroke:#ffffff;stroke-opacity:0.8;stroke-width:4;" x="415.9125" xlink:href="#m890f1d28ef" y="343.343756"/>
    </g>
   </g>
   <g id="PathCollection_3">
    <g clip-path="url(#pe2a3214c7c)">
     <use style="fill:#ffffff;fill-opacity:0.8;stroke:#ffffff;stroke-opacity:0.8;stroke-width:4;" x="393.2325" xlink:href="#m890f1d28ef" y="331.690539"/>
    </g>
   </g>
   <g id="PathCollection_4">
    <g clip-path="url(#pe2a3214c7c)">
     <use style="fill:#ffffff;fill-opacity:0.8;stroke:#ffffff;stroke-opacity:0.8;stroke-width:4;" x="412.2837" xlink:href="#m890f1d28ef" y="143.587081"/>
    </g>
   </g>
   <g id="PathCollection_5">
    <g clip-path="url(#pe2a3214c7c)">
     <use style="fill:#ffffff;fill-opacity:0.8;stroke:#ffffff;stroke-opacity:0.8;stroke-width:4;" x="442.2213" xlink:href="#m890f1d28ef" y="503.372297"/>
    </g>
   </g>
   <g id="PathCollection_6">
    <g clip-path="url(#pe2a3214c7c)">
     <use style="fill:#ffffff;fill-opacity:0.8;stroke:#ffffff;stroke-opacity:0.8;stroke-width:4;" x="461.2725" xlink:href="#m890f1d28ef" y="497.201114"/>
    </g>
   </g>
   <g id="PathCollection_7">
    <g clip-path="url(#pe2a3214c7c)">
     <use style="fill:#ffffff;fill-opacity:0.8;stroke:#ffffff;stroke-opacity:0.8;stroke-width:4;" x="438.5925" xlink:href="#m890f1d28ef" y="492.495683"/>
    </g>
   </g>
   <g id="PathCollection_8">
    <g clip-path="url(#pe2a3214c7c)">
     <use style="fill:#ffffff;fill-opacity:0.8;stroke:#ffffff;stroke-opacity:0.8;stroke-width:4;" x="457.6437" xlink:href="#m890f1d28ef" y="480.035433"/>
    </g>
   </g>
   <g id="PathCollection_9">
    <defs>
     <path d="M 0 7.071068 
C 1.875269 7.071068 3.673985 6.326016 5 5 
C 6.326016 3.673985 7.071068 1.875269 7.071068 0 
C 7.071068 -1.875269 6.326016 -3.673985 5 -5 
C 3.673985 -6.326016 1.875269 -7.071068 0 -7.071068 
C -1.875269 -7.071068 -3.673985 -6.326016 -5 -5 
C -6.326016 -3.673985 -7.071068 -1.875269 -7.071068 0 
C -7.071068 1.875269 -6.326016 3.673985 -5 5 
C -3.673985 6.326016 -1.875269 7.071068 0 7.071068 
z
" id="md02f757b64"/>
    </defs>
    <g clip-path="url(#pe2a3214c7c)">
     <use style="fill:#76bb4b;fill-opacity:0.6;" x="396.8613" xlink:href="#md02f757b64" y="346.373031"/>
    </g>
   </g>
   <g id="PathCollection_10">
    <defs>
     <path d="M 0 7.071068 
C 1.875269 7.071068 3.673985 6.326016 5 5 
C 6.326016 3.673985 7.071068 1.875269 7.071068 0 
C 7.071068 -1.875269 6.326016 -3.673985 5 -5 
C 3.673985 -6.326016 1.875269 -7.071068 0 -7.071068 
C -1.875269 -7.071068 -3.673985 -6.326016 -5 -5 
C -6.326016 -3.673985 -7.071068 -1.875269 -7.071068 0 
C -7.071068 1.875269 -6.326016 3.673985 -5 5 
C -3.673985 6.326016 -1.875269 7.071068 0 7.071068 
z
" id="m55332d9cc3"/>
    </defs>
    <g clip-path="url(#pe2a3214c7c)">
     <use style="fill:#22567a;fill-opacity:0.6;" x="415.9125" xlink:href="#m55332d9cc3" y="343.343756"/>
    </g>
   </g>
   <g id="PathCollection_11">
    <defs>
     <path d="M 0 7.071068 
C 1.875269 7.071068 3.673985 6.326016 5 5 
C 6.326016 3.673985 7.071068 1.875269 7.071068 0 
C 7.071068 -1.875269 6.326016 -3.673985 5 -5 
C 3.673985 -6.326016 1.875269 -7.071068 0 -7.071068 
C -1.875269 -7.071068 -3.673985 -6.326016 -5 -5 
C -6.326016 -3.673985 -7.071068 -1.875269 -7.071068 0 
C -7.071068 1.875269 -6.326016 3.673985 -5 5 
C -3.673985 6.326016 -1.875269 7.071068 0 7.071068 
z
" id="m4d929a7c1b"/>
    </defs>
    <g clip-path="url(#pe2a3214c7c)">
     <use style="fill:#488a21;fill-opacity:0.6;" x="393.2325" xlink:href="#m4d929a7c1b" y="331.690539"/>
    </g>
   </g>
   <g id="PathCollection_12">
    <defs>
     <path d="M 0 7.071068 
C 1.875269 7.071068 3.673985 6.326016 5 5 
C 6.326016 3.673985 7.071068 1.875269 7.071068 0 
C 7.071068 -1.875269 6.326016 -3.673985 5 -5 
C 3.673985 -6.326016 1.875269 -7.071068 0 -7.071068 
C -1.875269 -7.071068 -3.673985 -6.326016 -5 -5 
C -6.326016 -3.673985 -7.071068 -1.875269 -7.071068 0 
C -7.071068 1.875269 -6.326016 3.673985 -5 5 
C -3.673985 6.326016 -1.875269 7.071068 0 7.071068 
z
" id="m4624d526bd"/>
    </defs>
    <g clip-path="url(#pe2a3214c7c)">
     <use style="fill:#50a2d5;fill-opacity:0.6;" x="412.2837" xlink:href="#m4624d526bd" y="143.587081"/>
    </g>
   </g>
   <g id="PathCollection_13">
    <g clip-path="url(#pe2a3214c7c)">
     <use style="fill:#50a2d5;fill-opacity:0.6;" x="442.2213" xlink:href="#m4624d526bd" y="503.372297"/>
    </g>
   </g>
   <g id="PathCollection_14">
    <g clip-path="url(#pe2a3214c7c)">
     <use style="fill:#488a21;fill-opacity:0.6;" x="461.2725" xlink:href="#m4d929a7c1b" y="497.201114"/>
    </g>
   </g>
   <g id="PathCollection_15">
    <g clip-path="url(#pe2a3214c7c)">
     <use style="fill:#76bb4b;fill-opacity:0.6;" x="438.5925" xlink:href="#md02f757b64" y="492.495683"/>
    </g>
   </g>
   <g id="PathCollection_16">
    <g clip-path="url(#pe2a3214c7c)">
     <use style="fill:#22567a;fill-opacity:0.6;" x="457.6437" xlink:href="#m55332d9cc3" y="480.035433"/>
    </g>
   </g>
   <g id="PathCollection_17">
    <path clip-path="url(#pe2a3214c7c)" d="M 396.8613 353.444099 
C 398.736569 353.444099 400.535285 352.699047 401.8613 351.373031 
C 403.187316 350.047016 403.932368 348.2483 403.932368 346.373031 
C 403.932368 344.497762 403.187316 342.699047 401.8613 341.373031 
C 400.535285 340.047016 398.736569 339.301963 396.8613 339.301963 
C 394.986031 339.301963 393.187316 340.047016 391.8613 341.373031 
C 390.535285 342.699047 389.790232 344.497762 389.790232 346.373031 
C 389.790232 348.2483 390.535285 350.047016 391.8613 351.373031 
C 393.187316 352.699047 394.986031 353.444099 396.8613 353.444099 
z
" style="fill:none;stroke:#76bb4b;stroke-width:4;"/>
   </g>
   <g id="PathCollection_18">
    <path clip-path="url(#pe2a3214c7c)" d="M 415.9125 350.414824 
C 417.787769 350.414824 419.586485 349.669771 420.9125 348.343756 
C 422.238516 347.01774 422.983568 345.219025 422.983568 343.343756 
C 422.983568 341.468487 422.238516 339.669771 420.9125 338.343756 
C 419.586485 337.01774 417.787769 336.272688 415.9125 336.272688 
C 414.037231 336.272688 412.238516 337.01774 410.9125 338.343756 
C 409.586485 339.669771 408.841432 341.468487 408.841432 343.343756 
C 408.841432 345.219025 409.586485 347.01774 410.9125 348.343756 
C 412.238516 349.669771 414.037231 350.414824 415.9125 350.414824 
z
" style="fill:none;stroke:#22567a;stroke-width:4;"/>
   </g>
   <g id="PathCollection_19">
    <path clip-path="url(#pe2a3214c7c)" d="M 393.2325 338.761607 
C 395.107769 338.761607 396.906485 338.016554 398.2325 336.690539 
C 399.558516 335.364523 400.303568 333.565808 400.303568 331.690539 
C 400.303568 329.81527 399.558516 328.016554 398.2325 326.690539 
C 396.906485 325.364523 395.107769 324.619471 393.2325 324.619471 
C 391.357231 324.619471 389.558516 325.364523 388.2325 326.690539 
C 386.906485 328.016554 386.161432 329.81527 386.161432 331.690539 
C 386.161432 333.565808 386.906485 335.364523 388.2325 336.690539 
C 389.558516 338.016554 391.357231 338.761607 393.2325 338.761607 
z
" style="fill:none;stroke:#488a21;stroke-width:4;"/>
   </g>
   <g id="PathCollection_20">
    <path clip-path="url(#pe2a3214c7c)" d="M 412.2837 150.658149 
C 414.158969 150.658149 415.957685 149.913097 417.2837 148.587081 
C 418.609716 147.261066 419.354768 145.462351 419.354768 143.587081 
C 419.354768 141.711812 418.609716 139.913097 417.2837 138.587081 
C 415.957685 137.261066 414.158969 136.516014 412.2837 136.516014 
C 410.408431 136.516014 408.609716 137.261066 407.2837 138.587081 
C 405.957685 139.913097 405.212632 141.711812 405.212632 143.587081 
C 405.212632 145.462351 405.957685 147.261066 407.2837 148.587081 
C 408.609716 149.913097 410.408431 150.658149 412.2837 150.658149 
z
" style="fill:none;stroke:#50a2d5;stroke-width:4;"/>
   </g>
   <g id="PathCollection_21">
    <path clip-path="url(#pe2a3214c7c)" d="M 442.2213 510.443365 
C 444.096569 510.443365 445.895285 509.698313 447.2213 508.372297 
C 448.547316 507.046282 449.292368 505.247566 449.292368 503.372297 
C 449.292368 501.497028 448.547316 499.698313 447.2213 498.372297 
C 445.895285 497.046282 444.096569 496.301229 442.2213 496.301229 
C 440.346031 496.301229 438.547316 497.046282 437.2213 498.372297 
C 435.895285 499.698313 435.150232 501.497028 435.150232 503.372297 
C 435.150232 505.247566 435.895285 507.046282 437.2213 508.372297 
C 438.547316 509.698313 440.346031 510.443365 442.2213 510.443365 
z
" style="fill:none;stroke:#50a2d5;stroke-width:4;"/>
   </g>
   <g id="PathCollection_22">
    <path clip-path="url(#pe2a3214c7c)" d="M 461.2725 504.272182 
C 463.147769 504.272182 464.946485 503.527129 466.2725 502.201114 
C 467.598516 500.875098 468.343568 499.076383 468.343568 497.201114 
C 468.343568 495.325845 467.598516 493.527129 466.2725 492.201114 
C 464.946485 490.875098 463.147769 490.130046 461.2725 490.130046 
C 459.397231 490.130046 457.598516 490.875098 456.2725 492.201114 
C 454.946485 493.527129 454.201432 495.325845 454.201432 497.201114 
C 454.201432 499.076383 454.946485 500.875098 456.2725 502.201114 
C 457.598516 503.527129 459.397231 504.272182 461.2725 504.272182 
z
" style="fill:none;stroke:#488a21;stroke-width:4;"/>
   </g>
   <g id="PathCollection_23">
    <path clip-path="url(#pe2a3214c7c)" d="M 438.5925 499.56675 
C 440.467769 499.56675 442.266485 498.821698 443.5925 497.495683 
C 444.918516 496.169667 445.663568 494.370952 445.663568 492.495683 
C 445.663568 490.620414 444.918516 488.821698 443.5925 487.495683 
C 442.266485 486.169667 440.467769 485.424615 438.5925 485.424615 
C 436.717231 485.424615 434.918516 486.169667 433.5925 487.495683 
C 432.266485 488.821698 431.521432 490.620414 431.521432 492.495683 
C 431.521432 494.370952 432.266485 496.169667 433.5925 497.495683 
C 434.918516 498.821698 436.717231 499.56675 438.5925 499.56675 
z
" style="fill:none;stroke:#76bb4b;stroke-width:4;"/>
   </g>
   <g id="PathCollection_24">
    <path clip-path="url(#pe2a3214c7c)" d="M 457.6437 487.1065 
C 459.518969 487.1065 461.317685 486.361448 462.6437 485.035433 
C 463.969716 483.709417 464.714768 481.910702 464.714768 480.035433 
C 464.714768 478.160164 463.969716 476.361448 462.6437 475.035433 
C 461.317685 473.709417 459.518969 472.964365 457.6437 472.964365 
C 455.768431 472.964365 453.969716 473.709417 452.6437 475.035433 
C 451.317685 476.361448 450.572632 478.160164 450.572632 480.035433 
C 450.572632 481.910702 451.317685 483.709417 452.6437 485.035433 
C 453.969716 486.361448 455.768431 487.1065 457.6437 487.1065 
z
" style="fill:none;stroke:#22567a;stroke-width:4;"/>
   </g>
  </g>
  <g id="text_26">
   <!-- Unexpected response changes from session 1 to 3 -->
   <g transform="translate(7.2 19.7793)scale(0.1728 -0.1728)">
    <defs>
     <path d="M 7.171875 71.578125 
L 21.625 71.578125 
L 21.625 32.8125 
Q 21.625 23.578125 22.171875 20.84375 
Q 23.09375 16.453125 26.578125 13.796875 
Q 30.078125 11.140625 36.140625 11.140625 
Q 42.28125 11.140625 45.40625 13.640625 
Q 48.53125 16.15625 49.171875 19.8125 
Q 49.8125 23.484375 49.8125 31.984375 
L 49.8125 71.578125 
L 64.265625 71.578125 
L 64.265625 33.984375 
Q 64.265625 21.09375 63.09375 15.765625 
Q 61.921875 10.453125 58.765625 6.78125 
Q 55.609375 3.125 50.328125 0.953125 
Q 45.0625 -1.21875 36.578125 -1.21875 
Q 26.3125 -1.21875 21.015625 1.140625 
Q 15.71875 3.515625 12.640625 7.296875 
Q 9.578125 11.078125 8.59375 15.234375 
Q 7.171875 21.390625 7.171875 33.40625 
z
" id="Arial-BoldMT-85"/>
     <path d="M 54.34375 0 
L 40.625 0 
L 40.625 26.46875 
Q 40.625 34.859375 39.75 37.328125 
Q 38.875 39.796875 36.890625 41.15625 
Q 34.90625 42.53125 32.125 42.53125 
Q 28.5625 42.53125 25.734375 40.578125 
Q 22.90625 38.625 21.84375 35.390625 
Q 20.796875 32.171875 20.796875 23.484375 
L 20.796875 0 
L 7.078125 0 
L 7.078125 51.859375 
L 19.828125 51.859375 
L 19.828125 44.234375 
Q 26.609375 53.03125 36.921875 53.03125 
Q 41.453125 53.03125 45.203125 51.390625 
Q 48.96875 49.75 50.890625 47.203125 
Q 52.828125 44.671875 53.578125 41.453125 
Q 54.34375 38.234375 54.34375 32.234375 
z
" id="Arial-BoldMT-110"/>
     <path d="M 37.203125 16.5 
L 50.875 14.203125 
Q 48.25 6.6875 42.546875 2.75 
Q 36.859375 -1.171875 28.328125 -1.171875 
Q 14.796875 -1.171875 8.296875 7.671875 
Q 3.171875 14.75 3.171875 25.53125 
Q 3.171875 38.421875 9.90625 45.71875 
Q 16.65625 53.03125 26.953125 53.03125 
Q 38.53125 53.03125 45.21875 45.390625 
Q 51.90625 37.75 51.609375 21.96875 
L 17.234375 21.96875 
Q 17.390625 15.875 20.5625 12.46875 
Q 23.734375 9.078125 28.46875 9.078125 
Q 31.6875 9.078125 33.875 10.828125 
Q 36.078125 12.59375 37.203125 16.5 
z
M 37.984375 30.375 
Q 37.84375 36.328125 34.90625 39.421875 
Q 31.984375 42.53125 27.78125 42.53125 
Q 23.296875 42.53125 20.359375 39.265625 
Q 17.4375 35.984375 17.484375 30.375 
z
" id="Arial-BoldMT-101"/>
     <path d="M 0.59375 0 
L 19.28125 26.703125 
L 1.375 51.859375 
L 18.109375 51.859375 
L 27.296875 37.59375 
L 36.96875 51.859375 
L 53.078125 51.859375 
L 35.5 27.296875 
L 54.6875 0 
L 37.84375 0 
L 27.296875 16.0625 
L 16.65625 0 
z
" id="Arial-BoldMT-120"/>
     <path d="M 6.78125 51.859375 
L 19.578125 51.859375 
L 19.578125 44.234375 
Q 22.078125 48.140625 26.3125 50.578125 
Q 30.5625 53.03125 35.75 53.03125 
Q 44.78125 53.03125 51.078125 45.953125 
Q 57.375 38.875 57.375 26.21875 
Q 57.375 13.234375 51.015625 6.03125 
Q 44.671875 -1.171875 35.640625 -1.171875 
Q 31.34375 -1.171875 27.84375 0.53125 
Q 24.359375 2.25 20.515625 6.390625 
L 20.515625 -19.734375 
L 6.78125 -19.734375 
z
M 20.359375 26.8125 
Q 20.359375 18.0625 23.828125 13.890625 
Q 27.296875 9.71875 32.28125 9.71875 
Q 37.0625 9.71875 40.234375 13.546875 
Q 43.40625 17.390625 43.40625 26.125 
Q 43.40625 34.28125 40.125 38.234375 
Q 36.859375 42.1875 32.03125 42.1875 
Q 27 42.1875 23.671875 38.296875 
Q 20.359375 34.421875 20.359375 26.8125 
z
" id="Arial-BoldMT-112"/>
     <path d="M 52.390625 36.53125 
L 38.875 34.078125 
Q 38.1875 38.140625 35.765625 40.1875 
Q 33.34375 42.234375 29.5 42.234375 
Q 24.359375 42.234375 21.3125 38.6875 
Q 18.265625 35.15625 18.265625 26.859375 
Q 18.265625 17.625 21.359375 13.8125 
Q 24.46875 10.015625 29.6875 10.015625 
Q 33.59375 10.015625 36.078125 12.234375 
Q 38.578125 14.453125 39.59375 19.875 
L 53.078125 17.578125 
Q 50.984375 8.296875 45.015625 3.5625 
Q 39.0625 -1.171875 29.046875 -1.171875 
Q 17.671875 -1.171875 10.90625 6 
Q 4.15625 13.1875 4.15625 25.875 
Q 4.15625 38.71875 10.9375 45.875 
Q 17.71875 53.03125 29.296875 53.03125 
Q 38.765625 53.03125 44.359375 48.953125 
Q 49.953125 44.875 52.390625 36.53125 
z
" id="Arial-BoldMT-99"/>
     <path d="M 30.953125 51.859375 
L 30.953125 40.921875 
L 21.578125 40.921875 
L 21.578125 20.015625 
Q 21.578125 13.671875 21.84375 12.625 
Q 22.125 11.578125 23.078125 10.890625 
Q 24.03125 10.203125 25.390625 10.203125 
Q 27.296875 10.203125 30.90625 11.53125 
L 32.078125 0.875 
Q 27.296875 -1.171875 21.234375 -1.171875 
Q 17.53125 -1.171875 14.546875 0.0625 
Q 11.578125 1.3125 10.1875 3.296875 
Q 8.796875 5.28125 8.25 8.640625 
Q 7.8125 11.03125 7.8125 18.3125 
L 7.8125 40.921875 
L 1.515625 40.921875 
L 1.515625 51.859375 
L 7.8125 51.859375 
L 7.8125 62.15625 
L 21.578125 70.171875 
L 21.578125 51.859375 
z
" id="Arial-BoldMT-116"/>
     <path d="M 54.734375 0 
L 42 0 
L 42 7.625 
Q 38.8125 3.171875 34.484375 1 
Q 30.171875 -1.171875 25.78125 -1.171875 
Q 16.84375 -1.171875 10.46875 6.03125 
Q 4.109375 13.234375 4.109375 26.125 
Q 4.109375 39.3125 10.296875 46.171875 
Q 16.5 53.03125 25.984375 53.03125 
Q 34.671875 53.03125 41.015625 45.796875 
L 41.015625 71.578125 
L 54.734375 71.578125 
z
M 18.109375 27.046875 
Q 18.109375 18.75 20.40625 15.046875 
Q 23.734375 9.671875 29.6875 9.671875 
Q 34.421875 9.671875 37.734375 13.6875 
Q 41.0625 17.71875 41.0625 25.734375 
Q 41.0625 34.671875 37.84375 38.59375 
Q 34.625 42.53125 29.59375 42.53125 
Q 24.703125 42.53125 21.40625 38.640625 
Q 18.109375 34.765625 18.109375 27.046875 
z
" id="Arial-BoldMT-100"/>
     <path d="M 20.84375 71.578125 
L 20.84375 45.265625 
Q 27.484375 53.03125 36.71875 53.03125 
Q 41.453125 53.03125 45.265625 51.265625 
Q 49.078125 49.515625 51 46.78125 
Q 52.9375 44.046875 53.640625 40.71875 
Q 54.34375 37.40625 54.34375 30.421875 
L 54.34375 0 
L 40.625 0 
L 40.625 27.390625 
Q 40.625 35.546875 39.84375 37.734375 
Q 39.0625 39.9375 37.078125 41.234375 
Q 35.109375 42.53125 32.125 42.53125 
Q 28.71875 42.53125 26.03125 40.859375 
Q 23.34375 39.203125 22.09375 35.859375 
Q 20.84375 32.515625 20.84375 25.984375 
L 20.84375 0 
L 7.125 0 
L 7.125 71.578125 
z
" id="Arial-BoldMT-104"/>
     <path d="M 6.15625 51.859375 
L 18.796875 51.859375 
L 18.796875 44.78125 
Q 25.59375 53.03125 34.96875 53.03125 
Q 39.9375 53.03125 43.59375 50.96875 
Q 47.265625 48.921875 49.609375 44.78125 
Q 53.03125 48.921875 56.984375 50.96875 
Q 60.9375 53.03125 65.4375 53.03125 
Q 71.140625 53.03125 75.09375 50.703125 
Q 79.046875 48.390625 81 43.890625 
Q 82.421875 40.578125 82.421875 33.15625 
L 82.421875 0 
L 68.703125 0 
L 68.703125 29.640625 
Q 68.703125 37.359375 67.28125 39.59375 
Q 65.375 42.53125 61.421875 42.53125 
Q 58.546875 42.53125 56 40.765625 
Q 53.46875 39.015625 52.34375 35.625 
Q 51.21875 32.234375 51.21875 24.90625 
L 51.21875 0 
L 37.5 0 
L 37.5 28.421875 
Q 37.5 35.984375 36.765625 38.171875 
Q 36.03125 40.375 34.484375 41.453125 
Q 32.953125 42.53125 30.328125 42.53125 
Q 27.15625 42.53125 24.609375 40.8125 
Q 22.078125 39.109375 20.96875 35.890625 
Q 19.875 32.671875 19.875 25.203125 
L 19.875 0 
L 6.15625 0 
z
" id="Arial-BoldMT-109"/>
    </defs>
    <use xlink:href="#Arial-BoldMT-85"/>
    <use x="72.216797" xlink:href="#Arial-BoldMT-110"/>
    <use x="133.300781" xlink:href="#Arial-BoldMT-101"/>
    <use x="188.916016" xlink:href="#Arial-BoldMT-120"/>
    <use x="244.53125" xlink:href="#Arial-BoldMT-112"/>
    <use x="305.615234" xlink:href="#Arial-BoldMT-101"/>
    <use x="361.230469" xlink:href="#Arial-BoldMT-99"/>
    <use x="416.845703" xlink:href="#Arial-BoldMT-116"/>
    <use x="450.146484" xlink:href="#Arial-BoldMT-101"/>
    <use x="505.761719" xlink:href="#Arial-BoldMT-100"/>
    <use x="566.845703" xlink:href="#Arial-BoldMT-32"/>
    <use x="594.628906" xlink:href="#Arial-BoldMT-114"/>
    <use x="633.544922" xlink:href="#Arial-BoldMT-101"/>
    <use x="689.160156" xlink:href="#Arial-BoldMT-115"/>
    <use x="744.775391" xlink:href="#Arial-BoldMT-112"/>
    <use x="805.859375" xlink:href="#Arial-BoldMT-111"/>
    <use x="866.943359" xlink:href="#Arial-BoldMT-110"/>
    <use x="928.027344" xlink:href="#Arial-BoldMT-115"/>
    <use x="983.642578" xlink:href="#Arial-BoldMT-101"/>
    <use x="1039.257812" xlink:href="#Arial-BoldMT-32"/>
    <use x="1067.041016" xlink:href="#Arial-BoldMT-99"/>
    <use x="1122.65625" xlink:href="#Arial-BoldMT-104"/>
    <use x="1183.740234" xlink:href="#Arial-BoldMT-97"/>
    <use x="1239.355469" xlink:href="#Arial-BoldMT-110"/>
    <use x="1300.439453" xlink:href="#Arial-BoldMT-103"/>
    <use x="1361.523438" xlink:href="#Arial-BoldMT-101"/>
    <use x="1417.138672" xlink:href="#Arial-BoldMT-115"/>
    <use x="1472.753906" xlink:href="#Arial-BoldMT-32"/>
    <use x="1500.537109" xlink:href="#Arial-BoldMT-102"/>
    <use x="1533.837891" xlink:href="#Arial-BoldMT-114"/>
    <use x="1572.753906" xlink:href="#Arial-BoldMT-111"/>
    <use x="1633.837891" xlink:href="#Arial-BoldMT-109"/>
    <use x="1722.753906" xlink:href="#Arial-BoldMT-32"/>
    <use x="1750.537109" xlink:href="#Arial-BoldMT-115"/>
    <use x="1806.152344" xlink:href="#Arial-BoldMT-101"/>
    <use x="1861.767578" xlink:href="#Arial-BoldMT-115"/>
    <use x="1917.382812" xlink:href="#Arial-BoldMT-115"/>
    <use x="1972.998047" xlink:href="#Arial-BoldMT-105"/>
    <use x="2000.78125" xlink:href="#Arial-BoldMT-111"/>
    <use x="2061.865234" xlink:href="#Arial-BoldMT-110"/>
    <use x="2122.949219" xlink:href="#Arial-BoldMT-32"/>
    <use x="2150.732422" xlink:href="#Arial-BoldMT-49"/>
    <use x="2206.347656" xlink:href="#Arial-BoldMT-32"/>
    <use x="2234.130859" xlink:href="#Arial-BoldMT-116"/>
    <use x="2267.431641" xlink:href="#Arial-BoldMT-111"/>
    <use x="2328.515625" xlink:href="#Arial-BoldMT-32"/>
    <use x="2356.298828" xlink:href="#Arial-BoldMT-51"/>
   </g>
  </g>
  <g id="text_27">
   <!-- Absolute fractional change -->
   <g transform="translate(57.7518 284.409)rotate(-90)scale(0.1728 -0.1728)">
    <defs>
     <path d="M 71.828125 0 
L 56.109375 0 
L 49.859375 16.265625 
L 21.234375 16.265625 
L 15.328125 0 
L 0 0 
L 27.875 71.578125 
L 43.171875 71.578125 
z
M 45.21875 28.328125 
L 35.359375 54.890625 
L 25.6875 28.328125 
z
" id="Arial-BoldMT-65"/>
     <path d="M 41.3125 0 
L 41.3125 7.765625 
Q 38.484375 3.609375 33.859375 1.21875 
Q 29.25 -1.171875 24.125 -1.171875 
Q 18.890625 -1.171875 14.734375 1.125 
Q 10.59375 3.421875 8.734375 7.5625 
Q 6.890625 11.71875 6.890625 19.046875 
L 6.890625 51.859375 
L 20.609375 51.859375 
L 20.609375 28.03125 
Q 20.609375 17.09375 21.359375 14.625 
Q 22.125 12.15625 24.125 10.71875 
Q 26.125 9.28125 29.203125 9.28125 
Q 32.71875 9.28125 35.5 11.203125 
Q 38.28125 13.140625 39.296875 15.984375 
Q 40.328125 18.84375 40.328125 29.984375 
L 40.328125 51.859375 
L 54.046875 51.859375 
L 54.046875 0 
z
" id="Arial-BoldMT-117"/>
    </defs>
    <use xlink:href="#Arial-BoldMT-65"/>
    <use x="72.216797" xlink:href="#Arial-BoldMT-98"/>
    <use x="133.300781" xlink:href="#Arial-BoldMT-115"/>
    <use x="188.916016" xlink:href="#Arial-BoldMT-111"/>
    <use x="250" xlink:href="#Arial-BoldMT-108"/>
    <use x="277.783203" xlink:href="#Arial-BoldMT-117"/>
    <use x="338.867188" xlink:href="#Arial-BoldMT-116"/>
    <use x="372.167969" xlink:href="#Arial-BoldMT-101"/>
    <use x="427.783203" xlink:href="#Arial-BoldMT-32"/>
    <use x="455.566406" xlink:href="#Arial-BoldMT-102"/>
    <use x="488.867188" xlink:href="#Arial-BoldMT-114"/>
    <use x="527.783203" xlink:href="#Arial-BoldMT-97"/>
    <use x="583.398438" xlink:href="#Arial-BoldMT-99"/>
    <use x="639.013672" xlink:href="#Arial-BoldMT-116"/>
    <use x="672.314453" xlink:href="#Arial-BoldMT-105"/>
    <use x="700.097656" xlink:href="#Arial-BoldMT-111"/>
    <use x="761.181641" xlink:href="#Arial-BoldMT-110"/>
    <use x="822.265625" xlink:href="#Arial-BoldMT-97"/>
    <use x="877.880859" xlink:href="#Arial-BoldMT-108"/>
    <use x="905.664062" xlink:href="#Arial-BoldMT-32"/>
    <use x="933.447266" xlink:href="#Arial-BoldMT-99"/>
    <use x="989.0625" xlink:href="#Arial-BoldMT-104"/>
    <use x="1050.146484" xlink:href="#Arial-BoldMT-97"/>
    <use x="1105.761719" xlink:href="#Arial-BoldMT-110"/>
    <use x="1166.845703" xlink:href="#Arial-BoldMT-103"/>
    <use x="1227.929688" xlink:href="#Arial-BoldMT-101"/>
   </g>
  </g>
 </g>
 <defs>
  <clipPath id="p7a4f9b08ef">
   <rect height="211.68" width="101.895652" x="102.1725" y="67.68"/>
  </clipPath>
  <clipPath id="pe5dc2bb77d">
   <rect height="211.68" width="101.895652" x="234.636848" y="67.68"/>
  </clipPath>
  <clipPath id="pff070f1216">
   <rect height="211.68" width="101.895652" x="102.1725" y="321.696"/>
  </clipPath>
  <clipPath id="p12db3663d4">
   <rect height="211.68" width="101.895652" x="234.636848" y="321.696"/>
  </clipPath>
  <clipPath id="pe2a3214c7c">
   <rect height="465.696" width="90.72" x="381.8925" y="67.68"/>
  </clipPath>
 </defs>
</svg>
