<?xml version="1.0" encoding="utf-8" standalone="no"?>
<!DOCTYPE svg PUBLIC "-//W3C//DTD SVG 1.1//EN"
  "http://www.w3.org/Graphics/SVG/1.1/DTD/svg11.dtd">
<!-- Created with matplotlib (https://matplotlib.org/) -->
<svg height="578.6901pt" version="1.1" viewBox="0 0 483.3333 578.6901" width="483.3333pt" xmlns="http://www.w3.org/2000/svg" xmlns:xlink="http://www.w3.org/1999/xlink">
 <metadata>
  <rdf:RDF xmlns:cc="http://creativecommons.org/ns#" xmlns:dc="http://purl.org/dc/elements/1.1/" xmlns:rdf="http://www.w3.org/1999/02/22-rdf-syntax-ns#">
   <cc:Work>
    <dc:type rdf:resource="http://purl.org/dc/dcmitype/StillImage"/>
    <dc:date>2021-12-08T02:03:39.161384</dc:date>
    <dc:format>image/svg+xml</dc:format>
    <dc:creator>
     <cc:Agent>
      <dc:title>Matplotlib v3.3.1, https://matplotlib.org/</dc:title>
     </cc:Agent>
    </dc:creator>
   </cc:Work>
  </rdf:RDF>
 </metadata>
 <defs>
  <style type="text/css">*{stroke-linecap:butt;stroke-linejoin:round;}</style>
 </defs>
 <g id="figure_1">
  <g id="patch_1">
   <path d="M 0 578.6901 
L 483.3333 578.6901 
L 483.3333 0 
L 0 0 
z
" style="fill:#ffffff;"/>
  </g>
  <g id="axes_1">
   <g id="patch_2">
    <path d="M 101.26665 272.88 
L 230.22665 272.88 
L 230.22665 66.24 
L 101.26665 66.24 
z
" style="fill:#ffffff;"/>
   </g>
   <g id="line2d_1">
    <path clip-path="url(#pa638e7d64e)" d="M 101.26665 190.224 
L 230.22665 190.224 
" style="fill:none;stroke:#000000;stroke-dasharray:12,6;stroke-dashoffset:0;stroke-opacity:0.5;stroke-width:3;"/>
   </g>
   <g id="matplotlib.axis_1">
    <g id="xtick_1"/>
    <g id="xtick_2"/>
    <g id="xtick_3"/>
   </g>
   <g id="matplotlib.axis_2">
    <g id="ytick_1">
     <g id="line2d_2">
      <defs>
       <path d="M 0 0 
L -8 0 
" id="me8a4227d97" style="stroke:#000000;stroke-width:4;"/>
      </defs>
      <g>
       <use style="stroke:#000000;stroke-width:4;" x="101.26665" xlink:href="#me8a4227d97" y="272.88"/>
      </g>
     </g>
     <g id="text_1">
      <!-- 0.6 -->
      <g transform="translate(65.74745 279.06435)scale(0.1728 -0.1728)">
       <defs>
        <path d="M 27.4375 71.875 
Q 37.84375 71.875 43.703125 64.453125 
Q 50.6875 55.671875 50.6875 35.296875 
Q 50.6875 14.984375 43.65625 6.109375 
Q 37.84375 -1.21875 27.4375 -1.21875 
Q 17 -1.21875 10.59375 6.8125 
Q 4.203125 14.84375 4.203125 35.453125 
Q 4.203125 55.671875 11.234375 64.546875 
Q 17.046875 71.875 27.4375 71.875 
z
M 27.4375 60.5 
Q 24.953125 60.5 23 58.90625 
Q 21.046875 57.328125 19.96875 53.21875 
Q 18.5625 47.90625 18.5625 35.296875 
Q 18.5625 22.703125 19.828125 17.984375 
Q 21.09375 13.28125 23.015625 11.71875 
Q 24.953125 10.15625 27.4375 10.15625 
Q 29.9375 10.15625 31.890625 11.734375 
Q 33.84375 13.328125 34.90625 17.4375 
Q 36.328125 22.703125 36.328125 35.296875 
Q 36.328125 47.90625 35.0625 52.609375 
Q 33.796875 57.328125 31.859375 58.90625 
Q 29.9375 60.5 27.4375 60.5 
z
" id="Arial-BoldMT-48"/>
        <path d="M 7.171875 0 
L 7.171875 13.71875 
L 20.90625 13.71875 
L 20.90625 0 
z
" id="Arial-BoldMT-46"/>
        <path d="M 50.734375 54.046875 
L 37.453125 52.59375 
Q 36.96875 56.6875 34.90625 58.640625 
Q 32.859375 60.59375 29.59375 60.59375 
Q 25.25 60.59375 22.234375 56.6875 
Q 19.234375 52.78125 18.453125 40.4375 
Q 23.578125 46.484375 31.203125 46.484375 
Q 39.796875 46.484375 45.921875 39.9375 
Q 52.046875 33.40625 52.046875 23.046875 
Q 52.046875 12.0625 45.59375 5.421875 
Q 39.15625 -1.21875 29.046875 -1.21875 
Q 18.21875 -1.21875 11.234375 7.203125 
Q 4.25 15.625 4.25 34.8125 
Q 4.25 54.5 11.515625 63.1875 
Q 18.796875 71.875 30.421875 71.875 
Q 38.578125 71.875 43.921875 67.3125 
Q 49.265625 62.75 50.734375 54.046875 
z
M 19.625 24.125 
Q 19.625 17.4375 22.703125 13.796875 
Q 25.78125 10.15625 29.734375 10.15625 
Q 33.546875 10.15625 36.078125 13.125 
Q 38.625 16.109375 38.625 22.90625 
Q 38.625 29.890625 35.890625 33.125 
Q 33.15625 36.375 29.046875 36.375 
Q 25.09375 36.375 22.359375 33.265625 
Q 19.625 30.171875 19.625 24.125 
z
" id="Arial-BoldMT-54"/>
       </defs>
       <use xlink:href="#Arial-BoldMT-48"/>
       <use x="55.615234" xlink:href="#Arial-BoldMT-46"/>
       <use x="83.398438" xlink:href="#Arial-BoldMT-54"/>
      </g>
     </g>
    </g>
    <g id="ytick_2">
     <g id="line2d_3">
      <g>
       <use style="stroke:#000000;stroke-width:4;" x="101.26665" xlink:href="#me8a4227d97" y="231.552"/>
      </g>
     </g>
    </g>
    <g id="ytick_3">
     <g id="line2d_4">
      <g>
       <use style="stroke:#000000;stroke-width:4;" x="101.26665" xlink:href="#me8a4227d97" y="190.224"/>
      </g>
     </g>
     <g id="text_2">
      <!-- 1 -->
      <g transform="translate(80.15735 196.40835)scale(0.1728 -0.1728)">
       <defs>
        <path d="M 39.359375 0 
L 25.640625 0 
L 25.640625 51.703125 
Q 18.109375 44.671875 7.90625 41.3125 
L 7.90625 53.765625 
Q 13.28125 55.515625 19.578125 60.421875 
Q 25.875 65.328125 28.21875 71.875 
L 39.359375 71.875 
z
" id="Arial-BoldMT-49"/>
       </defs>
       <use xlink:href="#Arial-BoldMT-49"/>
      </g>
     </g>
    </g>
    <g id="ytick_4">
     <g id="line2d_5">
      <g>
       <use style="stroke:#000000;stroke-width:4;" x="101.26665" xlink:href="#me8a4227d97" y="148.896"/>
      </g>
     </g>
    </g>
    <g id="ytick_5">
     <g id="line2d_6">
      <g>
       <use style="stroke:#000000;stroke-width:4;" x="101.26665" xlink:href="#me8a4227d97" y="107.568"/>
      </g>
     </g>
     <g id="text_3">
      <!-- 1.4 -->
      <g transform="translate(65.74745 113.75235)scale(0.1728 -0.1728)">
       <defs>
        <path d="M 31.15625 0 
L 31.15625 14.40625 
L 1.859375 14.40625 
L 1.859375 26.421875 
L 32.90625 71.875 
L 44.4375 71.875 
L 44.4375 26.46875 
L 53.328125 26.46875 
L 53.328125 14.40625 
L 44.4375 14.40625 
L 44.4375 0 
z
M 31.15625 26.46875 
L 31.15625 50.921875 
L 14.703125 26.46875 
z
" id="Arial-BoldMT-52"/>
       </defs>
       <use xlink:href="#Arial-BoldMT-49"/>
       <use x="55.615234" xlink:href="#Arial-BoldMT-46"/>
       <use x="83.398438" xlink:href="#Arial-BoldMT-52"/>
      </g>
     </g>
    </g>
    <g id="ytick_6">
     <g id="line2d_7">
      <g>
       <use style="stroke:#000000;stroke-width:4;" x="101.26665" xlink:href="#me8a4227d97" y="66.24"/>
      </g>
     </g>
    </g>
    <g id="text_4">
     <!-- . -->
     <g style="fill:#ffffff;" transform="translate(57.31305 171.9603)rotate(-90)scale(0.1728 -0.1728)">
      <defs>
       <path d="M 9.078125 0 
L 9.078125 10.015625 
L 19.09375 10.015625 
L 19.09375 0 
z
" id="ArialMT-46"/>
      </defs>
      <use xlink:href="#ArialMT-46"/>
     </g>
    </g>
   </g>
   <g id="LineCollection_1">
    <path clip-path="url(#pa638e7d64e)" d="M 127.05865 193.631619 
L 127.05865 186.816381 
" style="fill:none;stroke:#808080;stroke-opacity:0.6;stroke-width:5;"/>
    <path clip-path="url(#pa638e7d64e)" d="M 165.74665 209.93513 
L 165.74665 201.245736 
" style="fill:none;stroke:#808080;stroke-opacity:0.6;stroke-width:5;"/>
    <path clip-path="url(#pa638e7d64e)" d="M 204.43465 210.377084 
L 204.43465 201.434806 
" style="fill:none;stroke:#808080;stroke-opacity:0.6;stroke-width:5;"/>
   </g>
   <g id="LineCollection_2">
    <path clip-path="url(#pa638e7d64e)" d="M 127.05865 158.110223 
L 127.05865 149.369511 
" style="fill:none;stroke:#76bb4b;stroke-opacity:0.8;stroke-width:5;"/>
    <path clip-path="url(#pa638e7d64e)" d="M 165.74665 172.892245 
L 165.74665 161.859032 
" style="fill:none;stroke:#76bb4b;stroke-opacity:0.8;stroke-width:5;"/>
    <path clip-path="url(#pa638e7d64e)" d="M 204.43465 139.635118 
L 204.43465 125.160154 
" style="fill:none;stroke:#76bb4b;stroke-opacity:0.8;stroke-width:5;"/>
   </g>
   <g id="line2d_8">
    <defs>
     <path d="M 4 0 
L -4 -0 
" id="m7ac8900111" style="stroke:#808080;stroke-opacity:0.6;stroke-width:4;"/>
    </defs>
    <g clip-path="url(#pa638e7d64e)">
     <use style="fill:#808080;fill-opacity:0.6;stroke:#808080;stroke-opacity:0.6;stroke-width:4;" x="127.05865" xlink:href="#m7ac8900111" y="193.631619"/>
     <use style="fill:#808080;fill-opacity:0.6;stroke:#808080;stroke-opacity:0.6;stroke-width:4;" x="165.74665" xlink:href="#m7ac8900111" y="209.93513"/>
     <use style="fill:#808080;fill-opacity:0.6;stroke:#808080;stroke-opacity:0.6;stroke-width:4;" x="204.43465" xlink:href="#m7ac8900111" y="210.377084"/>
    </g>
   </g>
   <g id="line2d_9">
    <g clip-path="url(#pa638e7d64e)">
     <use style="fill:#808080;fill-opacity:0.6;stroke:#808080;stroke-opacity:0.6;stroke-width:4;" x="127.05865" xlink:href="#m7ac8900111" y="186.816381"/>
     <use style="fill:#808080;fill-opacity:0.6;stroke:#808080;stroke-opacity:0.6;stroke-width:4;" x="165.74665" xlink:href="#m7ac8900111" y="201.245736"/>
     <use style="fill:#808080;fill-opacity:0.6;stroke:#808080;stroke-opacity:0.6;stroke-width:4;" x="204.43465" xlink:href="#m7ac8900111" y="201.434806"/>
    </g>
   </g>
   <g id="line2d_10">
    <defs>
     <path d="M 4 0 
L -4 -0 
" id="m5188b30c9d" style="stroke:#76bb4b;stroke-opacity:0.8;stroke-width:4;"/>
    </defs>
    <g clip-path="url(#pa638e7d64e)">
     <use style="fill:#76bb4b;fill-opacity:0.8;stroke:#76bb4b;stroke-opacity:0.8;stroke-width:4;" x="127.05865" xlink:href="#m5188b30c9d" y="158.110223"/>
     <use style="fill:#76bb4b;fill-opacity:0.8;stroke:#76bb4b;stroke-opacity:0.8;stroke-width:4;" x="165.74665" xlink:href="#m5188b30c9d" y="172.892245"/>
     <use style="fill:#76bb4b;fill-opacity:0.8;stroke:#76bb4b;stroke-opacity:0.8;stroke-width:4;" x="204.43465" xlink:href="#m5188b30c9d" y="139.635118"/>
    </g>
   </g>
   <g id="line2d_11">
    <g clip-path="url(#pa638e7d64e)">
     <use style="fill:#76bb4b;fill-opacity:0.8;stroke:#76bb4b;stroke-opacity:0.8;stroke-width:4;" x="127.05865" xlink:href="#m5188b30c9d" y="149.369511"/>
     <use style="fill:#76bb4b;fill-opacity:0.8;stroke:#76bb4b;stroke-opacity:0.8;stroke-width:4;" x="165.74665" xlink:href="#m5188b30c9d" y="161.859032"/>
     <use style="fill:#76bb4b;fill-opacity:0.8;stroke:#76bb4b;stroke-opacity:0.8;stroke-width:4;" x="204.43465" xlink:href="#m5188b30c9d" y="125.160154"/>
    </g>
   </g>
   <g id="line2d_12">
    <path clip-path="url(#pa638e7d64e)" d="M 165.74665 75.857911 
L 204.43465 75.857911 
" style="fill:none;stroke:#76bb4b;stroke-linecap:square;stroke-width:3;"/>
   </g>
   <g id="line2d_13">
    <path clip-path="url(#pa638e7d64e)" d="M 127.05865 190.224 
L 165.74665 205.590433 
L 204.43465 205.905945 
" style="fill:none;stroke:#808080;stroke-linecap:square;stroke-opacity:0.6;stroke-width:5;"/>
    <defs>
     <path d="M -0 8.485281 
L 5.091169 0 
L 0 -8.485281 
L -5.091169 -0 
z
" id="mdcf6834812" style="stroke:#808080;stroke-linejoin:miter;stroke-opacity:0.6;stroke-width:4;"/>
    </defs>
    <g clip-path="url(#pa638e7d64e)">
     <use style="fill:#808080;fill-opacity:0.6;stroke:#808080;stroke-linejoin:miter;stroke-opacity:0.6;stroke-width:4;" x="127.05865" xlink:href="#mdcf6834812" y="190.224"/>
     <use style="fill:#808080;fill-opacity:0.6;stroke:#808080;stroke-linejoin:miter;stroke-opacity:0.6;stroke-width:4;" x="165.74665" xlink:href="#mdcf6834812" y="205.590433"/>
     <use style="fill:#808080;fill-opacity:0.6;stroke:#808080;stroke-linejoin:miter;stroke-opacity:0.6;stroke-width:4;" x="204.43465" xlink:href="#mdcf6834812" y="205.905945"/>
    </g>
   </g>
   <g id="line2d_14">
    <path clip-path="url(#pa638e7d64e)" d="M 127.05865 153.739867 
L 165.74665 167.375639 
L 204.43465 132.397636 
" style="fill:none;stroke:#76bb4b;stroke-linecap:square;stroke-opacity:0.8;stroke-width:5;"/>
    <defs>
     <path d="M 0 5 
C 1.326016 5 2.597899 4.473168 3.535534 3.535534 
C 4.473168 2.597899 5 1.326016 5 0 
C 5 -1.326016 4.473168 -2.597899 3.535534 -3.535534 
C 2.597899 -4.473168 1.326016 -5 0 -5 
C -1.326016 -5 -2.597899 -4.473168 -3.535534 -3.535534 
C -4.473168 -2.597899 -5 -1.326016 -5 0 
C -5 1.326016 -4.473168 2.597899 -3.535534 3.535534 
C -2.597899 4.473168 -1.326016 5 0 5 
z
" id="m2a1c018f57" style="stroke:#76bb4b;stroke-opacity:0.8;stroke-width:4;"/>
    </defs>
    <g clip-path="url(#pa638e7d64e)">
     <use style="fill:#76bb4b;fill-opacity:0.8;stroke:#76bb4b;stroke-opacity:0.8;stroke-width:4;" x="127.05865" xlink:href="#m2a1c018f57" y="153.739867"/>
     <use style="fill:#76bb4b;fill-opacity:0.8;stroke:#76bb4b;stroke-opacity:0.8;stroke-width:4;" x="165.74665" xlink:href="#m2a1c018f57" y="167.375639"/>
     <use style="fill:#76bb4b;fill-opacity:0.8;stroke:#76bb4b;stroke-opacity:0.8;stroke-width:4;" x="204.43465" xlink:href="#m2a1c018f57" y="132.397636"/>
    </g>
   </g>
   <g id="patch_3">
    <path d="M 101.26665 272.88 
L 101.26665 66.24 
" style="fill:none;stroke:#000000;stroke-linecap:square;stroke-linejoin:miter;stroke-width:4;"/>
   </g>
   <g id="text_5">
    <!-- ** -->
    <g style="fill:#76bb4b;" transform="translate(177.306275 79.534415)scale(0.2 -0.2)">
     <defs>
      <path d="M 11.96875 38.671875 
L 4.59375 44.390625 
Q 8.109375 48.34375 11.921875 51.953125 
Q 13.421875 53.421875 13.8125 53.8125 
Q 12.59375 54 6.84375 55.421875 
Q 2.6875 56.453125 1.375 56.9375 
L 4.25 65.53125 
Q 10.640625 62.9375 15.671875 59.8125 
Q 14.5 67.78125 14.5 72.796875 
L 23.1875 72.796875 
Q 23.1875 69.234375 21.875 59.71875 
Q 22.859375 60.109375 26.078125 61.625 
Q 30.46875 63.625 34.1875 65.046875 
L 36.765625 56.203125 
Q 31.34375 54.984375 24.21875 53.8125 
L 30.078125 47.21875 
Q 31.84375 45.21875 32.859375 43.953125 
L 25.390625 39.015625 
L 18.796875 49.90625 
Q 15.828125 44.625 11.96875 38.671875 
z
" id="Arial-BoldMT-42"/>
     </defs>
     <use xlink:href="#Arial-BoldMT-42"/>
     <use x="38.916016" xlink:href="#Arial-BoldMT-42"/>
    </g>
   </g>
   <g id="text_6">
    <!-- L2/3 Pyr -->
    <g transform="translate(132.12895 60.24)scale(0.1728 -0.1728)">
     <defs>
      <path d="M 7.671875 0 
L 7.671875 71 
L 22.125 71 
L 22.125 12.0625 
L 58.0625 12.0625 
L 58.0625 0 
z
" id="Arial-BoldMT-76"/>
      <path d="M 50.59375 12.75 
L 50.59375 0 
L 2.484375 0 
Q 3.265625 7.234375 7.171875 13.703125 
Q 11.078125 20.171875 22.609375 30.859375 
Q 31.890625 39.5 33.984375 42.578125 
Q 36.8125 46.828125 36.8125 50.984375 
Q 36.8125 55.5625 34.34375 58.03125 
Q 31.890625 60.5 27.546875 60.5 
Q 23.25 60.5 20.703125 57.90625 
Q 18.171875 55.328125 17.78125 49.3125 
L 4.109375 50.6875 
Q 5.328125 62.015625 11.765625 66.9375 
Q 18.21875 71.875 27.875 71.875 
Q 38.484375 71.875 44.53125 66.15625 
Q 50.59375 60.453125 50.59375 51.953125 
Q 50.59375 47.125 48.859375 42.75 
Q 47.125 38.375 43.359375 33.59375 
Q 40.875 30.421875 34.375 24.453125 
Q 27.875 18.5 26.140625 16.546875 
Q 24.421875 14.59375 23.34375 12.75 
z
" id="Arial-BoldMT-50"/>
      <path d="M -0.140625 -1.21875 
L 17.578125 72.796875 
L 27.875 72.796875 
L 9.96875 -1.21875 
z
" id="Arial-BoldMT-47"/>
      <path d="M 3.765625 19 
L 17.046875 20.609375 
Q 17.671875 15.53125 20.453125 12.84375 
Q 23.25 10.15625 27.203125 10.15625 
Q 31.453125 10.15625 34.34375 13.375 
Q 37.25 16.609375 37.25 22.078125 
Q 37.25 27.25 34.46875 30.265625 
Q 31.6875 33.296875 27.6875 33.296875 
Q 25.046875 33.296875 21.390625 32.28125 
L 22.90625 43.453125 
Q 28.46875 43.3125 31.390625 45.875 
Q 34.328125 48.4375 34.328125 52.6875 
Q 34.328125 56.296875 32.171875 58.4375 
Q 30.03125 60.59375 26.46875 60.59375 
Q 22.953125 60.59375 20.453125 58.15625 
Q 17.96875 55.71875 17.4375 51.03125 
L 4.78125 53.171875 
Q 6.109375 59.671875 8.765625 63.546875 
Q 11.421875 67.4375 16.1875 69.65625 
Q 20.953125 71.875 26.859375 71.875 
Q 36.96875 71.875 43.0625 65.4375 
Q 48.09375 60.15625 48.09375 53.515625 
Q 48.09375 44.09375 37.796875 38.484375 
Q 43.953125 37.15625 47.625 32.5625 
Q 51.3125 27.984375 51.3125 21.484375 
Q 51.3125 12.0625 44.421875 5.421875 
Q 37.546875 -1.21875 27.296875 -1.21875 
Q 17.578125 -1.21875 11.171875 4.375 
Q 4.78125 9.96875 3.765625 19 
z
" id="Arial-BoldMT-51"/>
      <path id="Arial-BoldMT-32"/>
      <path d="M 7.28125 0 
L 7.28125 71.578125 
L 30.46875 71.578125 
Q 43.65625 71.578125 47.65625 70.515625 
Q 53.8125 68.890625 57.953125 63.5 
Q 62.109375 58.109375 62.109375 49.5625 
Q 62.109375 42.96875 59.71875 38.46875 
Q 57.328125 33.984375 53.640625 31.421875 
Q 49.953125 28.859375 46.140625 28.03125 
Q 40.96875 27 31.15625 27 
L 21.734375 27 
L 21.734375 0 
z
M 21.734375 59.46875 
L 21.734375 39.15625 
L 29.640625 39.15625 
Q 38.1875 39.15625 41.0625 40.28125 
Q 43.953125 41.40625 45.578125 43.796875 
Q 47.21875 46.1875 47.21875 49.359375 
Q 47.21875 53.265625 44.921875 55.796875 
Q 42.625 58.34375 39.109375 58.984375 
Q 36.53125 59.46875 28.71875 59.46875 
z
" id="Arial-BoldMT-80"/>
      <path d="M 0.6875 51.859375 
L 15.28125 51.859375 
L 27.6875 15.046875 
L 39.796875 51.859375 
L 54 51.859375 
L 35.6875 1.953125 
L 32.421875 -7.078125 
Q 30.609375 -11.625 28.96875 -14.015625 
Q 27.34375 -16.40625 25.21875 -17.890625 
Q 23.09375 -19.390625 19.984375 -20.21875 
Q 16.890625 -21.046875 12.984375 -21.046875 
Q 9.03125 -21.046875 5.21875 -20.21875 
L 4 -9.46875 
Q 7.234375 -10.109375 9.8125 -10.109375 
Q 14.59375 -10.109375 16.890625 -7.296875 
Q 19.1875 -4.5 20.40625 -0.140625 
z
" id="Arial-BoldMT-121"/>
      <path d="M 20.3125 0 
L 6.59375 0 
L 6.59375 51.859375 
L 19.34375 51.859375 
L 19.34375 44.484375 
Q 22.609375 49.703125 25.21875 51.359375 
Q 27.828125 53.03125 31.15625 53.03125 
Q 35.84375 53.03125 40.1875 50.4375 
L 35.9375 38.484375 
Q 32.46875 40.71875 29.5 40.71875 
Q 26.609375 40.71875 24.609375 39.125 
Q 22.609375 37.546875 21.453125 33.390625 
Q 20.3125 29.25 20.3125 16.015625 
z
" id="Arial-BoldMT-114"/>
     </defs>
     <use xlink:href="#Arial-BoldMT-76"/>
     <use x="61.083984" xlink:href="#Arial-BoldMT-50"/>
     <use x="116.699219" xlink:href="#Arial-BoldMT-47"/>
     <use x="144.482422" xlink:href="#Arial-BoldMT-51"/>
     <use x="200.097656" xlink:href="#Arial-BoldMT-32"/>
     <use x="227.880859" xlink:href="#Arial-BoldMT-80"/>
     <use x="294.580078" xlink:href="#Arial-BoldMT-121"/>
     <use x="350.195312" xlink:href="#Arial-BoldMT-114"/>
    </g>
   </g>
  </g>
  <g id="axes_2">
   <g id="patch_4">
    <path d="M 262.46665 272.88 
L 391.42665 272.88 
L 391.42665 66.24 
L 262.46665 66.24 
z
" style="fill:#ffffff;"/>
   </g>
   <g id="line2d_15">
    <path clip-path="url(#p2fe668df6c)" d="M 262.46665 190.224 
L 391.42665 190.224 
" style="fill:none;stroke:#000000;stroke-dasharray:12,6;stroke-dashoffset:0;stroke-opacity:0.5;stroke-width:3;"/>
   </g>
   <g id="matplotlib.axis_3">
    <g id="xtick_4"/>
    <g id="xtick_5"/>
    <g id="xtick_6"/>
   </g>
   <g id="matplotlib.axis_4">
    <g id="ytick_7">
     <g id="line2d_16">
      <g>
       <use style="stroke:#000000;stroke-width:4;" x="262.46665" xlink:href="#me8a4227d97" y="272.88"/>
      </g>
     </g>
    </g>
    <g id="ytick_8">
     <g id="line2d_17">
      <g>
       <use style="stroke:#000000;stroke-width:4;" x="262.46665" xlink:href="#me8a4227d97" y="231.552"/>
      </g>
     </g>
    </g>
    <g id="ytick_9">
     <g id="line2d_18">
      <g>
       <use style="stroke:#000000;stroke-width:4;" x="262.46665" xlink:href="#me8a4227d97" y="190.224"/>
      </g>
     </g>
    </g>
    <g id="ytick_10">
     <g id="line2d_19">
      <g>
       <use style="stroke:#000000;stroke-width:4;" x="262.46665" xlink:href="#me8a4227d97" y="148.896"/>
      </g>
     </g>
    </g>
    <g id="ytick_11">
     <g id="line2d_20">
      <g>
       <use style="stroke:#000000;stroke-width:4;" x="262.46665" xlink:href="#me8a4227d97" y="107.568"/>
      </g>
     </g>
    </g>
    <g id="ytick_12">
     <g id="line2d_21">
      <g>
       <use style="stroke:#000000;stroke-width:4;" x="262.46665" xlink:href="#me8a4227d97" y="66.24"/>
      </g>
     </g>
    </g>
   </g>
   <g id="LineCollection_3">
    <path clip-path="url(#p2fe668df6c)" d="M 288.25865 193.245091 
L 288.25865 187.202909 
" style="fill:none;stroke:#808080;stroke-opacity:0.6;stroke-width:5;"/>
    <path clip-path="url(#p2fe668df6c)" d="M 326.94665 220.490198 
L 326.94665 213.728352 
" style="fill:none;stroke:#808080;stroke-opacity:0.6;stroke-width:5;"/>
    <path clip-path="url(#p2fe668df6c)" d="M 365.63465 215.061075 
L 365.63465 207.513545 
" style="fill:none;stroke:#808080;stroke-opacity:0.6;stroke-width:5;"/>
   </g>
   <g id="LineCollection_4">
    <path clip-path="url(#p2fe668df6c)" d="M 288.25865 200.707828 
L 288.25865 194.279384 
" style="fill:none;stroke:#488a21;stroke-opacity:0.8;stroke-width:5;"/>
    <path clip-path="url(#p2fe668df6c)" d="M 326.94665 229.614688 
L 326.94665 222.472133 
" style="fill:none;stroke:#488a21;stroke-opacity:0.8;stroke-width:5;"/>
    <path clip-path="url(#p2fe668df6c)" d="M 365.63465 216.929457 
L 365.63465 209.031614 
" style="fill:none;stroke:#488a21;stroke-opacity:0.8;stroke-width:5;"/>
   </g>
   <g id="line2d_22">
    <g clip-path="url(#p2fe668df6c)">
     <use style="fill:#808080;fill-opacity:0.6;stroke:#808080;stroke-opacity:0.6;stroke-width:4;" x="288.25865" xlink:href="#m7ac8900111" y="193.245091"/>
     <use style="fill:#808080;fill-opacity:0.6;stroke:#808080;stroke-opacity:0.6;stroke-width:4;" x="326.94665" xlink:href="#m7ac8900111" y="220.490198"/>
     <use style="fill:#808080;fill-opacity:0.6;stroke:#808080;stroke-opacity:0.6;stroke-width:4;" x="365.63465" xlink:href="#m7ac8900111" y="215.061075"/>
    </g>
   </g>
   <g id="line2d_23">
    <g clip-path="url(#p2fe668df6c)">
     <use style="fill:#808080;fill-opacity:0.6;stroke:#808080;stroke-opacity:0.6;stroke-width:4;" x="288.25865" xlink:href="#m7ac8900111" y="187.202909"/>
     <use style="fill:#808080;fill-opacity:0.6;stroke:#808080;stroke-opacity:0.6;stroke-width:4;" x="326.94665" xlink:href="#m7ac8900111" y="213.728352"/>
     <use style="fill:#808080;fill-opacity:0.6;stroke:#808080;stroke-opacity:0.6;stroke-width:4;" x="365.63465" xlink:href="#m7ac8900111" y="207.513545"/>
    </g>
   </g>
   <g id="line2d_24">
    <defs>
     <path d="M 4 0 
L -4 -0 
" id="m663859a2ed" style="stroke:#488a21;stroke-opacity:0.8;stroke-width:4;"/>
    </defs>
    <g clip-path="url(#p2fe668df6c)">
     <use style="fill:#488a21;fill-opacity:0.8;stroke:#488a21;stroke-opacity:0.8;stroke-width:4;" x="288.25865" xlink:href="#m663859a2ed" y="200.707828"/>
     <use style="fill:#488a21;fill-opacity:0.8;stroke:#488a21;stroke-opacity:0.8;stroke-width:4;" x="326.94665" xlink:href="#m663859a2ed" y="229.614688"/>
     <use style="fill:#488a21;fill-opacity:0.8;stroke:#488a21;stroke-opacity:0.8;stroke-width:4;" x="365.63465" xlink:href="#m663859a2ed" y="216.929457"/>
    </g>
   </g>
   <g id="line2d_25">
    <g clip-path="url(#p2fe668df6c)">
     <use style="fill:#488a21;fill-opacity:0.8;stroke:#488a21;stroke-opacity:0.8;stroke-width:4;" x="288.25865" xlink:href="#m663859a2ed" y="194.279384"/>
     <use style="fill:#488a21;fill-opacity:0.8;stroke:#488a21;stroke-opacity:0.8;stroke-width:4;" x="326.94665" xlink:href="#m663859a2ed" y="222.472133"/>
     <use style="fill:#488a21;fill-opacity:0.8;stroke:#488a21;stroke-opacity:0.8;stroke-width:4;" x="365.63465" xlink:href="#m663859a2ed" y="209.031614"/>
    </g>
   </g>
   <g id="line2d_26">
    <path clip-path="url(#p2fe668df6c)" d="M 288.25865 160.201412 
L 326.94665 160.201412 
" style="fill:none;stroke:#808080;stroke-linecap:square;stroke-width:3;"/>
   </g>
   <g id="line2d_27">
    <path clip-path="url(#p2fe668df6c)" d="M 288.25865 145.838913 
L 365.63465 145.838913 
" style="fill:none;stroke:#808080;stroke-linecap:square;stroke-width:3;"/>
   </g>
   <g id="line2d_28">
    <path clip-path="url(#p2fe668df6c)" d="M 288.25865 110.841557 
L 326.94665 110.841557 
" style="fill:none;stroke:#488a21;stroke-linecap:square;stroke-width:3;"/>
   </g>
   <g id="line2d_29">
    <path clip-path="url(#p2fe668df6c)" d="M 288.25865 190.224 
L 326.94665 217.109275 
L 365.63465 211.28731 
" style="fill:none;stroke:#808080;stroke-dasharray:15,10;stroke-dashoffset:0;stroke-opacity:0.6;stroke-width:5;"/>
    <g clip-path="url(#p2fe668df6c)">
     <use style="fill:#808080;fill-opacity:0.6;stroke:#808080;stroke-linejoin:miter;stroke-opacity:0.6;stroke-width:4;" x="288.25865" xlink:href="#mdcf6834812" y="190.224"/>
     <use style="fill:#808080;fill-opacity:0.6;stroke:#808080;stroke-linejoin:miter;stroke-opacity:0.6;stroke-width:4;" x="326.94665" xlink:href="#mdcf6834812" y="217.109275"/>
     <use style="fill:#808080;fill-opacity:0.6;stroke:#808080;stroke-linejoin:miter;stroke-opacity:0.6;stroke-width:4;" x="365.63465" xlink:href="#mdcf6834812" y="211.28731"/>
    </g>
   </g>
   <g id="line2d_30">
    <path clip-path="url(#p2fe668df6c)" d="M 288.25865 197.493606 
L 326.94665 226.04341 
L 365.63465 212.980536 
" style="fill:none;stroke:#488a21;stroke-dasharray:15,10;stroke-dashoffset:0;stroke-opacity:0.8;stroke-width:5;"/>
    <defs>
     <path d="M 0 5 
C 1.326016 5 2.597899 4.473168 3.535534 3.535534 
C 4.473168 2.597899 5 1.326016 5 0 
C 5 -1.326016 4.473168 -2.597899 3.535534 -3.535534 
C 2.597899 -4.473168 1.326016 -5 0 -5 
C -1.326016 -5 -2.597899 -4.473168 -3.535534 -3.535534 
C -4.473168 -2.597899 -5 -1.326016 -5 0 
C -5 1.326016 -4.473168 2.597899 -3.535534 3.535534 
C -2.597899 4.473168 -1.326016 5 0 5 
z
" id="m40f3083c49" style="stroke:#488a21;stroke-opacity:0.8;stroke-width:4;"/>
    </defs>
    <g clip-path="url(#p2fe668df6c)">
     <use style="fill:#488a21;fill-opacity:0.8;stroke:#488a21;stroke-opacity:0.8;stroke-width:4;" x="288.25865" xlink:href="#m40f3083c49" y="197.493606"/>
     <use style="fill:#488a21;fill-opacity:0.8;stroke:#488a21;stroke-opacity:0.8;stroke-width:4;" x="326.94665" xlink:href="#m40f3083c49" y="226.04341"/>
     <use style="fill:#488a21;fill-opacity:0.8;stroke:#488a21;stroke-opacity:0.8;stroke-width:4;" x="365.63465" xlink:href="#m40f3083c49" y="212.980536"/>
    </g>
   </g>
   <g id="patch_5">
    <path d="M 262.46665 272.88 
L 262.46665 66.24 
" style="fill:none;stroke:#000000;stroke-linecap:square;stroke-linejoin:miter;stroke-width:4;"/>
   </g>
   <g id="text_7">
    <!-- +++ -->
    <g style="fill:#808080;" transform="translate(295.337338 157.583351)scale(0.14 -0.14)">
     <defs>
      <path d="M 22.90625 10.296875 
L 22.90625 28.90625 
L 4.15625 28.90625 
L 4.15625 41.75 
L 22.90625 41.75 
L 22.90625 60.359375 
L 35.40625 60.359375 
L 35.40625 41.75 
L 54.203125 41.75 
L 54.203125 28.90625 
L 35.40625 28.90625 
L 35.40625 10.296875 
z
" id="Arial-BoldMT-43"/>
     </defs>
     <use xlink:href="#Arial-BoldMT-43"/>
     <use x="58.398438" xlink:href="#Arial-BoldMT-43"/>
     <use x="116.796875" xlink:href="#Arial-BoldMT-43"/>
    </g>
   </g>
   <g id="text_8">
    <!-- +++ -->
    <g style="fill:#808080;" transform="translate(314.681338 143.220852)scale(0.14 -0.14)">
     <use xlink:href="#Arial-BoldMT-43"/>
     <use x="58.398438" xlink:href="#Arial-BoldMT-43"/>
     <use x="116.796875" xlink:href="#Arial-BoldMT-43"/>
    </g>
   </g>
   <g id="text_9">
    <!-- *** -->
    <g style="fill:#488a21;" transform="translate(295.926088 114.51806)scale(0.2 -0.2)">
     <use xlink:href="#Arial-BoldMT-42"/>
     <use x="38.916016" xlink:href="#Arial-BoldMT-42"/>
     <use x="77.832031" xlink:href="#Arial-BoldMT-42"/>
    </g>
   </g>
   <g id="text_10">
    <!-- L5 Pyr -->
    <g transform="translate(300.5339 60.24)scale(0.1728 -0.1728)">
     <defs>
      <path d="M 4.4375 18.40625 
L 18.109375 19.828125 
Q 18.703125 15.1875 21.578125 12.46875 
Q 24.46875 9.765625 28.21875 9.765625 
Q 32.515625 9.765625 35.5 13.25 
Q 38.484375 16.75 38.484375 23.78125 
Q 38.484375 30.375 35.515625 33.671875 
Q 32.5625 36.96875 27.828125 36.96875 
Q 21.921875 36.96875 17.234375 31.734375 
L 6.109375 33.34375 
L 13.140625 70.609375 
L 49.421875 70.609375 
L 49.421875 57.765625 
L 23.53125 57.765625 
L 21.390625 45.609375 
Q 25.984375 47.90625 30.765625 47.90625 
Q 39.890625 47.90625 46.234375 41.265625 
Q 52.59375 34.625 52.59375 24.03125 
Q 52.59375 15.1875 47.46875 8.25 
Q 40.484375 -1.21875 28.078125 -1.21875 
Q 18.171875 -1.21875 11.921875 4.09375 
Q 5.671875 9.421875 4.4375 18.40625 
z
" id="Arial-BoldMT-53"/>
     </defs>
     <use xlink:href="#Arial-BoldMT-76"/>
     <use x="61.083984" xlink:href="#Arial-BoldMT-53"/>
     <use x="116.699219" xlink:href="#Arial-BoldMT-32"/>
     <use x="144.482422" xlink:href="#Arial-BoldMT-80"/>
     <use x="211.181641" xlink:href="#Arial-BoldMT-121"/>
     <use x="266.796875" xlink:href="#Arial-BoldMT-114"/>
    </g>
   </g>
  </g>
  <g id="axes_3">
   <g id="patch_6">
    <path d="M 101.26665 520.848 
L 230.22665 520.848 
L 230.22665 314.208 
L 101.26665 314.208 
z
" style="fill:#ffffff;"/>
   </g>
   <g id="line2d_31">
    <path clip-path="url(#p4ea5d34828)" d="M 101.26665 417.528 
L 230.22665 417.528 
" style="fill:none;stroke:#000000;stroke-dasharray:12,6;stroke-dashoffset:0;stroke-opacity:0.5;stroke-width:3;"/>
   </g>
   <g id="matplotlib.axis_5">
    <g id="xtick_7">
     <g id="line2d_32">
      <defs>
       <path d="M 0 0 
L 0 8 
" id="mba3c5b5fdf" style="stroke:#000000;stroke-width:4;"/>
      </defs>
      <g>
       <use style="stroke:#000000;stroke-width:4;" x="127.05865" xlink:href="#mba3c5b5fdf" y="520.848"/>
      </g>
     </g>
     <g id="text_11">
      <!-- 1 -->
      <g transform="translate(122.254 544.7167)scale(0.1728 -0.1728)">
       <use xlink:href="#Arial-BoldMT-49"/>
      </g>
     </g>
    </g>
    <g id="xtick_8">
     <g id="line2d_33">
      <g>
       <use style="stroke:#000000;stroke-width:4;" x="165.74665" xlink:href="#mba3c5b5fdf" y="520.848"/>
      </g>
     </g>
     <g id="text_12">
      <!-- 2 -->
      <g transform="translate(160.942 544.7167)scale(0.1728 -0.1728)">
       <use xlink:href="#Arial-BoldMT-50"/>
      </g>
     </g>
    </g>
    <g id="xtick_9">
     <g id="line2d_34">
      <g>
       <use style="stroke:#000000;stroke-width:4;" x="204.43465" xlink:href="#mba3c5b5fdf" y="520.848"/>
      </g>
     </g>
     <g id="text_13">
      <!-- 3 -->
      <g transform="translate(199.63 544.7167)scale(0.1728 -0.1728)">
       <use xlink:href="#Arial-BoldMT-51"/>
      </g>
     </g>
    </g>
   </g>
   <g id="matplotlib.axis_6">
    <g id="ytick_13">
     <g id="line2d_35">
      <g>
       <use style="stroke:#000000;stroke-width:4;" x="101.26665" xlink:href="#me8a4227d97" y="520.848"/>
      </g>
     </g>
     <g id="text_14">
      <!-- 0.4 -->
      <g transform="translate(65.74745 527.03235)scale(0.1728 -0.1728)">
       <use xlink:href="#Arial-BoldMT-48"/>
       <use x="55.615234" xlink:href="#Arial-BoldMT-46"/>
       <use x="83.398438" xlink:href="#Arial-BoldMT-52"/>
      </g>
     </g>
    </g>
    <g id="ytick_14">
     <g id="line2d_36">
      <g>
       <use style="stroke:#000000;stroke-width:4;" x="101.26665" xlink:href="#me8a4227d97" y="486.408"/>
      </g>
     </g>
    </g>
    <g id="ytick_15">
     <g id="line2d_37">
      <g>
       <use style="stroke:#000000;stroke-width:4;" x="101.26665" xlink:href="#me8a4227d97" y="451.968"/>
      </g>
     </g>
     <g id="text_15">
      <!-- 0.8 -->
      <g transform="translate(65.74745 458.15235)scale(0.1728 -0.1728)">
       <defs>
        <path d="M 16.015625 38.625 
Q 10.6875 40.875 8.265625 44.796875 
Q 5.859375 48.734375 5.859375 53.421875 
Q 5.859375 61.421875 11.453125 66.640625 
Q 17.046875 71.875 27.34375 71.875 
Q 37.546875 71.875 43.1875 66.640625 
Q 48.828125 61.421875 48.828125 53.421875 
Q 48.828125 48.4375 46.234375 44.546875 
Q 43.65625 40.671875 38.96875 38.625 
Q 44.921875 36.234375 48.015625 31.640625 
Q 51.125 27.046875 51.125 21.046875 
Q 51.125 11.140625 44.796875 4.9375 
Q 38.484375 -1.265625 27.984375 -1.265625 
Q 18.21875 -1.265625 11.71875 3.859375 
Q 4.046875 9.90625 4.046875 20.453125 
Q 4.046875 26.265625 6.921875 31.125 
Q 9.8125 35.984375 16.015625 38.625 
z
M 18.84375 52.4375 
Q 18.84375 48.34375 21.15625 46.046875 
Q 23.484375 43.75 27.34375 43.75 
Q 31.25 43.75 33.59375 46.0625 
Q 35.9375 48.390625 35.9375 52.484375 
Q 35.9375 56.34375 33.609375 58.65625 
Q 31.296875 60.984375 27.484375 60.984375 
Q 23.53125 60.984375 21.1875 58.640625 
Q 18.84375 56.296875 18.84375 52.4375 
z
M 17.578125 21.78125 
Q 17.578125 16.109375 20.484375 12.9375 
Q 23.390625 9.765625 27.734375 9.765625 
Q 31.984375 9.765625 34.765625 12.8125 
Q 37.546875 15.875 37.546875 21.625 
Q 37.546875 26.65625 34.71875 29.703125 
Q 31.890625 32.765625 27.546875 32.765625 
Q 22.515625 32.765625 20.046875 29.296875 
Q 17.578125 25.828125 17.578125 21.78125 
z
" id="Arial-BoldMT-56"/>
       </defs>
       <use xlink:href="#Arial-BoldMT-48"/>
       <use x="55.615234" xlink:href="#Arial-BoldMT-46"/>
       <use x="83.398438" xlink:href="#Arial-BoldMT-56"/>
      </g>
     </g>
    </g>
    <g id="ytick_16">
     <g id="line2d_38">
      <g>
       <use style="stroke:#000000;stroke-width:4;" x="101.26665" xlink:href="#me8a4227d97" y="417.528"/>
      </g>
     </g>
    </g>
    <g id="ytick_17">
     <g id="line2d_39">
      <g>
       <use style="stroke:#000000;stroke-width:4;" x="101.26665" xlink:href="#me8a4227d97" y="383.088"/>
      </g>
     </g>
     <g id="text_16">
      <!-- 1.2 -->
      <g transform="translate(65.74745 389.27235)scale(0.1728 -0.1728)">
       <use xlink:href="#Arial-BoldMT-49"/>
       <use x="55.615234" xlink:href="#Arial-BoldMT-46"/>
       <use x="83.398438" xlink:href="#Arial-BoldMT-50"/>
      </g>
     </g>
    </g>
    <g id="ytick_18">
     <g id="line2d_40">
      <g>
       <use style="stroke:#000000;stroke-width:4;" x="101.26665" xlink:href="#me8a4227d97" y="348.648"/>
      </g>
     </g>
    </g>
    <g id="ytick_19">
     <g id="line2d_41">
      <g>
       <use style="stroke:#000000;stroke-width:4;" x="101.26665" xlink:href="#me8a4227d97" y="314.208"/>
      </g>
     </g>
     <g id="text_17">
      <!-- 1.6 -->
      <g transform="translate(65.74745 320.39235)scale(0.1728 -0.1728)">
       <use xlink:href="#Arial-BoldMT-49"/>
       <use x="55.615234" xlink:href="#Arial-BoldMT-46"/>
       <use x="83.398438" xlink:href="#Arial-BoldMT-54"/>
      </g>
     </g>
    </g>
   </g>
   <g id="LineCollection_5">
    <path clip-path="url(#p4ea5d34828)" d="M 127.05865 434.036559 
L 127.05865 401.019441 
" style="fill:none;stroke:#808080;stroke-opacity:0.6;stroke-width:5;"/>
    <path clip-path="url(#p4ea5d34828)" d="M 165.74665 439.851495 
L 165.74665 405.028469 
" style="fill:none;stroke:#808080;stroke-opacity:0.6;stroke-width:5;"/>
    <path clip-path="url(#p4ea5d34828)" d="M 204.43465 460.910869 
L 204.43465 431.962664 
" style="fill:none;stroke:#808080;stroke-opacity:0.6;stroke-width:5;"/>
   </g>
   <g id="LineCollection_6">
    <path clip-path="url(#p4ea5d34828)" d="M 127.05865 385.652375 
L 127.05865 340.286568 
" style="fill:none;stroke:#50a2d5;stroke-opacity:0.8;stroke-width:5;"/>
    <path clip-path="url(#p4ea5d34828)" d="M 165.74665 390.652315 
L 165.74665 346.738802 
" style="fill:none;stroke:#50a2d5;stroke-opacity:0.8;stroke-width:5;"/>
    <path clip-path="url(#p4ea5d34828)" d="M 204.43465 401.293153 
L 204.43465 353.864832 
" style="fill:none;stroke:#50a2d5;stroke-opacity:0.8;stroke-width:5;"/>
   </g>
   <g id="line2d_42">
    <g clip-path="url(#p4ea5d34828)">
     <use style="fill:#808080;fill-opacity:0.6;stroke:#808080;stroke-opacity:0.6;stroke-width:4;" x="127.05865" xlink:href="#m7ac8900111" y="434.036559"/>
     <use style="fill:#808080;fill-opacity:0.6;stroke:#808080;stroke-opacity:0.6;stroke-width:4;" x="165.74665" xlink:href="#m7ac8900111" y="439.851495"/>
     <use style="fill:#808080;fill-opacity:0.6;stroke:#808080;stroke-opacity:0.6;stroke-width:4;" x="204.43465" xlink:href="#m7ac8900111" y="460.910869"/>
    </g>
   </g>
   <g id="line2d_43">
    <g clip-path="url(#p4ea5d34828)">
     <use style="fill:#808080;fill-opacity:0.6;stroke:#808080;stroke-opacity:0.6;stroke-width:4;" x="127.05865" xlink:href="#m7ac8900111" y="401.019441"/>
     <use style="fill:#808080;fill-opacity:0.6;stroke:#808080;stroke-opacity:0.6;stroke-width:4;" x="165.74665" xlink:href="#m7ac8900111" y="405.028469"/>
     <use style="fill:#808080;fill-opacity:0.6;stroke:#808080;stroke-opacity:0.6;stroke-width:4;" x="204.43465" xlink:href="#m7ac8900111" y="431.962664"/>
    </g>
   </g>
   <g id="line2d_44">
    <defs>
     <path d="M 4 0 
L -4 -0 
" id="m13af0b4464" style="stroke:#50a2d5;stroke-opacity:0.8;stroke-width:4;"/>
    </defs>
    <g clip-path="url(#p4ea5d34828)">
     <use style="fill:#50a2d5;fill-opacity:0.8;stroke:#50a2d5;stroke-opacity:0.8;stroke-width:4;" x="127.05865" xlink:href="#m13af0b4464" y="385.652375"/>
     <use style="fill:#50a2d5;fill-opacity:0.8;stroke:#50a2d5;stroke-opacity:0.8;stroke-width:4;" x="165.74665" xlink:href="#m13af0b4464" y="390.652315"/>
     <use style="fill:#50a2d5;fill-opacity:0.8;stroke:#50a2d5;stroke-opacity:0.8;stroke-width:4;" x="204.43465" xlink:href="#m13af0b4464" y="401.293153"/>
    </g>
   </g>
   <g id="line2d_45">
    <g clip-path="url(#p4ea5d34828)">
     <use style="fill:#50a2d5;fill-opacity:0.8;stroke:#50a2d5;stroke-opacity:0.8;stroke-width:4;" x="127.05865" xlink:href="#m13af0b4464" y="340.286568"/>
     <use style="fill:#50a2d5;fill-opacity:0.8;stroke:#50a2d5;stroke-opacity:0.8;stroke-width:4;" x="165.74665" xlink:href="#m13af0b4464" y="346.738802"/>
     <use style="fill:#50a2d5;fill-opacity:0.8;stroke:#50a2d5;stroke-opacity:0.8;stroke-width:4;" x="204.43465" xlink:href="#m13af0b4464" y="353.864832"/>
    </g>
   </g>
   <g id="line2d_46">
    <path clip-path="url(#p4ea5d34828)" d="M 127.05865 417.528 
L 165.74665 422.439982 
L 204.43465 446.436767 
" style="fill:none;stroke:#808080;stroke-linecap:square;stroke-opacity:0.6;stroke-width:5;"/>
    <g clip-path="url(#p4ea5d34828)">
     <use style="fill:#808080;fill-opacity:0.6;stroke:#808080;stroke-linejoin:miter;stroke-opacity:0.6;stroke-width:4;" x="127.05865" xlink:href="#mdcf6834812" y="417.528"/>
     <use style="fill:#808080;fill-opacity:0.6;stroke:#808080;stroke-linejoin:miter;stroke-opacity:0.6;stroke-width:4;" x="165.74665" xlink:href="#mdcf6834812" y="422.439982"/>
     <use style="fill:#808080;fill-opacity:0.6;stroke:#808080;stroke-linejoin:miter;stroke-opacity:0.6;stroke-width:4;" x="204.43465" xlink:href="#mdcf6834812" y="446.436767"/>
    </g>
   </g>
   <g id="line2d_47">
    <path clip-path="url(#p4ea5d34828)" d="M 127.05865 362.969472 
L 165.74665 368.695558 
L 204.43465 377.578993 
" style="fill:none;stroke:#50a2d5;stroke-linecap:square;stroke-opacity:0.8;stroke-width:5;"/>
    <defs>
     <path d="M 0 5 
C 1.326016 5 2.597899 4.473168 3.535534 3.535534 
C 4.473168 2.597899 5 1.326016 5 0 
C 5 -1.326016 4.473168 -2.597899 3.535534 -3.535534 
C 2.597899 -4.473168 1.326016 -5 0 -5 
C -1.326016 -5 -2.597899 -4.473168 -3.535534 -3.535534 
C -4.473168 -2.597899 -5 -1.326016 -5 0 
C -5 1.326016 -4.473168 2.597899 -3.535534 3.535534 
C -2.597899 4.473168 -1.326016 5 0 5 
z
" id="mbb576ebf53" style="stroke:#50a2d5;stroke-opacity:0.8;stroke-width:4;"/>
    </defs>
    <g clip-path="url(#p4ea5d34828)">
     <use style="fill:#50a2d5;fill-opacity:0.8;stroke:#50a2d5;stroke-opacity:0.8;stroke-width:4;" x="127.05865" xlink:href="#mbb576ebf53" y="362.969472"/>
     <use style="fill:#50a2d5;fill-opacity:0.8;stroke:#50a2d5;stroke-opacity:0.8;stroke-width:4;" x="165.74665" xlink:href="#mbb576ebf53" y="368.695558"/>
     <use style="fill:#50a2d5;fill-opacity:0.8;stroke:#50a2d5;stroke-opacity:0.8;stroke-width:4;" x="204.43465" xlink:href="#mbb576ebf53" y="377.578993"/>
    </g>
   </g>
   <g id="patch_7">
    <path d="M 101.26665 520.848 
L 101.26665 314.208 
" style="fill:none;stroke:#000000;stroke-linecap:square;stroke-linejoin:miter;stroke-width:4;"/>
   </g>
   <g id="patch_8">
    <path d="M 101.26665 520.848 
L 230.22665 520.848 
" style="fill:none;stroke:#000000;stroke-linecap:square;stroke-linejoin:miter;stroke-width:4;"/>
   </g>
  </g>
  <g id="axes_4">
   <g id="patch_9">
    <path d="M 262.46665 520.848 
L 391.42665 520.848 
L 391.42665 314.208 
L 262.46665 314.208 
z
" style="fill:#ffffff;"/>
   </g>
   <g id="line2d_48">
    <path clip-path="url(#p89fe17239b)" d="M 262.46665 417.528 
L 391.42665 417.528 
" style="fill:none;stroke:#000000;stroke-dasharray:12,6;stroke-dashoffset:0;stroke-opacity:0.5;stroke-width:3;"/>
   </g>
   <g id="matplotlib.axis_7">
    <g id="xtick_10">
     <g id="line2d_49">
      <g>
       <use style="stroke:#000000;stroke-width:4;" x="288.25865" xlink:href="#mba3c5b5fdf" y="520.848"/>
      </g>
     </g>
     <g id="text_18">
      <!-- 1 -->
      <g transform="translate(283.454 544.7167)scale(0.1728 -0.1728)">
       <use xlink:href="#Arial-BoldMT-49"/>
      </g>
     </g>
    </g>
    <g id="xtick_11">
     <g id="line2d_50">
      <g>
       <use style="stroke:#000000;stroke-width:4;" x="326.94665" xlink:href="#mba3c5b5fdf" y="520.848"/>
      </g>
     </g>
     <g id="text_19">
      <!-- 2 -->
      <g transform="translate(322.142 544.7167)scale(0.1728 -0.1728)">
       <use xlink:href="#Arial-BoldMT-50"/>
      </g>
     </g>
    </g>
    <g id="xtick_12">
     <g id="line2d_51">
      <g>
       <use style="stroke:#000000;stroke-width:4;" x="365.63465" xlink:href="#mba3c5b5fdf" y="520.848"/>
      </g>
     </g>
     <g id="text_20">
      <!-- 3 -->
      <g transform="translate(360.83 544.7167)scale(0.1728 -0.1728)">
       <use xlink:href="#Arial-BoldMT-51"/>
      </g>
     </g>
    </g>
   </g>
   <g id="matplotlib.axis_8">
    <g id="ytick_20">
     <g id="line2d_52">
      <g>
       <use style="stroke:#000000;stroke-width:4;" x="262.46665" xlink:href="#me8a4227d97" y="520.848"/>
      </g>
     </g>
    </g>
    <g id="ytick_21">
     <g id="line2d_53">
      <g>
       <use style="stroke:#000000;stroke-width:4;" x="262.46665" xlink:href="#me8a4227d97" y="486.408"/>
      </g>
     </g>
    </g>
    <g id="ytick_22">
     <g id="line2d_54">
      <g>
       <use style="stroke:#000000;stroke-width:4;" x="262.46665" xlink:href="#me8a4227d97" y="451.968"/>
      </g>
     </g>
    </g>
    <g id="ytick_23">
     <g id="line2d_55">
      <g>
       <use style="stroke:#000000;stroke-width:4;" x="262.46665" xlink:href="#me8a4227d97" y="417.528"/>
      </g>
     </g>
    </g>
    <g id="ytick_24">
     <g id="line2d_56">
      <g>
       <use style="stroke:#000000;stroke-width:4;" x="262.46665" xlink:href="#me8a4227d97" y="383.088"/>
      </g>
     </g>
    </g>
    <g id="ytick_25">
     <g id="line2d_57">
      <g>
       <use style="stroke:#000000;stroke-width:4;" x="262.46665" xlink:href="#me8a4227d97" y="348.648"/>
      </g>
     </g>
    </g>
    <g id="ytick_26">
     <g id="line2d_58">
      <g>
       <use style="stroke:#000000;stroke-width:4;" x="262.46665" xlink:href="#me8a4227d97" y="314.208"/>
      </g>
     </g>
    </g>
   </g>
   <g id="LineCollection_7">
    <path clip-path="url(#p89fe17239b)" d="M 288.25865 432.074735 
L 288.25865 402.981265 
" style="fill:none;stroke:#808080;stroke-opacity:0.6;stroke-width:5;"/>
    <path clip-path="url(#p89fe17239b)" d="M 326.94665 480.846367 
L 326.94665 460.592432 
" style="fill:none;stroke:#808080;stroke-opacity:0.6;stroke-width:5;"/>
    <path clip-path="url(#p89fe17239b)" d="M 365.63465 459.40332 
L 365.63465 435.690508 
" style="fill:none;stroke:#808080;stroke-opacity:0.6;stroke-width:5;"/>
   </g>
   <g id="LineCollection_8">
    <path clip-path="url(#p89fe17239b)" d="M 288.25865 439.959432 
L 288.25865 407.427294 
" style="fill:none;stroke:#22567a;stroke-opacity:0.8;stroke-width:5;"/>
    <path clip-path="url(#p89fe17239b)" d="M 326.94665 490.933649 
L 326.94665 470.663236 
" style="fill:none;stroke:#22567a;stroke-opacity:0.8;stroke-width:5;"/>
    <path clip-path="url(#p89fe17239b)" d="M 365.63465 456.412927 
L 365.63465 429.008834 
" style="fill:none;stroke:#22567a;stroke-opacity:0.8;stroke-width:5;"/>
   </g>
   <g id="line2d_59">
    <g clip-path="url(#p89fe17239b)">
     <use style="fill:#808080;fill-opacity:0.6;stroke:#808080;stroke-opacity:0.6;stroke-width:4;" x="288.25865" xlink:href="#m7ac8900111" y="432.074735"/>
     <use style="fill:#808080;fill-opacity:0.6;stroke:#808080;stroke-opacity:0.6;stroke-width:4;" x="326.94665" xlink:href="#m7ac8900111" y="480.846367"/>
     <use style="fill:#808080;fill-opacity:0.6;stroke:#808080;stroke-opacity:0.6;stroke-width:4;" x="365.63465" xlink:href="#m7ac8900111" y="459.40332"/>
    </g>
   </g>
   <g id="line2d_60">
    <g clip-path="url(#p89fe17239b)">
     <use style="fill:#808080;fill-opacity:0.6;stroke:#808080;stroke-opacity:0.6;stroke-width:4;" x="288.25865" xlink:href="#m7ac8900111" y="402.981265"/>
     <use style="fill:#808080;fill-opacity:0.6;stroke:#808080;stroke-opacity:0.6;stroke-width:4;" x="326.94665" xlink:href="#m7ac8900111" y="460.592432"/>
     <use style="fill:#808080;fill-opacity:0.6;stroke:#808080;stroke-opacity:0.6;stroke-width:4;" x="365.63465" xlink:href="#m7ac8900111" y="435.690508"/>
    </g>
   </g>
   <g id="line2d_61">
    <defs>
     <path d="M 4 0 
L -4 -0 
" id="m259d7fe423" style="stroke:#22567a;stroke-opacity:0.8;stroke-width:4;"/>
    </defs>
    <g clip-path="url(#p89fe17239b)">
     <use style="fill:#22567a;fill-opacity:0.8;stroke:#22567a;stroke-opacity:0.8;stroke-width:4;" x="288.25865" xlink:href="#m259d7fe423" y="439.959432"/>
     <use style="fill:#22567a;fill-opacity:0.8;stroke:#22567a;stroke-opacity:0.8;stroke-width:4;" x="326.94665" xlink:href="#m259d7fe423" y="490.933649"/>
     <use style="fill:#22567a;fill-opacity:0.8;stroke:#22567a;stroke-opacity:0.8;stroke-width:4;" x="365.63465" xlink:href="#m259d7fe423" y="456.412927"/>
    </g>
   </g>
   <g id="line2d_62">
    <g clip-path="url(#p89fe17239b)">
     <use style="fill:#22567a;fill-opacity:0.8;stroke:#22567a;stroke-opacity:0.8;stroke-width:4;" x="288.25865" xlink:href="#m259d7fe423" y="407.427294"/>
     <use style="fill:#22567a;fill-opacity:0.8;stroke:#22567a;stroke-opacity:0.8;stroke-width:4;" x="326.94665" xlink:href="#m259d7fe423" y="470.663236"/>
     <use style="fill:#22567a;fill-opacity:0.8;stroke:#22567a;stroke-opacity:0.8;stroke-width:4;" x="365.63465" xlink:href="#m259d7fe423" y="429.008834"/>
    </g>
   </g>
   <g id="line2d_63">
    <path clip-path="url(#p89fe17239b)" d="M 288.25865 417.528 
L 326.94665 470.719399 
L 365.63465 447.546914 
" style="fill:none;stroke:#808080;stroke-dasharray:15,10;stroke-dashoffset:0;stroke-opacity:0.6;stroke-width:5;"/>
    <g clip-path="url(#p89fe17239b)">
     <use style="fill:#808080;fill-opacity:0.6;stroke:#808080;stroke-linejoin:miter;stroke-opacity:0.6;stroke-width:4;" x="288.25865" xlink:href="#mdcf6834812" y="417.528"/>
     <use style="fill:#808080;fill-opacity:0.6;stroke:#808080;stroke-linejoin:miter;stroke-opacity:0.6;stroke-width:4;" x="326.94665" xlink:href="#mdcf6834812" y="470.719399"/>
     <use style="fill:#808080;fill-opacity:0.6;stroke:#808080;stroke-linejoin:miter;stroke-opacity:0.6;stroke-width:4;" x="365.63465" xlink:href="#mdcf6834812" y="447.546914"/>
    </g>
   </g>
   <g id="line2d_64">
    <path clip-path="url(#p89fe17239b)" d="M 288.25865 423.693363 
L 326.94665 480.798443 
L 365.63465 442.71088 
" style="fill:none;stroke:#22567a;stroke-dasharray:15,10;stroke-dashoffset:0;stroke-opacity:0.8;stroke-width:5;"/>
    <defs>
     <path d="M 0 5 
C 1.326016 5 2.597899 4.473168 3.535534 3.535534 
C 4.473168 2.597899 5 1.326016 5 0 
C 5 -1.326016 4.473168 -2.597899 3.535534 -3.535534 
C 2.597899 -4.473168 1.326016 -5 0 -5 
C -1.326016 -5 -2.597899 -4.473168 -3.535534 -3.535534 
C -4.473168 -2.597899 -5 -1.326016 -5 0 
C -5 1.326016 -4.473168 2.597899 -3.535534 3.535534 
C -2.597899 4.473168 -1.326016 5 0 5 
z
" id="m482f5705d5" style="stroke:#22567a;stroke-opacity:0.8;stroke-width:4;"/>
    </defs>
    <g clip-path="url(#p89fe17239b)">
     <use style="fill:#22567a;fill-opacity:0.8;stroke:#22567a;stroke-opacity:0.8;stroke-width:4;" x="288.25865" xlink:href="#m482f5705d5" y="423.693363"/>
     <use style="fill:#22567a;fill-opacity:0.8;stroke:#22567a;stroke-opacity:0.8;stroke-width:4;" x="326.94665" xlink:href="#m482f5705d5" y="480.798443"/>
     <use style="fill:#22567a;fill-opacity:0.8;stroke:#22567a;stroke-opacity:0.8;stroke-width:4;" x="365.63465" xlink:href="#m482f5705d5" y="442.71088"/>
    </g>
   </g>
   <g id="patch_10">
    <path d="M 262.46665 520.848 
L 262.46665 314.208 
" style="fill:none;stroke:#000000;stroke-linecap:square;stroke-linejoin:miter;stroke-width:4;"/>
   </g>
   <g id="patch_11">
    <path d="M 262.46665 520.848 
L 391.42665 520.848 
" style="fill:none;stroke:#000000;stroke-linecap:square;stroke-linejoin:miter;stroke-width:4;"/>
   </g>
  </g>
  <g id="text_21">
   <!-- Expected vs unexpected visual flow, relative to session 1 -->
   <g transform="translate(7.2 19.7793)scale(0.1728 -0.1728)">
    <defs>
     <path d="M 7.28125 0 
L 7.28125 71.578125 
L 60.359375 71.578125 
L 60.359375 59.46875 
L 21.734375 59.46875 
L 21.734375 43.609375 
L 57.671875 43.609375 
L 57.671875 31.546875 
L 21.734375 31.546875 
L 21.734375 12.0625 
L 61.71875 12.0625 
L 61.71875 0 
z
" id="Arial-BoldMT-69"/>
     <path d="M 0.59375 0 
L 19.28125 26.703125 
L 1.375 51.859375 
L 18.109375 51.859375 
L 27.296875 37.59375 
L 36.96875 51.859375 
L 53.078125 51.859375 
L 35.5 27.296875 
L 54.6875 0 
L 37.84375 0 
L 27.296875 16.0625 
L 16.65625 0 
z
" id="Arial-BoldMT-120"/>
     <path d="M 6.78125 51.859375 
L 19.578125 51.859375 
L 19.578125 44.234375 
Q 22.078125 48.140625 26.3125 50.578125 
Q 30.5625 53.03125 35.75 53.03125 
Q 44.78125 53.03125 51.078125 45.953125 
Q 57.375 38.875 57.375 26.21875 
Q 57.375 13.234375 51.015625 6.03125 
Q 44.671875 -1.171875 35.640625 -1.171875 
Q 31.34375 -1.171875 27.84375 0.53125 
Q 24.359375 2.25 20.515625 6.390625 
L 20.515625 -19.734375 
L 6.78125 -19.734375 
z
M 20.359375 26.8125 
Q 20.359375 18.0625 23.828125 13.890625 
Q 27.296875 9.71875 32.28125 9.71875 
Q 37.0625 9.71875 40.234375 13.546875 
Q 43.40625 17.390625 43.40625 26.125 
Q 43.40625 34.28125 40.125 38.234375 
Q 36.859375 42.1875 32.03125 42.1875 
Q 27 42.1875 23.671875 38.296875 
Q 20.359375 34.421875 20.359375 26.8125 
z
" id="Arial-BoldMT-112"/>
     <path d="M 37.203125 16.5 
L 50.875 14.203125 
Q 48.25 6.6875 42.546875 2.75 
Q 36.859375 -1.171875 28.328125 -1.171875 
Q 14.796875 -1.171875 8.296875 7.671875 
Q 3.171875 14.75 3.171875 25.53125 
Q 3.171875 38.421875 9.90625 45.71875 
Q 16.65625 53.03125 26.953125 53.03125 
Q 38.53125 53.03125 45.21875 45.390625 
Q 51.90625 37.75 51.609375 21.96875 
L 17.234375 21.96875 
Q 17.390625 15.875 20.5625 12.46875 
Q 23.734375 9.078125 28.46875 9.078125 
Q 31.6875 9.078125 33.875 10.828125 
Q 36.078125 12.59375 37.203125 16.5 
z
M 37.984375 30.375 
Q 37.84375 36.328125 34.90625 39.421875 
Q 31.984375 42.53125 27.78125 42.53125 
Q 23.296875 42.53125 20.359375 39.265625 
Q 17.4375 35.984375 17.484375 30.375 
z
" id="Arial-BoldMT-101"/>
     <path d="M 52.390625 36.53125 
L 38.875 34.078125 
Q 38.1875 38.140625 35.765625 40.1875 
Q 33.34375 42.234375 29.5 42.234375 
Q 24.359375 42.234375 21.3125 38.6875 
Q 18.265625 35.15625 18.265625 26.859375 
Q 18.265625 17.625 21.359375 13.8125 
Q 24.46875 10.015625 29.6875 10.015625 
Q 33.59375 10.015625 36.078125 12.234375 
Q 38.578125 14.453125 39.59375 19.875 
L 53.078125 17.578125 
Q 50.984375 8.296875 45.015625 3.5625 
Q 39.0625 -1.171875 29.046875 -1.171875 
Q 17.671875 -1.171875 10.90625 6 
Q 4.15625 13.1875 4.15625 25.875 
Q 4.15625 38.71875 10.9375 45.875 
Q 17.71875 53.03125 29.296875 53.03125 
Q 38.765625 53.03125 44.359375 48.953125 
Q 49.953125 44.875 52.390625 36.53125 
z
" id="Arial-BoldMT-99"/>
     <path d="M 30.953125 51.859375 
L 30.953125 40.921875 
L 21.578125 40.921875 
L 21.578125 20.015625 
Q 21.578125 13.671875 21.84375 12.625 
Q 22.125 11.578125 23.078125 10.890625 
Q 24.03125 10.203125 25.390625 10.203125 
Q 27.296875 10.203125 30.90625 11.53125 
L 32.078125 0.875 
Q 27.296875 -1.171875 21.234375 -1.171875 
Q 17.53125 -1.171875 14.546875 0.0625 
Q 11.578125 1.3125 10.1875 3.296875 
Q 8.796875 5.28125 8.25 8.640625 
Q 7.8125 11.03125 7.8125 18.3125 
L 7.8125 40.921875 
L 1.515625 40.921875 
L 1.515625 51.859375 
L 7.8125 51.859375 
L 7.8125 62.15625 
L 21.578125 70.171875 
L 21.578125 51.859375 
z
" id="Arial-BoldMT-116"/>
     <path d="M 54.734375 0 
L 42 0 
L 42 7.625 
Q 38.8125 3.171875 34.484375 1 
Q 30.171875 -1.171875 25.78125 -1.171875 
Q 16.84375 -1.171875 10.46875 6.03125 
Q 4.109375 13.234375 4.109375 26.125 
Q 4.109375 39.3125 10.296875 46.171875 
Q 16.5 53.03125 25.984375 53.03125 
Q 34.671875 53.03125 41.015625 45.796875 
L 41.015625 71.578125 
L 54.734375 71.578125 
z
M 18.109375 27.046875 
Q 18.109375 18.75 20.40625 15.046875 
Q 23.734375 9.671875 29.6875 9.671875 
Q 34.421875 9.671875 37.734375 13.6875 
Q 41.0625 17.71875 41.0625 25.734375 
Q 41.0625 34.671875 37.84375 38.59375 
Q 34.625 42.53125 29.59375 42.53125 
Q 24.703125 42.53125 21.40625 38.640625 
Q 18.109375 34.765625 18.109375 27.046875 
z
" id="Arial-BoldMT-100"/>
     <path d="M 21.4375 0 
L 0.53125 51.859375 
L 14.9375 51.859375 
L 24.703125 25.390625 
L 27.546875 16.546875 
Q 28.65625 19.921875 28.953125 21 
Q 29.640625 23.1875 30.421875 25.390625 
L 40.28125 51.859375 
L 54.390625 51.859375 
L 33.796875 0 
z
" id="Arial-BoldMT-118"/>
     <path d="M 2.34375 14.796875 
L 16.109375 16.890625 
Q 17 12.890625 19.671875 10.8125 
Q 22.359375 8.734375 27.203125 8.734375 
Q 32.515625 8.734375 35.203125 10.6875 
Q 37.015625 12.0625 37.015625 14.359375 
Q 37.015625 15.921875 36.03125 16.9375 
Q 35.015625 17.921875 31.453125 18.75 
Q 14.84375 22.40625 10.40625 25.4375 
Q 4.25 29.640625 4.25 37.109375 
Q 4.25 43.84375 9.5625 48.4375 
Q 14.890625 53.03125 26.078125 53.03125 
Q 36.71875 53.03125 41.890625 49.5625 
Q 47.078125 46.09375 49.03125 39.3125 
L 36.078125 36.921875 
Q 35.25 39.9375 32.921875 41.546875 
Q 30.609375 43.171875 26.3125 43.171875 
Q 20.90625 43.171875 18.5625 41.65625 
Q 17 40.578125 17 38.875 
Q 17 37.40625 18.359375 36.375 
Q 20.21875 35.015625 31.171875 32.515625 
Q 42.140625 30.03125 46.484375 26.421875 
Q 50.78125 22.75 50.78125 16.21875 
Q 50.78125 9.078125 44.828125 3.953125 
Q 38.875 -1.171875 27.203125 -1.171875 
Q 16.609375 -1.171875 10.421875 3.125 
Q 4.25 7.421875 2.34375 14.796875 
z
" id="Arial-BoldMT-115"/>
     <path d="M 41.3125 0 
L 41.3125 7.765625 
Q 38.484375 3.609375 33.859375 1.21875 
Q 29.25 -1.171875 24.125 -1.171875 
Q 18.890625 -1.171875 14.734375 1.125 
Q 10.59375 3.421875 8.734375 7.5625 
Q 6.890625 11.71875 6.890625 19.046875 
L 6.890625 51.859375 
L 20.609375 51.859375 
L 20.609375 28.03125 
Q 20.609375 17.09375 21.359375 14.625 
Q 22.125 12.15625 24.125 10.71875 
Q 26.125 9.28125 29.203125 9.28125 
Q 32.71875 9.28125 35.5 11.203125 
Q 38.28125 13.140625 39.296875 15.984375 
Q 40.328125 18.84375 40.328125 29.984375 
L 40.328125 51.859375 
L 54.046875 51.859375 
L 54.046875 0 
z
" id="Arial-BoldMT-117"/>
     <path d="M 54.34375 0 
L 40.625 0 
L 40.625 26.46875 
Q 40.625 34.859375 39.75 37.328125 
Q 38.875 39.796875 36.890625 41.15625 
Q 34.90625 42.53125 32.125 42.53125 
Q 28.5625 42.53125 25.734375 40.578125 
Q 22.90625 38.625 21.84375 35.390625 
Q 20.796875 32.171875 20.796875 23.484375 
L 20.796875 0 
L 7.078125 0 
L 7.078125 51.859375 
L 19.828125 51.859375 
L 19.828125 44.234375 
Q 26.609375 53.03125 36.921875 53.03125 
Q 41.453125 53.03125 45.203125 51.390625 
Q 48.96875 49.75 50.890625 47.203125 
Q 52.828125 44.671875 53.578125 41.453125 
Q 54.34375 38.234375 54.34375 32.234375 
z
" id="Arial-BoldMT-110"/>
     <path d="M 7.171875 58.890625 
L 7.171875 71.578125 
L 20.90625 71.578125 
L 20.90625 58.890625 
z
M 7.171875 0 
L 7.171875 51.859375 
L 20.90625 51.859375 
L 20.90625 0 
z
" id="Arial-BoldMT-105"/>
     <path d="M 17.4375 36.03125 
L 4.984375 38.28125 
Q 7.078125 45.796875 12.203125 49.40625 
Q 17.328125 53.03125 27.4375 53.03125 
Q 36.625 53.03125 41.109375 50.859375 
Q 45.609375 48.6875 47.4375 45.34375 
Q 49.265625 42 49.265625 33.0625 
L 49.125 17.046875 
Q 49.125 10.203125 49.78125 6.953125 
Q 50.4375 3.71875 52.25 0 
L 38.671875 0 
Q 38.140625 1.375 37.359375 4.046875 
Q 37.015625 5.28125 36.859375 5.671875 
Q 33.34375 2.25 29.34375 0.53125 
Q 25.34375 -1.171875 20.796875 -1.171875 
Q 12.796875 -1.171875 8.171875 3.171875 
Q 3.5625 7.515625 3.5625 14.15625 
Q 3.5625 18.5625 5.65625 22 
Q 7.765625 25.4375 11.546875 27.265625 
Q 15.328125 29.109375 22.46875 30.46875 
Q 32.078125 32.28125 35.796875 33.84375 
L 35.796875 35.203125 
Q 35.796875 39.15625 33.84375 40.84375 
Q 31.890625 42.53125 26.46875 42.53125 
Q 22.796875 42.53125 20.75 41.09375 
Q 18.703125 39.65625 17.4375 36.03125 
z
M 35.796875 24.90625 
Q 33.15625 24.03125 27.4375 22.796875 
Q 21.734375 21.578125 19.96875 20.40625 
Q 17.28125 18.5 17.28125 15.578125 
Q 17.28125 12.703125 19.421875 10.59375 
Q 21.578125 8.5 24.90625 8.5 
Q 28.609375 8.5 31.984375 10.9375 
Q 34.46875 12.796875 35.25 15.484375 
Q 35.796875 17.234375 35.796875 22.171875 
z
" id="Arial-BoldMT-97"/>
     <path d="M 7.171875 0 
L 7.171875 71.578125 
L 20.90625 71.578125 
L 20.90625 0 
z
" id="Arial-BoldMT-108"/>
     <path d="M 1.171875 51.859375 
L 8.796875 51.859375 
L 8.796875 55.765625 
Q 8.796875 62.3125 10.1875 65.53125 
Q 11.578125 68.75 15.3125 70.765625 
Q 19.046875 72.796875 24.75 72.796875 
Q 30.609375 72.796875 36.234375 71.046875 
L 34.375 61.46875 
Q 31.109375 62.25 28.078125 62.25 
Q 25.09375 62.25 23.796875 60.859375 
Q 22.515625 59.46875 22.515625 55.515625 
L 22.515625 51.859375 
L 32.765625 51.859375 
L 32.765625 41.0625 
L 22.515625 41.0625 
L 22.515625 0 
L 8.796875 0 
L 8.796875 41.0625 
L 1.171875 41.0625 
z
" id="Arial-BoldMT-102"/>
     <path d="M 4 26.65625 
Q 4 33.5 7.375 39.890625 
Q 10.75 46.296875 16.921875 49.65625 
Q 23.09375 53.03125 30.71875 53.03125 
Q 42.484375 53.03125 50 45.390625 
Q 57.515625 37.75 57.515625 26.078125 
Q 57.515625 14.3125 49.921875 6.5625 
Q 42.328125 -1.171875 30.8125 -1.171875 
Q 23.6875 -1.171875 17.21875 2.046875 
Q 10.75 5.28125 7.375 11.5 
Q 4 17.71875 4 26.65625 
z
M 18.0625 25.921875 
Q 18.0625 18.21875 21.71875 14.109375 
Q 25.390625 10.015625 30.765625 10.015625 
Q 36.140625 10.015625 39.765625 14.109375 
Q 43.40625 18.21875 43.40625 26.03125 
Q 43.40625 33.640625 39.765625 37.734375 
Q 36.140625 41.84375 30.765625 41.84375 
Q 25.390625 41.84375 21.71875 37.734375 
Q 18.0625 33.640625 18.0625 25.921875 
z
" id="Arial-BoldMT-111"/>
     <path d="M 16.84375 0 
L 0.4375 51.859375 
L 13.765625 51.859375 
L 23.484375 17.875 
L 32.421875 51.859375 
L 45.65625 51.859375 
L 54.296875 17.875 
L 64.203125 51.859375 
L 77.734375 51.859375 
L 61.078125 0 
L 47.90625 0 
L 38.96875 33.34375 
L 30.171875 0 
z
" id="Arial-BoldMT-119"/>
     <path d="M 6.84375 13.71875 
L 20.5625 13.71875 
L 20.5625 3.90625 
Q 20.5625 -2.046875 19.53125 -5.484375 
Q 18.5 -8.9375 15.640625 -11.671875 
Q 12.796875 -14.40625 8.40625 -15.96875 
L 5.71875 -10.296875 
Q 9.859375 -8.9375 11.609375 -6.546875 
Q 13.375 -4.15625 13.484375 0 
L 6.84375 0 
z
" id="Arial-BoldMT-44"/>
    </defs>
    <use xlink:href="#Arial-BoldMT-69"/>
    <use x="66.699219" xlink:href="#Arial-BoldMT-120"/>
    <use x="122.314453" xlink:href="#Arial-BoldMT-112"/>
    <use x="183.398438" xlink:href="#Arial-BoldMT-101"/>
    <use x="239.013672" xlink:href="#Arial-BoldMT-99"/>
    <use x="294.628906" xlink:href="#Arial-BoldMT-116"/>
    <use x="327.929688" xlink:href="#Arial-BoldMT-101"/>
    <use x="383.544922" xlink:href="#Arial-BoldMT-100"/>
    <use x="444.628906" xlink:href="#Arial-BoldMT-32"/>
    <use x="472.412109" xlink:href="#Arial-BoldMT-118"/>
    <use x="528.027344" xlink:href="#Arial-BoldMT-115"/>
    <use x="583.642578" xlink:href="#Arial-BoldMT-32"/>
    <use x="611.425781" xlink:href="#Arial-BoldMT-117"/>
    <use x="672.509766" xlink:href="#Arial-BoldMT-110"/>
    <use x="733.59375" xlink:href="#Arial-BoldMT-101"/>
    <use x="789.208984" xlink:href="#Arial-BoldMT-120"/>
    <use x="844.824219" xlink:href="#Arial-BoldMT-112"/>
    <use x="905.908203" xlink:href="#Arial-BoldMT-101"/>
    <use x="961.523438" xlink:href="#Arial-BoldMT-99"/>
    <use x="1017.138672" xlink:href="#Arial-BoldMT-116"/>
    <use x="1050.439453" xlink:href="#Arial-BoldMT-101"/>
    <use x="1106.054688" xlink:href="#Arial-BoldMT-100"/>
    <use x="1167.138672" xlink:href="#Arial-BoldMT-32"/>
    <use x="1194.921875" xlink:href="#Arial-BoldMT-118"/>
    <use x="1250.537109" xlink:href="#Arial-BoldMT-105"/>
    <use x="1278.320312" xlink:href="#Arial-BoldMT-115"/>
    <use x="1333.935547" xlink:href="#Arial-BoldMT-117"/>
    <use x="1395.019531" xlink:href="#Arial-BoldMT-97"/>
    <use x="1450.634766" xlink:href="#Arial-BoldMT-108"/>
    <use x="1478.417969" xlink:href="#Arial-BoldMT-32"/>
    <use x="1506.201172" xlink:href="#Arial-BoldMT-102"/>
    <use x="1539.501953" xlink:href="#Arial-BoldMT-108"/>
    <use x="1567.285156" xlink:href="#Arial-BoldMT-111"/>
    <use x="1628.369141" xlink:href="#Arial-BoldMT-119"/>
    <use x="1702.402344" xlink:href="#Arial-BoldMT-44"/>
    <use x="1730.185547" xlink:href="#Arial-BoldMT-32"/>
    <use x="1757.96875" xlink:href="#Arial-BoldMT-114"/>
    <use x="1796.884766" xlink:href="#Arial-BoldMT-101"/>
    <use x="1852.5" xlink:href="#Arial-BoldMT-108"/>
    <use x="1880.283203" xlink:href="#Arial-BoldMT-97"/>
    <use x="1935.898438" xlink:href="#Arial-BoldMT-116"/>
    <use x="1969.199219" xlink:href="#Arial-BoldMT-105"/>
    <use x="1996.982422" xlink:href="#Arial-BoldMT-118"/>
    <use x="2052.597656" xlink:href="#Arial-BoldMT-101"/>
    <use x="2108.212891" xlink:href="#Arial-BoldMT-32"/>
    <use x="2135.996094" xlink:href="#Arial-BoldMT-116"/>
    <use x="2169.296875" xlink:href="#Arial-BoldMT-111"/>
    <use x="2230.380859" xlink:href="#Arial-BoldMT-32"/>
    <use x="2258.164062" xlink:href="#Arial-BoldMT-115"/>
    <use x="2313.779297" xlink:href="#Arial-BoldMT-101"/>
    <use x="2369.394531" xlink:href="#Arial-BoldMT-115"/>
    <use x="2425.009766" xlink:href="#Arial-BoldMT-115"/>
    <use x="2480.625" xlink:href="#Arial-BoldMT-105"/>
    <use x="2508.408203" xlink:href="#Arial-BoldMT-111"/>
    <use x="2569.492188" xlink:href="#Arial-BoldMT-110"/>
    <use x="2630.576172" xlink:href="#Arial-BoldMT-32"/>
    <use x="2658.359375" xlink:href="#Arial-BoldMT-49"/>
   </g>
  </g>
  <g id="text_22">
   <!-- dendrites -->
   <g transform="translate(415.02735 208.4454)rotate(-90)scale(0.1728 -0.1728)">
    <use xlink:href="#Arial-BoldMT-100"/>
    <use x="61.083984" xlink:href="#Arial-BoldMT-101"/>
    <use x="116.699219" xlink:href="#Arial-BoldMT-110"/>
    <use x="177.783203" xlink:href="#Arial-BoldMT-100"/>
    <use x="238.867188" xlink:href="#Arial-BoldMT-114"/>
    <use x="277.783203" xlink:href="#Arial-BoldMT-105"/>
    <use x="305.566406" xlink:href="#Arial-BoldMT-116"/>
    <use x="338.867188" xlink:href="#Arial-BoldMT-101"/>
    <use x="394.482422" xlink:href="#Arial-BoldMT-115"/>
   </g>
  </g>
  <g id="text_23">
   <!-- somata -->
   <g transform="translate(415.02735 447.7788)rotate(-90)scale(0.1728 -0.1728)">
    <defs>
     <path d="M 6.15625 51.859375 
L 18.796875 51.859375 
L 18.796875 44.78125 
Q 25.59375 53.03125 34.96875 53.03125 
Q 39.9375 53.03125 43.59375 50.96875 
Q 47.265625 48.921875 49.609375 44.78125 
Q 53.03125 48.921875 56.984375 50.96875 
Q 60.9375 53.03125 65.4375 53.03125 
Q 71.140625 53.03125 75.09375 50.703125 
Q 79.046875 48.390625 81 43.890625 
Q 82.421875 40.578125 82.421875 33.15625 
L 82.421875 0 
L 68.703125 0 
L 68.703125 29.640625 
Q 68.703125 37.359375 67.28125 39.59375 
Q 65.375 42.53125 61.421875 42.53125 
Q 58.546875 42.53125 56 40.765625 
Q 53.46875 39.015625 52.34375 35.625 
Q 51.21875 32.234375 51.21875 24.90625 
L 51.21875 0 
L 37.5 0 
L 37.5 28.421875 
Q 37.5 35.984375 36.765625 38.171875 
Q 36.03125 40.375 34.484375 41.453125 
Q 32.953125 42.53125 30.328125 42.53125 
Q 27.15625 42.53125 24.609375 40.8125 
Q 22.078125 39.109375 20.96875 35.890625 
Q 19.875 32.671875 19.875 25.203125 
L 19.875 0 
L 6.15625 0 
z
" id="Arial-BoldMT-109"/>
    </defs>
    <use xlink:href="#Arial-BoldMT-115"/>
    <use x="55.615234" xlink:href="#Arial-BoldMT-111"/>
    <use x="116.699219" xlink:href="#Arial-BoldMT-109"/>
    <use x="205.615234" xlink:href="#Arial-BoldMT-97"/>
    <use x="261.230469" xlink:href="#Arial-BoldMT-116"/>
    <use x="294.53125" xlink:href="#Arial-BoldMT-97"/>
   </g>
  </g>
  <g id="text_24">
   <!-- Session -->
   <g transform="translate(208.53495 568.08)scale(0.1728 -0.1728)">
    <defs>
     <path d="M 3.609375 23.296875 
L 17.671875 24.65625 
Q 18.953125 17.578125 22.828125 14.25 
Q 26.703125 10.9375 33.296875 10.9375 
Q 40.28125 10.9375 43.8125 13.890625 
Q 47.359375 16.84375 47.359375 20.796875 
Q 47.359375 23.34375 45.875 25.125 
Q 44.390625 26.90625 40.671875 28.21875 
Q 38.140625 29.109375 29.109375 31.34375 
Q 17.484375 34.234375 12.796875 38.421875 
Q 6.203125 44.34375 6.203125 52.828125 
Q 6.203125 58.296875 9.296875 63.0625 
Q 12.40625 67.828125 18.234375 70.3125 
Q 24.078125 72.796875 32.328125 72.796875 
Q 45.796875 72.796875 52.609375 66.890625 
Q 59.421875 60.984375 59.765625 51.125 
L 45.3125 50.484375 
Q 44.390625 56 41.328125 58.421875 
Q 38.28125 60.84375 32.171875 60.84375 
Q 25.875 60.84375 22.3125 58.25 
Q 20.015625 56.59375 20.015625 53.8125 
Q 20.015625 51.265625 22.171875 49.46875 
Q 24.90625 47.171875 35.453125 44.671875 
Q 46 42.1875 51.046875 39.515625 
Q 56.109375 36.859375 58.953125 32.25 
Q 61.8125 27.640625 61.8125 20.84375 
Q 61.8125 14.703125 58.390625 9.328125 
Q 54.984375 3.953125 48.734375 1.34375 
Q 42.484375 -1.265625 33.15625 -1.265625 
Q 19.578125 -1.265625 12.296875 5 
Q 5.03125 11.28125 3.609375 23.296875 
z
" id="Arial-BoldMT-83"/>
    </defs>
    <use xlink:href="#Arial-BoldMT-83"/>
    <use x="66.699219" xlink:href="#Arial-BoldMT-101"/>
    <use x="122.314453" xlink:href="#Arial-BoldMT-115"/>
    <use x="177.929688" xlink:href="#Arial-BoldMT-115"/>
    <use x="233.544922" xlink:href="#Arial-BoldMT-105"/>
    <use x="261.328125" xlink:href="#Arial-BoldMT-111"/>
    <use x="322.412109" xlink:href="#Arial-BoldMT-110"/>
   </g>
  </g>
  <g id="text_25">
   <!-- F/F -->
   <g transform="translate(56.63535 188.7246)rotate(-90)scale(0.1728 -0.1728)">
    <defs>
     <path d="M 71.828125 0 
L 0 0 
L 27.875 71.578125 
L 43.171875 71.578125 
z
M 51.46875 12.0625 
L 35.359375 54.890625 
L 19.734375 12.0625 
z
" id="Arial-BoldMT-916"/>
     <path d="M 7.375 0 
L 7.375 71.578125 
L 56.453125 71.578125 
L 56.453125 59.46875 
L 21.828125 59.46875 
L 21.828125 42.53125 
L 51.703125 42.53125 
L 51.703125 30.421875 
L 21.828125 30.421875 
L 21.828125 0 
z
" id="Arial-BoldMT-70"/>
    </defs>
    <use xlink:href="#Arial-BoldMT-916"/>
    <use x="71.875" xlink:href="#Arial-BoldMT-70"/>
    <use x="132.958984" xlink:href="#Arial-BoldMT-47"/>
    <use x="160.742188" xlink:href="#Arial-BoldMT-70"/>
   </g>
  </g>
 </g>
 <defs>
  <clipPath id="pa638e7d64e">
   <rect height="206.64" width="128.96" x="101.26665" y="66.24"/>
  </clipPath>
  <clipPath id="p2fe668df6c">
   <rect height="206.64" width="128.96" x="262.46665" y="66.24"/>
  </clipPath>
  <clipPath id="p4ea5d34828">
   <rect height="206.64" width="128.96" x="101.26665" y="314.208"/>
  </clipPath>
  <clipPath id="p89fe17239b">
   <rect height="206.64" width="128.96" x="262.46665" y="314.208"/>
  </clipPath>
 </defs>
</svg>
