<?xml version="1.0" encoding="utf-8" standalone="no"?>
<!DOCTYPE svg PUBLIC "-//W3C//DTD SVG 1.1//EN"
  "http://www.w3.org/Graphics/SVG/1.1/DTD/svg11.dtd">
<!-- Created with matplotlib (https://matplotlib.org/) -->
<svg height="569.1076pt" version="1.1" viewBox="0 0 426.7011 569.1076" width="426.7011pt" xmlns="http://www.w3.org/2000/svg" xmlns:xlink="http://www.w3.org/1999/xlink">
 <metadata>
  <rdf:RDF xmlns:cc="http://creativecommons.org/ns#" xmlns:dc="http://purl.org/dc/elements/1.1/" xmlns:rdf="http://www.w3.org/1999/02/22-rdf-syntax-ns#">
   <cc:Work>
    <dc:type rdf:resource="http://purl.org/dc/dcmitype/StillImage"/>
    <dc:date>2022-01-26T19:00:25.942177</dc:date>
    <dc:format>image/svg+xml</dc:format>
    <dc:creator>
     <cc:Agent>
      <dc:title>Matplotlib v3.3.4, https://matplotlib.org/</dc:title>
     </cc:Agent>
    </dc:creator>
   </cc:Work>
  </rdf:RDF>
 </metadata>
 <defs>
  <style type="text/css">*{stroke-linecap:butt;stroke-linejoin:round;}</style>
 </defs>
 <g id="figure_1">
  <g id="patch_1">
   <path d="M 0 569.1076 
L 426.7011 569.1076 
L 426.7011 0 
L 0 0 
z
" style="fill:#ffffff;"/>
  </g>
  <g id="axes_1">
   <g id="patch_2">
    <path d="M 63.5223 275.2928 
L 200.485936 275.2928 
L 200.485936 67.824 
L 63.5223 67.824 
z
" style="fill:#ffffff;"/>
   </g>
   <g id="patch_3">
    <path clip-path="url(#pe66886d341)" d="M 86.868374 257.829501 
L 114.883664 257.829501 
L 114.883664 85.113067 
L 86.868374 85.113067 
z
" style="fill:#d3d3d3;"/>
   </g>
   <g id="patch_4">
    <path clip-path="url(#pe66886d341)" d="M 86.868374 197.094179 
L 114.883664 197.094179 
L 114.883664 191.907459 
L 86.868374 191.907459 
z
" style="fill:#808080;"/>
   </g>
   <g id="patch_5">
    <path clip-path="url(#pe66886d341)" d="M 149.124573 238.760727 
L 177.139862 238.760727 
L 177.139862 119.911388 
L 149.124573 119.911388 
z
" style="fill:#d3d3d3;"/>
   </g>
   <g id="patch_6">
    <path clip-path="url(#pe66886d341)" d="M 149.124573 197.047643 
L 177.139862 197.047643 
L 177.139862 191.860923 
L 149.124573 191.860923 
z
" style="fill:#808080;"/>
   </g>
   <g id="matplotlib.axis_1">
    <g id="xtick_1"/>
    <g id="xtick_2"/>
   </g>
   <g id="matplotlib.axis_2">
    <g id="ytick_1">
     <g id="line2d_1">
      <defs>
       <path d="M 0 0 
L -8 0 
" id="mff57de59c4" style="stroke:#000000;stroke-width:4;"/>
      </defs>
      <g>
       <use style="stroke:#000000;stroke-width:4;" x="63.5223" xlink:href="#mff57de59c4" y="255.04768"/>
      </g>
     </g>
    </g>
    <g id="ytick_2">
     <g id="line2d_2">
      <g>
       <use style="stroke:#000000;stroke-width:4;" x="63.5223" xlink:href="#mff57de59c4" y="194.466444"/>
      </g>
     </g>
     <g id="text_1">
      <!-- 0 -->
      <g transform="translate(42.413 200.650794)scale(0.1728 -0.1728)">
       <defs>
        <path d="M 27.4375 71.875 
Q 37.84375 71.875 43.703125 64.453125 
Q 50.6875 55.671875 50.6875 35.296875 
Q 50.6875 14.984375 43.65625 6.109375 
Q 37.84375 -1.21875 27.4375 -1.21875 
Q 17 -1.21875 10.59375 6.8125 
Q 4.203125 14.84375 4.203125 35.453125 
Q 4.203125 55.671875 11.234375 64.546875 
Q 17.046875 71.875 27.4375 71.875 
z
M 27.4375 60.5 
Q 24.953125 60.5 23 58.90625 
Q 21.046875 57.328125 19.96875 53.21875 
Q 18.5625 47.90625 18.5625 35.296875 
Q 18.5625 22.703125 19.828125 17.984375 
Q 21.09375 13.28125 23.015625 11.71875 
Q 24.953125 10.15625 27.4375 10.15625 
Q 29.9375 10.15625 31.890625 11.734375 
Q 33.84375 13.328125 34.90625 17.4375 
Q 36.328125 22.703125 36.328125 35.296875 
Q 36.328125 47.90625 35.0625 52.609375 
Q 33.796875 57.328125 31.859375 58.90625 
Q 29.9375 60.5 27.4375 60.5 
z
" id="Arial-BoldMT-48"/>
       </defs>
       <use xlink:href="#Arial-BoldMT-48"/>
      </g>
     </g>
    </g>
    <g id="ytick_3">
     <g id="line2d_3">
      <g>
       <use style="stroke:#000000;stroke-width:4;" x="63.5223" xlink:href="#mff57de59c4" y="133.885209"/>
      </g>
     </g>
    </g>
    <g id="ytick_4">
     <g id="line2d_4">
      <g>
       <use style="stroke:#000000;stroke-width:4;" x="63.5223" xlink:href="#mff57de59c4" y="73.303973"/>
      </g>
     </g>
     <g id="text_2">
      <!-- 0.3 -->
      <g transform="translate(28.0031 79.488323)scale(0.1728 -0.1728)">
       <defs>
        <path d="M 7.171875 0 
L 7.171875 13.71875 
L 20.90625 13.71875 
L 20.90625 0 
z
" id="Arial-BoldMT-46"/>
        <path d="M 3.765625 19 
L 17.046875 20.609375 
Q 17.671875 15.53125 20.453125 12.84375 
Q 23.25 10.15625 27.203125 10.15625 
Q 31.453125 10.15625 34.34375 13.375 
Q 37.25 16.609375 37.25 22.078125 
Q 37.25 27.25 34.46875 30.265625 
Q 31.6875 33.296875 27.6875 33.296875 
Q 25.046875 33.296875 21.390625 32.28125 
L 22.90625 43.453125 
Q 28.46875 43.3125 31.390625 45.875 
Q 34.328125 48.4375 34.328125 52.6875 
Q 34.328125 56.296875 32.171875 58.4375 
Q 30.03125 60.59375 26.46875 60.59375 
Q 22.953125 60.59375 20.453125 58.15625 
Q 17.96875 55.71875 17.4375 51.03125 
L 4.78125 53.171875 
Q 6.109375 59.671875 8.765625 63.546875 
Q 11.421875 67.4375 16.1875 69.65625 
Q 20.953125 71.875 26.859375 71.875 
Q 36.96875 71.875 43.0625 65.4375 
Q 48.09375 60.15625 48.09375 53.515625 
Q 48.09375 44.09375 37.796875 38.484375 
Q 43.953125 37.15625 47.625 32.5625 
Q 51.3125 27.984375 51.3125 21.484375 
Q 51.3125 12.0625 44.421875 5.421875 
Q 37.546875 -1.21875 27.296875 -1.21875 
Q 17.578125 -1.21875 11.171875 4.375 
Q 4.78125 9.96875 3.765625 19 
z
" id="Arial-BoldMT-51"/>
       </defs>
       <use xlink:href="#Arial-BoldMT-48"/>
       <use x="55.615234" xlink:href="#Arial-BoldMT-46"/>
       <use x="83.398438" xlink:href="#Arial-BoldMT-51"/>
      </g>
     </g>
    </g>
    <g id="text_3">
     <!-- . -->
     <g style="fill:#ffffff;" transform="translate(19.5687 173.9587)rotate(-90)scale(0.1728 -0.1728)">
      <defs>
       <path d="M 9.078125 0 
L 9.078125 10.015625 
L 19.09375 10.015625 
L 19.09375 0 
z
" id="ArialMT-46"/>
      </defs>
      <use xlink:href="#ArialMT-46"/>
     </g>
    </g>
   </g>
   <g id="LineCollection_1">
    <path clip-path="url(#pe66886d341)" d="M 100.876019 198.84949 
L 100.876019 148.630698 
" style="fill:none;stroke:#76bb4b;stroke-opacity:0.8;stroke-width:5;"/>
   </g>
   <g id="LineCollection_2">
    <path clip-path="url(#pe66886d341)" d="M 163.132217 186.613509 
L 163.132217 151.470526 
" style="fill:none;stroke:#488a21;stroke-opacity:0.8;stroke-width:5;"/>
   </g>
   <g id="line2d_5">
    <path clip-path="url(#pe66886d341)" d="M 85.311969 173.740094 
L 116.440069 173.740094 
" style="fill:none;stroke:#76bb4b;stroke-linecap:square;stroke-width:4.5;"/>
   </g>
   <g id="line2d_6">
    <defs>
     <path d="M 8 0 
L -8 -0 
" id="m2e3204fc69" style="stroke:#76bb4b;stroke-opacity:0.8;stroke-width:4;"/>
    </defs>
    <g clip-path="url(#pe66886d341)">
     <use style="fill:#76bb4b;fill-opacity:0.8;stroke:#76bb4b;stroke-opacity:0.8;stroke-width:4;" x="100.876019" xlink:href="#m2e3204fc69" y="198.84949"/>
    </g>
   </g>
   <g id="line2d_7">
    <g clip-path="url(#pe66886d341)">
     <use style="fill:#76bb4b;fill-opacity:0.8;stroke:#76bb4b;stroke-opacity:0.8;stroke-width:4;" x="100.876019" xlink:href="#m2e3204fc69" y="148.630698"/>
    </g>
   </g>
   <g id="line2d_8">
    <path clip-path="url(#pe66886d341)" d="M 100.876019 173.740094 
" style="fill:none;stroke:#ffffff;stroke-linecap:square;stroke-width:5;"/>
    <defs>
     <path d="M 0 6.5 
C 1.72382 6.5 3.377269 5.815119 4.596194 4.596194 
C 5.815119 3.377269 6.5 1.72382 6.5 0 
C 6.5 -1.72382 5.815119 -3.377269 4.596194 -4.596194 
C 3.377269 -5.815119 1.72382 -6.5 0 -6.5 
C -1.72382 -6.5 -3.377269 -5.815119 -4.596194 -4.596194 
C -5.815119 -3.377269 -6.5 -1.72382 -6.5 0 
C -6.5 1.72382 -5.815119 3.377269 -4.596194 4.596194 
C -3.377269 5.815119 -1.72382 6.5 0 6.5 
z
" id="m024a9712af" style="stroke:#ffffff;stroke-width:2.5;"/>
    </defs>
    <g clip-path="url(#pe66886d341)">
     <use style="fill:#ffffff;stroke:#ffffff;stroke-width:2.5;" x="100.876019" xlink:href="#m024a9712af" y="173.740094"/>
    </g>
   </g>
   <g id="line2d_9">
    <path clip-path="url(#pe66886d341)" d="M 100.876019 173.740094 
" style="fill:none;stroke:#76bb4b;stroke-linecap:square;stroke-width:5;"/>
    <defs>
     <path d="M 0 6.5 
C 1.72382 6.5 3.377269 5.815119 4.596194 4.596194 
C 5.815119 3.377269 6.5 1.72382 6.5 0 
C 6.5 -1.72382 5.815119 -3.377269 4.596194 -4.596194 
C 3.377269 -5.815119 1.72382 -6.5 0 -6.5 
C -1.72382 -6.5 -3.377269 -5.815119 -4.596194 -4.596194 
C -5.815119 -3.377269 -6.5 -1.72382 -6.5 0 
C -6.5 1.72382 -5.815119 3.377269 -4.596194 4.596194 
C -3.377269 5.815119 -1.72382 6.5 0 6.5 
z
" id="ma19d90ebb0" style="stroke:#76bb4b;stroke-width:2.5;"/>
    </defs>
    <g clip-path="url(#pe66886d341)">
     <use style="fill-opacity:0;stroke:#76bb4b;stroke-width:2.5;" x="100.876019" xlink:href="#ma19d90ebb0" y="173.740094"/>
    </g>
   </g>
   <g id="line2d_10">
    <path clip-path="url(#pe66886d341)" d="M 100.876019 173.740094 
" style="fill:none;stroke:#76bb4b;stroke-linecap:square;stroke-opacity:0.5;stroke-width:5;"/>
    <defs>
     <path d="M 0 6.5 
C 1.72382 6.5 3.377269 5.815119 4.596194 4.596194 
C 5.815119 3.377269 6.5 1.72382 6.5 0 
C 6.5 -1.72382 5.815119 -3.377269 4.596194 -4.596194 
C 3.377269 -5.815119 1.72382 -6.5 0 -6.5 
C -1.72382 -6.5 -3.377269 -5.815119 -4.596194 -4.596194 
C -5.815119 -3.377269 -6.5 -1.72382 -6.5 0 
C -6.5 1.72382 -5.815119 3.377269 -4.596194 4.596194 
C -3.377269 5.815119 -1.72382 6.5 0 6.5 
z
" id="m223d6fd2d4" style="stroke:#76bb4b;stroke-opacity:0.5;stroke-width:4;"/>
    </defs>
    <g clip-path="url(#pe66886d341)">
     <use style="fill:#76bb4b;fill-opacity:0.5;stroke:#76bb4b;stroke-opacity:0.5;stroke-width:4;" x="100.876019" xlink:href="#m223d6fd2d4" y="173.740094"/>
    </g>
   </g>
   <g id="line2d_11">
    <path clip-path="url(#pe66886d341)" d="M 147.568168 169.042017 
L 178.696267 169.042017 
" style="fill:none;stroke:#488a21;stroke-linecap:square;stroke-width:4.5;"/>
   </g>
   <g id="line2d_12">
    <defs>
     <path d="M 8 0 
L -8 -0 
" id="ma4fc3472e9" style="stroke:#488a21;stroke-opacity:0.8;stroke-width:4;"/>
    </defs>
    <g clip-path="url(#pe66886d341)">
     <use style="fill:#488a21;fill-opacity:0.8;stroke:#488a21;stroke-opacity:0.8;stroke-width:4;" x="163.132217" xlink:href="#ma4fc3472e9" y="186.613509"/>
    </g>
   </g>
   <g id="line2d_13">
    <g clip-path="url(#pe66886d341)">
     <use style="fill:#488a21;fill-opacity:0.8;stroke:#488a21;stroke-opacity:0.8;stroke-width:4;" x="163.132217" xlink:href="#ma4fc3472e9" y="151.470526"/>
    </g>
   </g>
   <g id="line2d_14">
    <path clip-path="url(#pe66886d341)" d="M 163.132217 169.042017 
" style="fill:none;stroke:#ffffff;stroke-linecap:square;stroke-width:5;"/>
    <g clip-path="url(#pe66886d341)">
     <use style="fill:#ffffff;stroke:#ffffff;stroke-width:2.5;" x="163.132217" xlink:href="#m024a9712af" y="169.042017"/>
    </g>
   </g>
   <g id="line2d_15">
    <path clip-path="url(#pe66886d341)" d="M 163.132217 169.042017 
" style="fill:none;stroke:#488a21;stroke-linecap:square;stroke-width:5;"/>
    <defs>
     <path d="M 0 6.5 
C 1.72382 6.5 3.377269 5.815119 4.596194 4.596194 
C 5.815119 3.377269 6.5 1.72382 6.5 0 
C 6.5 -1.72382 5.815119 -3.377269 4.596194 -4.596194 
C 3.377269 -5.815119 1.72382 -6.5 0 -6.5 
C -1.72382 -6.5 -3.377269 -5.815119 -4.596194 -4.596194 
C -5.815119 -3.377269 -6.5 -1.72382 -6.5 0 
C -6.5 1.72382 -5.815119 3.377269 -4.596194 4.596194 
C -3.377269 5.815119 -1.72382 6.5 0 6.5 
z
" id="mc2ab91899a" style="stroke:#488a21;stroke-width:2.5;"/>
    </defs>
    <g clip-path="url(#pe66886d341)">
     <use style="fill-opacity:0;stroke:#488a21;stroke-width:2.5;" x="163.132217" xlink:href="#mc2ab91899a" y="169.042017"/>
    </g>
   </g>
   <g id="line2d_16">
    <path clip-path="url(#pe66886d341)" d="M 163.132217 169.042017 
" style="fill:none;stroke:#488a21;stroke-linecap:square;stroke-opacity:0.5;stroke-width:5;"/>
    <defs>
     <path d="M 0 6.5 
C 1.72382 6.5 3.377269 5.815119 4.596194 4.596194 
C 5.815119 3.377269 6.5 1.72382 6.5 0 
C 6.5 -1.72382 5.815119 -3.377269 4.596194 -4.596194 
C 3.377269 -5.815119 1.72382 -6.5 0 -6.5 
C -1.72382 -6.5 -3.377269 -5.815119 -4.596194 -4.596194 
C -5.815119 -3.377269 -6.5 -1.72382 -6.5 0 
C -6.5 1.72382 -5.815119 3.377269 -4.596194 4.596194 
C -3.377269 5.815119 -1.72382 6.5 0 6.5 
z
" id="ma8f74bf2ab" style="stroke:#488a21;stroke-opacity:0.5;stroke-width:4;"/>
    </defs>
    <g clip-path="url(#pe66886d341)">
     <use style="fill:#488a21;fill-opacity:0.5;stroke:#488a21;stroke-opacity:0.5;stroke-width:4;" x="163.132217" xlink:href="#ma8f74bf2ab" y="169.042017"/>
    </g>
   </g>
   <g id="line2d_17">
    <path clip-path="url(#pe66886d341)" d="M 100.876019 173.740094 
" style="fill:none;stroke:#76bb4b;stroke-linecap:square;stroke-opacity:0.8;stroke-width:5;"/>
    <defs>
     <path d="M 0 5 
C 1.326016 5 2.597899 4.473168 3.535534 3.535534 
C 4.473168 2.597899 5 1.326016 5 0 
C 5 -1.326016 4.473168 -2.597899 3.535534 -3.535534 
C 2.597899 -4.473168 1.326016 -5 0 -5 
C -1.326016 -5 -2.597899 -4.473168 -3.535534 -3.535534 
C -4.473168 -2.597899 -5 -1.326016 -5 0 
C -5 1.326016 -4.473168 2.597899 -3.535534 3.535534 
C -2.597899 4.473168 -1.326016 5 0 5 
z
" id="me2369a58da" style="stroke:#76bb4b;stroke-opacity:0.8;stroke-width:4;"/>
    </defs>
    <g clip-path="url(#pe66886d341)">
     <use style="fill:#76bb4b;fill-opacity:0.8;stroke:#76bb4b;stroke-opacity:0.8;stroke-width:4;" x="100.876019" xlink:href="#me2369a58da" y="173.740094"/>
    </g>
   </g>
   <g id="line2d_18">
    <path clip-path="url(#pe66886d341)" d="M 163.132217 169.042017 
" style="fill:none;stroke:#488a21;stroke-linecap:square;stroke-opacity:0.8;stroke-width:5;"/>
    <defs>
     <path d="M 0 5 
C 1.326016 5 2.597899 4.473168 3.535534 3.535534 
C 4.473168 2.597899 5 1.326016 5 0 
C 5 -1.326016 4.473168 -2.597899 3.535534 -3.535534 
C 2.597899 -4.473168 1.326016 -5 0 -5 
C -1.326016 -5 -2.597899 -4.473168 -3.535534 -3.535534 
C -4.473168 -2.597899 -5 -1.326016 -5 0 
C -5 1.326016 -4.473168 2.597899 -3.535534 3.535534 
C -2.597899 4.473168 -1.326016 5 0 5 
z
" id="m38bfbb0d43" style="stroke:#488a21;stroke-opacity:0.8;stroke-width:4;"/>
    </defs>
    <g clip-path="url(#pe66886d341)">
     <use style="fill:#488a21;fill-opacity:0.8;stroke:#488a21;stroke-opacity:0.8;stroke-width:4;" x="163.132217" xlink:href="#m38bfbb0d43" y="169.042017"/>
    </g>
   </g>
   <g id="patch_7">
    <path d="M 63.5223 275.2928 
L 63.5223 67.824 
" style="fill:none;stroke:#000000;stroke-linecap:square;stroke-linejoin:miter;stroke-width:4;"/>
   </g>
   <g id="patch_8">
    <path d="M 63.5223 275.2928 
L 200.485936 275.2928 
" style="fill:none;stroke:#000000;stroke-linecap:square;stroke-linejoin:miter;stroke-width:4;"/>
   </g>
   <g id="text_4">
    <!-- Session 1 v 2 -->
    <g transform="translate(77.257568 47.301184)scale(0.1728 -0.1728)">
     <defs>
      <path d="M 3.609375 23.296875 
L 17.671875 24.65625 
Q 18.953125 17.578125 22.828125 14.25 
Q 26.703125 10.9375 33.296875 10.9375 
Q 40.28125 10.9375 43.8125 13.890625 
Q 47.359375 16.84375 47.359375 20.796875 
Q 47.359375 23.34375 45.875 25.125 
Q 44.390625 26.90625 40.671875 28.21875 
Q 38.140625 29.109375 29.109375 31.34375 
Q 17.484375 34.234375 12.796875 38.421875 
Q 6.203125 44.34375 6.203125 52.828125 
Q 6.203125 58.296875 9.296875 63.0625 
Q 12.40625 67.828125 18.234375 70.3125 
Q 24.078125 72.796875 32.328125 72.796875 
Q 45.796875 72.796875 52.609375 66.890625 
Q 59.421875 60.984375 59.765625 51.125 
L 45.3125 50.484375 
Q 44.390625 56 41.328125 58.421875 
Q 38.28125 60.84375 32.171875 60.84375 
Q 25.875 60.84375 22.3125 58.25 
Q 20.015625 56.59375 20.015625 53.8125 
Q 20.015625 51.265625 22.171875 49.46875 
Q 24.90625 47.171875 35.453125 44.671875 
Q 46 42.1875 51.046875 39.515625 
Q 56.109375 36.859375 58.953125 32.25 
Q 61.8125 27.640625 61.8125 20.84375 
Q 61.8125 14.703125 58.390625 9.328125 
Q 54.984375 3.953125 48.734375 1.34375 
Q 42.484375 -1.265625 33.15625 -1.265625 
Q 19.578125 -1.265625 12.296875 5 
Q 5.03125 11.28125 3.609375 23.296875 
z
" id="Arial-BoldMT-83"/>
      <path d="M 37.203125 16.5 
L 50.875 14.203125 
Q 48.25 6.6875 42.546875 2.75 
Q 36.859375 -1.171875 28.328125 -1.171875 
Q 14.796875 -1.171875 8.296875 7.671875 
Q 3.171875 14.75 3.171875 25.53125 
Q 3.171875 38.421875 9.90625 45.71875 
Q 16.65625 53.03125 26.953125 53.03125 
Q 38.53125 53.03125 45.21875 45.390625 
Q 51.90625 37.75 51.609375 21.96875 
L 17.234375 21.96875 
Q 17.390625 15.875 20.5625 12.46875 
Q 23.734375 9.078125 28.46875 9.078125 
Q 31.6875 9.078125 33.875 10.828125 
Q 36.078125 12.59375 37.203125 16.5 
z
M 37.984375 30.375 
Q 37.84375 36.328125 34.90625 39.421875 
Q 31.984375 42.53125 27.78125 42.53125 
Q 23.296875 42.53125 20.359375 39.265625 
Q 17.4375 35.984375 17.484375 30.375 
z
" id="Arial-BoldMT-101"/>
      <path d="M 2.34375 14.796875 
L 16.109375 16.890625 
Q 17 12.890625 19.671875 10.8125 
Q 22.359375 8.734375 27.203125 8.734375 
Q 32.515625 8.734375 35.203125 10.6875 
Q 37.015625 12.0625 37.015625 14.359375 
Q 37.015625 15.921875 36.03125 16.9375 
Q 35.015625 17.921875 31.453125 18.75 
Q 14.84375 22.40625 10.40625 25.4375 
Q 4.25 29.640625 4.25 37.109375 
Q 4.25 43.84375 9.5625 48.4375 
Q 14.890625 53.03125 26.078125 53.03125 
Q 36.71875 53.03125 41.890625 49.5625 
Q 47.078125 46.09375 49.03125 39.3125 
L 36.078125 36.921875 
Q 35.25 39.9375 32.921875 41.546875 
Q 30.609375 43.171875 26.3125 43.171875 
Q 20.90625 43.171875 18.5625 41.65625 
Q 17 40.578125 17 38.875 
Q 17 37.40625 18.359375 36.375 
Q 20.21875 35.015625 31.171875 32.515625 
Q 42.140625 30.03125 46.484375 26.421875 
Q 50.78125 22.75 50.78125 16.21875 
Q 50.78125 9.078125 44.828125 3.953125 
Q 38.875 -1.171875 27.203125 -1.171875 
Q 16.609375 -1.171875 10.421875 3.125 
Q 4.25 7.421875 2.34375 14.796875 
z
" id="Arial-BoldMT-115"/>
      <path d="M 7.171875 58.890625 
L 7.171875 71.578125 
L 20.90625 71.578125 
L 20.90625 58.890625 
z
M 7.171875 0 
L 7.171875 51.859375 
L 20.90625 51.859375 
L 20.90625 0 
z
" id="Arial-BoldMT-105"/>
      <path d="M 4 26.65625 
Q 4 33.5 7.375 39.890625 
Q 10.75 46.296875 16.921875 49.65625 
Q 23.09375 53.03125 30.71875 53.03125 
Q 42.484375 53.03125 50 45.390625 
Q 57.515625 37.75 57.515625 26.078125 
Q 57.515625 14.3125 49.921875 6.5625 
Q 42.328125 -1.171875 30.8125 -1.171875 
Q 23.6875 -1.171875 17.21875 2.046875 
Q 10.75 5.28125 7.375 11.5 
Q 4 17.71875 4 26.65625 
z
M 18.0625 25.921875 
Q 18.0625 18.21875 21.71875 14.109375 
Q 25.390625 10.015625 30.765625 10.015625 
Q 36.140625 10.015625 39.765625 14.109375 
Q 43.40625 18.21875 43.40625 26.03125 
Q 43.40625 33.640625 39.765625 37.734375 
Q 36.140625 41.84375 30.765625 41.84375 
Q 25.390625 41.84375 21.71875 37.734375 
Q 18.0625 33.640625 18.0625 25.921875 
z
" id="Arial-BoldMT-111"/>
      <path d="M 54.34375 0 
L 40.625 0 
L 40.625 26.46875 
Q 40.625 34.859375 39.75 37.328125 
Q 38.875 39.796875 36.890625 41.15625 
Q 34.90625 42.53125 32.125 42.53125 
Q 28.5625 42.53125 25.734375 40.578125 
Q 22.90625 38.625 21.84375 35.390625 
Q 20.796875 32.171875 20.796875 23.484375 
L 20.796875 0 
L 7.078125 0 
L 7.078125 51.859375 
L 19.828125 51.859375 
L 19.828125 44.234375 
Q 26.609375 53.03125 36.921875 53.03125 
Q 41.453125 53.03125 45.203125 51.390625 
Q 48.96875 49.75 50.890625 47.203125 
Q 52.828125 44.671875 53.578125 41.453125 
Q 54.34375 38.234375 54.34375 32.234375 
z
" id="Arial-BoldMT-110"/>
      <path id="Arial-BoldMT-32"/>
      <path d="M 39.359375 0 
L 25.640625 0 
L 25.640625 51.703125 
Q 18.109375 44.671875 7.90625 41.3125 
L 7.90625 53.765625 
Q 13.28125 55.515625 19.578125 60.421875 
Q 25.875 65.328125 28.21875 71.875 
L 39.359375 71.875 
z
" id="Arial-BoldMT-49"/>
      <path d="M 21.4375 0 
L 0.53125 51.859375 
L 14.9375 51.859375 
L 24.703125 25.390625 
L 27.546875 16.546875 
Q 28.65625 19.921875 28.953125 21 
Q 29.640625 23.1875 30.421875 25.390625 
L 40.28125 51.859375 
L 54.390625 51.859375 
L 33.796875 0 
z
" id="Arial-BoldMT-118"/>
      <path d="M 50.59375 12.75 
L 50.59375 0 
L 2.484375 0 
Q 3.265625 7.234375 7.171875 13.703125 
Q 11.078125 20.171875 22.609375 30.859375 
Q 31.890625 39.5 33.984375 42.578125 
Q 36.8125 46.828125 36.8125 50.984375 
Q 36.8125 55.5625 34.34375 58.03125 
Q 31.890625 60.5 27.546875 60.5 
Q 23.25 60.5 20.703125 57.90625 
Q 18.171875 55.328125 17.78125 49.3125 
L 4.109375 50.6875 
Q 5.328125 62.015625 11.765625 66.9375 
Q 18.21875 71.875 27.875 71.875 
Q 38.484375 71.875 44.53125 66.15625 
Q 50.59375 60.453125 50.59375 51.953125 
Q 50.59375 47.125 48.859375 42.75 
Q 47.125 38.375 43.359375 33.59375 
Q 40.875 30.421875 34.375 24.453125 
Q 27.875 18.5 26.140625 16.546875 
Q 24.421875 14.59375 23.34375 12.75 
z
" id="Arial-BoldMT-50"/>
     </defs>
     <use xlink:href="#Arial-BoldMT-83"/>
     <use x="66.699219" xlink:href="#Arial-BoldMT-101"/>
     <use x="122.314453" xlink:href="#Arial-BoldMT-115"/>
     <use x="177.929688" xlink:href="#Arial-BoldMT-115"/>
     <use x="233.544922" xlink:href="#Arial-BoldMT-105"/>
     <use x="261.328125" xlink:href="#Arial-BoldMT-111"/>
     <use x="322.412109" xlink:href="#Arial-BoldMT-110"/>
     <use x="383.496094" xlink:href="#Arial-BoldMT-32"/>
     <use x="411.279297" xlink:href="#Arial-BoldMT-49"/>
     <use x="466.894531" xlink:href="#Arial-BoldMT-32"/>
     <use x="494.677734" xlink:href="#Arial-BoldMT-118"/>
     <use x="550.292969" xlink:href="#Arial-BoldMT-32"/>
     <use x="578.076172" xlink:href="#Arial-BoldMT-50"/>
    </g>
   </g>
  </g>
  <g id="axes_2">
   <g id="patch_9">
    <path d="M 227.878664 275.2928 
L 364.8423 275.2928 
L 364.8423 67.824 
L 227.878664 67.824 
z
" style="fill:#ffffff;"/>
   </g>
   <g id="patch_10">
    <path clip-path="url(#p3c64dabfc3)" d="M 251.224738 258.003733 
L 279.240027 258.003733 
L 279.240027 85.816943 
L 251.224738 85.816943 
z
" style="fill:#d3d3d3;"/>
   </g>
   <g id="patch_11">
    <path clip-path="url(#p3c64dabfc3)" d="M 251.224738 197.047518 
L 279.240027 197.047518 
L 279.240027 191.860798 
L 251.224738 191.860798 
z
" style="fill:#808080;"/>
   </g>
   <g id="patch_12">
    <path clip-path="url(#p3c64dabfc3)" d="M 313.480936 239.591362 
L 341.496226 239.591362 
L 341.496226 117.936502 
L 313.480936 117.936502 
z
" style="fill:#d3d3d3;"/>
   </g>
   <g id="patch_13">
    <path clip-path="url(#p3c64dabfc3)" d="M 313.480936 197.13445 
L 341.496226 197.13445 
L 341.496226 191.94773 
L 313.480936 191.94773 
z
" style="fill:#808080;"/>
   </g>
   <g id="matplotlib.axis_3">
    <g id="xtick_3"/>
    <g id="xtick_4"/>
   </g>
   <g id="matplotlib.axis_4">
    <g id="ytick_5">
     <g id="line2d_19">
      <g>
       <use style="stroke:#000000;stroke-width:4;" x="227.878664" xlink:href="#mff57de59c4" y="255.04768"/>
      </g>
     </g>
    </g>
    <g id="ytick_6">
     <g id="line2d_20">
      <g>
       <use style="stroke:#000000;stroke-width:4;" x="227.878664" xlink:href="#mff57de59c4" y="194.466444"/>
      </g>
     </g>
    </g>
    <g id="ytick_7">
     <g id="line2d_21">
      <g>
       <use style="stroke:#000000;stroke-width:4;" x="227.878664" xlink:href="#mff57de59c4" y="133.885209"/>
      </g>
     </g>
    </g>
    <g id="ytick_8">
     <g id="line2d_22">
      <g>
       <use style="stroke:#000000;stroke-width:4;" x="227.878664" xlink:href="#mff57de59c4" y="73.303973"/>
      </g>
     </g>
    </g>
   </g>
   <g id="LineCollection_3">
    <path clip-path="url(#p3c64dabfc3)" d="M 265.232383 199.405432 
L 265.232383 149.482937 
" style="fill:none;stroke:#76bb4b;stroke-opacity:0.8;stroke-width:5;"/>
   </g>
   <g id="LineCollection_4">
    <path clip-path="url(#p3c64dabfc3)" d="M 327.488581 229.430291 
L 327.488581 195.319376 
" style="fill:none;stroke:#488a21;stroke-opacity:0.8;stroke-width:5;"/>
   </g>
   <g id="line2d_23">
    <path clip-path="url(#p3c64dabfc3)" d="M 249.668333 174.444185 
L 280.796432 174.444185 
" style="fill:none;stroke:#76bb4b;stroke-linecap:square;stroke-width:4.5;"/>
   </g>
   <g id="line2d_24">
    <g clip-path="url(#p3c64dabfc3)">
     <use style="fill:#76bb4b;fill-opacity:0.8;stroke:#76bb4b;stroke-opacity:0.8;stroke-width:4;" x="265.232383" xlink:href="#m2e3204fc69" y="199.405432"/>
    </g>
   </g>
   <g id="line2d_25">
    <g clip-path="url(#p3c64dabfc3)">
     <use style="fill:#76bb4b;fill-opacity:0.8;stroke:#76bb4b;stroke-opacity:0.8;stroke-width:4;" x="265.232383" xlink:href="#m2e3204fc69" y="149.482937"/>
    </g>
   </g>
   <g id="line2d_26">
    <path clip-path="url(#p3c64dabfc3)" d="M 265.232383 174.444185 
" style="fill:none;stroke:#ffffff;stroke-linecap:square;stroke-width:5;"/>
    <g clip-path="url(#p3c64dabfc3)">
     <use style="fill:#ffffff;stroke:#ffffff;stroke-width:2.5;" x="265.232383" xlink:href="#m024a9712af" y="174.444185"/>
    </g>
   </g>
   <g id="line2d_27">
    <path clip-path="url(#p3c64dabfc3)" d="M 265.232383 174.444185 
" style="fill:none;stroke:#76bb4b;stroke-linecap:square;stroke-width:5;"/>
    <g clip-path="url(#p3c64dabfc3)">
     <use style="fill-opacity:0;stroke:#76bb4b;stroke-width:2.5;" x="265.232383" xlink:href="#ma19d90ebb0" y="174.444185"/>
    </g>
   </g>
   <g id="line2d_28">
    <path clip-path="url(#p3c64dabfc3)" d="M 265.232383 174.444185 
" style="fill:none;stroke:#76bb4b;stroke-linecap:square;stroke-opacity:0.5;stroke-width:5;"/>
    <g clip-path="url(#p3c64dabfc3)">
     <use style="fill:#76bb4b;fill-opacity:0.5;stroke:#76bb4b;stroke-opacity:0.5;stroke-width:4;" x="265.232383" xlink:href="#m223d6fd2d4" y="174.444185"/>
    </g>
   </g>
   <g id="line2d_29">
    <path clip-path="url(#p3c64dabfc3)" d="M 311.924531 212.374834 
L 343.052631 212.374834 
" style="fill:none;stroke:#488a21;stroke-linecap:square;stroke-width:4.5;"/>
   </g>
   <g id="line2d_30">
    <g clip-path="url(#p3c64dabfc3)">
     <use style="fill:#488a21;fill-opacity:0.8;stroke:#488a21;stroke-opacity:0.8;stroke-width:4;" x="327.488581" xlink:href="#ma4fc3472e9" y="229.430291"/>
    </g>
   </g>
   <g id="line2d_31">
    <g clip-path="url(#p3c64dabfc3)">
     <use style="fill:#488a21;fill-opacity:0.8;stroke:#488a21;stroke-opacity:0.8;stroke-width:4;" x="327.488581" xlink:href="#ma4fc3472e9" y="195.319376"/>
    </g>
   </g>
   <g id="line2d_32">
    <path clip-path="url(#p3c64dabfc3)" d="M 327.488581 212.374834 
" style="fill:none;stroke:#ffffff;stroke-linecap:square;stroke-width:5;"/>
    <g clip-path="url(#p3c64dabfc3)">
     <use style="fill:#ffffff;stroke:#ffffff;stroke-width:2.5;" x="327.488581" xlink:href="#m024a9712af" y="212.374834"/>
    </g>
   </g>
   <g id="line2d_33">
    <path clip-path="url(#p3c64dabfc3)" d="M 327.488581 212.374834 
" style="fill:none;stroke:#488a21;stroke-linecap:square;stroke-width:5;"/>
    <g clip-path="url(#p3c64dabfc3)">
     <use style="fill-opacity:0;stroke:#488a21;stroke-width:2.5;" x="327.488581" xlink:href="#mc2ab91899a" y="212.374834"/>
    </g>
   </g>
   <g id="line2d_34">
    <path clip-path="url(#p3c64dabfc3)" d="M 327.488581 212.374834 
" style="fill:none;stroke:#488a21;stroke-linecap:square;stroke-opacity:0.5;stroke-width:5;"/>
    <g clip-path="url(#p3c64dabfc3)">
     <use style="fill:#488a21;fill-opacity:0.5;stroke:#488a21;stroke-opacity:0.5;stroke-width:4;" x="327.488581" xlink:href="#ma8f74bf2ab" y="212.374834"/>
    </g>
   </g>
   <g id="line2d_35">
    <path clip-path="url(#p3c64dabfc3)" d="M 265.232383 174.444185 
" style="fill:none;stroke:#76bb4b;stroke-linecap:square;stroke-opacity:0.8;stroke-width:5;"/>
    <g clip-path="url(#p3c64dabfc3)">
     <use style="fill:#76bb4b;fill-opacity:0.8;stroke:#76bb4b;stroke-opacity:0.8;stroke-width:4;" x="265.232383" xlink:href="#me2369a58da" y="174.444185"/>
    </g>
   </g>
   <g id="line2d_36">
    <path clip-path="url(#p3c64dabfc3)" d="M 327.488581 212.374834 
" style="fill:none;stroke:#488a21;stroke-linecap:square;stroke-opacity:0.8;stroke-width:5;"/>
    <g clip-path="url(#p3c64dabfc3)">
     <use style="fill:#488a21;fill-opacity:0.8;stroke:#488a21;stroke-opacity:0.8;stroke-width:4;" x="327.488581" xlink:href="#m38bfbb0d43" y="212.374834"/>
    </g>
   </g>
   <g id="patch_14">
    <path d="M 227.878664 275.2928 
L 227.878664 67.824 
" style="fill:none;stroke:#000000;stroke-linecap:square;stroke-linejoin:miter;stroke-width:4;"/>
   </g>
   <g id="patch_15">
    <path d="M 227.878664 275.2928 
L 364.8423 275.2928 
" style="fill:none;stroke:#000000;stroke-linecap:square;stroke-linejoin:miter;stroke-width:4;"/>
   </g>
   <g id="text_5">
    <!-- Session 2 v 3 -->
    <g transform="translate(241.613932 47.301184)scale(0.1728 -0.1728)">
     <use xlink:href="#Arial-BoldMT-83"/>
     <use x="66.699219" xlink:href="#Arial-BoldMT-101"/>
     <use x="122.314453" xlink:href="#Arial-BoldMT-115"/>
     <use x="177.929688" xlink:href="#Arial-BoldMT-115"/>
     <use x="233.544922" xlink:href="#Arial-BoldMT-105"/>
     <use x="261.328125" xlink:href="#Arial-BoldMT-111"/>
     <use x="322.412109" xlink:href="#Arial-BoldMT-110"/>
     <use x="383.496094" xlink:href="#Arial-BoldMT-32"/>
     <use x="411.279297" xlink:href="#Arial-BoldMT-50"/>
     <use x="466.894531" xlink:href="#Arial-BoldMT-32"/>
     <use x="494.677734" xlink:href="#Arial-BoldMT-118"/>
     <use x="550.292969" xlink:href="#Arial-BoldMT-32"/>
     <use x="578.076172" xlink:href="#Arial-BoldMT-51"/>
    </g>
   </g>
  </g>
  <g id="axes_3">
   <g id="patch_16">
    <path d="M 63.5223 534.6288 
L 200.485936 534.6288 
L 200.485936 327.16 
L 63.5223 327.16 
z
" style="fill:#ffffff;"/>
   </g>
   <g id="patch_17">
    <path clip-path="url(#pdd2256bb00)" d="M 86.868374 500.022311 
L 114.883664 500.022311 
L 114.883664 391.08141 
L 86.868374 391.08141 
z
" style="fill:#d3d3d3;"/>
   </g>
   <g id="patch_18">
    <path clip-path="url(#pdd2256bb00)" d="M 86.868374 460.892187 
L 114.883664 460.892187 
L 114.883664 455.705467 
L 86.868374 455.705467 
z
" style="fill:#808080;"/>
   </g>
   <g id="patch_19">
    <path clip-path="url(#pdd2256bb00)" d="M 149.124573 517.339733 
L 177.139862 517.339733 
L 177.139862 363.607486 
L 149.124573 363.607486 
z
" style="fill:#d3d3d3;"/>
   </g>
   <g id="patch_20">
    <path clip-path="url(#pdd2256bb00)" d="M 149.124573 460.853639 
L 177.139862 460.853639 
L 177.139862 455.666919 
L 149.124573 455.666919 
z
" style="fill:#808080;"/>
   </g>
   <g id="matplotlib.axis_5">
    <g id="xtick_5">
     <g id="text_6">
      <!-- L2/3 -->
      <g transform="translate(83.589269 558.4975)scale(0.1728 -0.1728)">
       <defs>
        <path d="M 7.671875 0 
L 7.671875 71 
L 22.125 71 
L 22.125 12.0625 
L 58.0625 12.0625 
L 58.0625 0 
z
" id="Arial-BoldMT-76"/>
        <path d="M -0.140625 -1.21875 
L 17.578125 72.796875 
L 27.875 72.796875 
L 9.96875 -1.21875 
z
" id="Arial-BoldMT-47"/>
       </defs>
       <use xlink:href="#Arial-BoldMT-76"/>
       <use x="61.083984" xlink:href="#Arial-BoldMT-50"/>
       <use x="116.699219" xlink:href="#Arial-BoldMT-47"/>
       <use x="144.482422" xlink:href="#Arial-BoldMT-51"/>
      </g>
     </g>
    </g>
    <g id="xtick_6">
     <g id="text_7">
      <!-- L5 -->
      <g transform="translate(153.050417 558.4975)scale(0.1728 -0.1728)">
       <defs>
        <path d="M 4.4375 18.40625 
L 18.109375 19.828125 
Q 18.703125 15.1875 21.578125 12.46875 
Q 24.46875 9.765625 28.21875 9.765625 
Q 32.515625 9.765625 35.5 13.25 
Q 38.484375 16.75 38.484375 23.78125 
Q 38.484375 30.375 35.515625 33.671875 
Q 32.5625 36.96875 27.828125 36.96875 
Q 21.921875 36.96875 17.234375 31.734375 
L 6.109375 33.34375 
L 13.140625 70.609375 
L 49.421875 70.609375 
L 49.421875 57.765625 
L 23.53125 57.765625 
L 21.390625 45.609375 
Q 25.984375 47.90625 30.765625 47.90625 
Q 39.890625 47.90625 46.234375 41.265625 
Q 52.59375 34.625 52.59375 24.03125 
Q 52.59375 15.1875 47.46875 8.25 
Q 40.484375 -1.21875 28.078125 -1.21875 
Q 18.171875 -1.21875 11.921875 4.09375 
Q 5.671875 9.421875 4.4375 18.40625 
z
" id="Arial-BoldMT-53"/>
       </defs>
       <use xlink:href="#Arial-BoldMT-76"/>
       <use x="61.083984" xlink:href="#Arial-BoldMT-53"/>
      </g>
     </g>
    </g>
   </g>
   <g id="matplotlib.axis_6">
    <g id="ytick_9">
     <g id="line2d_37">
      <g>
       <use style="stroke:#000000;stroke-width:4;" x="63.5223" xlink:href="#mff57de59c4" y="511.952907"/>
      </g>
     </g>
     <g id="text_8">
      <!-- -0.2 -->
      <g transform="translate(22.2494 518.137257)scale(0.1728 -0.1728)">
       <defs>
        <path d="M 5.609375 19.09375 
L 5.609375 32.8125 
L 32.5625 32.8125 
L 32.5625 19.09375 
z
" id="Arial-BoldMT-45"/>
       </defs>
       <use xlink:href="#Arial-BoldMT-45"/>
       <use x="33.300781" xlink:href="#Arial-BoldMT-48"/>
       <use x="88.916016" xlink:href="#Arial-BoldMT-46"/>
       <use x="116.699219" xlink:href="#Arial-BoldMT-50"/>
      </g>
     </g>
    </g>
    <g id="ytick_10">
     <g id="line2d_38">
      <g>
       <use style="stroke:#000000;stroke-width:4;" x="63.5223" xlink:href="#mff57de59c4" y="458.400086"/>
      </g>
     </g>
    </g>
    <g id="ytick_11">
     <g id="line2d_39">
      <g>
       <use style="stroke:#000000;stroke-width:4;" x="63.5223" xlink:href="#mff57de59c4" y="404.847266"/>
      </g>
     </g>
     <g id="text_9">
      <!-- 0.2 -->
      <g transform="translate(28.0031 411.031616)scale(0.1728 -0.1728)">
       <use xlink:href="#Arial-BoldMT-48"/>
       <use x="55.615234" xlink:href="#Arial-BoldMT-46"/>
       <use x="83.398438" xlink:href="#Arial-BoldMT-50"/>
      </g>
     </g>
    </g>
    <g id="ytick_12">
     <g id="line2d_40">
      <g>
       <use style="stroke:#000000;stroke-width:4;" x="63.5223" xlink:href="#mff57de59c4" y="351.294446"/>
      </g>
     </g>
    </g>
   </g>
   <g id="LineCollection_5">
    <path clip-path="url(#pdd2256bb00)" d="M 100.876019 392.03195 
L 100.876019 364.12186 
" style="fill:none;stroke:#50a2d5;stroke-opacity:0.8;stroke-width:5;"/>
   </g>
   <g id="LineCollection_6">
    <path clip-path="url(#pdd2256bb00)" d="M 163.132217 428.497462 
L 163.132217 377.736122 
" style="fill:none;stroke:#22567a;stroke-opacity:0.8;stroke-width:5;"/>
   </g>
   <g id="line2d_41">
    <path clip-path="url(#pdd2256bb00)" d="M 85.311969 378.076905 
L 116.440069 378.076905 
" style="fill:none;stroke:#50a2d5;stroke-linecap:square;stroke-width:4.5;"/>
   </g>
   <g id="line2d_42">
    <defs>
     <path d="M 8 0 
L -8 -0 
" id="m76190da852" style="stroke:#50a2d5;stroke-opacity:0.8;stroke-width:4;"/>
    </defs>
    <g clip-path="url(#pdd2256bb00)">
     <use style="fill:#50a2d5;fill-opacity:0.8;stroke:#50a2d5;stroke-opacity:0.8;stroke-width:4;" x="100.876019" xlink:href="#m76190da852" y="392.03195"/>
    </g>
   </g>
   <g id="line2d_43">
    <g clip-path="url(#pdd2256bb00)">
     <use style="fill:#50a2d5;fill-opacity:0.8;stroke:#50a2d5;stroke-opacity:0.8;stroke-width:4;" x="100.876019" xlink:href="#m76190da852" y="364.12186"/>
    </g>
   </g>
   <g id="line2d_44">
    <path clip-path="url(#pdd2256bb00)" d="M 100.876019 378.076905 
" style="fill:none;stroke:#ffffff;stroke-linecap:square;stroke-width:5;"/>
    <g clip-path="url(#pdd2256bb00)">
     <use style="fill:#ffffff;stroke:#ffffff;stroke-width:2.5;" x="100.876019" xlink:href="#m024a9712af" y="378.076905"/>
    </g>
   </g>
   <g id="line2d_45">
    <path clip-path="url(#pdd2256bb00)" d="M 100.876019 378.076905 
" style="fill:none;stroke:#50a2d5;stroke-linecap:square;stroke-width:5;"/>
    <defs>
     <path d="M 0 6.5 
C 1.72382 6.5 3.377269 5.815119 4.596194 4.596194 
C 5.815119 3.377269 6.5 1.72382 6.5 0 
C 6.5 -1.72382 5.815119 -3.377269 4.596194 -4.596194 
C 3.377269 -5.815119 1.72382 -6.5 0 -6.5 
C -1.72382 -6.5 -3.377269 -5.815119 -4.596194 -4.596194 
C -5.815119 -3.377269 -6.5 -1.72382 -6.5 0 
C -6.5 1.72382 -5.815119 3.377269 -4.596194 4.596194 
C -3.377269 5.815119 -1.72382 6.5 0 6.5 
z
" id="mbd2eda7d80" style="stroke:#50a2d5;stroke-width:2.5;"/>
    </defs>
    <g clip-path="url(#pdd2256bb00)">
     <use style="fill-opacity:0;stroke:#50a2d5;stroke-width:2.5;" x="100.876019" xlink:href="#mbd2eda7d80" y="378.076905"/>
    </g>
   </g>
   <g id="line2d_46">
    <path clip-path="url(#pdd2256bb00)" d="M 100.876019 378.076905 
" style="fill:none;stroke:#50a2d5;stroke-linecap:square;stroke-opacity:0.5;stroke-width:5;"/>
    <defs>
     <path d="M 0 6.5 
C 1.72382 6.5 3.377269 5.815119 4.596194 4.596194 
C 5.815119 3.377269 6.5 1.72382 6.5 0 
C 6.5 -1.72382 5.815119 -3.377269 4.596194 -4.596194 
C 3.377269 -5.815119 1.72382 -6.5 0 -6.5 
C -1.72382 -6.5 -3.377269 -5.815119 -4.596194 -4.596194 
C -5.815119 -3.377269 -6.5 -1.72382 -6.5 0 
C -6.5 1.72382 -5.815119 3.377269 -4.596194 4.596194 
C -3.377269 5.815119 -1.72382 6.5 0 6.5 
z
" id="m16fcc509d0" style="stroke:#50a2d5;stroke-opacity:0.5;stroke-width:4;"/>
    </defs>
    <g clip-path="url(#pdd2256bb00)">
     <use style="fill:#50a2d5;fill-opacity:0.5;stroke:#50a2d5;stroke-opacity:0.5;stroke-width:4;" x="100.876019" xlink:href="#m16fcc509d0" y="378.076905"/>
    </g>
   </g>
   <g id="line2d_47">
    <path clip-path="url(#pdd2256bb00)" d="M 147.568168 403.116792 
L 178.696267 403.116792 
" style="fill:none;stroke:#22567a;stroke-linecap:square;stroke-width:4.5;"/>
   </g>
   <g id="line2d_48">
    <defs>
     <path d="M 8 0 
L -8 -0 
" id="me641b8fa81" style="stroke:#22567a;stroke-opacity:0.8;stroke-width:4;"/>
    </defs>
    <g clip-path="url(#pdd2256bb00)">
     <use style="fill:#22567a;fill-opacity:0.8;stroke:#22567a;stroke-opacity:0.8;stroke-width:4;" x="163.132217" xlink:href="#me641b8fa81" y="428.497462"/>
    </g>
   </g>
   <g id="line2d_49">
    <g clip-path="url(#pdd2256bb00)">
     <use style="fill:#22567a;fill-opacity:0.8;stroke:#22567a;stroke-opacity:0.8;stroke-width:4;" x="163.132217" xlink:href="#me641b8fa81" y="377.736122"/>
    </g>
   </g>
   <g id="line2d_50">
    <path clip-path="url(#pdd2256bb00)" d="M 163.132217 403.116792 
" style="fill:none;stroke:#ffffff;stroke-linecap:square;stroke-width:5;"/>
    <g clip-path="url(#pdd2256bb00)">
     <use style="fill:#ffffff;stroke:#ffffff;stroke-width:2.5;" x="163.132217" xlink:href="#m024a9712af" y="403.116792"/>
    </g>
   </g>
   <g id="line2d_51">
    <path clip-path="url(#pdd2256bb00)" d="M 163.132217 403.116792 
" style="fill:none;stroke:#22567a;stroke-linecap:square;stroke-width:5;"/>
    <defs>
     <path d="M 0 6.5 
C 1.72382 6.5 3.377269 5.815119 4.596194 4.596194 
C 5.815119 3.377269 6.5 1.72382 6.5 0 
C 6.5 -1.72382 5.815119 -3.377269 4.596194 -4.596194 
C 3.377269 -5.815119 1.72382 -6.5 0 -6.5 
C -1.72382 -6.5 -3.377269 -5.815119 -4.596194 -4.596194 
C -5.815119 -3.377269 -6.5 -1.72382 -6.5 0 
C -6.5 1.72382 -5.815119 3.377269 -4.596194 4.596194 
C -3.377269 5.815119 -1.72382 6.5 0 6.5 
z
" id="m8a8785a50e" style="stroke:#22567a;stroke-width:2.5;"/>
    </defs>
    <g clip-path="url(#pdd2256bb00)">
     <use style="fill-opacity:0;stroke:#22567a;stroke-width:2.5;" x="163.132217" xlink:href="#m8a8785a50e" y="403.116792"/>
    </g>
   </g>
   <g id="line2d_52">
    <path clip-path="url(#pdd2256bb00)" d="M 163.132217 403.116792 
" style="fill:none;stroke:#22567a;stroke-linecap:square;stroke-opacity:0.5;stroke-width:5;"/>
    <defs>
     <path d="M 0 6.5 
C 1.72382 6.5 3.377269 5.815119 4.596194 4.596194 
C 5.815119 3.377269 6.5 1.72382 6.5 0 
C 6.5 -1.72382 5.815119 -3.377269 4.596194 -4.596194 
C 3.377269 -5.815119 1.72382 -6.5 0 -6.5 
C -1.72382 -6.5 -3.377269 -5.815119 -4.596194 -4.596194 
C -5.815119 -3.377269 -6.5 -1.72382 -6.5 0 
C -6.5 1.72382 -5.815119 3.377269 -4.596194 4.596194 
C -3.377269 5.815119 -1.72382 6.5 0 6.5 
z
" id="m524f6cea1c" style="stroke:#22567a;stroke-opacity:0.5;stroke-width:4;"/>
    </defs>
    <g clip-path="url(#pdd2256bb00)">
     <use style="fill:#22567a;fill-opacity:0.5;stroke:#22567a;stroke-opacity:0.5;stroke-width:4;" x="163.132217" xlink:href="#m524f6cea1c" y="403.116792"/>
    </g>
   </g>
   <g id="line2d_53">
    <path clip-path="url(#pdd2256bb00)" d="M 100.876019 378.076905 
" style="fill:none;stroke:#50a2d5;stroke-linecap:square;stroke-opacity:0.8;stroke-width:5;"/>
    <defs>
     <path d="M 0 5 
C 1.326016 5 2.597899 4.473168 3.535534 3.535534 
C 4.473168 2.597899 5 1.326016 5 0 
C 5 -1.326016 4.473168 -2.597899 3.535534 -3.535534 
C 2.597899 -4.473168 1.326016 -5 0 -5 
C -1.326016 -5 -2.597899 -4.473168 -3.535534 -3.535534 
C -4.473168 -2.597899 -5 -1.326016 -5 0 
C -5 1.326016 -4.473168 2.597899 -3.535534 3.535534 
C -2.597899 4.473168 -1.326016 5 0 5 
z
" id="mffcc3aaf64" style="stroke:#50a2d5;stroke-opacity:0.8;stroke-width:4;"/>
    </defs>
    <g clip-path="url(#pdd2256bb00)">
     <use style="fill:#50a2d5;fill-opacity:0.8;stroke:#50a2d5;stroke-opacity:0.8;stroke-width:4;" x="100.876019" xlink:href="#mffcc3aaf64" y="378.076905"/>
    </g>
   </g>
   <g id="line2d_54">
    <path clip-path="url(#pdd2256bb00)" d="M 163.132217 403.116792 
" style="fill:none;stroke:#22567a;stroke-linecap:square;stroke-opacity:0.8;stroke-width:5;"/>
    <defs>
     <path d="M 0 5 
C 1.326016 5 2.597899 4.473168 3.535534 3.535534 
C 4.473168 2.597899 5 1.326016 5 0 
C 5 -1.326016 4.473168 -2.597899 3.535534 -3.535534 
C 2.597899 -4.473168 1.326016 -5 0 -5 
C -1.326016 -5 -2.597899 -4.473168 -3.535534 -3.535534 
C -4.473168 -2.597899 -5 -1.326016 -5 0 
C -5 1.326016 -4.473168 2.597899 -3.535534 3.535534 
C -2.597899 4.473168 -1.326016 5 0 5 
z
" id="m67ecb454f8" style="stroke:#22567a;stroke-opacity:0.8;stroke-width:4;"/>
    </defs>
    <g clip-path="url(#pdd2256bb00)">
     <use style="fill:#22567a;fill-opacity:0.8;stroke:#22567a;stroke-opacity:0.8;stroke-width:4;" x="163.132217" xlink:href="#m67ecb454f8" y="403.116792"/>
    </g>
   </g>
   <g id="patch_21">
    <path d="M 63.5223 534.6288 
L 63.5223 327.16 
" style="fill:none;stroke:#000000;stroke-linecap:square;stroke-linejoin:miter;stroke-width:4;"/>
   </g>
   <g id="patch_22">
    <path d="M 63.5223 534.6288 
L 200.485936 534.6288 
" style="fill:none;stroke:#000000;stroke-linecap:square;stroke-linejoin:miter;stroke-width:4;"/>
   </g>
  </g>
  <g id="axes_4">
   <g id="patch_23">
    <path d="M 227.878664 534.6288 
L 364.8423 534.6288 
L 364.8423 327.16 
L 227.878664 327.16 
z
" style="fill:#ffffff;"/>
   </g>
   <g id="patch_24">
    <path clip-path="url(#p4cbd74181f)" d="M 251.224738 499.585137 
L 279.240027 499.585137 
L 279.240027 381.890928 
L 251.224738 381.890928 
z
" style="fill:#d3d3d3;"/>
   </g>
   <g id="patch_25">
    <path clip-path="url(#p4cbd74181f)" d="M 251.224738 460.959323 
L 279.240027 460.959323 
L 279.240027 455.772603 
L 251.224738 455.772603 
z
" style="fill:#808080;"/>
   </g>
   <g id="patch_26">
    <path clip-path="url(#p4cbd74181f)" d="M 313.480936 517.14624 
L 341.496226 517.14624 
L 341.496226 358.391996 
L 313.480936 358.391996 
z
" style="fill:#d3d3d3;"/>
   </g>
   <g id="patch_27">
    <path clip-path="url(#p4cbd74181f)" d="M 313.480936 461.015926 
L 341.496226 461.015926 
L 341.496226 455.829206 
L 313.480936 455.829206 
z
" style="fill:#808080;"/>
   </g>
   <g id="matplotlib.axis_7">
    <g id="xtick_7">
     <g id="text_10">
      <!-- L2/3 -->
      <g transform="translate(247.945633 558.4975)scale(0.1728 -0.1728)">
       <use xlink:href="#Arial-BoldMT-76"/>
       <use x="61.083984" xlink:href="#Arial-BoldMT-50"/>
       <use x="116.699219" xlink:href="#Arial-BoldMT-47"/>
       <use x="144.482422" xlink:href="#Arial-BoldMT-51"/>
      </g>
     </g>
    </g>
    <g id="xtick_8">
     <g id="text_11">
      <!-- L5 -->
      <g transform="translate(317.406781 558.4975)scale(0.1728 -0.1728)">
       <use xlink:href="#Arial-BoldMT-76"/>
       <use x="61.083984" xlink:href="#Arial-BoldMT-53"/>
      </g>
     </g>
    </g>
   </g>
   <g id="matplotlib.axis_8">
    <g id="ytick_13">
     <g id="line2d_55">
      <g>
       <use style="stroke:#000000;stroke-width:4;" x="227.878664" xlink:href="#mff57de59c4" y="511.952907"/>
      </g>
     </g>
    </g>
    <g id="ytick_14">
     <g id="line2d_56">
      <g>
       <use style="stroke:#000000;stroke-width:4;" x="227.878664" xlink:href="#mff57de59c4" y="458.400086"/>
      </g>
     </g>
    </g>
    <g id="ytick_15">
     <g id="line2d_57">
      <g>
       <use style="stroke:#000000;stroke-width:4;" x="227.878664" xlink:href="#mff57de59c4" y="404.847266"/>
      </g>
     </g>
    </g>
    <g id="ytick_16">
     <g id="line2d_58">
      <g>
       <use style="stroke:#000000;stroke-width:4;" x="227.878664" xlink:href="#mff57de59c4" y="351.294446"/>
      </g>
     </g>
    </g>
   </g>
   <g id="LineCollection_7">
    <path clip-path="url(#p4cbd74181f)" d="M 265.232383 376.501268 
L 265.232383 344.449067 
" style="fill:none;stroke:#50a2d5;stroke-opacity:0.8;stroke-width:5;"/>
   </g>
   <g id="LineCollection_8">
    <path clip-path="url(#p4cbd74181f)" d="M 327.488581 396.621274 
L 327.488581 356.965111 
" style="fill:none;stroke:#22567a;stroke-opacity:0.8;stroke-width:5;"/>
   </g>
   <g id="line2d_59">
    <path clip-path="url(#p4cbd74181f)" d="M 249.668333 360.475167 
L 280.796432 360.475167 
" style="fill:none;stroke:#50a2d5;stroke-linecap:square;stroke-width:4.5;"/>
   </g>
   <g id="line2d_60">
    <g clip-path="url(#p4cbd74181f)">
     <use style="fill:#50a2d5;fill-opacity:0.8;stroke:#50a2d5;stroke-opacity:0.8;stroke-width:4;" x="265.232383" xlink:href="#m76190da852" y="376.501268"/>
    </g>
   </g>
   <g id="line2d_61">
    <g clip-path="url(#p4cbd74181f)">
     <use style="fill:#50a2d5;fill-opacity:0.8;stroke:#50a2d5;stroke-opacity:0.8;stroke-width:4;" x="265.232383" xlink:href="#m76190da852" y="344.449067"/>
    </g>
   </g>
   <g id="line2d_62">
    <path clip-path="url(#p4cbd74181f)" d="M 265.232383 360.475167 
" style="fill:none;stroke:#ffffff;stroke-linecap:square;stroke-width:5;"/>
    <g clip-path="url(#p4cbd74181f)">
     <use style="fill:#ffffff;stroke:#ffffff;stroke-width:2.5;" x="265.232383" xlink:href="#m024a9712af" y="360.475167"/>
    </g>
   </g>
   <g id="line2d_63">
    <path clip-path="url(#p4cbd74181f)" d="M 265.232383 360.475167 
" style="fill:none;stroke:#50a2d5;stroke-linecap:square;stroke-width:5;"/>
    <g clip-path="url(#p4cbd74181f)">
     <use style="fill-opacity:0;stroke:#50a2d5;stroke-width:2.5;" x="265.232383" xlink:href="#mbd2eda7d80" y="360.475167"/>
    </g>
   </g>
   <g id="line2d_64">
    <path clip-path="url(#p4cbd74181f)" d="M 265.232383 360.475167 
" style="fill:none;stroke:#50a2d5;stroke-linecap:square;stroke-opacity:0.5;stroke-width:5;"/>
    <g clip-path="url(#p4cbd74181f)">
     <use style="fill:#50a2d5;fill-opacity:0.5;stroke:#50a2d5;stroke-opacity:0.5;stroke-width:4;" x="265.232383" xlink:href="#m16fcc509d0" y="360.475167"/>
    </g>
   </g>
   <g id="line2d_65">
    <path clip-path="url(#p4cbd74181f)" d="M 311.924531 376.793193 
L 343.052631 376.793193 
" style="fill:none;stroke:#22567a;stroke-linecap:square;stroke-width:4.5;"/>
   </g>
   <g id="line2d_66">
    <g clip-path="url(#p4cbd74181f)">
     <use style="fill:#22567a;fill-opacity:0.8;stroke:#22567a;stroke-opacity:0.8;stroke-width:4;" x="327.488581" xlink:href="#me641b8fa81" y="396.621274"/>
    </g>
   </g>
   <g id="line2d_67">
    <g clip-path="url(#p4cbd74181f)">
     <use style="fill:#22567a;fill-opacity:0.8;stroke:#22567a;stroke-opacity:0.8;stroke-width:4;" x="327.488581" xlink:href="#me641b8fa81" y="356.965111"/>
    </g>
   </g>
   <g id="line2d_68">
    <path clip-path="url(#p4cbd74181f)" d="M 327.488581 376.793193 
" style="fill:none;stroke:#ffffff;stroke-linecap:square;stroke-width:5;"/>
    <g clip-path="url(#p4cbd74181f)">
     <use style="fill:#ffffff;stroke:#ffffff;stroke-width:2.5;" x="327.488581" xlink:href="#m024a9712af" y="376.793193"/>
    </g>
   </g>
   <g id="line2d_69">
    <path clip-path="url(#p4cbd74181f)" d="M 327.488581 376.793193 
" style="fill:none;stroke:#22567a;stroke-linecap:square;stroke-width:5;"/>
    <g clip-path="url(#p4cbd74181f)">
     <use style="fill-opacity:0;stroke:#22567a;stroke-width:2.5;" x="327.488581" xlink:href="#m8a8785a50e" y="376.793193"/>
    </g>
   </g>
   <g id="line2d_70">
    <path clip-path="url(#p4cbd74181f)" d="M 327.488581 376.793193 
" style="fill:none;stroke:#22567a;stroke-linecap:square;stroke-opacity:0.5;stroke-width:5;"/>
    <g clip-path="url(#p4cbd74181f)">
     <use style="fill:#22567a;fill-opacity:0.5;stroke:#22567a;stroke-opacity:0.5;stroke-width:4;" x="327.488581" xlink:href="#m524f6cea1c" y="376.793193"/>
    </g>
   </g>
   <g id="line2d_71">
    <path clip-path="url(#p4cbd74181f)" d="M 265.232383 360.475167 
" style="fill:none;stroke:#50a2d5;stroke-linecap:square;stroke-opacity:0.8;stroke-width:5;"/>
    <g clip-path="url(#p4cbd74181f)">
     <use style="fill:#50a2d5;fill-opacity:0.8;stroke:#50a2d5;stroke-opacity:0.8;stroke-width:4;" x="265.232383" xlink:href="#mffcc3aaf64" y="360.475167"/>
    </g>
   </g>
   <g id="line2d_72">
    <path clip-path="url(#p4cbd74181f)" d="M 327.488581 376.793193 
" style="fill:none;stroke:#22567a;stroke-linecap:square;stroke-opacity:0.8;stroke-width:5;"/>
    <g clip-path="url(#p4cbd74181f)">
     <use style="fill:#22567a;fill-opacity:0.8;stroke:#22567a;stroke-opacity:0.8;stroke-width:4;" x="327.488581" xlink:href="#m67ecb454f8" y="376.793193"/>
    </g>
   </g>
   <g id="patch_28">
    <path d="M 227.878664 534.6288 
L 227.878664 327.16 
" style="fill:none;stroke:#000000;stroke-linecap:square;stroke-linejoin:miter;stroke-width:4;"/>
   </g>
   <g id="patch_29">
    <path d="M 227.878664 534.6288 
L 364.8423 534.6288 
" style="fill:none;stroke:#000000;stroke-linecap:square;stroke-linejoin:miter;stroke-width:4;"/>
   </g>
  </g>
  <g id="text_12">
   <!-- Correlations for visual flow USIs -->
   <g transform="translate(76.3419 19.5687)scale(0.1728 -0.1728)">
    <defs>
     <path d="M 53.078125 26.3125 
L 67.09375 21.875 
Q 63.875 10.15625 56.375 4.46875 
Q 48.875 -1.21875 37.359375 -1.21875 
Q 23.09375 -1.21875 13.90625 8.515625 
Q 4.734375 18.265625 4.734375 35.15625 
Q 4.734375 53.03125 13.953125 62.90625 
Q 23.1875 72.796875 38.234375 72.796875 
Q 51.375 72.796875 59.578125 65.046875 
Q 64.453125 60.453125 66.890625 51.859375 
L 52.59375 48.4375 
Q 51.3125 54 47.28125 57.21875 
Q 43.265625 60.453125 37.5 60.453125 
Q 29.546875 60.453125 24.578125 54.734375 
Q 19.625 49.03125 19.625 36.234375 
Q 19.625 22.65625 24.5 16.890625 
Q 29.390625 11.140625 37.203125 11.140625 
Q 42.96875 11.140625 47.109375 14.796875 
Q 51.265625 18.453125 53.078125 26.3125 
z
" id="Arial-BoldMT-67"/>
     <path d="M 20.3125 0 
L 6.59375 0 
L 6.59375 51.859375 
L 19.34375 51.859375 
L 19.34375 44.484375 
Q 22.609375 49.703125 25.21875 51.359375 
Q 27.828125 53.03125 31.15625 53.03125 
Q 35.84375 53.03125 40.1875 50.4375 
L 35.9375 38.484375 
Q 32.46875 40.71875 29.5 40.71875 
Q 26.609375 40.71875 24.609375 39.125 
Q 22.609375 37.546875 21.453125 33.390625 
Q 20.3125 29.25 20.3125 16.015625 
z
" id="Arial-BoldMT-114"/>
     <path d="M 7.171875 0 
L 7.171875 71.578125 
L 20.90625 71.578125 
L 20.90625 0 
z
" id="Arial-BoldMT-108"/>
     <path d="M 17.4375 36.03125 
L 4.984375 38.28125 
Q 7.078125 45.796875 12.203125 49.40625 
Q 17.328125 53.03125 27.4375 53.03125 
Q 36.625 53.03125 41.109375 50.859375 
Q 45.609375 48.6875 47.4375 45.34375 
Q 49.265625 42 49.265625 33.0625 
L 49.125 17.046875 
Q 49.125 10.203125 49.78125 6.953125 
Q 50.4375 3.71875 52.25 0 
L 38.671875 0 
Q 38.140625 1.375 37.359375 4.046875 
Q 37.015625 5.28125 36.859375 5.671875 
Q 33.34375 2.25 29.34375 0.53125 
Q 25.34375 -1.171875 20.796875 -1.171875 
Q 12.796875 -1.171875 8.171875 3.171875 
Q 3.5625 7.515625 3.5625 14.15625 
Q 3.5625 18.5625 5.65625 22 
Q 7.765625 25.4375 11.546875 27.265625 
Q 15.328125 29.109375 22.46875 30.46875 
Q 32.078125 32.28125 35.796875 33.84375 
L 35.796875 35.203125 
Q 35.796875 39.15625 33.84375 40.84375 
Q 31.890625 42.53125 26.46875 42.53125 
Q 22.796875 42.53125 20.75 41.09375 
Q 18.703125 39.65625 17.4375 36.03125 
z
M 35.796875 24.90625 
Q 33.15625 24.03125 27.4375 22.796875 
Q 21.734375 21.578125 19.96875 20.40625 
Q 17.28125 18.5 17.28125 15.578125 
Q 17.28125 12.703125 19.421875 10.59375 
Q 21.578125 8.5 24.90625 8.5 
Q 28.609375 8.5 31.984375 10.9375 
Q 34.46875 12.796875 35.25 15.484375 
Q 35.796875 17.234375 35.796875 22.171875 
z
" id="Arial-BoldMT-97"/>
     <path d="M 30.953125 51.859375 
L 30.953125 40.921875 
L 21.578125 40.921875 
L 21.578125 20.015625 
Q 21.578125 13.671875 21.84375 12.625 
Q 22.125 11.578125 23.078125 10.890625 
Q 24.03125 10.203125 25.390625 10.203125 
Q 27.296875 10.203125 30.90625 11.53125 
L 32.078125 0.875 
Q 27.296875 -1.171875 21.234375 -1.171875 
Q 17.53125 -1.171875 14.546875 0.0625 
Q 11.578125 1.3125 10.1875 3.296875 
Q 8.796875 5.28125 8.25 8.640625 
Q 7.8125 11.03125 7.8125 18.3125 
L 7.8125 40.921875 
L 1.515625 40.921875 
L 1.515625 51.859375 
L 7.8125 51.859375 
L 7.8125 62.15625 
L 21.578125 70.171875 
L 21.578125 51.859375 
z
" id="Arial-BoldMT-116"/>
     <path d="M 1.171875 51.859375 
L 8.796875 51.859375 
L 8.796875 55.765625 
Q 8.796875 62.3125 10.1875 65.53125 
Q 11.578125 68.75 15.3125 70.765625 
Q 19.046875 72.796875 24.75 72.796875 
Q 30.609375 72.796875 36.234375 71.046875 
L 34.375 61.46875 
Q 31.109375 62.25 28.078125 62.25 
Q 25.09375 62.25 23.796875 60.859375 
Q 22.515625 59.46875 22.515625 55.515625 
L 22.515625 51.859375 
L 32.765625 51.859375 
L 32.765625 41.0625 
L 22.515625 41.0625 
L 22.515625 0 
L 8.796875 0 
L 8.796875 41.0625 
L 1.171875 41.0625 
z
" id="Arial-BoldMT-102"/>
     <path d="M 41.3125 0 
L 41.3125 7.765625 
Q 38.484375 3.609375 33.859375 1.21875 
Q 29.25 -1.171875 24.125 -1.171875 
Q 18.890625 -1.171875 14.734375 1.125 
Q 10.59375 3.421875 8.734375 7.5625 
Q 6.890625 11.71875 6.890625 19.046875 
L 6.890625 51.859375 
L 20.609375 51.859375 
L 20.609375 28.03125 
Q 20.609375 17.09375 21.359375 14.625 
Q 22.125 12.15625 24.125 10.71875 
Q 26.125 9.28125 29.203125 9.28125 
Q 32.71875 9.28125 35.5 11.203125 
Q 38.28125 13.140625 39.296875 15.984375 
Q 40.328125 18.84375 40.328125 29.984375 
L 40.328125 51.859375 
L 54.046875 51.859375 
L 54.046875 0 
z
" id="Arial-BoldMT-117"/>
     <path d="M 16.84375 0 
L 0.4375 51.859375 
L 13.765625 51.859375 
L 23.484375 17.875 
L 32.421875 51.859375 
L 45.65625 51.859375 
L 54.296875 17.875 
L 64.203125 51.859375 
L 77.734375 51.859375 
L 61.078125 0 
L 47.90625 0 
L 38.96875 33.34375 
L 30.171875 0 
z
" id="Arial-BoldMT-119"/>
     <path d="M 7.171875 71.578125 
L 21.625 71.578125 
L 21.625 32.8125 
Q 21.625 23.578125 22.171875 20.84375 
Q 23.09375 16.453125 26.578125 13.796875 
Q 30.078125 11.140625 36.140625 11.140625 
Q 42.28125 11.140625 45.40625 13.640625 
Q 48.53125 16.15625 49.171875 19.8125 
Q 49.8125 23.484375 49.8125 31.984375 
L 49.8125 71.578125 
L 64.265625 71.578125 
L 64.265625 33.984375 
Q 64.265625 21.09375 63.09375 15.765625 
Q 61.921875 10.453125 58.765625 6.78125 
Q 55.609375 3.125 50.328125 0.953125 
Q 45.0625 -1.21875 36.578125 -1.21875 
Q 26.3125 -1.21875 21.015625 1.140625 
Q 15.71875 3.515625 12.640625 7.296875 
Q 9.578125 11.078125 8.59375 15.234375 
Q 7.171875 21.390625 7.171875 33.40625 
z
" id="Arial-BoldMT-85"/>
     <path d="M 6.84375 0 
L 6.84375 71.578125 
L 21.296875 71.578125 
L 21.296875 0 
z
" id="Arial-BoldMT-73"/>
    </defs>
    <use xlink:href="#Arial-BoldMT-67"/>
    <use x="72.216797" xlink:href="#Arial-BoldMT-111"/>
    <use x="133.300781" xlink:href="#Arial-BoldMT-114"/>
    <use x="172.216797" xlink:href="#Arial-BoldMT-114"/>
    <use x="211.132812" xlink:href="#Arial-BoldMT-101"/>
    <use x="266.748047" xlink:href="#Arial-BoldMT-108"/>
    <use x="294.53125" xlink:href="#Arial-BoldMT-97"/>
    <use x="350.146484" xlink:href="#Arial-BoldMT-116"/>
    <use x="383.447266" xlink:href="#Arial-BoldMT-105"/>
    <use x="411.230469" xlink:href="#Arial-BoldMT-111"/>
    <use x="472.314453" xlink:href="#Arial-BoldMT-110"/>
    <use x="533.398438" xlink:href="#Arial-BoldMT-115"/>
    <use x="589.013672" xlink:href="#Arial-BoldMT-32"/>
    <use x="616.796875" xlink:href="#Arial-BoldMT-102"/>
    <use x="650.097656" xlink:href="#Arial-BoldMT-111"/>
    <use x="711.181641" xlink:href="#Arial-BoldMT-114"/>
    <use x="750.097656" xlink:href="#Arial-BoldMT-32"/>
    <use x="777.880859" xlink:href="#Arial-BoldMT-118"/>
    <use x="833.496094" xlink:href="#Arial-BoldMT-105"/>
    <use x="861.279297" xlink:href="#Arial-BoldMT-115"/>
    <use x="916.894531" xlink:href="#Arial-BoldMT-117"/>
    <use x="977.978516" xlink:href="#Arial-BoldMT-97"/>
    <use x="1033.59375" xlink:href="#Arial-BoldMT-108"/>
    <use x="1061.376953" xlink:href="#Arial-BoldMT-32"/>
    <use x="1089.160156" xlink:href="#Arial-BoldMT-102"/>
    <use x="1122.460938" xlink:href="#Arial-BoldMT-108"/>
    <use x="1150.244141" xlink:href="#Arial-BoldMT-111"/>
    <use x="1211.328125" xlink:href="#Arial-BoldMT-119"/>
    <use x="1289.111328" xlink:href="#Arial-BoldMT-32"/>
    <use x="1316.894531" xlink:href="#Arial-BoldMT-85"/>
    <use x="1389.111328" xlink:href="#Arial-BoldMT-83"/>
    <use x="1455.810547" xlink:href="#Arial-BoldMT-73"/>
    <use x="1483.59375" xlink:href="#Arial-BoldMT-115"/>
   </g>
  </g>
  <g id="text_13">
   <!-- dendrites -->
   <g transform="translate(416.091 210.4438)rotate(-90)scale(0.1728 -0.1728)">
    <defs>
     <path d="M 54.734375 0 
L 42 0 
L 42 7.625 
Q 38.8125 3.171875 34.484375 1 
Q 30.171875 -1.171875 25.78125 -1.171875 
Q 16.84375 -1.171875 10.46875 6.03125 
Q 4.109375 13.234375 4.109375 26.125 
Q 4.109375 39.3125 10.296875 46.171875 
Q 16.5 53.03125 25.984375 53.03125 
Q 34.671875 53.03125 41.015625 45.796875 
L 41.015625 71.578125 
L 54.734375 71.578125 
z
M 18.109375 27.046875 
Q 18.109375 18.75 20.40625 15.046875 
Q 23.734375 9.671875 29.6875 9.671875 
Q 34.421875 9.671875 37.734375 13.6875 
Q 41.0625 17.71875 41.0625 25.734375 
Q 41.0625 34.671875 37.84375 38.59375 
Q 34.625 42.53125 29.59375 42.53125 
Q 24.703125 42.53125 21.40625 38.640625 
Q 18.109375 34.765625 18.109375 27.046875 
z
" id="Arial-BoldMT-100"/>
    </defs>
    <use xlink:href="#Arial-BoldMT-100"/>
    <use x="61.083984" xlink:href="#Arial-BoldMT-101"/>
    <use x="116.699219" xlink:href="#Arial-BoldMT-110"/>
    <use x="177.783203" xlink:href="#Arial-BoldMT-100"/>
    <use x="238.867188" xlink:href="#Arial-BoldMT-114"/>
    <use x="277.783203" xlink:href="#Arial-BoldMT-105"/>
    <use x="305.566406" xlink:href="#Arial-BoldMT-116"/>
    <use x="338.867188" xlink:href="#Arial-BoldMT-101"/>
    <use x="394.482422" xlink:href="#Arial-BoldMT-115"/>
   </g>
  </g>
  <g id="text_14">
   <!-- somata -->
   <g transform="translate(416.091 461.1452)rotate(-90)scale(0.1728 -0.1728)">
    <defs>
     <path d="M 6.15625 51.859375 
L 18.796875 51.859375 
L 18.796875 44.78125 
Q 25.59375 53.03125 34.96875 53.03125 
Q 39.9375 53.03125 43.59375 50.96875 
Q 47.265625 48.921875 49.609375 44.78125 
Q 53.03125 48.921875 56.984375 50.96875 
Q 60.9375 53.03125 65.4375 53.03125 
Q 71.140625 53.03125 75.09375 50.703125 
Q 79.046875 48.390625 81 43.890625 
Q 82.421875 40.578125 82.421875 33.15625 
L 82.421875 0 
L 68.703125 0 
L 68.703125 29.640625 
Q 68.703125 37.359375 67.28125 39.59375 
Q 65.375 42.53125 61.421875 42.53125 
Q 58.546875 42.53125 56 40.765625 
Q 53.46875 39.015625 52.34375 35.625 
Q 51.21875 32.234375 51.21875 24.90625 
L 51.21875 0 
L 37.5 0 
L 37.5 28.421875 
Q 37.5 35.984375 36.765625 38.171875 
Q 36.03125 40.375 34.484375 41.453125 
Q 32.953125 42.53125 30.328125 42.53125 
Q 27.15625 42.53125 24.609375 40.8125 
Q 22.078125 39.109375 20.96875 35.890625 
Q 19.875 32.671875 19.875 25.203125 
L 19.875 0 
L 6.15625 0 
z
" id="Arial-BoldMT-109"/>
    </defs>
    <use xlink:href="#Arial-BoldMT-115"/>
    <use x="55.615234" xlink:href="#Arial-BoldMT-111"/>
    <use x="116.699219" xlink:href="#Arial-BoldMT-109"/>
    <use x="205.615234" xlink:href="#Arial-BoldMT-97"/>
    <use x="261.230469" xlink:href="#Arial-BoldMT-116"/>
    <use x="294.53125" xlink:href="#Arial-BoldMT-97"/>
   </g>
  </g>
 </g>
 <defs>
  <clipPath id="pe66886d341">
   <rect height="207.4688" width="136.963636" x="63.5223" y="67.824"/>
  </clipPath>
  <clipPath id="p3c64dabfc3">
   <rect height="207.4688" width="136.963636" x="227.878664" y="67.824"/>
  </clipPath>
  <clipPath id="pdd2256bb00">
   <rect height="207.4688" width="136.963636" x="63.5223" y="327.16"/>
  </clipPath>
  <clipPath id="p4cbd74181f">
   <rect height="207.4688" width="136.963636" x="227.878664" y="327.16"/>
  </clipPath>
 </defs>
</svg>
