<?xml version="1.0" encoding="utf-8" standalone="no"?>
<!DOCTYPE svg PUBLIC "-//W3C//DTD SVG 1.1//EN"
  "http://www.w3.org/Graphics/SVG/1.1/DTD/svg11.dtd">
<!-- Created with matplotlib (https://matplotlib.org/) -->
<svg height="604.8826pt" version="1.1" viewBox="0 0 444.3374 604.8826" width="444.3374pt" xmlns="http://www.w3.org/2000/svg" xmlns:xlink="http://www.w3.org/1999/xlink">
 <metadata>
  <rdf:RDF xmlns:cc="http://creativecommons.org/ns#" xmlns:dc="http://purl.org/dc/elements/1.1/" xmlns:rdf="http://www.w3.org/1999/02/22-rdf-syntax-ns#">
   <cc:Work>
    <dc:type rdf:resource="http://purl.org/dc/dcmitype/StillImage"/>
    <dc:date>2022-01-26T18:32:02.414354</dc:date>
    <dc:format>image/svg+xml</dc:format>
    <dc:creator>
     <cc:Agent>
      <dc:title>Matplotlib v3.3.4, https://matplotlib.org/</dc:title>
     </cc:Agent>
    </dc:creator>
   </cc:Work>
  </rdf:RDF>
 </metadata>
 <defs>
  <style type="text/css">*{stroke-linecap:butt;stroke-linejoin:round;}</style>
 </defs>
 <g id="figure_1">
  <g id="patch_1">
   <path d="M 0 604.8826 
L 444.3374 604.8826 
L 444.3374 0 
L 0 0 
z
" style="fill:#ffffff;"/>
  </g>
  <g id="axes_1">
   <g id="patch_2">
    <path d="M 57.6974 533.376 
L 231.752446 533.376 
L 231.752446 67.68 
L 57.6974 67.68 
z
" style="fill:#ffffff;"/>
   </g>
   <g id="line2d_1">
    <path clip-path="url(#pc2f6f52784)" d="M 57.6974 500.474994 
L 231.752446 500.474994 
" style="fill:none;stroke:#000000;stroke-dasharray:9,6;stroke-dashoffset:0;stroke-opacity:0.5;stroke-width:3;"/>
   </g>
   <g id="patch_3">
    <path clip-path="url(#pc2f6f52784)" d="M 70.129903 406.623889 
L 94.99491 406.623889 
L 94.99491 406.623889 
L 70.129903 406.623889 
z
" style="fill:#d3d3d3;"/>
   </g>
   <g id="patch_4">
    <path clip-path="url(#pc2f6f52784)" d="M 70.129903 408.877303 
L 94.99491 408.877303 
L 94.99491 404.370476 
L 70.129903 404.370476 
z
" style="fill:#76bb4b;"/>
   </g>
   <g id="patch_5">
    <path clip-path="url(#pc2f6f52784)" d="M 111.571581 378.819958 
L 136.436587 378.819958 
L 136.436587 378.819958 
L 111.571581 378.819958 
z
" style="fill:#d3d3d3;"/>
   </g>
   <g id="patch_6">
    <path clip-path="url(#pc2f6f52784)" d="M 111.571581 381.073371 
L 136.436587 381.073371 
L 136.436587 376.566545 
L 111.571581 376.566545 
z
" style="fill:#50a2d5;"/>
   </g>
   <g id="patch_7">
    <path clip-path="url(#pc2f6f52784)" d="M 153.013258 442.81549 
L 177.878265 442.81549 
L 177.878265 442.81549 
L 153.013258 442.81549 
z
" style="fill:#d3d3d3;"/>
   </g>
   <g id="patch_8">
    <path clip-path="url(#pc2f6f52784)" d="M 153.013258 445.068903 
L 177.878265 445.068903 
L 177.878265 440.562076 
L 153.013258 440.562076 
z
" style="fill:#488a21;"/>
   </g>
   <g id="patch_9">
    <path clip-path="url(#pc2f6f52784)" d="M 194.454936 453.907241 
L 219.319943 453.907241 
L 219.319943 453.907241 
L 194.454936 453.907241 
z
" style="fill:#d3d3d3;"/>
   </g>
   <g id="patch_10">
    <path clip-path="url(#pc2f6f52784)" d="M 194.454936 456.160654 
L 219.319943 456.160654 
L 219.319943 451.653828 
L 194.454936 451.653828 
z
" style="fill:#22567a;"/>
   </g>
   <g id="matplotlib.axis_1">
    <g id="xtick_1">
     <g id="text_1">
      <!-- L2/3-D -->
      <g transform="translate(87.041707 597.6826)rotate(-90)scale(0.1728 -0.1728)">
       <defs>
        <path d="M 7.671875 0 
L 7.671875 71 
L 22.125 71 
L 22.125 12.0625 
L 58.0625 12.0625 
L 58.0625 0 
z
" id="Arial-BoldMT-76"/>
        <path d="M 50.59375 12.75 
L 50.59375 0 
L 2.484375 0 
Q 3.265625 7.234375 7.171875 13.703125 
Q 11.078125 20.171875 22.609375 30.859375 
Q 31.890625 39.5 33.984375 42.578125 
Q 36.8125 46.828125 36.8125 50.984375 
Q 36.8125 55.5625 34.34375 58.03125 
Q 31.890625 60.5 27.546875 60.5 
Q 23.25 60.5 20.703125 57.90625 
Q 18.171875 55.328125 17.78125 49.3125 
L 4.109375 50.6875 
Q 5.328125 62.015625 11.765625 66.9375 
Q 18.21875 71.875 27.875 71.875 
Q 38.484375 71.875 44.53125 66.15625 
Q 50.59375 60.453125 50.59375 51.953125 
Q 50.59375 47.125 48.859375 42.75 
Q 47.125 38.375 43.359375 33.59375 
Q 40.875 30.421875 34.375 24.453125 
Q 27.875 18.5 26.140625 16.546875 
Q 24.421875 14.59375 23.34375 12.75 
z
" id="Arial-BoldMT-50"/>
        <path d="M -0.140625 -1.21875 
L 17.578125 72.796875 
L 27.875 72.796875 
L 9.96875 -1.21875 
z
" id="Arial-BoldMT-47"/>
        <path d="M 3.765625 19 
L 17.046875 20.609375 
Q 17.671875 15.53125 20.453125 12.84375 
Q 23.25 10.15625 27.203125 10.15625 
Q 31.453125 10.15625 34.34375 13.375 
Q 37.25 16.609375 37.25 22.078125 
Q 37.25 27.25 34.46875 30.265625 
Q 31.6875 33.296875 27.6875 33.296875 
Q 25.046875 33.296875 21.390625 32.28125 
L 22.90625 43.453125 
Q 28.46875 43.3125 31.390625 45.875 
Q 34.328125 48.4375 34.328125 52.6875 
Q 34.328125 56.296875 32.171875 58.4375 
Q 30.03125 60.59375 26.46875 60.59375 
Q 22.953125 60.59375 20.453125 58.15625 
Q 17.96875 55.71875 17.4375 51.03125 
L 4.78125 53.171875 
Q 6.109375 59.671875 8.765625 63.546875 
Q 11.421875 67.4375 16.1875 69.65625 
Q 20.953125 71.875 26.859375 71.875 
Q 36.96875 71.875 43.0625 65.4375 
Q 48.09375 60.15625 48.09375 53.515625 
Q 48.09375 44.09375 37.796875 38.484375 
Q 43.953125 37.15625 47.625 32.5625 
Q 51.3125 27.984375 51.3125 21.484375 
Q 51.3125 12.0625 44.421875 5.421875 
Q 37.546875 -1.21875 27.296875 -1.21875 
Q 17.578125 -1.21875 11.171875 4.375 
Q 4.78125 9.96875 3.765625 19 
z
" id="Arial-BoldMT-51"/>
        <path d="M 5.609375 19.09375 
L 5.609375 32.8125 
L 32.5625 32.8125 
L 32.5625 19.09375 
z
" id="Arial-BoldMT-45"/>
        <path d="M 7.234375 71.578125 
L 33.640625 71.578125 
Q 42.578125 71.578125 47.265625 70.21875 
Q 53.5625 68.359375 58.046875 63.625 
Q 62.546875 58.890625 64.890625 52.03125 
Q 67.234375 45.171875 67.234375 35.109375 
Q 67.234375 26.265625 65.046875 19.875 
Q 62.359375 12.0625 57.375 7.234375 
Q 53.609375 3.5625 47.21875 1.515625 
Q 42.4375 0 34.421875 0 
L 7.234375 0 
z
M 21.6875 59.46875 
L 21.6875 12.0625 
L 32.46875 12.0625 
Q 38.53125 12.0625 41.21875 12.75 
Q 44.734375 13.625 47.046875 15.71875 
Q 49.359375 17.828125 50.828125 22.625 
Q 52.296875 27.4375 52.296875 35.75 
Q 52.296875 44.046875 50.828125 48.484375 
Q 49.359375 52.9375 46.71875 55.421875 
Q 44.09375 57.90625 40.046875 58.796875 
Q 37.015625 59.46875 28.171875 59.46875 
z
" id="Arial-BoldMT-68"/>
       </defs>
       <use xlink:href="#Arial-BoldMT-76"/>
       <use x="61.083984" xlink:href="#Arial-BoldMT-50"/>
       <use x="116.699219" xlink:href="#Arial-BoldMT-47"/>
       <use x="144.482422" xlink:href="#Arial-BoldMT-51"/>
       <use x="200.097656" xlink:href="#Arial-BoldMT-45"/>
       <use x="233.398438" xlink:href="#Arial-BoldMT-68"/>
      </g>
     </g>
    </g>
    <g id="xtick_2">
     <g id="text_2">
      <!-- L2/3-S -->
      <g transform="translate(128.483384 596.7295)rotate(-90)scale(0.1728 -0.1728)">
       <defs>
        <path d="M 3.609375 23.296875 
L 17.671875 24.65625 
Q 18.953125 17.578125 22.828125 14.25 
Q 26.703125 10.9375 33.296875 10.9375 
Q 40.28125 10.9375 43.8125 13.890625 
Q 47.359375 16.84375 47.359375 20.796875 
Q 47.359375 23.34375 45.875 25.125 
Q 44.390625 26.90625 40.671875 28.21875 
Q 38.140625 29.109375 29.109375 31.34375 
Q 17.484375 34.234375 12.796875 38.421875 
Q 6.203125 44.34375 6.203125 52.828125 
Q 6.203125 58.296875 9.296875 63.0625 
Q 12.40625 67.828125 18.234375 70.3125 
Q 24.078125 72.796875 32.328125 72.796875 
Q 45.796875 72.796875 52.609375 66.890625 
Q 59.421875 60.984375 59.765625 51.125 
L 45.3125 50.484375 
Q 44.390625 56 41.328125 58.421875 
Q 38.28125 60.84375 32.171875 60.84375 
Q 25.875 60.84375 22.3125 58.25 
Q 20.015625 56.59375 20.015625 53.8125 
Q 20.015625 51.265625 22.171875 49.46875 
Q 24.90625 47.171875 35.453125 44.671875 
Q 46 42.1875 51.046875 39.515625 
Q 56.109375 36.859375 58.953125 32.25 
Q 61.8125 27.640625 61.8125 20.84375 
Q 61.8125 14.703125 58.390625 9.328125 
Q 54.984375 3.953125 48.734375 1.34375 
Q 42.484375 -1.265625 33.15625 -1.265625 
Q 19.578125 -1.265625 12.296875 5 
Q 5.03125 11.28125 3.609375 23.296875 
z
" id="Arial-BoldMT-83"/>
       </defs>
       <use xlink:href="#Arial-BoldMT-76"/>
       <use x="61.083984" xlink:href="#Arial-BoldMT-50"/>
       <use x="116.699219" xlink:href="#Arial-BoldMT-47"/>
       <use x="144.482422" xlink:href="#Arial-BoldMT-51"/>
       <use x="200.097656" xlink:href="#Arial-BoldMT-45"/>
       <use x="233.398438" xlink:href="#Arial-BoldMT-83"/>
      </g>
     </g>
    </g>
    <g id="xtick_3">
     <g id="text_3">
      <!-- L5-D -->
      <g transform="translate(169.925062 583.2727)rotate(-90)scale(0.1728 -0.1728)">
       <defs>
        <path d="M 4.4375 18.40625 
L 18.109375 19.828125 
Q 18.703125 15.1875 21.578125 12.46875 
Q 24.46875 9.765625 28.21875 9.765625 
Q 32.515625 9.765625 35.5 13.25 
Q 38.484375 16.75 38.484375 23.78125 
Q 38.484375 30.375 35.515625 33.671875 
Q 32.5625 36.96875 27.828125 36.96875 
Q 21.921875 36.96875 17.234375 31.734375 
L 6.109375 33.34375 
L 13.140625 70.609375 
L 49.421875 70.609375 
L 49.421875 57.765625 
L 23.53125 57.765625 
L 21.390625 45.609375 
Q 25.984375 47.90625 30.765625 47.90625 
Q 39.890625 47.90625 46.234375 41.265625 
Q 52.59375 34.625 52.59375 24.03125 
Q 52.59375 15.1875 47.46875 8.25 
Q 40.484375 -1.21875 28.078125 -1.21875 
Q 18.171875 -1.21875 11.921875 4.09375 
Q 5.671875 9.421875 4.4375 18.40625 
z
" id="Arial-BoldMT-53"/>
       </defs>
       <use xlink:href="#Arial-BoldMT-76"/>
       <use x="61.083984" xlink:href="#Arial-BoldMT-53"/>
       <use x="116.699219" xlink:href="#Arial-BoldMT-45"/>
       <use x="150" xlink:href="#Arial-BoldMT-68"/>
      </g>
     </g>
    </g>
    <g id="xtick_4">
     <g id="text_4">
      <!-- L5-S -->
      <g transform="translate(211.366739 582.3196)rotate(-90)scale(0.1728 -0.1728)">
       <use xlink:href="#Arial-BoldMT-76"/>
       <use x="61.083984" xlink:href="#Arial-BoldMT-53"/>
       <use x="116.699219" xlink:href="#Arial-BoldMT-45"/>
       <use x="150" xlink:href="#Arial-BoldMT-83"/>
      </g>
     </g>
    </g>
   </g>
   <g id="matplotlib.axis_2">
    <g id="ytick_1">
     <g id="line2d_2">
      <defs>
       <path d="M 0 0 
L -8 0 
" id="mcc3eda84d2" style="stroke:#000000;stroke-width:4;"/>
      </defs>
      <g>
       <use style="stroke:#000000;stroke-width:4;" x="57.6974" xlink:href="#mcc3eda84d2" y="519.292168"/>
      </g>
     </g>
     <g id="text_5">
      <!-- 0 -->
      <g transform="translate(36.5881 525.476518)scale(0.1728 -0.1728)">
       <defs>
        <path d="M 27.4375 71.875 
Q 37.84375 71.875 43.703125 64.453125 
Q 50.6875 55.671875 50.6875 35.296875 
Q 50.6875 14.984375 43.65625 6.109375 
Q 37.84375 -1.21875 27.4375 -1.21875 
Q 17 -1.21875 10.59375 6.8125 
Q 4.203125 14.84375 4.203125 35.453125 
Q 4.203125 55.671875 11.234375 64.546875 
Q 17.046875 71.875 27.4375 71.875 
z
M 27.4375 60.5 
Q 24.953125 60.5 23 58.90625 
Q 21.046875 57.328125 19.96875 53.21875 
Q 18.5625 47.90625 18.5625 35.296875 
Q 18.5625 22.703125 19.828125 17.984375 
Q 21.09375 13.28125 23.015625 11.71875 
Q 24.953125 10.15625 27.4375 10.15625 
Q 29.9375 10.15625 31.890625 11.734375 
Q 33.84375 13.328125 34.90625 17.4375 
Q 36.328125 22.703125 36.328125 35.296875 
Q 36.328125 47.90625 35.0625 52.609375 
Q 33.796875 57.328125 31.859375 58.90625 
Q 29.9375 60.5 27.4375 60.5 
z
" id="Arial-BoldMT-48"/>
       </defs>
       <use xlink:href="#Arial-BoldMT-48"/>
      </g>
     </g>
    </g>
    <g id="ytick_2">
     <g id="line2d_3">
      <g>
       <use style="stroke:#000000;stroke-width:4;" x="57.6974" xlink:href="#mcc3eda84d2" y="406.389126"/>
      </g>
     </g>
    </g>
    <g id="ytick_3">
     <g id="line2d_4">
      <g>
       <use style="stroke:#000000;stroke-width:4;" x="57.6974" xlink:href="#mcc3eda84d2" y="293.486084"/>
      </g>
     </g>
     <g id="text_6">
      <!-- 30 -->
      <g transform="translate(26.9788 299.670434)scale(0.1728 -0.1728)">
       <use xlink:href="#Arial-BoldMT-51"/>
       <use x="55.615234" xlink:href="#Arial-BoldMT-48"/>
      </g>
     </g>
    </g>
    <g id="ytick_4">
     <g id="line2d_5">
      <g>
       <use style="stroke:#000000;stroke-width:4;" x="57.6974" xlink:href="#mcc3eda84d2" y="180.583042"/>
      </g>
     </g>
    </g>
    <g id="ytick_5">
     <g id="line2d_6">
      <g>
       <use style="stroke:#000000;stroke-width:4;" x="57.6974" xlink:href="#mcc3eda84d2" y="67.68"/>
      </g>
     </g>
     <g id="text_7">
      <!-- 60 -->
      <g transform="translate(26.9788 73.86435)scale(0.1728 -0.1728)">
       <defs>
        <path d="M 50.734375 54.046875 
L 37.453125 52.59375 
Q 36.96875 56.6875 34.90625 58.640625 
Q 32.859375 60.59375 29.59375 60.59375 
Q 25.25 60.59375 22.234375 56.6875 
Q 19.234375 52.78125 18.453125 40.4375 
Q 23.578125 46.484375 31.203125 46.484375 
Q 39.796875 46.484375 45.921875 39.9375 
Q 52.046875 33.40625 52.046875 23.046875 
Q 52.046875 12.0625 45.59375 5.421875 
Q 39.15625 -1.21875 29.046875 -1.21875 
Q 18.21875 -1.21875 11.234375 7.203125 
Q 4.25 15.625 4.25 34.8125 
Q 4.25 54.5 11.515625 63.1875 
Q 18.796875 71.875 30.421875 71.875 
Q 38.578125 71.875 43.921875 67.3125 
Q 49.265625 62.75 50.734375 54.046875 
z
M 19.625 24.125 
Q 19.625 17.4375 22.703125 13.796875 
Q 25.78125 10.15625 29.734375 10.15625 
Q 33.546875 10.15625 36.078125 13.125 
Q 38.625 16.109375 38.625 22.90625 
Q 38.625 29.890625 35.890625 33.125 
Q 33.15625 36.375 29.046875 36.375 
Q 25.09375 36.375 22.359375 33.265625 
Q 19.625 30.171875 19.625 24.125 
z
" id="Arial-BoldMT-54"/>
       </defs>
       <use xlink:href="#Arial-BoldMT-54"/>
       <use x="55.615234" xlink:href="#Arial-BoldMT-48"/>
      </g>
     </g>
    </g>
    <g id="text_8">
     <!-- % -->
     <g transform="translate(19.5687 308.21085)rotate(-90)scale(0.1728 -0.1728)">
      <defs>
       <path d="M 4.34375 53.90625 
Q 4.34375 63.53125 8.5625 68.15625 
Q 12.796875 72.796875 20.015625 72.796875 
Q 27.484375 72.796875 31.703125 68.1875 
Q 35.9375 63.578125 35.9375 53.90625 
Q 35.9375 44.28125 31.703125 39.640625 
Q 27.484375 35.015625 20.265625 35.015625 
Q 12.796875 35.015625 8.5625 39.625 
Q 4.34375 44.234375 4.34375 53.90625 
z
M 15.046875 54 
Q 15.046875 47.015625 16.65625 44.625 
Q 17.875 42.875 20.015625 42.875 
Q 22.21875 42.875 23.4375 44.625 
Q 25 47.015625 25 54 
Q 25 60.984375 23.4375 63.328125 
Q 22.21875 65.140625 20.015625 65.140625 
Q 17.875 65.140625 16.65625 63.375 
Q 15.046875 60.984375 15.046875 54 
z
M 30.46875 -2.734375 
L 20.3125 -2.734375 
L 58.453125 72.796875 
L 68.3125 72.796875 
z
M 52.640625 16.0625 
Q 52.640625 25.6875 56.859375 30.328125 
Q 61.078125 34.96875 68.40625 34.96875 
Q 75.78125 34.96875 80 30.328125 
Q 84.234375 25.6875 84.234375 16.0625 
Q 84.234375 6.390625 80 1.75 
Q 75.78125 -2.875 68.5625 -2.875 
Q 61.078125 -2.875 56.859375 1.75 
Q 52.640625 6.390625 52.640625 16.0625 
z
M 63.328125 16.109375 
Q 63.328125 9.125 64.9375 6.78125 
Q 66.15625 4.984375 68.3125 4.984375 
Q 70.515625 4.984375 71.6875 6.734375 
Q 73.296875 9.125 73.296875 16.109375 
Q 73.296875 23.09375 71.734375 25.484375 
Q 70.515625 27.25 68.3125 27.25 
Q 66.109375 27.25 64.9375 25.484375 
Q 63.328125 23.09375 63.328125 16.109375 
z
" id="Arial-BoldMT-37"/>
      </defs>
      <use xlink:href="#Arial-BoldMT-37"/>
     </g>
    </g>
   </g>
   <g id="line2d_7">
    <path clip-path="url(#pc2f6f52784)" d="M 57.6974 519.292168 
L 231.752446 519.292168 
" style="fill:none;stroke:#000000;stroke-linecap:square;stroke-width:4;"/>
   </g>
   <g id="line2d_8">
    <path clip-path="url(#pc2f6f52784)" d="M 82.562407 339.510254 
" style="fill:none;stroke:#64a23d;stroke-linecap:square;stroke-width:5;"/>
    <defs>
     <path d="M 0 6.5 
C 1.72382 6.5 3.377269 5.815119 4.596194 4.596194 
C 5.815119 3.377269 6.5 1.72382 6.5 0 
C 6.5 -1.72382 5.815119 -3.377269 4.596194 -4.596194 
C 3.377269 -5.815119 1.72382 -6.5 0 -6.5 
C -1.72382 -6.5 -3.377269 -5.815119 -4.596194 -4.596194 
C -5.815119 -3.377269 -6.5 -1.72382 -6.5 0 
C -6.5 1.72382 -5.815119 3.377269 -4.596194 4.596194 
C -3.377269 5.815119 -1.72382 6.5 0 6.5 
z
" id="mbdfd0e9b0f" style="stroke:#64a23d;stroke-width:2.5;"/>
    </defs>
    <g clip-path="url(#pc2f6f52784)">
     <use style="fill-opacity:0;stroke:#64a23d;stroke-width:2.5;" x="82.562407" xlink:href="#mbdfd0e9b0f" y="339.510254"/>
    </g>
   </g>
   <g id="line2d_9">
    <path clip-path="url(#pc2f6f52784)" d="M 82.562407 339.510254 
" style="fill:none;stroke:#64a23d;stroke-linecap:square;stroke-opacity:0.5;stroke-width:5;"/>
    <defs>
     <path d="M 0 6.5 
C 1.72382 6.5 3.377269 5.815119 4.596194 4.596194 
C 5.815119 3.377269 6.5 1.72382 6.5 0 
C 6.5 -1.72382 5.815119 -3.377269 4.596194 -4.596194 
C 3.377269 -5.815119 1.72382 -6.5 0 -6.5 
C -1.72382 -6.5 -3.377269 -5.815119 -4.596194 -4.596194 
C -5.815119 -3.377269 -6.5 -1.72382 -6.5 0 
C -6.5 1.72382 -5.815119 3.377269 -4.596194 4.596194 
C -3.377269 5.815119 -1.72382 6.5 0 6.5 
z
" id="mae4f5e3473" style="stroke:#64a23d;stroke-opacity:0.5;stroke-width:4;"/>
    </defs>
    <g clip-path="url(#pc2f6f52784)">
     <use style="fill:#64a23d;fill-opacity:0.5;stroke:#64a23d;stroke-opacity:0.5;stroke-width:4;" x="82.562407" xlink:href="#mae4f5e3473" y="339.510254"/>
    </g>
   </g>
   <g id="line2d_10">
    <path clip-path="url(#pc2f6f52784)" d="M 82.562407 473.737525 
" style="fill:none;stroke:#8cc668;stroke-linecap:square;stroke-width:5;"/>
    <defs>
     <path d="M 0 6.5 
C 1.72382 6.5 3.377269 5.815119 4.596194 4.596194 
C 5.815119 3.377269 6.5 1.72382 6.5 0 
C 6.5 -1.72382 5.815119 -3.377269 4.596194 -4.596194 
C 3.377269 -5.815119 1.72382 -6.5 0 -6.5 
C -1.72382 -6.5 -3.377269 -5.815119 -4.596194 -4.596194 
C -5.815119 -3.377269 -6.5 -1.72382 -6.5 0 
C -6.5 1.72382 -5.815119 3.377269 -4.596194 4.596194 
C -3.377269 5.815119 -1.72382 6.5 0 6.5 
z
" id="mb1f9f98a30" style="stroke:#8cc668;stroke-width:2.5;"/>
    </defs>
    <g clip-path="url(#pc2f6f52784)">
     <use style="fill-opacity:0;stroke:#8cc668;stroke-width:2.5;" x="82.562407" xlink:href="#mb1f9f98a30" y="473.737525"/>
    </g>
   </g>
   <g id="line2d_11">
    <path clip-path="url(#pc2f6f52784)" d="M 82.562407 473.737525 
" style="fill:none;stroke:#8cc668;stroke-linecap:square;stroke-opacity:0.5;stroke-width:5;"/>
    <defs>
     <path d="M 0 6.5 
C 1.72382 6.5 3.377269 5.815119 4.596194 4.596194 
C 5.815119 3.377269 6.5 1.72382 6.5 0 
C 6.5 -1.72382 5.815119 -3.377269 4.596194 -4.596194 
C 3.377269 -5.815119 1.72382 -6.5 0 -6.5 
C -1.72382 -6.5 -3.377269 -5.815119 -4.596194 -4.596194 
C -5.815119 -3.377269 -6.5 -1.72382 -6.5 0 
C -6.5 1.72382 -5.815119 3.377269 -4.596194 4.596194 
C -3.377269 5.815119 -1.72382 6.5 0 6.5 
z
" id="mc80caaa6f8" style="stroke:#8cc668;stroke-opacity:0.5;stroke-width:4;"/>
    </defs>
    <g clip-path="url(#pc2f6f52784)">
     <use style="fill:#8cc668;fill-opacity:0.5;stroke:#8cc668;stroke-opacity:0.5;stroke-width:4;" x="82.562407" xlink:href="#mc80caaa6f8" y="473.737525"/>
    </g>
   </g>
   <g id="line2d_12">
    <path clip-path="url(#pc2f6f52784)" d="M 124.004084 472.249234 
" style="fill:none;stroke:#2875a5;stroke-linecap:square;stroke-width:5;"/>
    <defs>
     <path d="M 0 6.5 
C 1.72382 6.5 3.377269 5.815119 4.596194 4.596194 
C 5.815119 3.377269 6.5 1.72382 6.5 0 
C 6.5 -1.72382 5.815119 -3.377269 4.596194 -4.596194 
C 3.377269 -5.815119 1.72382 -6.5 0 -6.5 
C -1.72382 -6.5 -3.377269 -5.815119 -4.596194 -4.596194 
C -5.815119 -3.377269 -6.5 -1.72382 -6.5 0 
C -6.5 1.72382 -5.815119 3.377269 -4.596194 4.596194 
C -3.377269 5.815119 -1.72382 6.5 0 6.5 
z
" id="m01a9aa7c4b" style="stroke:#2875a5;stroke-width:2.5;"/>
    </defs>
    <g clip-path="url(#pc2f6f52784)">
     <use style="fill-opacity:0;stroke:#2875a5;stroke-width:2.5;" x="124.004084" xlink:href="#m01a9aa7c4b" y="472.249234"/>
    </g>
   </g>
   <g id="line2d_13">
    <path clip-path="url(#pc2f6f52784)" d="M 124.004084 472.249234 
" style="fill:none;stroke:#2875a5;stroke-linecap:square;stroke-opacity:0.5;stroke-width:5;"/>
    <defs>
     <path d="M 0 6.5 
C 1.72382 6.5 3.377269 5.815119 4.596194 4.596194 
C 5.815119 3.377269 6.5 1.72382 6.5 0 
C 6.5 -1.72382 5.815119 -3.377269 4.596194 -4.596194 
C 3.377269 -5.815119 1.72382 -6.5 0 -6.5 
C -1.72382 -6.5 -3.377269 -5.815119 -4.596194 -4.596194 
C -5.815119 -3.377269 -6.5 -1.72382 -6.5 0 
C -6.5 1.72382 -5.815119 3.377269 -4.596194 4.596194 
C -3.377269 5.815119 -1.72382 6.5 0 6.5 
z
" id="md304c7bcdc" style="stroke:#2875a5;stroke-opacity:0.5;stroke-width:4;"/>
    </defs>
    <g clip-path="url(#pc2f6f52784)">
     <use style="fill:#2875a5;fill-opacity:0.5;stroke:#2875a5;stroke-opacity:0.5;stroke-width:4;" x="124.004084" xlink:href="#md304c7bcdc" y="472.249234"/>
    </g>
   </g>
   <g id="line2d_14">
    <path clip-path="url(#pc2f6f52784)" d="M 124.004084 181.880778 
" style="fill:none;stroke:#50a2d5;stroke-linecap:square;stroke-width:5;"/>
    <defs>
     <path d="M 0 6.5 
C 1.72382 6.5 3.377269 5.815119 4.596194 4.596194 
C 5.815119 3.377269 6.5 1.72382 6.5 0 
C 6.5 -1.72382 5.815119 -3.377269 4.596194 -4.596194 
C 3.377269 -5.815119 1.72382 -6.5 0 -6.5 
C -1.72382 -6.5 -3.377269 -5.815119 -4.596194 -4.596194 
C -5.815119 -3.377269 -6.5 -1.72382 -6.5 0 
C -6.5 1.72382 -5.815119 3.377269 -4.596194 4.596194 
C -3.377269 5.815119 -1.72382 6.5 0 6.5 
z
" id="m2aeebdcf5a" style="stroke:#50a2d5;stroke-width:2.5;"/>
    </defs>
    <g clip-path="url(#pc2f6f52784)">
     <use style="fill-opacity:0;stroke:#50a2d5;stroke-width:2.5;" x="124.004084" xlink:href="#m2aeebdcf5a" y="181.880778"/>
    </g>
   </g>
   <g id="line2d_15">
    <path clip-path="url(#pc2f6f52784)" d="M 124.004084 181.880778 
" style="fill:none;stroke:#50a2d5;stroke-linecap:square;stroke-opacity:0.5;stroke-width:5;"/>
    <defs>
     <path d="M 0 6.5 
C 1.72382 6.5 3.377269 5.815119 4.596194 4.596194 
C 5.815119 3.377269 6.5 1.72382 6.5 0 
C 6.5 -1.72382 5.815119 -3.377269 4.596194 -4.596194 
C 3.377269 -5.815119 1.72382 -6.5 0 -6.5 
C -1.72382 -6.5 -3.377269 -5.815119 -4.596194 -4.596194 
C -5.815119 -3.377269 -6.5 -1.72382 -6.5 0 
C -6.5 1.72382 -5.815119 3.377269 -4.596194 4.596194 
C -3.377269 5.815119 -1.72382 6.5 0 6.5 
z
" id="ma32da495ea" style="stroke:#50a2d5;stroke-opacity:0.5;stroke-width:4;"/>
    </defs>
    <g clip-path="url(#pc2f6f52784)">
     <use style="fill:#50a2d5;fill-opacity:0.5;stroke:#50a2d5;stroke-opacity:0.5;stroke-width:4;" x="124.004084" xlink:href="#ma32da495ea" y="181.880778"/>
    </g>
   </g>
   <g id="line2d_16">
    <path clip-path="url(#pc2f6f52784)" d="M 124.004084 482.329863 
" style="fill:none;stroke:#97c8e6;stroke-linecap:square;stroke-width:5;"/>
    <defs>
     <path d="M 0 6.5 
C 1.72382 6.5 3.377269 5.815119 4.596194 4.596194 
C 5.815119 3.377269 6.5 1.72382 6.5 0 
C 6.5 -1.72382 5.815119 -3.377269 4.596194 -4.596194 
C 3.377269 -5.815119 1.72382 -6.5 0 -6.5 
C -1.72382 -6.5 -3.377269 -5.815119 -4.596194 -4.596194 
C -5.815119 -3.377269 -6.5 -1.72382 -6.5 0 
C -6.5 1.72382 -5.815119 3.377269 -4.596194 4.596194 
C -3.377269 5.815119 -1.72382 6.5 0 6.5 
z
" id="m83af50e5af" style="stroke:#97c8e6;stroke-width:2.5;"/>
    </defs>
    <g clip-path="url(#pc2f6f52784)">
     <use style="fill-opacity:0;stroke:#97c8e6;stroke-width:2.5;" x="124.004084" xlink:href="#m83af50e5af" y="482.329863"/>
    </g>
   </g>
   <g id="line2d_17">
    <path clip-path="url(#pc2f6f52784)" d="M 124.004084 482.329863 
" style="fill:none;stroke:#97c8e6;stroke-linecap:square;stroke-opacity:0.5;stroke-width:5;"/>
    <defs>
     <path d="M 0 6.5 
C 1.72382 6.5 3.377269 5.815119 4.596194 4.596194 
C 5.815119 3.377269 6.5 1.72382 6.5 0 
C 6.5 -1.72382 5.815119 -3.377269 4.596194 -4.596194 
C 3.377269 -5.815119 1.72382 -6.5 0 -6.5 
C -1.72382 -6.5 -3.377269 -5.815119 -4.596194 -4.596194 
C -5.815119 -3.377269 -6.5 -1.72382 -6.5 0 
C -6.5 1.72382 -5.815119 3.377269 -4.596194 4.596194 
C -3.377269 5.815119 -1.72382 6.5 0 6.5 
z
" id="maf8686b536" style="stroke:#97c8e6;stroke-opacity:0.5;stroke-width:4;"/>
    </defs>
    <g clip-path="url(#pc2f6f52784)">
     <use style="fill:#97c8e6;fill-opacity:0.5;stroke:#97c8e6;stroke-opacity:0.5;stroke-width:4;" x="124.004084" xlink:href="#maf8686b536" y="482.329863"/>
    </g>
   </g>
   <g id="line2d_18">
    <path clip-path="url(#pc2f6f52784)" d="M 165.445762 475.232444 
" style="fill:none;stroke:#326117;stroke-linecap:square;stroke-width:5;"/>
    <defs>
     <path d="M 0 6.5 
C 1.72382 6.5 3.377269 5.815119 4.596194 4.596194 
C 5.815119 3.377269 6.5 1.72382 6.5 0 
C 6.5 -1.72382 5.815119 -3.377269 4.596194 -4.596194 
C 3.377269 -5.815119 1.72382 -6.5 0 -6.5 
C -1.72382 -6.5 -3.377269 -5.815119 -4.596194 -4.596194 
C -5.815119 -3.377269 -6.5 -1.72382 -6.5 0 
C -6.5 1.72382 -5.815119 3.377269 -4.596194 4.596194 
C -3.377269 5.815119 -1.72382 6.5 0 6.5 
z
" id="mddd532152e" style="stroke:#326117;stroke-width:2.5;"/>
    </defs>
    <g clip-path="url(#pc2f6f52784)">
     <use style="fill-opacity:0;stroke:#326117;stroke-width:2.5;" x="165.445762" xlink:href="#mddd532152e" y="475.232444"/>
    </g>
   </g>
   <g id="line2d_19">
    <path clip-path="url(#pc2f6f52784)" d="M 165.445762 475.232444 
" style="fill:none;stroke:#326117;stroke-linecap:square;stroke-opacity:0.5;stroke-width:5;"/>
    <defs>
     <path d="M 0 6.5 
C 1.72382 6.5 3.377269 5.815119 4.596194 4.596194 
C 5.815119 3.377269 6.5 1.72382 6.5 0 
C 6.5 -1.72382 5.815119 -3.377269 4.596194 -4.596194 
C 3.377269 -5.815119 1.72382 -6.5 0 -6.5 
C -1.72382 -6.5 -3.377269 -5.815119 -4.596194 -4.596194 
C -5.815119 -3.377269 -6.5 -1.72382 -6.5 0 
C -6.5 1.72382 -5.815119 3.377269 -4.596194 4.596194 
C -3.377269 5.815119 -1.72382 6.5 0 6.5 
z
" id="m19efd7d041" style="stroke:#326117;stroke-opacity:0.5;stroke-width:4;"/>
    </defs>
    <g clip-path="url(#pc2f6f52784)">
     <use style="fill:#326117;fill-opacity:0.5;stroke:#326117;stroke-opacity:0.5;stroke-width:4;" x="165.445762" xlink:href="#m19efd7d041" y="475.232444"/>
    </g>
   </g>
   <g id="line2d_20">
    <path clip-path="url(#pc2f6f52784)" d="M 165.445762 514.691392 
" style="fill:none;stroke:#488a21;stroke-linecap:square;stroke-width:5;"/>
    <defs>
     <path d="M 0 6.5 
C 1.72382 6.5 3.377269 5.815119 4.596194 4.596194 
C 5.815119 3.377269 6.5 1.72382 6.5 0 
C 6.5 -1.72382 5.815119 -3.377269 4.596194 -4.596194 
C 3.377269 -5.815119 1.72382 -6.5 0 -6.5 
C -1.72382 -6.5 -3.377269 -5.815119 -4.596194 -4.596194 
C -5.815119 -3.377269 -6.5 -1.72382 -6.5 0 
C -6.5 1.72382 -5.815119 3.377269 -4.596194 4.596194 
C -3.377269 5.815119 -1.72382 6.5 0 6.5 
z
" id="m5245457657" style="stroke:#488a21;stroke-width:2.5;"/>
    </defs>
    <g clip-path="url(#pc2f6f52784)">
     <use style="fill-opacity:0;stroke:#488a21;stroke-width:2.5;" x="165.445762" xlink:href="#m5245457657" y="514.691392"/>
    </g>
   </g>
   <g id="line2d_21">
    <path clip-path="url(#pc2f6f52784)" d="M 165.445762 514.691392 
" style="fill:none;stroke:#488a21;stroke-linecap:square;stroke-opacity:0.5;stroke-width:5;"/>
    <defs>
     <path d="M 0 6.5 
C 1.72382 6.5 3.377269 5.815119 4.596194 4.596194 
C 5.815119 3.377269 6.5 1.72382 6.5 0 
C 6.5 -1.72382 5.815119 -3.377269 4.596194 -4.596194 
C 3.377269 -5.815119 1.72382 -6.5 0 -6.5 
C -1.72382 -6.5 -3.377269 -5.815119 -4.596194 -4.596194 
C -5.815119 -3.377269 -6.5 -1.72382 -6.5 0 
C -6.5 1.72382 -5.815119 3.377269 -4.596194 4.596194 
C -3.377269 5.815119 -1.72382 6.5 0 6.5 
z
" id="me2ddbc68ef" style="stroke:#488a21;stroke-opacity:0.5;stroke-width:4;"/>
    </defs>
    <g clip-path="url(#pc2f6f52784)">
     <use style="fill:#488a21;fill-opacity:0.5;stroke:#488a21;stroke-opacity:0.5;stroke-width:4;" x="165.445762" xlink:href="#me2ddbc68ef" y="514.691392"/>
    </g>
   </g>
   <g id="line2d_22">
    <path clip-path="url(#pc2f6f52784)" d="M 165.445762 338.522632 
" style="fill:none;stroke:#5eb32b;stroke-linecap:square;stroke-width:5;"/>
    <defs>
     <path d="M 0 6.5 
C 1.72382 6.5 3.377269 5.815119 4.596194 4.596194 
C 5.815119 3.377269 6.5 1.72382 6.5 0 
C 6.5 -1.72382 5.815119 -3.377269 4.596194 -4.596194 
C 3.377269 -5.815119 1.72382 -6.5 0 -6.5 
C -1.72382 -6.5 -3.377269 -5.815119 -4.596194 -4.596194 
C -5.815119 -3.377269 -6.5 -1.72382 -6.5 0 
C -6.5 1.72382 -5.815119 3.377269 -4.596194 4.596194 
C -3.377269 5.815119 -1.72382 6.5 0 6.5 
z
" id="mff40a02bc7" style="stroke:#5eb32b;stroke-width:2.5;"/>
    </defs>
    <g clip-path="url(#pc2f6f52784)">
     <use style="fill-opacity:0;stroke:#5eb32b;stroke-width:2.5;" x="165.445762" xlink:href="#mff40a02bc7" y="338.522632"/>
    </g>
   </g>
   <g id="line2d_23">
    <path clip-path="url(#pc2f6f52784)" d="M 165.445762 338.522632 
" style="fill:none;stroke:#5eb32b;stroke-linecap:square;stroke-opacity:0.5;stroke-width:5;"/>
    <defs>
     <path d="M 0 6.5 
C 1.72382 6.5 3.377269 5.815119 4.596194 4.596194 
C 5.815119 3.377269 6.5 1.72382 6.5 0 
C 6.5 -1.72382 5.815119 -3.377269 4.596194 -4.596194 
C 3.377269 -5.815119 1.72382 -6.5 0 -6.5 
C -1.72382 -6.5 -3.377269 -5.815119 -4.596194 -4.596194 
C -5.815119 -3.377269 -6.5 -1.72382 -6.5 0 
C -6.5 1.72382 -5.815119 3.377269 -4.596194 4.596194 
C -3.377269 5.815119 -1.72382 6.5 0 6.5 
z
" id="m243555407a" style="stroke:#5eb32b;stroke-opacity:0.5;stroke-width:4;"/>
    </defs>
    <g clip-path="url(#pc2f6f52784)">
     <use style="fill:#5eb32b;fill-opacity:0.5;stroke:#5eb32b;stroke-opacity:0.5;stroke-width:4;" x="165.445762" xlink:href="#m243555407a" y="338.522632"/>
    </g>
   </g>
   <g id="line2d_24">
    <path clip-path="url(#pc2f6f52784)" d="M 206.887439 469.113038 
" style="fill:none;stroke:#183c55;stroke-linecap:square;stroke-width:5;"/>
    <defs>
     <path d="M 0 6.5 
C 1.72382 6.5 3.377269 5.815119 4.596194 4.596194 
C 5.815119 3.377269 6.5 1.72382 6.5 0 
C 6.5 -1.72382 5.815119 -3.377269 4.596194 -4.596194 
C 3.377269 -5.815119 1.72382 -6.5 0 -6.5 
C -1.72382 -6.5 -3.377269 -5.815119 -4.596194 -4.596194 
C -5.815119 -3.377269 -6.5 -1.72382 -6.5 0 
C -6.5 1.72382 -5.815119 3.377269 -4.596194 4.596194 
C -3.377269 5.815119 -1.72382 6.5 0 6.5 
z
" id="maf23187695" style="stroke:#183c55;stroke-width:2.5;"/>
    </defs>
    <g clip-path="url(#pc2f6f52784)">
     <use style="fill-opacity:0;stroke:#183c55;stroke-width:2.5;" x="206.887439" xlink:href="#maf23187695" y="469.113038"/>
    </g>
   </g>
   <g id="line2d_25">
    <path clip-path="url(#pc2f6f52784)" d="M 206.887439 469.113038 
" style="fill:none;stroke:#183c55;stroke-linecap:square;stroke-opacity:0.5;stroke-width:5;"/>
    <defs>
     <path d="M 0 6.5 
C 1.72382 6.5 3.377269 5.815119 4.596194 4.596194 
C 5.815119 3.377269 6.5 1.72382 6.5 0 
C 6.5 -1.72382 5.815119 -3.377269 4.596194 -4.596194 
C 3.377269 -5.815119 1.72382 -6.5 0 -6.5 
C -1.72382 -6.5 -3.377269 -5.815119 -4.596194 -4.596194 
C -5.815119 -3.377269 -6.5 -1.72382 -6.5 0 
C -6.5 1.72382 -5.815119 3.377269 -4.596194 4.596194 
C -3.377269 5.815119 -1.72382 6.5 0 6.5 
z
" id="ma1c2093bba" style="stroke:#183c55;stroke-opacity:0.5;stroke-width:4;"/>
    </defs>
    <g clip-path="url(#pc2f6f52784)">
     <use style="fill:#183c55;fill-opacity:0.5;stroke:#183c55;stroke-opacity:0.5;stroke-width:4;" x="206.887439" xlink:href="#ma1c2093bba" y="469.113038"/>
    </g>
   </g>
   <g id="line2d_26">
    <path clip-path="url(#pc2f6f52784)" d="M 206.887439 418.933909 
" style="fill:none;stroke:#22567a;stroke-linecap:square;stroke-width:5;"/>
    <defs>
     <path d="M 0 6.5 
C 1.72382 6.5 3.377269 5.815119 4.596194 4.596194 
C 5.815119 3.377269 6.5 1.72382 6.5 0 
C 6.5 -1.72382 5.815119 -3.377269 4.596194 -4.596194 
C 3.377269 -5.815119 1.72382 -6.5 0 -6.5 
C -1.72382 -6.5 -3.377269 -5.815119 -4.596194 -4.596194 
C -5.815119 -3.377269 -6.5 -1.72382 -6.5 0 
C -6.5 1.72382 -5.815119 3.377269 -4.596194 4.596194 
C -3.377269 5.815119 -1.72382 6.5 0 6.5 
z
" id="md3c53b9214" style="stroke:#22567a;stroke-width:2.5;"/>
    </defs>
    <g clip-path="url(#pc2f6f52784)">
     <use style="fill-opacity:0;stroke:#22567a;stroke-width:2.5;" x="206.887439" xlink:href="#md3c53b9214" y="418.933909"/>
    </g>
   </g>
   <g id="line2d_27">
    <path clip-path="url(#pc2f6f52784)" d="M 206.887439 418.933909 
" style="fill:none;stroke:#22567a;stroke-linecap:square;stroke-opacity:0.5;stroke-width:5;"/>
    <defs>
     <path d="M 0 6.5 
C 1.72382 6.5 3.377269 5.815119 4.596194 4.596194 
C 5.815119 3.377269 6.5 1.72382 6.5 0 
C 6.5 -1.72382 5.815119 -3.377269 4.596194 -4.596194 
C 3.377269 -5.815119 1.72382 -6.5 0 -6.5 
C -1.72382 -6.5 -3.377269 -5.815119 -4.596194 -4.596194 
C -5.815119 -3.377269 -6.5 -1.72382 -6.5 0 
C -6.5 1.72382 -5.815119 3.377269 -4.596194 4.596194 
C -3.377269 5.815119 -1.72382 6.5 0 6.5 
z
" id="m02f3327d36" style="stroke:#22567a;stroke-opacity:0.5;stroke-width:4;"/>
    </defs>
    <g clip-path="url(#pc2f6f52784)">
     <use style="fill:#22567a;fill-opacity:0.5;stroke:#22567a;stroke-opacity:0.5;stroke-width:4;" x="206.887439" xlink:href="#m02f3327d36" y="418.933909"/>
    </g>
   </g>
   <g id="line2d_28">
    <path clip-path="url(#pc2f6f52784)" d="M 206.887439 473.674777 
" style="fill:none;stroke:#2c709f;stroke-linecap:square;stroke-width:5;"/>
    <defs>
     <path d="M 0 6.5 
C 1.72382 6.5 3.377269 5.815119 4.596194 4.596194 
C 5.815119 3.377269 6.5 1.72382 6.5 0 
C 6.5 -1.72382 5.815119 -3.377269 4.596194 -4.596194 
C 3.377269 -5.815119 1.72382 -6.5 0 -6.5 
C -1.72382 -6.5 -3.377269 -5.815119 -4.596194 -4.596194 
C -5.815119 -3.377269 -6.5 -1.72382 -6.5 0 
C -6.5 1.72382 -5.815119 3.377269 -4.596194 4.596194 
C -3.377269 5.815119 -1.72382 6.5 0 6.5 
z
" id="m200ed021e5" style="stroke:#2c709f;stroke-width:2.5;"/>
    </defs>
    <g clip-path="url(#pc2f6f52784)">
     <use style="fill-opacity:0;stroke:#2c709f;stroke-width:2.5;" x="206.887439" xlink:href="#m200ed021e5" y="473.674777"/>
    </g>
   </g>
   <g id="line2d_29">
    <path clip-path="url(#pc2f6f52784)" d="M 206.887439 473.674777 
" style="fill:none;stroke:#2c709f;stroke-linecap:square;stroke-opacity:0.5;stroke-width:5;"/>
    <defs>
     <path d="M 0 6.5 
C 1.72382 6.5 3.377269 5.815119 4.596194 4.596194 
C 5.815119 3.377269 6.5 1.72382 6.5 0 
C 6.5 -1.72382 5.815119 -3.377269 4.596194 -4.596194 
C 3.377269 -5.815119 1.72382 -6.5 0 -6.5 
C -1.72382 -6.5 -3.377269 -5.815119 -4.596194 -4.596194 
C -5.815119 -3.377269 -6.5 -1.72382 -6.5 0 
C -6.5 1.72382 -5.815119 3.377269 -4.596194 4.596194 
C -3.377269 5.815119 -1.72382 6.5 0 6.5 
z
" id="mba69a87d58" style="stroke:#2c709f;stroke-opacity:0.5;stroke-width:4;"/>
    </defs>
    <g clip-path="url(#pc2f6f52784)">
     <use style="fill:#2c709f;fill-opacity:0.5;stroke:#2c709f;stroke-opacity:0.5;stroke-width:4;" x="206.887439" xlink:href="#mba69a87d58" y="473.674777"/>
    </g>
   </g>
   <g id="patch_11">
    <path d="M 57.6974 533.376 
L 57.6974 67.68 
" style="fill:none;stroke:#000000;stroke-linecap:square;stroke-linejoin:miter;stroke-width:4;"/>
   </g>
   <g id="text_9">
    <!-- *** -->
    <g style="fill:#64a23d;" transform="translate(68.550532 334.154873)scale(0.24 -0.24)">
     <defs>
      <path d="M 11.96875 38.671875 
L 4.59375 44.390625 
Q 8.109375 48.34375 11.921875 51.953125 
Q 13.421875 53.421875 13.8125 53.8125 
Q 12.59375 54 6.84375 55.421875 
Q 2.6875 56.453125 1.375 56.9375 
L 4.25 65.53125 
Q 10.640625 62.9375 15.671875 59.8125 
Q 14.5 67.78125 14.5 72.796875 
L 23.1875 72.796875 
Q 23.1875 69.234375 21.875 59.71875 
Q 22.859375 60.109375 26.078125 61.625 
Q 30.46875 63.625 34.1875 65.046875 
L 36.765625 56.203125 
Q 31.34375 54.984375 24.21875 53.8125 
L 30.078125 47.21875 
Q 31.84375 45.21875 32.859375 43.953125 
L 25.390625 39.015625 
L 18.796875 49.90625 
Q 15.828125 44.625 11.96875 38.671875 
z
" id="Arial-BoldMT-42"/>
     </defs>
     <use xlink:href="#Arial-BoldMT-42"/>
     <use x="38.916016" xlink:href="#Arial-BoldMT-42"/>
     <use x="77.832031" xlink:href="#Arial-BoldMT-42"/>
    </g>
   </g>
   <g id="text_10">
    <!-- *** -->
    <g style="fill:#8cc668;" transform="translate(68.550532 468.382144)scale(0.24 -0.24)">
     <use xlink:href="#Arial-BoldMT-42"/>
     <use x="38.916016" xlink:href="#Arial-BoldMT-42"/>
     <use x="77.832031" xlink:href="#Arial-BoldMT-42"/>
    </g>
   </g>
   <g id="text_11">
    <!-- *** -->
    <g style="fill:#50a2d5;" transform="translate(109.992209 176.525397)scale(0.24 -0.24)">
     <use xlink:href="#Arial-BoldMT-42"/>
     <use x="38.916016" xlink:href="#Arial-BoldMT-42"/>
     <use x="77.832031" xlink:href="#Arial-BoldMT-42"/>
    </g>
   </g>
   <g id="text_12">
    <!-- *** -->
    <g style="fill:#488a21;" transform="translate(151.433887 509.336011)scale(0.24 -0.24)">
     <use xlink:href="#Arial-BoldMT-42"/>
     <use x="38.916016" xlink:href="#Arial-BoldMT-42"/>
     <use x="77.832031" xlink:href="#Arial-BoldMT-42"/>
    </g>
   </g>
   <g id="text_13">
    <!-- *** -->
    <g style="fill:#5eb32b;" transform="translate(151.433887 333.167251)scale(0.24 -0.24)">
     <use xlink:href="#Arial-BoldMT-42"/>
     <use x="38.916016" xlink:href="#Arial-BoldMT-42"/>
     <use x="77.832031" xlink:href="#Arial-BoldMT-42"/>
    </g>
   </g>
   <g id="text_14">
    <!-- Low tail -->
    <g transform="translate(112.567923 61.68)scale(0.1728 -0.1728)">
     <defs>
      <path d="M 4 26.65625 
Q 4 33.5 7.375 39.890625 
Q 10.75 46.296875 16.921875 49.65625 
Q 23.09375 53.03125 30.71875 53.03125 
Q 42.484375 53.03125 50 45.390625 
Q 57.515625 37.75 57.515625 26.078125 
Q 57.515625 14.3125 49.921875 6.5625 
Q 42.328125 -1.171875 30.8125 -1.171875 
Q 23.6875 -1.171875 17.21875 2.046875 
Q 10.75 5.28125 7.375 11.5 
Q 4 17.71875 4 26.65625 
z
M 18.0625 25.921875 
Q 18.0625 18.21875 21.71875 14.109375 
Q 25.390625 10.015625 30.765625 10.015625 
Q 36.140625 10.015625 39.765625 14.109375 
Q 43.40625 18.21875 43.40625 26.03125 
Q 43.40625 33.640625 39.765625 37.734375 
Q 36.140625 41.84375 30.765625 41.84375 
Q 25.390625 41.84375 21.71875 37.734375 
Q 18.0625 33.640625 18.0625 25.921875 
z
" id="Arial-BoldMT-111"/>
      <path d="M 16.84375 0 
L 0.4375 51.859375 
L 13.765625 51.859375 
L 23.484375 17.875 
L 32.421875 51.859375 
L 45.65625 51.859375 
L 54.296875 17.875 
L 64.203125 51.859375 
L 77.734375 51.859375 
L 61.078125 0 
L 47.90625 0 
L 38.96875 33.34375 
L 30.171875 0 
z
" id="Arial-BoldMT-119"/>
      <path id="Arial-BoldMT-32"/>
      <path d="M 30.953125 51.859375 
L 30.953125 40.921875 
L 21.578125 40.921875 
L 21.578125 20.015625 
Q 21.578125 13.671875 21.84375 12.625 
Q 22.125 11.578125 23.078125 10.890625 
Q 24.03125 10.203125 25.390625 10.203125 
Q 27.296875 10.203125 30.90625 11.53125 
L 32.078125 0.875 
Q 27.296875 -1.171875 21.234375 -1.171875 
Q 17.53125 -1.171875 14.546875 0.0625 
Q 11.578125 1.3125 10.1875 3.296875 
Q 8.796875 5.28125 8.25 8.640625 
Q 7.8125 11.03125 7.8125 18.3125 
L 7.8125 40.921875 
L 1.515625 40.921875 
L 1.515625 51.859375 
L 7.8125 51.859375 
L 7.8125 62.15625 
L 21.578125 70.171875 
L 21.578125 51.859375 
z
" id="Arial-BoldMT-116"/>
      <path d="M 17.4375 36.03125 
L 4.984375 38.28125 
Q 7.078125 45.796875 12.203125 49.40625 
Q 17.328125 53.03125 27.4375 53.03125 
Q 36.625 53.03125 41.109375 50.859375 
Q 45.609375 48.6875 47.4375 45.34375 
Q 49.265625 42 49.265625 33.0625 
L 49.125 17.046875 
Q 49.125 10.203125 49.78125 6.953125 
Q 50.4375 3.71875 52.25 0 
L 38.671875 0 
Q 38.140625 1.375 37.359375 4.046875 
Q 37.015625 5.28125 36.859375 5.671875 
Q 33.34375 2.25 29.34375 0.53125 
Q 25.34375 -1.171875 20.796875 -1.171875 
Q 12.796875 -1.171875 8.171875 3.171875 
Q 3.5625 7.515625 3.5625 14.15625 
Q 3.5625 18.5625 5.65625 22 
Q 7.765625 25.4375 11.546875 27.265625 
Q 15.328125 29.109375 22.46875 30.46875 
Q 32.078125 32.28125 35.796875 33.84375 
L 35.796875 35.203125 
Q 35.796875 39.15625 33.84375 40.84375 
Q 31.890625 42.53125 26.46875 42.53125 
Q 22.796875 42.53125 20.75 41.09375 
Q 18.703125 39.65625 17.4375 36.03125 
z
M 35.796875 24.90625 
Q 33.15625 24.03125 27.4375 22.796875 
Q 21.734375 21.578125 19.96875 20.40625 
Q 17.28125 18.5 17.28125 15.578125 
Q 17.28125 12.703125 19.421875 10.59375 
Q 21.578125 8.5 24.90625 8.5 
Q 28.609375 8.5 31.984375 10.9375 
Q 34.46875 12.796875 35.25 15.484375 
Q 35.796875 17.234375 35.796875 22.171875 
z
" id="Arial-BoldMT-97"/>
      <path d="M 7.171875 58.890625 
L 7.171875 71.578125 
L 20.90625 71.578125 
L 20.90625 58.890625 
z
M 7.171875 0 
L 7.171875 51.859375 
L 20.90625 51.859375 
L 20.90625 0 
z
" id="Arial-BoldMT-105"/>
      <path d="M 7.171875 0 
L 7.171875 71.578125 
L 20.90625 71.578125 
L 20.90625 0 
z
" id="Arial-BoldMT-108"/>
     </defs>
     <use xlink:href="#Arial-BoldMT-76"/>
     <use x="61.083984" xlink:href="#Arial-BoldMT-111"/>
     <use x="122.167969" xlink:href="#Arial-BoldMT-119"/>
     <use x="199.951172" xlink:href="#Arial-BoldMT-32"/>
     <use x="227.734375" xlink:href="#Arial-BoldMT-116"/>
     <use x="261.035156" xlink:href="#Arial-BoldMT-97"/>
     <use x="316.650391" xlink:href="#Arial-BoldMT-105"/>
     <use x="344.433594" xlink:href="#Arial-BoldMT-108"/>
    </g>
   </g>
  </g>
  <g id="axes_2">
   <g id="patch_12">
    <path d="M 263.082354 533.376 
L 437.1374 533.376 
L 437.1374 67.68 
L 263.082354 67.68 
z
" style="fill:#ffffff;"/>
   </g>
   <g id="line2d_30">
    <path clip-path="url(#pd85f237491)" d="M 263.082354 500.474994 
L 437.1374 500.474994 
" style="fill:none;stroke:#000000;stroke-dasharray:9,6;stroke-dashoffset:0;stroke-opacity:0.5;stroke-width:3;"/>
   </g>
   <g id="patch_13">
    <path clip-path="url(#pd85f237491)" d="M 275.514857 476.218697 
L 300.379864 476.218697 
L 300.379864 476.218697 
L 275.514857 476.218697 
z
" style="fill:#d3d3d3;"/>
   </g>
   <g id="patch_14">
    <path clip-path="url(#pd85f237491)" d="M 275.514857 478.47211 
L 300.379864 478.47211 
L 300.379864 473.965283 
L 275.514857 473.965283 
z
" style="fill:#76bb4b;"/>
   </g>
   <g id="patch_15">
    <path clip-path="url(#pd85f237491)" d="M 316.956535 360.177876 
L 341.821542 360.177876 
L 341.821542 360.177876 
L 316.956535 360.177876 
z
" style="fill:#d3d3d3;"/>
   </g>
   <g id="patch_16">
    <path clip-path="url(#pd85f237491)" d="M 316.956535 362.431289 
L 341.821542 362.431289 
L 341.821542 357.924463 
L 316.956535 357.924463 
z
" style="fill:#50a2d5;"/>
   </g>
   <g id="patch_17">
    <path clip-path="url(#pd85f237491)" d="M 358.398213 474.087565 
L 383.263219 474.087565 
L 383.263219 474.087565 
L 358.398213 474.087565 
z
" style="fill:#d3d3d3;"/>
   </g>
   <g id="patch_18">
    <path clip-path="url(#pd85f237491)" d="M 358.398213 476.340978 
L 383.263219 476.340978 
L 383.263219 471.834152 
L 358.398213 471.834152 
z
" style="fill:#488a21;"/>
   </g>
   <g id="patch_19">
    <path clip-path="url(#pd85f237491)" d="M 399.83989 335.555455 
L 424.704897 335.555455 
L 424.704897 335.555455 
L 399.83989 335.555455 
z
" style="fill:#d3d3d3;"/>
   </g>
   <g id="patch_20">
    <path clip-path="url(#pd85f237491)" d="M 399.83989 337.808869 
L 424.704897 337.808869 
L 424.704897 333.302042 
L 399.83989 333.302042 
z
" style="fill:#22567a;"/>
   </g>
   <g id="matplotlib.axis_3">
    <g id="xtick_5">
     <g id="text_15">
      <!-- L2/3-D -->
      <g transform="translate(292.426661 597.6826)rotate(-90)scale(0.1728 -0.1728)">
       <use xlink:href="#Arial-BoldMT-76"/>
       <use x="61.083984" xlink:href="#Arial-BoldMT-50"/>
       <use x="116.699219" xlink:href="#Arial-BoldMT-47"/>
       <use x="144.482422" xlink:href="#Arial-BoldMT-51"/>
       <use x="200.097656" xlink:href="#Arial-BoldMT-45"/>
       <use x="233.398438" xlink:href="#Arial-BoldMT-68"/>
      </g>
     </g>
    </g>
    <g id="xtick_6">
     <g id="text_16">
      <!-- L2/3-S -->
      <g transform="translate(333.868338 596.7295)rotate(-90)scale(0.1728 -0.1728)">
       <use xlink:href="#Arial-BoldMT-76"/>
       <use x="61.083984" xlink:href="#Arial-BoldMT-50"/>
       <use x="116.699219" xlink:href="#Arial-BoldMT-47"/>
       <use x="144.482422" xlink:href="#Arial-BoldMT-51"/>
       <use x="200.097656" xlink:href="#Arial-BoldMT-45"/>
       <use x="233.398438" xlink:href="#Arial-BoldMT-83"/>
      </g>
     </g>
    </g>
    <g id="xtick_7">
     <g id="text_17">
      <!-- L5-D -->
      <g transform="translate(375.310016 583.2727)rotate(-90)scale(0.1728 -0.1728)">
       <use xlink:href="#Arial-BoldMT-76"/>
       <use x="61.083984" xlink:href="#Arial-BoldMT-53"/>
       <use x="116.699219" xlink:href="#Arial-BoldMT-45"/>
       <use x="150" xlink:href="#Arial-BoldMT-68"/>
      </g>
     </g>
    </g>
    <g id="xtick_8">
     <g id="text_18">
      <!-- L5-S -->
      <g transform="translate(416.751693 582.3196)rotate(-90)scale(0.1728 -0.1728)">
       <use xlink:href="#Arial-BoldMT-76"/>
       <use x="61.083984" xlink:href="#Arial-BoldMT-53"/>
       <use x="116.699219" xlink:href="#Arial-BoldMT-45"/>
       <use x="150" xlink:href="#Arial-BoldMT-83"/>
      </g>
     </g>
    </g>
   </g>
   <g id="matplotlib.axis_4">
    <g id="ytick_6">
     <g id="line2d_31">
      <g>
       <use style="stroke:#000000;stroke-width:4;" x="263.082354" xlink:href="#mcc3eda84d2" y="519.292168"/>
      </g>
     </g>
    </g>
    <g id="ytick_7">
     <g id="line2d_32">
      <g>
       <use style="stroke:#000000;stroke-width:4;" x="263.082354" xlink:href="#mcc3eda84d2" y="406.389126"/>
      </g>
     </g>
    </g>
    <g id="ytick_8">
     <g id="line2d_33">
      <g>
       <use style="stroke:#000000;stroke-width:4;" x="263.082354" xlink:href="#mcc3eda84d2" y="293.486084"/>
      </g>
     </g>
    </g>
    <g id="ytick_9">
     <g id="line2d_34">
      <g>
       <use style="stroke:#000000;stroke-width:4;" x="263.082354" xlink:href="#mcc3eda84d2" y="180.583042"/>
      </g>
     </g>
    </g>
    <g id="ytick_10">
     <g id="line2d_35">
      <g>
       <use style="stroke:#000000;stroke-width:4;" x="263.082354" xlink:href="#mcc3eda84d2" y="67.68"/>
      </g>
     </g>
    </g>
   </g>
   <g id="line2d_36">
    <path clip-path="url(#pd85f237491)" d="M 263.082354 519.292168 
L 437.1374 519.292168 
" style="fill:none;stroke:#000000;stroke-linecap:square;stroke-width:4;"/>
   </g>
   <g id="line2d_37">
    <path clip-path="url(#pd85f237491)" d="M 287.947361 502.512523 
" style="fill:none;stroke:#64a23d;stroke-linecap:square;stroke-width:5;"/>
    <g clip-path="url(#pd85f237491)">
     <use style="fill-opacity:0;stroke:#64a23d;stroke-width:2.5;" x="287.947361" xlink:href="#mbdfd0e9b0f" y="502.512523"/>
    </g>
   </g>
   <g id="line2d_38">
    <path clip-path="url(#pd85f237491)" d="M 287.947361 502.512523 
" style="fill:none;stroke:#64a23d;stroke-linecap:square;stroke-opacity:0.5;stroke-width:5;"/>
    <g clip-path="url(#pd85f237491)">
     <use style="fill:#64a23d;fill-opacity:0.5;stroke:#64a23d;stroke-opacity:0.5;stroke-width:4;" x="287.947361" xlink:href="#mae4f5e3473" y="502.512523"/>
    </g>
   </g>
   <g id="line2d_39">
    <path clip-path="url(#pd85f237491)" d="M 287.947361 449.92487 
" style="fill:none;stroke:#8cc668;stroke-linecap:square;stroke-width:5;"/>
    <g clip-path="url(#pd85f237491)">
     <use style="fill-opacity:0;stroke:#8cc668;stroke-width:2.5;" x="287.947361" xlink:href="#mb1f9f98a30" y="449.92487"/>
    </g>
   </g>
   <g id="line2d_40">
    <path clip-path="url(#pd85f237491)" d="M 287.947361 449.92487 
" style="fill:none;stroke:#8cc668;stroke-linecap:square;stroke-opacity:0.5;stroke-width:5;"/>
    <g clip-path="url(#pd85f237491)">
     <use style="fill:#8cc668;fill-opacity:0.5;stroke:#8cc668;stroke-opacity:0.5;stroke-width:4;" x="287.947361" xlink:href="#mc80caaa6f8" y="449.92487"/>
    </g>
   </g>
   <g id="line2d_41">
    <path clip-path="url(#pd85f237491)" d="M 329.389038 135.108206 
" style="fill:none;stroke:#2875a5;stroke-linecap:square;stroke-width:5;"/>
    <g clip-path="url(#pd85f237491)">
     <use style="fill-opacity:0;stroke:#2875a5;stroke-width:2.5;" x="329.389038" xlink:href="#m01a9aa7c4b" y="135.108206"/>
    </g>
   </g>
   <g id="line2d_42">
    <path clip-path="url(#pd85f237491)" d="M 329.389038 135.108206 
" style="fill:none;stroke:#2875a5;stroke-linecap:square;stroke-opacity:0.5;stroke-width:5;"/>
    <g clip-path="url(#pd85f237491)">
     <use style="fill:#2875a5;fill-opacity:0.5;stroke:#2875a5;stroke-opacity:0.5;stroke-width:4;" x="329.389038" xlink:href="#md304c7bcdc" y="135.108206"/>
    </g>
   </g>
   <g id="line2d_43">
    <path clip-path="url(#pd85f237491)" d="M 329.389038 493.337446 
" style="fill:none;stroke:#50a2d5;stroke-linecap:square;stroke-width:5;"/>
    <g clip-path="url(#pd85f237491)">
     <use style="fill-opacity:0;stroke:#50a2d5;stroke-width:2.5;" x="329.389038" xlink:href="#m2aeebdcf5a" y="493.337446"/>
    </g>
   </g>
   <g id="line2d_44">
    <path clip-path="url(#pd85f237491)" d="M 329.389038 493.337446 
" style="fill:none;stroke:#50a2d5;stroke-linecap:square;stroke-opacity:0.5;stroke-width:5;"/>
    <g clip-path="url(#pd85f237491)">
     <use style="fill:#50a2d5;fill-opacity:0.5;stroke:#50a2d5;stroke-opacity:0.5;stroke-width:4;" x="329.389038" xlink:href="#ma32da495ea" y="493.337446"/>
    </g>
   </g>
   <g id="line2d_45">
    <path clip-path="url(#pd85f237491)" d="M 329.389038 452.087976 
" style="fill:none;stroke:#97c8e6;stroke-linecap:square;stroke-width:5;"/>
    <g clip-path="url(#pd85f237491)">
     <use style="fill-opacity:0;stroke:#97c8e6;stroke-width:2.5;" x="329.389038" xlink:href="#m83af50e5af" y="452.087976"/>
    </g>
   </g>
   <g id="line2d_46">
    <path clip-path="url(#pd85f237491)" d="M 329.389038 452.087976 
" style="fill:none;stroke:#97c8e6;stroke-linecap:square;stroke-opacity:0.5;stroke-width:5;"/>
    <g clip-path="url(#pd85f237491)">
     <use style="fill:#97c8e6;fill-opacity:0.5;stroke:#97c8e6;stroke-opacity:0.5;stroke-width:4;" x="329.389038" xlink:href="#maf8686b536" y="452.087976"/>
    </g>
   </g>
   <g id="line2d_47">
    <path clip-path="url(#pd85f237491)" d="M 370.830716 471.560801 
" style="fill:none;stroke:#326117;stroke-linecap:square;stroke-width:5;"/>
    <g clip-path="url(#pd85f237491)">
     <use style="fill-opacity:0;stroke:#326117;stroke-width:2.5;" x="370.830716" xlink:href="#mddd532152e" y="471.560801"/>
    </g>
   </g>
   <g id="line2d_48">
    <path clip-path="url(#pd85f237491)" d="M 370.830716 471.560801 
" style="fill:none;stroke:#326117;stroke-linecap:square;stroke-opacity:0.5;stroke-width:5;"/>
    <g clip-path="url(#pd85f237491)">
     <use style="fill:#326117;fill-opacity:0.5;stroke:#326117;stroke-opacity:0.5;stroke-width:4;" x="370.830716" xlink:href="#m19efd7d041" y="471.560801"/>
    </g>
   </g>
   <g id="line2d_49">
    <path clip-path="url(#pd85f237491)" d="M 370.830716 441.539054 
" style="fill:none;stroke:#488a21;stroke-linecap:square;stroke-width:5;"/>
    <g clip-path="url(#pd85f237491)">
     <use style="fill-opacity:0;stroke:#488a21;stroke-width:2.5;" x="370.830716" xlink:href="#m5245457657" y="441.539054"/>
    </g>
   </g>
   <g id="line2d_50">
    <path clip-path="url(#pd85f237491)" d="M 370.830716 441.539054 
" style="fill:none;stroke:#488a21;stroke-linecap:square;stroke-opacity:0.5;stroke-width:5;"/>
    <g clip-path="url(#pd85f237491)">
     <use style="fill:#488a21;fill-opacity:0.5;stroke:#488a21;stroke-opacity:0.5;stroke-width:4;" x="370.830716" xlink:href="#me2ddbc68ef" y="441.539054"/>
    </g>
   </g>
   <g id="line2d_51">
    <path clip-path="url(#pd85f237491)" d="M 370.830716 509.162841 
" style="fill:none;stroke:#5eb32b;stroke-linecap:square;stroke-width:5;"/>
    <g clip-path="url(#pd85f237491)">
     <use style="fill-opacity:0;stroke:#5eb32b;stroke-width:2.5;" x="370.830716" xlink:href="#mff40a02bc7" y="509.162841"/>
    </g>
   </g>
   <g id="line2d_52">
    <path clip-path="url(#pd85f237491)" d="M 370.830716 509.162841 
" style="fill:none;stroke:#5eb32b;stroke-linecap:square;stroke-opacity:0.5;stroke-width:5;"/>
    <g clip-path="url(#pd85f237491)">
     <use style="fill:#5eb32b;fill-opacity:0.5;stroke:#5eb32b;stroke-opacity:0.5;stroke-width:4;" x="370.830716" xlink:href="#m243555407a" y="509.162841"/>
    </g>
   </g>
   <g id="line2d_53">
    <path clip-path="url(#pd85f237491)" d="M 412.272393 276.759707 
" style="fill:none;stroke:#183c55;stroke-linecap:square;stroke-width:5;"/>
    <g clip-path="url(#pd85f237491)">
     <use style="fill-opacity:0;stroke:#183c55;stroke-width:2.5;" x="412.272393" xlink:href="#maf23187695" y="276.759707"/>
    </g>
   </g>
   <g id="line2d_54">
    <path clip-path="url(#pd85f237491)" d="M 412.272393 276.759707 
" style="fill:none;stroke:#183c55;stroke-linecap:square;stroke-opacity:0.5;stroke-width:5;"/>
    <g clip-path="url(#pd85f237491)">
     <use style="fill:#183c55;fill-opacity:0.5;stroke:#183c55;stroke-opacity:0.5;stroke-width:4;" x="412.272393" xlink:href="#ma1c2093bba" y="276.759707"/>
    </g>
   </g>
   <g id="line2d_55">
    <path clip-path="url(#pd85f237491)" d="M 412.272393 469.113038 
" style="fill:none;stroke:#22567a;stroke-linecap:square;stroke-width:5;"/>
    <g clip-path="url(#pd85f237491)">
     <use style="fill-opacity:0;stroke:#22567a;stroke-width:2.5;" x="412.272393" xlink:href="#md3c53b9214" y="469.113038"/>
    </g>
   </g>
   <g id="line2d_56">
    <path clip-path="url(#pd85f237491)" d="M 412.272393 469.113038 
" style="fill:none;stroke:#22567a;stroke-linecap:square;stroke-opacity:0.5;stroke-width:5;"/>
    <g clip-path="url(#pd85f237491)">
     <use style="fill:#22567a;fill-opacity:0.5;stroke:#22567a;stroke-opacity:0.5;stroke-width:4;" x="412.272393" xlink:href="#m02f3327d36" y="469.113038"/>
    </g>
   </g>
   <g id="line2d_57">
    <path clip-path="url(#pd85f237491)" d="M 412.272393 260.793621 
" style="fill:none;stroke:#2c709f;stroke-linecap:square;stroke-width:5;"/>
    <g clip-path="url(#pd85f237491)">
     <use style="fill-opacity:0;stroke:#2c709f;stroke-width:2.5;" x="412.272393" xlink:href="#m200ed021e5" y="260.793621"/>
    </g>
   </g>
   <g id="line2d_58">
    <path clip-path="url(#pd85f237491)" d="M 412.272393 260.793621 
" style="fill:none;stroke:#2c709f;stroke-linecap:square;stroke-opacity:0.5;stroke-width:5;"/>
    <g clip-path="url(#pd85f237491)">
     <use style="fill:#2c709f;fill-opacity:0.5;stroke:#2c709f;stroke-opacity:0.5;stroke-width:4;" x="412.272393" xlink:href="#mba69a87d58" y="260.793621"/>
    </g>
   </g>
   <g id="patch_21">
    <path d="M 263.082354 533.376 
L 263.082354 67.68 
" style="fill:none;stroke:#000000;stroke-linecap:square;stroke-linejoin:miter;stroke-width:4;"/>
   </g>
   <g id="text_19">
    <!-- *** -->
    <g style="fill:#8cc668;" transform="translate(273.935486 444.569489)scale(0.24 -0.24)">
     <use xlink:href="#Arial-BoldMT-42"/>
     <use x="38.916016" xlink:href="#Arial-BoldMT-42"/>
     <use x="77.832031" xlink:href="#Arial-BoldMT-42"/>
    </g>
   </g>
   <g id="text_20">
    <!-- *** -->
    <g style="fill:#2875a5;" transform="translate(315.377163 129.752825)scale(0.24 -0.24)">
     <use xlink:href="#Arial-BoldMT-42"/>
     <use x="38.916016" xlink:href="#Arial-BoldMT-42"/>
     <use x="77.832031" xlink:href="#Arial-BoldMT-42"/>
    </g>
   </g>
   <g id="text_21">
    <!-- *** -->
    <g style="fill:#97c8e6;" transform="translate(315.377163 446.732595)scale(0.24 -0.24)">
     <use xlink:href="#Arial-BoldMT-42"/>
     <use x="38.916016" xlink:href="#Arial-BoldMT-42"/>
     <use x="77.832031" xlink:href="#Arial-BoldMT-42"/>
    </g>
   </g>
   <g id="text_22">
    <!-- * -->
    <g style="fill:#326117;" transform="translate(366.160091 466.20542)scale(0.24 -0.24)">
     <use xlink:href="#Arial-BoldMT-42"/>
    </g>
   </g>
   <g id="text_23">
    <!-- *** -->
    <g style="fill:#488a21;" transform="translate(356.818841 436.183673)scale(0.24 -0.24)">
     <use xlink:href="#Arial-BoldMT-42"/>
     <use x="38.916016" xlink:href="#Arial-BoldMT-42"/>
     <use x="77.832031" xlink:href="#Arial-BoldMT-42"/>
    </g>
   </g>
   <g id="text_24">
    <!-- *** -->
    <g style="fill:#183c55;" transform="translate(398.260518 271.404326)scale(0.24 -0.24)">
     <use xlink:href="#Arial-BoldMT-42"/>
     <use x="38.916016" xlink:href="#Arial-BoldMT-42"/>
     <use x="77.832031" xlink:href="#Arial-BoldMT-42"/>
    </g>
   </g>
   <g id="text_25">
    <!-- *** -->
    <g style="fill:#2c709f;" transform="translate(398.260518 255.43824)scale(0.24 -0.24)">
     <use xlink:href="#Arial-BoldMT-42"/>
     <use x="38.916016" xlink:href="#Arial-BoldMT-42"/>
     <use x="77.832031" xlink:href="#Arial-BoldMT-42"/>
    </g>
   </g>
   <g id="text_26">
    <!-- High tail -->
    <g transform="translate(316.033177 61.68)scale(0.1728 -0.1728)">
     <defs>
      <path d="M 7.328125 0 
L 7.328125 71.578125 
L 21.78125 71.578125 
L 21.78125 43.40625 
L 50.09375 43.40625 
L 50.09375 71.578125 
L 64.546875 71.578125 
L 64.546875 0 
L 50.09375 0 
L 50.09375 31.296875 
L 21.78125 31.296875 
L 21.78125 0 
z
" id="Arial-BoldMT-72"/>
      <path d="M 5.90625 -3.421875 
L 21.578125 -5.328125 
Q 21.96875 -8.0625 23.390625 -9.078125 
Q 25.34375 -10.546875 29.546875 -10.546875 
Q 34.90625 -10.546875 37.59375 -8.9375 
Q 39.40625 -7.859375 40.328125 -5.46875 
Q 40.96875 -3.765625 40.96875 0.828125 
L 40.96875 8.40625 
Q 34.8125 0 25.4375 0 
Q 14.984375 0 8.890625 8.84375 
Q 4.109375 15.828125 4.109375 26.21875 
Q 4.109375 39.265625 10.375 46.140625 
Q 16.65625 53.03125 25.984375 53.03125 
Q 35.59375 53.03125 41.84375 44.578125 
L 41.84375 51.859375 
L 54.6875 51.859375 
L 54.6875 5.328125 
Q 54.6875 -3.859375 53.171875 -8.390625 
Q 51.65625 -12.9375 48.921875 -15.515625 
Q 46.1875 -18.109375 41.625 -19.578125 
Q 37.0625 -21.046875 30.078125 -21.046875 
Q 16.890625 -21.046875 11.375 -16.53125 
Q 5.859375 -12.015625 5.859375 -5.078125 
Q 5.859375 -4.390625 5.90625 -3.421875 
z
M 18.171875 27 
Q 18.171875 18.75 21.359375 14.90625 
Q 24.5625 11.078125 29.25 11.078125 
Q 34.28125 11.078125 37.75 15.015625 
Q 41.21875 18.953125 41.21875 26.65625 
Q 41.21875 34.71875 37.890625 38.625 
Q 34.578125 42.53125 29.5 42.53125 
Q 24.5625 42.53125 21.359375 38.6875 
Q 18.171875 34.859375 18.171875 27 
z
" id="Arial-BoldMT-103"/>
      <path d="M 20.84375 71.578125 
L 20.84375 45.265625 
Q 27.484375 53.03125 36.71875 53.03125 
Q 41.453125 53.03125 45.265625 51.265625 
Q 49.078125 49.515625 51 46.78125 
Q 52.9375 44.046875 53.640625 40.71875 
Q 54.34375 37.40625 54.34375 30.421875 
L 54.34375 0 
L 40.625 0 
L 40.625 27.390625 
Q 40.625 35.546875 39.84375 37.734375 
Q 39.0625 39.9375 37.078125 41.234375 
Q 35.109375 42.53125 32.125 42.53125 
Q 28.71875 42.53125 26.03125 40.859375 
Q 23.34375 39.203125 22.09375 35.859375 
Q 20.84375 32.515625 20.84375 25.984375 
L 20.84375 0 
L 7.125 0 
L 7.125 71.578125 
z
" id="Arial-BoldMT-104"/>
     </defs>
     <use xlink:href="#Arial-BoldMT-72"/>
     <use x="72.216797" xlink:href="#Arial-BoldMT-105"/>
     <use x="100" xlink:href="#Arial-BoldMT-103"/>
     <use x="161.083984" xlink:href="#Arial-BoldMT-104"/>
     <use x="222.167969" xlink:href="#Arial-BoldMT-32"/>
     <use x="249.951172" xlink:href="#Arial-BoldMT-116"/>
     <use x="283.251953" xlink:href="#Arial-BoldMT-97"/>
     <use x="338.867188" xlink:href="#Arial-BoldMT-105"/>
     <use x="366.650391" xlink:href="#Arial-BoldMT-108"/>
    </g>
   </g>
  </g>
  <g id="text_27">
   <!-- Gabor sequence sig USIs (by mouse) -->
   <g transform="translate(88.62725 19.7793)scale(0.1728 -0.1728)">
    <defs>
     <path d="M 40.578125 26.3125 
L 40.578125 38.375 
L 71.734375 38.375 
L 71.734375 9.859375 
Q 67.1875 5.46875 58.5625 2.125 
Q 49.953125 -1.21875 41.109375 -1.21875 
Q 29.890625 -1.21875 21.53125 3.484375 
Q 13.1875 8.203125 8.984375 16.96875 
Q 4.78125 25.734375 4.78125 36.03125 
Q 4.78125 47.21875 9.46875 55.90625 
Q 14.15625 64.59375 23.1875 69.234375 
Q 30.078125 72.796875 40.328125 72.796875 
Q 53.65625 72.796875 61.15625 67.203125 
Q 68.65625 61.625 70.796875 51.765625 
L 56.453125 49.078125 
Q 54.9375 54.34375 50.75 57.390625 
Q 46.578125 60.453125 40.328125 60.453125 
Q 30.859375 60.453125 25.265625 54.4375 
Q 19.671875 48.4375 19.671875 36.625 
Q 19.671875 23.875 25.328125 17.5 
Q 31 11.140625 40.1875 11.140625 
Q 44.734375 11.140625 49.296875 12.921875 
Q 53.859375 14.703125 57.125 17.234375 
L 57.125 26.3125 
z
" id="Arial-BoldMT-71"/>
     <path d="M 6.59375 0 
L 6.59375 71.578125 
L 20.3125 71.578125 
L 20.3125 45.796875 
Q 26.65625 53.03125 35.359375 53.03125 
Q 44.828125 53.03125 51.03125 46.171875 
Q 57.234375 39.3125 57.234375 26.46875 
Q 57.234375 13.1875 50.90625 6 
Q 44.578125 -1.171875 35.546875 -1.171875 
Q 31.109375 -1.171875 26.78125 1.046875 
Q 22.46875 3.265625 19.34375 7.625 
L 19.34375 0 
z
M 20.21875 27.046875 
Q 20.21875 19 22.75 15.140625 
Q 26.3125 9.671875 32.234375 9.671875 
Q 36.765625 9.671875 39.96875 13.546875 
Q 43.171875 17.4375 43.171875 25.78125 
Q 43.171875 34.671875 39.9375 38.59375 
Q 36.71875 42.53125 31.6875 42.53125 
Q 26.765625 42.53125 23.484375 38.6875 
Q 20.21875 34.859375 20.21875 27.046875 
z
" id="Arial-BoldMT-98"/>
     <path d="M 20.3125 0 
L 6.59375 0 
L 6.59375 51.859375 
L 19.34375 51.859375 
L 19.34375 44.484375 
Q 22.609375 49.703125 25.21875 51.359375 
Q 27.828125 53.03125 31.15625 53.03125 
Q 35.84375 53.03125 40.1875 50.4375 
L 35.9375 38.484375 
Q 32.46875 40.71875 29.5 40.71875 
Q 26.609375 40.71875 24.609375 39.125 
Q 22.609375 37.546875 21.453125 33.390625 
Q 20.3125 29.25 20.3125 16.015625 
z
" id="Arial-BoldMT-114"/>
     <path d="M 2.34375 14.796875 
L 16.109375 16.890625 
Q 17 12.890625 19.671875 10.8125 
Q 22.359375 8.734375 27.203125 8.734375 
Q 32.515625 8.734375 35.203125 10.6875 
Q 37.015625 12.0625 37.015625 14.359375 
Q 37.015625 15.921875 36.03125 16.9375 
Q 35.015625 17.921875 31.453125 18.75 
Q 14.84375 22.40625 10.40625 25.4375 
Q 4.25 29.640625 4.25 37.109375 
Q 4.25 43.84375 9.5625 48.4375 
Q 14.890625 53.03125 26.078125 53.03125 
Q 36.71875 53.03125 41.890625 49.5625 
Q 47.078125 46.09375 49.03125 39.3125 
L 36.078125 36.921875 
Q 35.25 39.9375 32.921875 41.546875 
Q 30.609375 43.171875 26.3125 43.171875 
Q 20.90625 43.171875 18.5625 41.65625 
Q 17 40.578125 17 38.875 
Q 17 37.40625 18.359375 36.375 
Q 20.21875 35.015625 31.171875 32.515625 
Q 42.140625 30.03125 46.484375 26.421875 
Q 50.78125 22.75 50.78125 16.21875 
Q 50.78125 9.078125 44.828125 3.953125 
Q 38.875 -1.171875 27.203125 -1.171875 
Q 16.609375 -1.171875 10.421875 3.125 
Q 4.25 7.421875 2.34375 14.796875 
z
" id="Arial-BoldMT-115"/>
     <path d="M 37.203125 16.5 
L 50.875 14.203125 
Q 48.25 6.6875 42.546875 2.75 
Q 36.859375 -1.171875 28.328125 -1.171875 
Q 14.796875 -1.171875 8.296875 7.671875 
Q 3.171875 14.75 3.171875 25.53125 
Q 3.171875 38.421875 9.90625 45.71875 
Q 16.65625 53.03125 26.953125 53.03125 
Q 38.53125 53.03125 45.21875 45.390625 
Q 51.90625 37.75 51.609375 21.96875 
L 17.234375 21.96875 
Q 17.390625 15.875 20.5625 12.46875 
Q 23.734375 9.078125 28.46875 9.078125 
Q 31.6875 9.078125 33.875 10.828125 
Q 36.078125 12.59375 37.203125 16.5 
z
M 37.984375 30.375 
Q 37.84375 36.328125 34.90625 39.421875 
Q 31.984375 42.53125 27.78125 42.53125 
Q 23.296875 42.53125 20.359375 39.265625 
Q 17.4375 35.984375 17.484375 30.375 
z
" id="Arial-BoldMT-101"/>
     <path d="M 41.0625 -19.734375 
L 41.0625 6.34375 
Q 38.375 2.875 34.375 0.84375 
Q 30.375 -1.171875 25.734375 -1.171875 
Q 16.890625 -1.171875 11.1875 5.46875 
Q 4.4375 13.234375 4.4375 26.515625 
Q 4.4375 39.015625 10.765625 46.015625 
Q 17.09375 53.03125 26.46875 53.03125 
Q 31.640625 53.03125 35.421875 50.828125 
Q 39.203125 48.640625 42.140625 44.1875 
L 42.140625 51.859375 
L 54.78125 51.859375 
L 54.78125 -19.734375 
z
M 41.5 26.5625 
Q 41.5 34.515625 38.25 38.390625 
Q 35.015625 42.28125 30.125 42.28125 
Q 25.140625 42.28125 21.796875 38.328125 
Q 18.453125 34.375 18.453125 25.78125 
Q 18.453125 17.234375 21.671875 13.453125 
Q 24.90625 9.671875 29.640625 9.671875 
Q 34.375 9.671875 37.9375 13.921875 
Q 41.5 18.171875 41.5 26.5625 
z
" id="Arial-BoldMT-113"/>
     <path d="M 41.3125 0 
L 41.3125 7.765625 
Q 38.484375 3.609375 33.859375 1.21875 
Q 29.25 -1.171875 24.125 -1.171875 
Q 18.890625 -1.171875 14.734375 1.125 
Q 10.59375 3.421875 8.734375 7.5625 
Q 6.890625 11.71875 6.890625 19.046875 
L 6.890625 51.859375 
L 20.609375 51.859375 
L 20.609375 28.03125 
Q 20.609375 17.09375 21.359375 14.625 
Q 22.125 12.15625 24.125 10.71875 
Q 26.125 9.28125 29.203125 9.28125 
Q 32.71875 9.28125 35.5 11.203125 
Q 38.28125 13.140625 39.296875 15.984375 
Q 40.328125 18.84375 40.328125 29.984375 
L 40.328125 51.859375 
L 54.046875 51.859375 
L 54.046875 0 
z
" id="Arial-BoldMT-117"/>
     <path d="M 54.34375 0 
L 40.625 0 
L 40.625 26.46875 
Q 40.625 34.859375 39.75 37.328125 
Q 38.875 39.796875 36.890625 41.15625 
Q 34.90625 42.53125 32.125 42.53125 
Q 28.5625 42.53125 25.734375 40.578125 
Q 22.90625 38.625 21.84375 35.390625 
Q 20.796875 32.171875 20.796875 23.484375 
L 20.796875 0 
L 7.078125 0 
L 7.078125 51.859375 
L 19.828125 51.859375 
L 19.828125 44.234375 
Q 26.609375 53.03125 36.921875 53.03125 
Q 41.453125 53.03125 45.203125 51.390625 
Q 48.96875 49.75 50.890625 47.203125 
Q 52.828125 44.671875 53.578125 41.453125 
Q 54.34375 38.234375 54.34375 32.234375 
z
" id="Arial-BoldMT-110"/>
     <path d="M 52.390625 36.53125 
L 38.875 34.078125 
Q 38.1875 38.140625 35.765625 40.1875 
Q 33.34375 42.234375 29.5 42.234375 
Q 24.359375 42.234375 21.3125 38.6875 
Q 18.265625 35.15625 18.265625 26.859375 
Q 18.265625 17.625 21.359375 13.8125 
Q 24.46875 10.015625 29.6875 10.015625 
Q 33.59375 10.015625 36.078125 12.234375 
Q 38.578125 14.453125 39.59375 19.875 
L 53.078125 17.578125 
Q 50.984375 8.296875 45.015625 3.5625 
Q 39.0625 -1.171875 29.046875 -1.171875 
Q 17.671875 -1.171875 10.90625 6 
Q 4.15625 13.1875 4.15625 25.875 
Q 4.15625 38.71875 10.9375 45.875 
Q 17.71875 53.03125 29.296875 53.03125 
Q 38.765625 53.03125 44.359375 48.953125 
Q 49.953125 44.875 52.390625 36.53125 
z
" id="Arial-BoldMT-99"/>
     <path d="M 7.171875 71.578125 
L 21.625 71.578125 
L 21.625 32.8125 
Q 21.625 23.578125 22.171875 20.84375 
Q 23.09375 16.453125 26.578125 13.796875 
Q 30.078125 11.140625 36.140625 11.140625 
Q 42.28125 11.140625 45.40625 13.640625 
Q 48.53125 16.15625 49.171875 19.8125 
Q 49.8125 23.484375 49.8125 31.984375 
L 49.8125 71.578125 
L 64.265625 71.578125 
L 64.265625 33.984375 
Q 64.265625 21.09375 63.09375 15.765625 
Q 61.921875 10.453125 58.765625 6.78125 
Q 55.609375 3.125 50.328125 0.953125 
Q 45.0625 -1.21875 36.578125 -1.21875 
Q 26.3125 -1.21875 21.015625 1.140625 
Q 15.71875 3.515625 12.640625 7.296875 
Q 9.578125 11.078125 8.59375 15.234375 
Q 7.171875 21.390625 7.171875 33.40625 
z
" id="Arial-BoldMT-85"/>
     <path d="M 6.84375 0 
L 6.84375 71.578125 
L 21.296875 71.578125 
L 21.296875 0 
z
" id="Arial-BoldMT-73"/>
     <path d="M 29.9375 -21.046875 
L 20.515625 -21.046875 
Q 13.03125 -9.765625 9.125 2.390625 
Q 5.21875 14.546875 5.21875 25.921875 
Q 5.21875 40.046875 10.0625 52.640625 
Q 14.265625 63.578125 20.703125 72.796875 
L 30.078125 72.796875 
Q 23.390625 58.015625 20.875 47.625 
Q 18.359375 37.25 18.359375 25.640625 
Q 18.359375 17.625 19.84375 9.21875 
Q 21.34375 0.828125 23.921875 -6.734375 
Q 25.640625 -11.71875 29.9375 -21.046875 
z
" id="Arial-BoldMT-40"/>
     <path d="M 0.6875 51.859375 
L 15.28125 51.859375 
L 27.6875 15.046875 
L 39.796875 51.859375 
L 54 51.859375 
L 35.6875 1.953125 
L 32.421875 -7.078125 
Q 30.609375 -11.625 28.96875 -14.015625 
Q 27.34375 -16.40625 25.21875 -17.890625 
Q 23.09375 -19.390625 19.984375 -20.21875 
Q 16.890625 -21.046875 12.984375 -21.046875 
Q 9.03125 -21.046875 5.21875 -20.21875 
L 4 -9.46875 
Q 7.234375 -10.109375 9.8125 -10.109375 
Q 14.59375 -10.109375 16.890625 -7.296875 
Q 19.1875 -4.5 20.40625 -0.140625 
z
" id="Arial-BoldMT-121"/>
     <path d="M 6.15625 51.859375 
L 18.796875 51.859375 
L 18.796875 44.78125 
Q 25.59375 53.03125 34.96875 53.03125 
Q 39.9375 53.03125 43.59375 50.96875 
Q 47.265625 48.921875 49.609375 44.78125 
Q 53.03125 48.921875 56.984375 50.96875 
Q 60.9375 53.03125 65.4375 53.03125 
Q 71.140625 53.03125 75.09375 50.703125 
Q 79.046875 48.390625 81 43.890625 
Q 82.421875 40.578125 82.421875 33.15625 
L 82.421875 0 
L 68.703125 0 
L 68.703125 29.640625 
Q 68.703125 37.359375 67.28125 39.59375 
Q 65.375 42.53125 61.421875 42.53125 
Q 58.546875 42.53125 56 40.765625 
Q 53.46875 39.015625 52.34375 35.625 
Q 51.21875 32.234375 51.21875 24.90625 
L 51.21875 0 
L 37.5 0 
L 37.5 28.421875 
Q 37.5 35.984375 36.765625 38.171875 
Q 36.03125 40.375 34.484375 41.453125 
Q 32.953125 42.53125 30.328125 42.53125 
Q 27.15625 42.53125 24.609375 40.8125 
Q 22.078125 39.109375 20.96875 35.890625 
Q 19.875 32.671875 19.875 25.203125 
L 19.875 0 
L 6.15625 0 
z
" id="Arial-BoldMT-109"/>
     <path d="M 3.375 -21.046875 
Q 7.421875 -12.359375 9.078125 -7.71875 
Q 10.75 -3.078125 12.15625 2.96875 
Q 13.578125 9.03125 14.25 14.46875 
Q 14.9375 19.921875 14.9375 25.640625 
Q 14.9375 37.25 12.453125 47.625 
Q 9.96875 58.015625 3.265625 72.796875 
L 12.59375 72.796875 
Q 19.96875 62.3125 24.046875 50.53125 
Q 28.125 38.765625 28.125 26.65625 
Q 28.125 16.453125 24.90625 4.78125 
Q 21.234375 -8.296875 12.84375 -21.046875 
z
" id="Arial-BoldMT-41"/>
    </defs>
    <use xlink:href="#Arial-BoldMT-71"/>
    <use x="77.783203" xlink:href="#Arial-BoldMT-97"/>
    <use x="133.398438" xlink:href="#Arial-BoldMT-98"/>
    <use x="194.482422" xlink:href="#Arial-BoldMT-111"/>
    <use x="255.566406" xlink:href="#Arial-BoldMT-114"/>
    <use x="294.482422" xlink:href="#Arial-BoldMT-32"/>
    <use x="322.265625" xlink:href="#Arial-BoldMT-115"/>
    <use x="377.880859" xlink:href="#Arial-BoldMT-101"/>
    <use x="433.496094" xlink:href="#Arial-BoldMT-113"/>
    <use x="494.580078" xlink:href="#Arial-BoldMT-117"/>
    <use x="555.664062" xlink:href="#Arial-BoldMT-101"/>
    <use x="611.279297" xlink:href="#Arial-BoldMT-110"/>
    <use x="672.363281" xlink:href="#Arial-BoldMT-99"/>
    <use x="727.978516" xlink:href="#Arial-BoldMT-101"/>
    <use x="783.59375" xlink:href="#Arial-BoldMT-32"/>
    <use x="811.376953" xlink:href="#Arial-BoldMT-115"/>
    <use x="866.992188" xlink:href="#Arial-BoldMT-105"/>
    <use x="894.775391" xlink:href="#Arial-BoldMT-103"/>
    <use x="955.859375" xlink:href="#Arial-BoldMT-32"/>
    <use x="983.642578" xlink:href="#Arial-BoldMT-85"/>
    <use x="1055.859375" xlink:href="#Arial-BoldMT-83"/>
    <use x="1122.558594" xlink:href="#Arial-BoldMT-73"/>
    <use x="1150.341797" xlink:href="#Arial-BoldMT-115"/>
    <use x="1205.957031" xlink:href="#Arial-BoldMT-32"/>
    <use x="1233.740234" xlink:href="#Arial-BoldMT-40"/>
    <use x="1267.041016" xlink:href="#Arial-BoldMT-98"/>
    <use x="1328.125" xlink:href="#Arial-BoldMT-121"/>
    <use x="1383.740234" xlink:href="#Arial-BoldMT-32"/>
    <use x="1411.523438" xlink:href="#Arial-BoldMT-109"/>
    <use x="1500.439453" xlink:href="#Arial-BoldMT-111"/>
    <use x="1561.523438" xlink:href="#Arial-BoldMT-117"/>
    <use x="1622.607422" xlink:href="#Arial-BoldMT-115"/>
    <use x="1678.222656" xlink:href="#Arial-BoldMT-101"/>
    <use x="1733.837891" xlink:href="#Arial-BoldMT-41"/>
   </g>
  </g>
 </g>
 <defs>
  <clipPath id="pc2f6f52784">
   <rect height="465.696" width="174.055046" x="57.6974" y="67.68"/>
  </clipPath>
  <clipPath id="pd85f237491">
   <rect height="465.696" width="174.055046" x="263.082354" y="67.68"/>
  </clipPath>
 </defs>
</svg>
