<?xml version="1.0" encoding="utf-8" standalone="no"?>
<!DOCTYPE svg PUBLIC "-//W3C//DTD SVG 1.1//EN"
  "http://www.w3.org/Graphics/SVG/1.1/DTD/svg11.dtd">
<!-- Created with matplotlib (https://matplotlib.org/) -->
<svg height="578.6901pt" version="1.1" viewBox="0 0 388.6608 578.6901" width="388.6608pt" xmlns="http://www.w3.org/2000/svg" xmlns:xlink="http://www.w3.org/1999/xlink">
 <metadata>
  <rdf:RDF xmlns:cc="http://creativecommons.org/ns#" xmlns:dc="http://purl.org/dc/elements/1.1/" xmlns:rdf="http://www.w3.org/1999/02/22-rdf-syntax-ns#">
   <cc:Work>
    <dc:type rdf:resource="http://purl.org/dc/dcmitype/StillImage"/>
    <dc:date>2021-11-23T23:32:56.931886</dc:date>
    <dc:format>image/svg+xml</dc:format>
    <dc:creator>
     <cc:Agent>
      <dc:title>Matplotlib v3.3.1, https://matplotlib.org/</dc:title>
     </cc:Agent>
    </dc:creator>
   </cc:Work>
  </rdf:RDF>
 </metadata>
 <defs>
  <style type="text/css">*{stroke-linecap:butt;stroke-linejoin:round;}</style>
 </defs>
 <g id="figure_1">
  <g id="patch_1">
   <path d="M 0 578.6901 
L 388.6608 578.6901 
L 388.6608 0 
L 0 0 
z
" style="fill:#ffffff;"/>
  </g>
  <g id="axes_1">
   <g id="patch_2">
    <path d="M 64.29 272.88 
L 193.25 272.88 
L 193.25 66.24 
L 64.29 66.24 
z
" style="fill:#ffffff;"/>
   </g>
   <g id="line2d_1">
    <path clip-path="url(#pbb3ab7acae)" d="M 64.29 231.552 
L 193.25 231.552 
" style="fill:none;stroke:#000000;stroke-dasharray:12,6;stroke-dashoffset:0;stroke-opacity:0.5;stroke-width:3;"/>
   </g>
   <g id="matplotlib.axis_1">
    <g id="xtick_1"/>
    <g id="xtick_2"/>
    <g id="xtick_3"/>
   </g>
   <g id="matplotlib.axis_2">
    <g id="ytick_1">
     <g id="line2d_2">
      <defs>
       <path d="M 0 0 
L -8 0 
" id="ma98c1b7deb" style="stroke:#000000;stroke-width:4;"/>
      </defs>
      <g>
       <use style="stroke:#000000;stroke-width:4;" x="64.29" xlink:href="#ma98c1b7deb" y="272.88"/>
      </g>
     </g>
     <g id="text_1">
      <!-- 0.5 -->
      <g transform="translate(28.7708 279.06435)scale(0.1728 -0.1728)">
       <defs>
        <path d="M 27.4375 71.875 
Q 37.84375 71.875 43.703125 64.453125 
Q 50.6875 55.671875 50.6875 35.296875 
Q 50.6875 14.984375 43.65625 6.109375 
Q 37.84375 -1.21875 27.4375 -1.21875 
Q 17 -1.21875 10.59375 6.8125 
Q 4.203125 14.84375 4.203125 35.453125 
Q 4.203125 55.671875 11.234375 64.546875 
Q 17.046875 71.875 27.4375 71.875 
z
M 27.4375 60.5 
Q 24.953125 60.5 23 58.90625 
Q 21.046875 57.328125 19.96875 53.21875 
Q 18.5625 47.90625 18.5625 35.296875 
Q 18.5625 22.703125 19.828125 17.984375 
Q 21.09375 13.28125 23.015625 11.71875 
Q 24.953125 10.15625 27.4375 10.15625 
Q 29.9375 10.15625 31.890625 11.734375 
Q 33.84375 13.328125 34.90625 17.4375 
Q 36.328125 22.703125 36.328125 35.296875 
Q 36.328125 47.90625 35.0625 52.609375 
Q 33.796875 57.328125 31.859375 58.90625 
Q 29.9375 60.5 27.4375 60.5 
z
" id="Arial-BoldMT-48"/>
        <path d="M 7.171875 0 
L 7.171875 13.71875 
L 20.90625 13.71875 
L 20.90625 0 
z
" id="Arial-BoldMT-46"/>
        <path d="M 4.4375 18.40625 
L 18.109375 19.828125 
Q 18.703125 15.1875 21.578125 12.46875 
Q 24.46875 9.765625 28.21875 9.765625 
Q 32.515625 9.765625 35.5 13.25 
Q 38.484375 16.75 38.484375 23.78125 
Q 38.484375 30.375 35.515625 33.671875 
Q 32.5625 36.96875 27.828125 36.96875 
Q 21.921875 36.96875 17.234375 31.734375 
L 6.109375 33.34375 
L 13.140625 70.609375 
L 49.421875 70.609375 
L 49.421875 57.765625 
L 23.53125 57.765625 
L 21.390625 45.609375 
Q 25.984375 47.90625 30.765625 47.90625 
Q 39.890625 47.90625 46.234375 41.265625 
Q 52.59375 34.625 52.59375 24.03125 
Q 52.59375 15.1875 47.46875 8.25 
Q 40.484375 -1.21875 28.078125 -1.21875 
Q 18.171875 -1.21875 11.921875 4.09375 
Q 5.671875 9.421875 4.4375 18.40625 
z
" id="Arial-BoldMT-53"/>
       </defs>
       <use xlink:href="#Arial-BoldMT-48"/>
       <use x="55.615234" xlink:href="#Arial-BoldMT-46"/>
       <use x="83.398438" xlink:href="#Arial-BoldMT-53"/>
      </g>
     </g>
    </g>
    <g id="ytick_2">
     <g id="line2d_3">
      <g>
       <use style="stroke:#000000;stroke-width:4;" x="64.29" xlink:href="#ma98c1b7deb" y="231.552"/>
      </g>
     </g>
    </g>
    <g id="ytick_3">
     <g id="line2d_4">
      <g>
       <use style="stroke:#000000;stroke-width:4;" x="64.29" xlink:href="#ma98c1b7deb" y="190.224"/>
      </g>
     </g>
     <g id="text_2">
      <!-- 1.5 -->
      <g transform="translate(28.7708 196.40835)scale(0.1728 -0.1728)">
       <defs>
        <path d="M 39.359375 0 
L 25.640625 0 
L 25.640625 51.703125 
Q 18.109375 44.671875 7.90625 41.3125 
L 7.90625 53.765625 
Q 13.28125 55.515625 19.578125 60.421875 
Q 25.875 65.328125 28.21875 71.875 
L 39.359375 71.875 
z
" id="Arial-BoldMT-49"/>
       </defs>
       <use xlink:href="#Arial-BoldMT-49"/>
       <use x="55.615234" xlink:href="#Arial-BoldMT-46"/>
       <use x="83.398438" xlink:href="#Arial-BoldMT-53"/>
      </g>
     </g>
    </g>
    <g id="ytick_4">
     <g id="line2d_5">
      <g>
       <use style="stroke:#000000;stroke-width:4;" x="64.29" xlink:href="#ma98c1b7deb" y="148.896"/>
      </g>
     </g>
    </g>
    <g id="ytick_5">
     <g id="line2d_6">
      <g>
       <use style="stroke:#000000;stroke-width:4;" x="64.29" xlink:href="#ma98c1b7deb" y="107.568"/>
      </g>
     </g>
     <g id="text_3">
      <!-- 2.5 -->
      <g transform="translate(28.7708 113.75235)scale(0.1728 -0.1728)">
       <defs>
        <path d="M 50.59375 12.75 
L 50.59375 0 
L 2.484375 0 
Q 3.265625 7.234375 7.171875 13.703125 
Q 11.078125 20.171875 22.609375 30.859375 
Q 31.890625 39.5 33.984375 42.578125 
Q 36.8125 46.828125 36.8125 50.984375 
Q 36.8125 55.5625 34.34375 58.03125 
Q 31.890625 60.5 27.546875 60.5 
Q 23.25 60.5 20.703125 57.90625 
Q 18.171875 55.328125 17.78125 49.3125 
L 4.109375 50.6875 
Q 5.328125 62.015625 11.765625 66.9375 
Q 18.21875 71.875 27.875 71.875 
Q 38.484375 71.875 44.53125 66.15625 
Q 50.59375 60.453125 50.59375 51.953125 
Q 50.59375 47.125 48.859375 42.75 
Q 47.125 38.375 43.359375 33.59375 
Q 40.875 30.421875 34.375 24.453125 
Q 27.875 18.5 26.140625 16.546875 
Q 24.421875 14.59375 23.34375 12.75 
z
" id="Arial-BoldMT-50"/>
       </defs>
       <use xlink:href="#Arial-BoldMT-50"/>
       <use x="55.615234" xlink:href="#Arial-BoldMT-46"/>
       <use x="83.398438" xlink:href="#Arial-BoldMT-53"/>
      </g>
     </g>
    </g>
    <g id="ytick_6">
     <g id="line2d_7">
      <g>
       <use style="stroke:#000000;stroke-width:4;" x="64.29" xlink:href="#ma98c1b7deb" y="66.24"/>
      </g>
     </g>
    </g>
    <g id="text_4">
     <!-- . -->
     <g style="fill:#ffffff;" transform="translate(20.3364 171.9603)rotate(-90)scale(0.1728 -0.1728)">
      <defs>
       <path d="M 9.078125 0 
L 9.078125 10.015625 
L 19.09375 10.015625 
L 19.09375 0 
z
" id="ArialMT-46"/>
      </defs>
      <use xlink:href="#ArialMT-46"/>
     </g>
    </g>
   </g>
   <g id="LineCollection_1">
    <path clip-path="url(#pbb3ab7acae)" d="M 90.082 238.126008 
L 90.082 224.977992 
" style="fill:none;stroke:#808080;stroke-opacity:0.6;stroke-width:5;"/>
    <path clip-path="url(#pbb3ab7acae)" d="M 128.77 231.041845 
L 128.77 219.103893 
" style="fill:none;stroke:#808080;stroke-opacity:0.6;stroke-width:5;"/>
    <path clip-path="url(#pbb3ab7acae)" d="M 167.458 217.765762 
L 167.458 206.547368 
" style="fill:none;stroke:#808080;stroke-opacity:0.6;stroke-width:5;"/>
   </g>
   <g id="LineCollection_2">
    <path clip-path="url(#pbb3ab7acae)" d="M 90.082 245.341194 
L 90.082 237.532456 
" style="fill:none;stroke:#76bb4b;stroke-opacity:0.8;stroke-width:5;"/>
    <path clip-path="url(#pbb3ab7acae)" d="M 128.77 220.660194 
L 128.77 208.125031 
" style="fill:none;stroke:#76bb4b;stroke-opacity:0.8;stroke-width:5;"/>
    <path clip-path="url(#pbb3ab7acae)" d="M 167.458 221.596721 
L 167.458 210.650347 
" style="fill:none;stroke:#76bb4b;stroke-opacity:0.8;stroke-width:5;"/>
   </g>
   <g id="line2d_8">
    <defs>
     <path d="M 4 0 
L -4 -0 
" id="m0eb0424684" style="stroke:#808080;stroke-opacity:0.6;stroke-width:4;"/>
    </defs>
    <g clip-path="url(#pbb3ab7acae)">
     <use style="fill:#808080;fill-opacity:0.6;stroke:#808080;stroke-opacity:0.6;stroke-width:4;" x="90.082" xlink:href="#m0eb0424684" y="238.126008"/>
     <use style="fill:#808080;fill-opacity:0.6;stroke:#808080;stroke-opacity:0.6;stroke-width:4;" x="128.77" xlink:href="#m0eb0424684" y="231.041845"/>
     <use style="fill:#808080;fill-opacity:0.6;stroke:#808080;stroke-opacity:0.6;stroke-width:4;" x="167.458" xlink:href="#m0eb0424684" y="217.765762"/>
    </g>
   </g>
   <g id="line2d_9">
    <g clip-path="url(#pbb3ab7acae)">
     <use style="fill:#808080;fill-opacity:0.6;stroke:#808080;stroke-opacity:0.6;stroke-width:4;" x="90.082" xlink:href="#m0eb0424684" y="224.977992"/>
     <use style="fill:#808080;fill-opacity:0.6;stroke:#808080;stroke-opacity:0.6;stroke-width:4;" x="128.77" xlink:href="#m0eb0424684" y="219.103893"/>
     <use style="fill:#808080;fill-opacity:0.6;stroke:#808080;stroke-opacity:0.6;stroke-width:4;" x="167.458" xlink:href="#m0eb0424684" y="206.547368"/>
    </g>
   </g>
   <g id="line2d_10">
    <defs>
     <path d="M 4 0 
L -4 -0 
" id="m40e8f4af8d" style="stroke:#76bb4b;stroke-opacity:0.8;stroke-width:4;"/>
    </defs>
    <g clip-path="url(#pbb3ab7acae)">
     <use style="fill:#76bb4b;fill-opacity:0.8;stroke:#76bb4b;stroke-opacity:0.8;stroke-width:4;" x="90.082" xlink:href="#m40e8f4af8d" y="245.341194"/>
     <use style="fill:#76bb4b;fill-opacity:0.8;stroke:#76bb4b;stroke-opacity:0.8;stroke-width:4;" x="128.77" xlink:href="#m40e8f4af8d" y="220.660194"/>
     <use style="fill:#76bb4b;fill-opacity:0.8;stroke:#76bb4b;stroke-opacity:0.8;stroke-width:4;" x="167.458" xlink:href="#m40e8f4af8d" y="221.596721"/>
    </g>
   </g>
   <g id="line2d_11">
    <g clip-path="url(#pbb3ab7acae)">
     <use style="fill:#76bb4b;fill-opacity:0.8;stroke:#76bb4b;stroke-opacity:0.8;stroke-width:4;" x="90.082" xlink:href="#m40e8f4af8d" y="237.532456"/>
     <use style="fill:#76bb4b;fill-opacity:0.8;stroke:#76bb4b;stroke-opacity:0.8;stroke-width:4;" x="128.77" xlink:href="#m40e8f4af8d" y="208.125031"/>
     <use style="fill:#76bb4b;fill-opacity:0.8;stroke:#76bb4b;stroke-opacity:0.8;stroke-width:4;" x="167.458" xlink:href="#m40e8f4af8d" y="210.650347"/>
    </g>
   </g>
   <g id="line2d_12">
    <path clip-path="url(#pbb3ab7acae)" d="M 90.082 166.94064 
L 128.77 166.94064 
" style="fill:none;stroke:#76bb4b;stroke-linecap:square;stroke-width:3;"/>
   </g>
   <g id="line2d_13">
    <path clip-path="url(#pbb3ab7acae)" d="M 90.082 148.736547 
L 167.458 148.736547 
" style="fill:none;stroke:#76bb4b;stroke-linecap:square;stroke-width:3;"/>
   </g>
   <g id="line2d_14">
    <path clip-path="url(#pbb3ab7acae)" d="M 90.082 231.552 
L 128.77 225.072869 
L 167.458 212.156565 
" style="fill:none;stroke:#808080;stroke-linecap:square;stroke-opacity:0.6;stroke-width:5;"/>
    <defs>
     <path d="M -0 8.485281 
L 5.091169 0 
L 0 -8.485281 
L -5.091169 -0 
z
" id="m647d607833" style="stroke:#808080;stroke-linejoin:miter;stroke-opacity:0.6;stroke-width:4;"/>
    </defs>
    <g clip-path="url(#pbb3ab7acae)">
     <use style="fill:#808080;fill-opacity:0.6;stroke:#808080;stroke-linejoin:miter;stroke-opacity:0.6;stroke-width:4;" x="90.082" xlink:href="#m647d607833" y="231.552"/>
     <use style="fill:#808080;fill-opacity:0.6;stroke:#808080;stroke-linejoin:miter;stroke-opacity:0.6;stroke-width:4;" x="128.77" xlink:href="#m647d607833" y="225.072869"/>
     <use style="fill:#808080;fill-opacity:0.6;stroke:#808080;stroke-linejoin:miter;stroke-opacity:0.6;stroke-width:4;" x="167.458" xlink:href="#m647d607833" y="212.156565"/>
    </g>
   </g>
   <g id="line2d_15">
    <path clip-path="url(#pbb3ab7acae)" d="M 90.082 241.436825 
L 128.77 214.392612 
L 167.458 216.123534 
" style="fill:none;stroke:#76bb4b;stroke-linecap:square;stroke-opacity:0.8;stroke-width:5;"/>
    <defs>
     <path d="M 0 5 
C 1.326016 5 2.597899 4.473168 3.535534 3.535534 
C 4.473168 2.597899 5 1.326016 5 0 
C 5 -1.326016 4.473168 -2.597899 3.535534 -3.535534 
C 2.597899 -4.473168 1.326016 -5 0 -5 
C -1.326016 -5 -2.597899 -4.473168 -3.535534 -3.535534 
C -4.473168 -2.597899 -5 -1.326016 -5 0 
C -5 1.326016 -4.473168 2.597899 -3.535534 3.535534 
C -2.597899 4.473168 -1.326016 5 0 5 
z
" id="m5c6ec5718d" style="stroke:#76bb4b;stroke-opacity:0.8;stroke-width:4;"/>
    </defs>
    <g clip-path="url(#pbb3ab7acae)">
     <use style="fill:#76bb4b;fill-opacity:0.8;stroke:#76bb4b;stroke-opacity:0.8;stroke-width:4;" x="90.082" xlink:href="#m5c6ec5718d" y="241.436825"/>
     <use style="fill:#76bb4b;fill-opacity:0.8;stroke:#76bb4b;stroke-opacity:0.8;stroke-width:4;" x="128.77" xlink:href="#m5c6ec5718d" y="214.392612"/>
     <use style="fill:#76bb4b;fill-opacity:0.8;stroke:#76bb4b;stroke-opacity:0.8;stroke-width:4;" x="167.458" xlink:href="#m5c6ec5718d" y="216.123534"/>
    </g>
   </g>
   <g id="patch_3">
    <path d="M 64.29 272.88 
L 64.29 66.24 
" style="fill:none;stroke:#000000;stroke-linecap:square;stroke-linejoin:miter;stroke-width:4;"/>
   </g>
   <g id="text_5">
    <!-- ** -->
    <g style="fill:#76bb4b;" transform="translate(101.641625 171.061973)scale(0.2 -0.2)">
     <defs>
      <path d="M 11.96875 38.671875 
L 4.59375 44.390625 
Q 8.109375 48.34375 11.921875 51.953125 
Q 13.421875 53.421875 13.8125 53.8125 
Q 12.59375 54 6.84375 55.421875 
Q 2.6875 56.453125 1.375 56.9375 
L 4.25 65.53125 
Q 10.640625 62.9375 15.671875 59.8125 
Q 14.5 67.78125 14.5 72.796875 
L 23.1875 72.796875 
Q 23.1875 69.234375 21.875 59.71875 
Q 22.859375 60.109375 26.078125 61.625 
Q 30.46875 63.625 34.1875 65.046875 
L 36.765625 56.203125 
Q 31.34375 54.984375 24.21875 53.8125 
L 30.078125 47.21875 
Q 31.84375 45.21875 32.859375 43.953125 
L 25.390625 39.015625 
L 18.796875 49.90625 
Q 15.828125 44.625 11.96875 38.671875 
z
" id="Arial-BoldMT-42"/>
     </defs>
     <use xlink:href="#Arial-BoldMT-42"/>
     <use x="38.916016" xlink:href="#Arial-BoldMT-42"/>
    </g>
   </g>
   <g id="text_6">
    <!-- *** -->
    <g style="fill:#76bb4b;" transform="translate(117.093438 152.857879)scale(0.2 -0.2)">
     <use xlink:href="#Arial-BoldMT-42"/>
     <use x="38.916016" xlink:href="#Arial-BoldMT-42"/>
     <use x="77.832031" xlink:href="#Arial-BoldMT-42"/>
    </g>
   </g>
   <g id="text_7">
    <!-- L2/3 Pyr -->
    <g transform="translate(95.1523 60.24)scale(0.1728 -0.1728)">
     <defs>
      <path d="M 7.671875 0 
L 7.671875 71 
L 22.125 71 
L 22.125 12.0625 
L 58.0625 12.0625 
L 58.0625 0 
z
" id="Arial-BoldMT-76"/>
      <path d="M -0.140625 -1.21875 
L 17.578125 72.796875 
L 27.875 72.796875 
L 9.96875 -1.21875 
z
" id="Arial-BoldMT-47"/>
      <path d="M 3.765625 19 
L 17.046875 20.609375 
Q 17.671875 15.53125 20.453125 12.84375 
Q 23.25 10.15625 27.203125 10.15625 
Q 31.453125 10.15625 34.34375 13.375 
Q 37.25 16.609375 37.25 22.078125 
Q 37.25 27.25 34.46875 30.265625 
Q 31.6875 33.296875 27.6875 33.296875 
Q 25.046875 33.296875 21.390625 32.28125 
L 22.90625 43.453125 
Q 28.46875 43.3125 31.390625 45.875 
Q 34.328125 48.4375 34.328125 52.6875 
Q 34.328125 56.296875 32.171875 58.4375 
Q 30.03125 60.59375 26.46875 60.59375 
Q 22.953125 60.59375 20.453125 58.15625 
Q 17.96875 55.71875 17.4375 51.03125 
L 4.78125 53.171875 
Q 6.109375 59.671875 8.765625 63.546875 
Q 11.421875 67.4375 16.1875 69.65625 
Q 20.953125 71.875 26.859375 71.875 
Q 36.96875 71.875 43.0625 65.4375 
Q 48.09375 60.15625 48.09375 53.515625 
Q 48.09375 44.09375 37.796875 38.484375 
Q 43.953125 37.15625 47.625 32.5625 
Q 51.3125 27.984375 51.3125 21.484375 
Q 51.3125 12.0625 44.421875 5.421875 
Q 37.546875 -1.21875 27.296875 -1.21875 
Q 17.578125 -1.21875 11.171875 4.375 
Q 4.78125 9.96875 3.765625 19 
z
" id="Arial-BoldMT-51"/>
      <path id="Arial-BoldMT-32"/>
      <path d="M 7.28125 0 
L 7.28125 71.578125 
L 30.46875 71.578125 
Q 43.65625 71.578125 47.65625 70.515625 
Q 53.8125 68.890625 57.953125 63.5 
Q 62.109375 58.109375 62.109375 49.5625 
Q 62.109375 42.96875 59.71875 38.46875 
Q 57.328125 33.984375 53.640625 31.421875 
Q 49.953125 28.859375 46.140625 28.03125 
Q 40.96875 27 31.15625 27 
L 21.734375 27 
L 21.734375 0 
z
M 21.734375 59.46875 
L 21.734375 39.15625 
L 29.640625 39.15625 
Q 38.1875 39.15625 41.0625 40.28125 
Q 43.953125 41.40625 45.578125 43.796875 
Q 47.21875 46.1875 47.21875 49.359375 
Q 47.21875 53.265625 44.921875 55.796875 
Q 42.625 58.34375 39.109375 58.984375 
Q 36.53125 59.46875 28.71875 59.46875 
z
" id="Arial-BoldMT-80"/>
      <path d="M 0.6875 51.859375 
L 15.28125 51.859375 
L 27.6875 15.046875 
L 39.796875 51.859375 
L 54 51.859375 
L 35.6875 1.953125 
L 32.421875 -7.078125 
Q 30.609375 -11.625 28.96875 -14.015625 
Q 27.34375 -16.40625 25.21875 -17.890625 
Q 23.09375 -19.390625 19.984375 -20.21875 
Q 16.890625 -21.046875 12.984375 -21.046875 
Q 9.03125 -21.046875 5.21875 -20.21875 
L 4 -9.46875 
Q 7.234375 -10.109375 9.8125 -10.109375 
Q 14.59375 -10.109375 16.890625 -7.296875 
Q 19.1875 -4.5 20.40625 -0.140625 
z
" id="Arial-BoldMT-121"/>
      <path d="M 20.3125 0 
L 6.59375 0 
L 6.59375 51.859375 
L 19.34375 51.859375 
L 19.34375 44.484375 
Q 22.609375 49.703125 25.21875 51.359375 
Q 27.828125 53.03125 31.15625 53.03125 
Q 35.84375 53.03125 40.1875 50.4375 
L 35.9375 38.484375 
Q 32.46875 40.71875 29.5 40.71875 
Q 26.609375 40.71875 24.609375 39.125 
Q 22.609375 37.546875 21.453125 33.390625 
Q 20.3125 29.25 20.3125 16.015625 
z
" id="Arial-BoldMT-114"/>
     </defs>
     <use xlink:href="#Arial-BoldMT-76"/>
     <use x="61.083984" xlink:href="#Arial-BoldMT-50"/>
     <use x="116.699219" xlink:href="#Arial-BoldMT-47"/>
     <use x="144.482422" xlink:href="#Arial-BoldMT-51"/>
     <use x="200.097656" xlink:href="#Arial-BoldMT-32"/>
     <use x="227.880859" xlink:href="#Arial-BoldMT-80"/>
     <use x="294.580078" xlink:href="#Arial-BoldMT-121"/>
     <use x="350.195312" xlink:href="#Arial-BoldMT-114"/>
    </g>
   </g>
  </g>
  <g id="axes_2">
   <g id="patch_4">
    <path d="M 225.49 272.88 
L 354.45 272.88 
L 354.45 66.24 
L 225.49 66.24 
z
" style="fill:#ffffff;"/>
   </g>
   <g id="line2d_16">
    <path clip-path="url(#p5e6e036722)" d="M 225.49 231.552 
L 354.45 231.552 
" style="fill:none;stroke:#000000;stroke-dasharray:12,6;stroke-dashoffset:0;stroke-opacity:0.5;stroke-width:3;"/>
   </g>
   <g id="matplotlib.axis_3">
    <g id="xtick_4"/>
    <g id="xtick_5"/>
    <g id="xtick_6"/>
   </g>
   <g id="matplotlib.axis_4">
    <g id="ytick_7">
     <g id="line2d_17">
      <g>
       <use style="stroke:#000000;stroke-width:4;" x="225.49" xlink:href="#ma98c1b7deb" y="272.88"/>
      </g>
     </g>
    </g>
    <g id="ytick_8">
     <g id="line2d_18">
      <g>
       <use style="stroke:#000000;stroke-width:4;" x="225.49" xlink:href="#ma98c1b7deb" y="231.552"/>
      </g>
     </g>
    </g>
    <g id="ytick_9">
     <g id="line2d_19">
      <g>
       <use style="stroke:#000000;stroke-width:4;" x="225.49" xlink:href="#ma98c1b7deb" y="190.224"/>
      </g>
     </g>
    </g>
    <g id="ytick_10">
     <g id="line2d_20">
      <g>
       <use style="stroke:#000000;stroke-width:4;" x="225.49" xlink:href="#ma98c1b7deb" y="148.896"/>
      </g>
     </g>
    </g>
    <g id="ytick_11">
     <g id="line2d_21">
      <g>
       <use style="stroke:#000000;stroke-width:4;" x="225.49" xlink:href="#ma98c1b7deb" y="107.568"/>
      </g>
     </g>
    </g>
    <g id="ytick_12">
     <g id="line2d_22">
      <g>
       <use style="stroke:#000000;stroke-width:4;" x="225.49" xlink:href="#ma98c1b7deb" y="66.24"/>
      </g>
     </g>
    </g>
   </g>
   <g id="LineCollection_3">
    <path clip-path="url(#p5e6e036722)" d="M 251.282 234.846069 
L 251.282 228.257931 
" style="fill:none;stroke:#808080;stroke-opacity:0.6;stroke-width:5;"/>
    <path clip-path="url(#p5e6e036722)" d="M 289.97 235.115515 
L 289.97 229.855433 
" style="fill:none;stroke:#808080;stroke-opacity:0.6;stroke-width:5;"/>
    <path clip-path="url(#p5e6e036722)" d="M 328.658 246.677108 
L 328.658 240.865521 
" style="fill:none;stroke:#808080;stroke-opacity:0.6;stroke-width:5;"/>
   </g>
   <g id="LineCollection_4">
    <path clip-path="url(#p5e6e036722)" d="M 251.282 252.254266 
L 251.282 247.281615 
" style="fill:none;stroke:#488a21;stroke-opacity:0.8;stroke-width:5;"/>
    <path clip-path="url(#p5e6e036722)" d="M 289.97 187.878674 
L 289.97 171.761511 
" style="fill:none;stroke:#488a21;stroke-opacity:0.8;stroke-width:5;"/>
    <path clip-path="url(#p5e6e036722)" d="M 328.658 196.524922 
L 328.658 189.596197 
" style="fill:none;stroke:#488a21;stroke-opacity:0.8;stroke-width:5;"/>
   </g>
   <g id="line2d_23">
    <g clip-path="url(#p5e6e036722)">
     <use style="fill:#808080;fill-opacity:0.6;stroke:#808080;stroke-opacity:0.6;stroke-width:4;" x="251.282" xlink:href="#m0eb0424684" y="234.846069"/>
     <use style="fill:#808080;fill-opacity:0.6;stroke:#808080;stroke-opacity:0.6;stroke-width:4;" x="289.97" xlink:href="#m0eb0424684" y="235.115515"/>
     <use style="fill:#808080;fill-opacity:0.6;stroke:#808080;stroke-opacity:0.6;stroke-width:4;" x="328.658" xlink:href="#m0eb0424684" y="246.677108"/>
    </g>
   </g>
   <g id="line2d_24">
    <g clip-path="url(#p5e6e036722)">
     <use style="fill:#808080;fill-opacity:0.6;stroke:#808080;stroke-opacity:0.6;stroke-width:4;" x="251.282" xlink:href="#m0eb0424684" y="228.257931"/>
     <use style="fill:#808080;fill-opacity:0.6;stroke:#808080;stroke-opacity:0.6;stroke-width:4;" x="289.97" xlink:href="#m0eb0424684" y="229.855433"/>
     <use style="fill:#808080;fill-opacity:0.6;stroke:#808080;stroke-opacity:0.6;stroke-width:4;" x="328.658" xlink:href="#m0eb0424684" y="240.865521"/>
    </g>
   </g>
   <g id="line2d_25">
    <defs>
     <path d="M 4 0 
L -4 -0 
" id="mc449dda4ca" style="stroke:#488a21;stroke-opacity:0.8;stroke-width:4;"/>
    </defs>
    <g clip-path="url(#p5e6e036722)">
     <use style="fill:#488a21;fill-opacity:0.8;stroke:#488a21;stroke-opacity:0.8;stroke-width:4;" x="251.282" xlink:href="#mc449dda4ca" y="252.254266"/>
     <use style="fill:#488a21;fill-opacity:0.8;stroke:#488a21;stroke-opacity:0.8;stroke-width:4;" x="289.97" xlink:href="#mc449dda4ca" y="187.878674"/>
     <use style="fill:#488a21;fill-opacity:0.8;stroke:#488a21;stroke-opacity:0.8;stroke-width:4;" x="328.658" xlink:href="#mc449dda4ca" y="196.524922"/>
    </g>
   </g>
   <g id="line2d_26">
    <g clip-path="url(#p5e6e036722)">
     <use style="fill:#488a21;fill-opacity:0.8;stroke:#488a21;stroke-opacity:0.8;stroke-width:4;" x="251.282" xlink:href="#mc449dda4ca" y="247.281615"/>
     <use style="fill:#488a21;fill-opacity:0.8;stroke:#488a21;stroke-opacity:0.8;stroke-width:4;" x="289.97" xlink:href="#mc449dda4ca" y="171.761511"/>
     <use style="fill:#488a21;fill-opacity:0.8;stroke:#488a21;stroke-opacity:0.8;stroke-width:4;" x="328.658" xlink:href="#mc449dda4ca" y="189.596197"/>
    </g>
   </g>
   <g id="line2d_27">
    <path clip-path="url(#p5e6e036722)" d="M 289.97 146.698079 
L 328.658 146.698079 
" style="fill:none;stroke:#808080;stroke-linecap:square;stroke-width:3;"/>
   </g>
   <g id="line2d_28">
    <path clip-path="url(#p5e6e036722)" d="M 251.282 116.417297 
L 289.97 116.417297 
" style="fill:none;stroke:#488a21;stroke-linecap:square;stroke-width:3;"/>
   </g>
   <g id="line2d_29">
    <path clip-path="url(#p5e6e036722)" d="M 251.282 98.213203 
L 328.658 98.213203 
" style="fill:none;stroke:#488a21;stroke-linecap:square;stroke-width:3;"/>
   </g>
   <g id="line2d_30">
    <path clip-path="url(#p5e6e036722)" d="M 251.282 231.552 
L 289.97 232.485474 
L 328.658 243.771314 
" style="fill:none;stroke:#808080;stroke-dasharray:15,10;stroke-dashoffset:0;stroke-opacity:0.6;stroke-width:5;"/>
    <g clip-path="url(#p5e6e036722)">
     <use style="fill:#808080;fill-opacity:0.6;stroke:#808080;stroke-linejoin:miter;stroke-opacity:0.6;stroke-width:4;" x="251.282" xlink:href="#m647d607833" y="231.552"/>
     <use style="fill:#808080;fill-opacity:0.6;stroke:#808080;stroke-linejoin:miter;stroke-opacity:0.6;stroke-width:4;" x="289.97" xlink:href="#m647d607833" y="232.485474"/>
     <use style="fill:#808080;fill-opacity:0.6;stroke:#808080;stroke-linejoin:miter;stroke-opacity:0.6;stroke-width:4;" x="328.658" xlink:href="#m647d607833" y="243.771314"/>
    </g>
   </g>
   <g id="line2d_31">
    <path clip-path="url(#p5e6e036722)" d="M 251.282 249.76794 
L 289.97 179.820092 
L 328.658 193.060559 
" style="fill:none;stroke:#488a21;stroke-dasharray:15,10;stroke-dashoffset:0;stroke-opacity:0.8;stroke-width:5;"/>
    <defs>
     <path d="M 0 5 
C 1.326016 5 2.597899 4.473168 3.535534 3.535534 
C 4.473168 2.597899 5 1.326016 5 0 
C 5 -1.326016 4.473168 -2.597899 3.535534 -3.535534 
C 2.597899 -4.473168 1.326016 -5 0 -5 
C -1.326016 -5 -2.597899 -4.473168 -3.535534 -3.535534 
C -4.473168 -2.597899 -5 -1.326016 -5 0 
C -5 1.326016 -4.473168 2.597899 -3.535534 3.535534 
C -2.597899 4.473168 -1.326016 5 0 5 
z
" id="m64411874cf" style="stroke:#488a21;stroke-opacity:0.8;stroke-width:4;"/>
    </defs>
    <g clip-path="url(#p5e6e036722)">
     <use style="fill:#488a21;fill-opacity:0.8;stroke:#488a21;stroke-opacity:0.8;stroke-width:4;" x="251.282" xlink:href="#m64411874cf" y="249.76794"/>
     <use style="fill:#488a21;fill-opacity:0.8;stroke:#488a21;stroke-opacity:0.8;stroke-width:4;" x="289.97" xlink:href="#m64411874cf" y="179.820092"/>
     <use style="fill:#488a21;fill-opacity:0.8;stroke:#488a21;stroke-opacity:0.8;stroke-width:4;" x="328.658" xlink:href="#m64411874cf" y="193.060559"/>
    </g>
   </g>
   <g id="patch_5">
    <path d="M 225.49 272.88 
L 225.49 66.24 
" style="fill:none;stroke:#000000;stroke-linecap:square;stroke-linejoin:miter;stroke-width:4;"/>
   </g>
   <g id="text_8">
    <!-- ++ -->
    <g style="fill:#808080;" transform="translate(301.137125 144.987197)scale(0.14 -0.14)">
     <defs>
      <path d="M 22.90625 10.296875 
L 22.90625 28.90625 
L 4.15625 28.90625 
L 4.15625 41.75 
L 22.90625 41.75 
L 22.90625 60.359375 
L 35.40625 60.359375 
L 35.40625 41.75 
L 54.203125 41.75 
L 54.203125 28.90625 
L 35.40625 28.90625 
L 35.40625 10.296875 
z
" id="Arial-BoldMT-43"/>
     </defs>
     <use xlink:href="#Arial-BoldMT-43"/>
     <use x="58.398438" xlink:href="#Arial-BoldMT-43"/>
    </g>
   </g>
   <g id="text_9">
    <!-- *** -->
    <g style="fill:#488a21;" transform="translate(258.949438 120.53863)scale(0.2 -0.2)">
     <use xlink:href="#Arial-BoldMT-42"/>
     <use x="38.916016" xlink:href="#Arial-BoldMT-42"/>
     <use x="77.832031" xlink:href="#Arial-BoldMT-42"/>
    </g>
   </g>
   <g id="text_10">
    <!-- *** -->
    <g style="fill:#488a21;" transform="translate(278.293438 102.334536)scale(0.2 -0.2)">
     <use xlink:href="#Arial-BoldMT-42"/>
     <use x="38.916016" xlink:href="#Arial-BoldMT-42"/>
     <use x="77.832031" xlink:href="#Arial-BoldMT-42"/>
    </g>
   </g>
   <g id="text_11">
    <!-- L5 Pyr -->
    <g transform="translate(263.55725 60.24)scale(0.1728 -0.1728)">
     <use xlink:href="#Arial-BoldMT-76"/>
     <use x="61.083984" xlink:href="#Arial-BoldMT-53"/>
     <use x="116.699219" xlink:href="#Arial-BoldMT-32"/>
     <use x="144.482422" xlink:href="#Arial-BoldMT-80"/>
     <use x="211.181641" xlink:href="#Arial-BoldMT-121"/>
     <use x="266.796875" xlink:href="#Arial-BoldMT-114"/>
    </g>
   </g>
  </g>
  <g id="axes_3">
   <g id="patch_6">
    <path d="M 64.29 520.848 
L 193.25 520.848 
L 193.25 314.208 
L 64.29 314.208 
z
" style="fill:#ffffff;"/>
   </g>
   <g id="line2d_32">
    <path clip-path="url(#p4f63a918a2)" d="M 64.29 469.188 
L 193.25 469.188 
" style="fill:none;stroke:#000000;stroke-dasharray:12,6;stroke-dashoffset:0;stroke-opacity:0.5;stroke-width:3;"/>
   </g>
   <g id="matplotlib.axis_5">
    <g id="xtick_7">
     <g id="line2d_33">
      <defs>
       <path d="M 0 0 
L 0 8 
" id="m5705f758f5" style="stroke:#000000;stroke-width:4;"/>
      </defs>
      <g>
       <use style="stroke:#000000;stroke-width:4;" x="90.082" xlink:href="#m5705f758f5" y="520.848"/>
      </g>
     </g>
     <g id="text_12">
      <!-- 1 -->
      <g transform="translate(85.27735 544.7167)scale(0.1728 -0.1728)">
       <use xlink:href="#Arial-BoldMT-49"/>
      </g>
     </g>
    </g>
    <g id="xtick_8">
     <g id="line2d_34">
      <g>
       <use style="stroke:#000000;stroke-width:4;" x="128.77" xlink:href="#m5705f758f5" y="520.848"/>
      </g>
     </g>
     <g id="text_13">
      <!-- 2 -->
      <g transform="translate(123.96535 544.7167)scale(0.1728 -0.1728)">
       <use xlink:href="#Arial-BoldMT-50"/>
      </g>
     </g>
    </g>
    <g id="xtick_9">
     <g id="line2d_35">
      <g>
       <use style="stroke:#000000;stroke-width:4;" x="167.458" xlink:href="#m5705f758f5" y="520.848"/>
      </g>
     </g>
     <g id="text_14">
      <!-- 3 -->
      <g transform="translate(162.65335 544.7167)scale(0.1728 -0.1728)">
       <use xlink:href="#Arial-BoldMT-51"/>
      </g>
     </g>
    </g>
   </g>
   <g id="matplotlib.axis_6">
    <g id="ytick_13">
     <g id="line2d_36">
      <g>
       <use style="stroke:#000000;stroke-width:4;" x="64.29" xlink:href="#ma98c1b7deb" y="520.848"/>
      </g>
     </g>
     <g id="text_15">
      <!-- 0 -->
      <g transform="translate(43.1807 527.03235)scale(0.1728 -0.1728)">
       <use xlink:href="#Arial-BoldMT-48"/>
      </g>
     </g>
    </g>
    <g id="ytick_14">
     <g id="line2d_37">
      <g>
       <use style="stroke:#000000;stroke-width:4;" x="64.29" xlink:href="#ma98c1b7deb" y="469.188"/>
      </g>
     </g>
    </g>
    <g id="ytick_15">
     <g id="line2d_38">
      <g>
       <use style="stroke:#000000;stroke-width:4;" x="64.29" xlink:href="#ma98c1b7deb" y="417.528"/>
      </g>
     </g>
     <g id="text_16">
      <!-- 2 -->
      <g transform="translate(43.1807 423.71235)scale(0.1728 -0.1728)">
       <use xlink:href="#Arial-BoldMT-50"/>
      </g>
     </g>
    </g>
    <g id="ytick_16">
     <g id="line2d_39">
      <g>
       <use style="stroke:#000000;stroke-width:4;" x="64.29" xlink:href="#ma98c1b7deb" y="365.868"/>
      </g>
     </g>
    </g>
    <g id="ytick_17">
     <g id="line2d_40">
      <g>
       <use style="stroke:#000000;stroke-width:4;" x="64.29" xlink:href="#ma98c1b7deb" y="314.208"/>
      </g>
     </g>
     <g id="text_17">
      <!-- 4 -->
      <g transform="translate(43.1807 320.39235)scale(0.1728 -0.1728)">
       <defs>
        <path d="M 31.15625 0 
L 31.15625 14.40625 
L 1.859375 14.40625 
L 1.859375 26.421875 
L 32.90625 71.875 
L 44.4375 71.875 
L 44.4375 26.46875 
L 53.328125 26.46875 
L 53.328125 14.40625 
L 44.4375 14.40625 
L 44.4375 0 
z
M 31.15625 26.46875 
L 31.15625 50.921875 
L 14.703125 26.46875 
z
" id="Arial-BoldMT-52"/>
       </defs>
       <use xlink:href="#Arial-BoldMT-52"/>
      </g>
     </g>
    </g>
   </g>
   <g id="LineCollection_5">
    <path clip-path="url(#p4f63a918a2)" d="M 90.082 475.973956 
L 90.082 462.402044 
" style="fill:none;stroke:#808080;stroke-opacity:0.6;stroke-width:5;"/>
    <path clip-path="url(#p4f63a918a2)" d="M 128.77 471.500742 
L 128.77 459.622681 
" style="fill:none;stroke:#808080;stroke-opacity:0.6;stroke-width:5;"/>
    <path clip-path="url(#p4f63a918a2)" d="M 167.458 486.196168 
L 167.458 477.080259 
" style="fill:none;stroke:#808080;stroke-opacity:0.6;stroke-width:5;"/>
   </g>
   <g id="LineCollection_6">
    <path clip-path="url(#p4f63a918a2)" d="M 90.082 471.62102 
L 90.082 448.141219 
" style="fill:none;stroke:#50a2d5;stroke-opacity:0.8;stroke-width:5;"/>
    <path clip-path="url(#p4f63a918a2)" d="M 128.77 471.053072 
L 128.77 451.759161 
" style="fill:none;stroke:#50a2d5;stroke-opacity:0.8;stroke-width:5;"/>
    <path clip-path="url(#p4f63a918a2)" d="M 167.458 511.336404 
L 167.458 502.774199 
" style="fill:none;stroke:#50a2d5;stroke-opacity:0.8;stroke-width:5;"/>
   </g>
   <g id="line2d_41">
    <g clip-path="url(#p4f63a918a2)">
     <use style="fill:#808080;fill-opacity:0.6;stroke:#808080;stroke-opacity:0.6;stroke-width:4;" x="90.082" xlink:href="#m0eb0424684" y="475.973956"/>
     <use style="fill:#808080;fill-opacity:0.6;stroke:#808080;stroke-opacity:0.6;stroke-width:4;" x="128.77" xlink:href="#m0eb0424684" y="471.500742"/>
     <use style="fill:#808080;fill-opacity:0.6;stroke:#808080;stroke-opacity:0.6;stroke-width:4;" x="167.458" xlink:href="#m0eb0424684" y="486.196168"/>
    </g>
   </g>
   <g id="line2d_42">
    <g clip-path="url(#p4f63a918a2)">
     <use style="fill:#808080;fill-opacity:0.6;stroke:#808080;stroke-opacity:0.6;stroke-width:4;" x="90.082" xlink:href="#m0eb0424684" y="462.402044"/>
     <use style="fill:#808080;fill-opacity:0.6;stroke:#808080;stroke-opacity:0.6;stroke-width:4;" x="128.77" xlink:href="#m0eb0424684" y="459.622681"/>
     <use style="fill:#808080;fill-opacity:0.6;stroke:#808080;stroke-opacity:0.6;stroke-width:4;" x="167.458" xlink:href="#m0eb0424684" y="477.080259"/>
    </g>
   </g>
   <g id="line2d_43">
    <defs>
     <path d="M 4 0 
L -4 -0 
" id="m11b306141a" style="stroke:#50a2d5;stroke-opacity:0.8;stroke-width:4;"/>
    </defs>
    <g clip-path="url(#p4f63a918a2)">
     <use style="fill:#50a2d5;fill-opacity:0.8;stroke:#50a2d5;stroke-opacity:0.8;stroke-width:4;" x="90.082" xlink:href="#m11b306141a" y="471.62102"/>
     <use style="fill:#50a2d5;fill-opacity:0.8;stroke:#50a2d5;stroke-opacity:0.8;stroke-width:4;" x="128.77" xlink:href="#m11b306141a" y="471.053072"/>
     <use style="fill:#50a2d5;fill-opacity:0.8;stroke:#50a2d5;stroke-opacity:0.8;stroke-width:4;" x="167.458" xlink:href="#m11b306141a" y="511.336404"/>
    </g>
   </g>
   <g id="line2d_44">
    <g clip-path="url(#p4f63a918a2)">
     <use style="fill:#50a2d5;fill-opacity:0.8;stroke:#50a2d5;stroke-opacity:0.8;stroke-width:4;" x="90.082" xlink:href="#m11b306141a" y="448.141219"/>
     <use style="fill:#50a2d5;fill-opacity:0.8;stroke:#50a2d5;stroke-opacity:0.8;stroke-width:4;" x="128.77" xlink:href="#m11b306141a" y="451.759161"/>
     <use style="fill:#50a2d5;fill-opacity:0.8;stroke:#50a2d5;stroke-opacity:0.8;stroke-width:4;" x="167.458" xlink:href="#m11b306141a" y="502.774199"/>
    </g>
   </g>
   <g id="line2d_45">
    <path clip-path="url(#p4f63a918a2)" d="M 128.77 413.112204 
L 167.458 413.112204 
" style="fill:none;stroke:#808080;stroke-linecap:square;stroke-width:3;"/>
   </g>
   <g id="line2d_46">
    <path clip-path="url(#p4f63a918a2)" d="M 90.082 382.394538 
L 167.458 382.394538 
" style="fill:none;stroke:#50a2d5;stroke-linecap:square;stroke-width:3;"/>
   </g>
   <g id="line2d_47">
    <path clip-path="url(#p4f63a918a2)" d="M 128.77 359.763014 
L 167.458 359.763014 
" style="fill:none;stroke:#50a2d5;stroke-linecap:square;stroke-width:3;"/>
   </g>
   <g id="line2d_48">
    <path clip-path="url(#p4f63a918a2)" d="M 90.082 469.188 
L 128.77 465.561712 
L 167.458 481.638213 
" style="fill:none;stroke:#808080;stroke-linecap:square;stroke-opacity:0.6;stroke-width:5;"/>
    <g clip-path="url(#p4f63a918a2)">
     <use style="fill:#808080;fill-opacity:0.6;stroke:#808080;stroke-linejoin:miter;stroke-opacity:0.6;stroke-width:4;" x="90.082" xlink:href="#m647d607833" y="469.188"/>
     <use style="fill:#808080;fill-opacity:0.6;stroke:#808080;stroke-linejoin:miter;stroke-opacity:0.6;stroke-width:4;" x="128.77" xlink:href="#m647d607833" y="465.561712"/>
     <use style="fill:#808080;fill-opacity:0.6;stroke:#808080;stroke-linejoin:miter;stroke-opacity:0.6;stroke-width:4;" x="167.458" xlink:href="#m647d607833" y="481.638213"/>
    </g>
   </g>
   <g id="line2d_49">
    <path clip-path="url(#p4f63a918a2)" d="M 90.082 459.88112 
L 128.77 461.406116 
L 167.458 507.055302 
" style="fill:none;stroke:#50a2d5;stroke-linecap:square;stroke-opacity:0.8;stroke-width:5;"/>
    <defs>
     <path d="M 0 5 
C 1.326016 5 2.597899 4.473168 3.535534 3.535534 
C 4.473168 2.597899 5 1.326016 5 0 
C 5 -1.326016 4.473168 -2.597899 3.535534 -3.535534 
C 2.597899 -4.473168 1.326016 -5 0 -5 
C -1.326016 -5 -2.597899 -4.473168 -3.535534 -3.535534 
C -4.473168 -2.597899 -5 -1.326016 -5 0 
C -5 1.326016 -4.473168 2.597899 -3.535534 3.535534 
C -2.597899 4.473168 -1.326016 5 0 5 
z
" id="m54cc4fa48c" style="stroke:#50a2d5;stroke-opacity:0.8;stroke-width:4;"/>
    </defs>
    <g clip-path="url(#p4f63a918a2)">
     <use style="fill:#50a2d5;fill-opacity:0.8;stroke:#50a2d5;stroke-opacity:0.8;stroke-width:4;" x="90.082" xlink:href="#m54cc4fa48c" y="459.88112"/>
     <use style="fill:#50a2d5;fill-opacity:0.8;stroke:#50a2d5;stroke-opacity:0.8;stroke-width:4;" x="128.77" xlink:href="#m54cc4fa48c" y="461.406116"/>
     <use style="fill:#50a2d5;fill-opacity:0.8;stroke:#50a2d5;stroke-opacity:0.8;stroke-width:4;" x="167.458" xlink:href="#m54cc4fa48c" y="507.055302"/>
    </g>
   </g>
   <g id="patch_7">
    <path d="M 64.29 520.848 
L 64.29 314.208 
" style="fill:none;stroke:#000000;stroke-linecap:square;stroke-linejoin:miter;stroke-width:4;"/>
   </g>
   <g id="patch_8">
    <path d="M 64.29 520.848 
L 193.25 520.848 
" style="fill:none;stroke:#000000;stroke-linecap:square;stroke-linejoin:miter;stroke-width:4;"/>
   </g>
   <g id="text_18">
    <!-- +++ -->
    <g style="fill:#808080;" transform="translate(135.848688 406.736582)scale(0.14 -0.14)">
     <use xlink:href="#Arial-BoldMT-43"/>
     <use x="58.398438" xlink:href="#Arial-BoldMT-43"/>
     <use x="116.796875" xlink:href="#Arial-BoldMT-43"/>
    </g>
   </g>
   <g id="text_19">
    <!-- *** -->
    <g style="fill:#50a2d5;" transform="translate(117.093438 384.03651)scale(0.2 -0.2)">
     <use xlink:href="#Arial-BoldMT-42"/>
     <use x="38.916016" xlink:href="#Arial-BoldMT-42"/>
     <use x="77.832031" xlink:href="#Arial-BoldMT-42"/>
    </g>
   </g>
   <g id="text_20">
    <!-- *** -->
    <g style="fill:#50a2d5;" transform="translate(136.437438 361.404986)scale(0.2 -0.2)">
     <use xlink:href="#Arial-BoldMT-42"/>
     <use x="38.916016" xlink:href="#Arial-BoldMT-42"/>
     <use x="77.832031" xlink:href="#Arial-BoldMT-42"/>
    </g>
   </g>
  </g>
  <g id="axes_4">
   <g id="patch_9">
    <path d="M 225.49 520.848 
L 354.45 520.848 
L 354.45 314.208 
L 225.49 314.208 
z
" style="fill:#ffffff;"/>
   </g>
   <g id="line2d_50">
    <path clip-path="url(#p5ce5d5eac1)" d="M 225.49 469.188 
L 354.45 469.188 
" style="fill:none;stroke:#000000;stroke-dasharray:12,6;stroke-dashoffset:0;stroke-opacity:0.5;stroke-width:3;"/>
   </g>
   <g id="matplotlib.axis_7">
    <g id="xtick_10">
     <g id="line2d_51">
      <g>
       <use style="stroke:#000000;stroke-width:4;" x="251.282" xlink:href="#m5705f758f5" y="520.848"/>
      </g>
     </g>
     <g id="text_21">
      <!-- 1 -->
      <g transform="translate(246.47735 544.7167)scale(0.1728 -0.1728)">
       <use xlink:href="#Arial-BoldMT-49"/>
      </g>
     </g>
    </g>
    <g id="xtick_11">
     <g id="line2d_52">
      <g>
       <use style="stroke:#000000;stroke-width:4;" x="289.97" xlink:href="#m5705f758f5" y="520.848"/>
      </g>
     </g>
     <g id="text_22">
      <!-- 2 -->
      <g transform="translate(285.16535 544.7167)scale(0.1728 -0.1728)">
       <use xlink:href="#Arial-BoldMT-50"/>
      </g>
     </g>
    </g>
    <g id="xtick_12">
     <g id="line2d_53">
      <g>
       <use style="stroke:#000000;stroke-width:4;" x="328.658" xlink:href="#m5705f758f5" y="520.848"/>
      </g>
     </g>
     <g id="text_23">
      <!-- 3 -->
      <g transform="translate(323.85335 544.7167)scale(0.1728 -0.1728)">
       <use xlink:href="#Arial-BoldMT-51"/>
      </g>
     </g>
    </g>
   </g>
   <g id="matplotlib.axis_8">
    <g id="ytick_18">
     <g id="line2d_54">
      <g>
       <use style="stroke:#000000;stroke-width:4;" x="225.49" xlink:href="#ma98c1b7deb" y="520.848"/>
      </g>
     </g>
    </g>
    <g id="ytick_19">
     <g id="line2d_55">
      <g>
       <use style="stroke:#000000;stroke-width:4;" x="225.49" xlink:href="#ma98c1b7deb" y="469.188"/>
      </g>
     </g>
    </g>
    <g id="ytick_20">
     <g id="line2d_56">
      <g>
       <use style="stroke:#000000;stroke-width:4;" x="225.49" xlink:href="#ma98c1b7deb" y="417.528"/>
      </g>
     </g>
    </g>
    <g id="ytick_21">
     <g id="line2d_57">
      <g>
       <use style="stroke:#000000;stroke-width:4;" x="225.49" xlink:href="#ma98c1b7deb" y="365.868"/>
      </g>
     </g>
    </g>
    <g id="ytick_22">
     <g id="line2d_58">
      <g>
       <use style="stroke:#000000;stroke-width:4;" x="225.49" xlink:href="#ma98c1b7deb" y="314.208"/>
      </g>
     </g>
    </g>
   </g>
   <g id="LineCollection_7">
    <path clip-path="url(#p5ce5d5eac1)" d="M 251.282 476.063539 
L 251.282 462.312461 
" style="fill:none;stroke:#808080;stroke-opacity:0.6;stroke-width:5;"/>
    <path clip-path="url(#p5ce5d5eac1)" d="M 289.97 486.786195 
L 289.97 475.68684 
" style="fill:none;stroke:#808080;stroke-opacity:0.6;stroke-width:5;"/>
    <path clip-path="url(#p5ce5d5eac1)" d="M 328.658 496.530271 
L 328.658 484.627296 
" style="fill:none;stroke:#808080;stroke-opacity:0.6;stroke-width:5;"/>
   </g>
   <g id="LineCollection_8">
    <path clip-path="url(#p5ce5d5eac1)" d="M 251.282 441.175718 
L 251.282 398.838565 
" style="fill:none;stroke:#22567a;stroke-opacity:0.8;stroke-width:5;"/>
    <path clip-path="url(#p5ce5d5eac1)" d="M 289.97 472.844011 
L 289.97 461.828191 
" style="fill:none;stroke:#22567a;stroke-opacity:0.8;stroke-width:5;"/>
    <path clip-path="url(#p5ce5d5eac1)" d="M 328.658 479.094242 
L 328.658 459.587955 
" style="fill:none;stroke:#22567a;stroke-opacity:0.8;stroke-width:5;"/>
   </g>
   <g id="line2d_59">
    <g clip-path="url(#p5ce5d5eac1)">
     <use style="fill:#808080;fill-opacity:0.6;stroke:#808080;stroke-opacity:0.6;stroke-width:4;" x="251.282" xlink:href="#m0eb0424684" y="476.063539"/>
     <use style="fill:#808080;fill-opacity:0.6;stroke:#808080;stroke-opacity:0.6;stroke-width:4;" x="289.97" xlink:href="#m0eb0424684" y="486.786195"/>
     <use style="fill:#808080;fill-opacity:0.6;stroke:#808080;stroke-opacity:0.6;stroke-width:4;" x="328.658" xlink:href="#m0eb0424684" y="496.530271"/>
    </g>
   </g>
   <g id="line2d_60">
    <g clip-path="url(#p5ce5d5eac1)">
     <use style="fill:#808080;fill-opacity:0.6;stroke:#808080;stroke-opacity:0.6;stroke-width:4;" x="251.282" xlink:href="#m0eb0424684" y="462.312461"/>
     <use style="fill:#808080;fill-opacity:0.6;stroke:#808080;stroke-opacity:0.6;stroke-width:4;" x="289.97" xlink:href="#m0eb0424684" y="475.68684"/>
     <use style="fill:#808080;fill-opacity:0.6;stroke:#808080;stroke-opacity:0.6;stroke-width:4;" x="328.658" xlink:href="#m0eb0424684" y="484.627296"/>
    </g>
   </g>
   <g id="line2d_61">
    <defs>
     <path d="M 4 0 
L -4 -0 
" id="mc7e8eb6f3b" style="stroke:#22567a;stroke-opacity:0.8;stroke-width:4;"/>
    </defs>
    <g clip-path="url(#p5ce5d5eac1)">
     <use style="fill:#22567a;fill-opacity:0.8;stroke:#22567a;stroke-opacity:0.8;stroke-width:4;" x="251.282" xlink:href="#mc7e8eb6f3b" y="441.175718"/>
     <use style="fill:#22567a;fill-opacity:0.8;stroke:#22567a;stroke-opacity:0.8;stroke-width:4;" x="289.97" xlink:href="#mc7e8eb6f3b" y="472.844011"/>
     <use style="fill:#22567a;fill-opacity:0.8;stroke:#22567a;stroke-opacity:0.8;stroke-width:4;" x="328.658" xlink:href="#mc7e8eb6f3b" y="479.094242"/>
    </g>
   </g>
   <g id="line2d_62">
    <g clip-path="url(#p5ce5d5eac1)">
     <use style="fill:#22567a;fill-opacity:0.8;stroke:#22567a;stroke-opacity:0.8;stroke-width:4;" x="251.282" xlink:href="#mc7e8eb6f3b" y="398.838565"/>
     <use style="fill:#22567a;fill-opacity:0.8;stroke:#22567a;stroke-opacity:0.8;stroke-width:4;" x="289.97" xlink:href="#mc7e8eb6f3b" y="461.828191"/>
     <use style="fill:#22567a;fill-opacity:0.8;stroke:#22567a;stroke-opacity:0.8;stroke-width:4;" x="328.658" xlink:href="#mc7e8eb6f3b" y="459.587955"/>
    </g>
   </g>
   <g id="line2d_63">
    <path clip-path="url(#p5ce5d5eac1)" d="M 251.282 363.80955 
L 328.658 363.80955 
" style="fill:none;stroke:#808080;stroke-linecap:square;stroke-width:3;"/>
   </g>
   <g id="line2d_64">
    <path clip-path="url(#p5ce5d5eac1)" d="M 251.282 330.626751 
L 328.658 330.626751 
" style="fill:none;stroke:#22567a;stroke-linecap:square;stroke-width:3;"/>
   </g>
   <g id="line2d_65">
    <path clip-path="url(#p5ce5d5eac1)" d="M 251.282 469.188 
L 289.97 481.236517 
L 328.658 490.578783 
" style="fill:none;stroke:#808080;stroke-dasharray:15,10;stroke-dashoffset:0;stroke-opacity:0.6;stroke-width:5;"/>
    <g clip-path="url(#p5ce5d5eac1)">
     <use style="fill:#808080;fill-opacity:0.6;stroke:#808080;stroke-linejoin:miter;stroke-opacity:0.6;stroke-width:4;" x="251.282" xlink:href="#m647d607833" y="469.188"/>
     <use style="fill:#808080;fill-opacity:0.6;stroke:#808080;stroke-linejoin:miter;stroke-opacity:0.6;stroke-width:4;" x="289.97" xlink:href="#m647d607833" y="481.236517"/>
     <use style="fill:#808080;fill-opacity:0.6;stroke:#808080;stroke-linejoin:miter;stroke-opacity:0.6;stroke-width:4;" x="328.658" xlink:href="#m647d607833" y="490.578783"/>
    </g>
   </g>
   <g id="line2d_66">
    <path clip-path="url(#p5ce5d5eac1)" d="M 251.282 420.007141 
L 289.97 467.336101 
L 328.658 469.341099 
" style="fill:none;stroke:#22567a;stroke-dasharray:15,10;stroke-dashoffset:0;stroke-opacity:0.8;stroke-width:5;"/>
    <defs>
     <path d="M 0 5 
C 1.326016 5 2.597899 4.473168 3.535534 3.535534 
C 4.473168 2.597899 5 1.326016 5 0 
C 5 -1.326016 4.473168 -2.597899 3.535534 -3.535534 
C 2.597899 -4.473168 1.326016 -5 0 -5 
C -1.326016 -5 -2.597899 -4.473168 -3.535534 -3.535534 
C -4.473168 -2.597899 -5 -1.326016 -5 0 
C -5 1.326016 -4.473168 2.597899 -3.535534 3.535534 
C -2.597899 4.473168 -1.326016 5 0 5 
z
" id="ma04a3199f7" style="stroke:#22567a;stroke-opacity:0.8;stroke-width:4;"/>
    </defs>
    <g clip-path="url(#p5ce5d5eac1)">
     <use style="fill:#22567a;fill-opacity:0.8;stroke:#22567a;stroke-opacity:0.8;stroke-width:4;" x="251.282" xlink:href="#ma04a3199f7" y="420.007141"/>
     <use style="fill:#22567a;fill-opacity:0.8;stroke:#22567a;stroke-opacity:0.8;stroke-width:4;" x="289.97" xlink:href="#ma04a3199f7" y="467.336101"/>
     <use style="fill:#22567a;fill-opacity:0.8;stroke:#22567a;stroke-opacity:0.8;stroke-width:4;" x="328.658" xlink:href="#ma04a3199f7" y="469.341099"/>
    </g>
   </g>
   <g id="patch_10">
    <path d="M 225.49 520.848 
L 225.49 314.208 
" style="fill:none;stroke:#000000;stroke-linecap:square;stroke-linejoin:miter;stroke-width:4;"/>
   </g>
   <g id="patch_11">
    <path d="M 225.49 520.848 
L 354.45 520.848 
" style="fill:none;stroke:#000000;stroke-linecap:square;stroke-linejoin:miter;stroke-width:4;"/>
   </g>
   <g id="text_24">
    <!-- +++ -->
    <g style="fill:#808080;" transform="translate(277.704688 357.433927)scale(0.14 -0.14)">
     <use xlink:href="#Arial-BoldMT-43"/>
     <use x="58.398438" xlink:href="#Arial-BoldMT-43"/>
     <use x="116.796875" xlink:href="#Arial-BoldMT-43"/>
    </g>
   </g>
   <g id="text_25">
    <!-- *** -->
    <g style="fill:#22567a;" transform="translate(278.293438 332.268722)scale(0.2 -0.2)">
     <use xlink:href="#Arial-BoldMT-42"/>
     <use x="38.916016" xlink:href="#Arial-BoldMT-42"/>
     <use x="77.832031" xlink:href="#Arial-BoldMT-42"/>
    </g>
   </g>
  </g>
  <g id="text_26">
   <!-- Gabor ABC vs UG, relative to session 1 -->
   <g transform="translate(43.69035 19.5687)scale(0.1728 -0.1728)">
    <defs>
     <path d="M 40.578125 26.3125 
L 40.578125 38.375 
L 71.734375 38.375 
L 71.734375 9.859375 
Q 67.1875 5.46875 58.5625 2.125 
Q 49.953125 -1.21875 41.109375 -1.21875 
Q 29.890625 -1.21875 21.53125 3.484375 
Q 13.1875 8.203125 8.984375 16.96875 
Q 4.78125 25.734375 4.78125 36.03125 
Q 4.78125 47.21875 9.46875 55.90625 
Q 14.15625 64.59375 23.1875 69.234375 
Q 30.078125 72.796875 40.328125 72.796875 
Q 53.65625 72.796875 61.15625 67.203125 
Q 68.65625 61.625 70.796875 51.765625 
L 56.453125 49.078125 
Q 54.9375 54.34375 50.75 57.390625 
Q 46.578125 60.453125 40.328125 60.453125 
Q 30.859375 60.453125 25.265625 54.4375 
Q 19.671875 48.4375 19.671875 36.625 
Q 19.671875 23.875 25.328125 17.5 
Q 31 11.140625 40.1875 11.140625 
Q 44.734375 11.140625 49.296875 12.921875 
Q 53.859375 14.703125 57.125 17.234375 
L 57.125 26.3125 
z
" id="Arial-BoldMT-71"/>
     <path d="M 17.4375 36.03125 
L 4.984375 38.28125 
Q 7.078125 45.796875 12.203125 49.40625 
Q 17.328125 53.03125 27.4375 53.03125 
Q 36.625 53.03125 41.109375 50.859375 
Q 45.609375 48.6875 47.4375 45.34375 
Q 49.265625 42 49.265625 33.0625 
L 49.125 17.046875 
Q 49.125 10.203125 49.78125 6.953125 
Q 50.4375 3.71875 52.25 0 
L 38.671875 0 
Q 38.140625 1.375 37.359375 4.046875 
Q 37.015625 5.28125 36.859375 5.671875 
Q 33.34375 2.25 29.34375 0.53125 
Q 25.34375 -1.171875 20.796875 -1.171875 
Q 12.796875 -1.171875 8.171875 3.171875 
Q 3.5625 7.515625 3.5625 14.15625 
Q 3.5625 18.5625 5.65625 22 
Q 7.765625 25.4375 11.546875 27.265625 
Q 15.328125 29.109375 22.46875 30.46875 
Q 32.078125 32.28125 35.796875 33.84375 
L 35.796875 35.203125 
Q 35.796875 39.15625 33.84375 40.84375 
Q 31.890625 42.53125 26.46875 42.53125 
Q 22.796875 42.53125 20.75 41.09375 
Q 18.703125 39.65625 17.4375 36.03125 
z
M 35.796875 24.90625 
Q 33.15625 24.03125 27.4375 22.796875 
Q 21.734375 21.578125 19.96875 20.40625 
Q 17.28125 18.5 17.28125 15.578125 
Q 17.28125 12.703125 19.421875 10.59375 
Q 21.578125 8.5 24.90625 8.5 
Q 28.609375 8.5 31.984375 10.9375 
Q 34.46875 12.796875 35.25 15.484375 
Q 35.796875 17.234375 35.796875 22.171875 
z
" id="Arial-BoldMT-97"/>
     <path d="M 6.59375 0 
L 6.59375 71.578125 
L 20.3125 71.578125 
L 20.3125 45.796875 
Q 26.65625 53.03125 35.359375 53.03125 
Q 44.828125 53.03125 51.03125 46.171875 
Q 57.234375 39.3125 57.234375 26.46875 
Q 57.234375 13.1875 50.90625 6 
Q 44.578125 -1.171875 35.546875 -1.171875 
Q 31.109375 -1.171875 26.78125 1.046875 
Q 22.46875 3.265625 19.34375 7.625 
L 19.34375 0 
z
M 20.21875 27.046875 
Q 20.21875 19 22.75 15.140625 
Q 26.3125 9.671875 32.234375 9.671875 
Q 36.765625 9.671875 39.96875 13.546875 
Q 43.171875 17.4375 43.171875 25.78125 
Q 43.171875 34.671875 39.9375 38.59375 
Q 36.71875 42.53125 31.6875 42.53125 
Q 26.765625 42.53125 23.484375 38.6875 
Q 20.21875 34.859375 20.21875 27.046875 
z
" id="Arial-BoldMT-98"/>
     <path d="M 4 26.65625 
Q 4 33.5 7.375 39.890625 
Q 10.75 46.296875 16.921875 49.65625 
Q 23.09375 53.03125 30.71875 53.03125 
Q 42.484375 53.03125 50 45.390625 
Q 57.515625 37.75 57.515625 26.078125 
Q 57.515625 14.3125 49.921875 6.5625 
Q 42.328125 -1.171875 30.8125 -1.171875 
Q 23.6875 -1.171875 17.21875 2.046875 
Q 10.75 5.28125 7.375 11.5 
Q 4 17.71875 4 26.65625 
z
M 18.0625 25.921875 
Q 18.0625 18.21875 21.71875 14.109375 
Q 25.390625 10.015625 30.765625 10.015625 
Q 36.140625 10.015625 39.765625 14.109375 
Q 43.40625 18.21875 43.40625 26.03125 
Q 43.40625 33.640625 39.765625 37.734375 
Q 36.140625 41.84375 30.765625 41.84375 
Q 25.390625 41.84375 21.71875 37.734375 
Q 18.0625 33.640625 18.0625 25.921875 
z
" id="Arial-BoldMT-111"/>
     <path d="M 71.828125 0 
L 56.109375 0 
L 49.859375 16.265625 
L 21.234375 16.265625 
L 15.328125 0 
L 0 0 
L 27.875 71.578125 
L 43.171875 71.578125 
z
M 45.21875 28.328125 
L 35.359375 54.890625 
L 25.6875 28.328125 
z
" id="Arial-BoldMT-65"/>
     <path d="M 7.328125 71.578125 
L 35.9375 71.578125 
Q 44.4375 71.578125 48.609375 70.875 
Q 52.78125 70.171875 56.078125 67.921875 
Q 59.375 65.671875 61.5625 61.9375 
Q 63.765625 58.203125 63.765625 53.5625 
Q 63.765625 48.53125 61.046875 44.328125 
Q 58.34375 40.140625 53.71875 38.03125 
Q 60.25 36.140625 63.765625 31.546875 
Q 67.28125 26.953125 67.28125 20.75 
Q 67.28125 15.875 65.015625 11.25 
Q 62.75 6.640625 58.8125 3.875 
Q 54.890625 1.125 49.125 0.484375 
Q 45.515625 0.09375 31.6875 0 
L 7.328125 0 
z
M 21.78125 59.671875 
L 21.78125 43.109375 
L 31.25 43.109375 
Q 39.703125 43.109375 41.75 43.359375 
Q 45.453125 43.796875 47.578125 45.921875 
Q 49.703125 48.046875 49.703125 51.515625 
Q 49.703125 54.828125 47.875 56.90625 
Q 46.046875 58.984375 42.4375 59.421875 
Q 40.28125 59.671875 30.078125 59.671875 
z
M 21.78125 31.203125 
L 21.78125 12.0625 
L 35.15625 12.0625 
Q 42.96875 12.0625 45.0625 12.5 
Q 48.296875 13.09375 50.3125 15.359375 
Q 52.34375 17.625 52.34375 21.4375 
Q 52.34375 24.65625 50.78125 26.90625 
Q 49.21875 29.15625 46.265625 30.171875 
Q 43.3125 31.203125 33.453125 31.203125 
z
" id="Arial-BoldMT-66"/>
     <path d="M 53.078125 26.3125 
L 67.09375 21.875 
Q 63.875 10.15625 56.375 4.46875 
Q 48.875 -1.21875 37.359375 -1.21875 
Q 23.09375 -1.21875 13.90625 8.515625 
Q 4.734375 18.265625 4.734375 35.15625 
Q 4.734375 53.03125 13.953125 62.90625 
Q 23.1875 72.796875 38.234375 72.796875 
Q 51.375 72.796875 59.578125 65.046875 
Q 64.453125 60.453125 66.890625 51.859375 
L 52.59375 48.4375 
Q 51.3125 54 47.28125 57.21875 
Q 43.265625 60.453125 37.5 60.453125 
Q 29.546875 60.453125 24.578125 54.734375 
Q 19.625 49.03125 19.625 36.234375 
Q 19.625 22.65625 24.5 16.890625 
Q 29.390625 11.140625 37.203125 11.140625 
Q 42.96875 11.140625 47.109375 14.796875 
Q 51.265625 18.453125 53.078125 26.3125 
z
" id="Arial-BoldMT-67"/>
     <path d="M 21.4375 0 
L 0.53125 51.859375 
L 14.9375 51.859375 
L 24.703125 25.390625 
L 27.546875 16.546875 
Q 28.65625 19.921875 28.953125 21 
Q 29.640625 23.1875 30.421875 25.390625 
L 40.28125 51.859375 
L 54.390625 51.859375 
L 33.796875 0 
z
" id="Arial-BoldMT-118"/>
     <path d="M 2.34375 14.796875 
L 16.109375 16.890625 
Q 17 12.890625 19.671875 10.8125 
Q 22.359375 8.734375 27.203125 8.734375 
Q 32.515625 8.734375 35.203125 10.6875 
Q 37.015625 12.0625 37.015625 14.359375 
Q 37.015625 15.921875 36.03125 16.9375 
Q 35.015625 17.921875 31.453125 18.75 
Q 14.84375 22.40625 10.40625 25.4375 
Q 4.25 29.640625 4.25 37.109375 
Q 4.25 43.84375 9.5625 48.4375 
Q 14.890625 53.03125 26.078125 53.03125 
Q 36.71875 53.03125 41.890625 49.5625 
Q 47.078125 46.09375 49.03125 39.3125 
L 36.078125 36.921875 
Q 35.25 39.9375 32.921875 41.546875 
Q 30.609375 43.171875 26.3125 43.171875 
Q 20.90625 43.171875 18.5625 41.65625 
Q 17 40.578125 17 38.875 
Q 17 37.40625 18.359375 36.375 
Q 20.21875 35.015625 31.171875 32.515625 
Q 42.140625 30.03125 46.484375 26.421875 
Q 50.78125 22.75 50.78125 16.21875 
Q 50.78125 9.078125 44.828125 3.953125 
Q 38.875 -1.171875 27.203125 -1.171875 
Q 16.609375 -1.171875 10.421875 3.125 
Q 4.25 7.421875 2.34375 14.796875 
z
" id="Arial-BoldMT-115"/>
     <path d="M 7.171875 71.578125 
L 21.625 71.578125 
L 21.625 32.8125 
Q 21.625 23.578125 22.171875 20.84375 
Q 23.09375 16.453125 26.578125 13.796875 
Q 30.078125 11.140625 36.140625 11.140625 
Q 42.28125 11.140625 45.40625 13.640625 
Q 48.53125 16.15625 49.171875 19.8125 
Q 49.8125 23.484375 49.8125 31.984375 
L 49.8125 71.578125 
L 64.265625 71.578125 
L 64.265625 33.984375 
Q 64.265625 21.09375 63.09375 15.765625 
Q 61.921875 10.453125 58.765625 6.78125 
Q 55.609375 3.125 50.328125 0.953125 
Q 45.0625 -1.21875 36.578125 -1.21875 
Q 26.3125 -1.21875 21.015625 1.140625 
Q 15.71875 3.515625 12.640625 7.296875 
Q 9.578125 11.078125 8.59375 15.234375 
Q 7.171875 21.390625 7.171875 33.40625 
z
" id="Arial-BoldMT-85"/>
     <path d="M 6.84375 13.71875 
L 20.5625 13.71875 
L 20.5625 3.90625 
Q 20.5625 -2.046875 19.53125 -5.484375 
Q 18.5 -8.9375 15.640625 -11.671875 
Q 12.796875 -14.40625 8.40625 -15.96875 
L 5.71875 -10.296875 
Q 9.859375 -8.9375 11.609375 -6.546875 
Q 13.375 -4.15625 13.484375 0 
L 6.84375 0 
z
" id="Arial-BoldMT-44"/>
     <path d="M 37.203125 16.5 
L 50.875 14.203125 
Q 48.25 6.6875 42.546875 2.75 
Q 36.859375 -1.171875 28.328125 -1.171875 
Q 14.796875 -1.171875 8.296875 7.671875 
Q 3.171875 14.75 3.171875 25.53125 
Q 3.171875 38.421875 9.90625 45.71875 
Q 16.65625 53.03125 26.953125 53.03125 
Q 38.53125 53.03125 45.21875 45.390625 
Q 51.90625 37.75 51.609375 21.96875 
L 17.234375 21.96875 
Q 17.390625 15.875 20.5625 12.46875 
Q 23.734375 9.078125 28.46875 9.078125 
Q 31.6875 9.078125 33.875 10.828125 
Q 36.078125 12.59375 37.203125 16.5 
z
M 37.984375 30.375 
Q 37.84375 36.328125 34.90625 39.421875 
Q 31.984375 42.53125 27.78125 42.53125 
Q 23.296875 42.53125 20.359375 39.265625 
Q 17.4375 35.984375 17.484375 30.375 
z
" id="Arial-BoldMT-101"/>
     <path d="M 7.171875 0 
L 7.171875 71.578125 
L 20.90625 71.578125 
L 20.90625 0 
z
" id="Arial-BoldMT-108"/>
     <path d="M 30.953125 51.859375 
L 30.953125 40.921875 
L 21.578125 40.921875 
L 21.578125 20.015625 
Q 21.578125 13.671875 21.84375 12.625 
Q 22.125 11.578125 23.078125 10.890625 
Q 24.03125 10.203125 25.390625 10.203125 
Q 27.296875 10.203125 30.90625 11.53125 
L 32.078125 0.875 
Q 27.296875 -1.171875 21.234375 -1.171875 
Q 17.53125 -1.171875 14.546875 0.0625 
Q 11.578125 1.3125 10.1875 3.296875 
Q 8.796875 5.28125 8.25 8.640625 
Q 7.8125 11.03125 7.8125 18.3125 
L 7.8125 40.921875 
L 1.515625 40.921875 
L 1.515625 51.859375 
L 7.8125 51.859375 
L 7.8125 62.15625 
L 21.578125 70.171875 
L 21.578125 51.859375 
z
" id="Arial-BoldMT-116"/>
     <path d="M 7.171875 58.890625 
L 7.171875 71.578125 
L 20.90625 71.578125 
L 20.90625 58.890625 
z
M 7.171875 0 
L 7.171875 51.859375 
L 20.90625 51.859375 
L 20.90625 0 
z
" id="Arial-BoldMT-105"/>
     <path d="M 54.34375 0 
L 40.625 0 
L 40.625 26.46875 
Q 40.625 34.859375 39.75 37.328125 
Q 38.875 39.796875 36.890625 41.15625 
Q 34.90625 42.53125 32.125 42.53125 
Q 28.5625 42.53125 25.734375 40.578125 
Q 22.90625 38.625 21.84375 35.390625 
Q 20.796875 32.171875 20.796875 23.484375 
L 20.796875 0 
L 7.078125 0 
L 7.078125 51.859375 
L 19.828125 51.859375 
L 19.828125 44.234375 
Q 26.609375 53.03125 36.921875 53.03125 
Q 41.453125 53.03125 45.203125 51.390625 
Q 48.96875 49.75 50.890625 47.203125 
Q 52.828125 44.671875 53.578125 41.453125 
Q 54.34375 38.234375 54.34375 32.234375 
z
" id="Arial-BoldMT-110"/>
    </defs>
    <use xlink:href="#Arial-BoldMT-71"/>
    <use x="77.783203" xlink:href="#Arial-BoldMT-97"/>
    <use x="133.398438" xlink:href="#Arial-BoldMT-98"/>
    <use x="194.482422" xlink:href="#Arial-BoldMT-111"/>
    <use x="255.566406" xlink:href="#Arial-BoldMT-114"/>
    <use x="294.482422" xlink:href="#Arial-BoldMT-32"/>
    <use x="318.515625" xlink:href="#Arial-BoldMT-65"/>
    <use x="390.732422" xlink:href="#Arial-BoldMT-66"/>
    <use x="462.949219" xlink:href="#Arial-BoldMT-67"/>
    <use x="535.166016" xlink:href="#Arial-BoldMT-32"/>
    <use x="562.949219" xlink:href="#Arial-BoldMT-118"/>
    <use x="618.564453" xlink:href="#Arial-BoldMT-115"/>
    <use x="674.179688" xlink:href="#Arial-BoldMT-32"/>
    <use x="701.962891" xlink:href="#Arial-BoldMT-85"/>
    <use x="774.179688" xlink:href="#Arial-BoldMT-71"/>
    <use x="851.962891" xlink:href="#Arial-BoldMT-44"/>
    <use x="879.746094" xlink:href="#Arial-BoldMT-32"/>
    <use x="907.529297" xlink:href="#Arial-BoldMT-114"/>
    <use x="946.445312" xlink:href="#Arial-BoldMT-101"/>
    <use x="1002.060547" xlink:href="#Arial-BoldMT-108"/>
    <use x="1029.84375" xlink:href="#Arial-BoldMT-97"/>
    <use x="1085.458984" xlink:href="#Arial-BoldMT-116"/>
    <use x="1118.759766" xlink:href="#Arial-BoldMT-105"/>
    <use x="1146.542969" xlink:href="#Arial-BoldMT-118"/>
    <use x="1202.158203" xlink:href="#Arial-BoldMT-101"/>
    <use x="1257.773438" xlink:href="#Arial-BoldMT-32"/>
    <use x="1285.556641" xlink:href="#Arial-BoldMT-116"/>
    <use x="1318.857422" xlink:href="#Arial-BoldMT-111"/>
    <use x="1379.941406" xlink:href="#Arial-BoldMT-32"/>
    <use x="1407.724609" xlink:href="#Arial-BoldMT-115"/>
    <use x="1463.339844" xlink:href="#Arial-BoldMT-101"/>
    <use x="1518.955078" xlink:href="#Arial-BoldMT-115"/>
    <use x="1574.570312" xlink:href="#Arial-BoldMT-115"/>
    <use x="1630.185547" xlink:href="#Arial-BoldMT-105"/>
    <use x="1657.96875" xlink:href="#Arial-BoldMT-111"/>
    <use x="1719.052734" xlink:href="#Arial-BoldMT-110"/>
    <use x="1780.136719" xlink:href="#Arial-BoldMT-32"/>
    <use x="1807.919922" xlink:href="#Arial-BoldMT-49"/>
   </g>
   <!-- (tracked ROIs) -->
   <g transform="translate(145.6356 38.07396)scale(0.1728 -0.1728)">
    <defs>
     <path d="M 29.9375 -21.046875 
L 20.515625 -21.046875 
Q 13.03125 -9.765625 9.125 2.390625 
Q 5.21875 14.546875 5.21875 25.921875 
Q 5.21875 40.046875 10.0625 52.640625 
Q 14.265625 63.578125 20.703125 72.796875 
L 30.078125 72.796875 
Q 23.390625 58.015625 20.875 47.625 
Q 18.359375 37.25 18.359375 25.640625 
Q 18.359375 17.625 19.84375 9.21875 
Q 21.34375 0.828125 23.921875 -6.734375 
Q 25.640625 -11.71875 29.9375 -21.046875 
z
" id="Arial-BoldMT-40"/>
     <path d="M 52.390625 36.53125 
L 38.875 34.078125 
Q 38.1875 38.140625 35.765625 40.1875 
Q 33.34375 42.234375 29.5 42.234375 
Q 24.359375 42.234375 21.3125 38.6875 
Q 18.265625 35.15625 18.265625 26.859375 
Q 18.265625 17.625 21.359375 13.8125 
Q 24.46875 10.015625 29.6875 10.015625 
Q 33.59375 10.015625 36.078125 12.234375 
Q 38.578125 14.453125 39.59375 19.875 
L 53.078125 17.578125 
Q 50.984375 8.296875 45.015625 3.5625 
Q 39.0625 -1.171875 29.046875 -1.171875 
Q 17.671875 -1.171875 10.90625 6 
Q 4.15625 13.1875 4.15625 25.875 
Q 4.15625 38.71875 10.9375 45.875 
Q 17.71875 53.03125 29.296875 53.03125 
Q 38.765625 53.03125 44.359375 48.953125 
Q 49.953125 44.875 52.390625 36.53125 
z
" id="Arial-BoldMT-99"/>
     <path d="M 6.6875 0 
L 6.6875 71.578125 
L 20.40625 71.578125 
L 20.40625 33.59375 
L 36.46875 51.859375 
L 53.375 51.859375 
L 35.640625 32.90625 
L 54.640625 0 
L 39.84375 0 
L 26.8125 23.296875 
L 20.40625 16.609375 
L 20.40625 0 
z
" id="Arial-BoldMT-107"/>
     <path d="M 54.734375 0 
L 42 0 
L 42 7.625 
Q 38.8125 3.171875 34.484375 1 
Q 30.171875 -1.171875 25.78125 -1.171875 
Q 16.84375 -1.171875 10.46875 6.03125 
Q 4.109375 13.234375 4.109375 26.125 
Q 4.109375 39.3125 10.296875 46.171875 
Q 16.5 53.03125 25.984375 53.03125 
Q 34.671875 53.03125 41.015625 45.796875 
L 41.015625 71.578125 
L 54.734375 71.578125 
z
M 18.109375 27.046875 
Q 18.109375 18.75 20.40625 15.046875 
Q 23.734375 9.671875 29.6875 9.671875 
Q 34.421875 9.671875 37.734375 13.6875 
Q 41.0625 17.71875 41.0625 25.734375 
Q 41.0625 34.671875 37.84375 38.59375 
Q 34.625 42.53125 29.59375 42.53125 
Q 24.703125 42.53125 21.40625 38.640625 
Q 18.109375 34.765625 18.109375 27.046875 
z
" id="Arial-BoldMT-100"/>
     <path d="M 7.328125 0 
L 7.328125 71.578125 
L 37.75 71.578125 
Q 49.21875 71.578125 54.421875 69.640625 
Q 59.625 67.71875 62.75 62.78125 
Q 65.875 57.859375 65.875 51.515625 
Q 65.875 43.453125 61.125 38.203125 
Q 56.390625 32.953125 46.96875 31.59375 
Q 51.65625 28.859375 54.703125 25.578125 
Q 57.765625 22.3125 62.9375 13.96875 
L 71.6875 0 
L 54.390625 0 
L 43.953125 15.578125 
Q 38.375 23.921875 36.328125 26.09375 
Q 34.28125 28.265625 31.984375 29.078125 
Q 29.6875 29.890625 24.703125 29.890625 
L 21.78125 29.890625 
L 21.78125 0 
z
M 21.78125 41.3125 
L 32.46875 41.3125 
Q 42.875 41.3125 45.453125 42.1875 
Q 48.046875 43.0625 49.515625 45.203125 
Q 50.984375 47.359375 50.984375 50.59375 
Q 50.984375 54.203125 49.046875 56.421875 
Q 47.125 58.640625 43.609375 59.234375 
Q 41.84375 59.46875 33.0625 59.46875 
L 21.78125 59.46875 
z
" id="Arial-BoldMT-82"/>
     <path d="M 4.34375 35.359375 
Q 4.34375 46.296875 7.625 53.71875 
Q 10.0625 59.1875 14.28125 63.53125 
Q 18.5 67.875 23.53125 69.96875 
Q 30.21875 72.796875 38.96875 72.796875 
Q 54.78125 72.796875 64.28125 62.984375 
Q 73.78125 53.171875 73.78125 35.6875 
Q 73.78125 18.359375 64.359375 8.5625 
Q 54.9375 -1.21875 39.15625 -1.21875 
Q 23.1875 -1.21875 13.765625 8.515625 
Q 4.34375 18.265625 4.34375 35.359375 
z
M 19.234375 35.84375 
Q 19.234375 23.6875 24.84375 17.40625 
Q 30.46875 11.140625 39.109375 11.140625 
Q 47.75 11.140625 53.296875 17.359375 
Q 58.84375 23.578125 58.84375 36.03125 
Q 58.84375 48.34375 53.4375 54.390625 
Q 48.046875 60.453125 39.109375 60.453125 
Q 30.171875 60.453125 24.703125 54.3125 
Q 19.234375 48.1875 19.234375 35.84375 
z
" id="Arial-BoldMT-79"/>
     <path d="M 6.84375 0 
L 6.84375 71.578125 
L 21.296875 71.578125 
L 21.296875 0 
z
" id="Arial-BoldMT-73"/>
     <path d="M 3.375 -21.046875 
Q 7.421875 -12.359375 9.078125 -7.71875 
Q 10.75 -3.078125 12.15625 2.96875 
Q 13.578125 9.03125 14.25 14.46875 
Q 14.9375 19.921875 14.9375 25.640625 
Q 14.9375 37.25 12.453125 47.625 
Q 9.96875 58.015625 3.265625 72.796875 
L 12.59375 72.796875 
Q 19.96875 62.3125 24.046875 50.53125 
Q 28.125 38.765625 28.125 26.65625 
Q 28.125 16.453125 24.90625 4.78125 
Q 21.234375 -8.296875 12.84375 -21.046875 
z
" id="Arial-BoldMT-41"/>
    </defs>
    <use xlink:href="#Arial-BoldMT-40"/>
    <use x="33.300781" xlink:href="#Arial-BoldMT-116"/>
    <use x="66.601562" xlink:href="#Arial-BoldMT-114"/>
    <use x="105.517578" xlink:href="#Arial-BoldMT-97"/>
    <use x="161.132812" xlink:href="#Arial-BoldMT-99"/>
    <use x="216.748047" xlink:href="#Arial-BoldMT-107"/>
    <use x="272.363281" xlink:href="#Arial-BoldMT-101"/>
    <use x="327.978516" xlink:href="#Arial-BoldMT-100"/>
    <use x="389.0625" xlink:href="#Arial-BoldMT-32"/>
    <use x="416.845703" xlink:href="#Arial-BoldMT-82"/>
    <use x="489.0625" xlink:href="#Arial-BoldMT-79"/>
    <use x="566.845703" xlink:href="#Arial-BoldMT-73"/>
    <use x="594.628906" xlink:href="#Arial-BoldMT-115"/>
    <use x="650.244141" xlink:href="#Arial-BoldMT-41"/>
   </g>
  </g>
  <g id="text_27">
   <!-- dendrites -->
   <g transform="translate(378.0507 208.4454)rotate(-90)scale(0.1728 -0.1728)">
    <use xlink:href="#Arial-BoldMT-100"/>
    <use x="61.083984" xlink:href="#Arial-BoldMT-101"/>
    <use x="116.699219" xlink:href="#Arial-BoldMT-110"/>
    <use x="177.783203" xlink:href="#Arial-BoldMT-100"/>
    <use x="238.867188" xlink:href="#Arial-BoldMT-114"/>
    <use x="277.783203" xlink:href="#Arial-BoldMT-105"/>
    <use x="305.566406" xlink:href="#Arial-BoldMT-116"/>
    <use x="338.867188" xlink:href="#Arial-BoldMT-101"/>
    <use x="394.482422" xlink:href="#Arial-BoldMT-115"/>
   </g>
  </g>
  <g id="text_28">
   <!-- somata -->
   <g transform="translate(378.0507 447.7788)rotate(-90)scale(0.1728 -0.1728)">
    <defs>
     <path d="M 6.15625 51.859375 
L 18.796875 51.859375 
L 18.796875 44.78125 
Q 25.59375 53.03125 34.96875 53.03125 
Q 39.9375 53.03125 43.59375 50.96875 
Q 47.265625 48.921875 49.609375 44.78125 
Q 53.03125 48.921875 56.984375 50.96875 
Q 60.9375 53.03125 65.4375 53.03125 
Q 71.140625 53.03125 75.09375 50.703125 
Q 79.046875 48.390625 81 43.890625 
Q 82.421875 40.578125 82.421875 33.15625 
L 82.421875 0 
L 68.703125 0 
L 68.703125 29.640625 
Q 68.703125 37.359375 67.28125 39.59375 
Q 65.375 42.53125 61.421875 42.53125 
Q 58.546875 42.53125 56 40.765625 
Q 53.46875 39.015625 52.34375 35.625 
Q 51.21875 32.234375 51.21875 24.90625 
L 51.21875 0 
L 37.5 0 
L 37.5 28.421875 
Q 37.5 35.984375 36.765625 38.171875 
Q 36.03125 40.375 34.484375 41.453125 
Q 32.953125 42.53125 30.328125 42.53125 
Q 27.15625 42.53125 24.609375 40.8125 
Q 22.078125 39.109375 20.96875 35.890625 
Q 19.875 32.671875 19.875 25.203125 
L 19.875 0 
L 6.15625 0 
z
" id="Arial-BoldMT-109"/>
    </defs>
    <use xlink:href="#Arial-BoldMT-115"/>
    <use x="55.615234" xlink:href="#Arial-BoldMT-111"/>
    <use x="116.699219" xlink:href="#Arial-BoldMT-109"/>
    <use x="205.615234" xlink:href="#Arial-BoldMT-97"/>
    <use x="261.230469" xlink:href="#Arial-BoldMT-116"/>
    <use x="294.53125" xlink:href="#Arial-BoldMT-97"/>
   </g>
  </g>
  <g id="text_29">
   <!-- Session -->
   <g transform="translate(171.5583 568.08)scale(0.1728 -0.1728)">
    <defs>
     <path d="M 3.609375 23.296875 
L 17.671875 24.65625 
Q 18.953125 17.578125 22.828125 14.25 
Q 26.703125 10.9375 33.296875 10.9375 
Q 40.28125 10.9375 43.8125 13.890625 
Q 47.359375 16.84375 47.359375 20.796875 
Q 47.359375 23.34375 45.875 25.125 
Q 44.390625 26.90625 40.671875 28.21875 
Q 38.140625 29.109375 29.109375 31.34375 
Q 17.484375 34.234375 12.796875 38.421875 
Q 6.203125 44.34375 6.203125 52.828125 
Q 6.203125 58.296875 9.296875 63.0625 
Q 12.40625 67.828125 18.234375 70.3125 
Q 24.078125 72.796875 32.328125 72.796875 
Q 45.796875 72.796875 52.609375 66.890625 
Q 59.421875 60.984375 59.765625 51.125 
L 45.3125 50.484375 
Q 44.390625 56 41.328125 58.421875 
Q 38.28125 60.84375 32.171875 60.84375 
Q 25.875 60.84375 22.3125 58.25 
Q 20.015625 56.59375 20.015625 53.8125 
Q 20.015625 51.265625 22.171875 49.46875 
Q 24.90625 47.171875 35.453125 44.671875 
Q 46 42.1875 51.046875 39.515625 
Q 56.109375 36.859375 58.953125 32.25 
Q 61.8125 27.640625 61.8125 20.84375 
Q 61.8125 14.703125 58.390625 9.328125 
Q 54.984375 3.953125 48.734375 1.34375 
Q 42.484375 -1.265625 33.15625 -1.265625 
Q 19.578125 -1.265625 12.296875 5 
Q 5.03125 11.28125 3.609375 23.296875 
z
" id="Arial-BoldMT-83"/>
    </defs>
    <use xlink:href="#Arial-BoldMT-83"/>
    <use x="66.699219" xlink:href="#Arial-BoldMT-101"/>
    <use x="122.314453" xlink:href="#Arial-BoldMT-115"/>
    <use x="177.929688" xlink:href="#Arial-BoldMT-115"/>
    <use x="233.544922" xlink:href="#Arial-BoldMT-105"/>
    <use x="261.328125" xlink:href="#Arial-BoldMT-111"/>
    <use x="322.412109" xlink:href="#Arial-BoldMT-110"/>
   </g>
  </g>
  <g id="text_30">
   <!-- F/F -->
   <g transform="translate(19.5687 188.7246)rotate(-90)scale(0.1728 -0.1728)">
    <defs>
     <path d="M 71.828125 0 
L 0 0 
L 27.875 71.578125 
L 43.171875 71.578125 
z
M 51.46875 12.0625 
L 35.359375 54.890625 
L 19.734375 12.0625 
z
" id="Arial-BoldMT-916"/>
     <path d="M 7.375 0 
L 7.375 71.578125 
L 56.453125 71.578125 
L 56.453125 59.46875 
L 21.828125 59.46875 
L 21.828125 42.53125 
L 51.703125 42.53125 
L 51.703125 30.421875 
L 21.828125 30.421875 
L 21.828125 0 
z
" id="Arial-BoldMT-70"/>
    </defs>
    <use xlink:href="#Arial-BoldMT-916"/>
    <use x="71.875" xlink:href="#Arial-BoldMT-70"/>
    <use x="132.958984" xlink:href="#Arial-BoldMT-47"/>
    <use x="160.742188" xlink:href="#Arial-BoldMT-70"/>
   </g>
  </g>
 </g>
 <defs>
  <clipPath id="pbb3ab7acae">
   <rect height="206.64" width="128.96" x="64.29" y="66.24"/>
  </clipPath>
  <clipPath id="p5e6e036722">
   <rect height="206.64" width="128.96" x="225.49" y="66.24"/>
  </clipPath>
  <clipPath id="p4f63a918a2">
   <rect height="206.64" width="128.96" x="64.29" y="314.208"/>
  </clipPath>
  <clipPath id="p5ce5d5eac1">
   <rect height="206.64" width="128.96" x="225.49" y="314.208"/>
  </clipPath>
 </defs>
</svg>
