<?xml version="1.0" encoding="utf-8" standalone="no"?>
<!DOCTYPE svg PUBLIC "-//W3C//DTD SVG 1.1//EN"
  "http://www.w3.org/Graphics/SVG/1.1/DTD/svg11.dtd">
<svg xmlns:xlink="http://www.w3.org/1999/xlink" width="441.84pt" height="604.647409pt" viewBox="0 0 441.84 604.647409" xmlns="http://www.w3.org/2000/svg" version="1.1">
 <metadata>
  <rdf:RDF xmlns:dc="http://purl.org/dc/elements/1.1/" xmlns:cc="http://creativecommons.org/ns#" xmlns:rdf="http://www.w3.org/1999/02/22-rdf-syntax-ns#">
   <cc:Work>
    <dc:type rdf:resource="http://purl.org/dc/dcmitype/StillImage"/>
    <dc:date>2023-05-30T16:35:47.759349</dc:date>
    <dc:format>image/svg+xml</dc:format>
    <dc:creator>
     <cc:Agent>
      <dc:title>Matplotlib v3.6.3, https://matplotlib.org/</dc:title>
     </cc:Agent>
    </dc:creator>
   </cc:Work>
  </rdf:RDF>
 </metadata>
 <defs>
  <style type="text/css">*{stroke-linejoin: round; stroke-linecap: butt}</style>
 </defs>
 <g id="figure_1">
  <g id="patch_1">
   <path d="M 0 604.647409 
L 441.84 604.647409 
L 441.84 0 
L 0 0 
z
" style="fill: #ffffff"/>
  </g>
  <g id="axes_1">
   <g id="patch_2">
    <path d="M 64.2 279.36 
L 166.095652 279.36 
L 166.095652 67.68 
L 64.2 67.68 
z
" style="fill: #ffffff"/>
   </g>
   <g id="patch_3">
    <path d="M 76.936957 279.36 
L 102.41087 279.36 
L 102.41087 120.790925 
L 76.936957 120.790925 
z
" clip-path="url(#p19483510ef)" style="fill: #76bb4b; fill-opacity: 0.5; stroke: #76bb4b; stroke-width: 5; stroke-linejoin: miter"/>
   </g>
   <g id="patch_4">
    <path d="M 127.884783 279.36 
L 153.358696 279.36 
L 153.358696 194.229301 
L 127.884783 194.229301 
z
" clip-path="url(#p19483510ef)" style="fill: #76bb4b; fill-opacity: 0.5; stroke: #76bb4b; stroke-width: 5; stroke-linejoin: miter"/>
   </g>
   <g id="matplotlib.axis_1">
    <g id="xtick_1"/>
    <g id="xtick_2"/>
   </g>
   <g id="matplotlib.axis_2">
    <g id="ytick_1">
     <g id="line2d_1">
      <defs>
       <path id="m2e91b7d964" d="M 0 0 
L -8 0 
" style="stroke: #000000; stroke-width: 4"/>
      </defs>
      <g>
       <use xlink:href="#m2e91b7d964" x="64.2" y="279.36" style="stroke: #000000; stroke-width: 4"/>
      </g>
     </g>
     <g id="text_1">
      <!-- 0 -->
      <g transform="translate(43.0907 285.54435) scale(0.1728 -0.1728)">
       <defs>
        <path id="Arial-BoldMT-30" d="M 1756 4600 
Q 2422 4600 2797 4125 
Q 3244 3563 3244 2259 
Q 3244 959 2794 391 
Q 2422 -78 1756 -78 
Q 1088 -78 678 436 
Q 269 950 269 2269 
Q 269 3563 719 4131 
Q 1091 4600 1756 4600 
z
M 1756 3872 
Q 1597 3872 1472 3770 
Q 1347 3669 1278 3406 
Q 1188 3066 1188 2259 
Q 1188 1453 1269 1151 
Q 1350 850 1473 750 
Q 1597 650 1756 650 
Q 1916 650 2041 751 
Q 2166 853 2234 1116 
Q 2325 1453 2325 2259 
Q 2325 3066 2244 3367 
Q 2163 3669 2039 3770 
Q 1916 3872 1756 3872 
z
" transform="scale(0.015625)"/>
       </defs>
       <use xlink:href="#Arial-BoldMT-30"/>
      </g>
     </g>
    </g>
    <g id="ytick_2">
     <g id="line2d_2">
      <g>
       <use xlink:href="#m2e91b7d964" x="64.2" y="237.024" style="stroke: #000000; stroke-width: 4"/>
      </g>
     </g>
    </g>
    <g id="ytick_3">
     <g id="line2d_3">
      <g>
       <use xlink:href="#m2e91b7d964" x="64.2" y="194.688" style="stroke: #000000; stroke-width: 4"/>
      </g>
     </g>
     <g id="text_2">
      <!-- 0.2 -->
      <g transform="translate(28.6808 200.87235) scale(0.1728 -0.1728)">
       <defs>
        <path id="Arial-BoldMT-2e" d="M 459 0 
L 459 878 
L 1338 878 
L 1338 0 
L 459 0 
z
" transform="scale(0.015625)"/>
        <path id="Arial-BoldMT-32" d="M 3238 816 
L 3238 0 
L 159 0 
Q 209 463 459 877 
Q 709 1291 1447 1975 
Q 2041 2528 2175 2725 
Q 2356 2997 2356 3263 
Q 2356 3556 2198 3714 
Q 2041 3872 1763 3872 
Q 1488 3872 1325 3706 
Q 1163 3541 1138 3156 
L 263 3244 
Q 341 3969 753 4284 
Q 1166 4600 1784 4600 
Q 2463 4600 2850 4234 
Q 3238 3869 3238 3325 
Q 3238 3016 3127 2736 
Q 3016 2456 2775 2150 
Q 2616 1947 2200 1565 
Q 1784 1184 1673 1059 
Q 1563 934 1494 816 
L 3238 816 
z
" transform="scale(0.015625)"/>
       </defs>
       <use xlink:href="#Arial-BoldMT-30"/>
       <use xlink:href="#Arial-BoldMT-2e" x="55.615234"/>
       <use xlink:href="#Arial-BoldMT-32" x="83.398438"/>
      </g>
     </g>
    </g>
    <g id="ytick_4">
     <g id="line2d_4">
      <g>
       <use xlink:href="#m2e91b7d964" x="64.2" y="152.352" style="stroke: #000000; stroke-width: 4"/>
      </g>
     </g>
    </g>
    <g id="ytick_5">
     <g id="line2d_5">
      <g>
       <use xlink:href="#m2e91b7d964" x="64.2" y="110.016" style="stroke: #000000; stroke-width: 4"/>
      </g>
     </g>
     <g id="text_3">
      <!-- 0.4 -->
      <g transform="translate(28.6808 116.20035) scale(0.1728 -0.1728)">
       <defs>
        <path id="Arial-BoldMT-34" d="M 1994 0 
L 1994 922 
L 119 922 
L 119 1691 
L 2106 4600 
L 2844 4600 
L 2844 1694 
L 3413 1694 
L 3413 922 
L 2844 922 
L 2844 0 
L 1994 0 
z
M 1994 1694 
L 1994 3259 
L 941 1694 
L 1994 1694 
z
" transform="scale(0.015625)"/>
       </defs>
       <use xlink:href="#Arial-BoldMT-30"/>
       <use xlink:href="#Arial-BoldMT-2e" x="55.615234"/>
       <use xlink:href="#Arial-BoldMT-34" x="83.398438"/>
      </g>
     </g>
    </g>
    <g id="ytick_6">
     <g id="line2d_6">
      <g>
       <use xlink:href="#m2e91b7d964" x="64.2" y="67.68" style="stroke: #000000; stroke-width: 4"/>
      </g>
     </g>
    </g>
    <g id="text_4">
     <!-- . -->
     <g style="fill: #ffffff" transform="translate(20.2464 175.9203) rotate(-90) scale(0.1728 -0.1728)">
      <defs>
       <path id="ArialMT-2e" d="M 581 0 
L 581 641 
L 1222 641 
L 1222 0 
L 581 0 
z
" transform="scale(0.015625)"/>
      </defs>
      <use xlink:href="#ArialMT-2e"/>
     </g>
    </g>
   </g>
   <g id="LineCollection_1">
    <path d="M 89.673913 161.789083 
L 89.673913 79.792767 
" clip-path="url(#p19483510ef)" style="fill: none; stroke: #76bb4b; stroke-opacity: 0.8; stroke-width: 5"/>
    <path d="M 140.621739 224.189484 
L 140.621739 164.269119 
" clip-path="url(#p19483510ef)" style="fill: none; stroke: #76bb4b; stroke-opacity: 0.8; stroke-width: 5"/>
   </g>
   <g id="line2d_7">
    <defs>
     <path id="mcfbcdc61cf" d="M 8 0 
L -8 -0 
" style="stroke: #76bb4b; stroke-opacity: 0.8; stroke-width: 4"/>
    </defs>
    <g clip-path="url(#p19483510ef)">
     <use xlink:href="#mcfbcdc61cf" x="89.673913" y="161.789083" style="fill: #76bb4b; fill-opacity: 0.8; stroke: #76bb4b; stroke-opacity: 0.8; stroke-width: 4"/>
     <use xlink:href="#mcfbcdc61cf" x="140.621739" y="224.189484" style="fill: #76bb4b; fill-opacity: 0.8; stroke: #76bb4b; stroke-opacity: 0.8; stroke-width: 4"/>
    </g>
   </g>
   <g id="line2d_8">
    <g clip-path="url(#p19483510ef)">
     <use xlink:href="#mcfbcdc61cf" x="89.673913" y="79.792767" style="fill: #76bb4b; fill-opacity: 0.8; stroke: #76bb4b; stroke-opacity: 0.8; stroke-width: 4"/>
     <use xlink:href="#mcfbcdc61cf" x="140.621739" y="164.269119" style="fill: #76bb4b; fill-opacity: 0.8; stroke: #76bb4b; stroke-opacity: 0.8; stroke-width: 4"/>
    </g>
   </g>
   <g id="patch_5">
    <path d="M 64.2 279.36 
L 64.2 67.68 
" style="fill: none; stroke: #000000; stroke-width: 4; stroke-linejoin: miter; stroke-linecap: square"/>
   </g>
   <g id="text_5">
    <!-- L2/3 Pyr -->
    <g transform="translate(81.530126 61.68) scale(0.1728 -0.1728)">
     <defs>
      <path id="Arial-BoldMT-4c" d="M 491 0 
L 491 4544 
L 1416 4544 
L 1416 772 
L 3716 772 
L 3716 0 
L 491 0 
z
" transform="scale(0.015625)"/>
      <path id="Arial-BoldMT-2f" d="M -9 -78 
L 1125 4659 
L 1784 4659 
L 638 -78 
L -9 -78 
z
" transform="scale(0.015625)"/>
      <path id="Arial-BoldMT-33" d="M 241 1216 
L 1091 1319 
Q 1131 994 1309 822 
Q 1488 650 1741 650 
Q 2013 650 2198 856 
Q 2384 1063 2384 1413 
Q 2384 1744 2206 1937 
Q 2028 2131 1772 2131 
Q 1603 2131 1369 2066 
L 1466 2781 
Q 1822 2772 2009 2936 
Q 2197 3100 2197 3372 
Q 2197 3603 2059 3740 
Q 1922 3878 1694 3878 
Q 1469 3878 1309 3722 
Q 1150 3566 1116 3266 
L 306 3403 
Q 391 3819 561 4067 
Q 731 4316 1036 4458 
Q 1341 4600 1719 4600 
Q 2366 4600 2756 4188 
Q 3078 3850 3078 3425 
Q 3078 2822 2419 2463 
Q 2813 2378 3048 2084 
Q 3284 1791 3284 1375 
Q 3284 772 2843 347 
Q 2403 -78 1747 -78 
Q 1125 -78 715 280 
Q 306 638 241 1216 
z
" transform="scale(0.015625)"/>
      <path id="Arial-BoldMT-20" transform="scale(0.015625)"/>
      <path id="Arial-BoldMT-50" d="M 466 0 
L 466 4581 
L 1950 4581 
Q 2794 4581 3050 4513 
Q 3444 4409 3709 4064 
Q 3975 3719 3975 3172 
Q 3975 2750 3822 2462 
Q 3669 2175 3433 2011 
Q 3197 1847 2953 1794 
Q 2622 1728 1994 1728 
L 1391 1728 
L 1391 0 
L 466 0 
z
M 1391 3806 
L 1391 2506 
L 1897 2506 
Q 2444 2506 2628 2578 
Q 2813 2650 2917 2803 
Q 3022 2956 3022 3159 
Q 3022 3409 2875 3571 
Q 2728 3734 2503 3775 
Q 2338 3806 1838 3806 
L 1391 3806 
z
" transform="scale(0.015625)"/>
      <path id="Arial-BoldMT-79" d="M 44 3319 
L 978 3319 
L 1772 963 
L 2547 3319 
L 3456 3319 
L 2284 125 
L 2075 -453 
Q 1959 -744 1854 -897 
Q 1750 -1050 1614 -1145 
Q 1478 -1241 1279 -1294 
Q 1081 -1347 831 -1347 
Q 578 -1347 334 -1294 
L 256 -606 
Q 463 -647 628 -647 
Q 934 -647 1081 -467 
Q 1228 -288 1306 -9 
L 44 3319 
z
" transform="scale(0.015625)"/>
      <path id="Arial-BoldMT-72" d="M 1300 0 
L 422 0 
L 422 3319 
L 1238 3319 
L 1238 2847 
Q 1447 3181 1614 3287 
Q 1781 3394 1994 3394 
Q 2294 3394 2572 3228 
L 2300 2463 
Q 2078 2606 1888 2606 
Q 1703 2606 1575 2504 
Q 1447 2403 1373 2137 
Q 1300 1872 1300 1025 
L 1300 0 
z
" transform="scale(0.015625)"/>
     </defs>
     <use xlink:href="#Arial-BoldMT-4c"/>
     <use xlink:href="#Arial-BoldMT-32" x="61.083984"/>
     <use xlink:href="#Arial-BoldMT-2f" x="116.699219"/>
     <use xlink:href="#Arial-BoldMT-33" x="144.482422"/>
     <use xlink:href="#Arial-BoldMT-20" x="200.097656"/>
     <use xlink:href="#Arial-BoldMT-50" x="227.880859"/>
     <use xlink:href="#Arial-BoldMT-79" x="294.580078"/>
     <use xlink:href="#Arial-BoldMT-72" x="350.195312"/>
    </g>
   </g>
  </g>
  <g id="axes_2">
   <g id="patch_6">
    <path d="M 196.664348 279.36 
L 298.56 279.36 
L 298.56 67.68 
L 196.664348 67.68 
z
" style="fill: #ffffff"/>
   </g>
   <g id="patch_7">
    <path d="M 209.401304 279.36 
L 234.875217 279.36 
L 234.875217 156.685821 
L 209.401304 156.685821 
z
" clip-path="url(#p4efa95f5ef)" style="fill: #488a21; fill-opacity: 0.5; stroke-dasharray: 15,10; stroke-dashoffset: 0; stroke: #488a21; stroke-width: 5; stroke-linejoin: miter"/>
   </g>
   <g id="patch_8">
    <path d="M 260.34913 279.36 
L 285.823043 279.36 
L 285.823043 264.253321 
L 260.34913 264.253321 
z
" clip-path="url(#p4efa95f5ef)" style="fill: #488a21; fill-opacity: 0.5; stroke-dasharray: 15,10; stroke-dashoffset: 0; stroke: #488a21; stroke-width: 5; stroke-linejoin: miter"/>
   </g>
   <g id="matplotlib.axis_3">
    <g id="xtick_3"/>
    <g id="xtick_4"/>
   </g>
   <g id="matplotlib.axis_4">
    <g id="ytick_7">
     <g id="line2d_9">
      <g>
       <use xlink:href="#m2e91b7d964" x="196.664348" y="279.36" style="stroke: #000000; stroke-width: 4"/>
      </g>
     </g>
    </g>
    <g id="ytick_8">
     <g id="line2d_10">
      <g>
       <use xlink:href="#m2e91b7d964" x="196.664348" y="237.024" style="stroke: #000000; stroke-width: 4"/>
      </g>
     </g>
    </g>
    <g id="ytick_9">
     <g id="line2d_11">
      <g>
       <use xlink:href="#m2e91b7d964" x="196.664348" y="194.688" style="stroke: #000000; stroke-width: 4"/>
      </g>
     </g>
    </g>
    <g id="ytick_10">
     <g id="line2d_12">
      <g>
       <use xlink:href="#m2e91b7d964" x="196.664348" y="152.352" style="stroke: #000000; stroke-width: 4"/>
      </g>
     </g>
    </g>
    <g id="ytick_11">
     <g id="line2d_13">
      <g>
       <use xlink:href="#m2e91b7d964" x="196.664348" y="110.016" style="stroke: #000000; stroke-width: 4"/>
      </g>
     </g>
    </g>
    <g id="ytick_12">
     <g id="line2d_14">
      <g>
       <use xlink:href="#m2e91b7d964" x="196.664348" y="67.68" style="stroke: #000000; stroke-width: 4"/>
      </g>
     </g>
    </g>
   </g>
   <g id="LineCollection_2">
    <path d="M 222.138261 184.675631 
L 222.138261 128.696011 
" clip-path="url(#p4efa95f5ef)" style="fill: none; stroke: #488a21; stroke-opacity: 0.8; stroke-width: 5"/>
    <path d="M 273.086087 279.297441 
L 273.086087 249.2092 
" clip-path="url(#p4efa95f5ef)" style="fill: none; stroke: #488a21; stroke-opacity: 0.8; stroke-width: 5"/>
   </g>
   <g id="line2d_15">
    <defs>
     <path id="m1a42046a76" d="M 8 0 
L -8 -0 
" style="stroke: #488a21; stroke-opacity: 0.8; stroke-width: 4"/>
    </defs>
    <g clip-path="url(#p4efa95f5ef)">
     <use xlink:href="#m1a42046a76" x="222.138261" y="184.675631" style="fill: #488a21; fill-opacity: 0.8; stroke: #488a21; stroke-opacity: 0.8; stroke-width: 4"/>
     <use xlink:href="#m1a42046a76" x="273.086087" y="279.297441" style="fill: #488a21; fill-opacity: 0.8; stroke: #488a21; stroke-opacity: 0.8; stroke-width: 4"/>
    </g>
   </g>
   <g id="line2d_16">
    <g clip-path="url(#p4efa95f5ef)">
     <use xlink:href="#m1a42046a76" x="222.138261" y="128.696011" style="fill: #488a21; fill-opacity: 0.8; stroke: #488a21; stroke-opacity: 0.8; stroke-width: 4"/>
     <use xlink:href="#m1a42046a76" x="273.086087" y="249.2092" style="fill: #488a21; fill-opacity: 0.8; stroke: #488a21; stroke-opacity: 0.8; stroke-width: 4"/>
    </g>
   </g>
   <g id="line2d_17">
    <path d="M 222.138261 105.645996 
L 273.086087 105.645996 
" clip-path="url(#p4efa95f5ef)" style="fill: none; stroke: #488a21; stroke-width: 3; stroke-linecap: square"/>
   </g>
   <g id="patch_9">
    <path d="M 196.664348 279.36 
L 196.664348 67.68 
" style="fill: none; stroke: #000000; stroke-width: 4; stroke-linejoin: miter; stroke-linecap: square"/>
   </g>
   <g id="text_6">
    <!-- ** -->
    <g style="fill: #488a21" transform="translate(239.541334 105.820244) scale(0.20736 -0.20736)">
     <defs>
      <path id="Arial-BoldMT-2a" d="M 766 2475 
L 294 2841 
Q 519 3094 763 3325 
Q 859 3419 884 3444 
Q 806 3456 438 3547 
Q 172 3613 88 3644 
L 272 4194 
Q 681 4028 1003 3828 
Q 928 4338 928 4659 
L 1484 4659 
Q 1484 4431 1400 3822 
Q 1463 3847 1669 3944 
Q 1950 4072 2188 4163 
L 2353 3597 
Q 2006 3519 1550 3444 
L 1925 3022 
Q 2038 2894 2103 2813 
L 1625 2497 
L 1203 3194 
Q 1013 2856 766 2475 
z
" transform="scale(0.015625)"/>
     </defs>
     <use xlink:href="#Arial-BoldMT-2a"/>
     <use xlink:href="#Arial-BoldMT-2a" x="38.916016"/>
    </g>
   </g>
   <g id="text_7">
    <!-- L5 Pyr -->
    <g transform="translate(221.199424 61.68) scale(0.1728 -0.1728)">
     <defs>
      <path id="Arial-BoldMT-35" d="M 284 1178 
L 1159 1269 
Q 1197 972 1381 798 
Q 1566 625 1806 625 
Q 2081 625 2272 848 
Q 2463 1072 2463 1522 
Q 2463 1944 2273 2155 
Q 2084 2366 1781 2366 
Q 1403 2366 1103 2031 
L 391 2134 
L 841 4519 
L 3163 4519 
L 3163 3697 
L 1506 3697 
L 1369 2919 
Q 1663 3066 1969 3066 
Q 2553 3066 2959 2641 
Q 3366 2216 3366 1538 
Q 3366 972 3038 528 
Q 2591 -78 1797 -78 
Q 1163 -78 763 262 
Q 363 603 284 1178 
z
" transform="scale(0.015625)"/>
     </defs>
     <use xlink:href="#Arial-BoldMT-4c"/>
     <use xlink:href="#Arial-BoldMT-35" x="61.083984"/>
     <use xlink:href="#Arial-BoldMT-20" x="116.699219"/>
     <use xlink:href="#Arial-BoldMT-50" x="144.482422"/>
     <use xlink:href="#Arial-BoldMT-79" x="211.181641"/>
     <use xlink:href="#Arial-BoldMT-72" x="266.796875"/>
    </g>
   </g>
  </g>
  <g id="axes_3">
   <g id="patch_10">
    <path d="M 64.2 533.376 
L 166.095652 533.376 
L 166.095652 321.696 
L 64.2 321.696 
z
" style="fill: #ffffff"/>
   </g>
   <g id="patch_11">
    <path d="M 76.936957 533.376 
L 102.41087 533.376 
L 102.41087 383.601167 
L 76.936957 383.601167 
z
" clip-path="url(#p42b7ee2fc8)" style="fill: #50a2d5; fill-opacity: 0.5; stroke: #50a2d5; stroke-width: 5; stroke-linejoin: miter"/>
   </g>
   <g id="patch_12">
    <path d="M 127.884783 533.376 
L 153.358696 533.376 
L 153.358696 411.592341 
L 127.884783 411.592341 
z
" clip-path="url(#p42b7ee2fc8)" style="fill: #50a2d5; fill-opacity: 0.5; stroke: #50a2d5; stroke-width: 5; stroke-linejoin: miter"/>
   </g>
   <g id="matplotlib.axis_5">
    <g id="xtick_5">
     <g id="text_8">
      <!-- gabors -->
      <g transform="translate(46.367795 594.356433) rotate(-45) scale(0.1728 -0.1728)">
       <defs>
        <path id="Arial-BoldMT-67" d="M 378 -219 
L 1381 -341 
Q 1406 -516 1497 -581 
Q 1622 -675 1891 -675 
Q 2234 -675 2406 -572 
Q 2522 -503 2581 -350 
Q 2622 -241 2622 53 
L 2622 538 
Q 2228 0 1628 0 
Q 959 0 569 566 
Q 263 1013 263 1678 
Q 263 2513 664 2953 
Q 1066 3394 1663 3394 
Q 2278 3394 2678 2853 
L 2678 3319 
L 3500 3319 
L 3500 341 
Q 3500 -247 3403 -537 
Q 3306 -828 3131 -993 
Q 2956 -1159 2664 -1253 
Q 2372 -1347 1925 -1347 
Q 1081 -1347 728 -1058 
Q 375 -769 375 -325 
Q 375 -281 378 -219 
z
M 1163 1728 
Q 1163 1200 1367 954 
Q 1572 709 1872 709 
Q 2194 709 2416 961 
Q 2638 1213 2638 1706 
Q 2638 2222 2425 2472 
Q 2213 2722 1888 2722 
Q 1572 2722 1367 2476 
Q 1163 2231 1163 1728 
z
" transform="scale(0.015625)"/>
        <path id="Arial-BoldMT-61" d="M 1116 2306 
L 319 2450 
Q 453 2931 781 3162 
Q 1109 3394 1756 3394 
Q 2344 3394 2631 3255 
Q 2919 3116 3036 2902 
Q 3153 2688 3153 2116 
L 3144 1091 
Q 3144 653 3186 445 
Q 3228 238 3344 0 
L 2475 0 
Q 2441 88 2391 259 
Q 2369 338 2359 363 
Q 2134 144 1878 34 
Q 1622 -75 1331 -75 
Q 819 -75 523 203 
Q 228 481 228 906 
Q 228 1188 362 1408 
Q 497 1628 739 1745 
Q 981 1863 1438 1950 
Q 2053 2066 2291 2166 
L 2291 2253 
Q 2291 2506 2166 2614 
Q 2041 2722 1694 2722 
Q 1459 2722 1328 2630 
Q 1197 2538 1116 2306 
z
M 2291 1594 
Q 2122 1538 1756 1459 
Q 1391 1381 1278 1306 
Q 1106 1184 1106 997 
Q 1106 813 1243 678 
Q 1381 544 1594 544 
Q 1831 544 2047 700 
Q 2206 819 2256 991 
Q 2291 1103 2291 1419 
L 2291 1594 
z
" transform="scale(0.015625)"/>
        <path id="Arial-BoldMT-62" d="M 422 0 
L 422 4581 
L 1300 4581 
L 1300 2931 
Q 1706 3394 2263 3394 
Q 2869 3394 3266 2955 
Q 3663 2516 3663 1694 
Q 3663 844 3258 384 
Q 2853 -75 2275 -75 
Q 1991 -75 1714 67 
Q 1438 209 1238 488 
L 1238 0 
L 422 0 
z
M 1294 1731 
Q 1294 1216 1456 969 
Q 1684 619 2063 619 
Q 2353 619 2558 867 
Q 2763 1116 2763 1650 
Q 2763 2219 2556 2470 
Q 2350 2722 2028 2722 
Q 1713 2722 1503 2476 
Q 1294 2231 1294 1731 
z
" transform="scale(0.015625)"/>
        <path id="Arial-BoldMT-6f" d="M 256 1706 
Q 256 2144 472 2553 
Q 688 2963 1083 3178 
Q 1478 3394 1966 3394 
Q 2719 3394 3200 2905 
Q 3681 2416 3681 1669 
Q 3681 916 3195 420 
Q 2709 -75 1972 -75 
Q 1516 -75 1102 131 
Q 688 338 472 736 
Q 256 1134 256 1706 
z
M 1156 1659 
Q 1156 1166 1390 903 
Q 1625 641 1969 641 
Q 2313 641 2545 903 
Q 2778 1166 2778 1666 
Q 2778 2153 2545 2415 
Q 2313 2678 1969 2678 
Q 1625 2678 1390 2415 
Q 1156 2153 1156 1659 
z
" transform="scale(0.015625)"/>
        <path id="Arial-BoldMT-73" d="M 150 947 
L 1031 1081 
Q 1088 825 1259 692 
Q 1431 559 1741 559 
Q 2081 559 2253 684 
Q 2369 772 2369 919 
Q 2369 1019 2306 1084 
Q 2241 1147 2013 1200 
Q 950 1434 666 1628 
Q 272 1897 272 2375 
Q 272 2806 612 3100 
Q 953 3394 1669 3394 
Q 2350 3394 2681 3172 
Q 3013 2950 3138 2516 
L 2309 2363 
Q 2256 2556 2107 2659 
Q 1959 2763 1684 2763 
Q 1338 2763 1188 2666 
Q 1088 2597 1088 2488 
Q 1088 2394 1175 2328 
Q 1294 2241 1995 2081 
Q 2697 1922 2975 1691 
Q 3250 1456 3250 1038 
Q 3250 581 2869 253 
Q 2488 -75 1741 -75 
Q 1063 -75 667 200 
Q 272 475 150 947 
z
" transform="scale(0.015625)"/>
       </defs>
       <use xlink:href="#Arial-BoldMT-67"/>
       <use xlink:href="#Arial-BoldMT-61" x="61.083984"/>
       <use xlink:href="#Arial-BoldMT-62" x="116.699219"/>
       <use xlink:href="#Arial-BoldMT-6f" x="177.783203"/>
       <use xlink:href="#Arial-BoldMT-72" x="238.867188"/>
       <use xlink:href="#Arial-BoldMT-73" x="277.783203"/>
      </g>
     </g>
    </g>
    <g id="xtick_6">
     <g id="text_9">
      <!-- visflow -->
      <g transform="translate(96.796321 595.036104) rotate(-45) scale(0.1728 -0.1728)">
       <defs>
        <path id="Arial-BoldMT-76" d="M 1372 0 
L 34 3319 
L 956 3319 
L 1581 1625 
L 1763 1059 
Q 1834 1275 1853 1344 
Q 1897 1484 1947 1625 
L 2578 3319 
L 3481 3319 
L 2163 0 
L 1372 0 
z
" transform="scale(0.015625)"/>
        <path id="Arial-BoldMT-69" d="M 459 3769 
L 459 4581 
L 1338 4581 
L 1338 3769 
L 459 3769 
z
M 459 0 
L 459 3319 
L 1338 3319 
L 1338 0 
L 459 0 
z
" transform="scale(0.015625)"/>
        <path id="Arial-BoldMT-66" d="M 75 3319 
L 563 3319 
L 563 3569 
Q 563 3988 652 4194 
Q 741 4400 980 4529 
Q 1219 4659 1584 4659 
Q 1959 4659 2319 4547 
L 2200 3934 
Q 1991 3984 1797 3984 
Q 1606 3984 1523 3895 
Q 1441 3806 1441 3553 
L 1441 3319 
L 2097 3319 
L 2097 2628 
L 1441 2628 
L 1441 0 
L 563 0 
L 563 2628 
L 75 2628 
L 75 3319 
z
" transform="scale(0.015625)"/>
        <path id="Arial-BoldMT-6c" d="M 459 0 
L 459 4581 
L 1338 4581 
L 1338 0 
L 459 0 
z
" transform="scale(0.015625)"/>
        <path id="Arial-BoldMT-77" d="M 1078 0 
L 28 3319 
L 881 3319 
L 1503 1144 
L 2075 3319 
L 2922 3319 
L 3475 1144 
L 4109 3319 
L 4975 3319 
L 3909 0 
L 3066 0 
L 2494 2134 
L 1931 0 
L 1078 0 
z
" transform="scale(0.015625)"/>
       </defs>
       <use xlink:href="#Arial-BoldMT-76"/>
       <use xlink:href="#Arial-BoldMT-69" x="55.615234"/>
       <use xlink:href="#Arial-BoldMT-73" x="83.398438"/>
       <use xlink:href="#Arial-BoldMT-66" x="139.013672"/>
       <use xlink:href="#Arial-BoldMT-6c" x="172.314453"/>
       <use xlink:href="#Arial-BoldMT-6f" x="200.097656"/>
       <use xlink:href="#Arial-BoldMT-77" x="261.181641"/>
      </g>
     </g>
    </g>
   </g>
   <g id="matplotlib.axis_6">
    <g id="ytick_13">
     <g id="line2d_18">
      <g>
       <use xlink:href="#m2e91b7d964" x="64.2" y="533.376" style="stroke: #000000; stroke-width: 4"/>
      </g>
     </g>
     <g id="text_10">
      <!-- 0 -->
      <g transform="translate(43.0907 539.56035) scale(0.1728 -0.1728)">
       <use xlink:href="#Arial-BoldMT-30"/>
      </g>
     </g>
    </g>
    <g id="ytick_14">
     <g id="line2d_19">
      <g>
       <use xlink:href="#m2e91b7d964" x="64.2" y="491.04" style="stroke: #000000; stroke-width: 4"/>
      </g>
     </g>
    </g>
    <g id="ytick_15">
     <g id="line2d_20">
      <g>
       <use xlink:href="#m2e91b7d964" x="64.2" y="448.704" style="stroke: #000000; stroke-width: 4"/>
      </g>
     </g>
     <g id="text_11">
      <!-- 0.2 -->
      <g transform="translate(28.6808 454.88835) scale(0.1728 -0.1728)">
       <use xlink:href="#Arial-BoldMT-30"/>
       <use xlink:href="#Arial-BoldMT-2e" x="55.615234"/>
       <use xlink:href="#Arial-BoldMT-32" x="83.398438"/>
      </g>
     </g>
    </g>
    <g id="ytick_16">
     <g id="line2d_21">
      <g>
       <use xlink:href="#m2e91b7d964" x="64.2" y="406.368" style="stroke: #000000; stroke-width: 4"/>
      </g>
     </g>
    </g>
    <g id="ytick_17">
     <g id="line2d_22">
      <g>
       <use xlink:href="#m2e91b7d964" x="64.2" y="364.032" style="stroke: #000000; stroke-width: 4"/>
      </g>
     </g>
     <g id="text_12">
      <!-- 0.4 -->
      <g transform="translate(28.6808 370.21635) scale(0.1728 -0.1728)">
       <use xlink:href="#Arial-BoldMT-30"/>
       <use xlink:href="#Arial-BoldMT-2e" x="55.615234"/>
       <use xlink:href="#Arial-BoldMT-34" x="83.398438"/>
      </g>
     </g>
    </g>
    <g id="ytick_18">
     <g id="line2d_23">
      <g>
       <use xlink:href="#m2e91b7d964" x="64.2" y="321.696" style="stroke: #000000; stroke-width: 4"/>
      </g>
     </g>
    </g>
   </g>
   <g id="LineCollection_3">
    <path d="M 89.673913 403.982826 
L 89.673913 363.219508 
" clip-path="url(#p42b7ee2fc8)" style="fill: none; stroke: #50a2d5; stroke-opacity: 0.8; stroke-width: 5"/>
    <path d="M 140.621739 442.168511 
L 140.621739 381.016172 
" clip-path="url(#p42b7ee2fc8)" style="fill: none; stroke: #50a2d5; stroke-opacity: 0.8; stroke-width: 5"/>
   </g>
   <g id="line2d_24">
    <defs>
     <path id="madd337328b" d="M 8 0 
L -8 -0 
" style="stroke: #50a2d5; stroke-opacity: 0.8; stroke-width: 4"/>
    </defs>
    <g clip-path="url(#p42b7ee2fc8)">
     <use xlink:href="#madd337328b" x="89.673913" y="403.982826" style="fill: #50a2d5; fill-opacity: 0.8; stroke: #50a2d5; stroke-opacity: 0.8; stroke-width: 4"/>
     <use xlink:href="#madd337328b" x="140.621739" y="442.168511" style="fill: #50a2d5; fill-opacity: 0.8; stroke: #50a2d5; stroke-opacity: 0.8; stroke-width: 4"/>
    </g>
   </g>
   <g id="line2d_25">
    <g clip-path="url(#p42b7ee2fc8)">
     <use xlink:href="#madd337328b" x="89.673913" y="363.219508" style="fill: #50a2d5; fill-opacity: 0.8; stroke: #50a2d5; stroke-opacity: 0.8; stroke-width: 4"/>
     <use xlink:href="#madd337328b" x="140.621739" y="381.016172" style="fill: #50a2d5; fill-opacity: 0.8; stroke: #50a2d5; stroke-opacity: 0.8; stroke-width: 4"/>
    </g>
   </g>
   <g id="patch_13">
    <path d="M 64.2 533.376 
L 64.2 321.696 
" style="fill: none; stroke: #000000; stroke-width: 4; stroke-linejoin: miter; stroke-linecap: square"/>
   </g>
   <g id="patch_14">
    <path d="M 64.2 533.376 
L 166.095652 533.376 
" style="fill: none; stroke: #000000; stroke-width: 4; stroke-linejoin: miter; stroke-linecap: square"/>
   </g>
  </g>
  <g id="axes_4">
   <g id="patch_15">
    <path d="M 196.664348 533.376 
L 298.56 533.376 
L 298.56 321.696 
L 196.664348 321.696 
z
" style="fill: #ffffff"/>
   </g>
   <g id="patch_16">
    <path d="M 209.401304 533.376 
L 234.875217 533.376 
L 234.875217 380.040701 
L 209.401304 380.040701 
z
" clip-path="url(#peb08762f69)" style="fill: #22567a; fill-opacity: 0.5; stroke-dasharray: 15,10; stroke-dashoffset: 0; stroke: #22567a; stroke-width: 5; stroke-linejoin: miter"/>
   </g>
   <g id="patch_17">
    <path d="M 260.34913 533.376 
L 285.823043 533.376 
L 285.823043 471.919293 
L 260.34913 471.919293 
z
" clip-path="url(#peb08762f69)" style="fill: #22567a; fill-opacity: 0.5; stroke-dasharray: 15,10; stroke-dashoffset: 0; stroke: #22567a; stroke-width: 5; stroke-linejoin: miter"/>
   </g>
   <g id="matplotlib.axis_7">
    <g id="xtick_7">
     <g id="text_13">
      <!-- gabors -->
      <g transform="translate(178.832142 594.356433) rotate(-45) scale(0.1728 -0.1728)">
       <use xlink:href="#Arial-BoldMT-67"/>
       <use xlink:href="#Arial-BoldMT-61" x="61.083984"/>
       <use xlink:href="#Arial-BoldMT-62" x="116.699219"/>
       <use xlink:href="#Arial-BoldMT-6f" x="177.783203"/>
       <use xlink:href="#Arial-BoldMT-72" x="238.867188"/>
       <use xlink:href="#Arial-BoldMT-73" x="277.783203"/>
      </g>
     </g>
    </g>
    <g id="xtick_8">
     <g id="text_14">
      <!-- visflow -->
      <g transform="translate(229.260669 595.036104) rotate(-45) scale(0.1728 -0.1728)">
       <use xlink:href="#Arial-BoldMT-76"/>
       <use xlink:href="#Arial-BoldMT-69" x="55.615234"/>
       <use xlink:href="#Arial-BoldMT-73" x="83.398438"/>
       <use xlink:href="#Arial-BoldMT-66" x="139.013672"/>
       <use xlink:href="#Arial-BoldMT-6c" x="172.314453"/>
       <use xlink:href="#Arial-BoldMT-6f" x="200.097656"/>
       <use xlink:href="#Arial-BoldMT-77" x="261.181641"/>
      </g>
     </g>
    </g>
   </g>
   <g id="matplotlib.axis_8">
    <g id="ytick_19">
     <g id="line2d_26">
      <g>
       <use xlink:href="#m2e91b7d964" x="196.664348" y="533.376" style="stroke: #000000; stroke-width: 4"/>
      </g>
     </g>
    </g>
    <g id="ytick_20">
     <g id="line2d_27">
      <g>
       <use xlink:href="#m2e91b7d964" x="196.664348" y="491.04" style="stroke: #000000; stroke-width: 4"/>
      </g>
     </g>
    </g>
    <g id="ytick_21">
     <g id="line2d_28">
      <g>
       <use xlink:href="#m2e91b7d964" x="196.664348" y="448.704" style="stroke: #000000; stroke-width: 4"/>
      </g>
     </g>
    </g>
    <g id="ytick_22">
     <g id="line2d_29">
      <g>
       <use xlink:href="#m2e91b7d964" x="196.664348" y="406.368" style="stroke: #000000; stroke-width: 4"/>
      </g>
     </g>
    </g>
    <g id="ytick_23">
     <g id="line2d_30">
      <g>
       <use xlink:href="#m2e91b7d964" x="196.664348" y="364.032" style="stroke: #000000; stroke-width: 4"/>
      </g>
     </g>
    </g>
    <g id="ytick_24">
     <g id="line2d_31">
      <g>
       <use xlink:href="#m2e91b7d964" x="196.664348" y="321.696" style="stroke: #000000; stroke-width: 4"/>
      </g>
     </g>
    </g>
   </g>
   <g id="LineCollection_4">
    <path d="M 222.138261 411.437712 
L 222.138261 348.64369 
" clip-path="url(#peb08762f69)" style="fill: none; stroke: #22567a; stroke-opacity: 0.8; stroke-width: 5"/>
    <path d="M 273.086087 503.351018 
L 273.086087 440.487568 
" clip-path="url(#peb08762f69)" style="fill: none; stroke: #22567a; stroke-opacity: 0.8; stroke-width: 5"/>
   </g>
   <g id="line2d_32">
    <defs>
     <path id="mbc1a5e4438" d="M 8 0 
L -8 -0 
" style="stroke: #22567a; stroke-opacity: 0.8; stroke-width: 4"/>
    </defs>
    <g clip-path="url(#peb08762f69)">
     <use xlink:href="#mbc1a5e4438" x="222.138261" y="411.437712" style="fill: #22567a; fill-opacity: 0.8; stroke: #22567a; stroke-opacity: 0.8; stroke-width: 4"/>
     <use xlink:href="#mbc1a5e4438" x="273.086087" y="503.351018" style="fill: #22567a; fill-opacity: 0.8; stroke: #22567a; stroke-opacity: 0.8; stroke-width: 4"/>
    </g>
   </g>
   <g id="line2d_33">
    <g clip-path="url(#peb08762f69)">
     <use xlink:href="#mbc1a5e4438" x="222.138261" y="348.64369" style="fill: #22567a; fill-opacity: 0.8; stroke: #22567a; stroke-opacity: 0.8; stroke-width: 4"/>
     <use xlink:href="#mbc1a5e4438" x="273.086087" y="440.487568" style="fill: #22567a; fill-opacity: 0.8; stroke: #22567a; stroke-opacity: 0.8; stroke-width: 4"/>
    </g>
   </g>
   <g id="patch_18">
    <path d="M 196.664348 533.376 
L 196.664348 321.696 
" style="fill: none; stroke: #000000; stroke-width: 4; stroke-linejoin: miter; stroke-linecap: square"/>
   </g>
   <g id="patch_19">
    <path d="M 196.664348 533.376 
L 298.56 533.376 
" style="fill: none; stroke: #000000; stroke-width: 4; stroke-linejoin: miter; stroke-linecap: square"/>
   </g>
  </g>
  <g id="axes_5">
   <g id="patch_20">
    <path d="M 343.92 533.376 
L 434.64 533.376 
L 434.64 67.68 
L 343.92 67.68 
z
" style="fill: #ffffff"/>
   </g>
   <g id="patch_21">
    <path d="M 355.26 533.376 
L 377.94 533.376 
L 377.94 167.799898 
L 355.26 167.799898 
z
" clip-path="url(#paa7994b6a8)" style="fill: #656565; fill-opacity: 0.2; stroke: #656565; stroke-width: 5; stroke-linejoin: miter"/>
   </g>
   <g id="patch_22">
    <path d="M 400.62 533.376 
L 423.3 533.376 
L 423.3 356.030081 
L 400.62 356.030081 
z
" clip-path="url(#paa7994b6a8)" style="fill: #656565; fill-opacity: 0.2; stroke: #656565; stroke-width: 5; stroke-linejoin: miter"/>
   </g>
   <g id="matplotlib.axis_9">
    <g id="xtick_9">
     <g id="text_15">
      <!-- gabors -->
      <g transform="translate(323.293882 594.356433) rotate(-45) scale(0.1728 -0.1728)">
       <use xlink:href="#Arial-BoldMT-67"/>
       <use xlink:href="#Arial-BoldMT-61" x="61.083984"/>
       <use xlink:href="#Arial-BoldMT-62" x="116.699219"/>
       <use xlink:href="#Arial-BoldMT-6f" x="177.783203"/>
       <use xlink:href="#Arial-BoldMT-72" x="238.867188"/>
       <use xlink:href="#Arial-BoldMT-73" x="277.783203"/>
      </g>
     </g>
    </g>
    <g id="xtick_10">
     <g id="text_16">
      <!-- visflow -->
      <g transform="translate(368.134582 595.036104) rotate(-45) scale(0.1728 -0.1728)">
       <use xlink:href="#Arial-BoldMT-76"/>
       <use xlink:href="#Arial-BoldMT-69" x="55.615234"/>
       <use xlink:href="#Arial-BoldMT-73" x="83.398438"/>
       <use xlink:href="#Arial-BoldMT-66" x="139.013672"/>
       <use xlink:href="#Arial-BoldMT-6c" x="172.314453"/>
       <use xlink:href="#Arial-BoldMT-6f" x="200.097656"/>
       <use xlink:href="#Arial-BoldMT-77" x="261.181641"/>
      </g>
     </g>
    </g>
   </g>
   <g id="matplotlib.axis_10">
    <g id="ytick_25">
     <g id="line2d_34">
      <g>
       <use xlink:href="#m2e91b7d964" x="343.92" y="533.376" style="stroke: #000000; stroke-width: 4"/>
      </g>
     </g>
     <g id="text_17">
      <!-- 0 -->
      <g transform="translate(322.8107 539.56035) scale(0.1728 -0.1728)">
       <use xlink:href="#Arial-BoldMT-30"/>
      </g>
     </g>
    </g>
    <g id="ytick_26">
     <g id="line2d_35">
      <g>
       <use xlink:href="#m2e91b7d964" x="343.92" y="427.433054" style="stroke: #000000; stroke-width: 4"/>
      </g>
     </g>
    </g>
    <g id="ytick_27">
     <g id="line2d_36">
      <g>
       <use xlink:href="#m2e91b7d964" x="343.92" y="321.490107" style="stroke: #000000; stroke-width: 4"/>
      </g>
     </g>
     <g id="text_18">
      <!-- 0.2 -->
      <g transform="translate(308.4008 327.674457) scale(0.1728 -0.1728)">
       <use xlink:href="#Arial-BoldMT-30"/>
       <use xlink:href="#Arial-BoldMT-2e" x="55.615234"/>
       <use xlink:href="#Arial-BoldMT-32" x="83.398438"/>
      </g>
     </g>
    </g>
    <g id="ytick_28">
     <g id="line2d_37">
      <g>
       <use xlink:href="#m2e91b7d964" x="343.92" y="215.547161" style="stroke: #000000; stroke-width: 4"/>
      </g>
     </g>
    </g>
    <g id="ytick_29">
     <g id="line2d_38">
      <g>
       <use xlink:href="#m2e91b7d964" x="343.92" y="109.604215" style="stroke: #000000; stroke-width: 4"/>
      </g>
     </g>
     <g id="text_19">
      <!-- 0.4 -->
      <g transform="translate(308.4008 115.788565) scale(0.1728 -0.1728)">
       <use xlink:href="#Arial-BoldMT-30"/>
       <use xlink:href="#Arial-BoldMT-2e" x="55.615234"/>
       <use xlink:href="#Arial-BoldMT-34" x="83.398438"/>
      </g>
     </g>
    </g>
   </g>
   <g id="LineCollection_5">
    <path d="M 366.6 206.654339 
L 366.6 128.945457 
" clip-path="url(#paa7994b6a8)" style="fill: none; stroke: #656565; stroke-opacity: 0.8; stroke-width: 5"/>
    <path d="M 411.96 390.313995 
L 411.96 321.746167 
" clip-path="url(#paa7994b6a8)" style="fill: none; stroke: #656565; stroke-opacity: 0.8; stroke-width: 5"/>
   </g>
   <g id="line2d_39">
    <defs>
     <path id="mf67f8e44d5" d="M 8 0 
L -8 -0 
" style="stroke: #656565; stroke-opacity: 0.8; stroke-width: 4"/>
    </defs>
    <g clip-path="url(#paa7994b6a8)">
     <use xlink:href="#mf67f8e44d5" x="366.6" y="206.654339" style="fill: #656565; fill-opacity: 0.8; stroke: #656565; stroke-opacity: 0.8; stroke-width: 4"/>
     <use xlink:href="#mf67f8e44d5" x="411.96" y="390.313995" style="fill: #656565; fill-opacity: 0.8; stroke: #656565; stroke-opacity: 0.8; stroke-width: 4"/>
    </g>
   </g>
   <g id="line2d_40">
    <g clip-path="url(#paa7994b6a8)">
     <use xlink:href="#mf67f8e44d5" x="366.6" y="128.945457" style="fill: #656565; fill-opacity: 0.8; stroke: #656565; stroke-opacity: 0.8; stroke-width: 4"/>
     <use xlink:href="#mf67f8e44d5" x="411.96" y="321.746167" style="fill: #656565; fill-opacity: 0.8; stroke: #656565; stroke-opacity: 0.8; stroke-width: 4"/>
    </g>
   </g>
   <g id="line2d_41">
    <path d="M 366.6 89.856 
L 411.96 89.856 
" clip-path="url(#paa7994b6a8)" style="fill: none; stroke: #656565; stroke-width: 3; stroke-linecap: square"/>
   </g>
   <g id="patch_23">
    <path d="M 343.92 533.376 
L 343.92 67.68 
" style="fill: none; stroke: #000000; stroke-width: 4; stroke-linejoin: miter; stroke-linecap: square"/>
   </g>
   <g id="patch_24">
    <path d="M 343.92 533.376 
L 434.64 533.376 
" style="fill: none; stroke: #000000; stroke-width: 4; stroke-linejoin: miter; stroke-linecap: square"/>
   </g>
   <g id="text_20">
    <!-- *** -->
    <g style="fill: #656565" transform="translate(377.17374 87.712357) scale(0.20736 -0.20736)">
     <use xlink:href="#Arial-BoldMT-2a"/>
     <use xlink:href="#Arial-BoldMT-2a" x="38.916016"/>
     <use xlink:href="#Arial-BoldMT-2a" x="77.832031"/>
    </g>
   </g>
   <g id="text_21">
    <!-- all -->
    <g transform="translate(379.67475 61.68) scale(0.1728 -0.1728)">
     <use xlink:href="#Arial-BoldMT-61"/>
     <use xlink:href="#Arial-BoldMT-6c" x="55.615234"/>
     <use xlink:href="#Arial-BoldMT-6c" x="83.398438"/>
    </g>
   </g>
   <g id="PathCollection_1">
    <defs>
     <path id="m949099bd4b" d="M 0 7.071068 
C 1.875269 7.071068 3.673985 6.326016 5 5 
C 6.326016 3.673985 7.071068 1.875269 7.071068 0 
C 7.071068 -1.875269 6.326016 -3.673985 5 -5 
C 3.673985 -6.326016 1.875269 -7.071068 0 -7.071068 
C -1.875269 -7.071068 -3.673985 -6.326016 -5 -5 
C -6.326016 -3.673985 -7.071068 -1.875269 -7.071068 0 
C -7.071068 1.875269 -6.326016 3.673985 -5 5 
C -3.673985 6.326016 -1.875269 7.071068 0 7.071068 
z
" style="stroke: #ffffff; stroke-opacity: 0.8; stroke-width: 4"/>
    </defs>
    <g clip-path="url(#paa7994b6a8)">
     <use xlink:href="#m949099bd4b" x="358.8888" y="226.392252" style="fill: #ffffff; fill-opacity: 0.8; stroke: #ffffff; stroke-opacity: 0.8; stroke-width: 4"/>
    </g>
   </g>
   <g id="PathCollection_2">
    <g clip-path="url(#paa7994b6a8)">
     <use xlink:href="#m949099bd4b" x="377.94" y="158.574718" style="fill: #ffffff; fill-opacity: 0.8; stroke: #ffffff; stroke-opacity: 0.8; stroke-width: 4"/>
    </g>
   </g>
   <g id="PathCollection_3">
    <g clip-path="url(#paa7994b6a8)">
     <use xlink:href="#m949099bd4b" x="355.26" y="149.664895" style="fill: #ffffff; fill-opacity: 0.8; stroke: #ffffff; stroke-opacity: 0.8; stroke-width: 4"/>
    </g>
   </g>
   <g id="PathCollection_4">
    <g clip-path="url(#paa7994b6a8)">
     <use xlink:href="#m949099bd4b" x="374.3112" y="136.567728" style="fill: #ffffff; fill-opacity: 0.8; stroke: #ffffff; stroke-opacity: 0.8; stroke-width: 4"/>
    </g>
   </g>
   <g id="PathCollection_5">
    <g clip-path="url(#paa7994b6a8)">
     <use xlink:href="#m949099bd4b" x="404.2488" y="495.572568" style="fill: #ffffff; fill-opacity: 0.8; stroke: #ffffff; stroke-opacity: 0.8; stroke-width: 4"/>
    </g>
   </g>
   <g id="PathCollection_6">
    <g clip-path="url(#paa7994b6a8)">
     <use xlink:href="#m949099bd4b" x="423.3" y="379.584791" style="fill: #ffffff; fill-opacity: 0.8; stroke: #ffffff; stroke-opacity: 0.8; stroke-width: 4"/>
    </g>
   </g>
   <g id="PathCollection_7">
    <g clip-path="url(#paa7994b6a8)">
     <use xlink:href="#m949099bd4b" x="400.62" y="320.342245" style="fill: #ffffff; fill-opacity: 0.8; stroke: #ffffff; stroke-opacity: 0.8; stroke-width: 4"/>
    </g>
   </g>
   <g id="PathCollection_8">
    <g clip-path="url(#paa7994b6a8)">
     <use xlink:href="#m949099bd4b" x="419.6712" y="228.620718" style="fill: #ffffff; fill-opacity: 0.8; stroke: #ffffff; stroke-opacity: 0.8; stroke-width: 4"/>
    </g>
   </g>
   <g id="PathCollection_9">
    <defs>
     <path id="m296809a02b" d="M 0 7.071068 
C 1.875269 7.071068 3.673985 6.326016 5 5 
C 6.326016 3.673985 7.071068 1.875269 7.071068 0 
C 7.071068 -1.875269 6.326016 -3.673985 5 -5 
C 3.673985 -6.326016 1.875269 -7.071068 0 -7.071068 
C -1.875269 -7.071068 -3.673985 -6.326016 -5 -5 
C -6.326016 -3.673985 -7.071068 -1.875269 -7.071068 0 
C -7.071068 1.875269 -6.326016 3.673985 -5 5 
C -3.673985 6.326016 -1.875269 7.071068 0 7.071068 
z
"/>
    </defs>
    <g clip-path="url(#paa7994b6a8)">
     <use xlink:href="#m296809a02b" x="358.8888" y="226.392252" style="fill: #488a21; fill-opacity: 0.6"/>
    </g>
   </g>
   <g id="PathCollection_10">
    <defs>
     <path id="m4f2fae7975" d="M 0 7.071068 
C 1.875269 7.071068 3.673985 6.326016 5 5 
C 6.326016 3.673985 7.071068 1.875269 7.071068 0 
C 7.071068 -1.875269 6.326016 -3.673985 5 -5 
C 3.673985 -6.326016 1.875269 -7.071068 0 -7.071068 
C -1.875269 -7.071068 -3.673985 -6.326016 -5 -5 
C -6.326016 -3.673985 -7.071068 -1.875269 -7.071068 0 
C -7.071068 1.875269 -6.326016 3.673985 -5 5 
C -3.673985 6.326016 -1.875269 7.071068 0 7.071068 
z
"/>
    </defs>
    <g clip-path="url(#paa7994b6a8)">
     <use xlink:href="#m4f2fae7975" x="377.94" y="158.574718" style="fill: #50a2d5; fill-opacity: 0.6"/>
    </g>
   </g>
   <g id="PathCollection_11">
    <defs>
     <path id="mabb3eeacb0" d="M 0 7.071068 
C 1.875269 7.071068 3.673985 6.326016 5 5 
C 6.326016 3.673985 7.071068 1.875269 7.071068 0 
C 7.071068 -1.875269 6.326016 -3.673985 5 -5 
C 3.673985 -6.326016 1.875269 -7.071068 0 -7.071068 
C -1.875269 -7.071068 -3.673985 -6.326016 -5 -5 
C -6.326016 -3.673985 -7.071068 -1.875269 -7.071068 0 
C -7.071068 1.875269 -6.326016 3.673985 -5 5 
C -3.673985 6.326016 -1.875269 7.071068 0 7.071068 
z
"/>
    </defs>
    <g clip-path="url(#paa7994b6a8)">
     <use xlink:href="#mabb3eeacb0" x="355.26" y="149.664895" style="fill: #22567a; fill-opacity: 0.6"/>
    </g>
   </g>
   <g id="PathCollection_12">
    <defs>
     <path id="md8e880b28a" d="M 0 7.071068 
C 1.875269 7.071068 3.673985 6.326016 5 5 
C 6.326016 3.673985 7.071068 1.875269 7.071068 0 
C 7.071068 -1.875269 6.326016 -3.673985 5 -5 
C 3.673985 -6.326016 1.875269 -7.071068 0 -7.071068 
C -1.875269 -7.071068 -3.673985 -6.326016 -5 -5 
C -6.326016 -3.673985 -7.071068 -1.875269 -7.071068 0 
C -7.071068 1.875269 -6.326016 3.673985 -5 5 
C -3.673985 6.326016 -1.875269 7.071068 0 7.071068 
z
"/>
    </defs>
    <g clip-path="url(#paa7994b6a8)">
     <use xlink:href="#md8e880b28a" x="374.3112" y="136.567728" style="fill: #76bb4b; fill-opacity: 0.6"/>
    </g>
   </g>
   <g id="PathCollection_13">
    <g clip-path="url(#paa7994b6a8)">
     <use xlink:href="#m296809a02b" x="404.2488" y="495.572568" style="fill: #488a21; fill-opacity: 0.6"/>
    </g>
   </g>
   <g id="PathCollection_14">
    <g clip-path="url(#paa7994b6a8)">
     <use xlink:href="#mabb3eeacb0" x="423.3" y="379.584791" style="fill: #22567a; fill-opacity: 0.6"/>
    </g>
   </g>
   <g id="PathCollection_15">
    <g clip-path="url(#paa7994b6a8)">
     <use xlink:href="#md8e880b28a" x="400.62" y="320.342245" style="fill: #76bb4b; fill-opacity: 0.6"/>
    </g>
   </g>
   <g id="PathCollection_16">
    <g clip-path="url(#paa7994b6a8)">
     <use xlink:href="#m4f2fae7975" x="419.6712" y="228.620718" style="fill: #50a2d5; fill-opacity: 0.6"/>
    </g>
   </g>
   <g id="PathCollection_17">
    <path d="M 358.8888 233.46332 
C 360.764069 233.46332 362.562785 232.718268 363.8888 231.392252 
C 365.214815 230.066237 365.959868 228.267521 365.959868 226.392252 
C 365.959868 224.516983 365.214815 222.718268 363.8888 221.392252 
C 362.562785 220.066237 360.764069 219.321185 358.8888 219.321185 
C 357.013531 219.321185 355.214815 220.066237 353.8888 221.392252 
C 352.562785 222.718268 351.817732 224.516983 351.817732 226.392252 
C 351.817732 228.267521 352.562785 230.066237 353.8888 231.392252 
C 355.214815 232.718268 357.013531 233.46332 358.8888 233.46332 
L 358.8888 233.46332 
z
" clip-path="url(#paa7994b6a8)" style="fill: none; stroke: #488a21; stroke-width: 4"/>
   </g>
   <g id="PathCollection_18">
    <path d="M 377.94 165.645786 
C 379.815269 165.645786 381.613985 164.900733 382.94 163.574718 
C 384.266016 162.248702 385.011068 160.449987 385.011068 158.574718 
C 385.011068 156.699449 384.266016 154.900733 382.94 153.574718 
C 381.613985 152.248702 379.815269 151.50365 377.94 151.50365 
C 376.064731 151.50365 374.266016 152.248702 372.94 153.574718 
C 371.613985 154.900733 370.868932 156.699449 370.868932 158.574718 
C 370.868932 160.449987 371.613985 162.248702 372.94 163.574718 
C 374.266016 164.900733 376.064731 165.645786 377.94 165.645786 
L 377.94 165.645786 
z
" clip-path="url(#paa7994b6a8)" style="fill: none; stroke: #50a2d5; stroke-width: 4"/>
   </g>
   <g id="PathCollection_19">
    <path d="M 355.26 156.735963 
C 357.135269 156.735963 358.933985 155.990911 360.26 154.664895 
C 361.586015 153.33888 362.331068 151.540164 362.331068 149.664895 
C 362.331068 147.789626 361.586015 145.990911 360.26 144.664895 
C 358.933985 143.33888 357.135269 142.593827 355.26 142.593827 
C 353.384731 142.593827 351.586015 143.33888 350.26 144.664895 
C 348.933985 145.990911 348.188932 147.789626 348.188932 149.664895 
C 348.188932 151.540164 348.933985 153.33888 350.26 154.664895 
C 351.586015 155.990911 353.384731 156.735963 355.26 156.735963 
L 355.26 156.735963 
z
" clip-path="url(#paa7994b6a8)" style="fill: none; stroke: #22567a; stroke-width: 4"/>
   </g>
   <g id="PathCollection_20">
    <path d="M 374.3112 143.638796 
C 376.186469 143.638796 377.985185 142.893743 379.3112 141.567728 
C 380.637216 140.241712 381.382268 138.442997 381.382268 136.567728 
C 381.382268 134.692459 380.637216 132.893743 379.3112 131.567728 
C 377.985185 130.241712 376.186469 129.49666 374.3112 129.49666 
C 372.435931 129.49666 370.637216 130.241712 369.3112 131.567728 
C 367.985185 132.893743 367.240132 134.692459 367.240132 136.567728 
C 367.240132 138.442997 367.985185 140.241712 369.3112 141.567728 
C 370.637216 142.893743 372.435931 143.638796 374.3112 143.638796 
L 374.3112 143.638796 
z
" clip-path="url(#paa7994b6a8)" style="fill: none; stroke: #76bb4b; stroke-width: 4"/>
   </g>
   <g id="PathCollection_21">
    <path d="M 404.2488 502.643636 
C 406.124069 502.643636 407.922785 501.898583 409.2488 500.572568 
C 410.574815 499.246552 411.319868 497.447837 411.319868 495.572568 
C 411.319868 493.697299 410.574815 491.898583 409.2488 490.572568 
C 407.922785 489.246552 406.124069 488.5015 404.2488 488.5015 
C 402.373531 488.5015 400.574815 489.246552 399.2488 490.572568 
C 397.922785 491.898583 397.177732 493.697299 397.177732 495.572568 
C 397.177732 497.447837 397.922785 499.246552 399.2488 500.572568 
C 400.574815 501.898583 402.373531 502.643636 404.2488 502.643636 
L 404.2488 502.643636 
z
" clip-path="url(#paa7994b6a8)" style="fill: none; stroke: #488a21; stroke-width: 4"/>
   </g>
   <g id="PathCollection_22">
    <path d="M 423.3 386.655859 
C 425.175269 386.655859 426.973985 385.910807 428.3 384.584791 
C 429.626016 383.258776 430.371068 381.46006 430.371068 379.584791 
C 430.371068 377.709522 429.626016 375.910807 428.3 374.584791 
C 426.973985 373.258776 425.175269 372.513723 423.3 372.513723 
C 421.424731 372.513723 419.626016 373.258776 418.3 374.584791 
C 416.973985 375.910807 416.228932 377.709522 416.228932 379.584791 
C 416.228932 381.46006 416.973985 383.258776 418.3 384.584791 
C 419.626016 385.910807 421.424731 386.655859 423.3 386.655859 
L 423.3 386.655859 
z
" clip-path="url(#paa7994b6a8)" style="fill: none; stroke: #22567a; stroke-width: 4"/>
   </g>
   <g id="PathCollection_23">
    <path d="M 400.62 327.413313 
C 402.495269 327.413313 404.293985 326.668261 405.62 325.342245 
C 406.946015 324.01623 407.691068 322.217515 407.691068 320.342245 
C 407.691068 318.466976 406.946015 316.668261 405.62 315.342245 
C 404.293985 314.01623 402.495269 313.271178 400.62 313.271178 
C 398.744731 313.271178 396.946015 314.01623 395.62 315.342245 
C 394.293985 316.668261 393.548932 318.466976 393.548932 320.342245 
C 393.548932 322.217515 394.293985 324.01623 395.62 325.342245 
C 396.946015 326.668261 398.744731 327.413313 400.62 327.413313 
L 400.62 327.413313 
z
" clip-path="url(#paa7994b6a8)" style="fill: none; stroke: #76bb4b; stroke-width: 4"/>
   </g>
   <g id="PathCollection_24">
    <path d="M 419.6712 235.691786 
C 421.546469 235.691786 423.345185 234.946733 424.6712 233.620718 
C 425.997216 232.294702 426.742268 230.495987 426.742268 228.620718 
C 426.742268 226.745449 425.997216 224.946733 424.6712 223.620718 
C 423.345185 222.294702 421.546469 221.54965 419.6712 221.54965 
C 417.795931 221.54965 415.997216 222.294702 414.6712 223.620718 
C 413.345185 224.946733 412.600132 226.745449 412.600132 228.620718 
C 412.600132 230.495987 413.345185 232.294702 414.6712 233.620718 
C 415.997216 234.946733 417.795931 235.691786 419.6712 235.691786 
L 419.6712 235.691786 
z
" clip-path="url(#paa7994b6a8)" style="fill: none; stroke: #50a2d5; stroke-width: 4"/>
   </g>
  </g>
  <g id="text_22">
   <!-- USI changes from session 1 to 3 -->
   <g transform="translate(44.6088 19.7793) scale(0.1728 -0.1728)">
    <defs>
     <path id="Arial-BoldMT-55" d="M 459 4581 
L 1384 4581 
L 1384 2100 
Q 1384 1509 1419 1334 
Q 1478 1053 1701 883 
Q 1925 713 2313 713 
Q 2706 713 2906 873 
Q 3106 1034 3147 1268 
Q 3188 1503 3188 2047 
L 3188 4581 
L 4113 4581 
L 4113 2175 
Q 4113 1350 4038 1009 
Q 3963 669 3761 434 
Q 3559 200 3221 61 
Q 2884 -78 2341 -78 
Q 1684 -78 1345 73 
Q 1006 225 809 467 
Q 613 709 550 975 
Q 459 1369 459 2138 
L 459 4581 
z
" transform="scale(0.015625)"/>
     <path id="Arial-BoldMT-53" d="M 231 1491 
L 1131 1578 
Q 1213 1125 1461 912 
Q 1709 700 2131 700 
Q 2578 700 2804 889 
Q 3031 1078 3031 1331 
Q 3031 1494 2936 1608 
Q 2841 1722 2603 1806 
Q 2441 1863 1863 2006 
Q 1119 2191 819 2459 
Q 397 2838 397 3381 
Q 397 3731 595 4036 
Q 794 4341 1167 4500 
Q 1541 4659 2069 4659 
Q 2931 4659 3367 4281 
Q 3803 3903 3825 3272 
L 2900 3231 
Q 2841 3584 2645 3739 
Q 2450 3894 2059 3894 
Q 1656 3894 1428 3728 
Q 1281 3622 1281 3444 
Q 1281 3281 1419 3166 
Q 1594 3019 2269 2859 
Q 2944 2700 3267 2529 
Q 3591 2359 3773 2064 
Q 3956 1769 3956 1334 
Q 3956 941 3737 597 
Q 3519 253 3119 86 
Q 2719 -81 2122 -81 
Q 1253 -81 787 320 
Q 322 722 231 1491 
z
" transform="scale(0.015625)"/>
     <path id="Arial-BoldMT-49" d="M 438 0 
L 438 4581 
L 1363 4581 
L 1363 0 
L 438 0 
z
" transform="scale(0.015625)"/>
     <path id="Arial-BoldMT-63" d="M 3353 2338 
L 2488 2181 
Q 2444 2441 2289 2572 
Q 2134 2703 1888 2703 
Q 1559 2703 1364 2476 
Q 1169 2250 1169 1719 
Q 1169 1128 1367 884 
Q 1566 641 1900 641 
Q 2150 641 2309 783 
Q 2469 925 2534 1272 
L 3397 1125 
Q 3263 531 2881 228 
Q 2500 -75 1859 -75 
Q 1131 -75 698 384 
Q 266 844 266 1656 
Q 266 2478 700 2936 
Q 1134 3394 1875 3394 
Q 2481 3394 2839 3133 
Q 3197 2872 3353 2338 
z
" transform="scale(0.015625)"/>
     <path id="Arial-BoldMT-68" d="M 1334 4581 
L 1334 2897 
Q 1759 3394 2350 3394 
Q 2653 3394 2897 3281 
Q 3141 3169 3264 2994 
Q 3388 2819 3433 2606 
Q 3478 2394 3478 1947 
L 3478 0 
L 2600 0 
L 2600 1753 
Q 2600 2275 2550 2415 
Q 2500 2556 2373 2639 
Q 2247 2722 2056 2722 
Q 1838 2722 1666 2615 
Q 1494 2509 1414 2295 
Q 1334 2081 1334 1663 
L 1334 0 
L 456 0 
L 456 4581 
L 1334 4581 
z
" transform="scale(0.015625)"/>
     <path id="Arial-BoldMT-6e" d="M 3478 0 
L 2600 0 
L 2600 1694 
Q 2600 2231 2544 2389 
Q 2488 2547 2361 2634 
Q 2234 2722 2056 2722 
Q 1828 2722 1647 2597 
Q 1466 2472 1398 2265 
Q 1331 2059 1331 1503 
L 1331 0 
L 453 0 
L 453 3319 
L 1269 3319 
L 1269 2831 
Q 1703 3394 2363 3394 
Q 2653 3394 2893 3289 
Q 3134 3184 3257 3021 
Q 3381 2859 3429 2653 
Q 3478 2447 3478 2063 
L 3478 0 
z
" transform="scale(0.015625)"/>
     <path id="Arial-BoldMT-65" d="M 2381 1056 
L 3256 909 
Q 3088 428 2723 176 
Q 2359 -75 1813 -75 
Q 947 -75 531 491 
Q 203 944 203 1634 
Q 203 2459 634 2926 
Q 1066 3394 1725 3394 
Q 2466 3394 2894 2905 
Q 3322 2416 3303 1406 
L 1103 1406 
Q 1113 1016 1316 798 
Q 1519 581 1822 581 
Q 2028 581 2168 693 
Q 2309 806 2381 1056 
z
M 2431 1944 
Q 2422 2325 2234 2523 
Q 2047 2722 1778 2722 
Q 1491 2722 1303 2513 
Q 1116 2303 1119 1944 
L 2431 1944 
z
" transform="scale(0.015625)"/>
     <path id="Arial-BoldMT-6d" d="M 394 3319 
L 1203 3319 
L 1203 2866 
Q 1638 3394 2238 3394 
Q 2556 3394 2790 3262 
Q 3025 3131 3175 2866 
Q 3394 3131 3647 3262 
Q 3900 3394 4188 3394 
Q 4553 3394 4806 3245 
Q 5059 3097 5184 2809 
Q 5275 2597 5275 2122 
L 5275 0 
L 4397 0 
L 4397 1897 
Q 4397 2391 4306 2534 
Q 4184 2722 3931 2722 
Q 3747 2722 3584 2609 
Q 3422 2497 3350 2280 
Q 3278 2063 3278 1594 
L 3278 0 
L 2400 0 
L 2400 1819 
Q 2400 2303 2353 2443 
Q 2306 2584 2207 2653 
Q 2109 2722 1941 2722 
Q 1738 2722 1575 2612 
Q 1413 2503 1342 2297 
Q 1272 2091 1272 1613 
L 1272 0 
L 394 0 
L 394 3319 
z
" transform="scale(0.015625)"/>
     <path id="Arial-BoldMT-31" d="M 2519 0 
L 1641 0 
L 1641 3309 
Q 1159 2859 506 2644 
L 506 3441 
Q 850 3553 1253 3867 
Q 1656 4181 1806 4600 
L 2519 4600 
L 2519 0 
z
" transform="scale(0.015625)"/>
     <path id="Arial-BoldMT-74" d="M 1981 3319 
L 1981 2619 
L 1381 2619 
L 1381 1281 
Q 1381 875 1398 808 
Q 1416 741 1477 697 
Q 1538 653 1625 653 
Q 1747 653 1978 738 
L 2053 56 
Q 1747 -75 1359 -75 
Q 1122 -75 931 4 
Q 741 84 652 211 
Q 563 338 528 553 
Q 500 706 500 1172 
L 500 2619 
L 97 2619 
L 97 3319 
L 500 3319 
L 500 3978 
L 1381 4491 
L 1381 3319 
L 1981 3319 
z
" transform="scale(0.015625)"/>
    </defs>
    <use xlink:href="#Arial-BoldMT-55"/>
    <use xlink:href="#Arial-BoldMT-53" x="72.216797"/>
    <use xlink:href="#Arial-BoldMT-49" x="138.916016"/>
    <use xlink:href="#Arial-BoldMT-20" x="166.699219"/>
    <use xlink:href="#Arial-BoldMT-63" x="194.482422"/>
    <use xlink:href="#Arial-BoldMT-68" x="250.097656"/>
    <use xlink:href="#Arial-BoldMT-61" x="311.181641"/>
    <use xlink:href="#Arial-BoldMT-6e" x="366.796875"/>
    <use xlink:href="#Arial-BoldMT-67" x="427.880859"/>
    <use xlink:href="#Arial-BoldMT-65" x="488.964844"/>
    <use xlink:href="#Arial-BoldMT-73" x="544.580078"/>
    <use xlink:href="#Arial-BoldMT-20" x="600.195312"/>
    <use xlink:href="#Arial-BoldMT-66" x="627.978516"/>
    <use xlink:href="#Arial-BoldMT-72" x="661.279297"/>
    <use xlink:href="#Arial-BoldMT-6f" x="700.195312"/>
    <use xlink:href="#Arial-BoldMT-6d" x="761.279297"/>
    <use xlink:href="#Arial-BoldMT-20" x="850.195312"/>
    <use xlink:href="#Arial-BoldMT-73" x="877.978516"/>
    <use xlink:href="#Arial-BoldMT-65" x="933.59375"/>
    <use xlink:href="#Arial-BoldMT-73" x="989.208984"/>
    <use xlink:href="#Arial-BoldMT-73" x="1044.824219"/>
    <use xlink:href="#Arial-BoldMT-69" x="1100.439453"/>
    <use xlink:href="#Arial-BoldMT-6f" x="1128.222656"/>
    <use xlink:href="#Arial-BoldMT-6e" x="1189.306641"/>
    <use xlink:href="#Arial-BoldMT-20" x="1250.390625"/>
    <use xlink:href="#Arial-BoldMT-31" x="1278.173828"/>
    <use xlink:href="#Arial-BoldMT-20" x="1333.789062"/>
    <use xlink:href="#Arial-BoldMT-74" x="1361.572266"/>
    <use xlink:href="#Arial-BoldMT-6f" x="1394.873047"/>
    <use xlink:href="#Arial-BoldMT-20" x="1455.957031"/>
    <use xlink:href="#Arial-BoldMT-33" x="1483.740234"/>
   </g>
  </g>
  <g id="text_23">
   <!-- Absolute fractional change -->
   <g transform="translate(19.7793 284.409) rotate(-90) scale(0.1728 -0.1728)">
    <defs>
     <path id="Arial-BoldMT-41" d="M 4597 0 
L 3591 0 
L 3191 1041 
L 1359 1041 
L 981 0 
L 0 0 
L 1784 4581 
L 2763 4581 
L 4597 0 
z
M 2894 1813 
L 2263 3513 
L 1644 1813 
L 2894 1813 
z
" transform="scale(0.015625)"/>
     <path id="Arial-BoldMT-75" d="M 2644 0 
L 2644 497 
Q 2463 231 2167 78 
Q 1872 -75 1544 -75 
Q 1209 -75 943 72 
Q 678 219 559 484 
Q 441 750 441 1219 
L 441 3319 
L 1319 3319 
L 1319 1794 
Q 1319 1094 1367 936 
Q 1416 778 1544 686 
Q 1672 594 1869 594 
Q 2094 594 2272 717 
Q 2450 841 2515 1023 
Q 2581 1206 2581 1919 
L 2581 3319 
L 3459 3319 
L 3459 0 
L 2644 0 
z
" transform="scale(0.015625)"/>
    </defs>
    <use xlink:href="#Arial-BoldMT-41"/>
    <use xlink:href="#Arial-BoldMT-62" x="72.216797"/>
    <use xlink:href="#Arial-BoldMT-73" x="133.300781"/>
    <use xlink:href="#Arial-BoldMT-6f" x="188.916016"/>
    <use xlink:href="#Arial-BoldMT-6c" x="250"/>
    <use xlink:href="#Arial-BoldMT-75" x="277.783203"/>
    <use xlink:href="#Arial-BoldMT-74" x="338.867188"/>
    <use xlink:href="#Arial-BoldMT-65" x="372.167969"/>
    <use xlink:href="#Arial-BoldMT-20" x="427.783203"/>
    <use xlink:href="#Arial-BoldMT-66" x="455.566406"/>
    <use xlink:href="#Arial-BoldMT-72" x="488.867188"/>
    <use xlink:href="#Arial-BoldMT-61" x="527.783203"/>
    <use xlink:href="#Arial-BoldMT-63" x="583.398438"/>
    <use xlink:href="#Arial-BoldMT-74" x="639.013672"/>
    <use xlink:href="#Arial-BoldMT-69" x="672.314453"/>
    <use xlink:href="#Arial-BoldMT-6f" x="700.097656"/>
    <use xlink:href="#Arial-BoldMT-6e" x="761.181641"/>
    <use xlink:href="#Arial-BoldMT-61" x="822.265625"/>
    <use xlink:href="#Arial-BoldMT-6c" x="877.880859"/>
    <use xlink:href="#Arial-BoldMT-20" x="905.664062"/>
    <use xlink:href="#Arial-BoldMT-63" x="933.447266"/>
    <use xlink:href="#Arial-BoldMT-68" x="989.0625"/>
    <use xlink:href="#Arial-BoldMT-61" x="1050.146484"/>
    <use xlink:href="#Arial-BoldMT-6e" x="1105.761719"/>
    <use xlink:href="#Arial-BoldMT-67" x="1166.845703"/>
    <use xlink:href="#Arial-BoldMT-65" x="1227.929688"/>
   </g>
  </g>
 </g>
 <defs>
  <clipPath id="p19483510ef">
   <rect x="64.2" y="67.68" width="101.895652" height="211.68"/>
  </clipPath>
  <clipPath id="p4efa95f5ef">
   <rect x="196.664348" y="67.68" width="101.895652" height="211.68"/>
  </clipPath>
  <clipPath id="p42b7ee2fc8">
   <rect x="64.2" y="321.696" width="101.895652" height="211.68"/>
  </clipPath>
  <clipPath id="peb08762f69">
   <rect x="196.664348" y="321.696" width="101.895652" height="211.68"/>
  </clipPath>
  <clipPath id="paa7994b6a8">
   <rect x="343.92" y="67.68" width="90.72" height="465.696"/>
  </clipPath>
 </defs>
</svg>
